<?xml version="1.0" encoding="UTF-8"?>
<svg id="uuid-c3901e00-3632-446a-a75f-d7980cbde1b4" data-name="Layer 1" xmlns="http://www.w3.org/2000/svg" viewBox="0 0 1260 531">
  <polygon points="892.13 530.5 770.92 530.5 671.55 1.5 718.5 1.5 892.13 530.5"/>
  <polygon points="505 332.5 647 332.5 647 530.5 757.51 530.5 656.85 1.5 647 1.5 647 197.5 505 197.5 505 1.5 391 1.5 391 530.5 505 530.5 505 332.5"/>
  <polygon points="1059 1.5 1059 197.5 917 197.5 917 1.5 733.75 1.5 906.07 530.5 917 530.5 917 332.5 1059 332.5 1059 530.5 1173 530.5 1173 1.5 1059 1.5"/>
  <path d="M173.49,1.5L.86,530.5H125.93l59.26-197h78.81v197h114V1.5H173.49Zm95.51,196h-39.15l39.15-130.16V197.5Z"/>
  <g>
    <path d="M1194.86,34.98c-3.24-3.61-4.86-8.29-4.86-14.03V2.66c0-.32,.11-.6,.34-.82,.23-.23,.5-.34,.83-.34h65.67c.32,0,.6,.11,.83,.34,.23,.23,.34,.5,.34,.82V18.82c0,6.45-1.55,11.5-4.66,15.14-3.11,3.64-7.74,5.47-13.89,5.47s-11.07-2.19-13.99-6.58c-.19-.26-.39-.29-.58-.1-3.63,5.1-9,7.64-16.13,7.64-6.02,0-10.65-1.81-13.89-5.42Zm9.44-10.71c1.53,1.22,3.7,1.84,6.51,1.84s5.04-.61,6.7-1.84c1.66-1.23,2.49-2.87,2.49-4.94v-4.35c0-.32-.16-.48-.48-.48h-17.04c-.32,0-.48,.16-.48,.48v4.26c0,2.13,.77,3.81,2.3,5.03Zm41.22-9.77h-15.03c-.27,0-.48,.22-.48,.48v3.48c0,2.19,.69,3.9,2.06,5.13,1.37,1.22,3.31,1.84,5.8,1.84,2.62,0,4.63-.6,6.04-1.79,1.4-1.19,2.11-2.92,2.11-5.18v-3.48c0-.27-.22-.48-.48-.48Z"/>
    <path d="M1246.35,81.16c-.23-.23-.35-.51-.35-.83v-20.34c0-.27-.22-.48-.48-.48h-15.03c-.27,0-.48,.22-.48,.48v11.38c0,.32-.11,.58-.33,.81-.22,.22-.49,.33-.81,.33h-9.72c-.32,0-.58-.11-.8-.33-.22-.22-.33-.49-.33-.81v-11.38c0-.27-.22-.48-.48-.48h-15.03c-.27,0-.48,.22-.48,.48v20.34c0,.33-.12,.6-.35,.83-.23,.23-.51,.34-.84,.34h-9.62c-.33,0-.61-.11-.84-.34-.23-.23-.35-.51-.35-.83V46.68c0-.33,.11-.61,.35-.83,.23-.23,.51-.34,.84-.34h65.62c.33,0,.61,.11,.84,.34,.23,.23,.35,.51,.35,.83v33.65c0,.33-.12,.6-.35,.83-.23,.23-.51,.34-.84,.34h-9.62c-.33,0-.61-.11-.84-.34Z"/>
    <path d="M1257.65,146.16c-.23,.23-.51,.34-.84,.34h-9.62c-.33,0-.61-.11-.84-.34-.23-.23-.35-.5-.35-.83v-11.34c0-.27-.22-.48-.48-.48h-54.36c-.32,0-.6-.12-.82-.35-.23-.23-.34-.51-.34-.84v-11.62c0-.33,.11-.61,.34-.84,.23-.23,.5-.35,.82-.35h54.36c.27,0,.48-.22,.48-.48v-12.34c0-.33,.11-.6,.35-.83,.23-.23,.51-.34,.84-.34h9.62c.33,0,.61,.11,.84,.34s.35,.5,.35,.83v38.66c0,.32-.12,.6-.35,.83Z"/>
    <path d="M1257.66,177.85c.23,.23,.34,.52,.34,.85v11.64c0,.32-.11,.6-.34,.82-.23,.23-.5,.34-.83,.34h-65.67c-.32,0-.6-.11-.83-.34-.23-.23-.34-.5-.34-.82v-11.75c0-.3,.11-.56,.34-.77,.23-.21,.5-.32,.82-.32h26.36c.27,0,.48-.22,.48-.48v-9.03c0-.27-.22-.48-.48-.48h-26.35c-.32,0-.6-.12-.83-.35-.23-.23-.34-.51-.34-.84v-11.62c0-.33,.11-.61,.34-.84,.23-.23,.5-.35,.83-.35h65.67c.32,0,.6,.11,.83,.35,.23,.23,.34,.51,.34,.84v10.61c0,.33-.11,.62-.34,.85-.23,.23-.5,.35-.82,.35h-26.35c-.27,0-.48,.22-.48,.48v10.03c0,.27,.22,.48,.48,.48h26.35c.32,0,.6,.12,.82,.35Z"/>
    <path d="M1246.35,235.16c-.23-.23-.35-.51-.35-.83v-20.34c0-.27-.22-.48-.48-.48h-15.03c-.27,0-.48,.22-.48,.48v11.38c0,.32-.11,.58-.33,.81-.22,.22-.49,.33-.81,.33h-9.72c-.32,0-.58-.11-.8-.33-.22-.22-.33-.49-.33-.81v-11.38c0-.27-.22-.48-.48-.48h-15.03c-.27,0-.48,.22-.48,.48v20.34c0,.33-.12,.6-.35,.83-.23,.23-.51,.34-.84,.34h-9.62c-.33,0-.61-.11-.84-.34-.23-.23-.35-.51-.35-.83v-33.65c0-.33,.11-.61,.35-.83,.23-.23,.51-.34,.84-.34h65.62c.33,0,.61,.11,.84,.34,.23,.23,.35,.51,.35,.83v33.65c0,.33-.12,.6-.35,.83-.23,.23-.51,.34-.84,.34h-9.62c-.33,0-.61-.11-.84-.34Z"/>
    <path d="M1194.55,264.83c3.49-3.55,8.17-5.33,14.03-5.33h31.69c5.8,0,10.43,1.78,13.89,5.33,3.46,3.55,5.18,8.26,5.18,14.12s-1.73,10.67-5.18,14.22c-3.46,3.55-8.09,5.33-13.89,5.33h-1.2c-.33,0-.61-.12-.84-.35s-.35-.51-.35-.84l-.5-11.62c0-.79,.36-1.19,1.09-1.19h2.04c1.82,0,3.29-.5,4.42-1.5,1.13-1,1.69-2.35,1.69-4.04s-.56-2.95-1.69-3.95c-1.13-1-2.6-1.5-4.42-1.5h-32.46c-1.82,0-3.28,.5-4.37,1.5-1.1,1-1.65,2.32-1.65,3.95s.55,3.04,1.65,4.04c1.1,1,2.55,1.5,4.37,1.5h2.13c.33,0,.61,.11,.84,.35s.35,.51,.35,.84l-.5,11.62c0,.79-.36,1.19-1.09,1.19h-1.2c-5.87,0-10.55-1.79-14.03-5.38-3.49-3.58-5.23-8.31-5.23-14.17s1.74-10.57,5.23-14.12Z"/>
    <path d="M1257.66,330.85c.23,.23,.34,.52,.34,.85v10.64c0,.32-.11,.6-.34,.82-.23,.22-.5,.34-.83,.34h-65.67c-.32,0-.6-.11-.83-.34-.23-.23-.34-.5-.34-.82v-10.64c0-.33,.11-.62,.34-.85,.23-.23,.5-.35,.82-.35h26.36c.27,0,.48-.22,.48-.48v-10.03c0-.27-.22-.48-.48-.48h-26.35c-.32,0-.6-.12-.83-.35-.23-.23-.34-.51-.34-.84v-11.62c0-.33,.11-.61,.34-.84,.23-.23,.5-.35,.83-.35h65.67c.32,0,.6,.11,.83,.35s.34,.51,.34,.84v11.61c0,.33-.11,.62-.34,.85-.23,.23-.5,.35-.82,.35h-26.35c-.27,0-.48,.22-.48,.48v10.03c0,.27,.22,.48,.48,.48h26.35c.32,0,.6,.12,.82,.35Z"/>
    <path d="M1191.08,380.64l9.43-1.57c.33,0,.49-.2,.49-.59v-12.27c0-.39-.13-.59-.39-.59l-9.53-1.77c-.72-.07-1.08-.49-1.08-1.28v-11.25c0-.84,.42-1.16,1.26-.97l65.67,14.27c.71,.13,1.07,.55,1.07,1.26v13.11c0,.71-.36,1.13-1.07,1.26l-65.67,14.17-.39,.1c-.58,0-.87-.36-.87-1.07v-11.54c0-.79,.36-1.21,1.08-1.28Zm20.92-12.31v8.32c0,.26,.16,.39,.48,.39l24.98-4.06c.19-.07,.29-.16,.29-.29s-.1-.23-.29-.29l-24.98-4.55c-.32-.06-.48,.1-.48,.48Z"/>
    <path d="M1190.34,401.83c.23-.22,.5-.33,.83-.33h65.67c.32,0,.6,.11,.83,.33,.23,.22,.34,.49,.34,.8v12.03c0,.62-.33,1.03-.97,1.22l-36.33,12.06c-.19,.06-.28,.17-.24,.33,.03,.16,.15,.23,.34,.23h36.04c.32,0,.6,.11,.83,.33,.23,.22,.34,.48,.34,.79v10.76c0,.31-.11,.58-.34,.79-.23,.22-.5,.33-.83,.33h-65.67c-.32,0-.6-.11-.83-.33s-.34-.48-.34-.79v-11.94c0-.63,.32-1.04,.97-1.22l36.43-12.15c.19-.06,.29-.17,.29-.33s-.1-.24-.29-.24l-36.23,.09c-.32,0-.6-.11-.83-.33s-.34-.49-.34-.8v-10.83c0-.32,.11-.58,.34-.8Z"/>
    <path d="M1193.55,454.83c3.43-3.55,8.02-5.33,13.75-5.33h33.8c5.73,0,10.32,1.78,13.75,5.33,3.43,3.55,5.15,8.26,5.15,14.12s-1.73,10.59-5.2,14.17c-3.47,3.58-8.07,5.38-13.8,5.38h-3.8c-.33,0-.62-.11-.85-.34-.23-.23-.35-.51-.35-.83v-11.7c0-.31,.11-.58,.33-.8,.22-.22,.48-.33,.8-.33h3.76c1.88,0,3.4-.5,4.56-1.5,1.16-1,1.74-2.35,1.74-4.04s-.58-2.95-1.74-3.95c-1.16-1-2.68-1.5-4.56-1.5h-31.99c-1.88,0-3.4,.5-4.56,1.5-1.16,1-1.74,2.32-1.74,3.95s.58,3.04,1.74,4.04c1.16,1,2.68,1.5,4.56,1.5h6.61c.27,0,.48-.22,.48-.48v-4.34c0-.33,.11-.61,.34-.84,.23-.23,.5-.34,.83-.34h8.66c.32,0,.6,.11,.83,.34s.34,.51,.34,.84v17.65c0,.33-.12,.6-.35,.83-.23,.23-.52,.34-.85,.34h-18.5c-5.73,0-10.32-1.79-13.75-5.38-3.43-3.58-5.15-8.31-5.15-14.17s1.72-10.57,5.15-14.12Z"/>
    <path d="M1246.35,530.16c-.23-.23-.35-.51-.35-.83v-20.34c0-.27-.22-.48-.48-.48h-15.03c-.27,0-.48,.22-.48,.48v11.38c0,.32-.11,.58-.33,.81-.22,.22-.49,.33-.81,.33h-9.72c-.32,0-.58-.11-.8-.33-.22-.22-.33-.49-.33-.81v-11.38c0-.27-.22-.48-.48-.48h-15.03c-.27,0-.48,.22-.48,.48v20.34c0,.33-.12,.6-.35,.83-.23,.23-.51,.34-.84,.34h-9.62c-.33,0-.61-.12-.84-.34s-.35-.51-.35-.83v-33.64c0-.33,.11-.61,.35-.83,.23-.23,.51-.34,.84-.34h65.62c.33,0,.61,.11,.84,.34s.35,.51,.35,.83v33.64c0,.33-.12,.6-.35,.83-.23,.23-.51,.34-.84,.34h-9.62c-.33,0-.61-.12-.84-.34Z"/>
  </g>
</svg>