<svg xmlns="http://www.w3.org/2000/svg" viewBox="0 0 1280 686"><path d="M333.45 466.54c-.56.77-1 1.66-1.71 2.26-.49.41-1.33.4-2.01.56-.67.16-.7 1.93-1.93.73-1.01-.98-1.26-2-.28-3.1.7-.79 1.46-1.53 2.25-2.23.19-.16.62-.05.94-.06-.25 1.86 1.13 1.27 2.06 1.4.25.04.46.29.68.44ZM230.42 448.33c-1.89.45-3.4.93-4.95 1.15-1.43.2-1.96-.51-1.55-1.86.2-.67.7-1.25.88-1.92.27-1.03.59-.3 1.09-.26 1.97.16 3.27 1.24 4.53 2.89ZM340.74 453.74c3.08-2.47 5.72-1.14 8.9.14-1.32.49-2.39 1.3-3.13 1.06-1.38-.44-2.52-.96-3.89.03-.2.15-1.15-.73-1.88-1.22ZM171.42 149.24c0-1.96-.05-3.29.04-4.61.02-.22.63-.58.95-.56.3.02.79.43.82.71.15 1.61-.64 2.83-1.81 4.47ZM358.21 466.06c-.82-.09-1.68-.04-2.44-.31-.41-.14-.68-.79-.9-1.27-.04-.09.43-.39.61-.64.6-.81.9-.12 1.31.22.57.46 1.17.89 1.76 1.32l-.34.67ZM341.46 410.4l-2.02 2.28c-.45-.55-1-1.06-1.3-1.69-.08-.17.55-.93.92-.99.59-.09 1.23.18 2.4.4ZM394.01 526.1c-.76.78-1.52 1.56-2.27 2.34-.05-.19-.37-.76-.22-.94.59-.7 1.33-1.27 2.01-1.89l.48.49ZM334.53 537.23c.29-.11.56-.3.8-.28.65.06 1.59-.43 1.79.67.06.35-.27.76-.42 1.14-.62-.3-1.25-.58-1.84-.93-.17-.1-.22-.39-.33-.6ZM349.05 182.63c-.98.98-1.75 1.74-2.71 2.69.11-1.69.71-2.6 2.71-2.69ZM330.78 429.27c.98 0 1.96-.03 2.94.02.23.01.45.3.68.46-.29.15-.58.4-.89.42-.85.06-1.71.02-2.56.02l-.17-.92ZM362.03 195.1c-.58-.58-.8-.73-.77-.78.41-.96-1.43-1.42-.55-2.43.13-.14.81-.06.83 0 .18.9.3 1.82.5 3.21ZM332.35 390.19c-.34-.76-.67-1.19-.67-1.62 0-.23.73-.73.82-.66.38.27.75.67.91 1.11.06.16-.47.53-1.07 1.18ZM185.42 120.14c-.34.28-.68.63-1.09.84-.17.08-.5-.16-.75-.25l1.2-1.56.65.97ZM354.47 117.59l.8-1.02c.1.41.32.83.27 1.22-.06.43-.38.82-.59 1.23-.13-.4-.27-.79-.48-1.42ZM171.01 151.43c-.23-.23-.43-.34-.42-.43.11-.8.25-1.59.41-2.37 0-.03.4 0 .4 0 .02.73.03 1.46 0 2.18 0 .12-.14.23-.4.62ZM359.1 218.17c-.43.45-.84.87-1.24 1.29-.15-.38-.53-.97-.41-1.1.32-.35.85-.52 1.31-.71.04-.02.24.36.34.51ZM256.67 102.48c.14.49.34.88.35 1.27 0 .23-.28.46-.43.7-.15-.38-.39-.75-.43-1.15-.02-.21.28-.46.51-.82ZM344.49 415.28c-.5.07-.91.18-1.31.16-.13 0-.23-.37-.35-.58.4-.1.8-.26 1.21-.28.11 0 .24.36.45.7ZM316.86 402.4c-.5.07-.91.18-1.31.16-.13 0-.23-.37-.35-.58.4-.1.8-.26 1.21-.28.11 0 .24.36.45.7ZM339.11 270.15l-1.03-.53c.23-.15.48-.45.69-.43.39.04.77.28 1.15.43l-.81.53ZM348.69 468.65l1.21.5c-.26.2-.5.5-.8.57-.21.06-.5-.18-.75-.28.14-.33.28-.65.34-.8ZM356.06 503.07l-.34-.8c.25-.1.54-.34.75-.28.3.08.54.37.8.57-.25.11-.51.21-1.21.5ZM376.88 443.4l.33-.33c.1.2.24.4.29.62.02.08-.19.2-.29.3l-.33-.59ZM335.24 430.73c-.11.11-.26.3-.29.28-.2-.11-.37-.27-.55-.41l.41-.41.44.54ZM367.46 465.69c-.11.11-.26.3-.29.28-.2-.11-.37-.27-.55-.41l.41-.41.44.54ZM366.21 465.16c-.14-.18-.28-.36-.43-.55.19-.06.51-.21.56-.15.15.19.19.46.28.7h-.41ZM344.52 461.94c-.2.1-.4.24-.62.29-.08.02-.2-.19-.3-.29.2-.1.4-.24.62-.29.08-.02.2.19.3.29ZM373.98 461.02c-.2.1-.4.24-.62.29-.08.02-.2-.19-.3-.29.2-.1.4-.24.62-.29.08-.02.2.19.3.29ZM356.62 458.12l.33-.33c.1.2.24.4.29.62.02.08-.19.2-.29.3l-.33-.59ZM974.39 208.85c-3.97 1.78-6.97 5.81-12.33 4.92 3.58-3.64 7.35-5.81 12.33-4.92ZM1040.27 315.51c-1.42-1.84-2.65-3.39-3.81-4.98-.14-.19-.07-.69.09-.92.22-.32.61-.52.93-.78.83 1.29 2.15.64 3.27.84.7.12 1.44 2.16 1.08 2.89-.43.88-.92 1.74-1.56 2.95ZM924.68 293.64c1.24-2.14 3.55-2.75 5.52-3.82.42-.23 1.24-.35 1.49-.12.48.45.72 1.19.98 1.84.06.15-.14.57-.28.6-2.55.64-4.76 3.01-7.72 1.49ZM997.96 389.7c1.54 0 2.44.08 3.32-.02 1.69-.19 2.28 1.26 3.13 2.18.23.25-.43 1.41-.79 2.1-.2.38-.62.65-1.26 1.3-1.37-1.73-2.71-3.44-4.4-5.56ZM797.26 403.53c2.35-.04 4.43.12 6.28-.91.27-.15.96.06 1.18.32.2.24.17.9-.03 1.19-2.06 2.91-3.48 2.85-7.43-.6ZM1034.35 267.66c-.33.61-.6 1.26-1.01 1.81-.15.2-.81.32-.9.21-.9-1.12-1.95-2.21-2.47-3.5-.18-.45.84-1.73 1.59-2.14 1.25-.69.42.94.92 1.1 1.21.38 2.19.85 1.88 2.51ZM996.49 347.9c-.13.32-.25.92-.61 1.33-.27.3-1.01.61-1.23.46-2.08-1.38-2.53-3.45-1.21-5.28.18-.24.63-.29.95-.43-.04 1.3 1.08 1.39 1.84 1.94.32.23.17 1.12.26 1.98ZM744.11 378.45c.12 2.29-1.39 2.97-2.53 3.83-.19.15-.98-.44-1.46-.73-.77-.47-.01-.87.01-1.29.1-1.75 1.88-1.56 2.66-2.47.09-.1.99.49 1.31.66ZM721.43 241.47c-2.6 2.26-4.97 4.33-7.33 6.38.08-2.62 2.97-5.24 7.33-6.38ZM943.96 362.67c-2.58.73-5.15 1.53-7.76 2.15-.98.23-2.06.04-3.16-.54 1.11-.2 2.52-.05 3.25-.68 1.22-1.07 2.77.06 3.76-.9 1.21-1.16 2.6-.31 3.9-.03ZM751.76 259.76c-.37-.94-.86-1.94-1.16-3-.22-.79 0-1.5 1.08-1.39.65.07 1.65-.35 1.63.86-.02 1.28.51 2.8-1.56 3.53ZM791.08 177.6c-.09.24-.32.9-.62 1.52-.12.25-.41.43-.62.64-.2-.27-.44-.52-.6-.82-.33-.61-.75-1.21-.89-1.87-.1-.51 0-1.32.34-1.59.37-.3 1.19-.33 1.67-.13.36.15.5.85.7 1.32.06.13 0 .3 0 .91ZM732.16 324.75c0 .38.13.84-.02.96-1.01.79-2.06 1.52-3.13 2.23-.05.03-.48-.29-.51-.47-.16-1.14 1.9-3.11 3.21-3.07.17 0 .33.25.45.36ZM999.64 218.4q2.86-2.16 5.04 0h-5.04ZM967.38 298.54h-4.75c1.79-2.35 1.82-2.35 4.75 0ZM791.34 112.01c-.69.69-.95 1.11-1.33 1.29-.79.39-1.63.65-2.46.95 0 0-.17-.25-.15-.36.28-1.2.83-2.13 2.26-2.08.41.01.82.09 1.67.2ZM956.78 357.87c1.16-.5 2.33-.98 3.47-1.52.41-.19.77-1.17 1.14-.05.1.31-.16 1.04-.42 1.13-1.33.49-2.71.83-4.07 1.23l-.12-.79ZM788.01 92.34c.58.68 1.25 1.31 1.7 2.07.15.25-.21.89-.47 1.25-.11.15-.82.12-.88 0-.4-.88-.7-1.81-1.04-2.73l.69-.59ZM935.37 313.1q2.12-1.78 4.12 0h-4.12ZM972.99 233.13q2.29-1.9 4.05 0h-4.05ZM771.53 126.68c-1.31.63-2 .82-2.51 1.24-.68.55-1.28.71-1.8-.02-.06-.09.68-1.03 1.16-1.16.76-.2 1.62-.05 3.14-.05ZM787.81 187.47c-.67-1.58-.58-2.63.54-3.44.18-.13.41-.17.62-.25.09.26.32.58.25.77-.37.88-.82 1.73-1.41 2.93ZM749.57 267.08c.22-.88.38-1.79.69-2.63.11-.29.6-.45.91-.66.1.4.41.9.28 1.18-.38.8-.94 1.5-1.43 2.25l-.45-.13ZM884.08 344.69c0 .98.03 1.96-.02 2.93-.01.23-.3.45-.46.68-.15-.29-.4-.58-.42-.88-.06-.86-.02-1.72-.02-2.58l.92-.15ZM943.93 362.1c.36-.31.69-.81 1.09-.88.84-.14 1.73-.04 2.59-.04-.36.31-.69.81-1.09.88-.84.14-1.73.04-2.59.04ZM762.54 129.64c-.22.12-.59.42-1.02.53-.15.04-.42-.39-.64-.61.55-.4 1.1-.8 1.65-1.19v1.27ZM962.75 281.45c-.76.36-.99.56-1.24.58-1.07.09-1.06-.67-.99-1.4.02-.16.36-.43.4-.41.57.35 1.12.74 1.83 1.23ZM950.14 361.18c-.55 0-1.11.05-1.65-.02-.31-.04-.59-.27-.88-.42.22-.16.43-.45.66-.46.68-.04 1.36.04 2.04.07-.06.28-.11.55-.17.83ZM920.73 265.74c.25-.31.52-.67.8-1.02.1.41.32.83.27 1.22-.06.43-.38.82-.59 1.23l-.48-1.42ZM965.72 355.84l-1.39-.5c.42-.2.83-.51 1.27-.57.38-.05.81.18 1.21.28-.37.27-.74.54-1.08.79ZM956.82 358.42c-.43 1.77-1.86.57-2.76.92.43-1.77 1.86-.57 2.76-.92ZM951.53 359.34c.55 0 1.11-.05 1.65.02.31.04.59.27.88.42-.22.16-.43.45-.66.46-.68.04-1.36-.04-2.04-.07.06-.28.11-.55.17-.83ZM832.24 226.66l1.08.52-1.29 1.5c-.14-.14-.43-.33-.41-.42.16-.54.4-1.05.62-1.59ZM1004.88 402.33c-.25.31-.52.67-.8 1.02-.1-.41-.32-.83-.27-1.22.06-.43.38-.82.59-1.23.13.4.27.79.48 1.42ZM994.75 198.39c-.35.27-.69.61-1.11.81-.17.08-.49-.17-.75-.27l1.23-1.53c.15.23.3.47.63.99ZM903.64 279.28v-2.76h.46v2.76h-.46ZM956.28 279.42c-.62-.23-.87-.33-1.13-.42.41-.51.81-1.03 1.22-1.55.15.23.46.49.42.69-.08.45-.34.86-.51 1.28ZM967.43 215.98l-.34-.8c.25-.1.54-.34.75-.28.3.08.54.37.8.57-.25.11-.51.21-1.21.5ZM975.26 207.44l.82.45c-.44.18-.88.39-1.34.51-.1.03-.28-.26-.42-.4.33-.2.67-.39.94-.56ZM756.06 132.24c-.21.34-.35.71-.45.7-.41-.03-.8-.18-1.21-.28.12-.2.22-.57.35-.58.4-.02.81.09 1.31.16ZM745.93 127.64c-.21.34-.35.71-.45.7-.41-.03-.8-.18-1.21-.28.12-.2.22-.57.35-.58.4-.02.81.09 1.31.16ZM930.79 295.8c-.48-.04-.88-.05-1.28-.13-.04 0-.02-.57 0-.57.4-.03.81-.05 1.21 0 .04 0 .04.39.07.7ZM842.26 268.32c.11.11.3.26.28.29-.11.2-.27.37-.41.55l-.41-.41c.18-.15.36-.29.54-.43ZM841.72 269.57c-.18.14-.36.28-.55.42-.06-.19-.21-.51-.15-.56.19-.15.46-.19.7-.28v.41ZM998.25 200.15l.92.92-.92-.92ZM959.17 279.28c-.14-.18-.28-.36-.42-.55.19-.06.51-.21.56-.15.15.19.19.46.28.7h-.41ZM763.08 127.53c.11.11.3.26.28.29-.11.2-.27.37-.41.55l-.41-.41.54-.43ZM998.25 200.15l-.92-.92.92.92ZM960.5 280.2l-.92-.92.92.92ZM732.69 323.53c.11.11.3.26.28.29-.11.2-.27.37-.41.55l-.41-.41.54-.43ZM1012.57 326.21c-.14-.18-.28-.36-.42-.55.19-.06.51-.21.56-.15.15.19.19.46.28.7h-.41ZM996.92 199.23c-.14-.18-.28-.36-.42-.55.19-.06.51-.21.56-.15.15.19.19.46.28.7h-.41ZM831.6 229.08c-.18.14-.36.28-.55.42-.06-.19-.21-.51-.15-.56.19-.15.46-.19.7-.28v.41ZM976.08 406.8c-.11.11-.26.3-.29.28-.2-.11-.37-.27-.55-.41l.41-.41.44.54ZM974.82 406.27c-.14-.18-.28-.36-.42-.55.19-.06.51-.21.56-.15.15.19.19.46.28.7h-.41ZM721.64 240.71c.11.11.3.26.28.29-.11.2-.27.37-.41.55l-.41-.41c.18-.15.36-.29.54-.43ZM1000.02 201.6c-.11.11-.26.3-.29.28-.2-.11-.37-.27-.55-.41l.41-.41.44.54ZM879.48 189.52c-.18.14-.36.28-.55.42-.06-.19-.21-.51-.15-.56.19-.15.46-.19.7-.28v.41ZM880.01 188.26c.11.11.3.26.28.29-.11.2-.27.37-.41.55l-.41-.41.54-.43ZM1013.83 326.75c-.11.11-.26.3-.29.28-.2-.11-.37-.27-.55-.41l.41-.41c.15.18.29.36.44.54ZM506.07 186.38c2.44 1.81 3.13 4.43 3.24 7.25.1 2.58.04 5.18.01 7.76-.03 2.53-.06 2.51-2.92 3.38-.49.15-.9.52-1.48.87-.38-4.52-.71-8.93-1.13-13.33-.23-2.38.61-4.29 2.28-5.93ZM509.33 237.14c-5.36-2.18-7.5-7.6-6.05-12.99.11-.4.48-.76.5-1.15.07-1.18-.25-2.94 1.1-3.07 1.23-.11 1.99 1.35 2.72 2.65 1.13 1.99 1.86 3.86 1.75 6.16-.13 2.73-.03 5.48-.03 8.41ZM495.98 362.1c.93 1.82 1.7 3.8 4.31 3.72.24 0 .69.54.7.84 0 .31-.34.71-.64.94-.68.53-1.54.86-2.1 1.47-1.42 1.54-2.82 1.83-4.73.77-1.32-.74-2.9-1.03-4.9-1.7 1.62-1.11 2.95-1.88 4.11-2.85 1.16-.96 2.17-2.12 3.24-3.19ZM471.44 227.44c-.21.21-.63.48-.84.87-1.67 3.06-4.18 1.99-6.52 1.26-1.84-.58-2.24-2.34-1.02-3.87 1.17-1.47 1.7-1.56 3.52-.65 1.63.81 3.28 1.61 4.87 2.39ZM449.49 223c1.94.5 3.63-.43 5.26 1.14 1.33 1.28 1.14 2.62 1.19 4.37-1.29.05-2.59.18-3.88.14-1.83-.06-2.48-.8-2.57-2.73-.04-.86 0-1.73 0-2.92ZM458.74 397.91c3 1.66 5.47 3.37 6.69 6.36.26.65.45 1.33.62 2.02.07.29.01.6.01.91-.46 0-1.17.18-1.32-.03-1.32-1.88-3.55-2.7-4.94-4.64-1.03-1.43-1.08-2.65-1.06-4.61ZM492.4 228.38c.07-.06-.16.29-.33.27-.7-.09-1.53-.1-2.06-.48-2.49-1.79-3.13-4.82-1.66-7.47.1-.19.51-.29.77-.28.26 0 .68.15.74.33.83 2.39 1.61 4.79 2.54 7.63ZM586.27 253.43c-.48-.28-1-.5-1.43-.85-.65-.52-1.62-1.04-1.76-1.72-.24-1.12-.11-2.4.18-3.53.22-.84 2.59-.81 3.13-.11 1.63 2.13 1.27 4.19-.11 6.2ZM471.32 192.91c-.55-.46-.86-.95-1.24-1.01-1.95-.31-2.31-1.59-2.19-3.25.05-.61-.09-1.24.04-1.83.1-.49.46-.93.7-1.39.5.28 1.15.44 1.47.86 1.39 1.84 1.89 3.92 1.22 6.63ZM495.3 551.65c-3.6 2.58-6.71 1.63-9.92 1.22.78-.41 1.54-1.1 2.35-1.16 2.22-.16 4.46-.06 7.57-.06ZM485.58 305.51c-2.36 1.2-4.37 2-6.65.99q3.11-2.47 6.65-.99ZM632.64 517.86l-4.2 3.29c-.21-3.39-.06-3.51 4.2-3.29ZM488.09 337.59v4.87c-1.75-1.28-1.89-1.3-1.74-2.2.17-1.06.63-2.07.96-3.11l.78.44ZM631.36 499.14c-.75.76-1.23 1.25-1.72 1.75-.2-.4-.4-.81-.62-1.21-.07-.12-.19-.22-.3-.32-.61-.53-1-1.11-.3-1.82.16-.16.63-.26.79-.15.66.46 1.26 1.01 2.15 1.75ZM609.84 534.38c-1.81.92-2.67 1.34-3.51 1.79-.39.21-.71 1.18-1.18.25-.16-.32.28-1.03.58-1.48.86-1.3 1.97-.66 4.11-.56ZM582.73 391.64c-.88-.23-1.78-.41-2.63-.73-.28-.11-.42-.6-.62-.91.4-.1.9-.39 1.19-.25.79.37 1.49.93 2.22 1.41l-.17.48ZM600.12 536.07c.14.29.33.52.35.77.09 1.07-.67 1.06-1.4.99-.16-.02-.29-.27-.43-.41.49-.45.98-.89 1.47-1.35ZM593.22 541.05l-1.6 1.29c-.11-.24-.31-.47-.33-.72-.09-1.07.67-1.06 1.4-.99.17.02.31.24.53.42ZM472.07 208.24l1.21.5c-.26.2-.5.5-.8.57-.21.06-.5-.18-.75-.28.14-.33.28-.65.34-.8ZM579.8 534.9c.7.29.96.4 1.21.5-.26.2-.5.5-.8.57-.21.06-.5-.18-.75-.28.14-.33.28-.65.34-.8ZM466.91 407.72c-.11.11-.26.3-.29.28-.2-.11-.37-.27-.55-.41l.41-.41.44.54ZM510.18 237.49c-.11.11-.26.3-.29.28-.2-.11-.37-.27-.55-.41l.41-.41.44.54ZM598.65 538.26c-.18.14-.36.28-.55.42-.06-.19-.21-.51-.15-.56.19-.15.46-.19.7-.28v.41ZM593.66 539.77c.11.11.3.26.28.29-.11.2-.27.37-.41.55l-.41-.41.54-.43ZM758.96 483.56v-17.48c1.91 0 3.72-.02 5.53 0 4.36.07 7.99 3.79 8.21 8.12.21 4.23-1.64 7.04-5.4 8.73-.64.29-1.35.57-2.04.6-1.99.08-3.98.03-6.29.03ZM983.65 473.44v-8.3c3.07.12 6.02-.36 8.86.92 1.16.52 3.08 2.87 2.98 3.89-.17 1.67-2.08 3.45-3.83 3.48-2.59.04-5.18 0-8.01 0ZM728.53 477.87h-6.68c1.15-3.08 2.22-5.95 3.35-8.97 1.1 2.96 2.17 5.86 3.32 8.97ZM578.38 419.17c-.22-2.79.34-5.57-.77-8.41-.73-1.86-.02-4.25-.17-6.38-.16-2.18-.83-4.35-.83-6.52-.02-3.86-.82-7.62-2.02-11.15-1.22-3.59-2.44-7.34-5.25-10.25-3.55-3.66-7.42-6.38-12.69-7.24-4.33-.7-11.17-1.15-14.83.52-4.8 2.18-8.78 5.17-11.43 10.15-2.58 4.86-3.22 10.08-4.37 15.2-1.06 4.7-1.01 9.61-1.83 14.41-.69 4.08-.46 8.31-.85 12.49-.89 9.32.54 18.77-1.04 28.12-.38 2.24-.18 4.6-.02 6.89.15 2.18.73 4.34.86 6.52.53 8.91-.81 17.85.85 26.77.7 3.77-.1 7.7.9 11.59.72 2.8-.21 5.9.97 8.81.65 1.59-.41 3.5.65 5.26.97 1.61-.33 3.88 1.26 5.45.05 5.07 2.49 9.36 4.62 13.72 1.79 3.67 4.48 6.71 8.26 8.13 3.37 1.26 6.87 2.77 10.82 1.73 4.66 1.12 8.89-.57 12.88-2.82 4.61-2.61 7.48-6.62 9.57-11.57 2.26-5.34 2.29-11 3.49-16.48.56-2.56.1-5.23.84-7.92.71-2.56.03-5.48.19-8.23.15-2.64.87-5.27.84-7.9-.29-23.63.93-47.29-.88-70.9Zm-31.61-2.98c-.36.2-.89.14-1.22.37-1.16.8-2.27 1.68-3.8 1.36-.12-.02-.27-.58-.18-.8.7-1.68 2.45-1.86 3.83-2.55.34-.17.9-.03 1.31.11.19.06.25.48.36.74-.1.27-.13.66-.32.77Zm10.88 80.19c-.77-.12-1.91.67-2.24-.67-.08-.32.29-1.06.46-1.06.77 0 1.55.18 2.59.33-.42.74-.67 1.42-.81 1.4Z"/><path d="M1268.04 650.49c.01-2.52.18-5.04-1.65-7.16-.2-.24.06-1.34.33-1.44 4.35-.49 1.42-24.19 1.52-31.37-.49-40.47-1.06-80.98-1.18-121.51-2.71-90.09 2.71-181.59-3.03-271.08-2.22-3.95-7.97-2.05-11.65-3.93-4.59-2.58-9.3-4.95-13.95-7.42-1.65-1.35-1.03-4.09-1.72-5.99-.33-1.86-.33-3.88-1.15-5.49-.34-.68-.24-2.05-2.01-2.51-2.24-.58-3.93-3.14-6.17-3.89-3.1-1.03-2.76-4.3-4.77-5.89-.31-.25-.41-.75-.64-1.1-4.67-6.02 1.03-8.36.97-14.2-.23-3.85-2.48-5.72-6.3-4.71-.6.16-.81.43-1.34-.1-5.25-4.04-7.77-10.71-13.29-14.19-2.64-1.85-6.81-2.55-8.53-5.36-.63-7.51-11.61-17.12-5.31-23.61 4.46-3.79 1.64-9.78 2.57-14.61 3.11-4.65 6.07-9.32 11.66-11.41 3.37-1.41 2.46-4.7 3.87-7.27.61-.81-.86-2.45 1.01-2.95 6.39-1.92 11.03.63 15.47-5.93 3.91-4.78-3.99-9.61-2.66-15.04.23-1.66-.02-3.37.05-5.05.09-2.04-2.22-2.66-2.5-4.5-.02-3.01-5.14-2.8-5.65-5.27-4-12.43-3.93-12.17-16.43-12.09-3.18-.21-6-.03-7.21 3.66-.21.65-.98 1.17-1.59 1.63-6.07 3.72-10.89-1.17-14.8-5.17-5.05-6.29-9.89-1.69-11.06-5.43-1.44-3.12-2.97-6.62-7.14-5.71-5.45-.49-9.38-8.14-13.63-11.47-1.71-1.89-3.55-2.39-5.97-2.37-12.74.09-25.47.04-38.21.04-38.26-.24-76.48.66-114.72-.7-92.81-.46-185.7-1.36-278.58-1.15-88.09-.06-176.33-2.67-264.4-.1-40.59 1.03-81.56 3.61-122.23 1.1-99.15-3.93-198.99-1.13-298.44-1.92-1.79.14-3.78-.49-5.14.96-1.93 1.37-1.25 3.3-1.25 5.02-.03 137.5-.02 275.01-.02 412.51 3.07-1.3 5.88-2.5 8.7-3.7.17.23.35.45.52.68-3.32 4.28-9.72 6.93-9.29 13.1.07 78.36.08 156.73.05 235.09.6 2.85 4.35 2.75 6.56 2.5 15.5.08 31 .05 46.49.05 162.79-1.4 326.29 3.25 488.66-2.76 40.66 4.65 83.14.4 124.45 1.88 74.4.96 148.88 1.06 223.34.88 118.43.32 236.83 2.57 355.24 3.64 16.22 1.62 11.35-16.64 12.1-27.18ZM30.8 551.97c-1.24.57-2.02.69-3.19.03-1.69-.95-1.77-1.07-.23-2.25 2.41-1.86 4.8-3.74 7.68-5.98.3 4.33-1 6.7-4.26 8.2Zm20.9 76.6c-.31 3.19-3.04 4.39-6.08 3.25-1.22-.46-1.25-.9-1.28-1.82-.08-2.28 1.23-3.68 3.1-4.55 1.14-.53 2.44-.7 4.28-1.19 0 1.63.11 2.98-.02 4.31Zm380.94-444.98c.28.04.77 0 .82.12.39 1.11.8 2.23.95 3.38.04.31-.77.9-1.28 1.03-.29.07-.88-.46-1.11-.86-.41-.71-.74-1.5-.93-2.29-.31-1.29.5-1.51 1.54-1.38ZM342.92 48.54c.68-.94 1.68-1.56 2.72-1.1 3.13 1.37 6.65 2.09 8.96 4.96.19.24.49.4.64.66.64 1.1 2.84 1.57 1.95 3.11-.49.84-2.26.96-3.48 1.33-.42.13-.91.02-2.17.02-.36-.13-1.58-.31-2.46-.96-2.26-1.67-4.49-3.39-5.7-6.11-.29-.65-1.05-1.08-.45-1.91Zm-114.27-7c2.38 1.06 4.06 2.84 5.36 5.01.43.71.54 1.65 1.05 2.29.91 1.14 2.24 2.64 1.45 3.7-1.28 1.71-2.98-.31-4.36-.67-3.56-.94-6.37-5.25-6.41-8.76-.03-2.43.46-2.65 2.91-1.56Zm-15.8-12.31c3.35 3.85 6.16 7.07 9.12 10.48-2.74 1.34-5.2-.99-7.83-.78-.47.04-1.4-.94-1.33-2.11.14-2.25.04-4.51.04-7.59Zm-48.59 96.39q2.48-.84 5.5.37c-2.13 1.76-4.04 3.36-5.96 4.94-.68.56-1.48.21-1.58-.65-.22-1.91.8-4.23 2.05-4.66Zm-29.63 20.66c.69-.67 1.27-.52 1.88.11.6.62 2.11.26 1.81 1.92-.17.93-.5 1.03-1.32 1.3-2.03.67-3.95 1.67-6.61 2.84 1.48-2.6 2.58-4.56 4.24-6.17Zm1.8 484.75v.46h-2.76v-.46h2.76Zm-55.32-85.17c-1.31 1.97-3.51 2.03-5.27 2.95-1.05.55-2.64-.19-3.78.94-.13.13-1.18-.65-1.8-1.02 3.37-5.65 9-6.27 14.9-6.86-1.51 1.45-3.07 2.52-4.05 3.98ZM96.82 150.3q3.24-3.51 6.47 0h-6.47Zm17.03 5.78c1.81-1.02 3.71-1.9 5.59-2.8.04-.02.23.18.3.31.07.12.08.27.11.41-.29 1.27-3.72 4.59-4.95 4.59-.43 0-1.03-.57-1.23-1.03-.18-.41-.09-1.32.18-1.47Zm2.16 191.23c-1.59-2.55-2.09-4.77-1.99-5.66.32-2.74 3.56-2.35 4.86-4.03-.95 3.19-1.89 6.39-2.87 9.69Zm5.56-14.5c-.59 1.13-2.1 1.8-3.28 2.57-.22.14-.99-.14-1.13-.41-.43-.88-.88-1.83-.95-2.79-.14-1.93-.04-3.88-.04-6.39 1.94 1.19 3.72 1.23 4.72 3.29.63 1.31 1.21 2.73.68 3.72Zm5.69-181.98c-.17 1.96-1.25 2.52-3 2.4-.74-.05-1.48 0-2.31 0 .97-2.97 4.03-3.53 6.26-5.09-.33.9-.88 1.78-.96 2.7Zm14.27 512.1c-1.67 1.75-2.35 4.5-5.12 5.14-.51.12-1.18.41-1.55.21-2.48-1.34-4.64-3.05-6.29-6.2h3.51c1.53 0 3.07.12 4.59-.04 1.27-.13 2.49-.66 3.76-.84.47-.07 1.06.27 1.49.58.1.07-.12.86-.39 1.14Zm270.05-219.74c-.99 1.94-.79 3.8-.71 5.67.07 1.88-.87 3.93.73 5.68-.95 3.19-2.66 6.35-1.14 9.96 1.96 9.41-2.28 18.52-3.47 27.75-2.19 6.91 1.71 15.5-2.79 21.34-.95.89-1.05 1.89-.53 2.82 1.91 4.35-.89 9.06-1.96 13.33-1.25 3 0 7-2.18 9.67-1.72 1.44-2.37 3.71-2.9 5.67-2.97.38-2.27 2.62-2.42 4.5-2.87 8.45-8.02 16.63-14.11 23.13-18.96 28.68-52.18 47.83-86.97 46.18-9.51-1.16-18.88 2.36-28.02-.62-1.54-1.04-3.76.18-5.48-1.22-.82-.67-2.27-.55-3.16-1.18-3.16-2.52-7.44-1.02-10.89-2.62-38.82-17.18-69.35-54.48-76.43-96.54-1.51-10.12-3.91-19.91-5.02-30.09.05-2.18-.76-4.49.8-6.56.37-.49.25-1.56.02-2.25-2.06-9.1-.44-18.45-.89-27.69.04-5.87-1.62-11.66-.91-17.56.23-1.87-.62-3.77.77-5.7.64-.88-.4-2.94-.93-4.06-3.31-5.36 3.09-11.48 1.13-14.32-1.45-1.66-1.03-3.94-.97-6-.37-6.48 20.36-3.16 24.89-3.42 22.12 1.62 44.23.46 66.38.77 3.01-.15 5.54.85 5.31 4.24-.09 3.09 1.01 6.3-.78 9.32-.4.68-.06 1.8-.06 2.72.02 23.7-.43 47.38.92 71l-10.1 1.43v.37c4.32.59 11.74-1.51 11.87 4.95.74 4.66 2.01 9.38 3.77 13.64 4.38 5.19 10.52 11.95 17.78 11.89 9-1.25 18.78-8.3 19.07-18.1.08-1.88.54-3.74.89-5.6.32-1.72-.74-3.58.79-5.23.46-.5.12-1.76.12-2.67 0-6.13-.09-12.27.05-18.4.05-2.17-.89-4.55.87-6.52-2.99-4.77.84-10.57 0-15.79-1.12-15.22-1.54-30.52-1.71-45.7-1.96-24.68-24.14-27.93-44.37-26.4-11.03.27-4.89-19.08-6.39-26.41-1.2-.29-1.38.89-2.01 1.31-1.16.77-1.62-.18-2.23-.77-1.38-2.14 2.55-3.94 4.01-1.48.62-12.89 0-25.74.26-38.62.19-1.27.87-2.3 2.34-2.1 3.39.46 6.96-1.12 10.21.9 6-1.72 12.13-.38 17.89-3.51 8.48-4.1 16.95-11.71 18.18-21.48 2.08-18.65 1.02-37.58.08-56.28.36-5.65.76-11.45-.09-16.99-1.8-14.07 2.14-29.07-7.2-41.13-3.05-6.3-11.06-7.04-17.3-6.92-8.29 1.79-15.12 9.29-18.38 16.92-3.28 27.3-1.6 55.59-.09 83 .96 5.28.55 10.5.82 15.74 1.06 2.66 1.6 6.7-2.47 6.73-24.85 0-49.71.04-74.57-.02-5.61-.49-19.57 4.78-20.62-3.36-.22-11.37.76-22.84-.94-34.11-.35-2.62.82-4.94.99-7.44.17-2.49-.71-5.09.85-7.47.35-.54.23-1.56.01-2.25-1.41-2.39-1.73-4.49-.91-7.15.07-4.91.29-9.83-.03-14.72.63-18.08 2.25-36.08 5.71-53.79 5.88-21.96 17.2-44.19 34.87-59.59 9.34-8.59 19.14-16.88 30.95-21.87 6.35-3.48 12.5-8.16 20.1-8.14 28.28-4.67 60.12-5.66 86.29 8.37 24.11 14.41 43.2 36.8 55.66 61.83 2.02 4.98 4.79 9.63 6.13 14.97.77 3.07.93 6.61 3.42 9.14-.44 4.35 2.32 8.18 1.93 12.58-.5 3.78 2.22 7.07 1.77 10.73.31 4.32 2.16 7.25.03 11.64.83 1.8 1.62 3.99.71 5.52-1.28 2.13-.48 4.13-.69 6.16-.27 5.33-.18 10.76 1.61 15.86.32.99.18 2.9-.42 3.27-1.91 1.16-.58 2.54-.22 3.3 1.92 4.06 1.78 8.33 1.78 12.62 0 1.28-.51 2.64.71 3.87.47.48.42 1.84.13 2.63-2.04 9.74.66 20.24-5.68 28.93-1.05 13.86-6.82 27.33-14.59 39.02-7.39 10.22-18.11 17.75-28.75 24.31 1.88 1.33 5.87 2.15 5.91 4.65 9.79 7.92 19.65 15.95 24.98 27.69 1.83 3.97 5.95 7.2 6.04 11.71.23 2.2 1.91 3.59 2.07 5.63 5.23 6.27 6.51 14.85 7.32 22.74.09 1.29-.6 2.78.81 3.8.48 5.94 3.3 11.8 1.19 17.76-1.12 2.94 1.41 7.59.6 10.51ZM224.97 299.88c.91-2.18 1.83-4.36 2.84-6.5.1-.22.93-.38 1.16-.21.72.54 1.31 1.23 1.94 1.88.71.72.39 1.34-.26 1.86-1.46 1.18-2.93 2.35-4.43 3.49-.19.15-.58.05-.87.06-.14-.2-.43-.46-.38-.58Zm58.78 175.86c.24-.15.49-.45.71-.43.69.08 1.83.12 1.97.48.54 1.44.76 3 1.15 4.77-.24.34-.51 1.07-.83 1.09-.47.03-1.05-.36-1.46-.71-1.63-1.39.48-3.9-1.54-5.2Zm1.75-177.47c.59-.98 1.19-1.97 1.94-2.81.29-.32 1.06-.47 1.5-.34.52.15.93.69 1.21.93-.82 1.62-1.3 3.2-2.32 4.28-.53.57-2.07.32-2.65-.81-.15-.29.1-.89.32-1.25Zm125.79 55.56c-.71-.06-1.42-.01-2.14-.01l-.16-.8c.76-.35 1.49-.82 2.29-.98.4-.08 1.22.32 1.31.65.27 1-.42 1.22-1.3 1.15Zm6.07-.58c-.53.81-1.05.33-1.27-.17-.36-.85-.53-1.79-.77-2.69l.93-.62c.48.73.87 1.55 1.46 2.17.74.76-.09.93-.35 1.32Zm2.22-108.03c-.84-.57-1.69-1.14-2.83-1.9.74-.45 1.26-.87 1.34-.8.69.61 1.31 1.3 1.89 2.02.06.07-.26.45-.41.69Zm6.44 123.29c-.8-.26-4.94-6.04-5.06-6.99-.05-.39.16-.81.24-1.12 2.11 1.69 4.22 3.28 6.22 5 1.31 1.13 1.21 1.89-.18 2.82-.33.22-.87.41-1.21.3Zm5.4 208.91c-.48.28-1.01.48-1.52.71-.75.34-1.41.48-1.61-.62-.05-.27-.15-.54-.26-.8-.25-.59-1.32-6.58-1.3-7.39 2.4 1.03 4.42 2.4 5.42 5.01.64 1.66.64 2.28-.74 3.09Zm2.96-103.12c-1.62 2.6-4.2 1.88-6.53 1.85-.44 0-.86-.8-1.29-1.23.47-.18.93-.42 1.41-.55 2.45-.63 4.92-1.22 8.4-2.08-1.14 1.14-1.67 1.5-1.98 2.01ZM640.1 61.87c.16-.89 1.69-1.86 2.36-1.48 2.97 1.68 5.92 3.39 8.84 5.17.43.26.64.9.9 1.28-.37.39-.57.78-.74.77-.71-.06-1.49-.1-2.11-.41-2.66-1.34-5.22-2.86-7.92-4.1-.7-.32-1.52-.2-1.33-1.24Zm-198.93 281.8c-.11.93-.54 1.83-.83 2.74l-.85-.11c-.35-2.4-.73-4.8-1.01-7.2-.03-.28.39-.82.66-.88.34-.06.93.15 1.11.44.96 1.53 1.12 3.27.92 5.01Zm6.9 208.88c-.13.15-.72.16-.87 0-1.09-1.17-2.78-1.98-2.35-4.09.18-.88 0-1.84.06-2.75.01-.18.43-.34.77-.58.31.18.97.35.99.58.16 2.06.99 3.87 1.85 5.69.12.27-.2.83-.45 1.14Zm86.39 66.14c-68.78-8.11-94.27-73.8-90.45-136.15-.8-59.75-4.18-110.72 40.62-157.36-5.82-6.8-11.65-13.82-16.13-21.66-2.77-3.55 12.07-8.15 14.58-10.42 8.98-4.14 17.27-10.41 26.49-13.74 1.29.23.71 1.5.66 2.27-.25 4.07 1.67 7.95.96 12.04 1.69 7.81 1.62 15.8 2.83 23.7 0 .12 1.28.54 1.38.4 2.22-2.57 3.46-6.25 1.52-9.35-.32-9-1.03-18.05-2.78-26.93-.59-1.41-1-5.98 1-6.8 4.55-2.36 9.09-4.71 13.67-7.01 3.92-3.17 4.15 14.8 11.99 18.48 14.08 10.22 29.54-3.95 30.24-19.83 1.33-3.66.49-7.45 1.7-11.24 1.38-3.06-1.82-8.14 2.06-9.93 8.6-4.15 17.03-8.66 25.25-13.57 1.92-1.29 4.24-2.48 6.98-2.06 2.41.37 2.87.1 3.57-1.83 5.25-8.91 16.22-9.32 24.03-16.23-1.98-.14-3.26-.64-3.86-.2-2.9 1.85-6.35-.47-8.4 3.16-13.79 12.88-32.23 18.77-48.57 28.58.62-26.32 1.54-52.24-.95-78.36-2.03-11.16-2.43-25.69-14.49-31.19-1.81-.94-4.05.56-5.41-1.42-21.09-.57-22.23 25-23.36 40.69-1.87 22.23-2.91 44.7-.94 66.95-.49 5.99.83 11.69 1 17.55.14 2.75 2.55 6.85-.74 8.59-3.56 2.47-7.61 3.89-11.43 5.79-4.07 2.02-5.15 1.86-8.79-1.74.32 10.36-12.54 11.7-18.88 17.37-7.43 3.44-14.5 8.05-21.99 11.29-4.34 1.26-8.07-14.84-10.21-18.35-3.07-7.86-5.12-16.27-6.54-24.4-1.26-2.25.5-4.91-1.55-6.75-.25-4.72-.88-9.57-.89-14.33.28-25.78-.92-51.65.88-77.36 1.62-2.26.59-5.06 1.69-7.58 1.3-2.97-.53-4.8-4.04-4.82-1.02 0-2.06.17-3.07.35-.73.13-1 1.97-1.82.9-.32-3.88 6.63-6.01 9.88-4.54.7.31.89.58 1.05-.35 12.83-58.76 57.66-86.29 115.8-79.19 67.7 9.85 88.43 75.76 84.86 136.08 2.18 45-4.11 93.56-37.15 127.19 41.16 38.31 43.35 95.78 41.8 148.19 4.08 83.41-30.14 154.75-124.03 145.12Zm167.37-523.9c-.23.26-.04.88-.06 1.34-.05 1.16-.74 1-1.54.81-2.5-.61-4.53-2.28-7.18-2.74-2.13-.37-4.05-1.93-6.06-2.96 3.59-.35 7.02-1.47 9.72 1.25 1.68-.32 3.13.61 4.69.85 1.75.26 1.17.63.43 1.46Zm3.62-55.64c2.71-.06 5.42-.03 9.13-.03-2.1 1.62-3.35 3.29-4.81 3.5-1.46.21-3.15-1.01-4.7-1.69-.28-.13-.54-.74-.49-1.07.05-.28.56-.69.87-.7Zm-.85 310.27c2.02-94.65.73-190.89.85-286.38 38.23 0 76.42.02 114.64-.04 5.39-.07 8.78 11.53 12.42 15.37 36.22 58.75 73.23 116.84 109.36 175.62v-40.96c-4.55.64-4.55-2.51.06-1.84V63.04h98.49c3.35-.26 3 2.78 2.93 5.23-.25 3.25.72 6.62-.91 9.74 2.32 6.09.36 12.96.92 19.4-.4 7.05-3.32 10.35-.96 18.65 1.6 3.16-2.99 9.5-.25 10.39 2.47-.93 1.15 20.38.35 22.19-1.01 3.92 2.73 7.45.16 11.31-.31.39-.44 1.36-.18 1.7 1.55 2.05.82 4.38.84 6.55-.58 14.07 1.35 28.81-.72 42.51 1.87 35.36.23 72.2.76 108.09-.08 1.09.45 3.95-1.28 1.97 3.19 31.65.39 66.42 1.28 99.28-37.95 0-75.86-.01-113.8 0-3.91.03-7.45-10.87-10.5-13.96-11.76-18.74-23.84-37.26-35.15-56.28-4.13-6.7-8.35-13.71-12.8-20.17-3.13-2.28-7.73.71-10.97-2.07v-7.69c2.19-.27 3.46-.27 5.56 1.07-18.86-30.94-37.95-60.49-57.13-91.23v183.84c.44 3.9-4.17 6.2-6.95 3.72-1.05-1.31-2.35-2.41-3.51-3.56-3.18.76-1.79 4.05-3.22 5.86-.57.73.04 1.93-1.59 2.58-4.5 1.93-8.22-3.56-12.9-.36-.56.29-1.73-.2-2.42-.64-4.58-3.59-8 2.47-12.67 1.63-4.16.06-8.2-1.29-12.51-.91-6.29.5-1.7-7.86-10.33-6.19 1.25 1.87.52 3.92.8 6.18-11.01 0-21.47.02-32.37 0-3.6-.02-4.58-1.23-5.53-4.61-2.5-22.55 1.65-45.32-.78-67.87Zm332.31 74.45c.05.1-.04.28-.07.41-1.05-.18-2.1-.35-3.14-.55-.12-.02-.22-.2-.33-.31-.33-.32-.82-.61-.91-.99-.06-.25.42-.72.76-.95 1.39-.92 1.91-.72 2.81.9.28.5.61.97.88 1.48Zm-6.46 14.91c-.69 1.07-1.3 2.12-2.03 3.07-.19.25-.87.38-1.16.23-.27-.14-.46-.72-.45-1.1.06-1.95.71-2.35 3.63-2.21Zm-3.64-6.48c0-.39.18-.78.3-1.25q1.38 1.44-.07 3.05c-.1-.73-.24-1.27-.23-1.8Zm-9.23-3.49c-1.08-1.07-1.67-1.55-2.11-2.14-.32-.43-.44-1-.65-1.51.67-.16 1.36-.47 2.01-.42.28.02.64.78.72 1.25.12.69.03 1.43.03 2.82Zm-12.05 37.65c.1 2.34.6 4.73-.45 7.13-1.4 3.19-3.08 5.89-6.83 6.47 2.89 4.18 5.67 8.18 8.81 12.71-4.06 0-7.54-.08-11.01.04-1.36.05-1.95-.85-2.54-1.62-1.58-2.06-3.63-4.08-4.31-6.45-.91-3.21-2.79-3.25-5.57-2.92v10.83h-10.04v-35.76c7.31 0 14.63-.09 21.94.03 4.31.07 9.82 5.26 10 9.55Zm-6.34-42.07c.19-.31.56-.51.7-.63 1.99-.09 2.93.77 2.93 2.55 0 .37-.22.94-.49 1.06-.3.13-.87-.04-1.17-.28-.69-.56-1.31-1.21-1.89-1.88-.15-.18-.2-.63-.09-.82Zm7.69 22.13c2.03-2.45 2.88-2.37 5.8 1.22-1.94-.41-3.88-.82-5.8-1.22Zm-73.09 10.44h10.13c0 5.85.18 11.64-.09 17.4-.1 2.19.79 4.03 1.22 5.99.23 1.07.7 3.02 2.58 3.2 1.88.18 3.52 1.59 5.74.12 2.25-1.49 3.54-2.95 3.49-5.74-.12-6.88-.04-13.76-.04-20.84h11.05c0 7.32.31 14.65-.13 21.93-.23 3.79-1.37 7.67-4.44 10.51-1.85 1.72-7.32 4.11-9.76 4.15-1.84.03-3.68.12-5.51-.03-1.57-.13-3.15-.45-4.66-.92-1.2-.37-2.44-.91-3.42-1.69-4.15-3.32-6.37-7.52-6.2-13.04.21-6.88.05-13.77.05-21.03Zm-30.14 9.12c-1.82-.02-3.64 0-5.61 0v-9.13h31.91v9.03c-1.59.03-3.36.08-5.14.1-1.82.02-3.63 0-5.6 0v26.55c-1.74.05-3.36.11-4.98.13-1.66.02-3.33 0-5.14 0v-26.58c-1.9-.04-3.67-.09-5.44-.1Zm-7.39-34.28c2-1.42 3.58-2.28 4.8-3.49 1.46-1.46 3.17-1 4.65-.75 1.15.2 2.17 1.35 3.16 2.18.15.13-.17 1.15-.23 1.15-3.93-.3-7.72 1.69-12.38.91Zm-43.59 38.71v8.34h-17.2v5.58h18.96v8.03c.08-.09 0 .05-.13.13-.11.08-.26.16-.39.16h-28.62v-35.67h29.19v8.01h-19.12v5.41h17.3Zm-140.75 4.55c.65-2.16 2.1-3.96 2.85-6.18 1.41-4.14 3.54-8.03 5.43-12 .19-.4.76-.87 1.17-.89 2.45-.08 4.91.04 7.36-.07 1.3-.06 2.21.63 2.44 1.58 1.67 6.66 5.06 12.64 7.61 18.93 2.06 5.09 3.95 10.33 6.54 15.22.13.25.43.42 1.17 1.11-4.22 0-7.58-.04-10.93.02-1.13.02-1.4-.34-1.7-1.44-.48-1.75-1.03-4.12-2.32-4.83-1.53-.84-3.88-.2-5.87-.2h-7c-.32 1.99-2.22 3.33-2.22 5.52 0 .31-.73.87-1.13.88-3.5.07-7.01.04-10.62.04 2.47-6.03 5.42-11.63 7.24-17.7Zm7.05 190.42c-.48.6-1.44.84-2.21 1.17-.25.11-.6.02-.9.02h-3.59q-.45-4.07 3.89-8.41c.69.78 1.37 1.56 2.07 2.33.94 1.05 1.53 3.91.74 4.89Zm62.8-125.81h-47.7v15.51h43.1c.21 7.1.01 14.06.12 21.17h-43.31v33.13h-26.47v-91.71h74.26v21.9Zm-.65-55.79c-2.55 4.2-5.89 6.96-10.87 8.1-2.53.58-4.96.76-7.47.78-4.58.03-9.16 0-13.9 0v-35.89c6.28 0 12.4-.04 18.52.02 3.44.03 6.38 1.7 9.12 3.49 1.76 1.15 3.45 2.75 4.51 4.54 1.27 2.16 2.28 4.69 2.59 7.16.52 4.11-.26 8.12-2.48 11.8Zm2.57-25.12c-.19-.52-.54-.99-1.04-1.88 3.76 0 7.38-.08 11 .07.69.03 1.8.86 1.95 1.5 1.55 6.67 4.9 12.72 6.52 19.35.1.4.23.79.37 1.26 2.66-7.01 4.61-14.13 7.79-20.81.47-.99.65-1.41 1.72-1.39 2.76.05 5.51.07 8.27 0 1.58-.04 1.37 1.12 1.13 1.85-.61 1.88-1.35 3.74-2.25 5.49-1.88 3.66-3.26 7.56-4.68 11.37-1.38 3.7-3.29 7.21-4.17 11.16-.54 2.42-2.08 4.62-3.19 6.96-2.37 0-4.83-.13-7.27.05-1.62.12-2.33-.48-2.84-1.91-1.94-5.47-4.58-10.67-6.66-16.06-2.18-5.68-4.53-11.29-6.65-17Zm83.61 150.78h-74.23v-91.83h73.36v21.91H818.8v12.79h42.47c.31.28.44.36.53.48.08.11.16.26.16.39v20.34H818.9v13.86h48.39v22.07Zm3.07-134.59v17.69h-10.96v-35.75c3.15 0 6.33-.05 9.51.05.64.02 1.46.47 1.85.99 3.41 4.54 6.71 9.16 10.12 13.7.77 1.03 1.81 1.85 3.05 3.09v-17.6h10.12v35.67c-1.2 0-2.53.02-3.84 0-1.96-.04-4.2.43-5.81-.35-1.55-.76-2.5-2.8-3.64-4.34-2.52-3.39-4.96-6.83-7.5-10.2-.72-.96-1.7-1.73-2.89-2.93Zm80.75 118.63c-3.81 7.74-10.2 12.63-18.37 15.08-3.62 1.09-7.26 2.34-11.19 1.93-.82-.09-1.69.35-2.55.45-1.62.18-3.56.91-4.81.28-1.65-.82-3.16-.71-4.76-.75-7.19-.2-13.9-2.33-20.55-4.82-3.94-1.48-7.29-3.94-10.86-6.05-2.04-1.21-3.19-3.08-5-4.22 3.03-3.41 5.9-6.79 8.53-10.39 1.57-2.15 3.89-3.7 5.18-6.15.4-.76 1.15-.87 1.87-.18 5 4.83 11.26 7.51 17.75 9.31 5.51 1.52 11.4 2.64 16.99.33 4.01-1.66 5.08-3.88 3.14-8.09-.42-.91-.97-.8-1.52-1.15-4.22-2.67-8.87-3.92-13.78-4.54-2.24-.29-4.4-1.19-6.61-1.78-4.95-1.34-9.74-3.15-14.26-5.56-5.1-2.72-8.08-5.72-10.95-11.21-.98-1.88-.39-4.07-1.76-5.72.05-5.18-.15-10.29 1.67-15.39.87-2.42 2.15-4.53 3.59-6.3 4.33-5.28 9.56-9.47 16.5-11.08 3.56-.83 7.04-1.89 10.75-1.81 2.76.06 5.53-.11 8.28.04 7.12.38 13.97 2.07 20.57 4.73 1.18.48 2.38.97 3.46 1.63 2.96 1.81 5.87 3.7 9.06 5.73-2.3 3.3-4.4 6.34-6.53 9.36-1.6 2.26-3.26 4.47-4.87 6.73-.49.69-.83 1.99-1.34 2.04-.88.1-1.9-.46-2.77-.92-1.52-.81-2.93-1.8-4.44-2.63-4.16-2.29-10.39-4.19-14.65-4.64-.97-.1-1.88-.7-2.85-.86-1.67-.28-5.25.66-7.51 1.81-3.29 1.68-3.93 4.42-1.85 7.32 1.38 1.92 3.59 2.63 5.49 3.43 2.74 1.16 5.85 1.4 8.77 2.14 5.11 1.31 10.28 2.34 15.2 4.4 2.89 1.21 5.77 2.38 8.48 3.97 5.15 3.04 8.86 7.5 10.16 13.16.91 3.95 2.8 8.28.31 12.48.38 2.89-.81 5.5-1.99 7.91Zm87.53-54.05h-26.87c-.29.27-.42.35-.5.47-.08.11-.15.26-.15.39v69.06h-25.47c.07.07-.06-.02-.14-.14-.08-.11-.16-.26-.16-.39v-69.07h-26.92c-.31-.27-.44-.35-.53-.47-.08-.11-.17-.26-.17-.39v-21.24h80.94v21.76Zm1.86-82.27c-1.91 2.34-.09 5.06-1.25 7.78h-18.81v5.55h17.25v8.31h-17.28v5.55h19.15v8.15h-29.3v-35.73h25.18c1.06 0 2.1.15 2.86-.91.23-.32 1.13-.61 1.22-.5.44.54 1.15 1.58.97 1.79Zm-1.8-22.06c-.17.29-.77.52-1.11.46-.28-.05-.67-.57-.67-.89-.05-2.7-.03-5.41-.03-8.17 1.97.73 3.66 1.34 5.47 2.01-1.23 2.25-2.41 4.45-3.66 6.6Zm4.65-8.75c-.02-.53 2.64-2.01 3.11-1.77.23.12.52.41.53.62.06 2.86-.24 5.74 1.26 9.34-1.75-1.74-2.61-2.86-3.71-3.65-1.74-1.24-1.13-2.96-1.19-4.55Zm1.96 25.24c-.4 1.14-.76 2.29-1.13 3.44-.28-.15-.57-.3-.85-.46 0-1.03-.09-2.08.04-3.1.05-.41.51-.89.91-1.1.35-.19.98-.21 1.31 0 .91.56-.14.81-.28 1.22Zm3.32-2.74c-1.41-.69-2.43-1.19-3.75-1.83.43-3.12.88-6.3 1.35-9.7 2.45 2.77 2.78 4.35 2.4 11.53Zm8.12-3.29c-.89.34-2.02.07-3.66.07 1.19-1.19 1.93-1.96 2.71-2.69.62-.58 1.29-1.12 1.94-1.67.11.41.24.82.32 1.24.25 1.31-.05 2.58-1.3 3.06Zm1.21 26.3c-.11.2-.27.37-.41.55l-.41-.41c.18-.15.36-.29.54-.43.11.11.3.26.28.29Zm-2.66 1.17c.47-.2.92-.48 1.41-.57.14-.03.37.48.8 1.05-.6.32-1.12.79-1.39.68-.37-.15-.55-.75-.82-1.16Zm4.14 40.79c-.62-.31-1.56-.48-1.79-.97-.4-.87-.4-1.94-.49-2.93-.02-.22.27-.66.44-.67.4-.01.99.03 1.19.29.57.76.99 1.64 1.41 2.37-.35.88-.55 1.39-.76 1.91Zm-2.3-81.86c-1.97.26-2.48-1.49-4.25-2.72h8.62c-1.68 1.96-2.86 2.51-4.37 2.72Zm7.34 201.01c-.46.2-1.01.25-1.52.27-.09 0-.35-.61-.27-.71.31-.36.7-.74 1.13-.9.37-.14.85.02 2.05.09-.74.67-1.02 1.07-1.4 1.24Zm2.73-171.19c-1.64-1.65-2.93-2.85-4.09-4.17-.29-.32-.16-1.01-.23-1.53.52.05 1.09-.01 1.55.18 2.21.94 2.97 2.65 2.77 5.51Zm4.46 170.83c-.48-.18-1.26-.28-1.72-.71-.43-.41-.87-1.39-.66-1.75.47-.81 1.21-.43 1.77.18.4.43.85.83 1.24 1.26.15.17.23.41.34.62l-.97.41Zm1-458.87c-.33.65-1.25 1.34-1.95 1.37-1.09.05-.7-1.08-.65-1.71.03-.41.48-.78 1.32-2.03.64 1.13 1.46 2 1.27 2.36Zm3.47 365.7c-.02.08-.25.1-.39.14-.28-.06-.73-.04-.81-.2-.46-.88-1.06-1.78-1.13-2.72-.04-.54.83-1.15 1.32-1.7.3-.33.69-.86 1-.84.44.04 1.25.58 1.21.77-.3 1.54-.76 3.04-1.2 4.55Zm1.59-65.91c.5-.24 1.14-.19 1.71-.25.46.07 1.01 0 1.29.23.26.22.47.95.31 1.16-.58.75-3 .76-3.6.01-.16-.2.05-1.03.29-1.15Zm5.14 77.08c-.04.35-.86.97-1.06.88-1.02-.45-1.94-1.1-2.91-1.65-.55-.31-1.62.1-1.5-1.09.16-1.48 1.35-.65 2.07-.89 2.67.01 3.62.74 3.4 2.75Zm4.65 6.92c-1.36-1.36-2.34-2.23-3.17-3.22-.3-.36-.25-1.02-.35-1.54.57-.1 1.29-.46 1.69-.24.71.39 1.49 1.02 1.76 1.73.3.77.07 1.76.07 3.27Zm.44-127.45c-.31.69-.71 1.35-.98 1.85-.51 0-.72.06-.79-.01-.16-.16-.39-.45-.33-.58.25-.64.51-1.3.93-1.82.21-.26.77-.24 1.17-.34.01.31.12.66.01.91Zm1.59-185.62c-.65.27-1.32.49-2 .66-.88.23-1.98.8-2.61.49-.78-.39.33-2.55 1.59-3.68.99-.89 1.14.36 1.7.5.75.19 1.4.8 2.13 1.25-.37.37-.55.68-.81.78Zm4.41 251.35c-.89.21-1.8.35-3.1.57.46-.58.52-.75.63-.78.82-.23 1.65-.44 2.48-.65 0 .3.06.84 0 .86Zm3.06 158.95c-.61.24-1.26.37-1.89.55.05-.83-.12-1.77.23-2.46.36-.71 1.04-1.59 2.17-.7.55.43 1.25.67 2.35 1.24-1.32.63-2.07 1.04-2.86 1.36Zm24.04-24.1c-.06.1-.91-.06-1.13-.32-.2-.24-.2-.88-.01-1.17 1.14-1.73 2.86-1.71 5.46.18-1.5.92-3.31-.34-4.32 1.31Zm5.58-49.69c-.86.32-3.78-.79-4.09-1.6-.11-.29.35-1.1.41-1.09 1.34.34 2.68.74 3.99 1.2.13.05.12.52.17.8-.15.24-.26.61-.47.68Zm18.2-457.3c.41-.29.84-.56 1.6-1.06 0 .89.01 1.45 0 2.01-.03 1.22-.99.93-1.62.84-.41-.06-.76-.57-1.14-.88.39-.3.76-.62 1.16-.91Zm-6.62 455.49c.07-.44.89-.77 1.07-.92 2.59-.05 2.72.06 2.55 1.79-.06.65-.12 1.17-.94.52-.31-.25-.75-.38-1.15-.46-.65-.13-1.72.27-1.53-.93Zm-.1 3.3c.28-.16.68-.59.91-.51 1.06.38 1.95 1.27 3.24.93.07-.02.49.72.44 1.05-.04.28-.61.75-.82.69-1.2-.31-2.38-.74-3.54-1.19-.14-.06-.13-.52-.23-.98Zm6.72 6.77c-.98.11-1.97.04-2.96.04-.04-.28-.09-.55-.13-.83 1.02-.34 2.04-.72 3.09-.96.16-.04.64.56.65.86 0 .31-.38.86-.64.89Zm-2.32-68.8c-.96-1.03-1.68-2.27-2.51-3.41 1.86-1.51 3.96-1.54 6.02-1.32 1.86.2 3.7.71 5.67 1.1-.51.97-.97 2.08-1.63 3.04-1.99 2.92-5.12 3.18-7.55.59Zm10.38 31.11c-.07.16-.16.7-.45.85-.29.15-.81-.05-1.18-.2-.25-.1-.46-.38-.63-.61-.54-.76-1.94-1.14-1.23-2.45.13-.25.76-.29 1.17-.32 1.44-.1 1.99.85 2.33 2.03.04.14 0 .3 0 .71Zm3.43-383.15c.81.67 1.44 1.2 2.07 1.72-.4.41-.8.83-1.2 1.24-.51-.56-1.08-1.08-1.5-1.7-.1-.15.31-.64.63-1.26Zm1.87 30.41c-.32 1.05-1.16 1.95-1.96 3.21-.65-.65-1.11-1.05-1.5-1.51-1.22-1.46-.42-5.15 1.36-5.89.37-.16 1.1.21 1.52.53 1.3 1 .95 2.45.58 3.66Zm7.12 389.55c-1.5-1.5-3.03-2.97-4.49-4.51-1-1.05-1.03-1.83.72-1.95.24-.02.42-.43.68-.54 1.61-.71 1.75-.38 2.84 1.12 1.35 1.86.33 3.73.26 5.88Zm6.41-4.6c-.5.43-1.21.61-1.83.9-.19-.52-.39-1.04-.43-1.16 0-.89-.05-1.34.01-1.78.11-.79.98-1.03 1.66-.39.69.66 1.88 1.34.6 2.45Zm1.87-31.31c-.48-.11-1-.35-1.33-.7-.12-.13.32-1.07.41-1.05.53.1 1.07.3 1.53.58.3.18.48.55.86 1.02-.66.08-1.1.25-1.47.16Zm7.5-321.31c-.5.24-1.14.19-1.71.25-.46-.07-1.01 0-1.29-.23-.26-.22-.47-.95-.31-1.16.58-.75 3-.76 3.6-.01.16.2-.05 1.03-.29 1.15Zm14.64 295.52c-.17 0-.54-.75-.46-1.06.33-1.33 1.47-.54 2.24-.67.14-.02.39.66.81 1.4-1.04.16-1.82.34-2.59.33Zm13.24-8.05c-.07.4-1.05.63-1.91 1.11-.83-.53-1.68-1-2.41-1.61-.21-.18-.06-.78-.08-1.19.32.1.63.21.95.28.55.12 1.11.22 1.67.3.78.11 2.04-.4 1.78 1.1Zm-1.07-94.42c-.56.38-1.6.06-2.43.01-.04 0-.05-.27-.11-.39-.61-1.13-2.02-2.7-1.69-3.29.99-1.75 2.1 1.02 3.43.4.38-.18.96-.15 1.35.01.31.13.48.62.6.79-.42.99-.55 2.07-1.14 2.47Zm3.57 159.43c-.03.08-.24.12-.37.14-1.64.28-.75-1.68-1.74-1.98.21-.42.4-.84.62-1.25.07-.12.2-.21.34-.35.5.75 1.06 1.46 1.44 2.26.14.28-.16.79-.29 1.17Zm13.68-11.82c-.15-.23-.31-.46-.53-.81.16-.31.35-.67.53-1.03.15.23.45.48.43.69-.04.39-.28.77-.43 1.15Zm29.61-6.55c.8-.9-.29-2.42 1.2-3.19.49-.25-.54-1.98.74-2.12.65-.07 1.42.83 2.1 1.34.33.24.56.6.84.91-1.32 1.32-2.57 2.62-3.9 3.85-.24.23-.8.12-1.21.16.07-.32.04-.73.23-.94Zm-1.48-28.42c-.1-.03-1.69-.22-1.77-.67-.39-2.17 1.83-.53 2.46-1.44 1-1.45 1.56 1.14 2.5.28.15.39.47.81.4 1.15-.06.28-.56.59-.9.65-.58.11-1.2.03-2.68.03Zm3.83 83.16c.22-.26.88-.45 1.15-.31 1.1.61 2.13 1.35 3.75 2.41-2.26.42-3.86.8-4.92-.94-.18-.29-.17-.92.03-1.16Zm-2.95-100.59c2.13.16 4.56-1 6.66 1.65h-13.13c1.93-2.12 4.28-1.81 6.48-1.65Zm-9.98 7.62c.09-.11.21-.19.47-.44.2.59.31.74.28.85-.19.73.59 1.91-.9 2.03-.25.02-.64-.11-.75-.29-.63-1.07.35-1.53.89-2.15Zm-4.6-276.97c.09-.11.21-.19.47-.44.2.59.31.74.28.85-.19.73.59 1.91-.9 2.03-.25.02-.64-.11-.75-.29-.63-1.07.35-1.53.89-2.15Zm-.78 316.08c-.13-.4-.27-.79-.48-1.42.25-.31.52-.67.8-1.02.1.41.32.83.27 1.22-.06.43-.38.82-.59 1.23Zm1.44-24.36c-1.09-.86-1.33-1.94-.35-3.09.28-.33.63-.6.94-.9l2.31 2.31c-.22.2-.41.48-.67.58-.79.29-.86 2.17-2.23 1.1Zm4.25 37.4c-.77-.54-1.55-1.05-2.28-1.64-.11-.09 0-.59.15-.78.15-.19.6-.39.72-.31.74.54 1.42 1.16 2.08 1.73-.36.54-.51.78-.67 1.01Zm1.98-14.93c-.04.14-.85.24-1.14.07-.5-.29-.86-.8-1.39-1.33.58-.18 1.08-.35 1.59-.5.42-.12.84-.23 1.26-.34-.09.7-.11 1.43-.32 2.09Zm-.19-5.37c-.32-.32-.74-.59-.94-.97-.27-.53 1.22-3.43 1.8-3.4.46.02.88.62 1.52 1.12-.81 1.11-1.6 2.18-2.39 3.26Zm9.11 55.99c-1.65-1.53-3.72-.24-6.6-1.23 1.55-.62 2.45-1.29 3.32-1.26 1.21.05 2.42.59 3.58 1.05.23.09.25.77.29 1.18 0 .08-.52.32-.59.26Zm7.26 38.82c-1.78.43-3.59.74-5.92 1.21.53-3.18.96-5.83 1.42-8.57 1.69 1.96 3.32 3.81 4.91 5.69.58.69.63 1.42-.4 1.67Z"/></svg>