<svg xmlns="http://www.w3.org/2000/svg" xml:space="preserve" style="enable-background:new 0 0 1033.1 633.7" viewBox="0 0 1033.1 633.7"><path d="M12.1 314.8c-.6-11.2-.6-13.4-8.6-15.5-2-.4-3-1.2-3-1.8 0-1 1.2-1.2 3.3-1.2 3.1 0 10.6 1 16.5 1 6.7 0 14.6-.8 17.7-.8 2.2 0 3.1.4 3.1 1.2 0 .6-1 1.6-2.8 1.8-6.7 1.6-7.7 4.1-8.2 11.2-.4 4.7-.8 37.4-.6 40.9 0 2 .4 3.5 1.8 3.7 5.1.2 30.3 0 48.2 0 15.7 0 18.1-.4 19.1-.4 1.8-.2 2-.6 2-3.7.4-5.7-.4-28.1-.6-35.2-.6-12.8-1.4-15.5-9-16.7-1.6-.2-3.1-.8-3.1-1.8 0-.6 1-1.2 2.9-1.2 5.3 0 10.2 1 18.9 1 6.3 0 12.4-1 16.5-1 2 0 3.3.2 3.3 1.2 0 .8-.8 1.4-2.9 2-7.9 1.6-8.3 4.5-8.6 14.2-.2 6.7 0 35.2.2 48.8.2 13.2.6 27.1 1 41.5.4 9.8 1.4 12 9.4 13.8 2.2.6 2.9 1.2 2.9 2s-1.4 1.4-3.3 1.4c-5.5 0-13.6-.8-18.5-.8-6.3 0-12.2.6-16.9.6-2.2 0-3.7-.4-3.7-1.6 0-.6 1-1.2 3.3-1.6 6.9-1.4 8.1-3.3 8.5-11.4.2-7.5.6-30.1.2-40.1 0-2.5-.2-4.5-1.6-4.5-6.9-.4-28.3-.6-47.4-.8-9.4 0-18.9-.2-21.2-.2-.6 0-1.4 1.4-1.4 4.3 0 16.7 1 41.9 2 45.8.6 3.9 2.9 5.9 7.3 7.1 2.8.6 3.5 1.2 3.5 2 0 1-1.8 1.4-3.5 1.4-5.1 0-12.8-1-18.7-1-4.9 0-12.8.8-16.7.8-2 0-3.3-.6-3.3-1.2 0-1 1.4-1.6 3.3-2.2 6.9-1.4 8.3-3.5 8.7-9.2.4-5.9.8-19.7.8-50.3-.2-10.5-.4-36.6-.8-43.5zM196.6 326.8c1.2 4.3 2.6 8.6 4.3 12.8 9.4 24.8 18.1 46.4 27.5 68.4 3.1 7.1 6.1 9 11.2 10 1.8.6 3.1 1.2 3.1 1.8 0 1-1.8 1.4-3.5 1.4-4.7 0-10-.8-16.7-1-5.7 0-11.2.8-15.1.8-1.6 0-3.3-.6-3.3-1.4s1.6-1.6 3.1-1.8c4.9-1 7.1-2.4 5.7-6.3-1.8-4.3-6.1-15.9-10-25.2-.4-1.1-1.4-1.8-2.6-2-3.3-.2-24.4-.2-26.9 0-.9.2-1.7.9-2 1.8-2 4.3-5.7 13.6-7.9 19.1-1.8 5.3-1.8 8.3-.2 9.8 1 1.6 3.1 2.2 6.1 3 1.4.4 2.6 1 2.6 1.6 0 1-1.2 1.4-3.4 1.4-2.4 0-8.6-.8-12.6-.8s-7.9.6-11.6.6c-1.8 0-3.1-.4-3.1-1.2s1.6-1.4 3.3-1.8c7.3-1.6 9-4.7 13.8-14.3 4.5-8.5 18.3-41.7 26.7-62.9.7-1.4 1-3 1-4.5-.1-.6.2-1.3.8-1.6 1.4-1.2 5.1-4.3 6.7-7.3.4-1.2 1.2-1.8 1.8-1.8.8.1 1.1.7 1.2 1.4zm3.6 51.4c-4.7-12.2-10.8-27.3-12.2-30.7-.4-1.2-1-1.4-1.4-.2-3.4 7.3-10.4 25.6-12.2 31.1-.2.8-.2 1.4.8 1.4h11.6c3.9 0 11.4 0 12.8-.2.8 0 .8-.8.6-1.4zM286.6 328.4c2.2 0 3.5.4 3.5 1.2 0 .6-1.8 1.4-3.5 1.8-5.7 1.4-6.5 1.8-6.7 13.6-.2 5.5-.2 37.8-.2 57.4 0 5.9.4 9.8 1.6 11.6 1.6 2.6 3.5 3.2 15 3.2 5.7 0 12.2 0 14.4-.6 3.9-.4 7.3-3.7 12.2-12 1-1.8 1.6-2.4 2.2-2.4.8 0 1.2 2-.2 5.1-.8 2.6-4.1 10.8-4.9 12.4-.7.9-1.7 1.5-2.8 1.6-4.9 0-14.5-.2-22.4-.4-7.1-.4-19.7-.6-25.4-.6-4.5 0-12 .6-14 .6-2 .2-3.4-.2-3.4-1 0-1 1.2-1.2 2.6-1.6 6.5-1.4 8.1-3.2 8.5-8.1.6-5.3.8-14.3.8-34.4 0-19.9.2-30.1-.2-34.6-.2-6.9-1.8-8.8-8.1-10-2.2-.4-2.8-1-2.8-1.6 0-.8 1.6-1.2 3.1-1.2 4.7 0 10.2.6 14.9.6 5.1 0 12.4-.6 15.8-.6zM367.5 328.4c2.2 0 3.5.4 3.5 1.2 0 .6-1.8 1.4-3.5 1.8-5.7 1.4-6.5 1.8-6.7 13.6-.2 5.5-.2 37.8-.2 57.4 0 5.9.4 9.8 1.6 11.6 1.6 2.6 3.5 3.2 14.9 3.2 5.7 0 12.2 0 14.4-.6 3.9-.4 7.3-3.7 12.2-12 1-1.8 1.6-2.4 2.2-2.4.8 0 1.2 2-.2 5.1-.8 2.6-4.1 10.8-4.9 12.4-.7.9-1.7 1.5-2.8 1.6-4.9 0-14.5-.2-22.4-.4-7.1-.4-19.7-.6-25.4-.6-4.5 0-12 .6-14 .6-2 .2-3.3-.2-3.3-1 0-1 1.2-1.2 2.6-1.6 6.5-1.4 8.1-3.2 8.5-8.1.6-5.3.8-14.3.8-34.4 0-19.9.2-30.1-.2-34.6-.2-6.9-1.8-8.8-8.1-10-2.2-.4-2.8-1-2.8-1.6 0-.8 1.6-1.2 3.1-1.2 4.7 0 10.2.6 15 .6 5.1 0 12.4-.6 15.7-.6zM553.5 303.1c1.3.7 2.1 2.1 2 3.5-.4 4.5.6 13.4.6 15.3 0 2-.8 3.1-1.2 3.1-.8 0-1.4-1-1.8-2.5-1.6-6.7-5.9-13-9.4-15.7-7.3-6.5-18.1-9.8-29.9-9.8-12.8 0-24.6 6.5-32.6 14.8-9 9.8-15.2 27.5-15.2 46.2 0 16.9 7.1 35.8 17.7 47.4 8.6 9.1 20.5 14.2 33 14.3 11.2 0 17.9-2.4 23-5.5 7.5-4.5 11.8-11 15-19.1.8-2.4 1.2-3.2 2-3.2s1.2 1.8 1.2 3c0 3.1-2.4 12.8-2.8 15.1-.2 1.4-1 2.6-2.2 3.3-11.6 6.5-22 10.4-38.2 10.4-24 0-39.7-8.7-51.5-20.7-8.5-8.7-16.5-26.3-16.5-43.5 0-23.4 9.4-38.1 22-49.5 10.2-9.3 27.9-16.3 46.4-16.3 15.8.1 31.7 5.8 38.4 9.4zM585.8 329c9.6 0 25.6-.4 32-.4 5.7 0 12.6-.4 14.2-.4.6 0 1.2 1.4 1.4 2.4.2 1.6.6 8.5 1 11.6.2 1.8-.4 3.5-1.2 3.5-.6 0-1.4-1.4-2-3.1-2.5-6.7-5.7-9-8.1-9.4-2.5-.4-3.3-.8-26.3-.8-1 0-1.6 1.2-1.6 2.5-.2 6.5-.2 27.5-.2 34.6-.1.8.5 1.5 1.2 1.6h14.2c5.9 0 10.8-.6 12.6-1.2s2.8-2 4.3-5.9c.6-1.6 1.2-3 2.2-3 .4 0 .8.8.8 3 0 1.2-1 7.5-1 9.8-.2 2.9-.2 5.8 0 8.7.2 1.6-.2 3.1-1 3.1s-1.4-1.4-2.2-3.3c-1.2-3.3-2.8-6.1-4.9-6.5-3.2-.4-6.1-.6-25.2-.6-.4 0-1.2.4-1.2 2.2-.2 5.5.4 27.7.6 30.5.4 5.5.6 7.9 4.1 8.5 2.3.2 7.5.6 15.7.6 12.4 0 13.4-1 15.5-2.6 1.8-1.4 5.3-5.7 7.7-10 .8-1.4 1.8-2.4 2.6-2.4s.8 1.8 0 3.9c-.8 2-3.3 10.8-4.1 12.8-.6 1.3-1.9 2.1-3.3 2.2-16.5 0-31.5-.6-47-.6-5.3 0-14.2.6-16.1.6-1.8 0-3.5-.2-3.5-1.2s1.6-1.4 3.2-1.6c4.9-1 7.9-2.4 8.3-8.7.6-8.1.8-25.8.8-39.9 0-7.9 0-17.5-.2-27.1-.2-8.5-2.4-9.8-7.9-11-1.8-.4-2.8-1-2.8-1.8s1.2-1.2 2.6-1.2c3.8 0 11.1.6 14.8.6zM747.8 328.4c1.8 0 3.2.4 3.2 1.2s-1.8 1.6-3.3 2c-5.7 1.6-7.5 4.3-7.9 8.8-.6 5.9-1 36.4-1 49.8 0 13.6-.4 21.4 0 28.5.2 3-.4 4.5-1.6 4.5-.8 0-3.3-1.8-5.7-4.9-8.1-9.8-44-53.7-63.1-75.1-.4-.4-1.4-.6-1.4.4 0 5.1-.2 51.1-.2 57 0 13 1.4 15.5 10.4 17.5 1.6.4 3.2 1.2 3.2 1.8 0 .8-.8 1.2-3.3 1.2s-8.5-.8-13-.8c-3.7 0-9.6.8-11.4.8-1.6 0-3.5-.2-3.5-1.4 0-.8 1.8-1.4 3.2-1.6 6.5-1.2 8.5-3.7 9.4-13.2.4-6.1 1.8-51.5 1.8-60.6 0-6.7-.8-9-3-10.6-2.2-1.5-4.8-2.3-7.5-2.5-2-.4-3.1-1-3.1-1.8s1.4-1.2 3.3-1.2c3 0 11.8.8 22.6.8.6 0 2 1.2 3.3 3.1 9.8 12.4 42.1 49.2 54.5 62.9.8.8 1.2.2 1.2-.2 0-3.7 0-40.1-.4-52.3-.2-8.5-3-9.8-10.2-11.2-1.8-.2-3.2-1-3.2-1.8 0-1 1.8-1.2 3.3-1.2 2.8 0 8.8.6 12 .6 4.1.1 9.1-.5 11.4-.5zM827.9 329c11.2 0 13.8-.4 16.3-1.4 1-.6 1.8-1 2.2-.8.4.4.4 1 .2 1.8-.6 1.6-1 7.1-.8 14.2 0 2.2-.2 4.3-1.2 4.3-.8 0-1.4-1.4-1.6-2.8-.7-2.8-1.6-5.6-2.8-8.2-1.2-1.4-2.4-3-7.5-3-3.1 0-18.1 0-20.8.2-.8 0-1.2 1.6-1.2 2.4l-.4 51.7c0 8.5 0 19.1.6 23.4.6 4.5 2.5 6.1 7.9 7.1 2.2.4 3.3 1.2 3.3 2s-2.2 1.2-3.9 1.2c-5.3 0-9.8-.8-16.5-.8-9.4 0-13.8.8-16.1.8s-3.7-.6-3.7-1.2c0-.8 1.6-1.6 3.3-1.8 7.1-1 8.5-2.6 8.7-10 .8-14.5 1.2-71 1.2-72.4 0-1-.2-2.4-1-2.5-1.2 0-5.3-.2-11-.2s-10.4.2-12.2.4c-3.5.6-6.1 3-7.9 10.8-.4 1.8-1 3-1.8 3s-1.4-1.2-1.2-3.3c.4-4.5 1.6-11.4 1.6-15.3 0-.7.2-1.5.8-2 .6-.4 1 0 1.6.6 1.6.8 3.3 1.3 5.1 1.4 2.2.2 18.3.6 34.4.6l24.4-.2zM875.1 329c9.6 0 25.6-.4 32.1-.4 5.7 0 12.6-.4 14.2-.4.6 0 1.2 1.4 1.4 2.4.2 1.6.6 8.5 1 11.6.2 1.8-.4 3.5-1.2 3.5-.6 0-1.4-1.4-2-3.1-2.6-6.7-5.7-9-8.1-9.4-2.6-.4-3.3-.8-26.3-.8-1 0-1.6 1.2-1.6 2.5-.2 6.5-.2 27.5-.2 34.6-.1.8.5 1.5 1.2 1.6h14.2c5.9 0 10.8-.6 12.6-1.2s2.8-2 4.3-5.9c.6-1.6 1.2-3 2.2-3 .4 0 .8.8.8 3 0 1.2-1 7.5-1 9.8-.2 2.9-.2 5.8 0 8.7.2 1.6-.2 3.1-1 3.1s-1.4-1.4-2.2-3.3c-1.2-3.3-2.8-6.1-4.9-6.5-3.2-.4-6.1-.6-25.2-.6-.4 0-1.2.4-1.2 2.2-.2 5.5.4 27.7.6 30.5.4 5.5.6 7.9 4.1 8.5 2.4.2 7.5.6 15.7.6 12.4 0 13.4-1 15.5-2.6 1.8-1.4 5.3-5.7 7.7-10 .8-1.4 1.8-2.4 2.6-2.4s.8 1.8 0 3.9c-.8 2-3.3 10.8-4.1 12.8-.6 1.3-1.9 2.1-3.3 2.2-16.5 0-31.5-.6-47-.6-5.3 0-14.2.6-16.1.6-1.8 0-3.5-.2-3.5-1.2s1.6-1.4 3.2-1.6c4.9-1 7.9-2.4 8.3-8.7.6-8.1.8-25.8.8-39.9 0-7.9 0-17.5-.2-27.1-.2-8.5-2.4-9.8-7.9-11-1.8-.4-2.8-1-2.8-1.8s1.2-1.2 2.6-1.2c3.7 0 11 .6 14.7.6zM966 394.9c0 10.4.6 14 .6 15.9.4 4.5 2.6 6.1 7.1 7.1 1.6.2 3.1.8 3.1 1.6s-1.4 1.4-3.7 1.4c-4.5 0-7.9-.6-17.1-.6-5.7 0-10.2.6-13 .6-1.8 0-3.7-.4-3.7-1 0-1.2 1.6-1.6 3.5-2 5.1-1 7.1-3 7.5-8.3.4-8.3.6-18.1.6-39.1 0-20.1-.2-27.7-.4-32.1-.2-3.9-1.8-6.1-7.5-7.3-1.8-.2-3.2-1-3.2-1.6 0-1 2.2-1.2 3.3-1.2 2.6 0 8.4.6 13.6.6 6.9 0 14.2-.8 20.8-.8 11.8 0 18.9 2 24 5.9 5.7 3.7 9 10 8.9 16.8 0 11.8-8.1 18.5-17.1 21.6-1 .4-1 1-.4 2 3 5.9 9.6 16.5 15.5 25 3.4 4.9 7.2 9.5 11.4 13.8 3.2 3.1 7.4 5 11.8 5.3 2 0 1.6 1.4 0 2.2-1.8.8-4.9 1.2-10.2 1.2-11.2 0-16.3-3.3-23-11.8-6.1-7.1-14.6-20.5-19.3-28.1-1.6-2.6-4.9-4.9-7.1-5.1-1.6-.2-3.3-.2-4.9-.2-.8 0-1.2 1.4-1.2 2.5l.1 15.7zm1.8-62.3c-.4.2-1 1.2-1.2 3.9-.2 2.4-.6 32-.4 34.4 0 1 .4 2.6 1.4 2.6 2.6.2 5.5 0 8.3 0 4.1-.2 8-1.5 11.4-3.7 3.9-2.5 7.7-8.1 7.7-15.7 0-5.3-1.6-11-4.9-15.1-3.5-4.5-9-7.5-16.1-7.5-1.5-.1-5 .3-6.2 1.1zM56.4 525.3c-.6-11.2-.6-13.4-8.6-15.5-2-.4-2.9-1.2-2.9-1.8 0-1 1.2-1.2 3.4-1.2 3.1 0 10.6 1 16.5 1 6.7 0 14.6-.8 17.7-.8 2.2 0 3.1.4 3.1 1.2 0 .6-1 1.6-2.8 1.8-6.7 1.6-7.7 4.1-8.3 11.2-.4 4.7-.8 37.4-.6 40.9 0 2 .4 3.5 1.8 3.7 5.1.2 30.3 0 48.2 0 15.7 0 18.1-.4 19.1-.4 1.8-.2 2-.6 2-3.7.4-5.7-.4-28.1-.6-35.2-.6-12.8-1.4-15.5-9-16.7-1.6-.2-3.1-.8-3.1-1.8 0-.6 1-1.2 2.9-1.2 5.3 0 10.2 1 18.9 1 6.3 0 12.4-1 16.5-1 2 0 3.4.2 3.4 1.2 0 .8-.8 1.4-3 2-7.9 1.6-8.3 4.5-8.7 14.2-.2 6.7 0 35.2.2 48.8.2 13.2.6 27.1 1 41.5.4 9.8 1.4 12 9.4 13.8 2.2.6 3 1.2 3 2s-1.4 1.4-3.3 1.4c-5.5 0-13.6-.8-18.5-.8-6.3 0-12.2.6-16.9.6-2.2 0-3.7-.4-3.7-1.6 0-.6 1-1.2 3.3-1.6 6.8-1.4 8-3.4 8.4-11.5.2-7.5.6-30.1.2-40.1 0-2.5-.2-4.5-1.6-4.5-6.9-.4-28.3-.6-47.4-.8-9.4 0-18.9-.2-21.2-.2-.6 0-1.4 1.4-1.4 4.3 0 16.7 1 41.9 2 45.8.6 3.9 2.9 5.9 7.3 7.1 2.8.6 3.5 1.2 3.5 2 0 1-1.8 1.4-3.5 1.4-5.1 0-12.8-1-18.7-1-4.9 0-12.8.8-16.7.8-2 0-3.3-.6-3.3-1.2 0-1 1.4-1.6 3.3-2.2 6.9-1.4 8.3-3.5 8.7-9.2.4-5.9.8-19.7.8-50.3-.2-10.3-.4-36.5-.8-43.4zM186 538.9c4.7 0 10.4.6 16.3.6s10.8-.6 14.9-.6c1.8 0 3.1.4 3.1 1.2 0 1.2-2 1.4-3.3 1.8-6.7 1.2-7.3 4.5-7.5 12.4-.2 10-.2 19.7-.2 28.7v9.6c0 13.2 2.8 20.8 7.5 26 5.9 6.3 14.8 8.3 21 8.3 18.7 0 27.5-10.8 27.9-39.5v-13.6c0-27.3-1.6-29.3-5.7-30.9-1.2-.4-2.5-.6-4.3-1-1.2-.2-2.8-1-2.8-1.8s1.2-1.2 3-1.2c3.4 0 6.1.6 11.4.6 3.7 0 7.7-.4 11.4-.4 2.2 0 3.5.2 3.5 1 0 1-1.2 1.6-3.7 2-6.1 1.4-7.3 3.9-7.7 10.2-.6 9-.8 19.5-.8 28.3-.2 21.4-2.4 34.4-11.4 42.9-8.1 8.1-18.3 10.2-26.5 10.2-10 0-18.5-2-24.6-6.3-10.2-7.3-13.8-16.7-14-37.8-.4-12.8-.2-27.5-.4-38.2-.2-6.3-1.6-8.3-7.5-9.6-1.4-.4-3.5-1.2-3.5-1.8.2-1.1 2.1-1.1 3.9-1.1zM373.5 631.3c-2.4 0-4.1-.4-4.1-1.4 0-.8 1.8-1.4 3.5-1.8 7.1-1.2 6.5-3.9 7.1-15.5.4-8.3.4-44 .4-53.7 0-2.4-1-1.8-1.6-.6-10 19.1-25.4 53.1-32.5 69.4-1.2 3-2.6 4.3-3.3 4.3s-2-2.6-3.4-6.1c-7.1-17.5-23-52.7-29.3-66.7-.6-1.6-1.4-1-1.6.4-.6 6.5-2.2 46.2-2.2 52.3 0 3.9-.2 7.9.6 10.2.8 4.3 5.3 5.3 8.9 6.1 1.8.6 2.8 1 2.8 1.6 0 1-1.4 1.6-3.1 1.4-3.7 0-8.1-.6-12.6-.6-4.7 0-8.3.8-11.6.8-2.2 0-3.3-.6-3.3-1.4-.2-.8.8-1.2 2.8-1.6 4.3-1 6.3-2 7.9-4.7 1.6-2.4 2.4-7.7 3-15.7.8-8.7 3.3-40.1 3.3-50.7 0-7.5 0-10.2-2.2-12.4-2-2-4.1-2.4-8.3-3-1.4-.4-3-1.2-3-2.2 0-.8 2.2-1 3.3-1 4.9 0 13.4.6 21.8.6.8 0 1.8 1.4 2 2.3 6.7 15.7 23.2 50.7 31.1 65.1.4.8.8.8 1.2.2 7.7-13.2 22.6-46.4 26.4-53.9 3.1-6.5 4.3-9.8 4.9-11 .4-1 1.6-2.8 2.4-2.8 4.9 0 13.8-.8 20.4-.8 1.8 0 3.5.4 3.5 1.2 0 1.2-2 1.6-3.7 1.8-7.3 1.2-9.2 3-9.6 9.8-.2 4.3-.2 11-.2 20.8 0 15.7.8 39.5 1.2 44.6.8 8.8 1.6 10 8.3 11.4 1.6.4 2.8 1 2.8 1.8 0 .6-1.2 1.4-3.1 1.4-4.1 0-13.2-.8-16.5-.8-5.5.4-12.4.9-14.4.9zM471.9 537.3c1.2 4.3 2.6 8.6 4.3 12.8 9.4 24.8 18.1 46.4 27.5 68.4 3.1 7.1 6.1 9 11.2 10 1.8.6 3.1 1.2 3.1 1.8 0 1-1.8 1.4-3.5 1.4-4.7 0-10-.8-16.7-1-5.7 0-11.2.8-15.1.8-1.6 0-3.3-.6-3.3-1.4s1.6-1.6 3.2-1.8c4.9-1 7.1-2.4 5.7-6.3-1.8-4.3-6.1-15.9-10-25.2-.4-1.1-1.4-1.8-2.5-2-3.3-.2-24.4-.2-27 0-.9.2-1.7.9-2 1.8-2 4.3-5.7 13.6-7.9 19.1-1.8 5.3-1.8 8.3-.2 9.8 1 1.6 3.1 2.2 6.1 3 1.4.4 2.6 1 2.6 1.6 0 1-1.2 1.4-3.3 1.4-2.3 0-8.7-.8-12.6-.8s-7.9.6-11.6.6c-1.8 0-3.2-.4-3.2-1.2s1.6-1.4 3.3-1.8c7.3-1.6 9-4.7 13.8-14.3 4.5-8.5 18.3-41.7 26.7-62.9.7-1.4 1-3 1-4.5-.1-.6.2-1.3.8-1.6 1.4-1.2 5.1-4.3 6.7-7.3.4-1.2 1.2-1.8 1.8-1.8.7.1.9.7 1.1 1.4zm3.6 51.4c-4.7-12.2-10.8-27.3-12.2-30.7-.4-1.2-1-1.4-1.4-.2-3.3 7.3-10.4 25.6-12.2 31.1-.2.8-.2 1.4.8 1.4h11.6c3.9 0 11.4 0 12.8-.2.8-.1.8-.8.6-1.4zM625.1 538.9c1.8 0 3.2.4 3.2 1.2s-1.8 1.6-3.3 2c-5.7 1.6-7.5 4.3-7.9 8.8-.6 5.9-1 36.4-1 49.8 0 13.6-.4 21.4 0 28.5.2 3-.4 4.5-1.6 4.5-.8 0-3.3-1.8-5.7-4.9-8.1-9.8-44-53.7-63.1-75.1-.4-.4-1.4-.6-1.4.4 0 5.1-.2 51.1-.2 57 0 13 1.4 15.5 10.4 17.5 1.6.4 3.2 1.2 3.2 1.8 0 .8-.8 1.2-3.3 1.2s-8.5-.8-13-.8c-3.7 0-9.6.8-11.4.8-1.6 0-3.5-.2-3.5-1.4 0-.8 1.8-1.4 3.2-1.6 6.5-1.2 8.5-3.7 9.4-13.2.4-6.1 1.8-51.5 1.8-60.6 0-6.7-.8-9-3-10.6-2.2-1.5-4.8-2.3-7.5-2.6-2-.4-3.1-1-3.1-1.8s1.4-1.2 3.3-1.2c3 0 11.8.8 22.6.8.6 0 2 1.2 3.3 3.1 9.8 12.4 42.1 49.2 54.5 62.9.8.8 1.2.2 1.2-.2 0-3.7 0-40.1-.4-52.3-.2-8.5-3-9.8-10.2-11.2-1.8-.2-3.2-1-3.2-1.8 0-1 1.8-1.2 3.3-1.2 2.8 0 8.8.6 12 .6 4.1.2 9-.4 11.4-.4zM673.2 538.9c1.6 0 3 .4 3 1.2 0 .6-1.2 1.4-3.2 1.8-5.7 1.2-6.9 3.2-7.1 8.7-.2 6.7-.4 24-.4 32 0 21.4 0 34.6.4 38.3.4 4.5 2.2 6.3 8.3 7.5 1.8.6 2.5 1 2.5 1.8 0 1-1.6 1.2-3.3 1.2-3.3 0-11.2-.6-16.5-.6-4.9 0-10.8.8-15.3.8-1.8 0-3.1-.6-3.1-1.2 0-1 1.2-1.4 3.1-1.8 6.1-1.2 7.7-3.7 7.9-11.8.4-8.5.4-21.6.4-33.8 0-14.8-.2-32.8-.6-35-.6-4.1-3.5-5.3-7.9-6.1-1.2-.4-2.8-1.2-2.8-1.8 0-.8 1.6-1.2 3.2-1.2 4.1 0 10 .6 15 .6 3.6 0 12.7-.6 16.4-.6zM754.4 539.5c11.2 0 13.8-.4 16.3-1.4 1-.6 1.8-1 2.2-.8.4.4.4 1 .2 1.8-.6 1.6-1 7.1-.8 14.2 0 2.2-.2 4.3-1.2 4.3-.8 0-1.4-1.4-1.6-2.8-.7-2.8-1.6-5.6-2.8-8.2-1.2-1.4-2.4-3-7.5-3-3.2 0-18.1 0-20.8.2-.8 0-1.2 1.6-1.2 2.4l-.4 51.7c0 8.5 0 19.1.6 23.4.6 4.5 2.6 6.1 7.9 7.1 2.2.4 3.3 1.2 3.3 2s-2.2 1.2-3.9 1.2c-5.3 0-9.8-.8-16.5-.8-9.4 0-13.8.8-16.1.8s-3.7-.6-3.7-1.2c0-.8 1.6-1.6 3.3-1.8 7.1-1 8.5-2.6 8.7-10 .8-14.5 1.2-71 1.2-72.4 0-1-.2-2.4-1-2.5-1.2 0-5.3-.2-11-.2s-10.4.2-12.2.4c-3.5.6-6.1 3-7.9 10.8-.4 1.8-1 3-1.8 3s-1.4-1.2-1.2-3.3c.4-4.5 1.6-11.4 1.6-15.3 0-.7.2-1.5.8-2 .6-.4 1 0 1.6.6 1.6.8 3.3 1.3 5.1 1.4 2.2.2 18.3.6 34.4.6l24.4-.2zM818.6 538.9c1.6 0 3 .4 3 1.2 0 .6-1.2 1.4-3.2 1.8-5.7 1.2-6.9 3.2-7.1 8.7-.2 6.7-.4 24-.4 32 0 21.4 0 34.6.4 38.3.4 4.5 2.2 6.3 8.3 7.5 1.8.6 2.6 1 2.6 1.8 0 1-1.6 1.2-3.3 1.2-3.3 0-11.2-.6-16.5-.6-4.9 0-10.8.8-15.3.8-1.8 0-3.1-.6-3.1-1.2 0-1 1.2-1.4 3.1-1.8 6.1-1.2 7.7-3.7 7.9-11.8.4-8.5.4-21.6.4-33.8 0-14.8-.2-32.8-.6-35-.6-4.1-3.5-5.3-7.9-6.1-1.2-.4-2.8-1.2-2.8-1.8 0-.8 1.6-1.2 3.2-1.2 4.1 0 10 .6 15 .6 3.5 0 12.5-.6 16.3-.6zM852 539.5c9.6 0 25.6-.4 32.1-.4 5.7 0 12.6-.4 14.2-.4.6 0 1.2 1.4 1.4 2.4.2 1.6.6 8.5 1 11.6.2 1.8-.4 3.5-1.2 3.5-.6 0-1.4-1.4-2-3.2-2.5-6.7-5.7-9-8.1-9.4-2.6-.4-3.3-.8-26.3-.8-1 0-1.6 1.2-1.6 2.5-.2 6.5-.2 27.5-.2 34.6-.1.8.4 1.5 1.2 1.6h14.2c5.9 0 10.8-.6 12.6-1.2s2.8-2 4.3-5.9c.6-1.6 1.2-3 2.2-3 .4 0 .8.8.8 3 0 1.2-1 7.5-1 9.8-.2 2.9-.2 5.8 0 8.7.2 1.6-.2 3.1-1 3.1s-1.4-1.4-2.2-3.3c-1.2-3.3-2.8-6.1-4.9-6.5-3.1-.4-6.1-.6-25.2-.6-.4 0-1.2.4-1.2 2.2-.2 5.5.4 27.7.6 30.5.4 5.5.6 7.9 4.1 8.5 2.4.2 7.5.6 15.7.6 12.4 0 13.4-1 15.5-2.6 1.8-1.4 5.3-5.7 7.7-10 .8-1.4 1.8-2.4 2.6-2.4s.8 1.8 0 3.9c-.8 2-3.3 10.8-4.1 12.8-.6 1.3-1.9 2.1-3.3 2.2-16.5 0-31.5-.6-47-.6-5.3 0-14.2.6-16.1.6-1.8 0-3.5-.2-3.5-1.2s1.6-1.4 3.1-1.6c4.9-1 7.9-2.4 8.3-8.7.6-8.1.8-25.8.8-39.9 0-7.9 0-17.5-.2-27.1-.2-8.5-2.4-9.8-7.9-11-1.8-.4-2.8-1-2.8-1.8s1.2-1.2 2.6-1.2c3.8.1 11.1.7 14.8.7zM935.9 555.6c0 6.9 3.9 11.8 9.6 16.1 5.9 3.9 11.4 7.3 16.3 10.4 6.5 4.3 15.7 11.2 15.7 24.2 0 16.9-15.9 27.3-33.2 27.3-6.5 0-16.3-2-21.6-4.3-1.6-.6-2-2.8-2.4-4.3-.4-2.6-.8-6.9-1.4-12-.6-2.2 0-3.7.8-3.7s1.6 1.4 2.4 3.7c1.4 4.9 4.2 9.2 8.1 12.4 4.2 3.4 9.4 5.2 14.8 5.3 11.4 0 18.3-7.1 18.3-17.1 0-9.4-6.1-15.1-18.3-22.4-13.2-8.1-22.2-16.5-22.2-29.3-.1-7.9 3.8-15.4 10.4-19.9 5.1-3.5 13-5.5 20.1-5.5 6 .1 11.9 1.1 17.5 3 1 .4 1.8 1.2 1.8 2 .1 4 .6 7.9 1.4 11.8.4 2.2 0 3.3-.8 3.3s-1.4-1-2-2.8c-1.8-4.5-3.7-7.7-6.7-10-3.5-2.9-8-4.5-12.6-4.5-7.3 0-16 4.3-16 16.3zM364 467.8c1 0 1.3.3 1.3.7l.3 3.7c0 .5 0 1-.2 1s-.4-.3-.7-1c-.8-2-1.9-2.9-3.8-3.1-1.6-.2-3.7-.2-8.2-.2-.4 0-.7.6-.7.9 0 1.4-.1 8 0 13.1 0 .3.2.6.5.7 2.7.1 5.5 0 8.2-.2.8-.2 1.4-.4 2.2-2 .2-.5.4-.7.6-.7s.2.3.2.7c0 .6-.2 2.1-.2 3.3s.1 1.9.1 2.5-.1.9-.3.9-.5-.4-.7-1.1c-.5-1.2-1-1.7-1.6-1.9-.8-.2-1.9-.2-8.5-.2-.2 0-.5.4-.5.7 0 1 0 8.8.1 11.1 0 1.9.4 2.2 2.7 2.8.4.1.7.3.7.5s-.6.4-1.1.4c-.9 0-3.1-.3-5.2-.3s-3.4.2-4.2.2c-.6 0-.9-.2-.9-.3s.3-.4 1-.5c1.9-.4 2.1-.8 2.2-2.7.1-1.6.1-7.8.1-13.4 0-5.4 0-8.7-.1-11.8-.1-1.8-.4-2.3-2.1-2.8-.5-.1-.8-.2-.8-.5s.3-.3.8-.3c.7 0 3.3.2 5.6.2 5.8-.2 11.2-.4 13.2-.4zM423.5 484.3c0 6.4-3.7 12.3-9.5 15-8.4 3.9-18.3.2-22.2-8.2-1.1-2.3-1.6-4.9-1.5-7.4-.2-5.3 2.3-10.3 6.6-13.4 2.9-2.1 6.4-3.2 10-3.2 9 0 16.6 7.7 16.6 17.2zm-24.9-12.6c-2.4 2.9-3.5 7.4-3.5 11.7 0 4.2 1.4 8.3 4 11.6 2.8 3.6 5.9 4.8 8.8 4.8 2 0 4-.8 5.4-2.1 2.1-1.8 5.2-6.1 5.2-13.4.1-4.4-1.4-8.7-4.1-12.2-2-2.7-5.1-4.2-8.5-4.2-2.8 0-5.9 2.1-7.3 3.8zM466.8 469.5c2 1.4 3.2 3.7 3.2 6.2.1 2.3-1 4.4-2.9 5.7-.9.6-1.8 1.1-2.8 1.5-.2.1-.2.4 0 .9 1 1.9 3.6 6.4 5.4 9 1.1 1.7 2.4 3.3 3.7 4.7.9 1.1 2.3 1.8 3.8 1.9.3 0 .6.2.6.3s-.2.3-.6.5c-.8.2-1.7.2-2.5.2-3.1.1-6-1.4-7.7-4-2.1-2.8-5.5-8.5-6.7-10.5-.8-1-1.3-1.5-2-1.6-.6-.1-1.3-.2-1.9-.1-.2 0-.4.3-.4.5-.1.7-.1 6.3 0 8.1-.1 1.7.1 3.4.4 5 .2.5.6 1.1 2.3 1.4.5.2.8.3.8.5s-.4.3-1 .3c-.8 0-2.7-.2-4.6-.2s-3.9.2-4.8.2c-.6 0-.9-.1-.9-.3s.3-.4 1-.5c1.7-.3 2.2-.8 2.3-2.9.2-2.9.3-7.1.3-12.9 0-7.1-.2-10.6-.3-12.3-.1-1.5-.1-2.2-2.2-2.6-.5-.1-.9-.2-.9-.5s.4-.3.9-.3 2.3.2 4.1.2c2.4 0 3.4-.3 6.7-.3 2.3 0 4.7.6 6.7 1.9zm-10.4-.6c-.2.1-.3.2-.4 1.1s-.1 11.5-.1 12.3c0 .6.2.9.4.9.4.1.7.1 1.1.1 1.2 0 4.1-.4 5.3-1.2 1.8-1.3 2.8-3.5 2.8-5.7.2-2.1-.6-4.2-2-5.8-1.5-1.5-3.5-2.2-5.6-2.1-.5.1-1.1.2-1.5.4zM546.9 468c3 0 3.9-.1 4.7-.6.2-.2.4-.2.5-.1.1.2.1.4 0 .7-.1 1.3-.2 2.7-.2 4 0 .8-.2 1.1-.3 1.1s-.4-.5-.4-.8c-.1-.9-.5-1.7-1-2.5-.5-.4-1.2-.7-4.5-.7-1.7 0-4.1 0-5 .1-.3.1-.3.5-.3.9 0 1.9-.1 14-.1 16.2 0 2.9.2 8.9.3 10.4s.7 2 2.5 2.5c.6.2.9.2.9.5s-.3.4-1 .4c-1.2 0-3-.3-5.1-.3-2.8 0-4.4.3-5.2.3-.7 0-.9-.3-.9-.5s.5-.4 1-.5c2.5-.3 2.8-1.1 3-3.5.3-5 .3-25.2.2-25.9 0-.5-.2-.6-.3-.6-1.3-.1-2.5-.2-3.8-.2-1.4 0-2.8.1-4.2.2-1 .2-1.6.8-2.3 2.8-.3.6-.5.9-.7.9s-.2-.4-.2-.8c.3-1.4.6-2.9.7-4.4 0-.4 0-.7.3-.8s.3 0 .5.2c.5.3 1 .5 1.6.5.8.1 6 .2 11.2.2l8.1.3zM579.1 472.6c-.2-2.9-.2-3.5-2.2-4-.5-.1-.8-.3-.8-.5s.3-.3.9-.3c.8 0 2.8.3 4.3.3 1.7 0 3.8-.2 4.6-.2.6 0 .8.1.8.3s-.2.4-.7.5c-1.7.4-2 1.1-2.2 2.9-.1 1.2-.2 9.7-.2 10.6 0 .5.1.9.5 1h12.5c4.1 0 4.7-.1 5-.1.5 0 .5-.2.5-1 .1-1.5-.1-7.3-.2-9.1-.2-3.3-.4-4-2.3-4.3-.4 0-.8-.2-.8-.5s.2-.3.8-.3c1.4 0 2.7.3 4.9.3 1.6 0 3.2-.3 4.3-.3.5 0 .9 0 .9.3s-.2.4-.8.5c-2 .4-2.2 1.2-2.2 3.7v12.7c0 3.6.2 7 .3 10.8.1 2.6.4 3.1 2.5 3.6.6.2.8.3.8.5s-.3.3-.9.3c-1.4 0-3.5-.2-4.8-.2-1.6 0-3.2.2-4.4.2-.6 0-1-.1-1-.4 0-.2.3-.3.9-.4 1.8-.4 2.1-.9 2.2-3s.2-7.8 0-10.4c0-.7 0-1.2-.4-1.2-1.8-.1-7.3-.2-12.3-.2h-5.5c-.2 0-.4.4-.4 1.1 0 4 .1 7.9.5 11.9.2 1 .8 1.5 1.9 1.8.7.2.9.3.9.5s-.5.3-.9.3c-1.3 0-3.3-.2-4.8-.2-1.3 0-3.3.2-4.3.2-.5 0-.9-.2-.9-.3s.3-.4.9-.6c1.8-.4 2.2-.9 2.2-2.4s.2-5.1.2-13.1c-.2-2.8-.2-9.6-.3-11.3zM635.5 467.8c1.2 0 3.1.2 4.5.2 2.9 0 9.6-.1 11.6-.1 1.9 0 2.7-.1 3.1-.1.3 0 .5.3.6.8s.2 2.7.4 3.6c0 .3 0 .8-.2.8s-.4-.2-.6-.7c-.9-2.1-1.9-3.1-2.8-3.2s-7.2-.2-9.2-.2c-.4 0-.6.2-.6 2v11.5c0 .6.2.8.3.8h6.2c2.2 0 2.9-.1 3.4-.4s.8-.8 1.3-2c.2-.3.3-.6.5-.6s.2.3.2.6-.2 2-.2 2.8c-.1 1 0 1.9.1 2.9.1.8-.2 1-.3 1s-.3-.2-.6-1c-.2-.6-.6-1.5-1.4-1.7-1.2-.3-2.5-.3-9.1-.3-.3 0-.4.2-.4.9 0 2.6.2 9.9.2 10.9 0 .9.5 1.8 1.3 2.2.8.4 1.6.5 5 .5 3.9 0 5 0 6-1 .6-.6 1.4-1.8 1.9-2.5s.7-.9.9-.9.2.4 0 1c-.3 1-.9 3.3-1.2 3.9-.1.4-.5.7-.9.7-5.4 0-11.1-.2-15.3-.2-1.7 0-4.7.2-5.3.2s-.9-.2-.9-.3.3-.4.9-.5c1.6-.3 2.7-.9 2.7-3.2.2-8.1.2-14 .2-23.7 0-2.9-.6-3.5-2.4-3.9-.5-.1-.8-.3-.8-.5s.4-.3.9-.3z"/><path d="M788.6 102.9c0-25.2-20.6-47.2-45.8-47.7-25.9-.5-47.3 20.1-47.7 46v114.9h93.6V102.9z" style="fill:#8a2432"/><path d="M589.3 55.2c-25.9 0-46.8 21.1-46.8 46.9v114h93.6v-114c0-25.9-20.9-46.9-46.8-46.9z" style="fill:#007934"/><path d="M436.7 55.2c-25.9 0-46.8 21.1-46.8 46.9v114h93.6v-114c.1-25.9-20.9-46.9-46.8-46.9z" style="fill:#d2451e"/><path d="M281.9 55.2c-25.9 0-46.8 21.1-46.8 46.9v114h93.6v-114c0-25.9-20.9-46.9-46.8-46.9z" style="fill:#0067b1"/><path d="M826.2 4.6h-631c-5.8 0-6.8-4.6-6.8-4.6h647.1c.1 0-.7 4.6-9.3 4.6z"/></svg>