<svg xmlns="http://www.w3.org/2000/svg" xml:space="preserve" style="enable-background:new 0 0 1200 676.2" viewBox="0 0 1200 676.2"><path d="M616.5 504.5h66.1v169h33.6v-169h66.1v-29.8H616.5v29.8zm-125.7-.6h42.5c22.3 0 34.9 12.1 34.9 30.4 0 18.5-12.6 30.4-34.9 30.4h-42.5v-60.8zm23.9 89 55.4 80.6h38.2l-57.5-82c31.4-4.8 50.8-23.9 50.8-57.2 0-39-26.6-59.7-67.7-59.7h-76.6v198.6h33.6v-80.6h23.9v.3zM344 515.7l27.1 73.4h-54.3l27.2-73.4zm-15.8-41.1-76.3 198.6h33.9l20.4-55.1h76.1l20.4 55.1H437l-76.3-198.6h-32.5zm-105.7-11.5c-4.8-1.9-9.9-3-16.1-3-23.4 0-40.6 17.5-40.6 43.8v25.8h-23.4v14h23.4v129.8h15.9V543.7h33.6v-14h-33.6v-24.2c0-20.2 11-31.2 26.3-31.2 5.4 0 10.5 1.3 14.5 3.5v-14.7zM117.2 601.5c0 36.3-18.8 60.5-47.6 60.5-28.5 0-47.3-24.2-47.3-60.5S41.1 541 69.6 541c28.8 0 47.6 24.5 47.6 60.5m16.1 0c0-44.3-25.5-74.7-63.7-74.7-37.9 0-63.4 30.4-63.4 74.7s25.5 74.7 63.4 74.7c38.2.3 63.7-30.4 63.7-74.7M1061.6 437.8l53.5-138.1v138.1h32.3V239.2h-37.6l-59.9 152.7-60.5-152.7H951v198.6h32V299.7l54.8 138.1h23.8zm-226 3.2c47.6 0 79.6-28 79.6-82.2V238.9h-33.6v115.8c0 38.2-16.1 55.9-46 55.9s-46-17.7-46-55.9V238.9H756v119.3c-.3 55.1 32.3 82.8 79.6 82.8M600.7 239.2v198.6h129.8v-30.1h-96.8v-57h87.6v-29.6h-87.6v-52.4h96.8v-29.8H600.7v.3zM425.2 383c7 36.8 37.4 58.3 79.3 58.3 41.1 0 71-22.8 71-60.2 0-29.8-20.4-47.8-51.6-55.1l-34.7-8.1c-17.7-4.3-26.3-12.6-26.3-25.8 0-16.4 14.5-27.4 36-27.4 23.7 0 36.3 11.6 41.4 26.6h33.6c-7-33.1-32.3-55.1-75.5-55.1-40 0-67.7 25.3-67.7 58.9 0 32 22 47 49.5 53.5l33.6 8.1c20.7 4.8 28.8 12.9 28.8 26.9 0 18.5-15.3 29.6-38.4 29.6-21.8 0-38.4-9.4-44.9-29.8h-33.9v-.4zm-100.3 58c47.6 0 79.6-28 79.6-82.2V238.9h-33.6v115.8c0 38.2-16.1 55.9-46 55.9-29.8 0-46-17.7-46-55.9V238.9h-33.6v119.3c-.2 55.1 32.3 82.8 79.6 82.8M126 437.8l53.5-138.1v138.1h32.3V239.2h-37.6l-59.9 152.7-60.5-152.7H15.3v198.6h32V299.7l54.8 138.1H126zM1082.6 32.8h42.5c22.3 0 34.9 12.1 34.9 30.4 0 18.5-12.6 30.4-34.9 30.4h-42.5V32.8zm23.9 88.9 55.4 80.6h38.2l-57.5-82c31.4-4.8 50.8-23.9 50.8-57.2 0-39-26.6-59.7-67.7-59.7H1049v198.9h33.6v-80.6h23.9zM889 3.8v198.6h129.8v-30.1H922v-57h87.6V85.7H922V33.3h96.8V3.5H889v.3zm-197.5 99.1c0 61.3 39.2 102.7 90.3 102.7 44.6 0 73.4-25.8 80.9-66.1h-33.1c-7.8 21.2-21.5 35.5-47.8 35.5-35.2 0-56.4-30.6-56.4-72.3s21.5-72.3 56.4-72.3c26.6 0 40 14.2 47.8 35.2h33.1C855.2 25.8 826.7 0 781.8 0c-51.3.3-90.3 41.9-90.3 102.9M664.1 3.8h-32.3v137.9L536.2 3.8h-31.7v198.6h32.3V57.8l101.6 144.6h25.8V3.8zm-319.8 0v198.6h129.8v-30.1h-96.8v-57h87.6V85.7h-87.6V33.3h96.8V3.5H344.3v.3zm-54.8 62.3c0 19.1-12.1 33.1-35.2 33.1h-42.5V32.8H254c23.4 0 35.5 13.7 35.5 33.3m-34.7 62.1c41.1 0 68-21.8 68-62.1 0-41.1-26.9-62.4-68-62.4h-76.6v198.6h33.6v-74.2h43zM0 147.3c7 36.8 37.4 58.3 79.3 58.3 41.1 0 71-23.1 71-60.2 0-29.8-20.4-47.8-51.6-55.1L64 82.2c-17.7-4.3-26.3-12.6-26.3-25.8C37.6 40 52.1 29 73.6 29c23.7 0 36.3 11.6 41.4 26.6h33.6C141.6 22.5 116.3.5 73.1.5 33.1.5 5.4 25.8 5.4 59.4c0 32 22 47 49.5 53.5l33.6 8.1c20.7 4.8 28.8 12.9 28.8 26.9 0 18.5-15.3 29.6-38.4 29.6-21.8 0-38.4-9.4-44.9-29.8H0v-.4z"/></svg>