<svg xmlns="http://www.w3.org/2000/svg" id="uuid-219f6bca-b4ba-4c53-b051-c092ce83a659" viewBox="0 0 2400 1685"><defs><style>.uuid-d1433850-da1b-44ee-ae44-d1eb43c9b64f{fill:#fff}.uuid-1f778ceb-43f2-4077-bc80-8a2a4194f8b9{fill:#543813}.uuid-22435866-e104-4312-b617-fcbd53506bc7{fill:#231f20}</style></defs><path d="M126.77 1461.53 10 1093.78h108.04l39.28 144.59c11.46 41.47 21.28 81.84 30.56 128.77h1.09c8.73-44.74 19.1-87.3 30.01-127.13l39.83-146.23h104.76l-120.04 367.75H126.77ZM511.42 1093.78v367.75h-98.75v-367.75h98.75ZM588.36 1461.53v-367.75h116.22l58.38 112.94c20.18 36.56 41.46 85.66 57.83 128.77h1.64c-5.46-48.56-7.64-99.85-7.64-154.41v-87.3h90.02v367.75H801.15l-62.75-122.22c-20.18-38.74-44.19-88.39-61.66-132.59h-2.18c2.73 49.65 3.82 104.76 3.82 164.24v90.57h-90.02ZM982.3 1093.78h98.75v285.36h141.32v82.39H982.3v-367.75ZM1380.06 1376.42l-20.74 85.12h-102.03l106.94-367.75h130.94l109.67 367.75h-106.39l-23.46-85.12h-94.94Zm81.3-72.57-16.91-66.02c-5.46-20.73-12.55-50.74-18.01-72.57h-1.1c-5.46 21.83-10.91 51.84-16.37 72.57l-15.82 66.02h68.21ZM1661.05 1461.53v-367.75h116.22l58.38 112.94c20.18 36.56 41.46 85.66 57.83 128.77h1.64c-5.46-48.56-7.64-99.85-7.64-154.41v-87.3h90.02v367.75h-103.66l-62.75-122.22c-20.18-38.74-44.19-88.39-61.65-132.59h-2.18c2.73 49.65 3.82 104.76 3.82 164.24v90.57h-90.02ZM2054.99 1099.24c31.64-5.46 73.66-8.18 117.3-8.18 70.38 0 115.13 11.46 151.14 36.56 40.38 27.83 66.56 73.66 66.56 141.32 0 75.3-28.37 123.86-63.83 151.68-40.38 31.64-100.94 45.28-172.97 45.28-47.47 0-79.11-3.27-98.21-6.55v-360.11Zm98.75 289.18c4.91 1.09 14.19 1.09 20.74 1.09 63.84 1.09 111.31-34.37 111.31-117.31 0-72.02-43.11-105.85-102.03-105.85-15.28 0-25.1 1.09-30.02 2.18v219.89ZM94.77 1672.74l-48.95-154.17h45.29l16.47 60.62c4.81 17.39 8.92 34.31 12.81 53.98h.46c3.66-18.75 8-36.6 12.58-53.3l16.7-61.3h43.92l-50.33 154.17H94.77ZM275.99 1637.06l-8.69 35.68h-42.78l44.83-154.17h54.9l45.98 154.17h-44.6l-9.84-35.68h-39.8Zm34.08-30.43-7.09-27.67c-2.29-8.69-5.26-21.27-7.55-30.42h-.46c-2.29 9.15-4.57 21.73-6.86 30.42l-6.63 27.67h28.59ZM426.55 1518.57h41.4v119.63h59.24v34.54H426.54v-154.17ZM583.97 1518.57h41.4v119.63h59.24v34.54H583.96v-154.17ZM838.15 1610.53h-55.36v28.36h61.99v33.86H741.39v-154.17h100.19v33.85h-58.79v24.7h55.36v33.4ZM940.21 1672.74v-62.22l-48.49-91.96h47.35l13.03 34.77c4.12 10.75 7.1 18.53 10.53 28.6h.46c2.97-9.38 5.95-18.07 9.83-28.6l12.59-34.77h46.66l-50.56 90.35v63.82h-41.4ZM1166.76 1672.74v-154.17h48.72l24.48 47.35c8.46 15.32 17.39 35.91 24.24 53.98h.68c-2.28-20.36-3.2-41.86-3.2-64.73v-36.6h37.74v154.17h-43.46l-26.31-51.24c-8.46-16.24-18.53-37.05-25.84-55.58h-.92c1.15 20.82 1.61 43.92 1.61 68.85v37.97h-37.74ZM1405.85 1518.57v87.61c0 23.33 8.01 36.38 24.24 36.38s24.48-11.89 24.48-36.38v-87.61h41.4v85.09c0 47.59-23.79 71.6-67.02 71.6s-64.51-23.1-64.51-72.51v-84.18h41.4ZM1560.76 1520.85c11.67-1.83 29.28-3.43 49.87-3.43 23.56 0 40.49 3.2 52.16 12.12 9.83 7.55 15.1 18.53 15.1 33.39 0 19.22-14.41 32.72-26.31 37.29v.68c10.06 4.58 15.78 14.41 19.67 27.68 4.57 15.78 9.6 38.2 12.58 44.15h-42.09c-2.28-4.58-6.4-16.47-10.75-35.68-4.12-18.3-9.84-22.19-22.65-22.19h-6.63v57.88h-40.95v-151.89Zm40.95 64.28h10.75c15.56 0 24.48-7.54 24.48-18.98s-7.55-18.08-21.27-18.08c-7.78 0-11.89.46-13.96.92v36.14ZM1741.3 1631.57c9.38 4.81 24.47 9.6 40.02 9.6 14.18 0 21.05-4.8 21.05-12.58s-6.87-11.67-24.25-17.61c-26.08-9.38-43.45-23.56-43.45-46.44 0-27.22 23.1-48.27 61.99-48.27 18.3 0 31.56 3.43 41.63 7.78l-8.69 33.17c-6.63-2.97-18.07-7.32-33.39-7.32-12.59 0-19.45 4.58-19.45 11.44 0 7.78 8.24 10.75 27.67 18.07 27.68 10.3 40.03 24.94 40.03 46.44 0 26.53-20.59 49.18-65.65 49.18-18.53 0-36.6-4.81-45.3-9.38l7.78-34.09ZM2000.29 1610.53h-55.36v28.36h61.99v33.86h-103.39v-154.17h100.19v33.85h-58.79v24.7h55.36v33.4ZM2066.43 1520.85c11.67-1.83 29.28-3.43 49.87-3.43 23.56 0 40.49 3.2 52.16 12.12 9.83 7.55 15.1 18.53 15.1 33.39 0 19.22-14.41 32.72-26.31 37.29v.68c10.06 4.58 15.78 14.41 19.67 27.68 4.57 15.78 9.6 38.2 12.58 44.15h-42.09c-2.29-4.58-6.41-16.47-10.75-35.68-4.12-18.3-9.84-22.19-22.65-22.19h-6.63v57.88h-40.95v-151.89Zm40.95 64.28h10.75c15.55 0 24.47-7.54 24.47-18.98s-7.55-18.08-21.27-18.08c-7.78 0-11.89.46-13.96.92v36.14ZM2275.1 1672.74v-62.22l-48.49-91.96h47.35l13.03 34.77c4.12 10.75 7.1 18.53 10.53 28.6h.46c2.97-9.38 5.95-18.07 9.83-28.6l12.59-34.77h46.66l-50.56 90.35v63.82h-41.4Z" class="uuid-1f778ceb-43f2-4077-bc80-8a2a4194f8b9"/><path d="M696.72 489c0-249.11 201.98-451.09 451.1-451.09s451.1 201.98 451.1 451.09-201.97 451.12-451.1 451.12S696.72 738.18 696.72 489Z" class="uuid-d1433850-da1b-44ee-ae44-d1eb43c9b64f"/><path d="M1147.82 947.03c-122.34 0-237.35-47.64-323.85-134.14C737.46 726.38 689.82 611.36 689.82 489s47.64-237.34 134.15-323.84c86.51-86.51 201.52-134.15 323.85-134.15s237.34 47.64 323.85 134.15c86.51 86.51 134.15 201.52 134.15 323.84s-47.64 237.38-134.15 323.89c-86.5 86.5-201.52 134.14-323.85 134.14Zm0-902.21c-244.93 0-444.19 199.26-444.19 444.18s199.26 444.22 444.19 444.22S1592.01 733.94 1592.01 489 1392.75 44.82 1147.82 44.82Z" style="fill:#f7941d"/><path d="M726.68 492.93c0-232.2 188.25-420.46 420.42-420.46s420.48 188.26 420.48 420.46-188.23 420.44-420.48 420.44-420.42-188.2-420.42-420.44Z" style="fill:#c3db6e"/><path d="M1087.04 18.81c-8.28 4.09-41.53 61.68-45.11 66.44-3.56 4.77-22.56 72.37-29.62 85.45-7.14 13-27.31 73.47-27.31 73.47s-55.73 10.72-66.42 17.81c-10.65 7.12-41.58 20.23-49.82 26.1-8.34 5.98-29.66 20.19-40.35 22.53-10.68 2.42-61.69 41.58-67.56 51.07-5.99 9.47-26.13 64.05-28.58 74.7-2.32 10.68-16.54 22.56 13.1 61.66 29.68 39.14 35.59 62.86 48.65 70.05 13 7.09 80.7 49.8 100.83 58.12 20.15 8.26 73.56 28.42 97.24 24.91 23.75-3.6 33.22-5.42 33.22.54s7.19 19.12 7.19 34.56 22.31 110.71 16.53 143.8c-2.34 13.61-35.84 46.96-39.39 55.21-3.56 8.32 28.83 12.89 38.99 16.93 25.38 10.1 98.03 15.24 120.2 13.54 44.06-3.44 95.52-10.37 108.48-18.61 39.44-25.28 35.05 28.32 40.64 25.42 28.77-15.25 3.43-50.31 3.43-50.31s5.04 1.02 33.85-11.3c31.68-13.44 29.4-16.98 23.52-24.1-5.97-7.14-16.48-7.74-21.3-17.19-4.68-9.51-40.31-46.3-42.65-52.28-2.39-5.97-23.68-66.44-24.93-83.03-1.18-16.56 23.66-76.58 64.01-87.29 40.33-10.63 201.72-126.22 213.64-152.31 11.78-26.09 29.58-134.08 11.78-154.12-17.75-20.24-67.46-66.47-134.05-78.35-66.83-11.98-93.64-15.61-104.28-11.98-10.67 3.51-38.1 7.19-45.23 6.04-7.06-1.23-5.88-11.89-13.03-18.96-7.09-7.19-83.03-142.35-87.74-145.96-4.75-3.56-17.86-21.37-33.22-26.09-15.46-4.7-41.5-7.12-59.37-3.56-17.78 3.56-10.63 4.74-15.34 7.1Z" class="uuid-d1433850-da1b-44ee-ae44-d1eb43c9b64f"/><path d="M1123.75 233.54c-3.5 2.95 2.42 1.79-10.04 4.16-12.46 2.35-34.39 10.1-36.22 14.84-1.78 4.72 2.36 8.28-3.6 8.28s-12.41-3.56-12.41-7.67-2.96-7.74-9.42-4.17c-6.55 3.56-3.56 6.54-12.47 2.93-8.96-3.53-6.57-6.49-24.32-5.3-17.78 1.19-24.32 3.54-45.67 13.67-21.38 10.05-16.03.54-20.17 1.07-4.22.63-26.68 13.09-33.26 20.24-6.54 7.12-19.55.61-24.28 1.81-4.79 1.18-13.05 2.91-23.73 18.32-10.67 15.47-11.88 8.4-19.55 9.53-7.78 1.18-5.97-2.35-19.58 8.89-13.61 11.33-20.83 10.68-24.35 14.82-3.62 4.14-5.89 14.23-14.82 19.61-8.89 5.3-8.39-4.17-26.71 20.16-18.36 24.3-6.52 13.05-10.08 23.1-3.5 10.07-9.48 8.32-9.48 13.6s14.24 10.72 8.86 20.23c-5.26 9.47-5.26 5.95-10.05 15.4-4.69 9.47-12.45 17.82-8.91 24.37 3.57 6.53 24.34 9.46 25.57 17.75 1.15 8.28 1.8 7.72 13 23.16 11.27 15.44-4.74 5.86 8.31 18.95 13.08 13.07 16.64 13.07 24.32 22.53 7.71 9.47 10.74 23.09 32.59 30.24 22 7.12 23.15 7.77 27.9 16.61 4.81 8.88 7.75 13.09 16.64 10.12 8.82-2.96 17.73-4.74 10.08-8.88-7.69-4.17-23.13-3.56-26.72-10.74-3.54-7.12-1.18-19.54 11.25-13.58 12.48 5.86 22.02 24.88 25.53 29.6 3.53 4.74 8.29 11.3 16.63 17.21 8.26 5.95 24.94 2.4 31.4 7.1 6.54 4.77 2.41 11.3 15.46 11.3s28.47-4.12 38.53-.56c10.1 3.46 18.4-13.09 21.33-11.89 3 1.16 12.51 0 7.15-3.54-5.39-3.61-10.65 3.54-13.64-19.61-2.98-23.14 2.99-33.79-2.98-37.95-5.97-4.12 7.11-9.49-13.06-5.96-20.13 3.63-23.16-2.95-29.03-8.28-5.96-5.28-8.31-30.23-16.64-39.14-8.28-8.89-11.9-22.53-5.92-31.49 5.92-8.79 16.03-17.74 16.03-27.24s-7.69-11.28-1.23-14.79c6.61-3.6 23.81-4.74 27.36 4.72 3.54 9.47.56 21.4-3.55 27.24-4.24 5.97-7.16 8.35-5.37 8.93 1.74.56 5.37-6.53 12.46 2.4 7.09 8.88 7.09 12.4 8.28 26.7 1.17 14.19-.61 38.49 7.14 40.28 7.67 1.81 11.86 0 10.64-12.96-1.14-13.12-2.97-8.96-2.97-20.23s5.92-16 5.33-21.39c-.57-5.26-3.5-12.4-10.66-23.74-7.17-11.26-7.67-21.89-3.54-43.26 4.16-21.39 7.12-27.26 11.27-36.75 4.14-9.49 6.53-10.7 6.53-20.19s5.92-13.05 10.68-13.05 11.22-1.74 24.88-8.28c13.66-6.49 13.03-11.9 13.66-20.74.64-8.97.64-14.84 10.67-14.84s13.6 4.75 17.82 1.16c4.14-3.53 1.18-7.1 8.89-6.51 7.74.58 7.15 2.39 14.83 0 7.67-2.37 8.87-.6 14.25 3.53 5.3 4.16 14.21 1.19 21.88 5.97 7.7 4.77 13.08 16.65 9.55 26.68-3.63 10.09 0 7.12 4.76 6.56 4.74-.61 10.68-8.93 18.32-10.12 7.7-1.18 15.48 0 22.53 6.58 7.09 6.47 8.91 10.02 17.89 15.98 8.85 5.93 4.68 1.81 1.17 10.65-3.6 8.97-10.69 1.81-16.64 4.11-5.94 2.4-8.32 6.02-11.84 11.3-3.61 5.37-10.75 8.32-11.33 16.07-.54 7.67 1.79 14.79.58 21.35-1.12 6.47-6.47 14.21-2.34 21.93 4.14 7.7 6.53 15.46 5.33 23.17-1.19 7.65-4.75 11.79-.57 18.93 4.11 7.12 9.53 11.91 0 20.75-9.5 8.91-16.05 7.07-27.21 5.37-11.33-1.75-19.02-2.44-21.44 7.14-2.34 9.4 7.75 11.16-10.63 19.56-18.4 8.28-37.39 9.42-37.39 0s5.31-13.09 9.57-17.84c4.1-4.72 9.97-7.16 4.69-9.47-5.33-2.39-12.5 1.19-21.98 10.67-9.46 9.49-10.06 2.98-14.24 13.67-4.11 10.65-13 20.14-10.07 25.51 2.97 5.32 10.68 16.58 16.03 17.16 5.29.61 23.74 3.58 34.38 5.95 10.67 2.39 21.42 1.79 33.23 2.39 11.84.6 23.17-2.95 32 7.77 8.89 10.63 14.83 10.02 14.83 15.37s-1.76 7.11-6.53 5.32c-4.74-1.77-13.58-3.51-18.32 2.4-4.76 5.89-1.24 18.37 3.54 18.37s16-2.33 19.54 1.12c3.53 3.65 4.72 8.37 10.72 4.18 5.93-4.18 4.16-5.88 8.87-9.46 4.7-3.53 13.05-3.53 13.63 2.39.56 5.95 10.04 16 11.28 21.33 1.2 5.39-5.93 9.54-13.03 4.74-7.17-4.74-15.4-12.42-19.05-11.88-3.43.67-4.71 4.17-4.71 10.1s8.95 14.84 7.78 19.56c-1.25 4.77-10.09 13.1-14.91 13.67-4.75.56-12.96 3.58-22.47 4.12-9.57.63-7.79 7.75-14.24 7.75s-17.84-10.65-23.71-10.65-14.32 4.67-22.56 1.1c-8.33-3.51-24.41-20.1-33.8-24.3-9.53-4.11-18.39-4.68-20.79-14.23-2.39-9.51 6.55-14.79.56-17.16-5.94-2.4-14.22 9.47-18.92 4.68-4.78-4.68.53-14.77-4.78-17.82-5.35-2.91-12.46-4.1-12.46-1.19s2.98 12.53-3.56 17.23c-6.49 4.75 23.77 17.23 26.66 24.38 2.97 7.03 1.25 11.21 9.53 14.19 8.34 2.98 3.54-2.4 14.89 3.56 11.24 5.97 17.19 0 23.62 7.14 6.56 7.07 5.97 8.3 21.37 16.02 15.45 7.74 20.82 7.12 24.33 12.46 3.6 5.28 10.7 11.26 18.99 12.47 8.34 1.14 21.36 6.51 23.15 13.05 1.8 6.46-5.91 20.16-10.09 22.56-4.12 2.28-3.49 8.23-9.51 9.46-5.88 1.16-22.54-1.23-22.54 4.68s12.53 16.65 23.74 16.07c11.24-.6 19.64-.6 19.64 6.49s-7.15 20.19-7.15 26.68-5.34 17.82-6.56 25.56c-1.1 7.72-9.51 14.77 3.03 8.86 12.46-5.93 23.65-5.93 23.65-5.93s6.58-1.18 4.82-6.51c-1.86-5.35-1.86-24.37-1.86-24.37l17.21-22.47 4.1-11.23 13.09.54s-1.12 10.68-1.12 21.95 4.12 11.21-3.6 16.56c-7.69 5.4-14.25 7.14-17.16 14.24-2.99 7.14-8.91 8.35-8.91 8.35s-3.61 1.75-1.75 9.47c1.75 7.74 2.94 24.37 7.02 23.09 4.24-1.16 0-5.88 6.55-18.33 6.56-12.47 38.02-43.33 45.74-53.38 7.65-10.1 23.66-34.44 26.1-38 2.32-3.56 9.48-21.89 9.48-21.89s12.43-1.23 10.03-7.11c-2.34-5.98-10.66-18.4-13.63-32.09-2.95-13.67-4.79-56.89-2.37-65.24 2.37-8.3 13.66-26.7 21.4-33.21 7.61-6.54 4.09-12.42 15.35-12.42s22.53 0 33.89-6.49c11.23-6.58 12.98-6.58 22.53-7.14 9.45-.6 14.19-4.17 33.75-17.24 19.58-13.03 35.6-21.38 35.6-21.38s13.03-5.93 22.56-14.21c9.51-8.3 39.1-30.19 53.99-46.21 14.77-16.07 34.95-38.61 38.56-48.63 3.5-10.09 12.42-20.82 15.4-27.33 2.95-6.54 16.01-43.84 5.89-80.08-10.05-36.21-12.98-53.96-35.55-69.38-22.54-15.46-4.16-16.61-27.92-26.1-23.71-9.47-32.56-24.33-56.93-27.84-24.29-3.6-24.29 1.14-30.24-1.79-5.94-2.98-13.03-7.16-29.66-8.97-16.6-1.72-18.34-4.7-33.77-4.7s-19.61 4.19-32.04 1.75c-12.47-2.35-8.29-4.74-20.78-1.75-12.43 2.98-18.95 2.39-40.33 2.39s-38.53 2.98-52.79 4.12c-14.25 1.21-18.98 14.86-24.88 13.68-5.95-1.23-9.54-4.19-15.5-3.6-5.9.58-4.67 7.72-12.98 5.39-8.29-2.4-9.54-1.21-14.89 1.77-5.33 2.89-10.66 10.07-17.74 5.33-7.08-4.77-9.47-8.89-16.64-8.89s-10.69 5.32-10.69 5.32Z" class="uuid-22435866-e104-4312-b617-fcbd53506bc7"/><path d="M1237.63 410.86c4.16-5.89 14.84-10.65 27.31-11.23 12.46-.61 21.38-.61 21.95 6.51.63 7.12 2.97 13.61-8.3 10.65-11.25-2.95-40.3-1.75-40.95-3.53-.56-1.84 0-2.4 0-2.4ZM1239.5 434.02c-12.53 4.14-11.93 14.25-4.82 27.89 7.1 13.67 14.87 6.54 13.67 17.19-1.24 10.63-8.85 9.49-7.68 18.93 1.12 9.56 8.89 20.16 11.24 27.33 2.37 7.14 2.96 11.26 13.69 11.81 10.61.63 5.92-2.93 12.39 8.35 6.48 11.23 17.23 26.67 20.17 21.39 2.97-5.39 8.89-8.39 3.53-20.19-5.32-11.86-1.75-10.7.62-18.95 2.33-8.35.55-11.26 1.82-18.45 1.13-7.07 11.22-4.72 4.11-13.03-7.11-8.28-14.15 1.17-17.13-4.75-3.02-5.89 5.25-15.39-1.25-21.33-6.54-5.95-17.82-5.32-18.34-11.82-.63-6.54 3.51-8.91-1.85-11.32-5.32-2.37-18.97-7.12-23.69-10.68-4.75-3.53-2.98-3.53-6.47-2.35Z" class="uuid-d1433850-da1b-44ee-ae44-d1eb43c9b64f"/><path d="M1178.97 534.25c-4.18 2.93-5.41 7.68-1.22 8.88 4.2 1.23 9.46 2.98 7.76-1.19-1.81-4.12-6.54-7.68-6.54-7.68Z" style="fill:#ffe0bf"/><path d="M1432.27 366.43c-3.6 7.67-4.8 10.1-.67 10.67 4.18.56 10.7 2.37 10.04-3-.58-5.28-5.86-11.26-7.62-8.86M1438.79 390.69c-1.82 5.39-2.42 17.21 4.11 16.65 6.54-.56 11.82 0 13.64-7.12 1.82-7.16-.6-11.28-7.1-11.28s-10.65 1.75-10.65 1.75ZM1495.05 407.9c-2.88 4.12-2.31 6.51-8.84 10.7-6.54 4.14-8.38 1.76-7.13 7.12 1.19 5.32 4.7 15.4 9.48 10.65 4.75-4.72 10.7-5.33 12.49-14.79 1.79-9.56 5.91-11.93 1.79-11.93s-7.79-1.75-7.79-1.75ZM1422.12 334.39c-1.3 2.61 0 8.88 4.77 5.88 4.71-2.91 6.51-4.09 2.92-5.32-3.54-1.16-7.08-1.75-7.69-.56ZM1412.04 282.2c4.17 4.17 11.87 12.42 17.13 11.86 5.36-.56 12.47-4.79 8.98-8.4-3.62-3.46-15.42-5.84-20.15-5.84s-7.16 1.24-5.97 2.39Z" class="uuid-d1433850-da1b-44ee-ae44-d1eb43c9b64f"/><path d="M1102.38 377.09c-4.85 3.26-9.97 5.97-8.27 11.23 1.84 5.35 3.56 8.35 18.38 9.51 14.81 1.19 27.89-1.75 32.09 1.81 4.09 3.54 11.23 5.91 14.21-1.21 2.96-7.14 11.84-10.65-.62-11.81-12.42-1.28-8.29-1.82-17.15-5.98-8.91-4.11-5.92 0-14.84 1.77-8.92 1.76-5.32-.65-13.06-4.14-7.74-3.54-8.92-2.37-10.73-1.18ZM1074.53 395.44c-7.68 0-11.82 6.53-16.57 9.53-4.76 2.93-11.28 5.89-4.76 5.89s21.33-4.09 23.13-9.49c1.79-5.3 0-5.93-1.8-5.93ZM1077.49 423.92c-9.5 5.35-14.21 8.35-12.39 11.25 1.76 3 .56 6.53 7.12 3.58 6.54-2.96 7.63-10.03 18.38-5.33 10.65 4.75 11.79 1.19 18.35 6.53 6.55 5.39 10.1 2.4 14.81 7.72 4.76 5.39 11.89 11.28 16.63 7.7 4.78-3.53 17.78-21.33 12.48-29.03-5.36-7.72-14.87-11.28-35.02-9.53-20.17 1.81-26.1 6.58-30.81 6.58s-9.55.54-9.55.54ZM1171.28 56.19c-8.32-1.16-5.97-7.09-11.89-5.95-5.98 1.21-3.01 5.95-8.31 7.12-5.34 1.19-6.51-1.17-11.89 1.81-5.3 2.96-11.28 7.09-3.56 6.53 7.7-.6 11.34-6.53 16.04-4.7 4.7 1.76 26.67 8.84 41.55 14.21 14.74 5.28 6.45 1.16 7.08 6.51.54 5.35-9.53 13.58.54 19.53 10.15 6 17.24-2.32 19.06 6 1.7 8.24 5.28 12.4.59 11.81-4.79-.58-7.67-8.82-11.93-5.35-4.15 3.53-6.51 5.35-2.33 12.51 4.1 7.1 10.68 8.86 8.95 11.82-1.8 2.98-14.88 9.51-5.94 14.82 8.84 5.4 15.35-.56 21.28 4.75 5.97 5.35 10.14 19.56 1.2 19.56s-21.94-3.58-33.23-3.58-21.86 1.82-19.53 6.53c2.32 4.75 6.54 2.46 31.38 4.75 24.97 2.44 24.97 4.21 37.38 7.16 12.47 2.93 37.39 3.58 36.23-1.84-1.25-5.32-15.4-22.47-19.61-31.93-4.14-9.54-27.27-48.03-33.2-57.61-5.95-9.49-19.59-38.51-24.35-44.45-4.73-5.95-8.88-13.65-15.33-12.47-6.59 1.25-14.82 11.89-17.3 12.47-2.34.54-2.88 0-2.88 0ZM1127.29 14.63c-1.12 3.56-.57 12.53-6.45 8.35-5.94-4.17-8.36-5.95-5.94-8.89 2.34-2.98 1.84-4.14 5.94-3.53 4.09.54 6.45 4.07 6.45 4.07ZM1038.94 92.98c-4.71 5.33-5.31 9.47-5.93 16.6-.56 7.14-1.76 10.07-5.95 16-4.12 5.93-10.65 20.17-5.26 22.56 5.26 2.35 8.82 4.16 10.65-4.16 1.78-8.3 0-20.19 2.38-25.51 2.38-5.33 10.08-13.63 14.19-16.02 4.17-2.37 13.69 0 6.58-5.35-7.1-5.33-16.66-4.12-16.66-4.12ZM1071 38.44c-5.35 5.28-2.38 4.74-3.02 8.26-.57 3.54 3.02 5.97 6.54 0 3.59-5.93 5.97-8.26 4.79-11.24-1.2-3.02-8.32 2.98-8.32 2.98ZM1049.61 68.68c-2.98 9.02-7.05 10.03-4.7 11.23 2.39 1.21 8.29-.54 8.89-7.09.55-6.56-3.56-5.98-4.18-4.14Z" class="uuid-22435866-e104-4312-b617-fcbd53506bc7"/><path d="M906.32 328.46c-14.23 3.16-20.59 13.44-26.13 23.72-5.47 10.25-2.39 12.63 0 20.49 2.36 7.96-1.56 16.68 3.21 15.1 4.69-1.65 6.31 4.74 5.5-13.44-.81-18.26 0-22.98 7.89-30.1 7.93-7.07 13.44-9.47 12.67-13.42-.79-3.95-3.14-2.35-3.14-2.35ZM839.09 360.08c-11.88 7.14-19.81 7.89-19.03 18.18.85 10.3 3.17 13.47 0 19.79-3.18 6.33-5.51 2.39-5.51 12.61s3.91 10.3-.77 20.61c-4.79 10.25-8.74 10.25-4.79 16.6 4 6.37 13.48 19.75 16.62 12.63 3.2-7.1-3.94-15.81-1.54-22.12 2.39-6.37 9.48-5.53 11.08-15.82 1.55-10.26 2.35-3.16-2.43-15.77-4.75-12.7-11.81-11.07-4.75-19 7.17-7.91 5.58-9.51 10.35-15.1 4.72-5.46 6.25-.72 10.27-5.46 3.95-4.79 7.88-7.91 2.35-8.72-5.55-.77-11.86 1.58-11.86 1.58ZM777.36 421.76c-6.29 7.95-7.88 7.1-7.09 18.96.8 11.9 2.38 15.81 1.61 22.93-.81 7.12 3.18 16.61 7.89 10.32 4.75-6.35.81-6.35 6.32-19.74 5.52-13.51 13.42-11.14 10.33-19.84-3.19-8.67-4.82-14.28-10.33-15l-5.51-.79-3.21 3.16ZM796.41 390.94c-8.74 1.58-15.04 5.47-10.33 7.89 4.75 2.35 14.23 1.6 14.23-2.42s-3.89-5.47-3.89-5.47ZM803.48 500.04c-7.07-1.53-14.21 2.35-12.65 7.12 1.66 4.72 12.65 9.53 12.65 4.72v-11.84ZM820.07 528.49c-5.51 4.02-10.21 6.37-5.51 11.89 4.72 5.51 9.52 11.88 11.06 2.35 1.6-9.47-.74-15.81-3.94-15.81M857.28 556.98c-11.11-1.56-16.61-4.72-18.19 2.39-1.59 7.1 10.26 22.16 14.22 17.39 3.97-4.75 6.35-5.6 6.35-11.07s-2.38-8.7-2.38-8.7Z" class="uuid-d1433850-da1b-44ee-ae44-d1eb43c9b64f"/><path d="M1073.21 704.85c6.64 6.75-1.55 15.79 6.29 17.44 7.88 1.6 4.76 7.07 7.88 1.6 3.22-5.56 3.22-6.37-1.54-12.68-4.73-6.35-10.29-7.91-10.29-7.91s-3.15.77-2.33 1.56ZM1315.93 796.6c-4.7 6.25-15.8 21.37-14.99 23.75.74 2.37 3.92 12.63 9.49 10.28 5.5-2.39 4.76-6.37 9.46-9.47 4.75-3.19 13.46-3.19 15.01 3.11 1.61 6.37 1.61 14.26-.77 22.18-2.36 7.86-6.31 32.44-3.18 41.1 3.18 8.74-3.13 11.86-7.84 16.67-4.77 4.74-9.53 12.63-12.68 10.23-3.18-2.35-.82-7.1-5.57-15.04-4.73-7.89-15.01-11.86-19.75-7.89-4.75 3.89-.73 8.68 3.89 11.88 4.82 3.21 8.71 12.68 12.68 12.68s4.79 0 11.1 7.86c6.35 7.91 11.07 14.3 15.85 10.3 4.74-3.96 3.94-6.32 8.68-22.95 4.75-16.63 7.94-18.19 9.46-29.31 1.63-10.98.81-14.21 3.2-22.91 2.33-8.63 10.18-11.82 21.31-12.61 11.1-.81 15.89-11.07 5.6-15.09-10.32-3.96-17.42-.72-23.73-9.4-6.38-8.79-2.37-13.51-16.63-17.46-14.25-3.96-11.07-11.07-15.03-11.84-3.94-.75-3.14.77-5.55 3.95ZM1147.9 354.73c-1.61 6-2.69 9.23 1.09 9.74 3.79.58 8.06 4.35 6.53-1.63-1.68-5.88-2.74-8.6-4.94-8.6s-2.68.49-2.68.49Z" class="uuid-22435866-e104-4312-b617-fcbd53506bc7"/><path d="M1160.87 398.43c-3.84 0-3.82 2.72-4.85 6.51-1.11 3.75-3.25 6.46 1.03 6.46s8.07.54 8.66-3.75c.5-4.35 1.11-3.79-.97-6.49-2.27-2.72-1.23-2.72-3.86-2.72Z" class="uuid-1f778ceb-43f2-4077-bc80-8a2a4194f8b9"/></svg>