<?xml version="1.0" encoding="UTF-8"?><svg id="uuid-8bda0496-5374-4d13-9d03-f82a3c4f97b3" xmlns="http://www.w3.org/2000/svg" viewBox="0 0 618 208"><defs><style>.uuid-bc3a1eee-61a3-4071-8db1-d56af5f2d0f0{fill:#574545;}.uuid-fd236cf1-94bd-4719-a67d-8f6d4a1e5e59{fill:#b45b38;}</style></defs><path class="uuid-bc3a1eee-61a3-4071-8db1-d56af5f2d0f0" d="M100.38,78.13l4.88,9.26,.12,.21,7.21,13.92v-9.43c.01-5.06,4.11-9.15,9.16-9.15s9.16,4.1,9.16,9.15v9.45h0l7.16-13.81,.07-.15,4.99-9.46,.86-1.64,.02-.04-7.23-19.55c-.93-2.44-4.02-11.48-6.17-17.83-.7-2.1-2.43-7.26-3.62-10.9-.32-1.1-.55-2.17-.55-2.85,0-2.01-.05-7.26,.97-9.15,.19-.37,.27-.86,.17-1.36-.2-.95-.96-1.59-1.68-1.44-.02,0-.03,0-.05,.01-.07-.97-1.43-4.3-2.09-6.17-.54-1.54-1.57-3.72-1.56-4.81,.18-.14,.32-.37,.32-.63,0-.43-.35-.77-.78-.77s-.77,.34-.77,.77c0,.26,.12,.49,.33,.63,0,1.09-1.03,3.27-1.58,4.81-.66,1.87-2.01,5.2-2.08,6.17-.02,0-.03-.01-.03-.01-.75-.15-1.5,.49-1.7,1.44-.1,.5-.03,.99,.16,1.36,1.02,1.89,.98,7.14,.98,9.15,0,.74-.26,1.9-.6,3.09-1.21,3.63-2.87,8.61-3.57,10.66-2.14,6.35-5.22,15.39-6.15,17.83l-7.24,19.56v.03l.88,1.65Z"/><path class="uuid-bc3a1eee-61a3-4071-8db1-d56af5f2d0f0" d="M82.7,173.75c.02-1.92,.74-4.14,2.04-7.87l10.99-30.28,3.76-10.37,.06-.18-10.57-20.13-6.77,18.31-1.39,3.76-1.39,3.77-7.65,20.64h-4.11l-5.68-15.53-1.4-3.83-1.4-3.82L33.14,56.87c-1.77-4.46-2.69-8.2-2.69-10.72,0-.87,.11-1.69,.39-2.44,.29-.76,.78-1.43,1.42-1.95,1.04-.85,2.38-1.32,4.06-1.72v-.98H1v.95c1.21,.23,2.33,.49,3.33,.95,1.3,.59,2.44,1.5,3.41,2.79h.01l.05,.05h0c2.29,2.73,3.94,6.89,6.62,14.31l40.27,106.9c.77,2.1,1.38,3.99,1.8,5.56,.43,1.6,.68,2.84,.68,3.84,.03,1.69-.62,3.31-1.94,4.33-1.07,.85-2.45,1.37-4.17,1.8v.98h37.5v-1.01c-1.69-.47-3.05-1.11-4.07-2.1-1.25-1.2-1.82-2.88-1.81-4.65Z"/><path class="uuid-bc3a1eee-61a3-4071-8db1-d56af5f2d0f0" d="M207.21,39.06v1c1.15,.28,2.18,.58,3.03,1.03,1.11,.57,2.01,1.48,2.44,2.63,.31,.76,.4,1.57,.4,2.44,0,2.51-.93,6.26-2.7,10.72h.01l-26.06,71.37-1.41,3.82-1.39,3.83-5.68,15.53h-4.12l-7.64-20.67-1.4-3.77-1.4-3.77-6.75-18.3-10.59,20.14,.06,.17,3.76,10.36,10.98,30.28h0c1.31,3.75,2.03,5.97,2.04,7.88,.02,1.78-.56,3.45-1.8,4.66-1.03,.98-2.4,1.63-4.07,2.09v1.01h37.49v-.98c-1.71-.42-3.09-.95-4.16-1.8-1.32-1.02-1.97-2.64-1.94-4.33,0-1,.26-2.24,.67-3.84,.43-1.58,1.03-3.46,1.8-5.56h0l40.28-106.9c2.67-7.39,4.33-11.54,6.61-14.26h-.01l.02-.02,.03-.05h.01c.98-1.29,2.11-2.22,3.42-2.81,1.01-.46,2.13-.73,3.34-.96v-.95h-35.31Z"/><path class="uuid-fd236cf1-94bd-4719-a67d-8f6d4a1e5e59" d="M178.83,77.03v-22.78c-.16-.73-.28-1.39-.28-1.86,0-2.01-.04-2.04,.97-3.93,.19-.37,.28-.86,.17-1.36-.2-.95-.96-1.59-1.69-1.44-.01,0-.02,.01-.03,.01-.08-.97-1.44-4.3-2.1-6.16-.54-1.54-1.57-3.72-1.57-4.81,.2-.14,.32-.37,.32-.63,0-.43-.35-.77-.78-.77s-.76,.34-.76,.77c0,.26,.12,.49,.32,.63,0,1.1-1.02,3.27-1.56,4.81-.66,1.87-2.01,5.19-2.1,6.16,0,0-.02,0-.04-.01-.72-.15-1.47,.49-1.68,1.44-.12,.5-.04,.99,.16,1.36,1.02,1.89,.98,1.92,.98,3.93,0,1.61-1.28,5.31-1.8,6.73h-14.58v.15c.94,.34,1.74,.71,2.38,1.21,.85,.66,1.43,1.71,1.41,2.76,0,.26,0,.58-.06,.96-.07,.38-.2,.75-.4,1.19-.38,.88-1.04,2.12-2.38,4.65h0l-3.9,7.37-.88,1.66-.87,1.66-4.98,9.45h0l-7.22,13.92-.87,1.68-.88,1.69-12.21,23.55-.17-.33-.17,.33-12.21-23.55-.87-1.69-.89-1.69-7.21-13.93h0l-4.97-9.44-.88-1.66-.87-1.66-3.9-7.39h0c-1.99-3.79-2.54-4.66-2.78-5.83-.06-.38-.06-.7-.06-.96-.03-1.06,.55-2.11,1.41-2.76,.62-.49,1.44-.87,2.37-1.21v-.15h-14.59c-.52-1.42-1.8-5.11-1.8-6.73,0-2.01-.05-2.04,.98-3.93,.2-.37,.27-.86,.17-1.36-.2-.95-.97-1.59-1.69-1.44-.02,0-.03,.01-.04,.01-.08-.97-1.44-4.3-2.1-6.16-.54-1.54-1.57-3.72-1.56-4.81,.18-.14,.32-.37,.32-.63,0-.43-.34-.77-.77-.77s-.78,.34-.78,.77c0,.26,.13,.49,.33,.63,0,1.1-1.03,3.27-1.57,4.81-.67,1.87-2.02,5.19-2.1,6.16,0,0-.02,0-.03-.01-.72-.15-1.49,.49-1.69,1.44-.11,.5-.03,.99,.16,1.36,1.03,1.89,.97,1.92,.97,3.93,0,.46-.1,1.09-.26,1.79v22.85l-.1,6.88c0,.07,.04,.02,.1-.08v43.19l5.04,13.83,6.97-18.85v-44.54h4.14l8.7,16.56,.87,1.67,.87,1.66,12.31,23.42,.87,1.66,.89,1.67,16.41,31.24,16.42-31.24,.88-1.67,.88-1.67,12.3-23.43,.88-1.67,.86-1.66,8.7-16.55h4.13v44.52l6.98,18.87,5.03-13.82v-43.2c.06,.11,.1,.16,.1,.09l-.1-6.88Z"/><path class="uuid-fd236cf1-94bd-4719-a67d-8f6d4a1e5e59" d="M602.26,179.96c-10.94-.09-23.72-.19-37.39-.3-13.68-.04-28.28-.08-42.87-.13-12.86,.04-25.69,.08-37.93,.12-12.41-.04-25.44-.08-38.51-.12-1.84,0-3.68,.02-5.52,.02s-3.72-.01-5.58-.02c-12.86,.04-25.69,.08-37.93,.12-12.41-.04-25.44-.08-38.51-.12-14.59,.04-29.19,.09-42.87,.13-13.68,.11-26.45,.21-37.4,.3-4.62,.06-8.89,.11-12.8,.17v.75c3.9,.05,8.18,.11,12.8,.17,10.94,.09,23.72,.19,37.4,.3,13.68,.04,28.28,.08,42.87,.13,13.07-.04,26.09-.08,38.51-.12,12.24,.04,25.07,.08,37.93,.12,1.86,0,3.72-.01,5.58-.02,1.84,0,3.68,.01,5.52,.02,13.07-.04,26.1-.08,38.51-.12,12.24,.04,25.06,.08,37.93,.12,14.6-.05,29.19-.09,42.87-.13,13.68-.11,26.45-.21,37.39-.3,4.75-.06,9.14-.12,13.13-.18v-.74c-3.99-.05-8.38-.12-13.13-.18Z"/><path class="uuid-bc3a1eee-61a3-4071-8db1-d56af5f2d0f0" d="M295.68,89.41l8.65,20.46c.94,2.27,1.64,3.4,2.06,3.4,.36,0,.85-.65,1.42-1.99,.17-.43,.52-1.22,1.08-2.38,3.78-8.39,7.29-16.86,10.54-25.4,3.25-8.55,4.88-13.59,4.88-15.12,0-1.35-1.22-2.29-3.66-2.82-1.35-.3-2.03-.77-2.03-1.39s.42-.89,1.26-.89c.15,0,.41,.01,.78,.05,1.21,.08,2.94,.13,5.19,.13,2.61,0,4.59-.08,5.88-.24,.99-.13,1.65-.19,2.02-.19,.64,0,.96,.31,.96,.93,0,.51-.42,.93-1.25,1.28-1.19,.46-2.06,1.32-2.63,2.59l-2.38,5.14c-.98,2.13-2.5,5.61-4.57,10.44-2.12,5.09-3.74,8.9-4.87,11.43l-5.18,11.7-3.45,8.16-2.08,4.7-.93,2.2-.66,1.3c-.73,1.58-1.47,2.37-2.22,2.37-.62,0-1.23-.69-1.83-2.07l-10.72-24.98-10.79,25.71c-.51,1.24-1.05,1.84-1.58,1.81-.75-.03-1.56-1.15-2.48-3.37l-17.81-42.64-1.12-2.85c-1.56-3.91-2.91-6.63-4.07-8.16-1.16-1.53-2.64-2.49-4.42-2.89l-1.77-.39c-.59-.14-.9-.49-.9-1.05,0-.68,.44-1.02,1.31-1.02,.26,0,.61,.03,1.07,.09,1.12,.14,2.56,.21,4.32,.21l5.31,.05,3.62-.09c1.48-.11,2.36-.17,2.68-.17,.78,0,1.17,.35,1.17,1.06,0,.54-.33,.91-.96,1.1-1.81,.51-2.71,1.35-2.71,2.51,0,1.41,1.04,4.52,3.14,9.33,.95,2.19,2.52,5.92,4.64,11.19,2.06,5.12,3.52,8.67,4.38,10.63l4.21,9.33c.47,1.04,.78,1.73,.95,2.08l.52,.91c.3,.63,.55,.94,.73,.94,.2,0,.5-.46,.91-1.38l.2-.51,7.42-17.35c-.61-1.44-.96-2.3-1.08-2.59l-3.84-8.99-3.57-8.39c-1.36-3.05-2.39-5-3.12-5.83-.71-.84-1.85-1.36-3.4-1.56-2.37-.31-3.51-.83-3.46-1.57,.04-.57,.63-.85,1.83-.85l1.68,.04,8.39,.26c1.21,0,2.64-.08,4.28-.26,.95-.09,1.57-.13,1.85-.13,1.01,0,1.52,.34,1.52,1.01,0,.45-.48,.86-1.42,1.23-1.38,.57-2.07,1.5-2.07,2.76,0,1.1,.52,2.87,1.55,5.32l4.56,10.82c.38-.89,.67-1.56,.87-1.99,3.31-7.39,4.97-12.19,4.97-14.41,0-1.32-.96-2.16-2.85-2.51-1.38-.25-2.06-.72-2.06-1.4,0-.57,.5-.85,1.49-.85,.18,0,.74,.03,1.7,.07,1.25,.07,2.73,.1,4.42,.1,1.84,0,3.24-.06,4.21-.17,.83-.09,1.42-.14,1.76-.14,.85,0,1.29,.33,1.29,1.01,0,.48-.5,.86-1.51,1.14-1.09,.35-1.89,.87-2.39,1.55-.5,.69-1.42,2.59-2.74,5.7l-7.07,16.7Z"/><path class="uuid-bc3a1eee-61a3-4071-8db1-d56af5f2d0f0" d="M417.55,68.22h-12.13c-1.27,0-2.06,.17-2.39,.52-.33,.35-.5,1.19-.5,2.55v42.32l.04,1.69c.15,3.36,2.03,5.37,5.65,6,1.01,.17,1.51,.49,1.51,.97,0,.62-.4,.93-1.21,.93-.35,0-1.05-.09-2.12-.26-.54-.09-1.84-.13-3.88-.13l-3.16-.05-3.37,.05c-1.22,0-2.24,.04-3.08,.13-1.64,.17-2.6,.26-2.89,.26-.87,0-1.3-.31-1.3-.93,0-.44,.48-.72,1.42-.84,2.22-.29,3.71-.9,4.49-1.83,.77-.94,1.17-2.61,1.17-5.04v-42.79l-.05-1.12c0-1.05-.14-1.7-.45-1.99-.31-.29-1-.43-2.09-.43h-11.42c-2.34,0-4.03,.47-5.08,1.4-1.05,.93-1.86,2.69-2.43,5.28-.26,1.12-.65,1.67-1.16,1.64-.52-.03-.78-.42-.78-1.16,0-.6,.17-1.71,.52-3.32,.43-2.05,.65-3.76,.65-5.11s.15-2.18,.45-2.59c.3-.42,.95-.62,1.93-.62h46.43c1.59,0,2.54,.17,2.88,.52,.33,.35,.49,1.36,.49,3.04s.07,2.92,.22,3.69c.14,.97,.22,1.68,.25,2.11,.04,.85-.27,1.32-.91,1.38-.52,.02-.86-.42-1.03-1.34-.38-2.04-.98-3.37-1.81-3.99-.83-.62-2.46-.93-4.87-.93Z"/><path class="uuid-bc3a1eee-61a3-4071-8db1-d56af5f2d0f0" d="M444.87,96.76v15.78c0,3.31,.44,5.49,1.33,6.55,.89,1.07,2.94,1.85,6.12,2.37,.83,.14,1.27,.45,1.3,.91,.03,.58-.31,.85-1.03,.82-.4-.03-1.18-.09-2.33-.18-.95-.08-2.66-.13-5.13-.13l-3.45-.04-3.06,.09c-1.21,0-2,.01-2.37,.04-1.53,.14-2.39,.22-2.59,.22-.95,0-1.43-.34-1.43-1.02,0-.45,.42-.71,1.26-.79,1.78-.17,3.03-1.02,3.73-2.55,.71-1.52,1.05-4.1,1.05-7.69v-36.74c0-3.08-.33-5.24-.99-6.46-.66-1.23-1.93-2.05-3.79-2.44l-2.12-.43c-.74-.17-1.11-.46-1.11-.89,0-.59,.38-.88,1.16-.88,.43,0,.95,.05,1.56,.14,1.46,.19,3.77,.29,6.9,.29l1.6-.05,3.23-.08c.87,0,1.61-.01,2.25-.04,1.15-.12,1.85-.18,2.06-.18,.7-.02,1.05,.24,1.05,.8,0,.4-.35,.74-1.05,1.01-1.81,.78-2.94,1.66-3.42,2.65-.48,.99-.71,2.95-.71,5.88v16.82c0,.6,.13,.91,.39,.91l.69-.47,.64-.52,18.51-16.57c2.84-2.52,4.27-4.55,4.27-6.06,0-1.32-1.04-2.16-3.1-2.54-1.33-.19-1.99-.56-1.99-1.1,0-.59,.45-.88,1.34-.88,.26,0,.65,.02,1.17,.07,1.21,.09,2.56,.13,4.06,.13l3.98,.1,3.24-.04c1.82,0,3.02-.04,3.6-.11,.65-.1,1.1-.15,1.33-.15,.78,0,1.2,.28,1.25,.84,.03,.46-.66,.85-2.06,1.19-2.6,.66-7.55,4.29-14.88,10.89l-14.75,13.35c-.63,.57-.96,1.03-.99,1.38-.03,.43,.31,1.04,1.04,1.81l22.46,23.49c2.38,2.51,4.99,4.04,7.81,4.62l1.9,.39c.66,.14,.98,.42,.98,.84,0,.7-.43,1.03-1.32,.97-.27,0-.6-.03-1.03-.09-.55-.09-1.8-.13-3.71-.13-1.72,0-2.96,.04-3.74,.09-.85,.05-1.52,.08-1.96,.08-.97,0-1.83-.38-2.54-1.16l-.73-.83-23.15-23.84-.87-.95c-.34-.31-.69-.47-1.02-.47-.52,0-.78,.33-.78,.99Z"/><path class="uuid-bc3a1eee-61a3-4071-8db1-d56af5f2d0f0" d="M503.77,76.31v32.32c0,4.04,.24,6.7,.74,8,.57,1.47,1.28,2.5,2.13,3.12,.85,.6,2.18,1.03,3.99,1.29,1.43,.2,2.15,.55,2.15,1.06,0,.67-.44,1.01-1.34,1.01-.43,0-.98-.05-1.64-.14-.89-.13-2.41-.2-4.57-.2l-6.25-.09-5.09,.3c-.84,.09-1.52,.13-2.07,.13-.78,0-1.17-.29-1.17-.88,0-.51,.44-.83,1.34-.97,2.18-.38,3.59-1.13,4.22-2.26,.63-1.14,.95-3.54,.95-7.19v-36.97c0-3.57-.41-5.97-1.22-7.21-.82-1.25-2.57-2.08-5.24-2.51-.89-.16-1.35-.5-1.38-1.01-.04-.62,.39-.92,1.25-.92,.22,0,.49,.01,.77,.05,2.09,.25,4.89,.38,8.37,.38,2.12,0,3.95-.05,5.47-.15l2.89-.23c.54-.04,.9-.05,1.07-.05,.78,0,1.17,.27,1.17,.8,0,.51-.38,.88-1.12,1.13l-2.25,.86c-2.13,.81-3.19,4.25-3.19,10.34Z"/><path class="uuid-bc3a1eee-61a3-4071-8db1-d56af5f2d0f0" d="M567.87,80.25v36.13c0,3.25-.07,5.22-.22,5.94-.15,.7-.55,1.04-1.21,1.01-.43-.03-.76-.16-.99-.38l-.95-1.12-36.35-41.57-.43-.48c-.17-.17-.37-.25-.6-.25-.55,0-.83,.64-.83,1.94v29.26l-.04,1.82,.13,3.07c.2,1.9,.69,3.21,1.46,3.93,.78,.72,2.3,1.25,4.57,1.6,.95,.11,1.42,.48,1.42,1.1,0,.56-.3,.84-.9,.84-.4,0-.83-.03-1.3-.09-.31-.06-1.57-.14-3.75-.26l-4.4-.21-2.06,.07c-1.12,0-2.19,.07-3.2,.2-.75,.11-1.28,.16-1.59,.16-.75,0-1.15-.27-1.2-.8-.03-.43,.37-.78,1.2-1.06,2.41-.83,4.04-1.95,4.89-3.34,.85-1.39,1.27-3.65,1.27-6.76v-29.34c0-4.98-.79-8.9-2.36-11.76-1.59-2.87-3.87-4.5-6.87-4.9-.77-.11-1.16-.43-1.16-.97s.3-.79,.94-.79c.15,0,.37,.01,.7,.04l1.76,.05,2.88,.08,.69-.04c.69-.03,1.22-.05,1.59-.05,.72,0,1.44,.42,2.15,1.25l39.67,44.93c.64,.72,1.03,1.07,1.21,1.04,.28-.03,.44-.31,.47-.82v-21.35l.04-5.82-.51-9.92c-.29-2.44-1.01-4.18-2.14-5.19-1.13-1.02-3.17-1.78-6.14-2.27-.83-.14-1.25-.48-1.25-1.06,0-.53,.41-.8,1.25-.8,.37,0,.97,.05,1.81,.12,1.99,.2,4.65,.32,7.98,.32,1.78,0,3.2-.09,4.27-.26,.92-.17,1.63-.26,2.12-.26,.73,0,1.14,.3,1.2,.91,.03,.38-.26,.64-.87,.82-1.75,.43-2.91,1.15-3.47,2.15-.56,1.01-.83,2.89-.83,5.65v4.66l-.08,2.84Z"/><path class="uuid-bc3a1eee-61a3-4071-8db1-d56af5f2d0f0" d="M598.49,62.57c3.08,0,5.67,.45,7.8,1.34l2.98,1.25c.25,.12,.51,.17,.77,.17,.34,0,.69-.14,1.03-.43l.6-.51c.09-.12,.25-.17,.48-.17,.71-.03,1.07,.67,1.07,2.11,0,.49,.2,1.94,.57,4.35l.68,4.44c.15,.95,.22,1.54,.22,1.77,0,.89-.31,1.34-.91,1.34-.48,0-.95-.69-1.42-2.07-1.03-3.11-3.13-5.68-6.29-7.71-3.18-2.01-6.7-3.03-10.59-3.03-3.11,0-5.7,.92-7.77,2.74-2.08,1.83-3.12,4.11-3.12,6.84,0,2.43,.67,4.51,2.02,6.27,1.18,1.5,2.46,2.59,3.85,3.28,1.4,.69,4.81,1.94,10.27,3.75,10.63,3.47,15.93,9.18,15.93,17.11,0,5.37-1.95,9.77-5.86,13.19-3.91,3.42-8.93,5.12-15.05,5.12-2.22,0-4.65-.31-7.31-.95-2.66-.62-4.6-1.36-5.85-2.19-.52-.35-.86-.71-1.03-1.1-.17-.39-.42-1.39-.77-2.99-.06-.23-.42-1.54-1.09-3.93-.74-2.59-1.12-4.43-1.12-5.52,0-.86,.3-1.28,.88-1.25,.54,.03,1,.73,1.42,2.12,1.03,3.57,3.2,6.57,6.53,8.98,3.32,2.43,6.93,3.63,10.84,3.63s7.3-1.16,10.03-3.49c2.75-2.33,4.11-5.17,4.11-8.51s-1.27-5.88-3.79-8.07c-1.29-1.12-5.02-2.72-11.2-4.79-6.37-2.15-10.88-4.54-13.54-7.16-2.66-2.61-3.98-6-3.98-10.17,0-4.65,1.73-8.44,5.2-11.37,3.47-2.93,7.93-4.4,13.39-4.4Z"/><path class="uuid-bc3a1eee-61a3-4071-8db1-d56af5f2d0f0" d="M381.7,121.13c-2.73-.5-4.54-1.16-5.43-2.01-.9-.86-2.02-3.02-3.36-6.5l-.95-2.33-18.54-47.51c-.32-.83-.71-1.25-1.17-1.25s-.88,.43-1.25,1.29l-13.25,29.42-.96,2.15-7.95,17.66-1.25,2.84c-.63,1.32-1.44,2.6-2.42,3.82-.97,1.22-1.75,1.91-2.33,2.09l-1.58,.47c-.49,.15-.74,.46-.74,.93,0,.53,.39,.8,1.16,.8,.14,0,.94-.08,2.41-.25,.47-.03,1.11-.06,1.93-.06,1.81,0,3.4,.03,4.78,.11l4.12,.23c.67,.04,1.15,.05,1.47,.05,.83,0,1.24-.24,1.19-.71-.02-.51-.46-.85-1.33-1.01-1.99-.43-3.31-.95-3.99-1.55-.68-.62-1.01-1.59-1.01-2.94s.64-3.57,1.92-6.49l2.83-6.35,3.66-7.93c2.41,1.57,4.89,3.44,7.24,5.5,2,1.88,4.4,3.77,6.89,4.99,2.48,1.3,5.17,1.92,7.47,1.95,1.01,0,1.86-.14,2.65-.32l.25,.64c1.75,4.55,2.63,7.59,2.63,9.11,0,1.68-.72,2.66-2.15,2.94l-1.33,.3c-.72,.14-1.08,.44-1.08,.88,0,.59,.37,.88,1.12,.88,.28,0,.73-.06,1.33-.17,1.02-.17,3.51-.26,7.51-.26s6.47,.08,7.97,.22c.84,.06,1.38,.08,1.64,.08,.78,0,1.18-.24,1.21-.72,.03-.53-.4-.88-1.29-1.05Zm-20.05-15.57c-3.65-1.03-7.88-3.71-12.21-7.02-2.74-2.14-5.73-3.85-8.63-5.11l.71-1.73,7.72-17.13c.25-.57,.48-.85,.68-.82,.39,.03,.78,.51,1.12,1.43l.35,.9,6.77,17.07,.22,.78,2.95,7.77c.21,.42,.41,.87,.66,1.51l1.01,2.67c-.45-.1-.87-.17-1.35-.31Z"/><path class="uuid-bc3a1eee-61a3-4071-8db1-d56af5f2d0f0" d="M277.65,197.61h2.07c1.64,0,2.86,.43,3.65,1.3,.8,.87,1.2,1.85,1.2,2.97s-.41,2.11-1.24,2.97c-.83,.86-2.03,1.29-3.6,1.29h-2.08v-8.53Zm1.16,1.14v6.24h.07c.87,0,1.52-.04,1.95-.12,.44-.08,.85-.25,1.25-.51,.39-.26,.7-.61,.94-1.05,.23-.43,.35-.91,.35-1.43,0-.66-.18-1.25-.56-1.78-.37-.53-.81-.89-1.33-1.07-.51-.18-1.21-.27-2.08-.27h-.59Z"/><path class="uuid-bc3a1eee-61a3-4071-8db1-d56af5f2d0f0" d="M288.5,201.83c0-1.23,.46-2.29,1.39-3.16,.93-.88,2.04-1.32,3.35-1.32s2.37,.44,3.29,1.33c.92,.88,1.38,1.94,1.38,3.15,0,1.29-.45,2.38-1.36,3.27-.91,.89-2.02,1.33-3.34,1.33s-2.41-.45-3.33-1.34c-.91-.9-1.37-1.98-1.37-3.26Zm8.17,.05c0-.94-.34-1.73-1.02-2.38-.68-.65-1.51-.97-2.5-.97s-1.75,.33-2.42,.98c-.67,.66-1.01,1.44-1.01,2.36s.34,1.72,1.03,2.36c.69,.64,1.53,.97,2.53,.97,.92,0,1.71-.33,2.38-.99,.67-.66,1-1.44,1-2.34Z"/><path class="uuid-bc3a1eee-61a3-4071-8db1-d56af5f2d0f0" d="M302.28,197.63h1.16v5.24c0,.78,.19,1.38,.56,1.8,.37,.42,.9,.64,1.58,.64s1.21-.2,1.58-.59c.38-.39,.57-.94,.57-1.65v-5.44h1.16v5.36c0,1.04-.3,1.88-.89,2.5s-1.39,.94-2.38,.94-1.82-.32-2.43-.95c-.61-.63-.91-1.57-.91-2.8v-5.05Z"/><path class="uuid-bc3a1eee-61a3-4071-8db1-d56af5f2d0f0" d="M321.83,198.98l-.86,.85c-.87-.85-1.88-1.28-3.02-1.28-1,0-1.83,.32-2.5,.96-.67,.64-1,1.44-1,2.41,0,.84,.32,1.6,.97,2.28,.64,.67,1.53,1.01,2.67,1.01,1.7,0,2.77-.74,3.21-2.22h-2.3v-1.16h3.63c0,.58-.04,1.05-.12,1.4-.08,.35-.24,.73-.49,1.15-.25,.42-.57,.79-.98,1.13-.41,.33-.85,.57-1.31,.71-.47,.14-1.02,.21-1.67,.21-1.47,0-2.65-.46-3.52-1.39-.88-.92-1.32-1.98-1.32-3.17,0-1.25,.45-2.32,1.35-3.2,.9-.88,1.98-1.32,3.26-1.32,.76,0,1.45,.11,2.08,.34,.63,.23,1.27,.66,1.92,1.29Z"/><path class="uuid-bc3a1eee-61a3-4071-8db1-d56af5f2d0f0" d="M327.13,197.61h1.15v7.37h2.78v1.15h-3.93v-8.53Z"/><path class="uuid-bc3a1eee-61a3-4071-8db1-d56af5f2d0f0" d="M338.66,197.29l4.03,8.85h-1.22l-.99-2.18h-3.62l-.98,2.18h-1.21l3.99-8.85Zm0,2.66l-1.36,3.04h2.74l-1.38-3.04Z"/><path class="uuid-bc3a1eee-61a3-4071-8db1-d56af5f2d0f0" d="M351.67,198.56l-.94,.76c-.25-.26-.47-.45-.68-.58-.2-.13-.49-.19-.88-.19-.42,0-.76,.09-1.02,.28-.26,.19-.39,.43-.39,.73,0,.26,.11,.49,.34,.68s.62,.41,1.16,.65c.55,.23,.97,.45,1.28,.66,.3,.2,.56,.43,.75,.67,.2,.25,.34,.5,.44,.77,.1,.27,.14,.56,.14,.86,0,.71-.26,1.31-.77,1.81-.51,.5-1.14,.75-1.87,.75s-1.34-.2-1.89-.59c-.55-.39-.97-.98-1.26-1.76l1.17-.33c.42,.96,1.07,1.44,1.95,1.44,.42,0,.78-.13,1.06-.38,.28-.25,.42-.57,.42-.96,0-.23-.07-.46-.22-.7-.15-.23-.33-.43-.55-.58-.22-.15-.57-.33-1.04-.52-.48-.2-.85-.38-1.1-.54-.26-.16-.48-.36-.67-.58-.19-.23-.33-.45-.41-.67-.09-.22-.13-.46-.13-.72,0-.61,.25-1.13,.74-1.56,.49-.43,1.09-.64,1.79-.64,.46,0,.93,.1,1.41,.3,.48,.2,.87,.51,1.19,.92Z"/><path class="uuid-bc3a1eee-61a3-4071-8db1-d56af5f2d0f0" d="M369.47,197.91v1.32c-.92-.45-1.77-.68-2.54-.68-.99,0-1.83,.32-2.5,.96-.68,.64-1.02,1.43-1.02,2.36s.35,1.74,1.04,2.38c.69,.64,1.56,.95,2.61,.95,.76,0,1.56-.24,2.41-.72v1.33c-.77,.41-1.61,.62-2.51,.62-1.32,0-2.45-.45-3.39-1.34-.94-.89-1.41-1.97-1.41-3.23s.46-2.3,1.38-3.18c.92-.88,2.03-1.32,3.33-1.32,.83,0,1.7,.19,2.59,.56Z"/><path class="uuid-bc3a1eee-61a3-4071-8db1-d56af5f2d0f0" d="M373.26,201.83c0-1.23,.46-2.29,1.39-3.16,.93-.88,2.04-1.32,3.35-1.32s2.37,.44,3.29,1.33c.92,.88,1.38,1.94,1.38,3.15,0,1.29-.45,2.38-1.36,3.27-.91,.89-2.02,1.33-3.34,1.33s-2.41-.45-3.33-1.34c-.91-.9-1.37-1.98-1.37-3.26Zm8.16,.05c0-.94-.34-1.73-1.02-2.38-.68-.65-1.51-.97-2.5-.97s-1.75,.33-2.42,.98c-.67,.66-1.01,1.44-1.01,2.36s.35,1.72,1.03,2.36c.69,.64,1.53,.97,2.53,.97,.92,0,1.71-.33,2.38-.99,.67-.66,1-1.44,1-2.34Z"/><path class="uuid-bc3a1eee-61a3-4071-8db1-d56af5f2d0f0" d="M387.04,197.63h1.17v5.24c0,.78,.19,1.38,.56,1.8,.37,.42,.9,.64,1.58,.64s1.21-.2,1.58-.59c.38-.39,.56-.94,.56-1.65v-5.44h1.16v5.36c0,1.04-.3,1.88-.89,2.5-.6,.62-1.39,.94-2.38,.94s-1.82-.32-2.43-.95c-.61-.63-.91-1.57-.91-2.8v-5.05Z"/><path class="uuid-bc3a1eee-61a3-4071-8db1-d56af5f2d0f0" d="M398.42,197.27l6.3,6.48v-6.14h1.16v8.92l-6.3-6.45v6.06h-1.16v-8.87Z"/><path class="uuid-bc3a1eee-61a3-4071-8db1-d56af5f2d0f0" d="M409.94,197.61h5.21v1.17h-2.04v7.36h-1.15v-7.36h-2.03v-1.17Z"/><path class="uuid-bc3a1eee-61a3-4071-8db1-d56af5f2d0f0" d="M418.99,197.61h1.29l2.09,3.43,2.07-3.43h1.29l-2.8,4.62v3.91h-1.17v-3.9l-2.78-4.63Z"/><path class="uuid-bc3a1eee-61a3-4071-8db1-d56af5f2d0f0" d="M436.37,197.61h1.16v3.28h4.08v-3.28h1.15v8.53h-1.15v-4.1h-4.08v4.1h-1.16v-8.53Z"/><path class="uuid-bc3a1eee-61a3-4071-8db1-d56af5f2d0f0" d="M447.64,197.61h1.15v8.53h-1.15v-8.53Z"/><path class="uuid-bc3a1eee-61a3-4071-8db1-d56af5f2d0f0" d="M458.76,198.56l-.94,.76c-.25-.26-.47-.45-.68-.58-.2-.13-.49-.19-.88-.19-.42,0-.76,.09-1.02,.28-.26,.19-.39,.43-.39,.73,0,.26,.11,.49,.34,.68,.23,.2,.62,.41,1.16,.65,.55,.23,.97,.45,1.28,.66,.3,.2,.56,.43,.75,.67,.2,.25,.34,.5,.44,.77,.1,.27,.14,.56,.14,.86,0,.71-.26,1.31-.77,1.81-.51,.5-1.14,.75-1.87,.75s-1.34-.2-1.89-.59c-.55-.39-.97-.98-1.26-1.76l1.17-.33c.42,.96,1.07,1.44,1.95,1.44,.42,0,.78-.13,1.06-.38,.28-.25,.42-.57,.42-.96,0-.23-.07-.46-.22-.7-.15-.23-.33-.43-.55-.58-.22-.15-.57-.33-1.04-.52-.48-.2-.85-.38-1.1-.54-.26-.16-.48-.36-.67-.58-.19-.23-.33-.45-.41-.67-.09-.22-.13-.46-.13-.72,0-.61,.25-1.13,.74-1.56,.49-.43,1.09-.64,1.79-.64,.46,0,.93,.1,1.41,.3,.48,.2,.87,.51,1.19,.92Z"/><path class="uuid-bc3a1eee-61a3-4071-8db1-d56af5f2d0f0" d="M462.76,197.61h5.21v1.17h-2.04v7.36h-1.15v-7.36h-2.03v-1.17Z"/><path class="uuid-bc3a1eee-61a3-4071-8db1-d56af5f2d0f0" d="M471.38,201.83c0-1.23,.46-2.29,1.39-3.16,.93-.88,2.04-1.32,3.35-1.32s2.37,.44,3.29,1.33c.92,.88,1.38,1.94,1.38,3.15,0,1.29-.45,2.38-1.36,3.27-.91,.89-2.02,1.33-3.34,1.33s-2.41-.45-3.33-1.34c-.91-.9-1.37-1.98-1.37-3.26Zm8.16,.05c0-.94-.34-1.73-1.02-2.38-.68-.65-1.51-.97-2.5-.97s-1.75,.33-2.42,.98c-.67,.66-1.01,1.44-1.01,2.36s.35,1.72,1.03,2.36c.69,.64,1.53,.97,2.53,.97,.92,0,1.71-.33,2.38-.99,.67-.66,1-1.44,1-2.34Z"/><path class="uuid-bc3a1eee-61a3-4071-8db1-d56af5f2d0f0" d="M485.33,197.61h1.85c.92,0,1.67,.23,2.25,.69,.58,.46,.87,1.04,.87,1.76,0,.57-.19,1.08-.56,1.51-.37,.44-.96,.74-1.75,.92l2.48,3.65h-1.34l-2.37-3.51h-.26v3.51h-1.17v-8.53Zm1.17,1.03v2.97c1.72,.04,2.58-.46,2.58-1.49,0-.36-.1-.66-.3-.89-.2-.23-.47-.39-.8-.47-.33-.08-.83-.12-1.47-.12Z"/><path class="uuid-bc3a1eee-61a3-4071-8db1-d56af5f2d0f0" d="M494.86,197.61h1.15v8.53h-1.15v-8.53Z"/><path class="uuid-bc3a1eee-61a3-4071-8db1-d56af5f2d0f0" d="M507.76,197.91v1.32c-.92-.45-1.77-.68-2.54-.68-.99,0-1.83,.32-2.5,.96-.68,.64-1.02,1.43-1.02,2.36s.35,1.74,1.04,2.38c.69,.64,1.56,.95,2.61,.95,.76,0,1.56-.24,2.41-.72v1.33c-.77,.41-1.61,.62-2.51,.62-1.32,0-2.45-.45-3.39-1.34-.94-.89-1.41-1.97-1.41-3.23s.46-2.3,1.38-3.18c.92-.88,2.03-1.32,3.33-1.32,.83,0,1.7,.19,2.59,.56Z"/><path class="uuid-bc3a1eee-61a3-4071-8db1-d56af5f2d0f0" d="M515.44,197.29l4.03,8.85h-1.22l-.99-2.18h-3.62l-.98,2.18h-1.21l3.99-8.85Zm0,2.66l-1.36,3.04h2.74l-1.38-3.04Z"/><path class="uuid-bc3a1eee-61a3-4071-8db1-d56af5f2d0f0" d="M523.52,197.61h1.15v7.37h2.78v1.15h-3.93v-8.53Z"/><path class="uuid-bc3a1eee-61a3-4071-8db1-d56af5f2d0f0" d="M543.09,198.56l-.94,.76c-.25-.26-.47-.45-.68-.58-.2-.13-.49-.19-.88-.19-.42,0-.76,.09-1.02,.28-.26,.19-.39,.43-.39,.73,0,.26,.11,.49,.34,.68,.23,.2,.62,.41,1.16,.65,.55,.23,.97,.45,1.28,.66s.56,.43,.75,.67c.2,.25,.34,.5,.44,.77,.1,.27,.14,.56,.14,.86,0,.71-.26,1.31-.77,1.81-.51,.5-1.14,.75-1.87,.75s-1.34-.2-1.89-.59c-.55-.39-.97-.98-1.26-1.76l1.17-.33c.42,.96,1.07,1.44,1.95,1.44,.42,0,.78-.13,1.06-.38,.28-.25,.42-.57,.42-.96,0-.23-.07-.46-.22-.7-.15-.23-.33-.43-.55-.58-.22-.15-.57-.33-1.04-.52-.48-.2-.85-.38-1.1-.54-.26-.16-.48-.36-.67-.58-.19-.23-.33-.45-.41-.67-.09-.22-.13-.46-.13-.72,0-.61,.25-1.13,.74-1.56,.49-.43,1.09-.64,1.79-.64,.46,0,.93,.1,1.41,.3,.48,.2,.87,.51,1.19,.92Z"/><path class="uuid-bc3a1eee-61a3-4071-8db1-d56af5f2d0f0" d="M547.18,201.83c0-1.23,.46-2.29,1.39-3.16,.93-.88,2.04-1.32,3.35-1.32s2.37,.44,3.29,1.33c.92,.88,1.38,1.94,1.38,3.15,0,1.29-.45,2.38-1.36,3.27-.91,.89-2.02,1.33-3.34,1.33s-2.41-.45-3.33-1.34c-.91-.9-1.37-1.98-1.37-3.26Zm8.16,.05c0-.94-.34-1.73-1.02-2.38-.68-.65-1.51-.97-2.5-.97s-1.75,.33-2.42,.98c-.67,.66-1.01,1.44-1.01,2.36s.35,1.72,1.03,2.36c.69,.64,1.53,.97,2.53,.97,.92,0,1.71-.33,2.38-.99,.67-.66,1-1.44,1-2.34Z"/><path class="uuid-bc3a1eee-61a3-4071-8db1-d56af5f2d0f0" d="M567.88,197.91v1.32c-.92-.45-1.77-.68-2.54-.68-.99,0-1.83,.32-2.5,.96-.68,.64-1.02,1.43-1.02,2.36s.35,1.74,1.04,2.38c.69,.64,1.56,.95,2.61,.95,.76,0,1.56-.24,2.41-.72v1.33c-.77,.41-1.61,.62-2.51,.62-1.32,0-2.45-.45-3.39-1.34-.94-.89-1.41-1.97-1.41-3.23s.46-2.3,1.38-3.18c.92-.88,2.03-1.32,3.33-1.32,.83,0,1.7,.19,2.59,.56Z"/><path class="uuid-bc3a1eee-61a3-4071-8db1-d56af5f2d0f0" d="M572.34,197.61h1.15v8.53h-1.15v-8.53Z"/><path class="uuid-bc3a1eee-61a3-4071-8db1-d56af5f2d0f0" d="M578.35,197.61h4.72v1.17h-3.57v2.13h3.57v1.15h-3.57v2.93h3.57v1.15h-4.72v-8.53Z"/><path class="uuid-bc3a1eee-61a3-4071-8db1-d56af5f2d0f0" d="M586.93,197.61h5.21v1.17h-2.04v7.36h-1.15v-7.36h-2.03v-1.17Z"/><path class="uuid-bc3a1eee-61a3-4071-8db1-d56af5f2d0f0" d="M595.98,197.61h1.29l2.09,3.43,2.07-3.43h1.29l-2.8,4.62v3.91h-1.17v-3.9l-2.78-4.63Z"/><g><path class="uuid-bc3a1eee-61a3-4071-8db1-d56af5f2d0f0" d="M445.75,154.49c0,2.42-.73,4.52-2.19,6.3-1.46,1.79-3.38,2.68-5.76,2.68-1.58,0-2.93-.64-4.06-1.91-1.14-1.26-1.71-2.91-1.71-4.92,0-2.37,.73-4.42,2.18-6.14,1.45-1.72,3.39-2.57,5.81-2.57,1.59,0,2.95,.59,4.06,1.78,1.12,1.18,1.68,2.77,1.68,4.77Zm-2.56,.44c0-1.4-.32-2.61-.95-3.6-.64-.99-1.56-1.49-2.76-1.49-1.49,0-2.68,.7-3.58,2.1-.89,1.4-1.33,2.91-1.33,4.55,0,1.4,.32,2.6,.97,3.6,.65,1,1.57,1.49,2.79,1.49,1.47,0,2.65-.7,3.54-2.09,.89-1.4,1.33-2.92,1.33-4.55Z"/><path class="uuid-bc3a1eee-61a3-4071-8db1-d56af5f2d0f0" d="M457.61,141.52l-.47,1.89c-.54-.07-1.1-.1-1.67-.1-.89,0-1.53,.37-1.92,1.11-.38,.75-.7,2.24-.94,4.48,.94,0,2.26-.05,3.97-.15l-.3,2.24c-1.84-.06-3.13-.09-3.86-.09-.27,3.68-.54,7.11-.78,10.31-.24,3.19-.74,5.3-1.49,6.33-.75,1.03-1.78,1.74-3.08,2.11l-.6-1.17c.93-.76,1.59-1.63,1.97-2.61,.39-.97,.72-2.84,.99-5.6,.27-2.76,.53-5.88,.8-9.36-.58,0-1.6,.03-3.05,.09l.35-2.21c1.3,.08,2.27,.12,2.92,.12,.28-2.62,.83-4.55,1.66-5.77,.83-1.22,2.07-1.83,3.72-1.83,.58,0,1.17,.07,1.79,.23Z"/><path class="uuid-bc3a1eee-61a3-4071-8db1-d56af5f2d0f0" d="M299.02,145.17c-.97,1.7-1.62,2.88-1.94,3.54l-1.52,3.27-1.75,3.59c-.09,.21-.57,1.28-1.44,3.22-.35,.8-.66,1.46-.93,1.97-.15,.31-.25,.52-.31,.65-.22,.54-.47,.81-.73,.81s-.53-.28-.78-.84c-.04-.1-.2-.42-.48-.94l-.34-.72-6.44-13.89-.39,8.48c-.03,.7-.05,2.09-.05,4.18s.7,3.12,2.12,3.34c.7,.11,1.05,.28,1.05,.51,0,.26-.17,.38-.5,.38-.22,0-.43,0-.63-.03-1.28-.12-2.27-.17-2.96-.17-.83,0-1.63,.05-2.39,.15-.22,.04-.41,.05-.53,.05-.34,0-.51-.12-.51-.37,0-.19,.14-.31,.41-.37,.83-.2,1.42-.58,1.75-1.17,.33-.58,.53-1.58,.6-2.98l.24-4.97c.17-3.6,.26-5.87,.26-6.82,0-2.04-.27-3.54-.81-4.52-.54-.97-1.43-1.58-2.69-1.8-.34-.06-.51-.2-.51-.42,0-.25,.14-.37,.43-.37,.1,0,.29,.01,.56,.03,.16,.02,.55,.04,1.17,.04,.94,0,1.53-.01,1.78-.04,.26-.03,.48-.05,.64-.05,.49,0,.9,.36,1.23,1.08l.19,.39,7.14,15.4,.87,1.76c.12,.3,.21,.45,.27,.45,.07,0,.15-.11,.26-.32l.21-.46,.15-.34,8.04-17.24c.17-.37,.3-.59,.39-.68,.09-.08,.23-.13,.45-.13,.09,0,.34,.02,.75,.07,.15,.01,.34,.02,.57,.02,.72,0,1.29-.02,1.73-.07,.21-.01,.37-.02,.5-.03,.23-.01,.34,.1,.34,.33,0,.21-.11,.35-.34,.4l-.74,.19c-.58,.14-.99,.49-1.22,1.07-.24,.58-.35,1.52-.35,2.84l.1,4.13,.32,9.31,.09,2.16c0,.87,.16,1.49,.48,1.87,.32,.38,.9,.63,1.75,.75,.6,.09,.91,.24,.91,.45s-.21,.33-.63,.33c-.13,0-.27,0-.43-.02l-1.33-.14c-.45-.05-.92-.07-1.43-.07-.35,0-.91,.03-1.68,.08-1.18,.06-1.87,.09-2.05,.09-.33,0-.5-.1-.5-.3,0-.18,.15-.31,.43-.39,.67-.18,1.13-.48,1.35-.89,.23-.41,.34-1.14,.34-2.16l-.07-2.79-.45-10.89Z"/><path class="uuid-bc3a1eee-61a3-4071-8db1-d56af5f2d0f0" d="M327.84,152.54v-8.86c0-1.43-.21-2.46-.62-3.1-.41-.65-1.11-1.01-2.09-1.11-.33-.03-.49-.16-.49-.37,0-.24,.11-.36,.34-.35,.25,.01,.61,.06,1.09,.14,.43,.07,.95,.11,1.55,.11,1.28,0,2.06-.02,2.36-.05,.4-.03,.65-.05,.75-.05,.22,0,.33,.1,.33,.3,0,.17-.12,.3-.36,.4-.7,.29-1.14,.69-1.35,1.2-.2,.51-.31,1.48-.31,2.91v8.48c0,3.11-.62,5.51-1.86,7.19-.79,1.06-1.92,1.91-3.38,2.54-1.47,.63-3.04,.95-4.7,.95-1.94,0-3.69-.38-5.24-1.13-1.55-.76-2.69-1.78-3.41-3.06-.81-1.48-1.22-3.42-1.22-5.8v-8.7l-.03-.98c0-1.22-.17-2.06-.5-2.52-.34-.46-1.02-.77-2.03-.91-.3-.05-.46-.17-.46-.35,0-.27,.21-.4,.65-.4,.29,0,.68,0,1.18,.03,.53,.04,.91,.05,1.15,.05l1.32-.02h1.3c.14,0,.46-.02,.96-.07,.42-.04,.71-.05,.87-.05,.26,0,.39,.09,.39,.27,0,.21-.18,.35-.55,.41-.66,.15-1.11,.44-1.33,.87-.22,.43-.33,1.2-.33,2.3l.04,1.13v8.62c0,2.95,.45,5.04,1.37,6.3,1.29,1.78,3.46,2.67,6.49,2.67,2.72,0,4.76-.75,6.11-2.23,1.35-1.49,2.02-3.73,2.02-6.74Z"/><path class="uuid-bc3a1eee-61a3-4071-8db1-d56af5f2d0f0" d="M341.17,138.58c1.22,0,2.25,.18,3.1,.53l1.18,.5c.1,.04,.2,.07,.31,.07,.14,0,.27-.06,.41-.17l.24-.2s.1-.07,.19-.07c.29-.01,.43,.27,.43,.84,0,.19,.07,.77,.22,1.72l.27,1.77c.06,.38,.09,.61,.09,.7,0,.35-.13,.53-.37,.53-.19,0-.37-.27-.56-.83-.41-1.23-1.25-2.25-2.5-3.06-1.26-.8-2.66-1.2-4.21-1.2-1.23,0-2.26,.36-3.08,1.09-.83,.73-1.24,1.63-1.24,2.72,0,.96,.27,1.79,.8,2.49,.47,.59,.98,1.03,1.53,1.3,.56,.27,1.91,.77,4.08,1.49,4.22,1.38,6.33,3.64,6.33,6.79,0,2.13-.78,3.88-2.33,5.24-1.55,1.35-3.54,2.03-5.97,2.03-.88,0-1.85-.12-2.9-.38-1.06-.25-1.83-.54-2.32-.87-.21-.14-.35-.28-.41-.44-.07-.16-.17-.55-.31-1.19-.02-.09-.16-.61-.43-1.56-.3-1.03-.45-1.76-.45-2.19,0-.34,.12-.51,.35-.49,.21,0,.4,.29,.56,.84,.41,1.42,1.28,2.61,2.6,3.57,1.32,.96,2.76,1.44,4.31,1.44s2.9-.46,3.98-1.39c1.09-.93,1.64-2.05,1.64-3.38s-.5-2.34-1.51-3.21c-.51-.45-1.99-1.08-4.45-1.9-2.53-.86-4.32-1.8-5.37-2.84-1.06-1.04-1.58-2.38-1.58-4.04,0-1.85,.69-3.35,2.06-4.52,1.38-1.16,3.15-1.75,5.32-1.75Z"/><path class="uuid-bc3a1eee-61a3-4071-8db1-d56af5f2d0f0" d="M356.25,141.72v6.91c0,.53,.05,.84,.14,.95,.1,.11,.39,.16,.88,.16h2.64c1.2,0,2.14-.07,2.84-.21,.62-.12,1.01-.29,1.2-.49,.18-.21,.35-.69,.5-1.44,.06-.29,.2-.42,.44-.41,.22,0,.33,.16,.33,.46,0,.08,0,.2-.01,.37-.1,1.1-.15,2.12-.15,3.03,0,.69,.03,1.38,.1,2.07,.02,.23,.03,.39,.03,.49,0,.29-.11,.43-.33,.43-.25,0-.4-.12-.44-.37l-.1-.48c-.14-.76-.41-1.28-.82-1.56-.41-.27-1.11-.41-2.09-.41h-3.77c-.56,0-.93,.06-1.12,.17-.19,.11-.29,.34-.29,.69l.02,.57v6.31c0,.97,.17,1.58,.52,1.82,.35,.24,1.23,.36,2.64,.36,4.48,0,7.36-1.01,8.63-3.03,.13-.19,.26-.3,.39-.31,.21,0,.31,.14,.31,.44,0,.74-.42,1.63-1.25,2.65-1,1.23-2.27,1.84-3.8,1.84-.34,0-.78-.03-1.33-.07-2.18-.21-3.99-.31-5.41-.31-2,0-3.41,.07-4.23,.2-.43,.08-.73,.12-.89,.12-.36,0-.54-.12-.54-.37,0-.19,.15-.33,.44-.4l.66-.19c.82-.23,1.23-1.03,1.23-2.4l.02-1.11v-14.49c0-1.64-.18-2.74-.54-3.31-.36-.56-1.06-.85-2.1-.85-.33,0-.5-.11-.5-.32,0-.31,.26-.47,.77-.47,.29,0,.67,.03,1.15,.08,1.63,.18,3.59,.28,5.89,.28,1.39,0,2.62-.02,3.69-.07l2.43-.12c.67-.02,1.08-.04,1.23-.07,.31-.04,.54-.07,.68-.07,.38,0,.57,.17,.57,.49,0,.1-.02,.23-.05,.4-.04,.16-.08,.61-.14,1.36l-.07,1.01c-.06,.66-.11,1.07-.17,1.24-.06,.16-.19,.25-.39,.26-.22,.01-.33-.16-.33-.51v-.44c0-.36-.07-.71-.2-1.04-.22-.51-.65-.86-1.31-1.03-.66-.17-1.88-.26-3.64-.26h-2.68c-.71,0-1.17,.09-1.37,.27-.21,.18-.31,.57-.31,1.18Z"/><path class="uuid-bc3a1eee-61a3-4071-8db1-d56af5f2d0f0" d="M391.7,152.54v-8.86c0-1.43-.21-2.46-.62-3.1-.41-.65-1.11-1.01-2.09-1.11-.33-.03-.5-.16-.5-.37,0-.24,.12-.36,.34-.35,.25,.01,.61,.06,1.09,.14,.43,.07,.95,.11,1.55,.11,1.28,0,2.06-.02,2.36-.05,.4-.03,.65-.05,.75-.05,.22,0,.33,.1,.33,.3,0,.17-.12,.3-.36,.4-.7,.29-1.15,.69-1.35,1.2-.21,.51-.31,1.48-.31,2.91v8.48c0,3.11-.62,5.51-1.86,7.19-.79,1.06-1.92,1.91-3.39,2.54-1.46,.63-3.03,.95-4.7,.95-1.94,0-3.69-.38-5.24-1.13-1.55-.76-2.69-1.78-3.41-3.06-.81-1.48-1.21-3.42-1.21-5.8v-8.7l-.03-.98c0-1.22-.18-2.06-.51-2.52-.34-.46-1.01-.77-2.02-.91-.31-.05-.47-.17-.47-.35,0-.27,.22-.4,.65-.4,.29,0,.68,0,1.18,.03,.53,.04,.91,.05,1.15,.05l1.32-.02h1.3c.14,0,.46-.02,.96-.07,.42-.04,.71-.05,.88-.05,.26,0,.39,.09,.39,.27,0,.21-.18,.35-.55,.41-.66,.15-1.11,.44-1.33,.87-.22,.43-.33,1.2-.33,2.3l.04,1.13v8.62c0,2.95,.46,5.04,1.37,6.3,1.29,1.78,3.46,2.67,6.5,2.67,2.72,0,4.75-.75,6.1-2.23,1.36-1.49,2.03-3.73,2.03-6.74Z"/><path class="uuid-bc3a1eee-61a3-4071-8db1-d56af5f2d0f0" d="M418.87,145.17c-.97,1.7-1.62,2.88-1.94,3.54l-1.52,3.27-1.75,3.59c-.09,.21-.57,1.28-1.44,3.22-.35,.8-.67,1.46-.93,1.97-.15,.31-.25,.52-.31,.65-.22,.54-.46,.81-.72,.81-.27,0-.54-.28-.78-.84-.05-.1-.21-.42-.48-.94l-.34-.72-6.44-13.89-.39,8.48c-.04,.7-.05,2.09-.05,4.18s.71,3.12,2.12,3.34c.7,.11,1.04,.28,1.04,.51,0,.26-.17,.38-.5,.38-.22,0-.43,0-.63-.03-1.28-.12-2.27-.17-2.96-.17-.83,0-1.63,.05-2.39,.15-.23,.04-.41,.05-.53,.05-.34,0-.51-.12-.51-.37,0-.19,.14-.31,.41-.37,.83-.2,1.41-.58,1.75-1.17,.33-.58,.53-1.58,.6-2.98l.24-4.97c.17-3.6,.26-5.87,.26-6.82,0-2.04-.27-3.54-.8-4.52-.54-.97-1.43-1.58-2.69-1.8-.34-.06-.51-.2-.51-.42,0-.25,.14-.37,.43-.37,.1,0,.29,.01,.56,.03,.16,.02,.55,.04,1.17,.04,.94,0,1.53-.01,1.78-.04,.26-.03,.48-.05,.64-.05,.49,0,.9,.36,1.23,1.08l.19,.39,7.14,15.4,.87,1.76c.12,.3,.21,.45,.27,.45,.07,0,.15-.11,.26-.32l.21-.46,.15-.34,8.04-17.24c.17-.37,.3-.59,.39-.68,.09-.08,.23-.13,.45-.13,.09,0,.34,.02,.75,.07,.15,.01,.34,.02,.57,.02,.72,0,1.3-.02,1.73-.07,.21-.01,.37-.02,.5-.03,.23-.01,.34,.1,.34,.33,0,.21-.11,.35-.34,.4l-.74,.19c-.58,.14-.99,.49-1.22,1.07-.23,.58-.35,1.52-.35,2.84l.1,4.13,.33,9.31,.09,2.16c0,.87,.16,1.49,.48,1.87,.32,.38,.9,.63,1.75,.75,.6,.09,.91,.24,.91,.45s-.21,.33-.63,.33c-.13,0-.27,0-.43-.02l-1.33-.14c-.44-.05-.93-.07-1.43-.07-.36,0-.91,.03-1.68,.08-1.19,.06-1.87,.09-2.05,.09-.33,0-.5-.1-.5-.3,0-.18,.15-.31,.43-.39,.67-.18,1.12-.48,1.36-.89,.22-.41,.34-1.14,.34-2.16l-.07-2.79-.45-10.89Z"/></g><g><path class="uuid-bc3a1eee-61a3-4071-8db1-d56af5f2d0f0" d="M471.47,149.71h10.17c.51,0,.83-.05,.96-.14,.14-.09,.21-.3,.21-.62v-5.9c0-1.19-.15-2.03-.46-2.53-.3-.49-.87-.84-1.68-1.02-.34-.06-.51-.2-.5-.4,.01-.19,.16-.28,.43-.28,.24,0,.63,.03,1.17,.08,.76,.08,1.56,.12,2.42,.12,1.22,0,2.09-.03,2.58-.1,.31-.05,.52-.07,.64-.07,.28,0,.41,.11,.41,.34,0,.17-.14,.3-.41,.35l-.71,.15c-.36,.07-.65,.33-.89,.77-.24,.44-.36,.95-.36,1.52v16.67c0,1.23,.17,2.08,.52,2.55,.34,.47,1,.76,1.98,.86,.36,.05,.54,.16,.55,.34,.02,.27-.14,.4-.48,.4-.23,0-.53-.03-.89-.08-.28-.05-.85-.07-1.72-.07l-1.28-.02-1.29,.03c-.21,0-.49,.02-.83,.05-.71,.06-1.11,.08-1.19,.08-.28,.02-.43-.1-.41-.33,0-.21,.21-.33,.58-.39,1.21-.21,1.81-1.19,1.81-2.96l.02-.67v-6.33c0-.54-.05-.86-.16-.95-.1-.09-.45-.14-1.03-.14h-10.15c-.65,0-1.06,.06-1.22,.2-.16,.13-.24,.47-.24,1.01v6.32c0,1.2,.19,2.04,.57,2.52,.38,.48,1.08,.78,2.12,.9,.42,.05,.64,.19,.65,.44,.01,.24-.16,.35-.5,.35-.15,0-.43-.03-.85-.08-.31-.05-1-.08-2.07-.08h-1.45l-1.14,.02c-.29,0-.65,.02-1.08,.06-.6,.05-.96,.08-1.09,.08-.29,0-.43-.11-.43-.32s.15-.34,.44-.41l.86-.21c.5-.12,.85-.49,1.03-1.14,.18-.65,.28-1.78,.28-3.39v-14.83c0-1-.19-1.72-.57-2.17-.38-.45-1.06-.75-2.04-.9-.33-.05-.5-.17-.5-.37,0-.24,.15-.35,.45-.34,.22,.02,.56,.05,1.03,.11,.89,.1,1.95,.15,3.15,.15,.82,0,1.58-.05,2.29-.14,.31-.04,.55-.07,.72-.07,.33,0,.5,.12,.5,.35,0,.18-.15,.31-.47,.39-.77,.2-1.28,.48-1.55,.84-.27,.36-.4,.97-.4,1.83v6.17c0,.66,.06,1.05,.2,1.18,.13,.13,.55,.19,1.27,.19Z"/><path class="uuid-bc3a1eee-61a3-4071-8db1-d56af5f2d0f0" d="M496.45,144.07v12.92c0,1.61,.1,2.68,.29,3.2,.23,.58,.51,1,.85,1.24,.34,.24,.87,.42,1.59,.52,.57,.08,.86,.22,.86,.42,0,.27-.18,.41-.54,.41-.17,0-.39-.02-.65-.06-.36-.05-.96-.08-1.83-.08l-2.5-.04-2.03,.12c-.33,.03-.61,.05-.83,.05-.31,0-.47-.12-.47-.35,0-.2,.18-.33,.53-.39,.87-.15,1.44-.45,1.69-.9,.25-.46,.38-1.41,.38-2.88v-14.78c0-1.43-.16-2.39-.49-2.88-.33-.5-1.02-.83-2.09-1-.36-.07-.54-.2-.55-.41-.01-.25,.15-.37,.5-.37,.09,0,.2,0,.31,.02,.84,.1,1.96,.15,3.35,.15,.85,0,1.58-.02,2.19-.06l1.15-.1c.22-.01,.36-.02,.43-.02,.31,0,.47,.1,.47,.32s-.15,.36-.45,.46l-.9,.34c-.85,.32-1.27,1.7-1.27,4.13Z"/><path class="uuid-bc3a1eee-61a3-4071-8db1-d56af5f2d0f0" d="M509.67,138.58c1.23,0,2.27,.18,3.12,.54l1.19,.5c.1,.04,.21,.07,.31,.07,.14,0,.28-.06,.41-.17l.24-.2s.1-.07,.19-.07c.29,0,.43,.27,.43,.84,0,.2,.07,.78,.23,1.74l.28,1.77c.05,.38,.08,.61,.08,.71,0,.36-.13,.54-.37,.54-.19,0-.38-.28-.56-.83-.41-1.24-1.25-2.27-2.52-3.08-1.27-.8-2.68-1.21-4.23-1.21-1.24,0-2.27,.36-3.1,1.09-.83,.74-1.25,1.65-1.25,2.74,0,.97,.27,1.8,.81,2.5,.47,.6,.98,1.04,1.54,1.31,.55,.28,1.93,.78,4.1,1.5,4.25,1.39,6.37,3.67,6.37,6.84,0,2.15-.78,3.9-2.34,5.27-1.56,1.36-3.57,2.05-6.02,2.05-.88,0-1.86-.12-2.92-.38-1.06-.25-1.84-.54-2.33-.88-.21-.14-.35-.28-.41-.44-.07-.15-.17-.55-.31-1.2-.02-.09-.17-.62-.43-1.57-.3-1.03-.45-1.77-.45-2.2,0-.35,.12-.51,.35-.5,.22,.01,.4,.29,.57,.85,.41,1.43,1.28,2.63,2.61,3.59,1.33,.98,2.77,1.46,4.33,1.46s2.92-.46,4.01-1.4c1.1-.93,1.64-2.06,1.64-3.4s-.5-2.35-1.51-3.23c-.51-.45-2.01-1.09-4.47-1.92-2.55-.86-4.35-1.81-5.41-2.86-1.06-1.04-1.59-2.4-1.59-4.07,0-1.85,.69-3.37,2.08-4.54,1.38-1.17,3.17-1.76,5.35-1.76Z"/><path class="uuid-bc3a1eee-61a3-4071-8db1-d56af5f2d0f0" d="M536.73,140.84h-4.84c-.51,0-.83,.07-.96,.21-.13,.14-.2,.48-.2,1.02v16.92l.02,.68c.06,1.34,.81,2.14,2.26,2.4,.4,.07,.6,.19,.6,.39,0,.25-.16,.37-.48,.37-.13,0-.42-.03-.85-.1-.22-.04-.74-.05-1.55-.05l-1.26-.02-1.35,.02c-.49,0-.89,.01-1.23,.05-.66,.07-1.04,.1-1.16,.1-.35,0-.52-.12-.52-.37,0-.18,.19-.29,.57-.33,.89-.12,1.48-.36,1.8-.74,.31-.37,.46-1.04,.46-2.01v-17.56c-.01-.42-.08-.68-.2-.8-.12-.11-.4-.17-.84-.17h-4.57c-.93,0-1.61,.19-2.02,.56-.42,.37-.74,1.08-.97,2.11-.11,.45-.26,.67-.47,.66-.21-.01-.31-.17-.31-.46,0-.24,.07-.68,.21-1.33,.17-.82,.26-1.51,.26-2.05s.06-.87,.18-1.04c.12-.17,.38-.25,.77-.25h18.56c.63,0,1.01,.07,1.14,.21,.13,.14,.2,.55,.2,1.22s.03,1.17,.09,1.48c.06,.39,.09,.67,.1,.84,.01,.34-.11,.52-.36,.55-.21,0-.34-.17-.41-.54-.15-.82-.39-1.35-.72-1.59-.34-.25-.98-.37-1.95-.37Z"/><path class="uuid-bc3a1eee-61a3-4071-8db1-d56af5f2d0f0" d="M553.76,138.58c3.59,0,6.54,1.11,8.85,3.33,2.3,2.23,3.46,5.07,3.46,8.53,0,3.68-1.16,6.69-3.48,9.04-2.32,2.35-5.29,3.53-8.91,3.53s-6.71-1.13-9.01-3.37c-2.29-2.26-3.44-5.21-3.44-8.86,0-1.59,.3-3.15,.9-4.71,.6-1.55,1.42-2.86,2.44-3.9,1.08-1.1,2.45-1.98,4.1-2.62,1.66-.65,3.35-.98,5.09-.98Zm-1.11,1.12c-2.67,0-4.79,.9-6.36,2.69-1.57,1.8-2.35,4.21-2.35,7.25,0,3.48,1,6.4,3.01,8.79,2.01,2.39,4.48,3.58,7.39,3.58,2.67,0,4.87-.97,6.61-2.91,1.74-1.94,2.61-4.41,2.61-7.39,0-3.43-1.04-6.29-3.12-8.58-2.08-2.29-4.68-3.43-7.78-3.43Z"/><path class="uuid-bc3a1eee-61a3-4071-8db1-d56af5f2d0f0" d="M580.09,150.76l4.75,7.01,.55,.83c1.47,2.15,2.82,3.27,4.06,3.35l.55,.03c.2,.01,.31,.09,.29,.25-.01,.18-.27,.34-.77,.47-.5,.14-1.06,.21-1.7,.21-1.03,0-1.96-.28-2.78-.85-.82-.57-1.66-1.5-2.51-2.78l-4.29-6.55-.24-.38c-.28-.47-.72-.7-1.34-.7h-2.29l-.38,.07c-.14,.08-.21,.27-.21,.55v5.39l.02,.7c0,.99,.05,1.67,.14,2.03,.1,.37,.33,.69,.7,.98,.49,.39,1.26,.64,2.29,.75,.42,.04,.63,.17,.64,.39,.02,.22-.17,.34-.57,.34-.16,0-.5-.03-1.01-.08-.47-.04-1.2-.07-2.19-.07l-1.65-.02h-.9c-.39,.01-.86,.04-1.42,.1-.45,.04-.76,.07-.93,.07-.29,0-.43-.12-.43-.35,0-.17,.14-.28,.43-.34,.92-.17,1.52-.59,1.81-1.25,.29-.66,.43-1.96,.43-3.91v-12.39l-.04-1.8c0-1.8-.62-2.8-1.88-3.01l-.81-.12c-.37-.07-.55-.2-.55-.4,0-.24,.2-.36,.59-.36,.09,0,.5,.02,1.21,.07,.41,.04,.92,.05,1.53,.05,.53,0,1.43-.04,2.71-.12,.92-.05,1.73-.08,2.43-.08,2.64,0,4.64,.49,5.98,1.49,1.35,.99,2.02,2.47,2.02,4.44,0,2.59-1.42,4.59-4.25,6Zm-5.07-.37h1.95c1.5,0,2.69-.41,3.55-1.24,.86-.83,1.3-1.97,1.3-3.41,0-1.67-.59-3.05-1.76-4.13-1.17-1.07-2.67-1.61-4.49-1.61-.68,0-1.15,.11-1.41,.33-.26,.23-.39,.63-.39,1.22l.02,.57v7.03c0,.54,.07,.88,.22,1.03,.14,.14,.49,.22,1.01,.22Z"/><path class="uuid-bc3a1eee-61a3-4071-8db1-d56af5f2d0f0" d="M598.46,159.05c0,1.33,.11,2.15,.33,2.45,.22,.3,.85,.5,1.88,.61,.36,.03,.53,.15,.53,.35,0,.27-.2,.4-.6,.4-.13,0-.43-.03-.9-.09-.29-.04-.71-.07-1.26-.1l-1.37-.07-1.35,.04c-.85,0-1.42,.02-1.71,.06-.33,.05-.55,.08-.65,.08-.27,0-.4-.09-.4-.29,0-.22,.19-.36,.57-.42,.97-.14,1.57-.4,1.83-.77,.26-.38,.39-1.18,.39-2.41v-5.89c.01-.73-.04-1.28-.14-1.62-.1-.34-.36-.83-.76-1.46l-4.81-7.65-.59-.95c-.33-.54-.8-.98-1.41-1.32-.61-.34-1.21-.51-1.81-.51-.33,0-.5-.1-.5-.31,0-.25,.18-.38,.53-.38,.29,0,.58,.02,.88,.06,.75,.09,1.53,.13,2.34,.13,1.69,0,2.76-.03,3.23-.08,.51-.05,.81-.08,.91-.08,.33,0,.5,.11,.5,.34,0,.17-.14,.29-.4,.37-.77,.23-1.15,.62-1.15,1.17,0,.3,.25,.85,.74,1.66l.49,.83,3.62,5.7,.23,.34c.1,.16,.21,.24,.31,.24,.12,0,.25-.08,.36-.24l.17-.26,2.49-3.78,.84-1.35c.81-1.27,1.21-2.13,1.21-2.56,0-.77-.72-1.32-2.17-1.67-.29-.07-.43-.2-.41-.4,0-.19,.14-.29,.4-.29,.17,0,.47,.03,.91,.1,.34,.05,1.14,.08,2.42,.08,1.18,0,1.93-.02,2.25-.05,.44-.05,.74-.07,.92-.09,.31-.02,.47,.08,.47,.3,0,.18-.14,.32-.43,.4-1.02,.33-1.87,.98-2.55,1.93l-1.12,1.67-4.19,6.25-.41,.59c-.44,.62-.66,1.19-.66,1.71v7.21Z"/></g></svg>