<?xml version="1.0" encoding="UTF-8"?><svg id="uuid-096edf63-2ac1-4bf7-b170-deb0e4499556" xmlns="http://www.w3.org/2000/svg" viewBox="0 0 1280 686"><defs><style>.uuid-7e13fcd3-2c29-4ff4-82eb-424bfb56a899,.uuid-ef93ab7d-f3fc-4d45-b2f6-99a11051dfd3{stroke-width:0px;}.uuid-ef93ab7d-f3fc-4d45-b2f6-99a11051dfd3{fill:#fff;}</style></defs><path class="uuid-7e13fcd3-2c29-4ff4-82eb-424bfb56a899" d="m545.59,420.479c-.36.2-.89.14-1.22.37-1.16.8-2.27,1.68-3.8,1.36-.12-.02-.27-.58-.18-.8.7-1.68,2.45-1.86,3.83-2.55.34-.17.9-.03,1.31.11.19.06.25.48.36.74-.1.27-.13.66-.32.77h.02Zm10.88,80.19c-.77-.12-1.91.67-2.24-.67-.08-.32.29-1.06.46-1.06.77,0,1.55.18,2.59.33-.42.74-.67,1.42-.81,1.4h0Z"/><path class="uuid-7e13fcd3-2c29-4ff4-82eb-424bfb56a899" d="m1266.86,653.412c.01-2.52.18-5.04-1.65-7.16-.2-.24.06-1.34.33-1.44,4.35-.49,1.42-24.19,1.52-31.37-.49-40.47-1.06-80.98-1.18-121.51-2.71-90.09,2.71-181.59-3.03-271.08-2.22-3.95-7.97-2.05-11.65-3.93-4.59-2.58-9.3-4.95-13.95-7.42-1.65-1.35-1.03-4.09-1.72-5.99-.33-1.86-.33-3.88-1.15-5.49-.34-.68-.24-2.05-2.01-2.51-2.24-.58-3.93-3.14-6.17-3.89-3.1-1.03-2.76-4.3-4.77-5.89-.31-.25-.41-.75-.64-1.1-4.67-6.02,1.03-8.36.97-14.2-.23-3.85-2.48-5.72-6.3-4.71-.6.16-.81.43-1.34-.1-5.25-4.04-7.77-10.71-13.29-14.19-2.64-1.85-6.81-2.55-8.53-5.36-.63-7.51-11.61-17.12-5.31-23.61,4.46-3.79,1.64-9.78,2.57-14.61,3.11-4.65,6.07-9.32,11.66-11.41,3.37-1.41,2.46-4.7,3.87-7.27.61-.81-.86-2.45,1.01-2.95,6.39-1.92,11.03.63,15.47-5.93,3.91-4.78-3.99-9.61-2.66-15.04.23-1.66-.02-3.37.05-5.05.09-2.04-2.22-2.66-2.5-4.5-.02-3.01-5.14-2.8-5.65-5.27-4-12.43-3.93-12.17-16.43-12.09-3.18-.21-6-.03-7.21,3.66-.21.65-.98,1.17-1.59,1.63-6.07,3.72-10.89-1.17-14.8-5.17-5.05-6.29-9.89-1.69-11.06-5.43-1.44-3.12-2.97-6.62-7.14-5.71-5.45-.49-9.38-8.14-13.63-11.47-1.71-1.89-3.55-2.39-5.97-2.37-12.74.09-25.47.04-38.21.04-38.26-.24-76.48.66-114.72-.7-92.81-.46-185.7-1.36-278.58-1.15-88.09-.06-176.33-2.67-264.4-.1-40.59,1.03-81.56,3.61-122.23,1.1-99.15-3.93-198.99-1.13-298.44-1.92-1.79.14-3.78-.49-5.14.96-1.93,1.37-1.25,3.3-1.25,5.02-.03,137.5-.02,275.01-.02,412.51,3.07-1.3,5.88-2.5,8.7-3.7.17.23.35.45.52.68-3.32,4.28-9.72,6.93-9.29,13.1.07,78.36.08,156.73.05,235.09.6,2.85,4.35,2.75,6.56,2.5,15.5.08,31,.05,46.49.05,162.79-1.4,326.29,3.25,488.66-2.76,40.66,4.65,83.14.4,124.45,1.88,74.4.96,148.88,1.06,223.34.88,118.43.32,236.83,2.57,355.24,3.64,16.22,1.62,11.35-16.64,12.1-27.18l.05-.01ZM29.62,554.892c-1.24.57-2.02.69-3.19.03-1.69-.95-1.77-1.07-.23-2.25,2.41-1.86,4.8-3.74,7.68-5.98.3,4.33-1,6.7-4.26,8.2h0Zm20.9,76.6c-.31,3.19-3.04,4.39-6.08,3.25-1.22-.46-1.25-.9-1.28-1.82-.08-2.28,1.23-3.68,3.1-4.55,1.14-.53,2.44-.7,4.28-1.19,0,1.63.11,2.98-.02,4.31ZM431.46,186.512c.28.04.77,0,.82.12.39,1.11.8,2.23.95,3.38.04.31-.77.9-1.28,1.03-.29.07-.88-.46-1.11-.86-.41-.71-.74-1.5-.93-2.29-.31-1.29.5-1.51,1.54-1.38h.01Zm-89.72-135.05c.68-.94,1.68-1.56,2.72-1.1,3.13,1.37,6.65,2.09,8.96,4.96.19.24.49.4.64.66.64,1.1,2.84,1.57,1.95,3.11-.49.84-2.26.96-3.48,1.33-.42.13-.91.02-2.17.02-.36-.13-1.58-.31-2.46-.96-2.26-1.67-4.49-3.39-5.7-6.11-.29-.65-1.05-1.08-.45-1.91h-.01Zm-114.27-7c2.38,1.06,4.06,2.84,5.36,5.01.43.71.54,1.65,1.05,2.29.91,1.14,2.24,2.64,1.45,3.7-1.28,1.71-2.98-.31-4.36-.67-3.56-.94-6.37-5.25-6.41-8.76-.03-2.43.46-2.65,2.91-1.56v-.01Zm-15.8-12.31c3.35,3.85,6.16,7.07,9.12,10.48-2.74,1.34-5.2-.99-7.83-.78-.47.04-1.4-.94-1.33-2.11.14-2.25.04-4.51.04-7.59h0Zm-48.59,96.39c1.653-.56,3.487-.437,5.5.37-2.13,1.76-4.04,3.36-5.96,4.94-.68.56-1.48.21-1.58-.65-.22-1.91.8-4.23,2.05-4.66h-.01Zm-29.63,20.66c.69-.67,1.27-.52,1.88.11.6.62,2.11.26,1.81,1.92-.17.93-.5,1.03-1.32,1.3-2.03.67-3.95,1.67-6.61,2.84,1.48-2.6,2.58-4.56,4.24-6.17Zm1.8,484.75v.46h-2.76v-.46h2.76Zm-55.32-85.17c-1.31,1.97-3.51,2.03-5.27,2.95-1.05.55-2.64-.19-3.78.94-.13.13-1.18-.65-1.8-1.02,3.37-5.65,9-6.27,14.9-6.86-1.51,1.45-3.07,2.52-4.05,3.98v.01Zm15.71-395.56c2.16-2.34,4.317-2.34,6.47,0h-6.47Zm17.03,5.78c1.81-1.02,3.71-1.9,5.59-2.8.04-.02.23.18.3.31.07.12.08.27.11.41-.29,1.27-3.72,4.59-4.95,4.59-.43,0-1.03-.57-1.23-1.03-.18-.41-.09-1.32.18-1.47v-.01Zm2.16,191.23c-1.59-2.55-2.09-4.77-1.99-5.66.32-2.74,3.56-2.35,4.86-4.03-.95,3.19-1.89,6.39-2.87,9.69Zm5.56-14.5c-.59,1.13-2.1,1.8-3.28,2.57-.22.14-.99-.14-1.13-.41-.43-.88-.88-1.83-.95-2.79-.14-1.93-.04-3.88-.04-6.39,1.94,1.19,3.72,1.23,4.72,3.29.63,1.31,1.21,2.73.68,3.72v.01Zm5.69-181.98c-.17,1.96-1.25,2.52-3,2.4-.74-.05-1.48,0-2.31,0,.97-2.97,4.03-3.53,6.26-5.09-.33.9-.88,1.78-.96,2.7l.01-.01Zm14.27,512.1c-1.67,1.75-2.35,4.5-5.12,5.14-.51.12-1.18.41-1.55.21-2.48-1.34-4.64-3.05-6.29-6.2h3.51c1.53,0,3.07.12,4.59-.04,1.27-.13,2.49-.66,3.76-.84.47-.07,1.06.27,1.49.58.1.07-.12.86-.39,1.14v.01Zm83.44-363.05c.91-2.18,1.83-4.36,2.84-6.5.1-.22.93-.38,1.16-.21.72.54,1.31,1.23,1.94,1.88.71.72.39,1.34-.26,1.86-1.46,1.18-2.93,2.35-4.43,3.49-.19.15-.58.05-.87.06-.14-.2-.43-.46-.38-.58h0Zm61.78,181.77c-.47.03-1.05-.36-1.46-.71-1.63-1.39.48-3.9-1.54-5.2.24-.15.49-.45.71-.43.69.08,1.83.12,1.97.48m-.93-177.52c.59-.98,1.19-1.97,1.94-2.81.29-.32,1.06-.47,1.5-.34.52.15.93.69,1.21.93-.82,1.62-1.3,3.2-2.32,4.28-.53.57-2.07.32-2.65-.81-.15-.29.1-.89.32-1.25Zm125.79,55.56c-.71-.06-1.42-.01-2.14-.01l-.16-.8c.76-.35,1.49-.82,2.29-.98.4-.08,1.22.32,1.31.65.27,1-.42,1.22-1.3,1.15v-.01Zm6.07-.58c-.53.81-1.05.33-1.27-.17-.36-.85-.53-1.79-.77-2.69l.93-.62c.48.73.87,1.55,1.46,2.17.74.76-.09.93-.35,1.32v-.01Zm2.22-108.03c-.84-.57-1.69-1.14-2.83-1.9.74-.45,1.26-.87,1.34-.8.69.61,1.31,1.3,1.89,2.02.06.07-.26.45-.41.69l.01-.01Zm6.44,123.29c-.8-.26-4.94-6.04-5.06-6.99-.05-.39.16-.81.24-1.12,2.11,1.69,4.22,3.28,6.22,5,1.31,1.13,1.21,1.89-.18,2.82-.33.22-.87.41-1.21.3l-.01-.01Zm5.4,208.91c-.48.28-1.01.48-1.52.71-.75.34-1.41.48-1.61-.62-.05-.27-.15-.54-.26-.8-.25-.59-1.32-6.58-1.3-7.39,2.4,1.03,4.42,2.4,5.42,5.01.64,1.66.64,2.28-.74,3.09h.01Zm2.96-103.12c-1.62,2.6-4.2,1.88-6.53,1.85-.44,0-.86-.8-1.29-1.23.47-.18.93-.42,1.41-.55,2.45-.63,4.92-1.22,8.4-2.08-1.14,1.14-1.67,1.5-1.98,2.01h-.01Zm205.72-412.43c.16-.89,1.69-1.86,2.36-1.48,2.97,1.68,5.92,3.39,8.84,5.17.43.26.64.9.9,1.28-.37.39-.57.78-.74.77-.71-.06-1.49-.1-2.11-.41-2.66-1.34-5.22-2.86-7.92-4.1-.7-.32-1.52-.2-1.33-1.24v.01Zm-198.93,281.8c-.11.93-.54,1.83-.83,2.74l-.85-.11c-.35-2.4-.73-4.8-1.01-7.2-.03-.28.39-.82.66-.88.34-.06.93.15,1.11.44.96,1.53,1.12,3.27.92,5.01Zm6.9,208.88c-.13.15-.72.16-.87,0-1.09-1.17-2.78-1.98-2.35-4.09.18-.88,0-1.84.06-2.75.01-.18.43-.34.77-.58.31.18.97.35.99.58.16,2.06.99,3.87,1.85,5.69.12.27-.2.83-.45,1.14v.01Zm253.76-457.76c-.23.26-.04.88-.06,1.34-.05,1.16-.74,1-1.54.81-2.5-.61-4.53-2.28-7.18-2.74-2.13-.37-4.05-1.93-6.06-2.96,3.59-.35,7.02-1.47,9.72,1.25,1.68-.32,3.13.61,4.69.85,1.75.26,1.17.63.43,1.46v-.01Zm3.62-55.64c2.71-.06,5.42-.03,9.13-.03-2.1,1.62-3.35,3.29-4.81,3.5-1.46.21-3.15-1.01-4.7-1.69-.28-.13-.54-.74-.49-1.07.05-.28.56-.69.87-.7v-.01Zm331.46,384.72c.05.1-.04.28-.07.41-1.05-.18-2.1-.35-3.14-.55-.12-.02-.22-.2-.33-.31-.33-.32-.82-.61-.91-.99-.06-.25.42-.72.76-.95,1.39-.92,1.91-.72,2.81.9.28.5.61.97.88,1.48v.01Zm-6.46,14.91c-.69,1.07-1.3,2.12-2.03,3.07-.19.25-.87.38-1.16.23-.27-.14-.46-.72-.45-1.1.06-1.95.71-2.35,3.63-2.21l.01.01Zm-3.64-6.48c0-.39.18-.78.3-1.25.92.96.897,1.977-.07,3.05-.1-.73-.24-1.27-.23-1.8h0Zm-9.23-3.49c-1.08-1.07-1.67-1.55-2.11-2.14-.32-.43-.44-1-.65-1.51.67-.16,1.36-.47,2.01-.42.28.02.64.78.72,1.25.12.69.03,1.43.03,2.82h0Zm-18.39-4.42c.19-.31.56-.51.7-.63,1.99-.09,2.93.77,2.93,2.55,0,.37-.22.94-.49,1.06-.3.13-.87-.04-1.17-.28-.69-.56-1.31-1.21-1.89-1.88-.15-.18-.2-.63-.09-.82h.01Zm7.69,22.13c2.03-2.45,2.88-2.37,5.8,1.22-1.94-.41-3.88-.82-5.8-1.22Zm-110.62-14.72c2-1.42,3.58-2.28,4.8-3.49,1.46-1.46,3.17-1,4.65-.75,1.15.2,2.17,1.35,3.16,2.18.15.13-.17,1.15-.23,1.15-3.93-.3-7.72,1.69-12.38.91Zm-177.29,233.68c-.48.6-1.44.84-2.21,1.17-.25.11-.6.02-.9.02h-3.59c-.3-2.713.997-5.517,3.89-8.41.69.78,1.37,1.56,2.07,2.33.94,1.05,1.53,3.91.74,4.89h0Zm319.74-230.28c-.17.29-.77.52-1.11.46-.28-.05-.67-.57-.67-.89-.05-2.7-.03-5.41-.03-8.17,1.97.73,3.66,1.34,5.47,2.01-1.23,2.25-2.41,4.45-3.66,6.6v-.01Zm4.65-8.75c-.02-.53,2.64-2.01,3.11-1.77.23.12.52.41.53.62.06,2.86-.24,5.74,1.26,9.34-1.75-1.74-2.61-2.86-3.71-3.65-1.74-1.24-1.13-2.96-1.19-4.55v.01Zm1.96,25.24c-.4,1.14-.76,2.29-1.13,3.44-.28-.15-.57-.3-.85-.46,0-1.03-.09-2.08.04-3.1.05-.41.51-.89.91-1.1.35-.19.98-.21,1.31,0,.91.56-.14.81-.28,1.22h0Zm3.32-2.74c-1.41-.69-2.43-1.19-3.75-1.83.43-3.12.88-6.3,1.35-9.7,2.45,2.77,2.78,4.35,2.4,11.53Zm8.12-3.29c-.89.34-2.02.07-3.66.07,1.19-1.19,1.93-1.96,2.71-2.69.62-.58,1.29-1.12,1.94-1.67.11.41.24.82.32,1.24.25,1.31-.05,2.58-1.3,3.06l-.01-.01Zm1.21,26.3c-.11.2-.27.37-.41.55-.14-.14-.27-.27-.41-.41.18-.15.36-.29.54-.43.11.11.3.26.28.29Zm-2.66,1.17c.47-.2.92-.48,1.41-.57.14-.03.37.48.8,1.05-.6.32-1.12.79-1.39.68-.37-.15-.55-.75-.82-1.16h0Zm4.14,40.79c-.62-.31-1.56-.48-1.79-.97-.4-.87-.4-1.94-.49-2.93-.02-.22.27-.66.44-.67.4-.01.99.03,1.19.29.57.76.99,1.64,1.41,2.37-.35.88-.55,1.39-.76,1.91h0Zm-2.3-81.86c-1.97.26-2.48-1.49-4.25-2.72h8.62c-1.68,1.96-2.86,2.51-4.37,2.72Zm7.34,201.01c-.46.2-1.01.25-1.52.27-.09,0-.35-.61-.27-.71.31-.36.7-.74,1.13-.9.37-.14.85.02,2.05.09-.74.67-1.02,1.07-1.4,1.24l.01.01Zm2.73-171.19c-1.64-1.65-2.93-2.85-4.09-4.17-.29-.32-.16-1.01-.23-1.53.52.05,1.09-.01,1.55.18,2.21.94,2.97,2.65,2.77,5.51v.01Zm4.46,170.83c-.48-.18-1.26-.28-1.72-.71-.43-.41-.87-1.39-.66-1.75.47-.81,1.21-.43,1.77.18.4.43.85.83,1.24,1.26.15.17.23.41.34.62l-.97.41v-.01Zm1-458.87c-.33.65-1.25,1.34-1.95,1.37-1.09.05-.7-1.08-.65-1.71.03-.41.48-.78,1.32-2.03.64,1.13,1.46,2,1.27,2.36l.01.01Zm3.47,365.7c-.02.08-.25.1-.39.14-.28-.06-.73-.04-.81-.2-.46-.88-1.06-1.78-1.13-2.72-.04-.54.83-1.15,1.32-1.7.3-.33.69-.86,1-.84.44.04,1.25.58,1.21.77-.3,1.54-.76,3.04-1.2,4.55h0Zm1.59-65.91c.5-.24,1.14-.19,1.71-.25.46.07,1.01,0,1.29.23.26.22.47.95.31,1.16-.58.75-3,.76-3.6.01-.16-.2.05-1.03.29-1.15h0Zm5.14,77.08c-.04.35-.86.97-1.06.88-1.02-.45-1.94-1.1-2.91-1.65-.55-.31-1.62.1-1.5-1.09.16-1.48,1.35-.65,2.07-.89,2.67.01,3.62.74,3.4,2.75h0Zm4.65,6.92c-1.36-1.36-2.34-2.23-3.17-3.22-.3-.36-.25-1.02-.35-1.54.57-.1,1.29-.46,1.69-.24.71.39,1.49,1.02,1.76,1.73.3.77.07,1.76.07,3.27h0Zm.44-127.45c-.31.69-.71,1.35-.98,1.85-.51,0-.72.06-.79-.01-.16-.16-.39-.45-.33-.58.25-.64.51-1.3.93-1.82.21-.26.77-.24,1.17-.34.01.31.12.66.01.91l-.01-.01Zm1.59-185.62c-.65.27-1.32.49-2,.66-.88.23-1.98.8-2.61.49-.78-.39.33-2.55,1.59-3.68.99-.89,1.14.36,1.7.5.75.19,1.4.8,2.13,1.25-.37.37-.55.68-.81.78h0Zm4.41,251.35c-.89.21-1.8.35-3.1.57.46-.58.52-.75.63-.78.82-.23,1.65-.44,2.48-.65,0,.3.06.84,0,.86h-.01Zm3.06,158.95c-.61.24-1.26.37-1.89.55.05-.83-.12-1.77.23-2.46.36-.71,1.04-1.59,2.17-.7.55.43,1.25.67,2.35,1.24-1.32.63-2.07,1.04-2.86,1.36v.01Zm24.04-24.1c-.06.1-.91-.06-1.13-.32-.2-.24-.2-.88-.01-1.17,1.14-1.73,2.86-1.71,5.46.18-1.5.92-3.31-.34-4.32,1.31Zm5.58-49.69c-.86.32-3.78-.79-4.09-1.6-.11-.29.35-1.1.41-1.09,1.34.34,2.68.74,3.99,1.2.13.05.12.52.17.8-.15.24-.26.61-.47.68l-.01.01Zm18.2-457.3c.41-.29.84-.56,1.6-1.06,0,.89.01,1.45,0,2.01-.03,1.22-.99.93-1.62.84-.41-.06-.76-.57-1.14-.88.39-.3.76-.62,1.16-.91Zm-6.62,455.49c.07-.44.89-.77,1.07-.92,2.59-.05,2.72.06,2.55,1.79-.06.65-.12,1.17-.94.52-.31-.25-.75-.38-1.15-.46-.65-.13-1.72.27-1.53-.93Zm-.1,3.3c.28-.16.68-.59.91-.51,1.06.38,1.95,1.27,3.24.93.07-.02.49.72.44,1.05-.04.28-.61.75-.82.69-1.2-.31-2.38-.74-3.54-1.19-.14-.06-.13-.52-.23-.98v.01Zm6.72,6.77c-.98.11-1.97.04-2.96.04-.04-.28-.09-.55-.13-.83,1.02-.34,2.04-.72,3.09-.96.16-.04.64.56.65.86,0,.31-.38.86-.64.89h-.01Zm-2.32-68.8c-.96-1.03-1.68-2.27-2.51-3.41,1.86-1.51,3.96-1.54,6.02-1.32,1.86.2,3.7.71,5.67,1.1-.51.97-.97,2.08-1.63,3.04-1.99,2.92-5.12,3.18-7.55.59Zm10.38,31.11c-.07.16-.16.7-.45.85-.29.15-.81-.05-1.18-.2-.25-.1-.46-.38-.63-.61-.54-.76-1.94-1.14-1.23-2.45.13-.25.76-.29,1.17-.32,1.44-.1,1.99.85,2.33,2.03.04.14,0,.3,0,.71l-.01-.01Zm3.43-383.15c.81.67,1.44,1.2,2.07,1.72-.4.41-.8.83-1.2,1.24-.51-.56-1.08-1.08-1.5-1.7-.1-.15.31-.64.63-1.26h0Zm1.87,30.41c-.32,1.05-1.16,1.95-1.96,3.21-.65-.65-1.11-1.05-1.5-1.51-1.22-1.46-.42-5.15,1.36-5.89.37-.16,1.1.21,1.52.53,1.3,1,.95,2.45.58,3.66h0Zm7.12,389.55c-1.5-1.5-3.03-2.97-4.49-4.51-1-1.05-1.03-1.83.72-1.95.24-.02.42-.43.68-.54,1.61-.71,1.75-.38,2.84,1.12,1.35,1.86.33,3.73.26,5.88h-.01Zm6.41-4.6c-.5.43-1.21.61-1.83.9-.19-.52-.39-1.04-.43-1.16,0-.89-.05-1.34.01-1.78.11-.79.98-1.03,1.66-.39.69.66,1.88,1.34.6,2.45l-.01-.02Zm1.87-31.31c-.48-.11-1-.35-1.33-.7-.12-.13.32-1.07.41-1.05.53.1,1.07.3,1.53.58.3.18.48.55.86,1.02-.66.08-1.1.25-1.47.16v-.01Zm7.5-321.31c-.5.24-1.14.19-1.71.25-.46-.07-1.01,0-1.29-.23-.26-.22-.47-.95-.31-1.16.58-.75,3-.76,3.6-.01.16.2-.05,1.03-.29,1.15h0Zm14.64,295.52c-.17,0-.54-.75-.46-1.06.33-1.33,1.47-.54,2.24-.67.14-.02.39.66.81,1.4-1.04.16-1.82.34-2.59.33h0Zm13.24-8.05c-.07.4-1.05.63-1.91,1.11-.83-.53-1.68-1-2.41-1.61-.21-.18-.06-.78-.08-1.19.32.1.63.21.95.28.55.12,1.11.22,1.67.3.78.11,2.04-.4,1.78,1.1v.01Zm-1.07-94.42c-.56.38-1.6.06-2.43.01-.04,0-.05-.27-.11-.39-.61-1.13-2.02-2.7-1.69-3.29.99-1.75,2.1,1.02,3.43.4.38-.18.96-.15,1.35.01.31.13.48.62.6.79-.42.99-.55,2.07-1.14,2.47h-.01Zm3.57,159.43c-.03.08-.24.12-.37.14-1.64.28-.75-1.68-1.74-1.98.21-.42.4-.84.62-1.25.07-.12.2-.21.34-.35.5.75,1.06,1.46,1.44,2.26.14.28-.16.79-.29,1.17v.01Zm13.68-11.82c-.15-.23-.31-.46-.53-.81.16-.31.35-.67.53-1.03.15.23.45.48.43.69-.04.39-.28.77-.43,1.15Zm29.61-6.55c.8-.9-.29-2.42,1.2-3.19.49-.25-.54-1.98.74-2.12.65-.07,1.42.83,2.1,1.34.33.24.56.6.84.91-1.32,1.32-2.57,2.62-3.9,3.85-.24.23-.8.12-1.21.16.07-.32.04-.73.23-.94v-.01Zm-1.48-28.42c-.1-.03-1.69-.22-1.77-.67-.39-2.17,1.83-.53,2.46-1.44,1-1.45,1.56,1.14,2.5.28.15.39.47.81.4,1.15-.06.28-.56.59-.9.65-.58.11-1.2.03-2.68.03h-.01Zm3.83,83.16c.22-.26.88-.45,1.15-.31,1.1.61,2.13,1.35,3.75,2.41-2.26.42-3.86.8-4.92-.94-.18-.29-.17-.92.03-1.16h-.01Zm-2.95-100.59c2.13.16,4.56-1,6.66,1.65h-13.13c1.93-2.12,4.28-1.81,6.48-1.65h-.01Zm-9.98,7.62c.09-.11.21-.19.47-.44.2.59.31.74.28.85-.19.73.59,1.91-.9,2.03-.25.02-.64-.11-.75-.29-.63-1.07.35-1.53.89-2.15h.01Zm-4.6-276.97c.09-.11.21-.19.47-.44.2.59.31.74.28.85-.19.73.59,1.91-.9,2.03-.25.02-.64-.11-.75-.29-.63-1.07.35-1.53.89-2.15h.01Zm-.78,316.08c-.13-.4-.27-.79-.48-1.42.25-.31.52-.67.8-1.02.1.41.32.83.27,1.22-.06.43-.38.82-.59,1.23v-.01Zm1.44-24.36c-1.09-.86-1.33-1.94-.35-3.09.28-.33.63-.6.94-.9.77.77,1.52,1.52,2.31,2.31-.22.2-.41.48-.67.58-.79.29-.86,2.17-2.23,1.1h0Zm4.25,37.4c-.77-.54-1.55-1.05-2.28-1.64-.11-.09,0-.59.15-.78s.6-.39.72-.31c.74.54,1.42,1.16,2.08,1.73-.36.54-.51.78-.67,1.01v-.01Zm1.98-14.93c-.04.14-.85.24-1.14.07-.5-.29-.86-.8-1.39-1.33.58-.18,1.08-.35,1.59-.5.42-.12.84-.23,1.26-.34-.09.7-.11,1.43-.32,2.09v.01Zm-.19-5.37c-.32-.32-.74-.59-.94-.97-.27-.53,1.22-3.43,1.8-3.4.46.02.88.62,1.52,1.12-.81,1.11-1.6,2.18-2.39,3.26l.01-.01Zm9.11,55.99c-1.65-1.53-3.72-.24-6.6-1.23,1.55-.62,2.45-1.29,3.32-1.26,1.21.05,2.42.59,3.58,1.05.23.09.25.77.29,1.18,0,.08-.52.32-.59.26Zm7.26,38.82c-1.78.43-3.59.74-5.92,1.21.53-3.18.96-5.83,1.42-8.57,1.69,1.96,3.32,3.81,4.91,5.69.58.69.63,1.42-.4,1.67h-.01Z"/><path class="uuid-ef93ab7d-f3fc-4d45-b2f6-99a11051dfd3" d="m128.516,345.855c-41.233,2.993-56.674-31.763-56.971-69.223.975-26.214-9.275-125.026.343-148.17,7.507-22.046,24.069-32.075,48.23-32.86,26.024-1.834,45.784,12.094,51.715,37.094.017.07.036.137.06.205,6.241,17.872,5.927,119.597,7.751,139.924,2.259,37.155-9.711,73.152-51.128,73.03Zm-1.136-32.235c10.486-.491,13.233-7.219,14.481-17.413,1.902-12.267-3.477-120.052-3.591-135.472,0-.077-.005-.148-.013-.224-1.61-15.584-.083-32.295-16.792-32.671-.137-.003-.282.003-.418.016-17.215,1.718-15.632,17.077-15.989,33.692-.002.071,0,.137.004.208,1.011,16.123,3.149,122.935,5.963,135.815,1.952,10.361,5.699,16.327,16.356,16.049Z"/><path class="uuid-ef93ab7d-f3fc-4d45-b2f6-99a11051dfd3" d="m259.618,341.238c-23.282.721-40.452-6.166-49.507-27.123-11.368-20.12-10.336-181.502-12.983-215.411-.123-1.578,1.093-2.932,2.674-2.987l31.556-1.111c1.527-.054,2.81,1.127,2.876,2.654,1.082,25.199,5.869,191.755,7.777,196.326,1.711,9.995,5.396,16.292,16.348,15.838,10.899-.324,14.374-6.67,15.267-16.814,1.441-4.474-5.417-171.415-6.125-196.522-.043-1.528,1.155-2.797,2.682-2.85l31.557-1.112c1.58-.056,2.889,1.208,2.878,2.79-.25,34.642,12.089,194.128,2.272,215.79-7.479,21.558-23.997,29.608-47.271,30.532Z"/><path class="uuid-ef93ab7d-f3fc-4d45-b2f6-99a11051dfd3" d="m352.176,332.413l-7.282-206.749c-.054-1.535-1.342-2.735-2.877-2.681l-23.064.812c-1.535.054-2.823-1.146-2.877-2.681l-.939-26.677c-.054-1.535,1.146-2.823,2.681-2.877l87.674-3.088c1.535-.054,2.823,1.146,2.877,2.681l.939,26.677c.054,1.535-1.146,2.823-2.681,2.877l-21.954.774c-1.535.054-2.735,1.342-2.681,2.877l7.281,206.749c.054,1.535-1.146,2.823-2.681,2.877l-31.54,1.111c-1.535.054-2.823-1.146-2.877-2.681Z"/><path class="uuid-ef93ab7d-f3fc-4d45-b2f6-99a11051dfd3" d="m429.084,329.544l-8.409-238.77c-.055-1.556,1.179-2.844,2.736-2.875,54.554-1.074,102.991-16.553,105.529,59.107,0-.001,4.025,110.317,4.025,110.317.262,26.074-.785,49.468-19.711,64.41-14.435,12.763-60.029,8.921-81.19,10.484-1.574.116-2.924-1.096-2.98-2.674Zm36.225-30.032c.054,1.52,1.313,2.712,2.834,2.681,10.797-.223,23.854.133,26.504-12.986,4.081-9.301-3.295-126.636-2.912-139.815.002-.072.001-.139-.002-.211-1.287-26.784-5.899-36.397-30.291-34.2-1.469.132-2.582,1.397-2.53,2.871l6.398,181.661Z"/><path class="uuid-ef93ab7d-f3fc-4d45-b2f6-99a11051dfd3" d="m612.214,328.82c-41.231,2.993-56.674-31.763-56.97-69.223.975-26.214-9.275-125.026.343-148.17,7.507-22.046,24.068-32.075,48.23-32.861,26.024-1.832,45.783,12.095,51.715,37.095.017.07.036.136.06.205,6.24,17.872,5.927,119.597,7.75,139.924,2.26,37.155-9.711,73.153-51.128,73.03Zm-1.135-32.235c10.486-.491,13.233-7.22,14.481-17.413,1.901-12.267-3.477-120.052-3.591-135.472,0-.077-.005-.148-.013-.225-1.612-15.585-.082-32.293-16.792-32.671-.137-.003-.282.003-.419.016-17.214,1.72-15.631,17.078-15.988,33.693-.002.071,0,.137.004.208,1.011,16.123,3.149,122.935,5.962,135.815,1.953,10.36,5.699,16.327,16.356,16.049Z"/><path class="uuid-ef93ab7d-f3fc-4d45-b2f6-99a11051dfd3" d="m742.482,324.232c-41.232,2.993-56.673-31.763-56.97-69.223.975-26.214-9.276-125.026.344-148.17,7.507-22.046,24.068-32.075,48.23-32.861,26.023-1.833,45.785,12.094,51.715,37.094.017.07.036.137.06.205,6.242,17.872,5.927,119.597,7.751,139.924,2.261,37.156-9.712,73.153-51.129,73.03Zm-1.135-32.235c10.486-.491,13.234-7.219,14.481-17.413,1.901-12.267-3.477-120.052-3.591-135.472,0-.077-.005-.148-.013-.225-1.611-15.583-.084-32.294-16.793-32.671-.137-.003-.282.003-.418.016-17.214,1.718-15.631,17.078-15.989,33.692-.002.071,0,.137.004.208,1.011,16.123,3.15,122.935,5.963,135.815,1.953,10.36,5.699,16.327,16.356,16.049Z"/><path class="uuid-ef93ab7d-f3fc-4d45-b2f6-99a11051dfd3" d="m821.147,315.896l-8.416-238.984c-.054-1.535,1.146-2.823,2.681-2.877l58.773-2.07c23.258-.791,36.457,6.557,42.063,27.888.021.08.039.16.053.241,3.821,21.3,11.974,69.455-10.133,83.422-1.84,1.163-1.668,3.851.274,4.835,18.871,9.565,16.69,43.711,18.631,64.48.865,16.967.993,41.408,3.174,59.054.2,1.62-1.028,3.056-2.659,3.114l-31.597,1.113c-1.454.051-2.709-1.025-2.863-2.472-2.773-26.057-2.975-58.792-4.194-85.062-.077-26.071-8.652-26.652-29.626-26.677-1.576-.002-2.847,1.305-2.791,2.88l3.867,109.802c.054,1.535-1.146,2.823-2.681,2.877l-31.679,1.115c-1.535.054-2.823-1.146-2.877-2.681Zm32.289-145.755c.054,1.532,1.332,2.728,2.863,2.68,7.042-.221,18.554.488,22.347-3.77,7.049-9.164,4.709-20.247,4.957-35.092-1.122-29.278-2.171-34.813-29.921-32.735-1.487.111-2.626,1.382-2.573,2.872l2.326,66.045Z"/><path class="uuid-ef93ab7d-f3fc-4d45-b2f6-99a11051dfd3" d="m995.1,315.336c-53.305,3.59-55.081-48.37-55.764-88.794-.026-1.515,1.168-2.769,2.682-2.823l29.794-1.05c1.535-.054,2.824,1.14,2.877,2.676.498,14.449.725,41.696,5.093,50.046,2.819,9.128,16.998,10.423,23.232,4.883.159-.141.299-.298.424-.47,8.488-11.635,5.253-40.172-2.061-52.891-10.591-20.223-37.488-37.952-51.118-57.046-18.932-23.793-22.772-78.659,4.173-96.764,11.61-8.448,40.944-10.78,55.009-4.303,27.219,12.585,26.024,47.096,27.266,74.211.071,1.543-1.136,2.843-2.68,2.898l-28.886,1.017c-1.494.053-2.77-1.08-2.873-2.571-1.094-15.829,2.964-48.014-16.393-47.527-18.7-.094-17.086,25.13-13.033,37.889.028.089.06.176.095.262,3.521,8.699,9.629,14.167,16.708,21.538,14.653,14.822,36.009,34.526,44.565,52.686,11.408,20.046,11.552,53.89,5.956,74.287-6.352,22.001-21.415,30.994-45.065,31.846Z"/><path class="uuid-ef93ab7d-f3fc-4d45-b2f6-99a11051dfd3" d="m135.133,616.277c-23.378.724-40.618-6.191-49.711-27.236-11.288-19.975-10.401-178.61-12.949-215.099-.157-2.244,1.573-4.166,3.821-4.245l29.292-1.031c2.184-.077,4.019,1.622,4.107,3.806,1.175,28.911,5.871,191.432,7.759,195.955,1.717,10.037,5.418,16.359,16.415,15.904,10.945-.325,14.433-6.697,15.331-16.883,1.427-4.428-5.241-167.312-6.115-196.153-.066-2.185,1.645-4.008,3.83-4.085l29.291-1.031c2.247-.079,4.109,1.714,4.11,3.962.025,37.117,12.033,193.967,2.285,215.478-7.51,21.647-24.097,29.73-47.466,30.658Z"/><path class="uuid-ef93ab7d-f3fc-4d45-b2f6-99a11051dfd3" d="m215.197,606.69l-8.368-237.616c-.077-2.192,1.637-4.031,3.829-4.108l22.523-.793c1.682-.059,3.219.949,3.835,2.515l46.391,117.946c1.664,4.229,7.973,2.803,7.657-1.731-2.582-36.983-4.871-87.023-5.597-116.646-.053-2.175,1.656-3.984,3.83-4.061l25.736-.906c2.192-.077,4.031,1.637,4.108,3.829l8.368,237.616c.077,2.192-1.637,4.031-3.829,4.108l-19.725.695c-1.686.059-3.225-.953-3.839-2.524l-48.209-123.471c-1.648-4.222-7.947-2.834-7.662,1.689,2.414,38.355,4.597,91.71,5.447,122.278.061,2.18-1.65,3.997-3.83,4.074l-26.557.935c-2.192.077-4.031-1.637-4.108-3.829Z"/><path class="uuid-ef93ab7d-f3fc-4d45-b2f6-99a11051dfd3" d="m400.793,606.92c-53.015,3.572-55.27-47.585-55.974-88.001-.038-2.166,1.666-3.96,3.831-4.036l27.58-.971c2.197-.077,4.038,1.64,4.109,3.838.475,14.768.806,40.903,5.073,49.061,2.808,9.095,16.849,10.446,23.183,5.032.259-.222.482-.479.674-.762,8.441-12.423,5.201-39.616-2.172-52.947-14.819-27.146-51.423-45.4-61.647-76.546-7.557-24.912-8.34-62.231,14.507-77.9,11.658-8.485,41.112-10.824,55.237-4.32,26.939,12.456,26.16,46.299,27.326,73.34.095,2.202-1.623,4.052-3.826,4.13l-26.523.934c-2.2.077-4.041-1.644-4.11-3.844-.613-19.503,1.365-57.285-25.412-43.766-.339.171-.666.389-.942.65-8.01,7.563-6.468,24.704-3.283,34.69.041.127.086.251.136.375,3.54,8.701,9.661,14.186,16.756,21.57,14.713,14.884,36.157,34.669,44.748,52.904,11.456,20.126,11.6,54.115,5.98,74.595-6.379,22.09-21.504,31.121-45.252,31.976Z"/><path class="uuid-ef93ab7d-f3fc-4d45-b2f6-99a11051dfd3" d="m519.881,602.726c-39.495,2.533-55.505-32.682-55.92-68.585,0-.087,0-.171.005-.257,1.901-37.293-13.763-128.293,6.194-160.875,15.515-26.589,63.333-29.516,82.305-5.274,15.587,19.206,13.54,52.148,14.595,77.065.093,2.205-1.62,4.059-3.825,4.137l-28.183.993c-2.189.077-4.026-1.625-4.108-3.814-.583-15.527-.483-44.518-4.932-54.049-3.956-12.032-23.006-10.193-25.855,1.609-2.048,6.226-2.886,14.817-2.515,25.778.005.147.018.29.039.436,3.505,24.089-2.192,127.286,11.34,146.901.16.232.342.444.548.636,6.568,6.104,19.822,3.38,22.121-6.184,4.239-10.497,1.725-42.934,1.199-59.652-.069-2.184,1.646-4.007,3.83-4.084l28.85-1.016c2.171-.076,4.001,1.6,4.105,3.77,2.061,42.918,7.718,102.036-49.793,102.468Z"/><path class="uuid-ef93ab7d-f3fc-4d45-b2f6-99a11051dfd3" d="m595.898,593.282l-8.368-237.616c-.077-2.192,1.637-4.031,3.829-4.108l57.838-2.038c23.333-.793,36.585,6.57,42.222,27.945.031.119.057.238.079.359,3.726,21.063,11.698,67.486-8.761,82.707-2.283,1.698-2.216,5.145.22,6.614,17.474,10.535,15.438,43.652,17.339,63.99.849,16.644.99,40.451,3.038,58.061.267,2.298-1.494,4.327-3.805,4.408l-29.343,1.033c-2.091.074-3.879-1.483-4.093-3.564-2.672-25.977-2.889-58.29-4.094-84.293-.076-25.66-8.353-26.731-28.519-26.784-2.254-.006-4.068,1.859-3.989,4.111l3.798,107.856c.077,2.192-1.637,4.031-3.829,4.108l-29.454,1.038c-2.192.077-4.031-1.637-4.108-3.829Zm32.423-146.347c.076,2.171,1.88,3.871,4.052,3.83,7.115-.134,17.693.296,21.304-3.758,7.077-9.201,4.728-20.331,4.977-35.237-1.112-28.985-2.148-34.796-28.884-32.953-2.137.147-3.779,1.963-3.704,4.104l2.255,64.015Z"/><path class="uuid-ef93ab7d-f3fc-4d45-b2f6-99a11051dfd3" d="m726.426,588.685l-8.369-237.616c-.077-2.192,1.637-4.031,3.829-4.108l29.453-1.037c2.192-.077,4.031,1.637,4.108,3.829l8.369,237.616c.077,2.192-1.637,4.031-3.829,4.108l-29.453,1.037c-2.192.077-4.031-1.637-4.108-3.829Z"/><path class="uuid-ef93ab7d-f3fc-4d45-b2f6-99a11051dfd3" d="m792.775,586.348l-8.366-237.541c-.078-2.205,1.657-4.061,3.863-4.109,60.831-1.335,102.796-17.169,104.744,65.524.426,26.429,1.946,54.364-16.337,71.538-9.002,9.551-30.541,10.011-45.762,10.324-2.215.046-3.958,1.896-3.88,4.11l3.129,88.837c.077,2.192-1.637,4.031-3.829,4.108l-29.454,1.037c-2.192.077-4.031-1.637-4.108-3.829Zm32.895-128.995c.076,2.171,1.882,3.872,4.054,3.83,7.308-.139,17.476.007,21.052-4.912,7.462-10.622,5.114-23.899,5.296-39.823.001-.117-.003-.233-.014-.349-1.675-18.63.888-45.032-20.272-44.374,0,0-5.292.187-9.153.323-2.19.077-3.9,1.915-3.823,4.106l2.86,81.199Z"/><path class="uuid-ef93ab7d-f3fc-4d45-b2f6-99a11051dfd3" d="m928.605,581.564l-7.229-205.247c-.077-2.192-1.917-3.906-4.108-3.829l-20.804.732c-2.192.077-4.031-1.637-4.108-3.829l-.86-24.431c-.077-2.192,1.637-4.031,3.829-4.108l85.68-3.018c2.192-.077,4.031,1.637,4.108,3.829l.86,24.431c.077,2.192-1.637,4.031-3.829,4.108l-19.688.693c-2.192.077-3.906,1.917-3.829,4.108l7.229,205.247c.077,2.192-1.637,4.031-3.829,4.108l-29.314,1.033c-2.192.077-4.031-1.637-4.108-3.829Z"/><path class="uuid-ef93ab7d-f3fc-4d45-b2f6-99a11051dfd3" d="m1005.837,578.844l-8.369-237.616c-.077-2.192,1.637-4.031,3.829-4.108l74.378-2.62c2.192-.077,4.031,1.637,4.108,3.829l.856,24.292c.077,2.192-1.637,4.031-3.829,4.108l-36.987,1.303c-2.192.077-3.906,1.917-3.829,4.108l2.236,63.496c.077,2.192,1.917,3.906,4.108,3.829l34.756-1.224c2.192-.077,4.031,1.637,4.108,3.829l.831,23.594c.077,2.192-1.637,4.031-3.829,4.108l-34.756,1.224c-2.192.077-3.906,1.917-3.829,4.108l2.472,70.192c.077,2.192,1.917,3.906,4.108,3.829l38.662-1.362c2.192-.077,4.031,1.637,4.108,3.829l.855,24.292c.077,2.192-1.637,4.031-3.829,4.108l-76.053,2.679c-2.192.077-4.031-1.637-4.108-3.829Z"/><path class="uuid-ef93ab7d-f3fc-4d45-b2f6-99a11051dfd3" d="m1108.873,575.014l-8.359-237.342c-.078-2.22,1.68-4.057,3.901-4.109,54.288-1.275,102.241-16.041,104.769,59.377,0-.001,4.042,110.772,4.042,110.772.262,26.182-.788,49.674-19.793,64.677-14.236,12.589-58.657,9.09-80.367,10.45-2.222.139-4.115-1.6-4.193-3.825Zm36.377-30.1c.076,2.166,1.872,3.87,4.039,3.831,10.599-.193,22.894-.306,25.461-13.016,4.094-9.332-3.294-126.935-2.925-140.355.003-.098.002-.191-.002-.289-1.172-26.272-5.928-36.255-29.245-34.414-2.123.168-3.747,1.975-3.672,4.103l6.344,180.14Z"/><path class="uuid-7e13fcd3-2c29-4ff4-82eb-424bfb56a899" d="m310.432,466.54c-.56.77-1,1.66-1.71,2.26-.49.41-1.33.4-2.01.56-.67.16-.7,1.93-1.93.73-1.01-.98-1.26-2-.28-3.1.7-.79,1.46-1.53,2.25-2.23.19-.16.62-.05.94-.06-.25,1.86,1.13,1.27,2.06,1.4.25.04.46.29.68.44Z"/><path class="uuid-7e13fcd3-2c29-4ff4-82eb-424bfb56a899" d="m317.722,453.74c3.08-2.47,5.72-1.14,8.9.14-1.32.49-2.39,1.3-3.13,1.06-1.38-.44-2.52-.96-3.89.03-.2.15-1.15-.73-1.88-1.22v-.01Z"/><path class="uuid-7e13fcd3-2c29-4ff4-82eb-424bfb56a899" d="m148.402,149.24c0-1.96-.05-3.29.04-4.61.02-.22.63-.58.95-.56.3.02.79.43.82.71.15,1.61-.64,2.83-1.81,4.47v-.01Z"/><path class="uuid-7e13fcd3-2c29-4ff4-82eb-424bfb56a899" d="m318.442,410.4c-.94,1.06-1.48,1.67-2.02,2.28-.45-.55-1-1.06-1.3-1.69-.08-.17.55-.93.92-.99.59-.09,1.23.18,2.4.4h0Z"/><path class="uuid-7e13fcd3-2c29-4ff4-82eb-424bfb56a899" d="m370.992,526.1c-.76.78-1.52,1.56-2.27,2.34-.05-.19-.37-.76-.22-.94.59-.7,1.33-1.27,2.01-1.89l.48.49h0Z"/><path class="uuid-7e13fcd3-2c29-4ff4-82eb-424bfb56a899" d="m311.512,537.23c.29-.11.56-.3.8-.28.65.06,1.59-.43,1.79.67.06.35-.27.76-.42,1.14-.62-.3-1.25-.58-1.84-.93-.17-.1-.22-.39-.33-.6Z"/><path class="uuid-7e13fcd3-2c29-4ff4-82eb-424bfb56a899" d="m307.762,429.27c.98,0,1.96-.03,2.94.02.23.01.45.3.68.46-.29.15-.58.4-.89.42-.85.06-1.71.02-2.56.02l-.17-.92h0Z"/><path class="uuid-7e13fcd3-2c29-4ff4-82eb-424bfb56a899" d="m309.332,390.19c-.34-.76-.67-1.19-.67-1.62,0-.23.73-.73.82-.66.38.27.75.67.91,1.11.06.16-.47.53-1.07,1.18l.01-.01Z"/><path class="uuid-7e13fcd3-2c29-4ff4-82eb-424bfb56a899" d="m162.402,120.14c-.34.28-.68.63-1.09.84-.17.08-.5-.16-.75-.25.4-.52.8-1.04,1.2-1.56l.65.97h-.01Z"/><path class="uuid-7e13fcd3-2c29-4ff4-82eb-424bfb56a899" d="m331.452,117.59l.8-1.02c.1.41.32.83.27,1.22-.06.43-.38.82-.59,1.23-.13-.4-.27-.79-.48-1.42v-.01Z"/><path class="uuid-7e13fcd3-2c29-4ff4-82eb-424bfb56a899" d="m147.992,151.43c-.23-.23-.43-.34-.42-.43.11-.8.25-1.59.41-2.37,0-.03.4,0,.4,0,.02.73.03,1.46,0,2.18,0,.12-.14.23-.4.62h.01Z"/><path class="uuid-7e13fcd3-2c29-4ff4-82eb-424bfb56a899" d="m233.652,102.48c.14.49.34.88.35,1.27,0,.23-.28.46-.43.7-.15-.38-.39-.75-.43-1.15-.02-.21.28-.46.51-.82h0Z"/><path class="uuid-7e13fcd3-2c29-4ff4-82eb-424bfb56a899" d="m321.472,415.28c-.5.07-.91.18-1.31.16-.13,0-.23-.37-.35-.58.4-.1.8-.26,1.21-.28.11,0,.24.36.45.7h0Z"/><path class="uuid-7e13fcd3-2c29-4ff4-82eb-424bfb56a899" d="m293.842,402.4c-.5.07-.91.18-1.31.16-.13,0-.23-.37-.35-.58.4-.1.8-.26,1.21-.28.11,0,.24.36.45.7h0Z"/><path class="uuid-7e13fcd3-2c29-4ff4-82eb-424bfb56a899" d="m353.862,443.4l.33-.33c.1.2.24.4.29.62.02.08-.19.2-.29.3l-.33-.59Z"/><path class="uuid-7e13fcd3-2c29-4ff4-82eb-424bfb56a899" d="m312.222,430.73c-.11.11-.26.3-.29.28-.2-.11-.37-.27-.55-.41l.41-.41.44.54h-.01Z"/><path class="uuid-7e13fcd3-2c29-4ff4-82eb-424bfb56a899" d="m321.502,461.94c-.2.1-.4.24-.62.29-.08.02-.2-.19-.3-.29.2-.1.4-.24.62-.29.08-.02.2.19.3.29Z"/><path class="uuid-7e13fcd3-2c29-4ff4-82eb-424bfb56a899" d="m1017.252,315.51c-1.42-1.84-2.65-3.39-3.81-4.98-.14-.19-.07-.69.09-.92.22-.32.61-.52.93-.78.83,1.29,2.15.64,3.27.84.7.12,1.44,2.16,1.08,2.89-.43.88-.92,1.74-1.56,2.95h0Z"/><path class="uuid-7e13fcd3-2c29-4ff4-82eb-424bfb56a899" d="m901.662,293.64c1.24-2.14,3.55-2.75,5.52-3.82.42-.23,1.24-.35,1.49-.12.48.45.72,1.19.98,1.84.06.15-.14.57-.28.6-2.55.64-4.76,3.01-7.72,1.49l.01.01Z"/><path class="uuid-7e13fcd3-2c29-4ff4-82eb-424bfb56a899" d="m1011.332,267.66c-.33.61-.6,1.26-1.01,1.81-.15.2-.81.32-.9.21-.9-1.12-1.95-2.21-2.47-3.5-.18-.45.84-1.73,1.59-2.14,1.25-.69.42.94.92,1.1,1.21.38,2.19.85,1.88,2.51l-.01.01Z"/><path class="uuid-7e13fcd3-2c29-4ff4-82eb-424bfb56a899" d="m973.472,347.9c-.13.32-.25.92-.61,1.33-.27.3-1.01.61-1.23.46-2.08-1.38-2.53-3.45-1.21-5.28.18-.24.63-.29.95-.43-.04,1.3,1.08,1.39,1.84,1.94.32.23.17,1.12.26,1.98h0Z"/><path class="uuid-7e13fcd3-2c29-4ff4-82eb-424bfb56a899" d="m721.092,378.45c.12,2.29-1.39,2.97-2.53,3.83-.19.15-.98-.44-1.46-.73-.77-.47-.01-.87.01-1.29.1-1.75,1.88-1.56,2.66-2.47.09-.1.99.49,1.31.66h.01Z"/><path class="uuid-7e13fcd3-2c29-4ff4-82eb-424bfb56a899" d="m698.412,241.47c-2.6,2.26-4.97,4.33-7.33,6.38.08-2.62,2.97-5.24,7.33-6.38Z"/><path class="uuid-7e13fcd3-2c29-4ff4-82eb-424bfb56a899" d="m920.942,362.67c-2.58.73-5.15,1.53-7.76,2.15-.98.23-2.06.04-3.16-.54,1.11-.2,2.52-.05,3.25-.68,1.22-1.07,2.77.06,3.76-.9,1.21-1.16,2.6-.31,3.9-.03h.01Z"/><path class="uuid-7e13fcd3-2c29-4ff4-82eb-424bfb56a899" d="m768.062,177.6c-.09.24-.32.9-.62,1.52-.12.25-.41.43-.62.64-.2-.27-.44-.52-.6-.82-.33-.61-.75-1.21-.89-1.87-.1-.51,0-1.32.34-1.59.37-.3,1.19-.33,1.67-.13.36.15.5.85.7,1.32.06.13,0,.3,0,.91l.02.02Z"/><path class="uuid-7e13fcd3-2c29-4ff4-82eb-424bfb56a899" d="m768.322,112.01c-.69.69-.95,1.11-1.33,1.29-.79.39-1.63.65-2.46.95,0,0-.17-.25-.15-.36.28-1.2.83-2.13,2.26-2.08.41.01.82.09,1.67.2h.01Z"/><path class="uuid-7e13fcd3-2c29-4ff4-82eb-424bfb56a899" d="m933.762,357.87c1.16-.5,2.33-.98,3.47-1.52.41-.19.77-1.17,1.14-.05.1.31-.16,1.04-.42,1.13-1.33.49-2.71.83-4.07,1.23-.04-.26-.08-.53-.12-.79h0Z"/><path class="uuid-7e13fcd3-2c29-4ff4-82eb-424bfb56a899" d="m764.992,92.34c.58.68,1.25,1.31,1.7,2.07.15.25-.21.89-.47,1.25-.11.15-.82.12-.88,0-.4-.88-.7-1.81-1.04-2.73l.69-.59h0Z"/><path class="uuid-7e13fcd3-2c29-4ff4-82eb-424bfb56a899" d="m912.352,313.1c1.413-1.187,2.787-1.187,4.12,0h-4.12Z"/><path class="uuid-7e13fcd3-2c29-4ff4-82eb-424bfb56a899" d="m949.972,233.13c1.527-1.267,2.877-1.267,4.05,0h-4.05Z"/><path class="uuid-7e13fcd3-2c29-4ff4-82eb-424bfb56a899" d="m764.792,187.47c-.67-1.58-.58-2.63.54-3.44.18-.13.41-.17.62-.25.09.26.32.58.25.77-.37.88-.82,1.73-1.41,2.93v-.01Z"/><path class="uuid-7e13fcd3-2c29-4ff4-82eb-424bfb56a899" d="m861.062,344.69c0,.98.03,1.96-.02,2.93-.01.23-.3.45-.46.68-.15-.29-.4-.58-.42-.88-.06-.86-.02-1.72-.02-2.58l.92-.15h0Z"/><path class="uuid-7e13fcd3-2c29-4ff4-82eb-424bfb56a899" d="m920.912,362.1c.36-.31.69-.81,1.09-.88.84-.14,1.73-.04,2.59-.04-.36.31-.69.81-1.09.88-.84.14-1.73.04-2.59.04Z"/><path class="uuid-7e13fcd3-2c29-4ff4-82eb-424bfb56a899" d="m927.122,361.18c-.55,0-1.11.05-1.65-.02-.31-.04-.59-.27-.88-.42.22-.16.43-.45.66-.46.68-.04,1.36.04,2.04.07-.06.28-.11.55-.17.83h0Z"/><path class="uuid-7e13fcd3-2c29-4ff4-82eb-424bfb56a899" d="m897.712,265.74c.25-.31.52-.67.8-1.02.1.41.32.83.27,1.22-.06.43-.38.82-.59,1.23l-.48-1.42v-.01Z"/><path class="uuid-7e13fcd3-2c29-4ff4-82eb-424bfb56a899" d="m942.702,355.84c-.61-.22-1-.36-1.39-.5.42-.2.83-.51,1.27-.57.38-.05.81.18,1.21.28-.37.27-.74.54-1.08.79h-.01Z"/><path class="uuid-7e13fcd3-2c29-4ff4-82eb-424bfb56a899" d="m933.802,358.42c-.43,1.77-1.86.57-2.76.92.43-1.77,1.86-.57,2.76-.92Z"/><path class="uuid-7e13fcd3-2c29-4ff4-82eb-424bfb56a899" d="m928.512,359.34c.55,0,1.11-.05,1.65.02.31.04.59.27.88.42-.22.16-.43.45-.66.46-.68.04-1.36-.04-2.04-.07.06-.28.11-.55.17-.83h0Z"/><path class="uuid-7e13fcd3-2c29-4ff4-82eb-424bfb56a899" d="m809.222,226.66l1.08.52-1.29,1.5c-.14-.14-.43-.33-.41-.42.16-.54.4-1.05.62-1.59v-.01Z"/><path class="uuid-7e13fcd3-2c29-4ff4-82eb-424bfb56a899" d="m907.772,295.8c-.48-.04-.88-.05-1.28-.13-.04,0-.02-.57,0-.57.4-.03.81-.05,1.21,0,.04,0,.04.39.07.7Z"/><path class="uuid-7e13fcd3-2c29-4ff4-82eb-424bfb56a899" d="m819.242,268.32c.11.11.3.26.28.29-.11.2-.27.37-.41.55l-.41-.41c.18-.15.36-.29.54-.43h0Z"/><path class="uuid-7e13fcd3-2c29-4ff4-82eb-424bfb56a899" d="m818.702,269.57c-.18.14-.36.28-.55.42-.06-.19-.21-.51-.15-.56.19-.15.46-.19.7-.28v.42Z"/><path class="uuid-7e13fcd3-2c29-4ff4-82eb-424bfb56a899" d="m808.582,229.08c-.18.14-.36.28-.55.42-.06-.19-.21-.51-.15-.56.19-.15.46-.19.7-.28v.42Z"/><path class="uuid-7e13fcd3-2c29-4ff4-82eb-424bfb56a899" d="m953.062,406.8c-.11.11-.26.3-.29.28-.2-.11-.37-.27-.55-.41l.41-.41.44.54h-.01Z"/><path class="uuid-7e13fcd3-2c29-4ff4-82eb-424bfb56a899" d="m951.802,406.27c-.14-.18-.28-.36-.42-.55.19-.06.51-.21.56-.15.15.19.19.46.28.7h-.42Z"/><path class="uuid-7e13fcd3-2c29-4ff4-82eb-424bfb56a899" d="m698.622,240.71c.11.11.3.26.28.29-.11.2-.27.37-.41.55l-.41-.41c.18-.15.36-.29.54-.43h0Z"/><path class="uuid-7e13fcd3-2c29-4ff4-82eb-424bfb56a899" d="m856.462,189.52c-.18.14-.36.28-.55.42-.06-.19-.21-.51-.15-.56.19-.15.46-.19.7-.28v.42Z"/><path class="uuid-7e13fcd3-2c29-4ff4-82eb-424bfb56a899" d="m856.992,188.26c.11.11.3.26.28.29-.11.2-.27.37-.41.55l-.41-.41.54-.43h0Z"/><path class="uuid-7e13fcd3-2c29-4ff4-82eb-424bfb56a899" d="m472.962,362.1c.93,1.82,1.7,3.8,4.31,3.72.24,0,.69.54.7.84,0,.31-.34.71-.64.94-.68.53-1.54.86-2.1,1.47-1.42,1.54-2.82,1.83-4.73.77-1.32-.74-2.9-1.03-4.9-1.7,1.62-1.11,2.95-1.88,4.11-2.85,1.16-.96,2.17-2.12,3.24-3.19h.01Z"/><path class="uuid-7e13fcd3-2c29-4ff4-82eb-424bfb56a899" d="m376.422,273.01c-.21.21-.63.48-.84.87-1.67,3.06-4.18,1.99-6.52,1.26-1.84-.58-2.24-2.34-1.02-3.87,1.17-1.47,1.7-1.56,3.52-.65,1.63.81,3.28,1.61,4.87,2.39h-.01Z"/><path class="uuid-7e13fcd3-2c29-4ff4-82eb-424bfb56a899" d="m304.801,167.405c1.94.5,3.63-.43,5.26,1.14,1.33,1.28,1.14,2.62,1.19,4.37-1.29.05-2.59.18-3.88.14-1.83-.06-2.48-.8-2.57-2.73-.04-.86,0-1.73,0-2.92Z"/><path class="uuid-7e13fcd3-2c29-4ff4-82eb-424bfb56a899" d="m435.722,397.91c3,1.66,5.47,3.37,6.69,6.36.26.65.45,1.33.62,2.02.07.29.01.6.01.91-.46,0-1.17.18-1.32-.03-1.32-1.88-3.55-2.7-4.94-4.64-1.03-1.43-1.08-2.65-1.06-4.61v-.01Z"/><path class="uuid-7e13fcd3-2c29-4ff4-82eb-424bfb56a899" d="m563.252,253.43c-.48-.28-1-.5-1.43-.85-.65-.52-1.62-1.04-1.76-1.72-.24-1.12-.11-2.4.18-3.53.22-.84,2.59-.81,3.13-.11,1.63,2.13,1.27,4.19-.11,6.2l-.01.01Z"/><path class="uuid-7e13fcd3-2c29-4ff4-82eb-424bfb56a899" d="m448.302,192.91c-.55-.46-.86-.95-1.24-1.01-1.95-.31-2.31-1.59-2.19-3.25.05-.61-.09-1.24.04-1.83.1-.49.46-.93.7-1.39.5.28,1.15.44,1.47.86,1.39,1.84,1.89,3.92,1.22,6.63v-.01Z"/><path class="uuid-7e13fcd3-2c29-4ff4-82eb-424bfb56a899" d="m472.282,551.65c-3.6,2.58-6.71,1.63-9.92,1.22.78-.41,1.54-1.1,2.35-1.16,2.22-.16,4.46-.06,7.57-.06Z"/><path class="uuid-7e13fcd3-2c29-4ff4-82eb-424bfb56a899" d="m462.562,305.51c-2.36,1.2-4.37,2-6.65.99,2.073-1.647,4.29-1.977,6.65-.99Z"/><path class="uuid-7e13fcd3-2c29-4ff4-82eb-424bfb56a899" d="m609.622,517.86c-1.52,1.19-2.86,2.24-4.2,3.29-.21-3.39-.06-3.51,4.2-3.29Z"/><path class="uuid-7e13fcd3-2c29-4ff4-82eb-424bfb56a899" d="m608.342,499.14c-.75.76-1.23,1.25-1.72,1.75-.2-.4-.4-.81-.62-1.21-.07-.12-.19-.22-.3-.32-.61-.53-1-1.11-.3-1.82.16-.16.63-.26.79-.15.66.46,1.26,1.01,2.15,1.75h0Z"/><path class="uuid-7e13fcd3-2c29-4ff4-82eb-424bfb56a899" d="m559.712,391.64c-.88-.23-1.78-.41-2.63-.73-.28-.11-.42-.6-.62-.91.4-.1.9-.39,1.19-.25.79.37,1.49.93,2.22,1.41l-.17.48h.01Z"/><path class="uuid-7e13fcd3-2c29-4ff4-82eb-424bfb56a899" d="m570.202,541.05c-.57.46-1.08.87-1.6,1.29-.11-.24-.31-.47-.33-.72-.09-1.07.67-1.06,1.4-.99.17.02.31.24.53.42h0Z"/><path class="uuid-7e13fcd3-2c29-4ff4-82eb-424bfb56a899" d="m449.052,208.24l1.21.5c-.26.2-.5.5-.8.57-.21.06-.5-.18-.75-.28.14-.33.28-.65.34-.8v.01Z"/><path class="uuid-7e13fcd3-2c29-4ff4-82eb-424bfb56a899" d="m556.782,534.9c.7.29.96.4,1.21.5-.26.2-.5.5-.8.57-.21.06-.5-.18-.75-.28.14-.33.28-.65.34-.8v.01Z"/><path class="uuid-7e13fcd3-2c29-4ff4-82eb-424bfb56a899" d="m443.892,407.72c-.11.11-.26.3-.29.28-.2-.11-.37-.27-.55-.41l.41-.41.44.54h-.01Z"/><path class="uuid-7e13fcd3-2c29-4ff4-82eb-424bfb56a899" d="m575.632,538.26c-.18.14-.36.28-.55.42-.06-.19-.21-.51-.15-.56.19-.15.46-.19.7-.28v.42Z"/><path class="uuid-7e13fcd3-2c29-4ff4-82eb-424bfb56a899" d="m570.642,539.77c.11.11.3.26.28.29-.11.2-.27.37-.41.55l-.41-.41.54-.43h0Z"/></svg>