<svg xmlns="http://www.w3.org/2000/svg" width="153" height="100" fill="none"><g clip-path="url(#a)"><path fill="#000" d="M153 51.693h-26.482c0-.318.023-.636.023-.932.204-13.36-4.801-25.994-14.129-35.583C103.107 5.612 90.617.204 77.262 0c-27.62-.409-50.416 21.677-50.825 49.239-.023.818 0 1.659.022 2.477H0v29.856h37.675a48.052 48.052 0 0 0 2.89 3.227c9.305 9.589 21.795 14.974 35.173 15.178 13.377.205 26.027-4.794 35.628-14.11a50.564 50.564 0 0 0 3.958-4.317h37.699V51.693H153Z"/><path fill="#fff" d="M150.065 53.852h-26.209c.091-1.046.136-2.09.159-3.136.205-12.68-4.573-24.676-13.4-33.788-8.85-9.112-20.703-14.224-33.398-14.406-26.21-.409-47.846 20.564-48.255 46.74a44.002 44.002 0 0 0 .16 4.59H2.001v25.72h37.289a44.15 44.15 0 0 0 3.048 3.455c8.85 9.111 20.704 14.224 33.399 14.406 12.695.204 24.707-4.568 33.83-13.384a54.738 54.738 0 0 0 4.096-4.499h37.493V53.852h-1.092Z"/><path fill="#000" d="M107.248 53.851a31.3 31.3 0 0 0 .25-3.885c0-17.11-13.9-30.993-31.032-30.993-17.132 0-31.032 13.883-31.032 30.993 0 1.318.09 2.613.25 3.885h61.564Z"/><path fill="#fff" d="M105.656 53.851c.159-1.272.25-2.567.25-3.885 0-16.246-13.196-29.402-29.44-29.402s-29.44 13.178-29.44 29.402c0 1.318.091 2.613.25 3.885h58.38Z"/><path fill="#fff" d="m101.947 53.851-.023-2.045-.182-.454V41.74l.409-.181v-.66l-.341-.317v-1.636l-1.16-.319-.159-.25v-.159l-1.889-.431-3.8.59v-.022L92.3 37.9V36.72l-1.388-.341-.227-.454-2.434-.523-.137-.068v-.705l-.887-.272v-2.113l-.546-.296v-.886l-.25-.568-.933-.182-4.323-4.612v-.818h-1.82l-.796.5v.84l-4.073 2.681-.022-1.886-1.502-1-2.685 1.046v2.613l-11.056 4.34-1.616-.636-1.752.704V37.65l-.455.16v5.68l-2.343-.364-1.183.182-.341.341v1.477l-.182.318v8.407h50.598Z"/><path fill="#000" d="M4.072 55.76h144.673V77.3H4.072V55.76Z"/><path fill="#fff" d="M16.995 61.713c0-.204-.045-.363-.5-.409v-.273h3.663v.273c-.456.046-.501.205-.501.41v5.998c0 3.953-2.184 5.249-4.914 5.249-2.73 0-4.914-1.296-4.914-5.25v-5.998c0-.204-.046-.363-.5-.409v-.273h3.662v.273c-.455.046-.5.205-.5.41v5.998c0 1.727.819 2.408 2.252 2.408 1.433 0 2.252-.704 2.252-2.408v-5.999ZM22.364 61.713c0-.204-.046-.363-.5-.409v-.273h4.3v.273c-.41.023-.501.16-.501.295 0 .25 3.071 4.363 4.322 6.09v-5.976c0-.273-.136-.386-.364-.409v-.273h3.254v.273c-.455.046-.5.205-.5.41v10.429c0 .204.045.363.5.409v.272h-3.39v-.272c.318 0 .41-.091.41-.25 0-.296-.456-.591-5.142-7.203v7.044c0 .204.045.363.5.409v.272h-3.39v-.272c.455-.046.5-.205.5-.41V61.714ZM34.855 72.824v-.272c.455-.046.5-.205.5-.41V61.714c0-.204-.045-.363-.5-.409v-.273h3.662v.273c-.455.046-.5.205-.5.41v10.429c0 .204.045.363.5.409v.272h-3.663ZM51.417 66.94c0 3.93-2.525 6.02-5.551 6.02-3.026 0-5.551-2.112-5.551-6.02 0-3.932 2.525-6.022 5.55-6.022 3.027 0 5.552 2.09 5.552 6.021Zm-8.486 0c0 2.112 1.365 3.294 2.912 3.294s2.912-1.181 2.912-3.295c0-2.113-1.365-3.294-2.912-3.294-1.524 0-2.912 1.181-2.912 3.294ZM53.351 61.713c0-.204-.045-.363-.5-.409v-.273h4.3v.273c-.41.023-.501.16-.501.295 0 .25 3.094 4.363 4.323 6.09v-5.976c0-.273-.137-.386-.364-.409v-.273h3.253v.273c-.455.046-.5.205-.5.41v10.429c0 .204.045.363.5.409v.272h-3.39v-.272c.319 0 .41-.091.41-.25 0-.296-.455-.591-5.142-7.203v7.044c0 .204.045.363.5.409v.272h-3.39v-.272c.456-.046.501-.205.501-.41V61.714ZM72.576 68.166l.182.114c-.046.114-.046.273-.046.477 0 .614 1.911 1.613 3.754 1.613 1.775 0 2.594-.545 2.594-1.522 0-1.659-7.349.182-7.349-4.135 0-2.25 1.707-3.795 4.323-3.795 2.434 0 4.209.932 4.686.932.228 0 .365-.16.478-.341l.205.09-1.229 3.114-.204-.137v-.25c0-.568-2.025-1.181-3.709-1.181-1.547 0-2.093.545-2.093 1.045 0 2 7.372-.454 7.372 4.703 0 1.932-1.16 4.045-5.028 4.045-2.98 0-4.3-1.023-4.71-1.023-.136 0-.25.16-.364.296l-.205-.068 1.343-3.977ZM85.817 72.824v-.272c.455-.046.5-.205.5-.41v-8.384h-3.049c-.204 0-.273.114-.318.636h-.205v-3.976h.205c.045.523.136.636.318.636h8.805c.205 0 .273-.113.319-.636h.204v3.976h-.205c-.045-.522-.113-.636-.318-.636h-3.071v8.385c0 .204.045.363.5.409v.272h-3.685ZM95.554 70.28c-.455 1.635-.569 1.93-.569 2.067 0 .136.069.227.319.227v.273h-3.162v-.273c.25-.068.364-.159.455-.522.159-.523 3.162-10.384 3.162-10.498 0-.159-.205-.204-.364-.227v-.273h4.641v.273c-.205.023-.318.068-.318.295 0 .182 2.184 6.885 3.299 10.293.182.546.295.682.5.682v.273h-3.504v-.273c.251-.023.342-.136.342-.273 0-.09-.546-1.727-.615-2.022h-4.186v-.023Zm.433-1.796h3.321l-1.729-5.34-1.592 5.34ZM106.202 72.824v-.272c.455-.046.5-.205.5-.41v-8.384h-3.071c-.205 0-.273.114-.319.636h-.205v-3.976h.205c.046.523.114.636.319.636h8.804c.205 0 .273-.113.319-.636h.205v3.976h-.205c-.046-.522-.114-.636-.319-.636h-3.071v8.385c0 .204.045.363.5.409v.272h-3.662ZM114.414 72.824v-.272c.455-.046.501-.205.501-.41V61.714c0-.204-.046-.363-.501-.409v-.273h3.663v.273c-.455.046-.501.205-.501.41v10.429c0 .204.046.363.501.409v.272h-3.663ZM131.159 66.94c0 3.93-2.525 6.02-5.551 6.02-3.026 0-5.551-2.112-5.551-6.02 0-3.932 2.525-6.022 5.551-6.022 3.026 0 5.551 2.09 5.551 6.021Zm-8.463 0c0 2.112 1.365 3.294 2.912 3.294s2.912-1.181 2.912-3.295c0-2.113-1.365-3.294-2.912-3.294s-2.912 1.181-2.912 3.294ZM133.457 61.713c0-.204-.046-.363-.501-.409v-.273h4.3v.273c-.41.023-.501.16-.501.295 0 .25 3.095 4.363 4.323 6.09v-5.976c0-.273-.136-.386-.364-.409v-.273h3.254v.273c-.456.046-.501.205-.501.41v10.429c0 .204.045.363.501.409v.272h-3.39v-.272c.318 0 .409-.091.409-.25 0-.296-.455-.591-5.142-7.203v7.044c0 .204.046.363.501.409v.272h-3.39v-.272c.455-.046.501-.205.501-.41V61.714Z"/><path fill="#000" d="M109.592 53.851a31.32 31.32 0 0 0 .227-3.885c0-18.405-14.924-33.31-33.353-33.31-18.405 0-33.352 14.905-33.352 33.31 0 1.318.068 2.613.227 3.885H31.92a43.481 43.481 0 0 1-.16-3.862c0-24.7 20.044-44.695 44.752-44.695 24.707-.023 44.751 19.996 44.751 44.695 0 1.295-.068 2.59-.159 3.862h-11.512ZM90.208 79.596a32.785 32.785 0 0 1-13.764 3.022c-4.915 0-9.579-1.091-13.742-3.022H42.954c8.19 9.27 20.18 15.11 33.535 15.11 13.355 0 25.345-5.84 33.535-15.11H90.208Z"/><path fill="#000" d="M63.93 53.851V51.83c0-.727.227-1.045.591-1.136v-10.02c-.455-.387-1.729.181-1.729 2.817v7.135l-.387.045V42.56c-.045-2.045 1.07-3.659 2.07-2.773-.886-1.408-2.388.591-2.388 2.886V53.83l1.07.045h.773v-.023ZM59.562 53.851v-2.226c0-.568.227-1 .568-1v-9.112c-.41.068-1.206.637-1.206 2.363v6.794l-.364-.045v-7.362c0-.909.57-3.158 1.616-2.704-.478-.682-1.911.34-1.911 2.863v10.43h1.297Z"/><path fill="#000" d="M51.577 53.852v-8.408l1.342-.181v8.589h.182v-7.953l1.07-.205 1.524-1.522h.045v-5.93l16.176-5.726v21.336h1.138V42.763l5.005-.772 2.73-2.34 1.57-.342v-.795l.364-.454 5.392-.91v1.682l-5.597.954.319.569.796-.114v13.61h.432V40.197l4.05-.591v14.247h13.832l-.022-2.045-.182-.455v-9.611l.386-.182v-.66l-.318-.294v-1.636l-1.183-.296-.137-.273v-.159l-1.888-.431-3.8.59v-.022l-2.502-.455v-1.181l-1.388-.341-.205-.455-2.434-.5.023.137-.16 1-4.982.931v-.727l1.365-.273v-.113c0-.182.205-.227.432-.296l3.186-.727v-.727l-.888-.272v-2.113l-.546-.296v-.863l-.25-.568-.933-.182-4.323-4.613v-.818h-1.842l-.797.5v.84l-4.072 2.682-.023-1.886-1.501-1-2.685 1.046v2.635l-11.057 4.318-1.615-.637-1.752.705V37.696l-.432.16v5.68l-2.366-.341-1.16.182-.342.34v1.477l-.182.319v8.407h.205v-.069ZM92.3 38.377l2.503.454 4.05-.636V39.673l-4.05.545-2.184-.363-.319-1.136v-.341ZM56.195 34.31l1.16-.454v1.409l13.31-5.204-.023-2.658 2.139-.84v4.975l-16.609 5.999V34.31h.023Zm-4.482 10.793v-1.431l1.32-.204v1.454l-1.32.181Z"/><path fill="#000" d="M86.226 47.694v5.566l-1.137-.045V47.74l1.137-.045ZM55.831 51.465V48.99h.41v2.477h-.41ZM55.034 51.465V48.99h.41v2.477h-.41ZM54.284 51.465V48.99l.41-.023v2.5h-.41ZM53.578 51.465v-2.499h.41v2.5h-.41ZM52.054 52.51v-3.453l.41-.023v3.5l-.41-.023ZM82.108 51.83v-4.023l-.887.023v3.977l.887.022ZM80.288 51.784v-3.931l-.932.045v3.863l.932.023ZM78.468 51.738v-3.817l-.865.023v3.771l.865.023ZM76.785 51.693v-3.727l-.82.023v3.681l.82.023ZM75.282 51.67v-3.658l-.864.022v3.613l.864.023ZM86.294 43.308v2.727l-1.183.068v-2.681l1.183-.114ZM55.831 48.352v-1.545l.41-.068v1.614h-.41ZM55.034 48.353v-1.477l.41-.046v1.523h-.41ZM54.284 48.353v-1.41l.41-.045v1.455h-.41ZM53.578 48.353v-1.341l.41-.068v1.409h-.41ZM52.054 48.353V47.08l.41-.068v1.363l-.41-.022ZM82.268 46.33v-2.499l-1.001.114v2.454l1-.069ZM80.334 46.444v-2.409l-.978.091v2.363l.978-.045ZM78.513 46.535v-2.34l-.865.09v2.295l.865-.045ZM76.83 46.626v-2.25l-.864.068v2.227l.864-.045ZM75.351 46.694v-2.181l-.887.09v2.136l.887-.045ZM69.254 54.101v-2.454c0-.727.455-1.09.774-1.295v-8.884c-.114-3.522-2.457-2-2.457 1.136v7.953l-.433.068v-8.52c-.09-1.841 1.047-4.659 2.184-3.66-.841-1.453-2.548.75-2.548 3.545v11.975l2.48.136Z"/><path fill="#000" d="M65.34 51.511v2.431l.934.046V37.537l3.73-1.182v-.613l-4.55 1.34v.387l.365.113V50.67c-.25.114-.478.387-.478.841ZM60.813 51.693v2.159h.797V38.9l2.957-.909v-.613l-3.662 1.113v.455l.364.068v11.61c-.342.092-.456.569-.456 1.069ZM57.673 53.851V40.036l2.276-.704v-.568l-2.89.886v.386l.319.023v10.543c-.182.068-.364.227-.364.66v2.589h.66Z"/><path fill="#fff" d="m56.081 84.14.046.068a.348.348 0 0 0-.091.136c-.091.182.432.864 1.114 1.25.66.364 1.047.341 1.206.046.273-.5-2.707-1.41-2.002-2.727.364-.682 1.252-.818 2.207-.295.887.477 1.388 1.136 1.57 1.227.09.045.16.022.227 0l.046.068-.978.704-.046-.09.046-.069c.09-.182-.546-.772-1.16-1.09-.57-.319-.843-.25-.933-.091-.342.613 2.775 1.34 1.91 2.908-.318.59-1.092 1-2.525.25-1.092-.59-1.41-1.182-1.547-1.25-.045-.023-.114 0-.182.023l-.068-.068 1.16-1ZM59.926 87.912l.045-.091c.182.045.228.023.25-.046l1.388-3.362c.023-.069.023-.114-.136-.205l.045-.09 1.41.59-.045.09c-.182-.045-.227-.022-.25.046l-1.388 3.363c-.022.068-.022.114.137.205l-.046.09-1.41-.59ZM64.135 85.458c.022-.068.022-.137-.16-.182l.023-.09 1.73.499-.023.09c-.16-.045-.205 0-.228.046-.023.091.819 1.818 1.138 2.545l.568-2c.023-.09-.022-.136-.113-.181l.022-.091 1.297.364-.023.09c-.182-.045-.227 0-.227.069l-1.001 3.499c-.023.068-.023.136.16.181l-.024.091-1.365-.386.023-.09c.136.045.182.022.182-.046.023-.091-.114-.25-1.365-3l-.683 2.364c-.022.068-.022.136.16.181l-.023.091-1.365-.386.023-.09c.182.044.227 0 .227-.07l1.047-3.498ZM72.94 88.616l-.069-.068c.023-.023.023-.068.023-.114.023-.159-.523-.431-1.137-.522-.592-.068-1.41.09-1.502.886-.114.795.637 1.159 1.229 1.25.25.022 1.274-.046 1.297-.273 0-.045-.023-.09-.023-.114l.09-.045.592 1.318-.09.045c-.023-.045-.046-.068-.092-.068-.136-.023-.887.318-1.98.16-1.182-.16-2.342-1.023-2.16-2.41.182-1.385 1.524-1.908 2.707-1.772.591.069 1.001.205 1.274.341.273.114.41.205.478.205a.174.174 0 0 0 .114-.046l.068.023-.82 1.204ZM77.763 89.843h-.092c-.022-.09-.068-.182-.227-.182h-1.388v.727h2.389c.091 0 .114-.045.137-.227h.09v1.364h-.09c-.023-.137-.046-.182-.137-.182l-3.708.022v-.09c.182-.023.204-.069.204-.137l-.022-3.635c0-.068-.023-.137-.205-.137v-.09h3.708c.091 0 .114-.046.137-.228h.09v1.364h-.09c-.023-.182-.046-.228-.137-.228h-2.389v.66h1.388c.16 0 .205-.069.228-.182h.09l.023 1.181ZM82.905 88.48l-.25-1.227.09-.023c0 .046.046.182.114.16.046 0 .364-.25.432-.273l-.045-.25c-.023-.114-.114-.114-.182-.114l-.023-.09 1.433-.274.023.091c-.09.023-.182.069-.16.182l.706 3.567c.023.114.114.114.205.114l.023.09-1.456.274-.023-.091c.09-.023.182-.069.16-.182l-.479-2.431c-.477.227-.523.25-.477.454l-.091.023ZM86.954 88.775l.09.023.023.068c.092.25.57.227 1.024.09.592-.18 1.07-.704.91-1.408-.41.41-.75.66-1.206.795-.728.228-1.546-.068-1.797-.886-.296-.954.546-1.59 1.297-1.84 1.183-.364 2.161.022 2.57 1.34.41 1.318-.363 2.386-1.546 2.75a3.333 3.333 0 0 1-.956.159c-.25 0-.41-.023-.432 0-.068.022-.091.045-.136.136l-.091-.023.25-1.204Zm-.046-1.613c.137.432.683.386.956.318.273-.09.75-.34.614-.795-.136-.432-.682-.387-.956-.318-.273.09-.75.34-.614.795ZM90.663 86.344l-.5-1.159.09-.045c.023.045.091.159.16.136l.363-.363-.09-.228a.136.136 0 0 0-.183-.068l-.045-.09 1.342-.569.046.091c-.091.046-.16.114-.114.205l1.41 3.34c.046.09.137.09.228.068l.045.09-1.365.569-.045-.091c.09-.045.16-.09.114-.205l-.979-2.294c-.41.318-.455.34-.386.545l-.091.068ZM93.96 85.867c.137-1 .456-2.977.433-3.022-.022-.046-.068-.023-.136 0l-.046-.091 1.547-.864.046.091c-.091.046-.137.091-.114.137l1.183 2.136.41-.228c.045-.022.09-.09.022-.204l.069-.046.546 1-.069.046c-.068-.137-.159-.114-.204-.091l-.41.227.228.432c.045.09.136.068.227.045l.046.09-1.16.637-.046-.09c.045-.046.114-.114.068-.205l-.227-.432-1.843 1.022c-.046.023-.091.091-.023.228l-.068.045-.478-.863Zm2.049-1.114-.888-1.59H95.1l-.365 2.272 1.275-.682ZM41.588 40.854l-.113-.022c.022-.16.045-.25-.091-.273-.114-.023-2.298 1.159-2.594 1.295l.637 1.454 1.229.273c.09.023.182 0 .273-.318l.113.023-.568 2.658-.114-.023c.045-.318-.023-.386-.114-.409l-4.823-1.045c-.091-.023-.182 0-.273.318l-.114-.022.569-2.659.114.023c-.046.318.022.386.113.409l1.866.409.023-.091c-.592-1.204-1.252-2.909-1.365-2.931-.114-.023-.137.068-.182.204l-.114-.023.705-3.271.114.022c-.045.341.023.432.182.796l1.047 2.567 3.73-1.954c.205-.114.228-.205.25-.386l.115.023-.615 2.953ZM43.295 33.038c.5.682.569.818.637.84.046.023.114 0 .205-.158l.114.068-1.16 2.022-.114-.068c.068-.182.068-.273-.046-.41-.16-.226-3.071-4.453-3.14-4.498-.068-.046-.159.068-.227.182l-.114-.068 1.706-3 .114.068c-.068.137-.09.228 0 .273.069.045 3.618.205 5.415.295.296 0 .387-.022.455-.159l.114.069-1.297 2.25-.114-.07c.091-.158.068-.249.023-.272-.045-.023-.91-.068-1.047-.09l-1.524 2.726Zm-.569-.704 1.229-2.136-2.821-.137 1.592 2.273ZM45.98 21.995c-.068-.068-.136-.09-.41.114l-.09-.091 2.366-2.136.09.09c-.227.205-.227.296-.181.342.068.09 3.071-.023 4.3-.023l-1.889-2.09c-.09-.091-.205-.069-.341.045l-.091-.091 1.797-1.636.091.09c-.227.228-.205.319-.136.387l3.321 3.636c.069.068.137.09.41-.114l.09.091-1.865 1.681-.09-.09c.181-.16.204-.228.136-.296-.091-.09-.432.023-5.096.068l2.23 2.454c.068.069.136.091.409-.113l.09.09-1.865 1.682-.09-.09c.227-.228.204-.319.136-.387l-3.322-3.613ZM57.81 16.564h.137c0 .069.022.137.068.205.114.25 1.592.09 2.844-.477 1.206-.546 1.638-1.045 1.433-1.454-.319-.705-4.892 2.363-5.756.522-.455-.954.41-2.158 2.161-2.976 1.638-.75 3.026-.91 3.345-1.068.159-.069.204-.182.25-.296l.16-.022-.206 1.704h-.159l-.045-.114c-.114-.25-1.593.114-2.73.636-1.047.477-1.297.886-1.183 1.091.386.84 4.868-2.5 5.892-.295.387.818.023 2.09-2.57 3.294-2.003.932-3.095.91-3.368 1.023-.09.045-.136.136-.182.227l-.16.046.07-2.046ZM70.164 13.315c-.25.795-.296.954-.296 1.023 0 .068.069.09.25.068l.023.136-2.343.273-.023-.137c.182-.045.25-.113.319-.272.09-.25 1.729-5.135 1.729-5.204 0-.068-.16-.068-.273-.068l-.023-.136 3.413-.432.023.136c-.137.023-.228.069-.228.16 0 .09 2.025 3.022 3.026 4.498.16.228.25.296.41.273l.022.137-2.593.318-.023-.137c.182-.022.25-.09.227-.159 0-.045-.5-.75-.568-.886l-3.072.41Zm.205-.886 2.434-.296-1.592-2.34-.842 2.636ZM80.47 11.906l.114.069c-.046.045-.046.113-.069.204-.045.273 1.252 1 2.617 1.25 1.297.227 1.934.09 2.002-.364.136-.772-5.37-.886-5.005-2.885.182-1.046 1.57-1.523 3.48-1.182 1.775.318 2.981.977 3.345 1.045a.55.55 0 0 0 .387-.09l.136.068-1.16 1.272-.137-.09.023-.114c.046-.25-1.388-.819-2.616-1.046-1.138-.204-1.57-.022-1.615.205-.16.931 5.414.75 4.982 3.158-.16.886-1.183 1.727-4.004 1.227-2.162-.386-3.049-1.045-3.345-1.09-.113-.023-.204.045-.295.09l-.16-.068 1.32-1.659ZM102.197 19.882l-.068-.137c.045-.022.068-.045.113-.113.137-.16-.523-1-1.433-1.659-.865-.636-2.184-1.159-2.844-.295-.637.863.25 1.977 1.115 2.613.364.273 1.956 1.09 2.138.84.046-.045.023-.113.023-.181l.159.023.114 2.135-.182-.045c.023-.09-.023-.114-.091-.182-.205-.159-1.547-.431-3.117-1.59-1.706-1.25-2.934-3.363-1.82-4.863 1.115-1.522 3.504-.954 5.187.318.842.636 1.388 1.16 1.752 1.568.342.41.501.636.615.704.068.046.136.069.204.046l.091.113-1.956.705ZM103.472 26.108l.091-.091c.227.25.318.227.386.159l3.8-3.113c.068-.068.114-.136-.091-.41l.091-.09 1.729 2.09-.091.091c-.228-.25-.319-.227-.387-.159l-3.776 3.136c-.069.068-.114.136.091.409l-.091.09-1.752-2.112ZM108.203 32.834l.114-.046c.159.296.25.296.341.25l3.549-1.75-1.001-2.022c-.068-.136-.136-.159-.364-.09l-.068-.137 1.684-.84.068.136c-.205.136-.228.204-.159.34l2.889 5.84c.068.136.136.159.364.09l.068.137-1.683.84-.069-.135c.205-.137.228-.205.16-.341l-1.001-2.023-3.55 1.75c-.091.046-.136.114 0 .41l-.113.044-1.229-2.453ZM117.645 43.831l.455 2.477-.114.023c-.022-.137-.136-.205-.25-.273l-3.276-1.977-2.025.363c-.091.023-.159.069-.114.41l-.113.022-.501-2.681.114-.023c.091.318.159.341.25.341l1.82-.34 2.389-3c.273-.34.296-.386.273-.5l.114-.023.523 2.863-.114.023c-.022-.159-.068-.318-.182-.295-.114.022-1.046 1.25-1.501 1.772.227.114 1.934 1.204 2.025 1.182.113-.023.091-.182.068-.319l.159-.045Z"/></g><defs><clipPath id="a"><path fill="#fff" d="M0 0h153v100H0z"/></clipPath></defs></svg>