<?xml version="1.0" encoding="utf-8"?>
<!-- Generator: Adobe Illustrator 26.4.1, SVG Export Plug-In . SVG Version: 6.00 Build 0)  -->
<svg version="1.1" id="Layer_1" xmlns="http://www.w3.org/2000/svg" xmlns:xlink="http://www.w3.org/1999/xlink" x="0px" y="0px"
	 viewBox="0 0 2400 1645" style="enable-background:new 0 0 2400 1645;" xml:space="preserve">
<style type="text/css">
	.st0{fill:#A82723;}
</style>
<g>
	<path class="st0" d="M275.1,1401.5c-0.2-1.1-0.3-2.1-0.3-2.9C274.8,1399.4,274.9,1400.4,275.1,1401.5c0.4,2.1,1.1,3.9,1.9,5.4v0.1
		v-0.1C276.3,1405.4,275.5,1403.6,275.1,1401.5"/>
	<path class="st0" d="M362.8,1408.4c0.9,0.5,1.9,0.9,2.9,1.3c0.5,0.2,1,0.4,1.5,0.6c-1.3-0.8-2.7-1.4-4.2-1.8
		C362.9,1408.5,362.8,1408.4,362.8,1408.4"/>
	<path class="st0" d="M425,1398.6c-0.1,2.8-0.2,5.6-0.4,8.2c0,0,0,0.1,0,0.2c0-0.1,0-0.1,0-0.1
		C424.7,1404.2,424.9,1401.4,425,1398.6"/>
	<path class="st0" d="M924.1,474.3c0-34-0.7-39.1-21-40.8l-8.1-0.6c-2-1.3-1.3-7.1,0.6-8.1c18.1,0.6,29.1,1,42.1,1
		c12.6,0,23.6-0.3,39.8-1c1.9,1,2.6,6.8,0.6,8.1l-7.7,0.6c-19.1,1.6-19.7,6.8-19.7,40.8v112.5c0,20.4,1,28.8,6.8,34.9
		c3.6,3.6,9.7,7.4,35.3,7.4c27.5,0,34.3-1.3,39.4-4.2c6.5-3.9,14.9-15.5,21.3-32c1.9-1.6,8.1-0.3,8.1,1.9c0,3.6-9.1,36.6-13.6,45.3
		c-16.5-0.6-47.2-1-80.5-1h-29.7c-13.6,0-23.9,0.3-42.1,1c-1.9-1-2.6-6.1-0.6-8.1l9.7-1c18.8-1.9,19.4-6.5,19.4-40.4V474.3z"/>
	<path class="st0" d="M1138.1,572.2c4.9-1.6,5.5-4.5,5.5-9.4l0.3-14.9c0.3-12-3.6-28.1-23.6-28.1c-9,0-20,4.5-20.7,14.5
		c-0.3,5.2-0.7,9.1-3.2,11c-4.9,3.9-13.6,6.2-18.4,6.2c-2.9,0-4.5-1.6-4.5-4.5c0-16.8,36.6-39.8,60.1-39.8
		c23.3,0,34.6,13.6,33.6,37.8l-1.9,56.3c-0.7,14.9,2.3,28.1,14.9,28.1c3.2,0,6.1-1,8.1-1.9c1.6-1,3.2-2.3,4.2-2.3
		c1.3,0,2.3,1.9,2.3,4.2c0,1.6-11.3,14.2-27.2,14.2c-7.8,0-15.6-2.9-21-10c-1.3-2-3.2-4.5-5.2-4.5c-2.3,0-6.2,2.9-12.6,6.5
		c-7.1,3.9-14.2,8.1-23.3,8.1c-9.4,0-17.2-2.6-22.7-7.4c-6.1-5.5-10-13.6-10-22.7c0-12.6,6.2-20,26.9-27.5L1138.1,572.2z
		 M1118.1,629.2c6.5,0,16.5-4.8,19.8-8.1c3.9-3.9,3.9-8.4,4.2-15.2l0.7-19.1c0-3.6-1.3-4.2-3.2-4.2s-7.4,1.3-13.3,3.2
		c-19.1,6.5-28.5,11.3-28.5,23.9C1097.7,615.3,1101.6,629.2,1118.1,629.2"/>
	<path class="st0" d="M1216.4,543.1c-7.4-18.1-11.3-21.3-19.4-23.3l-5.2-1.3c-1.6-1.6-1.9-6.4,1-7.7c10,0.7,19.1,1,28.8,1
		c10,0,19.4-0.3,28.1-1c2.6,1.3,2.9,6.1,0.6,7.7l-7.4,1.3c-4.5,0.6-7.1,2.6-7.1,4.5c0,1.9,1.6,8.1,5.2,16.8l20,49.5
		c2.9,7.4,5.8,13.3,5.8,13.9c1-0.6,3.6-6.1,7.4-15.5l15.8-39.1c4.2-10.4,4.5-14.5,2.9-18.8c-2.9-7.1-7.7-9.7-14.8-11.3l-5.2-1.3
		c-2.3-1.9-1.6-6.8,1-7.7c8.1,0.7,18.4,1,26.9,1c10,0,19.7-0.3,30.7-1c2.9,1,2.9,6.1,1,7.7l-6.8,1.3c-12.9,2.6-12.3,3.5-8.4,14.8
		c3.6,10.7,21,51.7,24.6,60.5c2,4.9,3.2,8.4,4.2,9c0.6-0.6,2.3-3.9,4.5-9c4.2-9.4,17.1-43.7,22-57.2c2.6-7.4,3.2-11.6,3.2-13.9
		c0-2-1.9-3.6-5.8-4.2l-8.1-1.3c-2.6-1.6-1.9-6.8,0.3-7.7c9.4,0.7,17.5,1,25.5,1c6.2,0,13.9-0.3,21-1c2.6,1.3,2.9,6.1,1,7.7
		l-6.5,1.3c-7.8,1.6-10.6,6.1-17.5,20.4c-8.7,18.1-24.2,56.9-30.4,73.4c-4.5,11.6-8.4,21-11,29.4c-1.3,1-2.6,1.3-4.2,1.3
		c-1.3,0-2.6-0.3-3.6-1.3c-1.9-5.8-7.8-22.6-13.2-35.6l-15.5-37.2c-2.3-5.8-7.1-16.5-7.4-16.5c-0.3,0-4.9,10-7.1,15.8l-16.8,40.4
		c-5.8,13.9-10.3,25.5-12.9,33c-1,1-2.3,1.3-3.9,1.3c-1.3,0-2.9-0.3-3.9-1.3c-2-6.8-7.1-20-9.7-26.8L1216.4,543.1z"/>
	<path class="st0" d="M1437.2,546.4c0-12.6,0-14.2-8.7-20l-2.9-1.9c-1.3-1.3-1.3-4.9,0.3-5.8c7.4-2.6,24.6-11,32.6-15.8
		c1.6,0.3,2.6,1,2.6,2.3v18.8c0,1.6,0.3,2.6,1,2.9c11.3-9.4,23.6-19.4,35.6-19.4c8.1,0,14.6,5.2,14.6,12.9
		c0,10.7-8.7,14.9-13.9,14.9c-3.2,0-4.8-1-7.1-2.3c-4.8-3.2-9.7-5.2-14.2-5.2c-5.2,0-9.1,2.9-11.6,6.5c-3.2,4.5-4.2,13.9-4.2,24.9
		v44c0,23.3,0.7,27.2,12.9,28.1l11.6,1c2.2,1.6,1.6,7.1-0.6,8.1c-15.2-0.6-24.6-1-35.9-1c-11.6,0-21.3,0.3-29.7,1
		c-2.3-1-2.9-6.5-0.6-8.1l6.2-1c11.9-2,12.3-4.9,12.3-28.1V546.4z"/>
	<path class="st0" d="M1552,556.4c-8.4,0-8.7,0.6-8.7,8.7c0,32.6,19.1,60.5,53.7,60.5c10.7,0,19.7-3.2,29.7-15.8
		c3.2-1,5.5,1,5.8,3.9c-10.7,22-33.9,30.1-50.8,30.1c-21,0-37.5-9.1-46.9-21.4c-9.7-12.6-13.6-27.8-13.6-42
		c0-39.8,26.2-73.1,65-73.1c27.8,0,45.9,19.1,45.9,38.5c0,4.5-0.7,7.1-1.3,8.4c-1,2-5.5,2.3-19.1,2.3H1552z M1572.1,546.7
		c23.9,0,31-1.3,33.6-3.2c1-0.6,2-1.9,2-6.1c0-9.1-6.2-20.4-24.9-20.4c-19.1,0-35.6,17.5-35.9,28.1c0,0.7,0,1.6,2.3,1.6H1572.1z"/>
	<path class="st0" d="M1669.7,546.4c0-12.6,0-14.2-8.7-20l-2.9-1.9c-1.3-1.3-1.3-4.9,0.3-5.8c7.4-2.6,25.9-11,32.3-15.8
		c1.3,0,2.9,0.6,3.6,2.3c-0.7,7.4-0.7,12.3-0.7,15.2c0,2,1.3,3.6,3.6,3.6c13.6-8.4,28.8-16.5,45.2-16.5c26.9,0,37.9,18.4,37.9,40.1
		V603c0,23.3,0.6,26.5,12.3,28.1l7.1,1c2.3,1.6,1.6,7.1-0.6,8.1c-9.7-0.6-19.1-1-30.4-1c-11.6,0-21.3,0.3-30.1,1
		c-2.2-1-2.9-6.5-0.6-8.1l6.1-1c12-2,12.3-4.9,12.3-28.1v-48.2c0-18.4-8.4-32-30.4-32c-12.3,0-23,5.2-27.5,11.3
		c-4.2,5.5-4.9,10-4.9,19.4V603c0,23.3,0.7,26.2,12.3,28.1l5.8,1c2.2,1.6,1.6,7.1-0.7,8.1c-8.7-0.6-18.1-1-29.4-1
		c-11.6,0-21.3,0.3-30.4,1c-2.3-1-2.9-6.5-0.7-8.1l6.8-1c11.9-1.6,12.3-4.9,12.3-28.1V546.4z"/>
	<path class="st0" d="M1926.5,512.7c2.6,2.3,4.9,7.4,4.9,12.9c0,5.8-3.2,12-7.1,12c-1.6,0-3.2-0.7-4.5-2.3
		c-7.1-8.7-19.1-17.1-32.3-17.1c-22.7,0-44.6,17.8-44.6,52.1c0,25.2,17.5,55.3,52.1,55.3c18.8,0,28.4-8.4,35.9-19.4
		c2.6-0.6,5.5,1.6,5.8,4.5c-11,24-35.3,33-54,33c-17.1,0-33-5.5-44.3-16.5c-11.3-11-18.8-26.8-18.8-47.9c0-34.9,24.6-72.1,78.3-72.1
		C1905.1,507.2,1917.7,508.9,1926.5,512.7"/>
	<path class="st0" d="M1979.2,556.4c-8.4,0-8.7,0.6-8.7,8.7c0,32.6,19.1,60.5,53.7,60.5c10.7,0,19.7-3.2,29.7-15.8
		c3.2-1,5.5,1,5.8,3.9c-10.7,22-33.9,30.1-50.8,30.1c-21,0-37.5-9.1-46.9-21.4c-9.7-12.6-13.6-27.8-13.6-42
		c0-39.8,26.2-73.1,65-73.1c27.8,0,45.9,19.1,45.9,38.5c0,4.5-0.7,7.1-1.3,8.4c-1,2-5.5,2.3-19.1,2.3H1979.2z M1999.2,546.7
		c23.9,0,31-1.3,33.6-3.2c1-0.6,2-1.9,2-6.1c0-9.1-6.1-20.4-24.9-20.4c-19.1,0-35.6,17.5-35.9,28.1c0,0.7,0,1.6,2.3,1.6H1999.2z"/>
	<path class="st0" d="M950.6,855.8c0,33.9,0.6,38.2,21.3,40.4l8.7,1c1.9,1.6,1.3,7.1-0.7,8.1c-18.4-0.6-29.1-1-42-1
		c-13.6,0-25.2,0.3-39.5,1c-1.9-1-2.6-6.2-0.6-8.1l6.8-1c18.7-2.6,19.4-6.5,19.4-40.4V736.5c0-27.5-0.7-33-15.2-34.6l-11.6-1.3
		c-2.2-1.9-1.9-6.8,0.7-8.1c17.1-2.3,37.2-2.6,64-2.6c26.8,0,46.9,3.5,62.1,12.9c14.8,9.4,25.9,26.2,25.9,48.5
		c0,29.7-18.4,44.6-32.4,51.4c-14.2,6.8-31.4,9.7-44.6,9.7c-2.3-1-2.3-5.8-0.3-6.4c34.9-6.5,47.5-26.2,47.5-54.3
		c0-31.4-18.4-51.8-52.1-51.8c-17.1,0-17.4,1.3-17.4,11.6V855.8z"/>
	<path class="st0" d="M1082.2,811.5c0-12.6,0-14.2-8.7-20l-2.9-1.9c-1.3-1.3-1.3-4.9,0.3-5.8c7.4-2.6,24.6-11,32.7-15.8
		c1.6,0.3,2.6,1,2.6,2.3v18.8c0,1.6,0.3,2.6,1,2.9c11.3-9.4,23.6-19.4,35.6-19.4c8.1,0,14.5,5.2,14.5,12.9
		c0,10.7-8.7,14.9-13.9,14.9c-3.2,0-4.9-1-7.1-2.3c-4.9-3.2-9.7-5.2-14.2-5.2c-5.2,0-9.1,2.9-11.6,6.5c-3.2,4.5-4.2,13.9-4.2,24.9
		v44c0,23.3,0.6,27.2,12.9,28.2l11.6,1c2.2,1.6,1.6,7.1-0.6,8.1c-15.2-0.6-24.6-1-35.9-1c-11.6,0-21.4,0.3-29.7,1
		c-2.3-1-2.9-6.4-0.6-8.1l6.2-1c11.9-2,12.3-4.9,12.3-28.2V811.5z"/>
	<path class="st0" d="M1197,821.6c-8.4,0-8.7,0.7-8.7,8.7c0,32.6,19.1,60.5,53.7,60.5c10.7,0,19.7-3.2,29.7-15.8
		c3.2-1,5.5,1,5.8,3.9c-10.7,22-33.9,30.1-50.8,30.1c-21,0-37.5-9.1-46.9-21.3c-9.7-12.6-13.6-27.8-13.6-42
		c0-39.8,26.2-73.1,65-73.1c27.8,0,45.9,19.1,45.9,38.5c0,4.5-0.6,7.1-1.3,8.4c-1,2-5.5,2.3-19.1,2.3H1197z M1217,811.9
		c23.9,0,31-1.3,33.6-3.2c1-0.6,2-1.9,2-6.1c0-9-6.2-20.4-24.9-20.4c-19.1,0-35.6,17.5-35.9,28.2c0,0.7,0,1.6,2.3,1.6H1217z"/>
	<path class="st0" d="M1371.6,778.2c2.9,7.1,5.2,17.5,5.2,26.2c-1.3,2.3-6.2,2.9-7.8,1c-5.5-14.2-15.2-23.6-28.4-23.6
		c-12.6,0-20.7,8.1-20.7,19.7c0,13.3,13.6,20.4,24.9,26.8c17.1,9.7,33,20.7,33,43.7c0,24.6-22.6,36.8-46.6,36.8
		c-15.2,0-26.5-3.2-34.6-9.7c-2.6-6.1-4.5-22-3.9-32.7c1.6-1.9,5.8-2.2,7.5-0.3c5.5,17.8,15.8,33.3,34.3,33.3
		c11.6,0,21.7-6.8,21.7-20.7c0-14.9-13-23-24.9-29.8c-18.8-10.7-32-22-32-39.8c0-23.6,19.4-36.9,44-36.9
		C1356.7,772.4,1368.7,775.6,1371.6,778.2"/>
	<path class="st0" d="M1429.5,821.6c-8.4,0-8.7,0.7-8.7,8.7c0,32.6,19.1,60.5,53.7,60.5c10.7,0,19.7-3.2,29.7-15.8
		c3.2-1,5.5,1,5.8,3.9c-10.7,22-33.9,30.1-50.8,30.1c-21,0-37.5-9.1-46.9-21.3c-9.7-12.6-13.6-27.8-13.6-42
		c0-39.8,26.2-73.1,65-73.1c27.8,0,45.9,19.1,45.9,38.5c0,4.5-0.6,7.1-1.3,8.4c-1,2-5.5,2.3-19.1,2.3H1429.5z M1449.5,811.9
		c23.9,0,31.1-1.3,33.6-3.2c1-0.6,2-1.9,2-6.1c0-9-6.1-20.4-24.9-20.4c-19.1,0-35.6,17.5-35.9,28.2c0,0.7,0,1.6,2.3,1.6H1449.5z"/>
	<path class="st0" d="M1547.2,811.5c0-12.6,0-14.2-8.7-20l-2.9-1.9c-1.3-1.3-1.3-4.9,0.3-5.8c7.4-2.6,24.6-11,32.7-15.8
		c1.6,0.3,2.6,1,2.6,2.3v18.8c0,1.6,0.3,2.6,1,2.9c11.3-9.4,23.6-19.4,35.6-19.4c8.1,0,14.5,5.2,14.5,12.9
		c0,10.7-8.7,14.9-13.9,14.9c-3.2,0-4.9-1-7.1-2.3c-4.9-3.2-9.7-5.2-14.2-5.2c-5.2,0-9,2.9-11.7,6.5c-3.2,4.5-4.2,13.9-4.2,24.9v44
		c0,23.3,0.6,27.2,12.9,28.2l11.6,1c2.2,1.6,1.6,7.1-0.6,8.1c-15.2-0.6-24.6-1-35.9-1c-11.6,0-21.3,0.3-29.7,1
		c-2.3-1-2.9-6.4-0.6-8.1l6.2-1c11.9-2,12.3-4.9,12.3-28.2V811.5z"/>
	<path class="st0" d="M1655.2,808.9c-4.8-12-7.8-22.3-19.4-23.9l-6.5-1c-1.9-2.6-1.6-7.1,1-8.1c8.1,0.6,19.4,1,30.4,1
		c8.7,0,15.2-0.3,26.2-1c2.3,1.3,2.6,6.5,0.3,8.1l-3.9,0.7c-10,1.6-10.3,3.2-7.1,12.9c7.4,22.3,16.8,44.9,24.2,61.8
		c2.9,6.5,4.2,9.4,5.2,10.4c1.3-1,3.6-5.5,6.2-12.3c4.2-11,15.2-39.1,18.4-47.6c4.5-11.3,5.8-18.1,5.8-20c0-2.9-1.9-4.2-5.8-4.8
		l-7.4-1c-2-2.2-1.6-6.8,0.6-8.1c10,0.6,18.1,1,24.2,1c8.1,0,13.6-0.3,22.6-1c2.3,1.3,2.6,6.1,0.7,8.1l-4.9,0.7
		c-11.3,1.6-14.2,10-23.6,28.1c-4.5,8.7-24.6,55.6-29.8,68.9c-3.2,8.1-6.5,15.5-10.7,26.5c-0.6,1-2,1.3-3.2,1.3
		c-1.6,0-3.2-0.3-4.2-1.3c-2.6-9.1-7.4-21.7-12.3-33.6L1655.2,808.9z"/>
	<path class="st0" d="M1843.4,837.4c4.9-1.6,5.5-4.5,5.5-9.4l0.3-14.9c0.3-12-3.6-28.1-23.6-28.1c-9.1,0-20,4.5-20.7,14.5
		c-0.3,5.2-0.7,9.1-3.2,11c-4.9,3.9-13.6,6.2-18.5,6.2c-2.9,0-4.5-1.6-4.5-4.5c0-16.8,36.5-39.8,60.1-39.8
		c23.3,0,34.6,13.6,33.6,37.8l-1.9,56.3c-0.7,14.9,2.3,28.2,14.8,28.2c3.2,0,6.2-1,8.1-1.9c1.6-1,3.2-2.3,4.2-2.3
		c1.3,0,2.3,2,2.3,4.2c0,1.6-11.3,14.2-27.2,14.2c-7.8,0-15.6-2.9-21-10c-1.3-2-3.2-4.5-5.2-4.5c-2.3,0-6.2,2.9-12.6,6.5
		c-7.1,3.9-14.3,8.1-23.3,8.1c-9.4,0-17.1-2.6-22.6-7.4c-6.2-5.5-10.1-13.6-10.1-22.6c0-12.6,6.2-20,26.9-27.5L1843.4,837.4z
		 M1823.3,894.3c6.5,0,16.5-4.9,19.8-8.1c3.9-3.9,3.9-8.4,4.2-15.2l0.7-19.1c0-3.6-1.3-4.2-3.2-4.2c-1.9,0-7.4,1.3-13.3,3.2
		c-19.1,6.5-28.5,11.3-28.5,23.9C1802.9,880.4,1806.8,894.3,1823.3,894.3"/>
	<path class="st0" d="M1955.6,790.5c-5.5,0-5.8,1-5.8,7.8v60.5c0,18.8,2.3,35.9,23.6,35.9c3.2,0,6.1-0.7,8.8-1.6
		c2.9-1,7.1-4.5,8.1-4.5c2.6,0,3.9,3.6,3.2,5.5c-5.8,6.8-17.5,14.9-33.9,14.9c-27.8,0-33.6-15.5-33.6-34.9v-74.1
		c0-8.7-0.3-9.4-6.8-9.4h-9.1c-2-1.3-2.3-4.8-1-6.8c9.4-2.9,17.5-7.1,20.7-10c4.2-3.9,10.4-12.6,13.6-19.1c1.6-0.6,5.5-0.6,6.8,1.6
		v14.5c0,5.8,0.3,6.2,5.8,6.2h35.9c3.9,2.9,3.2,11.6,0.3,13.6H1955.6z"/>
	<path class="st0" d="M2028.3,811.5c0-12.6,0-14.2-8.7-20l-2.9-1.9c-1.3-1.3-1.3-4.9,0.3-5.8c7.4-2.6,25.9-11,33.3-15.8
		c1.6,0,2.9,0.7,3.2,1.9c-0.6,11.3-1.3,26.8-1.3,40.1v58.2c0,23.3,0.7,26.5,12.3,28.1l6.8,1c2.2,1.6,1.6,7.1-0.7,8.1
		c-9.7-0.6-19.1-1-30.4-1c-11.6,0-21.3,0.3-30.4,1c-2.3-1-3-6.5-0.7-8.1l6.8-1c12-1.6,12.3-4.9,12.3-28.1V811.5z M2055.2,719.4
		c0,11.6-8.1,16.8-17.1,16.8c-10,0-16.5-7.4-16.5-16.2c0-10.7,7.8-17.5,17.5-17.5C2048.7,702.6,2055.2,710.3,2055.2,719.4"/>
	<path class="st0" d="M2225.6,839.4c0,40.4-27.8,69.5-68.2,69.5c-37.2,0-66.3-26.2-66.3-66.6c0-40.7,30.7-69.8,68.9-69.8
		C2196.1,772.4,2225.6,799.6,2225.6,839.4 M2156.1,782.1c-21.4,0-37.2,20.4-37.2,55.9c0,29.4,13.3,61.1,41.7,61.1
		c28.5,0,37.2-29.8,37.2-54.6C2197.8,817,2186.8,782.1,2156.1,782.1"/>
	<path class="st0" d="M2268.6,811.5c0-12.6,0-14.2-8.7-20l-2.9-1.9c-1.3-1.3-1.3-4.9,0.3-5.8c7.4-2.6,25.9-11,32.4-15.8
		c1.3,0,2.9,0.7,3.6,2.3c-0.7,7.4-0.7,12.3-0.7,15.2c0,2,1.3,3.6,3.6,3.6c13.6-8.4,28.8-16.5,45.3-16.5c26.8,0,37.8,18.4,37.8,40.1
		v55.6c0,23.3,0.7,26.5,12.3,28.2l7.1,1c2.3,1.6,1.6,7.1-0.7,8.1c-9.7-0.6-19.1-1-30.4-1c-11.6,0-21.4,0.3-30.1,1
		c-2.2-1-2.9-6.4-0.6-8.1l6.1-1c11.9-2,12.3-4.9,12.3-28.2v-48.2c0-18.4-8.4-32-30.4-32c-12.3,0-23,5.2-27.5,11.3
		c-4.2,5.5-4.8,10-4.8,19.4v49.5c0,23.3,0.7,26.2,12.3,28.2l5.8,1c2.2,1.6,1.6,7.1-0.7,8.1c-8.7-0.6-18.1-1-29.4-1
		c-11.6,0-21.3,0.3-30.4,1c-2.3-1-2.9-6.4-0.7-8.1l6.8-1c11.9-1.6,12.3-4.9,12.3-28.2V811.5z"/>
	<path class="st0" d="M1014.3,1102.9c-2.2-7.1-3.6-8.1-13.3-8.1h-48.8c-8.1,0-10,1-12.3,7.8l-11.3,34c-4.9,14.6-7.1,23.3-7.1,26.8
		c0,3.9,1.6,5.8,9.4,6.5l10.7,1c2.2,1.6,2.2,6.8-0.7,8.1c-8.4-0.7-18.4-0.7-33.6-1c-10.7,0-22.3,0.6-31.1,1
		c-1.9-1.3-2.6-6.5-0.6-8.1l10.7-1c7.7-0.6,14.9-4.2,19.4-15.8c5.8-14.9,14.9-35.9,28.4-72.1l33-87.3c4.5-11.6,6.5-17.8,5.5-23
		c7.8-2.3,13.3-8.1,16.8-12.3c2,0,4.2,0.7,4.9,2.9c4.2,14.2,9.4,29.1,14.2,43.3l44.3,130c9.4,27.8,13.6,32.7,27.5,34.3l8.7,1
		c2.3,1.6,1.6,6.8,0,8.1c-13.3-0.7-24.6-1-39.1-1c-15.5,0-27.8,0.6-37.2,1c-2.6-1.3-2.9-6.5-0.6-8.1l9.4-1
		c6.8-0.6,11.3-2.6,11.3-5.8c0-3.6-1.6-9.4-4.2-17.1L1014.3,1102.9z M950.2,1074.1c-2.6,7.4-2.3,7.8,6.8,7.8h39.8
		c9.4,0,10-1.3,7.1-10l-17.5-52.7c-2.6-7.8-5.5-16.5-7.4-20.4h-0.7c-1,1.6-4.2,9.4-7.8,19.1L950.2,1074.1z"/>
	<path class="st0" d="M1136.5,1141.7c0,23.3,0.7,26.5,12.3,28.1l7.8,1c2.2,1.6,1.6,7.1-0.6,8.1c-10.7-0.7-20-1-31.4-1
		c-11.6,0-21.3,0.3-31.1,1c-2.3-1-2.9-6.5-0.7-8.1l7.4-1c12-1.6,12.3-4.8,12.3-28.1V995.5c0-19.1-0.3-21-10-26.9l-3.2-2
		c-1.6-1-1.6-5.5,0-6.5c8.1-2.6,23.3-7.4,34.9-13.6c1.3,0,2.6,0.6,3.2,1.9c-0.3,9.7-1,25.9-1,40.1V1141.7z"/>
	<path class="st0" d="M1216.4,1141.7c0,23.3,0.6,26.5,12.3,28.1l7.8,1c2.3,1.6,1.6,7.1-0.6,8.1c-10.7-0.7-20-1-31.4-1
		c-11.7,0-21.4,0.3-31.1,1c-2.2-1-2.9-6.5-0.6-8.1l7.5-1c11.9-1.6,12.3-4.8,12.3-28.1V995.5c0-19.1-0.3-21-10-26.9l-3.3-2
		c-1.6-1-1.6-5.5,0-6.5c8.1-2.6,23.3-7.4,34.9-13.6c1.3,0,2.6,0.6,3.2,1.9c-0.3,9.7-1,25.9-1,40.1V1141.7z"/>
	<path class="st0" d="M1275.5,1085.1c0-12.6,0-14.2-8.7-20l-2.9-1.9c-1.3-1.3-1.3-4.9,0.3-5.8c7.4-2.6,25.9-11,33.3-15.8
		c1.6,0,2.9,0.7,3.2,1.9c-0.7,11.3-1.3,26.8-1.3,40.1v58.2c0,23.3,0.7,26.5,12.3,28.1l6.8,1c2.3,1.6,1.6,7.1-0.6,8.1
		c-9.7-0.7-19.1-1-30.4-1c-11.6,0-21.3,0.3-30.4,1c-2.3-1-2.9-6.5-0.6-8.1l6.8-1c12-1.6,12.3-4.9,12.3-28.1V1085.1z M1302.4,993
		c0,11.6-8.1,16.8-17.2,16.8c-10,0-16.5-7.4-16.5-16.2c0-10.7,7.8-17.5,17.5-17.5C1295.9,976.1,1302.4,983.9,1302.4,993"/>
	<path class="st0" d="M1403.6,1111c4.9-1.6,5.5-4.5,5.5-9.4l0.3-14.9c0.3-12-3.6-28.1-23.6-28.1c-9.1,0-20,4.5-20.7,14.5
		c-0.3,5.2-0.6,9.1-3.2,11c-4.9,3.9-13.6,6.2-18.4,6.2c-2.9,0-4.5-1.6-4.5-4.5c0-16.8,36.5-39.8,60.2-39.8
		c23.3,0,34.6,13.6,33.6,37.8l-1.9,56.3c-0.6,14.9,2.2,28.1,14.9,28.1c3.2,0,6.1-1,8.1-1.9c1.6-1,3.2-2.3,4.2-2.3
		c1.3,0,2.3,2,2.3,4.2c0,1.6-11.3,14.2-27.2,14.2c-7.8,0-15.5-2.9-21-10c-1.3-2-3.2-4.5-5.2-4.5c-2.2,0-6.1,2.9-12.6,6.5
		c-7.1,3.9-14.2,8.1-23.2,8.1c-9.4,0-17.2-2.6-22.7-7.4c-6.1-5.5-10-13.6-10-22.7c0-12.6,6.1-20,26.8-27.5L1403.6,1111z
		 M1383.6,1167.9c6.5,0,16.5-4.8,19.7-8.1c3.9-3.9,3.9-8.4,4.2-15.2l0.7-19.1c0-3.5-1.3-4.2-3.2-4.2s-7.4,1.3-13.2,3.2
		c-19.1,6.5-28.5,11.3-28.5,23.9C1363.2,1154,1367.1,1167.9,1383.6,1167.9"/>
	<path class="st0" d="M1489.3,1085.1c0-12.6,0-14.2-8.7-20l-2.9-1.9c-1.3-1.3-1.3-4.9,0.3-5.8c7.4-2.6,25.9-11,32.3-15.8
		c1.3,0,2.9,0.7,3.6,2.3c-0.7,7.4-0.7,12.3-0.7,15.2c0,1.9,1.3,3.6,3.6,3.6c13.6-8.4,28.8-16.5,45.3-16.5
		c26.8,0,37.8,18.4,37.8,40.1v55.6c0,23.3,0.7,26.5,12.3,28.1l7.1,1c2.2,1.6,1.6,7.1-0.7,8.1c-9.7-0.7-19.1-1-30.4-1
		c-11.6,0-21.3,0.3-30.1,1c-2.2-1-2.9-6.5-0.6-8.1l6.1-1c12-2,12.3-4.9,12.3-28.1v-48.2c0-18.4-8.4-32-30.4-32
		c-12.3,0-23,5.2-27.5,11.3c-4.2,5.5-4.9,10-4.9,19.4v49.5c0,23.3,0.7,26.2,12.3,28.1l5.8,1c2.2,1.6,1.6,7.1-0.6,8.1
		c-8.8-0.7-18.1-1-29.5-1c-11.6,0-21.3,0.3-30.4,1c-2.3-1-3-6.5-0.7-8.1l6.8-1c11.9-1.6,12.3-4.9,12.3-28.1V1085.1z"/>
	<path class="st0" d="M1746,1051.5c2.6,2.3,4.9,7.4,4.9,12.9c0,5.8-3.2,12-7.1,12c-1.6,0-3.2-0.7-4.5-2.3
		c-7.1-8.7-19.1-17.1-32.3-17.1c-22.6,0-44.6,17.8-44.6,52.1c0,25.2,17.5,55.3,52.1,55.3c18.8,0,28.5-8.4,35.9-19.4
		c2.6-0.6,5.5,1.6,5.8,4.5c-11,23.9-35.2,33-54,33c-17.1,0-33-5.5-44.3-16.5c-11.3-11-18.8-26.8-18.8-47.9
		c0-34.9,24.6-72.1,78.3-72.1C1724.7,1046,1737.3,1047.6,1746,1051.5"/>
	<path class="st0" d="M1798.7,1095.1c-8.4,0-8.7,0.6-8.7,8.7c0,32.7,19.1,60.5,53.7,60.5c10.7,0,19.7-3.2,29.7-15.8
		c3.3-1,5.5,1,5.8,3.9c-10.7,22-33.9,30.1-50.7,30.1c-21,0-37.5-9.1-46.9-21.3c-9.7-12.6-13.6-27.8-13.6-42
		c0-39.8,26.2-73.1,65-73.1c27.8,0,45.9,19.1,45.9,38.5c0,4.5-0.6,7.1-1.3,8.4c-1,2-5.5,2.3-19.1,2.3H1798.7z M1818.8,1085.4
		c23.9,0,31-1.3,33.6-3.2c1-0.6,2-1.9,2-6.1c0-9.1-6.2-20.4-24.9-20.4c-19.1,0-35.6,17.5-35.9,28.2c0,0.7,0,1.6,2.3,1.6H1818.8z"/>
	<path class="st0" d="M487.1,1114.5c3.2-2.2,6.6,0.8,9.5-0.5c5.6-2.4,4.8-10.3-0.2-14.9c-1.5-0.3-3.1-0.7-4.6-1c-2-2.9-6-4.1-8-7.2
		c-1.5-2.2-2.4-5.7-3.6-8.6c-2.9-7.1-3.3-16.8-9.1-23.3c-0.7-0.9-2.1-1.4-3.1-2.4c-0.9-0.9-2-2.2-2.9-3c-4.7-4-8.5-4.9-14-6.4
		c1-11.4-4.6-24.9-12-29.6c-3.7-2.4-5.9-3.3-10-4.2c-4.5-1-10.3-1.7-14.7-0.8c-4.4,0.9-5.4,3.5-9,3.7c-7.2,4.6-10.6,9.3-15.6,15.4
		c-0.3,1.3,0,3-1.3,3.8c-6.7,0.3-13.9,0.5-23.3,4.2c-3.5,1.4-5.3,3.6-8.5,5.5c-1.5,0.9-3.3,1.1-4.7,1.9c-1.2,0.7-2.1,2.2-3,2.9
		c-1.4,1-3.1,2.2-4.5,2.8c-5.5,2.5-12.6,2.8-18.5,4.2c-1.4,0.3-2.7,1.4-4.3,1.8c-2.1,0.5-4.5-0.1-6.6,0.5c-2.6,0.8-5.1,6.8-3.9,9.4
		c0.4,0.9,2.1,1.6,4.2,2.6c3.9,1.8,9.9,3.5,13.7,4c1.5,0.2,3.5,0.3,4.4,0.1c2.8-0.5,4.4-2.8,6.3-1.5c0.8,2.3-1.4,4-1.9,6.4
		c-0.4,1.6,0.3,3.1,0,4.8c-0.5,2.4-2.3,5.4-2.8,8.1c-0.5,2.6-1.4,6.8,2.4,8c6.2-2.6,8-9.4,11.8-13.7c2-2.3,4.7-4.3,7.2-6.5
		c4.8-4.4,8.6-8.5,15.2-11.9c7.1-3.6,16.4-3.7,24.2-7.9c3.7-2,6.4-6.1,9.9-8.8c1.3,6.7-5.2,9.4-5.5,15.2c-3,1.2-2.9,4.1-4.4,6.2
		c-6.8,7.3-12.8,17-24.6,20.5c-2.9,3.7-7.6,5.2-11,8.2c-2.2,1.9-2.8,5.1-6,5.7c1-5.8,3-11.8,5.4-17.1c1.6-3.5,4.3-7.5,7-10.3
		c1.8-1.9,4.2-3.1,6.3-4.8c1.7-1.4,4.5-3.3,4.4-6.2c-3.3-0.4-5.2,1.9-9.9,2.5c-2.6,3.6-6,7.1-7.9,10.6c-1.3,2.6-3.7,4.6-4.7,6.7
		c-1.4,2.8-2.2,7.9-3.1,10.6c-0.9,2.8-2.1,4.4-2.8,6.7c-0.8,2.6-0.2,5.6-0.8,8.4c-0.6,3.2-2.9,6.2-1.6,9.2c3-0.2,3.6-3.7,5.4-6
		c2.7-3.4,6.9-5.7,10.4-8.5c1.9-1.5,3.4-3.6,5.5-4.1c0,3.3-0.3,6.4-0.5,9.4c-0.1,1.2,0.3,2.7,0.2,3.8c-0.3,1.7-1.6,2.9-1.4,4.8
		c0.1,2.6,1.4,5.4,3.1,7.2c3-4.2,5.2-8.8,11-11.5c0.5,3.5-1.3,7.3,1.3,10.7c-0.1,2.2-0.4,5.2,0,7.7c0.4,2.8,1.2,6.5,3.2,7.3
		c2.7-0.3,2.6-2.7,3.1-4.3c0.4-1.5,0.6-3.7,0.4-5c1.9-1.7,4.8-4.8,7.1-5.1c-1,5.6-2.6,11.1-3.5,17c-0.4,2.8-0.6,5.8-1.2,8.6
		c-0.7,2.8-2.1,5.6-2.3,8.4c-0.1,1.6,0.7,3.1,0.5,4.7c-0.2,1.8-1.1,3.4-1.3,5.2c-0.2,1.8,0.1,3.8-0.1,5.9c-0.4,3.6-2.3,7.3-2.5,10.9
		c-0.3,6.1,1.8,12.3-0.1,18.4c0.1,1.6,1.2,1.5,1.4,3c-2.1,3.1-0.5,6.6-0.4,9.7c0.1,2.9-0.5,5.5,0,7.8c1.3,6.9,1.2,15.1,3,20.8
		c-0.6,2.1-0.3,4.5-0.3,6.8c0,2.1-0.7,4.9-0.3,6.9c0.1,0.8,1.1,1.7,1.3,2.5c0.1,1.1-0.5,2.5-0.4,3.5c0.2,2.5,1.2,4.8,1.8,7.6
		c0.1,0.7-0.5,1.2-0.4,2c0.1,0.9,1.2,1.8,1.3,2.5c0.3,2.3-0.3,4.5,0.1,6.8c0.4,1.7,1.7,3.4,2.1,5.1c0.6,2.6,0.2,5.6,0.6,8.5
		c0.4,2.6,1.7,5,2.3,7.5c2.5,10.1,3.1,19.2,4.6,27.6c0.6,3.7,1.8,8,3.1,11.6c2.1,6,2.5,12,2.9,16c0.5,4.7,1.4,7.4,0.5,11
		c0.4,1.3,0.8,2.6,1.2,4c-0.5,1.1-1.1,2.2-1.4,3.3c0.4,6.1,0.5,11.9,0,17.4c-0.5,5.6-2.6,11.1-1.3,16.3c-1.5,0-0.6,1.4-1.4,1.9
		c0.7,1.8-0.4,2.7,0.5,4.7c-1.4,1.7-1.3,4.3-1.9,6.4c-0.6,2.1-1.4,4.1-1.9,6.4c-1,4.4-0.6,9.6-3.1,13.5c-0.3-0.4-0.5-0.8-0.8-1.2
		c-0.3,0.8-0.6,1.7-1,2.5c-0.2,2-0.5,3.8-1,5.5c-0.1-2.6-0.2-5.2,0.4-7.6c0.6-2.2,2.2-3.9,2.7-6.4c0.4-1.9-0.2-4.1-0.2-6.4
		c0-2.5,0.8-5.1,0.5-7.1c-0.2-2-1.6-4.1-2.1-6.6c-0.4-1.8-0.4-3.8-0.9-5.7c-3.6-12.2-12.9-25.4-28.6-29c-7-1.6-15.7-0.7-23.5-4.2
		c-9.5-4.3-7.9-13.9-14.5-20.2c-5.9,1.1-6.7,11-8.4,17.2c0.6,3.2,1.8,6.2,1.5,9.8c2.2,1.7,1.8,4.7,3,6.9c3.1,6.1,9,10.3,12.5,16.1
		c9.6,3,12.9,11.6,22.6,12.3c3.7,2.7,6.1,6,10.8,8.2c1.4,3.9,5.4,5.7,8.1,9.1c1.9,2.4,3,5.6,4.3,8.8c2.3,5.8,3.5,9.9,3.6,16.4
		c0,0.6,0,1.2,0,1.8c0.1-0.1,3.1,7.2,4.5,9.4c-1.1,2.5-2,5.4-1.2,7.6c-2.4,2-2.4,4.9-2.9,7.7c-0.9,4.4-2.8,8.7-3.8,12.7
		c-1.4,5.7-4.2,10.8-4,17.1c-3.1,5.1-4.4,11.4-6,16.8c-0.6,2.1-0.6,3.8-1,6.1c-1.7,8.6-5.9,17.4-4.2,27.4c-2.3,2.8-0.7,5.6-0.4,9.8
		c0.1,1.5-0.1,3.2,0,4.8c0.2,1.6,0.9,3.3,1.1,5c0.3,3.6-0.5,7.2-0.2,10.7c0.6,4.9,1.4,10.2,3,14.5c2.8,7.6,9.4,14,11.7,21
		c0.5,1.6-0.5,3.1,1,3.1c0.7-2.1-0.6-4.2-1.3-5.9c-2.1-4.5-5.2-8.6-7.1-13.7c-2.9-7.5-2.9-12.8-3-19.4c-0.1-5.5-0.1-11.2-0.3-13.4
		c0-3.9-1.1-8.3,1-11c-1-1.2-0.5-1.4-0.9-3.1c1.4-2,1.2-4.8,1.1-7.6c1.6-2.7,1.9-5.9,2.6-9c1.5-6.7,3-12.9,4.8-18.9
		c1-3,1.6-6.3,3.6-8.8c-0.4-2.9,1.2-6.3,2.3-9.9c1.6-5.2,1.8-11.7,5.5-13.7c-0.6-1.6-1.1-1.5-1-3.1c1.6-1.2,0.3-4.1,2.3-5.1
		c0.5-4.8,1-9.6,1.9-14.1c1-4.5,2.6-9.2,4.8-13c3.6-20,9.5-38.7,11.9-59.2c0.4-3.4,0.8-7.1,1.1-10.5c0.5-5.3,0.4-11.2,0.9-16.2
		c0.5-5.7-0.5-11.2,0.6-17.1c-1.6-0.9-0.7-3.5-0.5-4.7c7.3-4,10.9-9.3,14.6-15.5c8.1-13.8,13.7-28.8,25.5-39.7
		c6.2-10.2,18.3-17.3,27-25.6c3.7-3.5,6.9-7.3,10.2-10.8c1.5-1.6,4.3-3.3,4-6c-2.9-1.4-4.7,1.8-6.3,2.9c-4.2,2.6-7.9,3.3-12.3,4.2
		c-1.9,0.4-3.7,1.4-5.3,1.6c-4.8,0.8-11.6,0.7-15.5,1.3c-7.1,1.2-16,6.7-20.2,11.5c-2,2.3-5.4,5.8-6.3,7.7c-0.7,1.4-0.5,2.8-1.1,4.2
		c-0.8,1.8-2.2,3.2-2.9,4.7c-0.7,1.7-1.3,3.7-1.7,5.3c-1.9,7.5-2.8,15.7-4.1,23c-0.5,3.1-0.9,7.5-1.7,10.2c-0.2,0.6,0.5,1.1,0.4,1.3
		c-0.1,0.4-1.1,1.3-1.4,1.9c-1.3,3-2.2,6.2-4.8,8.2c-3.9-15.9-6.3-32.9-9.3-49.8c-1.3-7.3-3-14.7-3.8-22c-0.4-3.1,0-6.4-0.5-9.5
		c-0.5-3.2-1.7-6.4-2-9.6c-0.3-4.5,0.5-8.6,0-12.6c-0.2-1.9-0.4-3.7-0.7-5.6c-3-20-1.9-36.3-1-53.8c0.7-13.5,5.3-26.3,6-39
		c2.1-7.5,3.5-15.6,6-23.1c1.5-4.6,1.6-9.6,4.9-12.6c-0.3-3.9-1.5-10.1,2.6-10.5c1.9,7,4.6,10,7.8,14.5c5.4,7.6,10.6,11,16.4,15.8
		c3.2,0.4,5.5,2.6,8.4,3.7c3.4-1,5.1,1.2,8.3,0.4c2.5-3.2-1-5-2.9-7.8c-5.6-8.5-5.9-21.1-5.4-28.8c1.4,4.9,3.6,8.8,6.5,13.5
		c5,8.1,9.4,13.7,19.4,10c1.4-1.7,1.7-4,2.5-6.1c-1.1-4.8-4.2-9.6-4.6-13.6C476.9,1110.5,481.7,1114.8,487.1,1114.5 M328.5,1066.3
		c4.7-2.8,10-2.7,15-4.6c5.9-2.3,10-7.3,15.1-9c8.5-8.2,27-13.2,36.4-7.2c-2.1,0.1-3.1,1.7-5,2.5c-0.8,0.3-2.2,0-3.2,0.5
		c-0.7,0.3-1.3,1.4-1.9,1.6c-0.8,0.2-1.6-0.5-2.5-0.2c-1,0.3-2,1-3,1.4c-1.6,0.6-3.5,0.1-5.1,0.6c-1.6,0.5-2.9,1.8-4.6,2.4
		c-1.3,0.4-3,0.3-4.2,0.7c-7.7,2.9-13.6,8.1-19.4,12.2c-1.6,0.8-1.6-1.6-2.9-1.5C338.1,1068.1,331.8,1069.3,328.5,1066.3
		 M382.9,1057.9c-19.9,4.5-31.8,19.2-41,30.4c-0.4-4.5,1.8-7.7,2.2-11.8c4.9-3.6,8.4-7.8,12.8-11.6c6.7-2.9,16.7-5.3,26.3-8.5
		c3.6-1.2,7.1-3,10.1-3.5c1.9-0.3,4.2-0.7,5.6,0.7C393.3,1055.8,387,1058.4,382.9,1057.9 M378.8,1433.6c-0.6-3.5-4.2-4.6-6.5-6.6
		c-1.3-1.2-2-3-3.5-4.2c-3-2.4-6.9-3.3-10.4-5.1c-2.6-1.3-4.8-3.2-7.2-4.9c-2.2-1.6-4.7-2.9-6.8-4.3c-4.8-3.3-7.7-7.9-11.9-11
		c-2.1-6.5-7.7-11.2-4.7-20.2c0.4,0.2,0.9,0.3,1.3,0.5c3.3,4.3,1.6,8.6,5.2,11.6c4.2,3.4,10.3,5.9,16.1,7.1c0.8,0.1,1.2,0.5,1.8,0.6
		c4.3,0.6,9.2-0.3,13.8,0.9c7.3,1.9,12,6.7,17.5,10.4c2.8,4.9,5.2,9.8,7.5,14.8c-0.4,7.4,2.8,14.2,1.2,22c-0.6,2.8-2.2,5.2-2.4,8.4
		C386.8,1446.6,385.4,1438.8,378.8,1433.6 M424.3,1342.8c0.4-1.9,0.8-3.8,1.2-5.7c1.9-10.6,3.2-22.3,8.3-31.5
		c5.5-7.1,11.4-14.3,25.1-17.3c2.6-0.6,5.4-0.3,8.2-1.5c-0.7,4.6-7.4,5.9-8.4,10.3c-1.1,0.1-1.7,0.6-2.1,1.1c-0.9,1.1-2,2.2-1.7,3.9
		c-7.6,4.8-9.8,12.3-15.2,18.2c-0.6,1.8-1.9,3.2-1.8,5.3c-0.3,0.5-0.9,0.8-1.6,1c-2.2,8.5-8.9,14.7-11.3,23.2
		c-1.9,0.9-2.7,2.2-2.6,4.2C421.9,1350.3,423.5,1346.6,424.3,1342.8 M440,1053.6c0.3,1-0.4,1.5,0.3,2.8c-1.3,0.8-1.2-1.4-2.3-1.2
		C438.2,1054.3,438.9,1053.8,440,1053.6 M382.3,1109.8c-3.1,1.9-3.7,4.5-8.8,6.1c-2.4-5.1,0.7-10.5,1.7-15c5.7-2.1,8.3-5.2,13.4-8.4
		C387.8,1098.8,383.7,1103.6,382.3,1109.8 M414.6,1079.6c-0.1,1.8-0.2,3.7-0.2,5.4c-0.2,5.5-1.1,9.5-0.6,15.6
		c-1.4,3.7-3.8,6.9-6.1,10.1c-2.3,0.4-4,1.7-5.3,3.1c-1.4,1.5-1.5,3.6-2.7,5.2c-1.5,1.9-4.3,3-6.3,4.8c-1.9,1.7-3.6,4.3-6.8,4.5
		c-2.2-9.8,3.7-18.3,6.8-26.7c1.6-4.2,2.8-8.6,4.3-12.9c0.7-2.1,1.7-4.4,2.3-6.5c0.7-2.2,0.5-4.7,1.3-6.7c1.4-3.3,4.4-5.6,5.7-8.5
		c1.5-3.4,2.1-9.2,3.1-13.5c0.7-0.4,0.9,0.2,1.5,0c2.9,4.8,4.4,10.4,4.4,16C415.9,1072.5,415,1075.6,414.6,1079.6 M418.5,1093.9
		c0.4-9.3,3.5-18.5,1.2-29.3c-0.8-3.8-2.2-7.8-4.5-10.2c6.3-0.9,14.4,4.3,22.3,0.4c-3.5,3.3,0,6.6,1.8,10.6
		c1.4,3.1,3.2,8.4,3.9,12.8c0.5,2.8,0.4,6,0.8,8.9c1,7,1.6,10.5-1.2,15.3c1.2,10.8-1.5,19.4,4.1,32.5
		C431.4,1134.4,417.7,1112.1,418.5,1093.9 M460.7,1121.6c-2.8-3.2-5.7-9-7.1-12.3c-6.6-15.5-3.5-36.4-12.4-50.3
		c3,0.9,6.4-0.2,8.6,1.2c2.8,1.9,3.3,5.8,4.9,8.2c1.8,2.7,4.1,4.1,5.5,7c3,6.1,4.4,13.7,4.8,20.7c0.2,2.2-0.8,5.7,0.1,8.2
		c0.5,1.5,1.9,2.4,2.7,4c1.6,3.4,3.4,9.9,4.5,14.6C467.7,1126.9,463.3,1124.6,460.7,1121.6 M470.1,1101.8
		c-3.1-6.1-1.9-15.9-5.5-24.4c-3.7-8.6-9.4-13.3-12.7-19.3c-0.1-0.4-0.2-0.9-0.4-1.3c4.9-1,7.6,0.7,11.2,3.4
		c2.3,1.8,4.7,3.5,6.1,7.3c2.8,7.3,4.3,17.4,8.4,24.5c2,3.4,4.9,5.2,7,7c2.4,2.1,4.6,3.5,7.2,6c-2.9,1.8-3.8,2.2-7.6,1.8
		c-1.1-0.1-2.6,0-3-0.1c-1.3-0.3-3.3-1.7-5-2.3C472.9,1103.4,471.3,1103.9,470.1,1101.8"/>
	<path class="st0" d="M279.1,950.1c-9.1-2.4-5.7-19-2.2-24.9c-1.2-1.9-3.4-2.1-4.2-4.4c-2.1-6.3,2.5-15.1,8.6-15
		c0.6-2.8-1.9-4.9-2.4-7.7c-1.2-7.7,1.5-14,9.1-14.5c-2.1-5.2-3.2-12.2,3.3-13.2c-0.9-9.4,4.9-13.9,13.5-15.3
		c13.1-2,17.3,10,13.5,22.8c-0.8,1.4-2.8,1.7-2.8,3.8c0.9,4.4,4.8,7.8,4.6,12.8c-0.1,3.4-2.2,4.6-3,8c1.3,2.8,4.1,3,5.2,5.4
		c3.1,7.2-2.3,14-4.5,19c7.3,3.9,4.8,17.7,1.7,23.9c2.5,4.6,4.2,12.6,1.4,17.6c2.7,5.2,6.3,11.5,3.4,17.5c4.3,3.9,5.1,6.9,2.7,14.5
		c-2.6,8.3-7.4,16.8-14.2,21c-1.6-0.2-1.5,1.1-2.5,0.1c-1.9,2.4-5.4,3.3-6.6,6.6c-1.1,0.2-2,1.1-3,0.2c0.7,11-0.2,22.9-1.3,33.4
		c-0.8,7.6-1,16.8-2.1,26.2c-1.1,9-1.7,18.1-2.6,27.2c-0.7,7.4-2.3,14.7-2.8,22c-0.9,12.2-1,23.5-1,37.5c0,10.5-1.2,23.1-1.3,33.4
		c-0.1,8.2,0.8,16.9,1.3,25.4c0.4,7.4,0.5,15,1.2,22.3c2,22.9,1.7,43.7,4.4,68c2,18.4,6.4,36.7,8.7,55.3c3.6,28.7,6.9,56.3,9.9,88.5
		c2,21.3,3,47.4,7.8,66.8c0.3,1.4,1.2,5.1-0.3,4.7c-0.1,1.2,1.5,0.5,1.6,1.5c1,10.9,3.4,21.5,5.6,33.1c0.7,3.5,2.1,7,2.5,10.3
		c0.8,7.2-0.1,15,1.6,21.8c-3.1-5.4-6.1-11.9-8.7-17.3c0.9-3.5-1.5-7.4-1.5-9.8c0.8-1.9,1.3,1,1.1,2c0.7-4.4,0-8.8-1.7-13.5
		c-1.9,3,3.3,10.4-0.9,11c-0.3-2.1,2-2.2-1.1-2c-0.2-3.8-0.9-6.2-2-9.8c-0.3-1-0.9-0.8-1-1.5c-0.5-1.9-0.2-3.9-0.8-5.7
		c-0.3-1-1.3-1.9-1.6-3.1c-0.3-1.1,0.5-1.4,0.4-2.1c-0.1-0.5-1.6-3.3-1.7-5.1c-0.1-0.8,0.5-1.9,0.3-2.6c-0.4-2-1.8-3.6-2.3-5.6
		c-2.2-8.5-2.4-18-4.3-26.8c-4.2-19.7-9.2-39.2-11.4-59.8c-0.9-8.6-2.7-17.4-4.7-24.7c-2.1-7.9-2.7-17-4.7-24.8
		c-0.4-1.6-1.4-3-1.7-4.6c-0.3-1.4,0.1-2.8-0.2-4.1c-2.4-9.9-6.7-19.5-9.4-29.2c-0.5-1.9-0.8-3.7-1.3-5.7c-2.1-7.7-4-17.5-8.2-25.1
		c-1.2-7.5-4-12.2-6.9-18.9c-1.4-3.4-2.1-7.3-3.5-10.7c-1.5-3.7-3.7-7-5.5-10.6c-1.8-3.7-2.9-7.9-4.6-11.7
		c-2.4-5.5-5.9-10.7-8.2-16.3c-0.4-0.9,0.1-2.2-0.2-3.1c-0.6-1.7-2.4-3.7-3.2-5.5c-2.1-4.7-3.2-11.4-6.3-16.4
		c-1-1.5-3.4-3.9-3.8-7.1c-2.1,1-2.6,3.6-4.2,5.5c-0.5,0.6-1.7,0.4-2.4,1.2c-1.4,1.3-2.9,4.8-5.6,5c-3.3,0.1-7.2-4.4-8.3-7.9
		c-1.5-5-1.8-12.1-1.4-17.1c4.1-6.3,8.2-12.3,11.9-17.8c2,0.9,3.3-0.5,4.9-0.2c2.9,0.5,3.6,3.9,6.6,3.8c-0.2,4.2,4.8,6.1,5.9,9.1
		c0.5,1.3,0,3.2,0.3,4.7c0.6,4.1,2.9,8.7,4.5,12.8c4.9,11.9,9.2,24.4,14.7,36.2c1.3,2.8,2.8,7.3,4.5,11.2c1,2.3,2.8,4.6,3.8,7.1
		c1.2,3,1.6,6.2,3,9.2c9.3,22,18.3,44.3,24.2,68.5c-3.8-36.7-3.1-67.5-6.2-103.8c-0.3-3.2-1.1-8.9-1.7-13.5
		c-1.3-10.4-1.8-20.9-3.6-31c-2.1-12-6.5-23-9.1-34.4c-3.6-6.5-3.5-14.7-5.6-22.1c-0.4-1.2-1.2-1.8-1.6-3c-1.2-3.5-1.3-7.8-2.5-11.3
		c-1.2-3.5-3.2-6.4-4-9.7c-11.5,6.2-25.5-3.5-19.6-16.2c-1.6-0.8-3.9-1-5-2.4c-3.9-7.6,0-14.2,3-19.4c3.5-1.4,8.3-7.6,12.2-2.7
		c-0.8,8.1-12.5,8.4-11.5,16.7c5.2,1.1,8.4-3.9,13.6-4.3c0,2.1,1,2.8,0.8,5.2c4.1,0.7,9.4,0,12,2.5c-2.2-6.3,1-10.4-1.3-15.5
		c2.3-4.4,6.8-11.8,2.5-17.8c-4.9-2-6.6,1.8-8.1,6.1c-0.7,2.3-2.2,6.1-2,8.4c0.4,6.1,7.7,10,4.1,13.8c-6.6-2.8-8.8-14.1-7-22
		c-3.4,0.9-7.1-0.3-9.6-3.2c-1.7,0.7-0.5,4.2-1.2,5.8c-3.3,5.6-9.5,10.9-17.7,10.2c-2.9-7.5,3.5-13.9,7.3-20.1
		c0.2-0.4,0-1.7,0.4-2.1c2.2-2.8,5.7-5,9.7-4.2c0.6-1.7,0.4-4.2,0.7-6.3c-1.8-1.2-2.4,2.1-2.8,3.8c-7.7,0.5-8.3,9.4-16.9,7.6
		c-2.5-4.1-4.3-9.4-1.7-14c1.6-2.7,4.6-4.2,5-8c1.4,2.2,3.1-1.8,4.8-2.4c2.1-0.6,1.7,1.7,3.5,1.4c0.5-1.7,1.1-3.3,2.2-4.3
		c-0.9-1.9-1.9-3.6-3.7-4.5c-1.5-3.7-0.6-10.3-4.5-11.3c-0.6,1.3-0.7,3-1.3,4.3c-2.6,2-7.6,7.3-4.4,10.1c0.8-2,4-6.4,7-8.2
		c2.4,2.3,1,5.5,0.5,8.8c-4.2,2.9-6.6,9-12.4,8.9c-4.4-7.4-3.1-12.9-0.1-21.3c-2.3-2-4.2-1.4-6.5-2.3c-1-2.7-4.1-5.8-2.9-9.2
		c-1.9-2.9-4.8-3.2-6.3-5.9c-2.3-4.6,0.1-12.3,3.6-16.8c-1-0.8-2.2-1.5-3.5-1.9c-0.3-1.8,0-2.9,0.3-4.2c-2.8-2.5-6.7-3.6-9.7-5.8
		c-2.4-4.2,0.3-9.2,2.9-11.6c-2.5-6.5-2-15.1,3.1-15.8c1.9-0.2,7.5,2.8,9.6,4.7c4.4,4.2,5,11.2,2.3,16.5c1.2,0.6,4.4-6,5.6-6
		c1.3,0,3.5,2.1,1.7,4.6c2-1.8,1.8,2.1,1.2,3.1c-0.9-0.1,0.3-1.6-1.1-2.1c-4.1,1.2-4.7,5.8-6.4,9.2c-1.6,1.4-4.6,1.5-5.7,3.4
		c1.1,2,2.6,3.6,5.1,3.9c2-0.8,2-3.4,2.2-5.9c2.6-4.4,10.9-9.4,16.5-5c0.6,1.3,0.8,3.1,0.8,5.2c3.2,1.8,5.6,4.4,7.7,7.4
		c-0.2,1.9,0.9,5.2-0.2,6.3c2.8,3.4,2.7,9.4,3.1,12.8c0,1.2,1.3-0.3,0.9-1.1c2.8,2.3,8,6.3,9,12c1.6,9.5-3,16.4-10.9,17.7
		c-4.2,3.4,0,8,4.2,5c2.7-1.8,5.6-6.5,6.6-6.6c-0.3-2.4,0.8-3.4-0.2-5.2c3.1,0.5,2.8,5.1,2.4,8.2c5.5,5.7,5.5,14.3,3.1,22.8
		c1.9-1.5,5.2-5.1,8.6-4.6c5.7,0.7,6.2,8.6,7.2,15.3c0.3,0.5,3.2-0.6,4.9-0.3c6.6,1.9,6.4,22.5,3,29c-1.5,2.9-4.4,3.1-4.7,5.4
		c-3.2,0.5-4,2.4-6.8,0.9c-0.9-1.6,0.2-2.3,0.3-4.2c9.3-0.8,11.3-8.7,9.8-19.7c-0.9-1.2-1.9-2.2-3.1-3c-5.7,4.8-6,14.8-8.2,22.8
		c-0.1,2.6-1.1-1.1-2.5-0.4c0.2,2.4,2.7,3.2,3.7,5c0.3,0.6-0.7,2.5,1.1,2c1,9.5,5,17.8,7.3,26.7c3.7,14.9,5,30.6,10.6,44.2
		c2-2.2,0.6-4.9,0.6-7.3c0.1-5.5,0.8-11.3,0.6-16.7c-0.1-2.7,1.2-5.5,1.1-8.4c-0.1-2.3-0.9-4.8-0.9-7.3c0-10.7,2.3-21.7,1.8-32.4
		c2.1-5,2.5-10.6,3.1-16.8c0.3-2.8-0.2-6.1,0.1-8.8c0.7-6.5,2.7-12.9,3.4-20.5c0.1-1.3-0.2-2.9-0.2-4.2c0.1-3.3,1-6.4,1-9.4
		c0-0.9-0.7-2.2-0.7-3.1c0.2-2,1.6-3.8,1.7-5.8c0.1-1.5-0.8-3.4-0.8-5.2c0.1-3.1,1.4-6.4,1.5-10c0.1-5.6-0.7-11.3-0.8-16.6
		c-15.3,1.7-28.5-5-29.3-23.5c3.3-1.7,4.8-5.6,10.6-4.2c2.1,0.5,10.4,6.1,12.3,8.2c2.2,2.5,4,6,2.9,8.2c-7.3,0.1-13.9-13.9-20-6.8
		c0.4,10.2,8.7,12.4,16.8,10.6c1.2-0.3,2.4-1.5,3.8-1.8c2.3-0.5,4.8,0.8,6.4-0.8c1.9,0.9,3.4,2.2,5.1,3.4
		c-0.4-6.7,2.1-10.6,4.2-14.8c-0.3-2.1-2.9-1.8-3.1-4c-0.2-5.1,3.6-6.9,4.3-12.2c4.3-2.3,12.8-6.2,8.2-12.4c-1.5,1-2.5,2.5-4.2,3.3
		c-4.7-1.3-7.8-4.5-7.5-11.6c4.4-1.6,12.1-2.4,10.4-8.3c-0.9-1.7-4.2-0.6-6.5-0.7c-1.5,1.9-2.9,3.8-6.2,4c-0.2,3.9-5.7,5.4-3.5,8.5
		c-3.5,0-2.9-4.2-4.3-6.6c-1.3-2.3-4.7-6.1-6.7-6.4c-5.3-0.9-8.4,4.1-8.9,10.3c7.1,2.7,12.2,7.8,16,14.3c1.1-1.2,6-10.9,3.8-13.7
		c4.4-1.2,2.5,6.7,2,9.8c-1.1,6.6-4.5,9.5-3.1,16.3c0.2,2.2-0.8,0-1.5,0.1c1.4,0.9,1.1,3.4,1.6,3.1c0.8,3.9-3,5.6-6.6,6.1
		c-1.7-1.4-4.7-1.7-7.1-3.3c-0.3-0.2-0.2-1.4-0.6-1.5c-0.3-0.1-1.2,0.3-1.5,0.1c-4.8-4-9.7-12.6-10.8-18.2
		c-0.9-4.6,0.7-7.1,1.9-10.5c-0.1-2-1-3.2-1.7-4.6C270.9,958.8,271.3,950.9,279.1,950.1 M236.6,1026.7c0.8,4.7,1.4-1-1-1
		C235.7,1026.3,235.8,1026.9,236.6,1026.7 M299.6,869.4c2.6,1.8,6.1,2.4,6.8,6.4c-5.8-0.4-12.6-0.2-14.1,4.9c0.7,2.6,3.9,2,4.2,5
		c-0.8,1.1-2.6,1.1-2.3,3.2c2,2.6,4.2,5.3,5.4,9.1c0.5,1.6-0.3,4.2,1.8,5.1c1.1-0.6,1.5-1.9,1.3-3.7c-2.7-2.6-5.1-5.1-4.4-9.1
		c0.8-4.2,9.3-6.7,7.3-12.9c4-2.1,8-4.2,6.8-11.3C308.7,862.8,300.7,864.7,299.6,869.4 M295.3,919.6c0.3-1.6,2.2,2.4,1.1,2.5
		c-5.8-0.3-6-9.1-12.2-7.7c-2.8,0.6-4.5,5.2-4.1,7c1.2,5.5,9.8,3.8,12.8,0.4c0.5,0.9,1.3,1.5,1.6,2.5c-0.2,3.6-4,3.8-5.1,6.5
		c3.3,6.4,5.5,14.1,9.4,19.9c2.7-1.3,8.8-2.7,11.5-5.8c2.3-2.6,4.9-10.3,0-10.4c-2.5-0.1-3.3,5.5-6.6,6c-3.1,0.5-4.6-1.1-6.2-5.4
		c1.8-4.9,3.8-9.6,6.7-13.4c5.1-0.9,8.9-3,8.9-8.8c-1.3-1.1-3.6-1-6-0.7c-2.3,2.6,0.9,7.4-3.6,8c-4.8-2-7.9-5-8.4-10.5
		c-0.1-1.3,0.6-2.4,0.3-3.7c-0.7-2.5-2.5-3.6-3.7-5.5c-1.8-2.8-2.9-5.6-4.8-7.6c-3.5,1.1-2.1,6.5-1,9.4c4.5,0.8,8,2.8,8.8,7.9
		c-1.7,1-3.2-0.8-5.5-0.8C290.9,913.1,295.2,916,295.3,919.6 M296,954.5c-0.8-0.6-2.1-0.5-2.5-1.4c-3.6-5.5-3.6-15.2-9.3-18.3
		c-0.3,0-0.7,0-1,0c-1.4,3-2.9,7.9-1.9,11.6c1.6,0.7,4.8-0.5,5.5,1.2c0.4,2.2-0.7,2.9-0.8,4.7c4.1,3.3,7.8,7,9.5,13
		c2.1-0.2,2.4-2,3.3-3.3C297.9,959.6,295.6,958.6,296,954.5 M295.3,968.5c-0.1-1-0.4-1.7-1.1-2C294.4,967.5,293.8,969.2,295.3,968.5
		 M196.6,976.7c-4,1-2.1,7.5-3.9,10.6c-1.8,0.4-1.5-1.5-3-1.4c0.4,1.6-0.8,1.6-0.3,3.1C197.3,995.3,205.5,979.2,196.6,976.7
		 M276.5,976.8c-4.4,7.6,2.3,17.6,8.9,19.3c-0.6-4.4,0.3-7.3,1.5-10C285,981.1,281.8,977.8,276.5,976.8 M292.8,987.4
		c0.1-1.2-0.2-2-1.1-2c-0.1,0.7-0.6,0.3-1,0c-0.2,1.1-1.1,1.6-0.9,3.2c0.3,0.3,2.4,1.1,2.4-0.1C291.3,987.6,290.9,986.7,292.8,987.4
		 M208.9,1005.7c0,3.5,3.7,3.3,4.3,7.1c-2.8,7.5-6-1.4-9.9-1.6c-2.7-0.1-6.3,0.8-4.6,6.5c0.5,1.5,2.3,2.2,5.6,3.9
		c2.2-0.6,2.4-3.3,5.3-3.4c1.8,1.4,3.3,2.5,3.7,4.5c0.7,4.4-3.6,6.7-4.4,10.1c2.5,0.2,4.2,1.3,6.1,2.3c2.8-3.1-0.5-7.3,1.4-11
		c-1.6-3.7-2.5-7.4-2.1-11.3c0.5-4.5,4.8-7.9,4.3-12.2C214.7,998.9,209,1002,208.9,1005.7 M313,996.8c0.1,2.1,2.6,1.4,2.2,4.1
		c-2.2,6-8.2,8.4-9.6,15.1c4.5-2.1,6.6-3.9,9.5-7.2c2.9-3.5,6.4-8.1,6.7-13.4C318.8,993.2,315.6,995.7,313,996.8 M223.6,1013.8
		c0.1-1.6,1.4-2,2.4-2.7c-1.1-0.3-1.2-1.8-2.1-2c-5.9-1.3-8,9.9-4.2,14.3c-0.9,1.7-0.9,3.1-0.2,5.2c9.5,0.6,13.4-9.7,8.1-16
		C224.6,1012.1,225.5,1012.5,223.6,1013.8 M239.6,1037.5c0,0.3,0.4,0.6,0.5,0c-0.7-3.8-0.5-5.7-3.8-7.1c0.2,0.1-0.1,1.1-0.4,1.1
		c0.5,0-1.5-1.8-2.1-1.4c-1.5,2.3-2.1,5.6-5.1,6.5C227.1,1047.3,239.5,1043.6,239.6,1037.5 M239.5,1082.8c3,0.9,3.4-2.7,4.2-4.9
		c1.3-4.2,2.1-9.4,1.3-13.6C238.3,1065.7,239.5,1076.8,239.5,1082.8 M224.8,1095c3.3,0,4.7-1.8,7.3-2.5
		C231.6,1083.8,225.3,1091.1,224.8,1095 M237.8,1127.7c2,3.2,6.3,3.7,11.5,3.1c-0.7-2.6,1.3-6.5,1.1-8.4
		C244.4,1121.8,238.2,1121,237.8,1127.7 M280.9,1199.4c0.3,0,0.7,0,1,0c0-0.4,0-0.7-0.1-1.1c-0.3,0-0.6,0-1,0.1
		C280.9,1198.7,280.9,1199.1,280.9,1199.4 M218.3,1209.3c-4.3,5.4-13.1,10.8-12.8,19.9c0.1,3,1.6,6.2,2.9,9.2
		c6.9-1.5,8.3-8.2,11.7-13.1c-2.9-5.3-1.7-12.8,2.7-15.2C221.6,1209.5,220.3,1209,218.3,1209.3 M225.3,1222c1.9,0.3,2.7-1.4,4-0.2
		C229.2,1219.6,225.7,1221.3,225.3,1222 M224.9,1224.6c0.2,3,2.8-1.2,0.9-1.6C226,1224.4,226.1,1225.7,224.9,1224.6 M230.5,1226.9
		c0-0.9-0.5-1.3-1.1-1.5C228.8,1226.2,228.8,1227.5,230.5,1226.9 M226.1,1227.1c0.3,0,0.6,0,1,0c0-0.3,0-0.7,0-1c-0.3,0-0.6,0-1,0
		C226,1226.5,226.1,1226.8,226.1,1227.1"/>
	<path class="st0" d="M224.3,1191.8c-2.6-0.5-4-5.1-2.9-8.2c-3.6-1.8-10.6,0.3-11.6-4.6c-2.7,1.7-5.4,3.4-7.6,5.6
		c3.6,1,10-1.5,11,3.6c-2.9,4.1-8.8,3.5-13.1,5.3c-5.3,2.3-8.5,6.6-10.7,11.5c1.9,5,12.9,2.9,14.7-0.7c0.5,0,0.4,0.6,0.5,1
		c2.7-3.4,5.7-6.5,7.9-10.3c2.2,1.3,2,4.9,0.4,7.2c-0.5,0.7-2.3,2.8-3.7,4.4c-2.9,3.3-4.8,5.9-8.6,5.6c0.6,2-4.4,1.4-5.8,2.9
		c-2.1-1.2-4.5-2-6.6-3.3c-0.2-3.4-2.6-5-2.9-7.6c-0.6-6.4,5.2-9.9,7.7-14.5c-3.6-1.8-5.7,2.1-11.3,1.1c-2.1-7.9-4-14.6-0.6-21.3
		c-2.7-3.6-4.6-9.9-4.2-15.4c-5.6-1.8-7.9-10.7-5.9-19.5c-2.1,0.3-3.6-1.3-5-0.8c-1.6-3.1-1.6-7.3-2.2-6.6c-1.9-2.6,0.6-5.3,0-8.4
		c-2.8-1.7-4.4-2.5-7.1-4.8c0-3.5-1.2-5.5-1.9-8.2c0.3-1.8,0.9-3.4,1.7-4.8c-0.2-1-2.2,0-2-1.5c-0.8-4.7-2.3-10.8,0.2-15.1
		c-4.9-4.8-3.1-12.3-6.3-18.4c1.7-5.7,2.5-12.1,8.2-14c1.9-0.2,0.2,0.4,0.6,1.5c1.9-0.7,3.6-3.2,6.3-3.4c4.2-0.4,12.7,5.2,12,12.9
		c7.4-1.1,8.8,8.8,7.6,14.2c3.3,3.5,7.3,6.2,7.1,13.7c3,3.5,8.7,3.8,8.4,11c7.7,1.2,11.7,6.8,11.7,17.1c2.8,2.3,5.5,2.3,7.2,4.8
		c2.1,3.1,1.3,8.8,3.1,12.3c1.9,2,4.9,3.2,6.2,5.9c1.2,2.6,0.5,6.1,2.4,8.2c3.3,3.2,7.3,3.8,9.3,8.4c1.1,2.5,0.2,5.8,1.4,8.8
		c1.2,2.8,4.9,4.4,5.8,7.5c0.7,2.4-0.4,5.6,0.4,8.3c0.8,2.7,4,3.8,5.8,6.5c2.4,3.9,5.1,14.8,3,21.2c-1.5,4.6-4.8,8.3-12.4,8.4
		c-1.5,0-1.6-1.3-2-1.5c-1.1-0.3-1.7,1.8-3.9,0.7c-7.4-2.6-9.9-15.4-4.6-21.6c-0.6-2.7-0.7-4.5-0.4-7.3c2.2-2.9,7.6-3.2,7.5-7.2
		c0-7.6-8-2.2-10.3,1.6C227,1187.2,227.2,1191.6,224.3,1191.8 M165.1,1065.2c1.1-0.6,3-0.5,3.9-1.2c0.3-4.3-6.6-6.7-8.6-3.2
		C162.8,1059.7,164.9,1062.2,165.1,1065.2 M156.2,1065.2c-1.9,3.4-5.7,12.1,0.7,13.5c1.3-3.1,3.3-5.4,6.1-7.1
		c-1.1-1.5,1.8-3.2,1.2-5.8c-0.9-0.4-1-1.7-2.1-2C161.8,1067.6,158,1063.5,156.2,1065.2 M166.5,1074c1.1,2.4,4,6.4,1,8.8
		c-1.4-0.6-4.4-1.5-5.5-0.8c-2.1,4.1-5.5,9.1-4.7,14.3c3.7-1.8,5.1-7.1,9.5-6.7c1.3,0.2,1.6,1.5,3,1.4c1.2-6.9,5-11.4,7.5-17
		c0-0.6-0.7-0.7-0.5-1.5C173.3,1072.3,167.5,1069.4,166.5,1074 M171.7,1098.7c-3.3-1.5-4.2,5.2-8.2,3c-0.3,1.5-1.8,1.9-3.3,2.2
		c-0.6,1.7-1.7,3-1.2,5.8c2,1.7,4.3,3,7.6,3.3c0.9-4.2,4.3-9.4,7.5-8.2c-1.7-0.9-0.5-2.2,0.3-3.1c-0.1,1.3,0.3,2.2,1.6,2
		c0.9-2.5,1.6-2.2,2.8-3.8c0.5-0.7,0.3-2,0.9-2.7c1.2-1.5,3.2-2.2,3.7-3.8c2.2-6.2-6.3-9.5-8.5-2.7c-0.6,1.8,1.6,4-0.7,5.8
		c-0.6,0.4-1.2-0.7-1.9,1.1c1.7-0.1,2.4,4.2,0.8,4.7c0.1-1.5-0.2-5-1.7-4.1C171.5,1098.2,171.8,1098.3,171.7,1098.7 M180,1106.1
		c0.4,3.7,3,8.5,0.5,10.9c1-2.7-2.4-5.2-5.2-6.5c-3.2,0.3-3,3.7-4.2,5.4c-0.6,1-2.3,1.7-2.8,2.7c-2.1,3.9-2,9.2,0.5,9.9
		c2.6-0.4,4.5-1.5,6.8-0.9c1.1-1.8,1-2.4,1.3-4.2c2.4,0.7,4.2-3.1,6.8-2.4c0.4-8.2,6.2-11.2,8.4-17.6
		C188.7,1097.9,182.7,1102,180,1106.1 M187.8,1122.9c1.2,1.9,3.7,2.3,4.7,4.4c1.9-4.2,5.7-6.7,10.4-8.3c1.1-2.7,0.5-4.1-0.8-6.2
		C193.8,1111.1,188.5,1115.9,187.8,1122.9 M179.7,1130.6c-2.1,5-6.7,7.4-6.1,14.9c1.7,1.1,3.3,2.3,6,2.3c3.2-3.1,5.6-6.9,9.9-8.8
		c0.7-3.1,1-5.8,0.6-8.4C186.4,1130.8,182.6,1128.6,179.7,1130.6 M197.6,1131.3c-1.9,1.7-3.4,5.4-3.6,7.5c-0.3,3.3,1.6,5.3,1,9.3
		c-1.8-1.4-3.3,2.1-5.8,3.4c-1.7,1-4,0.8-5.3,1.8c-3.5,2.8-4.2,8.3-1,9.9c5.5-1.6,12.8-0.6,14-5.9c0.5-2.4-1.4-4.7-1.4-6.7
		c0.1-9.4,8.6-14,16.5-15.9C213.1,1127.1,202.1,1127.2,197.6,1131.3 M220.7,1149.4c0-0.9-1.6-3.6-2.2-4.1c-3-2.5-5.8,0.2-8.8,1.5
		c-3.1-2-6.3,0.1-8.3,2c0.3,5.9-0.9,10.2-4.2,13.8c2,1.6,5.4,1.4,6.1,4.4c-0.1,0.7-0.7,1-0.4,2.1c-1.2-2.2-1,1.2-2.4,1.7
		c-9.2-5.6-19.1,3.3-17.1,12.8c11.5,3.2,19.2-6.5,26-12.2c1,1.5-0.5,2.7,0.7,4.1c6.9-1,12.8,1.9,16.7-2.4c1.8-2,5.2-3.1,6.1-5.5
		c-1.5-4.7-4.4-8.3-8.8-7.4c-2.2,0.5-5.3,5.7-7.6,6.1c-0.4,2.4-0.5,5.2-2.7,5.8c-6.4-4.5-1.3-17.8,5.4-19
		C219.6,1151.4,220.8,1150.7,220.7,1149.4 M243.7,1196.1c-1,0-2,0.1-3,0.1c-2.7,3.8-8.2,6.6-7.3,12.4c3.5,1,6.5,2.7,9.9,1
		c4.5-2.1,5.9-14.7,0.2-15.1C243.7,1195,243.7,1195.6,243.7,1196.1"/>
	<path class="st0" d="M233.2,990.7c0.3,0.9,0.7,1.8,0.8,2.6c0.3,0.2,0.5,0.4,0.7,0.7c-0.2-0.2-0.5-0.5-0.7-0.7
		C233.9,992.5,233.5,991.6,233.2,990.7"/>
	<path class="st0" d="M414,1306.7c0.2,0.9,0.4,1.8,0.5,2.7c0.4-1.5,1-3.3,1.8-5.2c0.1-0.2,0.3-0.4,0.3-0.6h-3.2L414,1306.7z"/>
	<path class="st0" d="M239.9,1296.8c-0.6-1.5-1.3-3-1.8-4.5c-0.5-1.5-1.1-3.1-1.8-4.6c-0.4-0.9-1-1.8-1.4-2.8v11.9H239.9z"/>
	<path class="st0" d="M241.2,1299.9c-0.1-0.1-0.1-0.2-0.1-0.3C241.1,1299.7,241.1,1299.8,241.2,1299.9L241.2,1299.9z"/>
	<path class="st0" d="M229.3,985.4c0.2,0.1,0.3,0.2,0.5,0.3c0.5,0.4,0.8,1.1,1.2,1.6c-0.4-0.5-0.7-1.1-1.2-1.6
		C229.6,985.6,229.5,985.5,229.3,985.4"/>
	<path class="st0" d="M418,1136c-0.1,0.3-0.2,0.6-0.3,0.9c-0.3,1-0.6,2-0.9,3.1c0.3-1,0.6-2.1,0.9-3.1
		C417.8,1136.6,418,1136.3,418,1136"/>
	<path class="st0" d="M206.8,1092.3L206.8,1092.3c0.1,0.2,0.2,0.4,0.3,0.6c0.4-1.4,0.9-2.7,1.5-4c-0.6-0.6-1-1.2-1.5-1.9
		c-0.1-0.2-0.2-0.4-0.3-0.7c-0.7-1.1-1.2-2.2-1.7-3.2c0.5,1.1,1,2.2,1.6,3.2V1092.3z"/>
	<path class="st0" d="M199.1,1060.8c-1.5-4.8-1.6-9.2-0.8-13.5c-0.2-0.1-0.4-0.3-0.5-0.5c0.2,0.2,0.3,0.4,0.5,0.5
		C197.5,1051.6,197.6,1056.1,199.1,1060.8"/>
	<path class="st0" d="M202.6,1074c-0.1-1.7-0.1-3.4,0.2-5.1c-0.1-0.1-0.2-0.2-0.2-0.3c0.1,0.1,0.1,0.2,0.2,0.3
		C202.5,1070.5,202.5,1072.2,202.6,1074"/>
	<path class="st0" d="M431.6,1103.8c-0.3-2.2,0.2-4.5,1.3-6.5c0.7-1.3,0.9-1.5-0.1-8.2c-0.3-2-0.4-3.8-0.6-5.6
		c0-1.2-0.1-2.4-0.3-3.5c-0.3-1.7-0.8-3.7-1.4-5.6c-0.1,4.3-0.7,8.2-1.2,11.9c-0.4,2.7-0.8,5.4-0.9,8.1c-0.2,4.8,1,10.3,3.3,15.4
		C431.9,1107.9,431.8,1105.9,431.6,1103.8"/>
	<path class="st0" d="M246.4,1150.4c-0.1-0.2-0.1-0.4-0.2-0.5c-0.3,0-0.7-0.1-1-0.1c0.6,0.7,1,1.4,1.5,2.2
		C246.7,1151.5,246.6,1151,246.4,1150.4"/>
	<path class="st0" d="M383.2,1303.5c-0.1-1.2-0.2-2.4-0.3-3.5c0-0.8,0-1.6-0.1-2.3c0.2,0.7,0.1,1.5,0.1,2.3
		C382.9,1301.2,383.1,1302.4,383.2,1303.5"/>
	<path class="st0" d="M664.1,1328.8H455.2c-0.5,0.6-0.8,1.3-1.2,2c-1.8,2.6-3.5,5.2-5,8.1h220.2c2.8,0,5.1-2.2,5.1-5V826.1v-32.4
		V301.5c0-2.8-2.3-5-5.1-5H201.8c-2.8,0-5,2.3-5,5v492.2v32.4v131.4c2.1,0.6,4.1,1.6,6,2.6c1.5,0.8,2.9,1.7,4,2.5V831.1h21.5v153.7
		c0.3,0.2,0.7,0.4,1,0.6c0.2,0.1,0.3,0.2,0.5,0.3c0.5,0.4,0.8,1,1.2,1.6c0.7,0.8,1.5,1.5,1.9,2.4c0.2,0.3,0.2,0.7,0.4,1
		c0.3,0.9,0.7,1.8,0.8,2.6c0.3,0.2,0.5,0.5,0.7,0.7c0.1,0.1,0.1,0.2,0.2,0.2v0V831.1h181.9v170.6c1,0,2.2,0.1,3.3,0.1
		c1.1,0,2.2,0,3.4,0.1V831.1h24.3v180.5c1.8,1.7,3.3,3.7,4.8,5.8c0.6,0.9,1.3,1.8,1.9,2.8V831.1H636v465.7h-149
		c-2.6,2.3-5.2,4.5-7.8,6.7c0,0,0,0-0.1,0h160.3c1.8,0,3.3-1.5,3.3-3.3V831.1h21.4 M664.1,821.1H206.8v-22.3h457.3V821.1z
		 M235,337.5h181.9v451.2H235V337.5z M423.6,337.5h24.4v451.2h-24.4V337.5z M454.6,337.5h181.3v451.2H454.6V337.5z M664.1,788.7
		h-21.4V334.1c0-1.9-1.5-3.3-3.3-3.3H231.6c-1.9,0-3.3,1.5-3.3,3.3v454.5h-21.5V306.5h457.3V788.7z"/>
	<path class="st0" d="M447.9,1271.7c2.2-0.8,4.5-1.5,6.7-1.9v-114.3c-2.1,0-4-0.3-5.2-0.6c-0.5,0.1-1,0.1-1.5,0.1h0V1271.7z"/>
	<path class="st0" d="M382.9,1300c0-0.8,0-1.6-0.1-2.4c-0.1-0.3-0.3-0.6-0.4-0.8v0h-77.1c0.1,2.2,0.2,4.5,0.4,6.7h77.6
		C383.1,1302.4,382.9,1301.2,382.9,1300"/>
	<path class="st0" d="M388.7,1331.2c0-0.3-0.1-0.6-0.1-0.9c-0.1-0.5-0.2-1-0.2-1.5h-80.3c0.2,1.7,0.5,3.3,0.7,5
		c0.2,1.7,0.4,3.3,0.7,5h80.3C389.5,1336.3,389.1,1333.8,388.7,1331.2"/>
	<path class="st0" d="M418,1136c-0.1,0.3-0.2,0.6-0.3,0.9c-0.4,1-0.6,2-0.9,3.1v156.9h-4.6c0.2,1.1,0.4,2.2,0.6,3.3l0.7,3.4h3.2
		c0.7-1.5,1.6-2.7,2.1-3.6c0.1-0.1,0.2-0.3,0.3-0.4c0.2-1.3,0.6-2.9,1.4-4.7c0.7-1.5,1.8-3,3.1-4.6v-148.8
		C421.7,1140,419.9,1138.1,418,1136"/>
	<path class="st0" d="M198.3,1079.8c0.8,1.7,1.6,3.5,2,5.7c1.9,1.3,4.6,3.5,6.5,6.8v-5.9c-0.7-1.1-1.2-2.2-1.7-3.3
		c-1.4-3.1-2.3-6.2-2.5-9.2c-0.1-1.7-0.1-3.5,0.2-5.1c-0.1-0.1-0.2-0.2-0.2-0.3c-0.2-0.2-0.3-0.4-0.5-0.7c-1.4-2.4-2.3-4.8-3-7
		c-1.5-4.8-1.6-9.2-0.8-13.5c-0.2-0.1-0.3-0.3-0.5-0.5c-0.3-0.3-0.7-0.6-1-1v31C197.3,1077.7,197.8,1078.7,198.3,1079.8"/>
	<path class="st0" d="M196.7,1333.8c0,2.8,2.3,5,5,5h54.8c-0.2-0.6-0.4-1-0.6-1.6c-0.5-3.1-1.5-5.7-2.7-8.4h-46.5v-72.7
		c-3-1.1-5.4-3.1-7.4-5.3c-0.9-1-2-1.9-2.7-3V1333.8z"/>
	<path class="st0" d="M228.3,1300.2c0,1.8,1.5,3.3,3.3,3.3h11.5c-0.7-1.2-1.3-2.4-2-3.7v0c-0.1-0.1-0.1-0.2-0.1-0.3
		c-0.4-0.9-0.7-1.8-1.1-2.7v0h-5v-11.9c-0.7-1.4-1.4-2.9-2.1-4.3c-0.8-1.5-1.5-3-2.3-4.5c-0.8-1.5-1.6-3-2.2-4.5V1300.2z"/>
	<path class="st0" d="M454.6,1020.3L454.6,1020.3c-0.6-1-1.2-1.9-1.9-2.8C453.4,1018.4,454.1,1019.3,454.6,1020.3"/>
	<path class="st0" d="M234.8,994c0,0.1,0.1,0.2,0.2,0.2v0C234.9,994.2,234.8,994.1,234.8,994"/>
	<path class="st0" d="M206.8,962.6L206.8,962.6c-1.1-0.8-2.5-1.7-4-2.5C204.3,960.9,205.7,961.8,206.8,962.6"/>
	<path class="st0" d="M228.3,984.8L228.3,984.8c0.3,0.2,0.7,0.4,1,0.6C228.9,985.2,228.6,985,228.3,984.8L228.3,984.8z"/>
	<path class="st0" d="M423.6,1002L423.6,1002c-1.2-0.1-2.2-0.1-3.4-0.1C421.3,1001.9,422.4,1001.9,423.6,1002"/>
	<path class="st0" d="M448.9,1338.8L448.9,1338.8c1.6-2.9,3.3-5.5,5.1-8.1C452.2,1333.4,450.5,1336,448.9,1338.8"/>
	<path class="st0" d="M231,987.3c0.7,0.8,1.5,1.5,1.9,2.4c0.2,0.3,0.2,0.7,0.3,1c-0.1-0.3-0.2-0.7-0.3-1
		C232.4,988.7,231.6,988.1,231,987.3"/>
	<path class="st0" d="M454.6,1155.6L454.6,1155.6c-2.1,0-4-0.3-5.2-0.6c-0.5,0.1-1,0-1.5,0c0.5,0,1,0,1.5,0
		C450.6,1155.2,452.5,1155.5,454.6,1155.6"/>
	<path class="st0" d="M382.8,1297.7c-0.1-0.3-0.3-0.6-0.4-0.9v0C382.5,1297.1,382.7,1297.4,382.8,1297.7"/>
	<path class="st0" d="M309.5,1338.8L309.5,1338.8c-0.3-1.7-0.5-3.4-0.7-5C309,1335.5,309.3,1337.1,309.5,1338.8"/>
	<path class="st0" d="M389.9,1338.8L389.9,1338.8c-0.4-2.5-0.7-5-1.1-7.6c0-0.3-0.1-0.6-0.1-0.9c0,0.3,0,0.6,0.1,0.8
		C389.1,1333.8,389.5,1336.3,389.9,1338.8"/>
	<path class="st0" d="M412.2,1296.8c0.2,1.1,0.4,2.2,0.6,3.3C412.6,1299,412.4,1297.9,412.2,1296.8"/>
	<path class="st0" d="M416.7,1303.5L416.7,1303.5c0.7-1.5,1.6-2.7,2.2-3.6c0.1-0.1,0.2-0.3,0.3-0.4c-0.1,0.1-0.2,0.3-0.3,0.4
		C418.2,1300.8,417.4,1302.1,416.7,1303.5"/>
	<path class="st0" d="M423.6,1290.3L423.6,1290.3c-1.3,1.6-2.3,3-3.1,4.5C421.2,1293.4,422.3,1291.9,423.6,1290.3"/>
	<path class="st0" d="M196.7,1045.8L196.7,1045.8c0.3,0.4,0.7,0.7,1,1C197.4,1046.5,197.1,1046.2,196.7,1045.8"/>
	<path class="st0" d="M202.6,1074c0.2,3,1.1,6.1,2.5,9.2C203.7,1080,202.9,1077,202.6,1074"/>
	<path class="st0" d="M202.6,1068.5c-0.1-0.2-0.3-0.4-0.4-0.7c-1.4-2.4-2.3-4.8-3.1-7c0.7,2.2,1.6,4.6,3.1,7
		C202.2,1068.1,202.4,1068.3,202.6,1068.5"/>
	<path class="st0" d="M200.3,1085.4c-0.4-2.2-1.2-4-2-5.7C199.2,1081.4,199.9,1083.2,200.3,1085.4c1.9,1.3,4.6,3.5,6.5,6.9v0
		C204.9,1089,202.2,1086.8,200.3,1085.4"/>
	<path class="st0" d="M206.8,1256.1c-3-1.1-5.4-3.1-7.4-5.3C201.5,1253,203.8,1255,206.8,1256.1"/>
	<path class="st0" d="M256.6,1338.8c-0.2-0.6-0.4-1-0.6-1.6C256.2,1337.8,256.4,1338.3,256.6,1338.8"/>
	<path class="st0" d="M243.1,1303.5L243.1,1303.5c-0.7-1.2-1.3-2.4-1.9-3.7C241.8,1301.1,242.4,1302.3,243.1,1303.5"/>
	<path class="st0" d="M241,1299.6c-0.4-0.9-0.7-1.8-1.1-2.7v0C240.3,1297.8,240.6,1298.7,241,1299.6"/>
	<path class="st0" d="M235,1284.9L235,1284.9L235,1284.9c-0.7-1.4-1.4-2.9-2.1-4.3c-0.8-1.5-1.5-3-2.3-4.5c0.8,1.5,1.4,3,2.3,4.5
		C233.6,1282,234.3,1283.5,235,1284.9"/>
	<path class="st0" d="M870,80.4c-1.6-2.7-4.6-4.3-7.8-4.3l-208,0.2L436.8,0.5c-1.9-0.7-4.1-0.7-6,0L215.6,76.1H9.1
		c-3.1,0-6,1.6-7.7,4.3c-1.7,2.8-1.8,6.1-0.3,8.9l24.3,47.8c0.1,0.1,0.2,0.3,0.4,0.6v16.4c0,4.1,3.3,7.4,7.4,7.4h6.4v14.8
		c0,3.6,2.9,6.6,6.6,6.6h5l31.1,47.8c0.6,0.9,1.6,1.5,2.7,1.5h1.4v178.5c0,2,0.8,3.9,2.2,5.2l27.9,27.9v678.7l-27.9,27.9
		c-1.4,1.4-2.2,3.3-2.2,5.3v247.1c0,4.1,3.3,7.4,7.4,7.4H277c1.8,0,3.2-1.4,3.2-3.2c0-0.5-0.1-1.1-0.3-1.5c-0.7-1.5-1.3-2.9-1.6-4.6
		c-0.1-0.9-0.2-1.6-0.2-2.3c0-1.8-1.4-3.2-3.2-3.2H101v-236.6l27.9-27.9c1.4-1.4,2.2-3.3,2.2-5.2V440.8c0-2-0.8-3.8-2.2-5.3
		L101,407.6V233.1h669.7v172.6l-28.1,28.1c-1.4,1.4-2.1,3.3-2.1,5.2v684.9c0,2,0.8,3.9,2.1,5.2l28.1,28.1v238H424.9
		c-1.7,0-3.2,1.4-3.2,3.1c-0.1,2.7-0.2,5.5-0.5,8.5c0,1.8,1.5,3.2,3.2,3.2h353.6c4.1,0,7.4-3.3,7.4-7.4v-248.5c0-2-0.8-3.8-2.2-5.2
		l-28.1-28.1V442.2l28.1-28.1c1.4-1.4,2.2-3.3,2.2-5.2V232.2h1c1.1,0,2.1-0.6,2.7-1.5l29.8-46.2h6.1c3.6,0,6.6-3,6.6-6.6v-16.4h6.4
		c4.1,0,7.4-3.3,7.4-7.4v-16.6c0.1-0.2,0.3-0.4,0.3-0.5l24.4-47.7C871.8,86.5,871.7,83.2,870,80.4 M434.8,142.9
		c-0.7-0.2-1.4-0.2-2.1,0l-214.4,75.3H93.6c-1.1,0-2.2,0.3-3.2,0.8h-0.2l-22.4-34.6l149.9-0.2l216.1-75.5l217.3,75.5l152.4,0.1
		L781.2,219c-1-0.5-2-0.7-3.1-0.7l-126.5,0.2L434.8,142.9z M847.4,94.3l-15.1,29.5L654.2,124L436.7,48.1c-1-0.3-2-0.5-3-0.5
		c-1,0-2,0.1-3,0.5l-215.2,75.6H38.9l-15-29.5h192.6c1.1,0,2.1-0.2,3-0.5l214.2-75.1l215.4,75c0.9,0.3,2,0.5,3,0.5H847.4z
		 M52.6,161.5h163.9c0.8,0,1.6-0.1,2.4-0.4l214.8-75.3l216,75.3c0.8,0.3,1.6,0.4,2.4,0.4h166.5v9.8l-164.8,0.2l-219-76.3
		c-0.3-0.1-0.7-0.2-1.1-0.2c-0.3,0-0.7,0.1-1,0.2L216,171.4H55.6l-3,0V161.5z"/>
</g>
<g>
</g>
<g>
</g>
<g>
</g>
<g>
</g>
<g>
</g>
<g>
</g>
</svg>
