<svg xmlns="http://www.w3.org/2000/svg" xml:space="preserve" id="Layer_1" x="0" y="0" style="enable-background:new 0 0 2400 1100" version="1.1" viewBox="0 0 2400 1100"><style>.st0,.st1{fill:#ed1c24}.st1{fill-rule:evenodd;clip-rule:evenodd}</style><path d="M623.7 240.7S572.8 15.2 321.1 13.9c0 0-288.6 2.6-304.2 307.9 0 0-15.8 284.4 313.1 313.1 0 0 213.8 7.9 289.7-213.6H493.8l-155.9 94.3-158.5-90.3V240.7l155.9-88 159.9 93 128.5-5z" class="st0"/><path d="M256.8 341.4c0-43.4 34.6-78.6 77.3-78.6s77.3 35.2 77.3 78.6-34.6 78.6-77.3 78.6-77.3-35.1-77.3-78.6z" class="st0"/><path d="m750.6 463.3-1.3 11.8c6.6 81.1 98.3 86.4 98.3 86.4 89 2.6 97.1-98.2 97.1-98.2-6.3-91.9-99.5-86.4-99.5-86.4-95.7-2.6-94.6 86.4-94.6 86.4zm-82.4-4s15.5-157.2 180.7-148c0 0 166.4-7.9 170.4 154.6 0 0-2.4 162.5-176.7 161.2 0 0-173-7.9-175.7-157.2l1.3-10.6z" class="st1"/><path d="m1244.7 10 309.2 230.7h-118l-36.7-29v406.2h-77.3V156.7l-77.2-56.4-72.2 56.4v458.5h-75.9V211.7l-49.7 35.3H930.2l314.5-237z" class="st0"/><path d="M1483 316.6h73.5v299.9h-74.8l1.3-299.9zM1635 617.9V315.2h76.1l157.2 178.3V319.2h76.1v297.3h-64.2L1717.7 428v188.5l-82.7 1.4zM2007.1 300.8l15.8 111.4h39.3l11.8-110.1-66.9-1.3zM2328.2 390l1.3-57.7S2172 258.8 2112 380.8c0 0-21.9 80 94.5 116.7 0 0 84.8 26.3 57.4 55 0 0-37.7 36.9-109.8-3.9l-30.2-17.1v68.2s107.2 56.4 192.5 1.3c0 0 87.9-88.2-14.2-149.6 0 0-110.1-32.4-110.1-64 0 0 6.6-34.2 94.3-11.8l41.8 14.4zM99.1 709.5v152.8H59.4v-64.2H47.5v64.2H7.8V709.5h39.7v54.6h11.9v-54.6h39.7z" class="st0"/><path d="m233.9 709.5 22.7 152.8H216l-2-27.5h-14.2l-2.4 27.5h-41.1l20.2-152.8h57.4zm-21 98.2c-2-17.3-4-38.7-6-64.1-4 29.2-6.5 50.6-7.5 64.1h13.5zM313.7 709.5h28.1c18.8 0 31.4.7 38 2.1 6.7 1.4 12.1 5.2 16.2 11.1 4.2 5.9 6.3 15.4 6.3 28.4 0 11.9-1.5 19.9-4.4 23.9-2.9 4.1-8.8 6.6-17.5 7.4 7.9 1.9 13.2 4.5 15.9 7.8 2.7 3.3 4.4 6.3 5 9.1.7 2.7 1 10.2 1 22.5v40.3h-36.9v-50.8c0-8.2-.7-13.2-2-15.2s-4.6-2.9-10.1-2.9v68.9h-39.7V709.5h.1zm39.7 26.1v34c4.5 0 7.6-.6 9.4-1.8 1.8-1.3 2.7-5.3 2.7-12v-8.4c0-4.8-.9-8-2.6-9.5-1.7-1.5-4.9-2.3-9.5-2.3zM468 709.5h29.7c19.2 0 32.1.9 38.9 2.6 6.8 1.8 12 4.7 15.5 8.7 3.5 4 5.7 8.5 6.6 13.5.9 4.9 1.3 14.6 1.3 29.1v53.5c0 13.7-.7 22.9-2 27.6-1.3 4.6-3.5 8.2-6.7 10.8-3.2 2.6-7.2 4.4-11.9 5.5-4.7 1-11.8 1.5-21.3 1.5H468V709.5zm39.8 26.1v100.5c5.7 0 9.2-1.1 10.6-3.4 1.3-2.3 2-8.6 2-18.8v-59.4c0-6.9-.2-11.3-.6-13.3-.4-2-1.4-3.4-3-4.3-1.7-.8-4.7-1.3-9-1.3z" class="st1"/><path d="m774.6 709.5-17.7 152.8h-49.6c-4.5-23.5-8.5-50.1-12-80-1.6 12.8-5.3 39.4-11 80h-49.4l-17.7-152.8h38.6l4.1 53.3 4.2 51.4c1.4-26.6 5.1-61.5 11-104.7h41.3c.5 4.5 2 21.2 4.3 50.4l4.3 58c2.2-36.9 5.9-73.1 11-108.4h38.6z" class="st0"/><path d="m901.4 709.5 22.7 152.8h-40.6l-2-27.5h-14.2l-2.4 27.5h-41.1L844 709.5h57.4zm-21.1 98.2c-2-17.3-4-38.7-6-64.1-4 29.2-6.5 50.6-7.5 64.1h13.5zM981.1 709.5h28.1c18.7 0 31.4.7 38 2.1 6.7 1.4 12.1 5.2 16.2 11.1 4.2 5.9 6.3 15.4 6.3 28.4 0 11.9-1.5 19.9-4.4 23.9-3 4.1-8.8 6.6-17.5 7.4 7.8 1.9 13.1 4.5 15.9 7.8 2.7 3.3 4.3 6.3 5 9.1.7 2.7 1.1 10.2 1.1 22.5v40.3h-36.9v-50.8c0-8.2-.7-13.2-2-15.2s-4.6-2.9-10.1-2.9v68.9h-39.7V709.5zm39.8 26.1v34c4.5 0 7.6-.6 9.3-1.8 1.8-1.3 2.7-5.3 2.7-12v-8.4c0-4.8-.9-8-2.6-9.5-1.7-1.5-4.9-2.3-9.4-2.3z" class="st1"/><path d="M1135.4 709.5h66.3v30.6h-26.5V769h24.8v29.1h-24.8v33.6h29.1v30.6h-68.9V709.5z" class="st0"/><path d="M1451.2 804.2V830l-10.7 6.8 13.4 25.5h-35.2l-4.7-8.5c-11.8 7.8-23 11.7-33.6 11.7-11.1 0-19.6-3.7-25.6-11.1-6-7.4-9-16.2-9-26.6 0-8.3 1.8-14.8 5.3-19.5 3.5-4.7 8.8-8.6 15.8-11.5-10-7.2-15.1-17-15.1-29.4 0-10.6 3.6-19.2 10.8-25.7 7.2-6.5 17-9.7 29.6-9.7 11.3 0 20.2 3.1 26.7 9.5 6.5 6.3 9.8 14.4 9.8 24.2 0 10.3-3.9 19.5-11.9 27.5l13.5 24.3 20.9-13.3zm-58.8-26.8c4.3-5.6 6.4-10.9 6.4-16 0-2.2-.6-4.2-1.9-6-1.3-1.8-3-2.8-5.3-2.8-2.1 0-3.6.7-4.7 2.1-1 1.4-1.6 3.5-1.6 6.3 0 5.9 2.4 11.4 7.1 16.4zm8.6 59.1-12.4-20.6c-4.7 4.3-7.1 8.9-7.1 13.9 0 3.6.7 6.3 2.2 8.1 1.5 1.8 3.7 2.6 6.6 2.6 3.1 0 6.7-1.3 10.7-4zM1596.4 709.5h28.1c18.8 0 31.4.7 38.1 2.1 6.7 1.4 12 5.2 16.2 11.1 4.2 5.9 6.3 15.4 6.3 28.4 0 11.9-1.5 19.9-4.5 23.9-3 4.1-8.8 6.6-17.4 7.4 7.8 1.9 13.1 4.5 15.9 7.8 2.7 3.3 4.4 6.3 5 9.1.7 2.7 1.1 10.2 1.1 22.5v40.3h-36.9v-50.8c0-8.2-.6-13.2-2-15.2-1.3-2-4.6-2.9-10.1-2.9v68.9h-39.7V709.5h-.1zm39.7 26.1v34c4.5 0 7.6-.6 9.4-1.8 1.8-1.3 2.7-5.3 2.7-12v-8.4c0-4.8-.9-8-2.6-9.5-1.8-1.5-4.9-2.3-9.5-2.3z" class="st1"/><path d="M1750.7 709.5h66.3v30.6h-26.6V769h24.9v29.1h-24.9v33.6h29.2v30.6h-68.9V709.5zM1970 709.5v152.8h-34.8l-20.7-69.5v69.5h-33.2V709.5h33.2l22.3 68.8v-68.8h33.2zM2116.2 709.5v30.6h-23.6v122.2h-39.7V740.1h-23.5v-30.6h86.8z" class="st0"/><path d="m2244.1 709.5 22.8 152.8h-40.7l-2-27.5H2210l-2.4 27.5h-41.1l20.2-152.8h57.4zm-21.1 98.2c-2-17.3-4-38.7-6-64.1-4 29.2-6.6 50.6-7.6 64.1h13.6z" class="st1"/><path d="M2363.6 709.5v122.2h24.2v30.6h-63.9V709.5h39.7zM496.9 1064.2V939.6h16.5v109.9h61.4v14.7h-77.9zM651.3 1053.1c-5.7 4.8-11.1 8.2-16.4 10.2-5.2 2-10.9 3-16.9 3-9.9 0-17.5-2.4-22.9-7.3-5.3-4.8-8-11-8-18.6 0-4.4 1-8.5 3-12.1 2-3.7 4.6-6.6 7.9-8.8 3.3-2.2 6.9-3.9 11-5 3-.8 7.5-1.6 13.6-2.3 12.4-1.5 21.4-3.2 27.3-5.3.1-2.1.1-3.4.1-4 0-6.2-1.4-10.6-4.3-13.2-3.9-3.5-9.7-5.2-17.4-5.2-7.2 0-12.5 1.3-15.9 3.8-3.4 2.5-6 7-7.6 13.4l-15-2c1.4-6.4 3.6-11.6 6.7-15.5 3.1-3.9 7.6-7 13.5-9.1 5.9-2.1 12.7-3.2 20.5-3.2 7.7 0 14 .9 18.8 2.7 4.8 1.8 8.4 4.1 10.6 6.8 2.3 2.7 3.9 6.2 4.8 10.4.5 2.6.8 7.3.8 14.1v20.4c0 14.2.3 23.2 1 27 .7 3.8 1.9 7.4 3.9 10.8h-16c-1.7-3.1-2.7-6.8-3.1-11zm-1.3-34.2c-5.6 2.3-13.9 4.2-25 5.8-6.3.9-10.7 1.9-13.3 3.1-2.6 1.1-4.6 2.8-6 5-1.4 2.2-2.1 4.6-2.1 7.3 0 4.1 1.5 7.5 4.6 10.2s7.6 4.1 13.6 4.1c5.9 0 11.1-1.3 15.7-3.9 4.6-2.6 8-6.1 10.1-10.6 1.6-3.5 2.5-8.6 2.5-15.3v-5.7zM705.8 1064.2 678.2 974H694l14.4 52.1 5.4 19.4c.2-1 1.8-7.2 4.7-18.6l14.4-52.9h15.7l13.5 52.3 4.5 17.3 5.2-17.4 15.5-52.2H802l-28.2 90.2h-15.9l-14.4-54-3.5-15.4-18.3 69.4h-15.9zM814.7 1064.2V974h13.8v13.7c3.5-6.4 6.8-10.6 9.7-12.7 3-2 6.2-3.1 9.8-3.1 5.2 0 10.4 1.6 15.7 4.9l-5.3 14.2c-3.7-2.2-7.5-3.3-11.2-3.3-3.3 0-6.3 1-9 3s-4.6 4.8-5.7 8.4c-1.7 5.4-2.5 11.4-2.5 17.8v47.2h-15.3zM934.6 1035.1l15.8 2c-2.5 9.2-7.1 16.4-13.9 21.5-6.7 5.1-15.4 7.6-25.8 7.6-13.2 0-23.7-4.1-31.4-12.2-7.7-8.1-11.6-19.5-11.6-34.2 0-15.2 3.9-27 11.7-35.4 7.8-8.4 18-12.6 30.4-12.6 12.1 0 21.9 4.1 29.6 12.3 7.6 8.2 11.5 19.8 11.5 34.7 0 .9 0 2.3-.1 4.1h-67.3c.6 9.9 3.4 17.5 8.4 22.8 5 5.3 11.3 7.9 18.9 7.9 5.6 0 10.4-1.5 14.4-4.4 3.9-2.9 7.1-7.6 9.4-14.1zm-50.2-24.7h50.4c-.7-7.6-2.6-13.3-5.8-17.1-4.9-5.9-11.2-8.8-19-8.8-7 0-12.9 2.4-17.7 7.1-4.8 4.7-7.4 10.9-7.9 18.8zM969.6 1064.2V974h13.8v12.8c6.6-9.9 16.2-14.9 28.7-14.9 5.4 0 10.4 1 15 2.9 4.6 2 8 4.5 10.2 7.7 2.3 3.2 3.9 6.9 4.8 11.3.6 2.8.9 7.8.9 14.9v55.5h-15.3v-54.9c0-6.2-.6-10.9-1.8-14-1.2-3.1-3.3-5.6-6.3-7.4-3-1.8-6.6-2.8-10.7-2.8-6.5 0-12.1 2.1-16.9 6.2-4.7 4.1-7.1 12-7.1 23.5v49.3h-15.3zM1125.3 1031.1l15 2c-1.6 10.4-5.9 18.5-12.6 24.3-6.8 5.9-15.1 8.8-24.9 8.8-12.4 0-22.3-4-29.8-12.1s-11.3-19.6-11.3-34.7c0-9.7 1.6-18.3 4.8-25.6 3.2-7.3 8.1-12.8 14.7-16.4 6.6-3.7 13.8-5.5 21.5-5.5 9.8 0 17.8 2.5 24 7.4 6.2 5 10.2 12 12 21.1l-14.9 2.3c-1.4-6.1-3.9-10.6-7.5-13.7-3.6-3.1-7.9-4.6-13-4.6-7.7 0-14 2.8-18.8 8.3-4.8 5.5-7.2 14.3-7.2 26.2 0 12.1 2.3 20.9 7 26.4 4.6 5.5 10.7 8.2 18.2 8.2 6 0 11-1.8 15-5.5 4.2-3.5 6.7-9.2 7.8-16.9zM1215.2 1035.1l15.8 2c-2.5 9.2-7.1 16.4-13.9 21.5-6.7 5.1-15.4 7.6-25.8 7.6-13.2 0-23.7-4.1-31.4-12.2-7.7-8.1-11.6-19.5-11.6-34.2 0-15.2 3.9-27 11.7-35.4 7.8-8.4 18-12.6 30.4-12.6 12.1 0 21.9 4.1 29.6 12.3 7.6 8.2 11.5 19.8 11.5 34.7 0 .9 0 2.3-.1 4.1h-67.3c.6 9.9 3.4 17.5 8.4 22.8 5 5.3 11.3 7.9 18.9 7.9 5.6 0 10.4-1.5 14.4-4.4 3.9-2.9 7.1-7.6 9.4-14.1zm-50.2-24.7h50.4c-.7-7.6-2.6-13.3-5.8-17.1-4.9-5.9-11.2-8.8-19-8.8-7 0-12.9 2.4-17.7 7.1-4.8 4.7-7.4 10.9-7.9 18.8zM1254.2 1064.2v-17.4h17.4v17.4c0 6.4-1.1 11.6-3.4 15.5-2.3 3.9-5.9 7-10.8 9.1l-4.2-6.5c3.2-1.4 5.6-3.5 7.1-6.2s2.4-6.7 2.5-11.9h-8.6zM1348.2 1064.2V939.6h16.5v61.8l61.9-61.8h22.3l-52.3 50.5 54.6 74.1h-21.8l-44.4-63.1-20.4 19.9v43.2h-16.4zM1521.9 1053.1c-5.7 4.8-11.1 8.2-16.4 10.2-5.2 2-10.9 3-16.9 3-9.9 0-17.5-2.4-22.9-7.3-5.3-4.8-8-11-8-18.6 0-4.4 1-8.5 3-12.1 2-3.7 4.6-6.6 7.9-8.8 3.3-2.2 6.9-3.9 11-5 3-.8 7.5-1.6 13.6-2.3 12.4-1.5 21.4-3.2 27.3-5.3.1-2.1.1-3.4.1-4 0-6.2-1.4-10.6-4.3-13.2-3.9-3.5-9.7-5.2-17.4-5.2-7.2 0-12.5 1.3-15.9 3.8-3.4 2.5-6 7-7.6 13.4l-15-2c1.4-6.4 3.6-11.6 6.7-15.5 3.1-3.9 7.6-7 13.5-9.1 5.9-2.1 12.7-3.2 20.5-3.2 7.7 0 14 .9 18.8 2.7 4.8 1.8 8.4 4.1 10.6 6.8 2.3 2.7 3.9 6.2 4.8 10.4.5 2.6.8 7.3.8 14.1v20.4c0 14.2.3 23.2 1 27 .7 3.8 1.9 7.4 3.9 10.8h-16c-1.6-3.1-2.7-6.8-3.1-11zm-1.3-34.2c-5.6 2.3-13.9 4.2-25 5.8-6.3.9-10.7 1.9-13.3 3.1-2.6 1.1-4.6 2.8-6 5-1.4 2.2-2.1 4.6-2.1 7.3 0 4.1 1.5 7.5 4.6 10.2s7.6 4.1 13.6 4.1c5.9 0 11.1-1.3 15.7-3.9 4.6-2.6 8-6.1 10.1-10.6 1.6-3.5 2.5-8.6 2.5-15.3v-5.7zM1559.8 1064.2V974h13.8v12.8c6.6-9.9 16.2-14.9 28.7-14.9 5.4 0 10.4 1 15 2.9 4.6 2 8 4.5 10.2 7.7 2.3 3.2 3.9 6.9 4.8 11.3.6 2.8.9 7.8.9 14.9v55.5h-15.3v-54.9c0-6.2-.6-10.9-1.8-14-1.2-3.1-3.3-5.6-6.3-7.4-3-1.8-6.6-2.8-10.7-2.8-6.5 0-12.1 2.1-16.9 6.2-4.7 4.1-7.1 12-7.1 23.5v49.3h-15.3zM1650.5 1037.3l15.1-2.4c.9 6.1 3.2 10.7 7.1 13.9 3.9 3.2 9.3 4.8 16.3 4.8s12.2-1.4 15.6-4.3c3.4-2.9 5.1-6.2 5.1-10.1 0-3.5-1.5-6.2-4.5-8.2-2.1-1.4-7.3-3.1-15.6-5.2-11.2-2.8-19-5.3-23.3-7.4-4.3-2.1-7.6-4.9-9.9-8.6-2.2-3.7-3.4-7.7-3.4-12.1 0-4 .9-7.7 2.8-11.2 1.8-3.4 4.3-6.3 7.5-8.5 2.4-1.8 5.6-3.2 9.7-4.5 4.1-1.2 8.5-1.8 13.2-1.8 7.1 0 13.3 1 18.7 3.1 5.4 2 9.3 4.8 11.9 8.3 2.5 3.5 4.3 8.1 5.3 14l-15 2c-.7-4.6-2.6-8.3-5.9-10.9-3.3-2.6-7.9-3.9-13.8-3.9-7 0-12 1.2-15 3.5s-4.5 5-4.5 8.2c0 2 .6 3.8 1.9 5.4 1.2 1.6 3.2 3 5.9 4.1 1.5.6 6 1.9 13.5 3.9 10.8 2.9 18.4 5.3 22.6 7.1 4.3 1.8 7.6 4.5 10.1 8 2.4 3.5 3.7 7.9 3.7 13.1 0 5.1-1.5 9.9-4.5 14.4s-7.3 8-12.9 10.5-12 3.7-19 3.7c-11.7 0-20.7-2.4-26.8-7.3-6.3-4.8-10.2-12.1-11.9-21.6zM1802.5 1053.1c-5.7 4.8-11.1 8.2-16.4 10.2-5.2 2-10.9 3-16.9 3-9.9 0-17.5-2.4-22.9-7.3-5.3-4.8-8-11-8-18.6 0-4.4 1-8.5 3-12.1 2-3.7 4.6-6.6 7.9-8.8 3.3-2.2 6.9-3.9 11-5 3-.8 7.5-1.6 13.6-2.3 12.3-1.5 21.4-3.2 27.3-5.3.1-2.1.1-3.4.1-4 0-6.2-1.4-10.6-4.3-13.2-3.9-3.5-9.7-5.2-17.4-5.2-7.2 0-12.5 1.3-15.9 3.8-3.4 2.5-6 7-7.6 13.4l-15-2c1.4-6.4 3.6-11.6 6.7-15.5 3.1-3.9 7.6-7 13.5-9.1 5.9-2.1 12.7-3.2 20.5-3.2 7.7 0 14 .9 18.8 2.7 4.8 1.8 8.4 4.1 10.6 6.8 2.3 2.7 3.9 6.2 4.8 10.4.5 2.6.8 7.3.8 14.1v20.4c0 14.2.3 23.2 1 27 .7 3.8 1.9 7.4 3.9 10.8h-16c-1.6-3.1-2.7-6.8-3.1-11zm-1.3-34.2c-5.6 2.3-13.9 4.2-25 5.8-6.3.9-10.7 1.9-13.3 3.1-2.6 1.1-4.6 2.8-6 5-1.4 2.2-2.1 4.6-2.1 7.3 0 4.1 1.5 7.5 4.6 10.2s7.6 4.1 13.6 4.1c5.9 0 11.1-1.3 15.7-3.9 4.6-2.6 8-6.1 10.1-10.6 1.6-3.5 2.5-8.6 2.5-15.3v-5.7zM1834.3 1037.3l15.1-2.4c.9 6.1 3.2 10.7 7.1 13.9 3.9 3.2 9.3 4.8 16.3 4.8s12.2-1.4 15.6-4.3c3.4-2.9 5.1-6.2 5.1-10.1 0-3.5-1.5-6.2-4.5-8.2-2.1-1.4-7.3-3.1-15.6-5.2-11.2-2.8-19-5.3-23.3-7.4-4.3-2.1-7.6-4.9-9.9-8.6-2.2-3.7-3.4-7.7-3.4-12.1 0-4 .9-7.7 2.8-11.2 1.8-3.4 4.3-6.3 7.5-8.5 2.4-1.8 5.6-3.2 9.7-4.5 4.1-1.2 8.5-1.8 13.2-1.8 7.1 0 13.3 1 18.7 3.1 5.4 2 9.3 4.8 11.9 8.3 2.5 3.5 4.3 8.1 5.3 14l-15 2c-.7-4.6-2.6-8.3-5.9-10.9-3.3-2.6-7.9-3.9-13.8-3.9-7 0-12 1.2-15 3.5s-4.5 5-4.5 8.2c0 2 .6 3.8 1.9 5.4 1.2 1.6 3.2 3 5.9 4.1 1.5.6 6 1.9 13.5 3.9 10.8 2.9 18.4 5.3 22.6 7.1 4.3 1.8 7.6 4.5 10.1 8 2.4 3.5 3.7 7.9 3.7 13.1 0 5.1-1.5 9.9-4.5 14.4s-7.3 8-12.9 10.5-12 3.7-19 3.7c-11.7 0-20.7-2.4-26.8-7.3-6.3-4.8-10.2-12.1-11.9-21.6z" class="st0"/></svg>