<?xml version="1.0" encoding="utf-8"?>
<!-- Generator: Adobe Illustrator 27.2.0, SVG Export Plug-In . SVG Version: 6.00 Build 0)  -->
<svg version="1.1" id="Layer_1" xmlns="http://www.w3.org/2000/svg" xmlns:xlink="http://www.w3.org/1999/xlink" x="0px" y="0px" viewBox="0 0 354.8 162" style="enable-background:new 0 0 354.8 162;" xml:space="preserve">
	<style type="text/css">
		.st0 {
			fill: #231F20;
		}

		.st1 {
			fill: #D21F27;
		}
	</style>
	<g>
		<g>
			<path class="st0" d="M97,0h34.5v8.2h-12.4v34.6h-9.5V8.2H97L97,0L97,0z" />
			<path class="st0" d="M171,25.2h-17.5v17.7H144V0h9.5v16.9H171V0h9.5v42.9H171V25.2z" />
			<path class="st0" d="M213.2,29h-9.1v13.9h-9.5V0h18.2c11.3,0,16.6,4.1,16.6,14.2c0,6.3-2.6,9.8-6.9,12.2l6.7,16.4h-10.4L213.2,29z
			 M212.8,8.1h-8.7v12.7h8.8c4.8,0,6.7-2.7,6.7-6.5C219.7,10.2,217.4,8.1,212.8,8.1z" />
			<path class="st0" d="M241.6,0h9.5v42.9h-9.5V0z" />
			<path class="st0" d="M301.4,0l-11.1,42.9h-17.6L261.9,0h10l8.2,34.7h3.1L291.4,0H301.4z" />
			<path class="st0" d="M312.3,0h30.3v8.2h-20.9v9.6h16.7v8h-16.7v8.9h20.9v8.2h-30.3V0z" />
		</g>
		<g>
			<path class="st0" d="M110.9,58.5h10l13.6,43.2h-4.3l-4-11.7h-21l-3.9,11.8h-4.3L110.9,58.5z M106.3,86.3h19l-7.7-24.3H114
			L106.3,86.3z" />
			<path class="st0" d="M144.1,101.8V58.5h4.2v39.6h22v3.7H144.1z" />
			<path class="st0" d="M180.4,101.8V58.5h4.2v39.6h22v3.7H180.4z" />
			<path class="st0" d="M216.6,58.5h28.7v3.6h-24.5V78h20.4v3.6h-20.4v16.6h24.5v3.6h-28.7V58.5z" />
			<path class="st0" d="M258.3,58.5h8.1l20.5,39h1.7v-39h4.3v43.3h-8.1l-20.7-39h-1.6v39h-4.2V58.5z" />
		</g>
		<g>
			<path class="st0" d="M130.1,160.6c0,0-7.5,1.4-13,1.4c-14.3,0-17.4-8.1-17.4-22.1c0-14.2,3-22.4,17.4-22.4
			c6.4,0,13.1,1.3,13.1,1.3l-0.3,3.5c0,0-7.3-1.2-12.4-1.2c-11.5,0-13.3,6.6-13.3,18.8c0,11.9,1.9,18.4,13.4,18.4
			c4.6,0,12.4-1.1,12.4-1.1L130.1,160.6z" />
			<path class="st0" d="M139.9,140c0-14.2,3.9-22.5,18.7-22.5s18.8,8.1,18.8,22.5c0,14.8-3.9,22-18.8,22S139.9,154.3,139.9,140z
			 M173,140c0-12-2.7-18.8-14.4-18.8c-11.7,0-14.3,6.8-14.3,18.8c0,12.1,2.4,18.4,14.3,18.4C170.6,158.3,173,152.5,173,140z" />
			<path class="st0" d="M204.9,158.3c7.7,0,12.4-2.4,12.4-9.6v-30.6h4.2v30.6c0,9.6-5.9,13.2-16.6,13.2c-10.2,0-16.2-3.6-16.2-13.2
			v-30.6h4.3v30.6C193,155.8,197.6,158.3,204.9,158.3z" />
			<path class="st0" d="M235,118.1h8.1l20.5,39h1.7v-39h4.3v43.3h-8.1l-20.7-39h-1.6v39H235V118.1z" />
			<path class="st0" d="M278.7,118.1h34.5v3.6h-15.1v39.7H294v-39.7h-15.3V118.1z" />
			<path class="st0" d="M339.6,161.4h-4.3v-18.6l-15.4-24.7h4.8l12.8,20.4l12.6-20.4h4.8l-15.2,24.7V161.4z" />
		</g>
		<g>
			<g>
				<path class="st1" d="M23.2,154.7c38.8-46,45.8-68.1,49.6-77.8c-3.5-1.4-12-3.9-27-4.6C44.3,120.7,23.2,154.7,23.2,154.7z" />
				<path class="st1" d="M2.3,74.9C1.9,74.9,1.4,75,1,75.1c3.8,4.1,19.7,24.4,17.4,79.4l-0.1,2.2l1.2-1.9c0.3-0.5,20.3-35,21.9-82.7
				c-0.4,0-0.7,0-1.1,0C30.2,71.9,17.6,72.6,2.3,74.9z" />
				<path class="st1" d="M40.3,68.8c0.4,0,0.8,0,1.1,0C41.7,49.8,39,28.7,30.9,7l-0.6-1.6L29.8,7C29.7,7.4,15.2,51.9,0,72.2
				c0.5-0.1,2.4-0.5,2.9-0.5C17.9,69.5,30.3,68.7,40.3,68.8z" />
				<path class="st1" d="M73.4,73.6C68.7,43.4,35.5,7,35.5,7c7.9,22,10.5,43,10.3,61.9C61.5,69.7,69.6,72,73.4,73.6z" />
			</g>
		</g>
	</g>
</svg>