<svg xmlns="http://www.w3.org/2000/svg" viewBox="0 0 1280 330"><defs><style>.a{fill:#5b1414}</style></defs><path d="M1250.24 138.84c-3.88 0-4-3.68-4-4.1 0-2.08-.12-23.87-.12-23.87a7.85 7.85 0 0 1 3.58-7.08c1.38-1 2.74-2 4.26-3.15l1.54-1.15a1.63 1.63 0 0 0 .62-1.62 1.59 1.59 0 0 0-1.19-1.24l-123.65-30.5a8.27 8.27 0 0 0-1.92-.23l-30.26-.06a5.08 5.08 0 0 1-1.88-.37l-54-22.15c-1.63-.67-3.36-1.67-5.12-1.68H810.34a8.91 8.91 0 0 0-5.29 1.71L745.64 86.4a6.05 6.05 0 0 1-3.19 1.34c-.74 0-1.8-.3-3.35-2.71a4.42 4.42 0 0 1-.45-.85l-.26-.88H563.16l4.43 3.79c1.09 1.06 2.13 2.82.6 4.8a2.92 2.92 0 0 1-2.38 1 5.78 5.78 0 0 1-3-.91L507.05 54l.14-9.14a1.64 1.64 0 0 0-.75-1.39L468.31 19.7a5.56 5.56 0 0 0-2.94-1 4.91 4.91 0 0 0-3.11 1.3l-93.09 73.09a4.48 4.48 0 0 1-1.58.28 4.09 4.09 0 0 1-3.4-1.56 3.47 3.47 0 0 1 .74-4.49c.41-.37 1.83-1.41 2.69-2l3.16-2.25h-3.87l-194 1.3h-.15a20 20 0 0 1-9.9-2.63L108.66 51a6.57 6.57 0 0 0-3.25-1 5.25 5.25 0 0 0-2.56.71L25.2 93a1.61 1.61 0 0 0-.83 1.61A1.59 1.59 0 0 0 25.54 96c4.8 1.31 5.68 4.34 5.68 9.83 0 0 .26 18.1.38 27.15a12.21 12.21 0 0 1-.23 3.26 3.05 3.05 0 0 1-3.24 2.44 2 2 0 0 1-.58-.08c-2.73-.79-2.89-2.37-2.93-5.11l-.11-5.87c-.13-6.78-.27-13.79-.25-20.68 0-3.11-1.26-4.82-4.11-5.54-1.7-.43-6.38-2.08-7.25-2.39-.25-.11-2.74-1.26-2.89-3.55s1.28-3 3.6-4.29l87.12-47.31a9.49 9.49 0 0 1 4.72-1.45 10 10 0 0 1 5 1.56L166 75.38a14.73 14.73 0 0 0 7.22 1.88C229.11 77 343.08 76.19 376.68 76h1.24a1.59 1.59 0 0 0 .95-.33l26.84-20.21a1.57 1.57 0 0 0 .64-1.23l.6-14.62c.07-1.64.63-4.39 3.5-4.39h.14c2.76.08 3.32 2.57 3.32 4.64v6.28a1.62 1.62 0 0 0 2.62 1.27L460 12.94c2.08-1.65 3.5-2.33 4.91-2.33a9.24 9.24 0 0 1 4.59 1.72c10.37 6.3 32.66 20.07 35.17 21.62a1.62 1.62 0 0 0 2.46-1.39v-.46a4.25 4.25 0 0 1 1.19-3.05A3.52 3.52 0 0 1 510.8 28a3.9 3.9 0 0 1 .88.1 3 3 0 0 1 2.41 3.13v18.63a1.6 1.6 0 0 0 .69 1.31l35.86 24.95a1.59 1.59 0 0 0 .92.29l195.94-.13a1.57 1.57 0 0 0 1-.31L799.78 38a18.75 18.75 0 0 1 11-3.53h227.5c2.34 0 5.88 1.37 7.84 2.33 15.53 7.54 46.07 19.07 52 21.3a8.22 8.22 0 0 0 2.86.52l29.65.11a11.61 11.61 0 0 1 2.62.33l131.4 32.78c.44.1.88.21 1.31.33 2.29.64 3.74 1.76 4 3.07s-.7 2.91-2.61 4.36c-3.31 2.53-6.89 5.1-11.27 8.1a6.18 6.18 0 0 0-2.95 5.64s.06 19.86.06 21.45c0 2.87-.86 4.05-2.95 4.05Z" class="a"/><path d="M791.56 99.13c-1.9-2.68 1.42-4.91 1.42-4.91l55.95-39a8.86 8.86 0 0 1 4.43-1.33 9.21 9.21 0 0 1 4.41 1.28l55.67 37.61h.06s2.43 2.3.93 4.8a3.39 3.39 0 0 1-4.22 1.35l-53.46-36.41h-.06a6.53 6.53 0 0 0-3.21-.94 6.63 6.63 0 0 0-3.34 1l-53.54 37.61s-3.13 1.61-5.04-1.06ZM70.54 146H56.29c-.58 0-1.35.38-1.35-2.3v-27.58c0-1.53.26-3.82 1.29-3.82h69.24c3 0 45.06 10.13 45.06 71.51 0 61.18-33.84 71.89-48.28 71.89h-64.6c-1.29 0-2.71 0-2.71-4.78v-22.75c0-2.87.13-6.5 1.42-6.5h14.18Zm32.82 75.72h11.86c7.41 0 18.57-12 18.57-37.86 0-27-12.19-37.86-15.35-37.86h-15.08ZM223.34 256.08c-12.57 0-41.58-3-41.58-51.62 0-48.76 30.82-51.25 34.17-51.25h12.25c14 0 34.1 17.4 34.1 48.76v3.44c0 1-.39 1.53-1.42 1.53h-49.12c.51 15.11 7.26 20.06 13.47 20.06h6.38c5.68 0 10.45-1.91 13.54-11.28.26-.57.52-1 .71-1H261c.58 0 .71 1.72.65 2.3-1.62 10.13-7 39-31.21 39Zm9.8-65.2c-1.35-5.73-3.87-12-9.67-12-7.54 0-9.54 5.92-10.89 12ZM336 153.21c8.32 0 25.66 18.17 25.66 52.4 0 35.75-16.05 50.47-28.5 50.47-8.18 0-18.95-10.13-21.53-18.92V257h11.22c.45 0 1.09 1 1.09 1.72v24.67c0 1.91-.32 3.06-.7 3.06h-49.8c-.51 0-.9-.19-.9-1.34V259c0-1.34.26-1.91.71-1.91h11.47v-73.86h-11c-.71 0-1.16-.57-1.16-1.91v-23.9c0-2.29.45-3.63 1.09-3.63h37.25c.51 0 .84 1 .84 1.91v15.87c2.9-8.41 9.21-18.36 18.43-18.36Zm-24.3 51.44c0 15.68 5 21.8 10.44 21.8 5 0 9.61-5.74 9.61-20.84 0-16.45-5.36-23.52-10.58-23.52-4.02 0-9.43 8.79-9.43 22.56ZM409.86 256.08c-21.85 0-36.61-24.28-36.61-51.81 0-37.67 20.82-51.06 38.42-51.06H419c11.6 0 36 12.82 36 52 0 46.66-28.31 50.86-35.59 50.86Zm-6.51-51.24c0 13.58 4.84 23.14 11.16 23.14 5.93 0 11.41-8.61 11.41-23.14 0-15.1-6.64-23.13-11.41-23.13-5.42 0-11.16 8.41-11.16 23.13ZM477.5 183h-11c-.71 0-1.17-.76-1.17-1.91v-22.52c0-2.3.39-3.44 1-3.44h3.93c10.89 0 15.86-9.56 18.24-38 .13-1.92.58-3.83 1-3.83h13.4c.64 0 1.16 1 1.16 2.87v39h12c.84 0 1.94.38 1.94 3.63v21c0 1.34-.65 3.25-1.42 3.25h-12.52v27.15c0 5.55 1.61 16.07 5.29 16.07 4 0 6.06-7.84 7.22-20.85.13-1.91.32-4.39 1.09-4.39H525c.65 0 .84.95.84 2.86 0 9.37-2.9 51.82-19.08 51.82h-16.82c-2.38 0-12.44-5.16-12.44-28.49ZM663.37 220.52c.58 0 1 .19 1 1.15v32.88c0 1-.39 1.15-1 1.15h-64.53c-.26 0-.71-.76-.71-2.67V223c0-1 .32-2.49.71-2.49h15.41v-73.6H597v25.62c0 1.34-.52 1.34-.9 1.34h-21.57c-.58 0-1-1-1-2.49V115c0-1.34.32-2.67.78-2.67H687c.71 0 1.16.38 1.16 4.58v54.31c0 1.34-.19 3.06-.77 3.06h-20.73c-.39 0-.71 0-.71-2.3v-25h-18.5v73.61ZM765.5 153.79c18.18 0 20.24 19.31 20.24 36.14v36.33h11c.65 0 .84.76.84 1.33v26.2c0 1.72 0 1.91-.39 1.91H749.7c-.77 0-1-1.15-1-3.06v-24.09c0-1.34.32-2.29.84-2.29H759V214.4c0-21.22 0-30.59-11.09-30.59s-11.22 21-11.22 36.9v5.74h8.64c.51 0 .84 1.14.84 2.1v25.24c0 1.53-.33 1.91-.84 1.91h-47.46c-.39 0-.64-1.72-.64-2.67v-24.67c0-1.15.45-1.91.77-1.91h11.41v-84.71h-10.89c-.71 0-1.23-.76-1.23-1.91v-23.9c0-2.49.39-3.63 1-3.63h37.59c.51 0 .84 1 .84 1.91v58.7h.19c1.29-5.35 5-19.12 15.34-19.12ZM849.38 256.08c-12.57 0-41.58-3-41.58-51.62 0-48.76 30.81-51.25 34.17-51.25h12.24c14 0 34.11 17.4 34.11 48.76v3.44c0 1-.39 1.53-1.42 1.53h-49.12c.51 15.11 7.28 20.08 13.47 20.08h6.38c5.67 0 10.45-1.91 13.54-11.28.26-.57.52-1 .71-1H887c.58 0 .71 1.72.64 2.3-1.61 10.13-7 39-31.2 39Zm9.8-65.2c-1.35-5.73-3.87-12-9.67-12-7.54 0-9.54 5.92-10.9 12ZM971.81 216.5c0 1 .78 10.33 4.64 10.33 4.71 0 5-14.53 5-15.3 0-.95.2-1.72.58-1.72h8.06c.13 0 .26.38.26 1 0 33.27-9.35 44.93-16 44.93h-18c-6.06 0-10.57-9.94-12.31-18.54-3.23 13.76-14.9 18.92-17.47 18.92-7.81 0-26.69-2.1-26.69-30 0-28.1 20.88-32.12 23.78-32.12h11c3 0 9.22-2.29 9.22-7.65 0-6.31-3.36-8.79-6.13-8.79h-8.06c-3 0-7.28 8.22-8.83 10.13-1.67 2.11-9 7.27-11.6 7.27-2.32 0-9-3.64-9-17.78 0-21.23 13.28-23.91 34-23.91 23.4 0 37.52 3.64 37.52 35Zm-28-16.63h-.13c-.71 3.06-3 9.56-5.87 11.47-4.64 3.06-8.31 4.4-8.31 11.67 0 4.2 2.83 4.58 3.87 4.58 5.47 0 10.44-4.58 10.44-19.88ZM1004.44 183h-11c-.71 0-1.16-.76-1.16-1.91v-22.52c0-2.3.38-3.44 1-3.44h3.93c10.9 0 15.86-9.56 18.25-38 .13-1.92.58-3.83 1-3.83h13.41c.65 0 1.16 1 1.16 2.87v39h12c.83 0 1.93.38 1.93 3.63v21c0 1.34-.65 3.25-1.42 3.25H1031v27.15c0 5.55 1.62 16.07 5.29 16.07 4 0 6.06-7.84 7.22-20.85.13-1.91.32-4.39 1.1-4.39h7.39c.64 0 .83.95.83 2.86 0 9.37-2.9 51.82-19.08 51.82h-16.83c-2.38 0-12.44-5.16-12.44-28.49ZM1104.63 256.08c-12.57 0-41.58-3-41.58-51.62 0-48.76 30.82-51.25 34.17-51.25h12.25c14 0 34.1 17.4 34.1 48.76v3.44c0 1-.39 1.53-1.42 1.53H1093c.51 15.11 7.28 20.08 13.47 20.08h6.38c5.68 0 10.45-1.91 13.54-11.28.26-.57.52-1 .71-1h15.15c.58 0 .71 1.72.65 2.3-1.62 10.13-7 39-31.21 39Zm9.8-65.2c-1.35-5.73-3.87-12-9.67-12-7.54 0-9.54 5.92-10.89 12ZM1214.36 153.21c4.52 0 11.48 9 11.48 23.71 0 13.77-4.84 21.42-9.35 21.42s-7.61-6.12-9.35-9.56c-1.74-3.63-3.48-5-5.54-5-2.9 0-8.57 7.26-8.57 20.46v22h11.08c.46 0 .78 1.14.78 2.1v25.26c0 1.34-.58 2.1-1 2.1h-49.29c-.39 0-.77-1.34-.77-2.29v-25.24c0-1.15.45-1.91.77-1.91h11.54v-43H1155c-.71 0-1.16-.57-1.16-1.91v-23.9c0-2.29.45-3.63 1.09-3.63h37.27c.51 0 .84 1 .84 1.91v16.83c2.64-8.8 9.41-19.32 16.89-19.32ZM401 310.12v-.69a3 3 0 0 0 2-2.76v-21.45a3 3 0 0 0-2-2.75v-.69h15.2c8.42 0 13.64 6 13.64 14.33 0 8.78-6.19 14-13.64 14Zm21.94-14c0-5.75-2.71-8.26-6.76-8.26h-6.48V304h6.48c4.55 0 6.82-3.24 6.82-7.89ZM433.12 296a15 15 0 0 1 29.95 0c0 8.54-7 14.53-15 14.53A14.53 14.53 0 0 1 433.12 296Zm23.07 0a8 8 0 0 0-8.14-8.34c-4.89 0-8.05 3.85-8.05 8.34a8.1 8.1 0 1 0 16.19 0ZM465.62 310.12v-.69a3 3 0 0 0 2-2.76v-21.45a3 3 0 0 0-2-2.75v-.69h15.18c8.42 0 13.65 6 13.65 14.33 0 8.78-6.2 14-13.65 14Zm21.94-14c0-5.75-2.71-8.26-6.76-8.26h-6.47V304h6.47c4.54 0 6.76-3.24 6.76-7.89ZM505.29 308.58a14.54 14.54 0 0 1-5.62-5.35 14 14 0 0 1-2.11-7.61 12.88 12.88 0 0 1 2.11-7.2 14.55 14.55 0 0 1 5.62-5.14 16 16 0 0 1 7.69-1.91 15.14 15.14 0 0 1 11.1 4.42 3.11 3.11 0 0 0 2.38 1.25 1.28 1.28 0 0 0 .45 0l.45.53-1.3 1.09-4.66 3.28c-.08 0-.12 0-.16-.12a13.29 13.29 0 0 0-3.48-3.2 9 9 0 0 0-4.78-1.13 9.64 9.64 0 0 0-4.37 1 7.66 7.66 0 0 0-3 2.83 8.19 8.19 0 0 0-1.14 4.37 9.1 9.1 0 0 0 1.14 4.62 7.84 7.84 0 0 0 3 3.12 8.88 8.88 0 0 0 4.37 1.09c2.92 0 5.15-.49 6.68-1.5v-3.44h-3.44a3.22 3.22 0 0 0-1.66.41 2.73 2.73 0 0 0-1.09 1.17h-.69v-6.64a.19.19 0 0 1 .2-.2h13.16a.19.19 0 0 1 .2.2v10.61a10.73 10.73 0 0 1-5.22 4 21.57 21.57 0 0 1-8.14 1.46 15.69 15.69 0 0 1-7.69-2.01ZM530.35 310.12v-.69a3 3 0 0 0 2-2.76v-21.45a3 3 0 0 0-2-2.75v-.69h23.84v7.89h-.69a3 3 0 0 0-2.75-1.82h-11.7V293h5.67a3 3 0 0 0 2.75-2h.69v9.92h-.69a3 3 0 0 0-2.75-2h-5.67V304h12.35a3 3 0 0 0 2.75-1.82h.69v7.9ZM579.41 308.54a14.51 14.51 0 0 1-5.3-5.31 14.33 14.33 0 0 1 0-14.57 14.82 14.82 0 0 1 5.3-5.34 14.22 14.22 0 0 1 7.29-1.95 14.69 14.69 0 0 1 6 1.3 13.9 13.9 0 0 1 4.86 3.6 3.46 3.46 0 0 0 1.29 1.14 2.41 2.41 0 0 0 1.26.36h.16l.36.57c-3.64 2.67-1.86 1.37-5.54 4.17h-.08c-.08 0-.12 0-.2-.12a9 9 0 0 0-8.14-4.82 7.46 7.46 0 0 0-4.05 1.09 7 7 0 0 0-2.67 3 9.25 9.25 0 0 0-1 4.29 9.11 9.11 0 0 0 1 4.25 7.15 7.15 0 0 0 2.67 3 7.47 7.47 0 0 0 4.05 1.1 8.88 8.88 0 0 0 8.14-4.33c.08-.09.12-.13.2-.13h.08l5.67 4.25-.41.57h-.24a3.31 3.31 0 0 0-1.22.24 3.51 3.51 0 0 0-1.33 1.1 15.68 15.68 0 0 1-4.94 3.28 15 15 0 0 1-5.95 1.21 14 14 0 0 1-7.26-1.95ZM603.82 310.12v-.69a3 3 0 0 0 2-2.76v-21.45a3 3 0 0 0-2-2.75v-.69h10.73v.69a3 3 0 0 0-2 2.75v21.45a3 3 0 0 0 2 2.76v.69ZM624.59 310.12v-.69a3 3 0 0 0 2-2.76v-18.82h-5.54a3 3 0 0 0-2.76 1.82h-.69V282a.2.2 0 0 1 .21-.2h24.25a.19.19 0 0 1 .2.2v7.69h-.69a3 3 0 0 0-2.75-1.82h-5.55v18.82a3 3 0 0 0 2 2.76v.69ZM653.61 310.12v-.69a3 3 0 0 0 2-2.76v-10.12l-7.61-11.9c-.6-.85-1.41-1.17-3.23-2.18v-.69h10.48v.69c-.52.24-.77.48-.77.77a3.28 3.28 0 0 0 .69 1.37l3.72 5.51 3.73-5.51a3.28 3.28 0 0 0 .69-1.37c0-.29-.25-.53-.77-.77v-.69H673v.69c-1.74 1-2.59 1.25-3.24 2.18l-7.65 11.9v10.12a3 3 0 0 0 2 2.76v.69ZM671.5 314.85a.64.64 0 0 1 .33-.64 3.05 3.05 0 0 0 1.62-1.71 5.84 5.84 0 0 0 .44-1.9 3.35 3.35 0 0 1 .29-6.68 3.23 3.23 0 0 1 3.36 3.36c0 3.61-2.07 7.45-5.75 8.14-.21 0-.29-.12-.29-.57ZM712.87 310.12v-.69c.85-.29 1.3-.65 1.3-1.1a2.26 2.26 0 0 0-.45-1.09L707 296.88l-3.19 3v6.8a3 3 0 0 0 2 2.76v.69h-10.67v-.69a3 3 0 0 0 2-2.76v-21.46a3 3 0 0 0-2-2.75v-.69h10.73v.69a3 3 0 0 0-2 2.75v6.72l8-7.77c.12-.12.77-.69.77-1s-.4-.53-1.25-.73v-.69h12.22v.69a12.9 12.9 0 0 0-4 2.55l-7.44 7 9.67 15.18c.69 1.09 2.59 1.82 3.24 2.23v.69ZM749.71 310.12v-.69c1-.37 1.58-.85 1.58-1.54a3 3 0 0 0-.2-.93l-.49-1.13h-13.52l-.48 1.17a2.78 2.78 0 0 0-.21.93c0 .69.53 1.17 1.58 1.54v.69h-11.05v-.69a5.81 5.81 0 0 0 2.71-2.47l9.4-22a3.06 3.06 0 0 0 .2-.93c0-.69-.53-1.18-1.58-1.54v-.69h9.51a.24.24 0 0 1 .25.16l10.64 25a5.91 5.91 0 0 0 2.71 2.47v.69ZM743.84 290l-4.25 10h8.5ZM789.5 310.52l-17.2-17.28v13.43a3 3 0 0 0 2 2.76v.69h-10.7v-.69a3 3 0 0 0 2-2.76v-21.45a3 3 0 0 0-2-2.75v-.69h7.4a.37.37 0 0 1 .29.12l13.52 14.1v-10.78a3 3 0 0 0-2-2.75v-.69h10.73v.69a3 3 0 0 0-2 2.75v25.3ZM804.12 309.47a22.92 22.92 0 0 1-5.55-2.71 2.72 2.72 0 0 0-1.82-.69 2.84 2.84 0 0 0-1.38.36l-.56-.4 5-6.72c.08-.08.12-.08.16-.08s.08 0 .12.08a18.66 18.66 0 0 0 5.22 3.8 12.46 12.46 0 0 0 5.55 1.34 4.75 4.75 0 0 0 2.83-.69 1.89 1.89 0 0 0 .89-1.58 2.51 2.51 0 0 0-.44-1.42 4.69 4.69 0 0 0-2-1.21 26.07 26.07 0 0 0-4.77-1 17 17 0 0 1-7.57-2.55c-1.87-1.26-2.8-3.36-2.8-6.28a7.46 7.46 0 0 1 1.38-4.45 9.05 9.05 0 0 1 3.8-2.95 13.86 13.86 0 0 1 5.47-1.06 17.48 17.48 0 0 1 8.74 2.19 2.9 2.9 0 0 0 1.74.61 3.24 3.24 0 0 0 1.5-.41l.57.37-4.37 6.19-.16.08h-.13a14.38 14.38 0 0 0-8.62-2.91 4.14 4.14 0 0 0-2.39.6 1.91 1.91 0 0 0-.85 1.5c0 .77.57 1.42 1.66 1.94a17.76 17.76 0 0 0 5.22 1.22 18 18 0 0 1 7.94 2.67c1.9 1.34 2.87 3.52 2.87 6.56a7.47 7.47 0 0 1-1.49 4.77 9.37 9.37 0 0 1-3.89 2.92 13.62 13.62 0 0 1-5.14 1 21 21 0 0 1-6.73-1.09ZM844.76 310.12v-.69c1-.37 1.58-.85 1.58-1.54a3 3 0 0 0-.2-.93l-.49-1.13h-13.52l-.49 1.13a3 3 0 0 0-.2.93c0 .69.53 1.17 1.58 1.54v.69H822v-.69a5.81 5.81 0 0 0 2.71-2.47l9.39-22a3.11 3.11 0 0 0 .21-.93c0-.69-.53-1.18-1.58-1.54v-.69h9.51a.22.22 0 0 1 .24.16l10.65 25a5.86 5.86 0 0 0 2.71 2.47v.69ZM838.89 290l-4.25 10h8.5ZM865.65 309.47a22.92 22.92 0 0 1-5.55-2.71 2.72 2.72 0 0 0-1.82-.69 2.84 2.84 0 0 0-1.38.36l-.56-.4 5-6.72c.08-.08.12-.08.16-.08s.08 0 .12.08a18.66 18.66 0 0 0 5.22 3.8 12.46 12.46 0 0 0 5.55 1.34 4.75 4.75 0 0 0 2.83-.69 1.89 1.89 0 0 0 .89-1.58 2.51 2.51 0 0 0-.44-1.42 4.69 4.69 0 0 0-2-1.21 26.07 26.07 0 0 0-4.77-1 17 17 0 0 1-7.57-2.55c-1.87-1.26-2.8-3.36-2.8-6.28a7.46 7.46 0 0 1 1.38-4.45 9 9 0 0 1 3.81-2.95 13.77 13.77 0 0 1 5.46-1.06 17.48 17.48 0 0 1 8.74 2.19 2.9 2.9 0 0 0 1.74.61 3.24 3.24 0 0 0 1.5-.41l.57.37-4.37 6.19-.16.08h-.13a14.38 14.38 0 0 0-8.62-2.91 4.14 4.14 0 0 0-2.39.6 1.91 1.91 0 0 0-.85 1.5c0 .77.57 1.42 1.66 1.94a17.84 17.84 0 0 0 5.22 1.22 18 18 0 0 1 7.91 2.66c1.9 1.34 2.87 3.52 2.87 6.56a7.47 7.47 0 0 1-1.49 4.77 9.37 9.37 0 0 1-3.89 2.92 13.62 13.62 0 0 1-5.14 1 21 21 0 0 1-6.7-1.08Z" class="a"/></svg>