<?xml version="1.0" encoding="UTF-8"?><svg id="uuid-faf91d6f-57b6-4d0e-8ced-2dd16c7b1632" xmlns="http://www.w3.org/2000/svg" viewBox="0 0 1200 530"><defs><style>.uuid-d7874c74-8fea-4d83-9fd2-0e3078c47321{fill:#e05a28;}.uuid-d7874c74-8fea-4d83-9fd2-0e3078c47321,.uuid-629b93d6-f5b9-4cae-9e2e-4b35c2cbd097,.uuid-094f78f4-9984-493c-a363-a65a5a2b8cac,.uuid-b62798f1-ee27-4cf4-b1cc-9c4c2727d020{stroke-width:0px;}.uuid-629b93d6-f5b9-4cae-9e2e-4b35c2cbd097{fill:#4297cb;}.uuid-094f78f4-9984-493c-a363-a65a5a2b8cac{fill:#0a4976;}.uuid-b62798f1-ee27-4cf4-b1cc-9c4c2727d020{fill:#f2b11f;}</style></defs><path class="uuid-629b93d6-f5b9-4cae-9e2e-4b35c2cbd097" d="M549.006,518.586h-12.528v-49.545h12.528v22.154l13.518-22.154h12.67v1.698l-14.368,22.296,5.521,10.617c2.618,5.095,3.893,5.592,6.44,5.592.92,0,2.265-.497,3.469-1.274,1.344,2.973,2.76,5.804,4.105,8.706-3.681,1.981-6.228,2.69-9.98,2.69-5.946,0-11.325-3.045-14.652-10.263l-6.723-13.519v23.003Z"/><path class="uuid-629b93d6-f5b9-4cae-9e2e-4b35c2cbd097" d="M627.417,518.586l19.182-49.545h11.677l19.464,49.545h-13.163l-3.399-8.777h-17.552l-3.256,8.777h-12.953ZM646.316,499.76h12.032l-5.875-17.412-6.158,17.412Z"/><path class="uuid-629b93d6-f5b9-4cae-9e2e-4b35c2cbd097" d="M742.918,491.053v27.532h-12.529v-49.545h9.698l19.676,27.179v-27.179h12.527v49.545h-9.625l-19.747-27.532Z"/><path class="uuid-629b93d6-f5b9-4cae-9e2e-4b35c2cbd097" d="M837.395,502.165c1.204,4.459,4.176,6.866,8.918,6.866,3.682,0,6.796-1.345,6.796-4.459,0-1.628-.921-3.326-5.097-4.742l-5.52-1.983c-7.503-2.547-13.448-7.927-13.519-14.65,0-9.13,7.573-14.934,17.764-14.934,8.282,0,14.228,4.033,17.13,11.677l-10.051,4.035c-1.698-4.176-4.318-5.378-7.008-5.378-2.973,0-5.449,1.202-5.449,4.033,0,1.345.566,3.256,4.813,4.671l5.309,1.84c11.112,3.611,13.802,9.556,13.943,15.076,0,10.475-9.342,15.148-18.899,15.148-10.263,0-18.543-5.451-19.747-14.934l10.617-2.266Z"/><path class="uuid-629b93d6-f5b9-4cae-9e2e-4b35c2cbd097" d="M914.11,518.586l19.182-49.545h11.677l19.464,49.545h-13.163l-3.399-8.777h-17.552l-3.256,8.777h-12.953ZM933.008,499.76h12.032l-5.875-17.412-6.158,17.412Z"/><path class="uuid-629b93d6-f5b9-4cae-9e2e-4b35c2cbd097" d="M1022.957,502.165c1.204,4.459,4.176,6.866,8.918,6.866,3.682,0,6.796-1.345,6.796-4.459,0-1.628-.921-3.326-5.097-4.742l-5.52-1.983c-7.503-2.547-13.448-7.927-13.519-14.65,0-9.13,7.573-14.934,17.764-14.934,8.282,0,14.228,4.033,17.13,11.677l-10.051,4.035c-1.698-4.176-4.318-5.378-7.008-5.378-2.973,0-5.449,1.202-5.449,4.033,0,1.345.566,3.256,4.813,4.671l5.309,1.84c11.112,3.611,13.802,9.556,13.943,15.076,0,10.475-9.342,15.148-18.899,15.148-10.263,0-18.543-5.451-19.747-14.934l10.617-2.266Z"/><path class="uuid-d7874c74-8fea-4d83-9fd2-0e3078c47321" d="M487.341,176.713c.015,0,.028-.005.043-.005.294-.003.557.045.832.075,5.325-23.301.962-46.712-12.897-66.513-16.934-24.193-15.817-30.893-13.397-37.222,3.653-9.554,13.035-13.823,18.352-8.553,1.272,1.252-.483-7.888-10.357-8.325-5.24-.232-8.499,1.974-18.93,11.259-4.289-4.66,1.253-6.145,3.147-6.502.273-.051.384-.413.214-.632-4.648-5.994-12.219,4.978-16.118,7.195-2.447,1.391-5.91.883-8.461.14-1.186-.346-2.21.852-1.656,1.956,3.647,7.262,14.513,26.406,37.638,50.709,20.894,21.957,22.343,45.256,21.59,56.418Z"/><path class="uuid-b62798f1-ee27-4cf4-b1cc-9c4c2727d020" d="M414.051,282.399c-1.735,1.265-3.84-1.044-2.421-2.657,38.077-43.292,24.777-74.504,3.546-102.084-28.074-36.481-38.134-64.632-36.916-92.907,2.083-48.639,21.919-67.907,31.698-74.498,1.263-.851,2.809.623,2.032,1.935-14.907,25.186-2.29,61.305,44.256,116.977,57.559,68.844-10.822,130.366-42.195,153.235Z"/><path class="uuid-629b93d6-f5b9-4cae-9e2e-4b35c2cbd097" d="M399.195,282.35c-.86.94-2.376.559-2.746-.662-3.028-9.981-12.973-13.984-19.249-18.067-22.379-14.563-49.721-34.962-47.714-70.865.101-1.798,2.674-2.083,3.175-.354,8.588,29.628,35.943,37.808,42.229,38.506,1.524.169,1.708-.892.863-1.737-60.222-44.958-28.952-92.038-21.865-110.123,3.939-10.043,2.146-28.116-7.401-40.634-1.09-1.429.67-3.322,2.171-2.335,10.908,7.173,26.773,23.753,20.098,57.551-5.913,29.991,4.58,46.789,18.606,57.94,1.402,1.114,2.634.168,1.737-1.384-10.813-18.718-11.552-28.557-8.288-37.806.567-1.606,2.848-1.393,3.143.284,1.965,11.168,9.995,20.569,24.288,38.355,32.828,40.677-.106,81.558-9.048,91.331Z"/><path class="uuid-094f78f4-9984-493c-a363-a65a5a2b8cac" d="M10,242.279h35.418v161.871h74.073v31.544H10v-193.415Z"/><path class="uuid-094f78f4-9984-493c-a363-a65a5a2b8cac" d="M130.283,369.841c0-53.405,40.118-68.071,63.642-68.071,32.653,0,45.379,18.818,47.042,21.306v-18.264h34.032l-.277,100.169h11.069v30.712h-7.195c-24.349,0-33.207-10.792-35.973-16.878,0,0-13.28,19.372-48.699,19.372-42.058,0-63.642-32.653-63.642-68.348ZM201.12,406.916h1.934c24.349,0,38.184-13.28,38.184-36.521,0-23.801-13.835-37.359-37.907-37.359h-1.934c-24.072,0-37.913,13.28-37.913,36.804s13.564,37.075,37.636,37.075Z"/><polygon class="uuid-094f78f4-9984-493c-a363-a65a5a2b8cac" points="487.105 304.813 450.165 385.938 421.328 323.918 430.109 304.907 421.723 304.813 412.445 304.813 396.91 304.813 387.632 304.813 379.246 304.907 388.027 323.918 359.19 385.938 322.25 304.813 286.284 304.813 345.626 435.694 369.701 435.694 404.678 359.967 439.654 435.694 463.729 435.694 523.071 304.813 487.105 304.813"/><path class="uuid-094f78f4-9984-493c-a363-a65a5a2b8cac" d="M536.4,304.813h34.316v18.541c4.7-8.026,16.878-21.029,44.27-21.029v33.478h-3.874c-35.141,0-40.395,24.356-40.395,47.319v52.573h-34.316v-130.881Z"/><path class="uuid-094f78f4-9984-493c-a363-a65a5a2b8cac" d="M628.82,369.286c0-63.365,48.421-70.559,68.896-70.559,22.415,0,39.57,6.917,51.471,20.475,16.878,19.372,17.709,48.976,16.046,61.154h-102.38c.554,7.472,3.597,14.666,8.858,20.475,6.64,6.64,16.046,10.515,25.452,10.237h1.663c22.963,0,30.435-16.6,30.435-16.6h33.762s-11.623,44.824-65.305,44.824c-15.214,0-68.896-8.297-68.896-70.005ZM732.303,355.729c-.271-7.749-3.32-15.221-8.574-21.029-5.538-6.092-14.112-9.135-25.181-9.135h-.277c-10.792,0-20.198,3.043-26.013,9.135-5.531,5.809-8.574,13.28-9.129,21.029h69.173Z"/><path class="uuid-094f78f4-9984-493c-a363-a65a5a2b8cac" d="M790.414,304.813h33.762v16.33c5.254-7.749,17.709-19.65,39.57-19.65,40.118,0,54.507,28.224,54.507,55.893v78.308h-33.755v-75.536c0-19.095-9.967-29.055-28.778-29.055h-1.663c-18.812,0-29.881,10.515-29.881,28.778v75.814h-33.762v-130.881Z"/><path class="uuid-094f78f4-9984-493c-a363-a65a5a2b8cac" d="M1062.995,369.286c0-63.365,48.421-70.559,68.896-70.559,22.415,0,39.57,6.917,51.471,20.475,16.878,19.372,17.709,48.976,16.046,61.154h-102.38c.554,7.472,3.597,14.666,8.858,20.475,6.64,6.64,16.046,10.515,25.452,10.237h1.663c22.963,0,30.435-16.6,30.435-16.6h33.762s-11.623,44.824-65.305,44.824c-15.214,0-68.896-8.297-68.896-70.005ZM1166.478,355.729c-.271-7.749-3.32-15.221-8.574-21.029-5.538-6.092-14.112-9.135-25.181-9.135h-.277c-10.792,0-20.198,3.043-26.013,9.135-5.531,5.809-8.574,13.28-9.129,21.029h69.173Z"/><path class="uuid-094f78f4-9984-493c-a363-a65a5a2b8cac" d="M1051.306,425.199l-7.738-27.142c-17.943,9.721-35.694,13.06-48.844,7.309-4.872-2.064-9.541-4.858-13.478-8.506-1.059-1.077-2.087-2.175-2.969-3.371-6.645-8.794-8.652-20.134-5.631-32.21,3.358-13.421,11.142-22.884,21.743-27.648,12.888-5.906,30.402-2.947,47.719,6.516l6.918-27.649c-7.384-5.841-17.653-9.261-25.163-11.14-2.761-.669-5.519-1.104-8.27-1.421l-.02-.071c-.923-.136-1.894-.098-2.839-.168-1.202-.087-2.404-.19-3.599-.212-.557.002-1.101.012-1.66.031-31.139.179-59.408,21.875-67.648,53.835-6.245,24.96,1.135,43.353,8.649,54.357,1.448,2.129,3.043,4.143,4.706,6.097,7.162,9.424,15.624,15.295,22.826,18.763,12.472,6.031,26.547,8.296,40.239,6.438.375-.046.776-.023,1.146-.08l.02-.078c2.766-.424,5.519-.956,8.232-1.73,8.246-2.351,18.396-6.11,25.661-11.922Z"/></svg>