<?xml version="1.0" encoding="UTF-8" ?>
<svg width="153" height="100" viewBox="0 0 153 100" fill="none" xmlns="http://www.w3.org/2000/svg">
<g clip-path="url(#clip0)">
<path d="M153 51.6928H126.518C126.518 51.3747 126.541 51.0566 126.541 50.7612C126.745 37.4006 121.74 24.7671 112.412 15.1783C103.107 5.61234 90.617 0.204474 77.2622 -2.51364e-05C49.6425 -0.409023 26.8461 21.6769 26.4366 49.2388C26.4138 50.0568 26.4366 50.8975 26.4593 51.7155H0V81.5723H37.6755C38.5856 82.6857 39.5411 83.7537 40.5649 84.7989C49.87 94.3876 62.3603 99.7728 75.7378 99.9773C89.1154 100.182 101.765 95.1829 111.366 85.8668C112.776 84.5035 114.096 83.0493 115.324 81.5496H153.023V51.6928H153Z" fill="black"/>
<path d="M150.065 53.8515H123.856C123.947 52.8063 123.992 51.7611 124.015 50.7158C124.22 38.0369 119.442 26.0396 110.615 16.9281C101.765 7.81649 89.9115 2.70402 77.2165 2.52224C51.0075 2.11324 29.3713 23.0858 28.9618 49.2616C28.9391 50.8067 28.9846 52.3291 29.1211 53.8515H3.11675H2.00195V54.9422V78.4822V79.5729H3.094H39.2907C40.2463 80.7772 41.2701 81.936 42.3393 83.0267C51.1895 92.1382 63.0427 97.2507 75.7377 97.4325C88.4327 97.637 100.445 92.8653 109.568 84.0492C111.024 82.6177 112.389 81.118 113.664 79.5502H150.065H151.157V78.4595V54.9422V53.8515H150.065Z" fill="white"/>
<path d="M107.248 53.8513C107.407 52.5789 107.498 51.2837 107.498 49.9659C107.498 32.8561 93.5973 18.9729 76.4659 18.9729C59.3344 18.9729 45.4336 32.8561 45.4336 49.9659C45.4336 51.2837 45.5246 52.5789 45.6839 53.8513H107.248Z" fill="black"/>
<path d="M105.656 53.8514C105.815 52.5789 105.906 51.2838 105.906 49.9659C105.906 33.7196 92.7102 20.5635 76.4661 20.5635C60.2219 20.5635 47.0264 33.7423 47.0264 49.9659C47.0264 51.2838 47.1174 52.5789 47.2766 53.8514H105.656Z" fill="white"/>
<path d="M101.947 53.8513L101.924 51.8063L101.742 51.3519V41.7404L102.151 41.5586V40.8997L101.81 40.5816V38.9456L100.65 38.6275L100.491 38.3775V38.2185L98.6023 37.7868L94.8029 38.3775V38.3548L92.3003 37.9004V36.7188L90.9125 36.378L90.685 35.9236L88.2506 35.401L88.1141 35.3328V34.6284L87.2268 34.3557V32.2426L86.6808 31.9472V31.061L86.4306 30.493L85.4978 30.3112L81.1751 25.6986V24.8806H79.355L78.5587 25.3805V26.2212L74.4863 28.9024L74.4636 27.0165L72.962 26.0167L70.2774 27.0619V29.675L59.2205 34.0149L57.6051 33.3787L55.8533 34.0831V34.3103V37.6504L55.3983 37.8095V43.49L53.055 43.1265L51.8719 43.3082L51.5306 43.6491V45.126L51.3486 45.4441V53.8513H101.947Z" fill="white"/>
<path d="M4.07227 55.76H148.745V77.3006H4.07227V55.76Z" fill="black"/>
<path d="M16.9952 61.7132C16.9952 61.5087 16.9497 61.3496 16.4947 61.3042V61.0315H20.1576V61.3042C19.7025 61.3496 19.657 61.5087 19.657 61.7132V67.7118C19.657 71.6654 17.473 72.9606 14.7428 72.9606C12.0127 72.9606 9.82865 71.6654 9.82865 67.7118V61.7132C9.82865 61.5087 9.78314 61.3496 9.32812 61.3042V61.0315H12.991V61.3042C12.536 61.3496 12.4905 61.5087 12.4905 61.7132V67.7118C12.4905 69.4387 13.3095 70.1203 14.7428 70.1203C16.1762 70.1203 16.9952 69.416 16.9952 67.7118V61.7132Z" fill="white"/>
<path d="M22.3638 61.7132C22.3638 61.5087 22.3183 61.3496 21.8633 61.3042V61.0315H26.1632V61.3042C25.7537 61.3269 25.6627 61.4632 25.6627 61.5995C25.6627 61.8495 28.7341 65.9622 29.9854 67.6891V61.7132C29.9854 61.4405 29.8489 61.3269 29.6213 61.3042V61.0315H32.8747V61.3042C32.4197 61.3496 32.3742 61.5087 32.3742 61.7132V72.1426C32.3742 72.3471 32.4197 72.5062 32.8747 72.5516V72.8243H29.4848V72.5516C29.8034 72.5516 29.8944 72.4607 29.8944 72.3017C29.8944 72.0063 29.4393 71.7109 24.7527 65.0987V72.1426C24.7527 72.3471 24.7982 72.5062 25.2532 72.5516V72.8243H21.8633V72.5516C22.3183 72.5062 22.3638 72.3471 22.3638 72.1426V61.7132Z" fill="white"/>
<path d="M34.8545 72.8243V72.5516C35.3095 72.5062 35.355 72.3471 35.355 72.1426V61.7132C35.355 61.5087 35.3095 61.3496 34.8545 61.3042V61.0315H38.5174V61.3042C38.0624 61.3496 38.0169 61.5087 38.0169 61.7132V72.1426C38.0169 72.3471 38.0624 72.5062 38.5174 72.5516V72.8243H34.8545Z" fill="white"/>
<path d="M51.4169 66.9393C51.4169 70.8703 48.8916 72.9607 45.8657 72.9607C42.8398 72.9607 40.3145 70.8475 40.3145 66.9393C40.3145 63.0084 42.8398 60.918 45.8657 60.918C48.8916 60.918 51.4169 63.0084 51.4169 66.9393ZM42.9308 66.9393C42.9308 69.0525 44.2959 70.234 45.8429 70.234C47.39 70.234 48.755 69.0525 48.755 66.9393C48.755 64.8262 47.39 63.6446 45.8429 63.6446C44.3186 63.6446 42.9308 64.8262 42.9308 66.9393Z" fill="white"/>
<path d="M53.3511 61.7132C53.3511 61.5087 53.3056 61.3496 52.8506 61.3042V61.0315H57.1505V61.3042C56.741 61.3269 56.65 61.4632 56.65 61.5995C56.65 61.8495 59.7441 65.9622 60.9727 67.6891V61.7132C60.9727 61.4405 60.8362 61.3269 60.6087 61.3042V61.0315H63.862V61.3042C63.407 61.3496 63.3615 61.5087 63.3615 61.7132V72.1426C63.3615 72.3471 63.407 72.5062 63.862 72.5516V72.8243H60.4722V72.5516C60.7907 72.5516 60.8817 72.4607 60.8817 72.3017C60.8817 72.0063 60.4267 71.7109 55.74 65.0987V72.1426C55.74 72.3471 55.7855 72.5062 56.2405 72.5516V72.8243H52.8506V72.5516C53.3056 72.5062 53.3511 72.3471 53.3511 72.1426V61.7132Z" fill="white"/>
<path d="M72.5757 68.1663L72.7577 68.2799C72.7122 68.3935 72.7122 68.5526 72.7122 68.7571C72.7122 69.3706 74.6233 70.3704 76.4661 70.3704C78.2407 70.3704 79.0597 69.825 79.0597 68.848C79.0597 67.1893 71.7112 69.0298 71.7112 64.7126C71.7112 62.4631 73.4175 60.918 76.0338 60.918C78.4682 60.918 80.2428 61.8496 80.7205 61.8496C80.948 61.8496 81.0845 61.6905 81.1983 61.5087L81.4031 61.5996L80.1745 64.7126L79.9698 64.5762V64.3263C79.9698 63.7582 77.9449 63.1447 76.2614 63.1447C74.7143 63.1447 74.1683 63.6901 74.1683 64.19C74.1683 66.1895 81.5396 63.7355 81.5396 68.8934C81.5396 70.8248 80.3793 72.938 76.5116 72.938C73.5312 72.938 72.2117 71.9155 71.8022 71.9155C71.6657 71.9155 71.5519 72.0745 71.4382 72.2109L71.2334 72.1427L72.5757 68.1663Z" fill="white"/>
<path d="M85.8165 72.8242V72.5516C86.2715 72.5061 86.317 72.3471 86.317 72.1426V63.7581H83.2684C83.0636 63.7581 82.9954 63.8717 82.9499 64.3943H82.7451V60.418H82.9499C82.9954 60.9406 83.0864 61.0542 83.2684 61.0542H92.073C92.2778 61.0542 92.346 60.9406 92.3915 60.418H92.5963V64.3943H92.3915C92.346 63.8717 92.2778 63.7581 92.073 63.7581H89.0016V72.1426C89.0016 72.3471 89.0471 72.5061 89.5022 72.5516V72.8242H85.8165Z" fill="white"/>
<path d="M95.5542 70.2794C95.0992 71.9154 94.9855 72.2108 94.9855 72.3471C94.9855 72.4834 95.0537 72.5743 95.304 72.5743V72.847H92.1416V72.5743C92.3919 72.5061 92.5056 72.4153 92.5966 72.0517C92.7559 71.5291 95.759 61.6677 95.759 61.5541C95.759 61.395 95.5542 61.3496 95.395 61.3269V61.0542H100.036V61.3269C99.8314 61.3496 99.7177 61.395 99.7177 61.6223C99.7177 61.804 101.902 68.507 103.017 71.9154C103.199 72.4607 103.312 72.597 103.517 72.597V72.8697H100.013V72.597C100.264 72.5743 100.355 72.4607 100.355 72.3244C100.355 72.2335 99.8087 70.5975 99.7404 70.3021H95.5542V70.2794ZM95.9865 68.4843H99.3081L97.5791 63.1446L95.9865 68.4843Z" fill="white"/>
<path d="M106.202 72.8242V72.5516C106.657 72.5061 106.702 72.3471 106.702 72.1426V63.7581H103.631C103.426 63.7581 103.358 63.8717 103.312 64.3943H103.107V60.418H103.312C103.358 60.9406 103.426 61.0542 103.631 61.0542H112.435C112.64 61.0542 112.708 60.9406 112.754 60.418H112.959V64.3943H112.754C112.708 63.8717 112.64 63.7581 112.435 63.7581H109.364V72.1426C109.364 72.3471 109.409 72.5061 109.864 72.5516V72.8242H106.202Z" fill="white"/>
<path d="M114.414 72.8243V72.5516C114.869 72.5062 114.915 72.3471 114.915 72.1426V61.7132C114.915 61.5087 114.869 61.3496 114.414 61.3042V61.0315H118.077V61.3042C117.622 61.3496 117.576 61.5087 117.576 61.7132V72.1426C117.576 72.3471 117.622 72.5062 118.077 72.5516V72.8243H114.414Z" fill="white"/>
<path d="M131.159 66.9393C131.159 70.8703 128.634 72.9607 125.608 72.9607C122.582 72.9607 120.057 70.8475 120.057 66.9393C120.057 63.0084 122.582 60.918 125.608 60.918C128.634 60.918 131.159 63.0084 131.159 66.9393ZM122.696 66.9393C122.696 69.0525 124.061 70.234 125.608 70.234C127.155 70.234 128.52 69.0525 128.52 66.9393C128.52 64.8262 127.155 63.6446 125.608 63.6446C124.061 63.6446 122.696 64.8262 122.696 66.9393Z" fill="white"/>
<path d="M133.457 61.7132C133.457 61.5087 133.411 61.3496 132.956 61.3042V61.0315H137.256V61.3042C136.846 61.3269 136.755 61.4632 136.755 61.5995C136.755 61.8495 139.85 65.9622 141.078 67.6891V61.7132C141.078 61.4405 140.942 61.3269 140.714 61.3042V61.0315H143.968V61.3042C143.512 61.3496 143.467 61.5087 143.467 61.7132V72.1426C143.467 72.3471 143.512 72.5062 143.968 72.5516V72.8243H140.578V72.5516C140.896 72.5516 140.987 72.4607 140.987 72.3017C140.987 72.0063 140.532 71.7109 135.845 65.0987V72.1426C135.845 72.3471 135.891 72.5062 136.346 72.5516V72.8243H132.956V72.5516C133.411 72.5062 133.457 72.3471 133.457 72.1426V61.7132Z" fill="white"/>
<path d="M109.592 53.8514C109.751 52.5789 109.819 51.2838 109.819 49.9659C109.819 31.561 94.8946 16.6553 76.4663 16.6553C58.0608 16.6553 43.1135 31.561 43.1135 49.9659C43.1135 51.2838 43.1817 52.5789 43.341 53.8514H31.92C31.8062 52.5789 31.7607 51.2838 31.7607 49.9886C31.7607 25.2897 51.8043 5.29421 76.5118 5.29421C101.219 5.27149 121.263 25.2897 121.263 49.9886C121.263 51.2838 121.195 52.5789 121.104 53.8514H109.592Z" fill="black"/>
<path d="M90.2078 79.5955C86.0216 81.5268 81.3577 82.6175 76.4435 82.6175C71.5293 82.6175 66.8653 81.5268 62.7019 79.5955H42.9541C51.1444 88.8661 63.1342 94.7057 76.489 94.7057C89.8438 94.7057 101.834 88.8661 110.024 79.5955H90.2078Z" fill="black"/>
<path d="M63.9297 53.8514V51.8291C63.9297 51.102 64.1572 50.7839 64.5213 50.693V40.6726C64.0662 40.2863 62.7922 40.8544 62.7922 43.4901V50.6249L62.4054 50.6703V42.5585C62.3599 40.5135 63.4747 38.9003 64.4758 39.7864C63.5885 38.3776 62.0869 40.3772 62.0869 42.6721V53.8287L63.1562 53.8741H63.9297V53.8514Z" fill="black"/>
<path d="M59.5615 53.8514V51.6246C59.5615 51.0566 59.789 50.6248 60.1302 50.6248V41.5133C59.7207 41.5814 58.9244 42.1495 58.9244 43.8764V50.6703L58.5604 50.6248V43.2629C58.5604 42.354 59.1292 40.1045 60.1757 40.5589C59.698 39.8773 58.2646 40.8998 58.2646 43.4219V53.8514H59.5615Z" fill="black"/>
<path d="M51.5768 53.8515V45.4443L52.9191 45.2626V53.8515H53.1011V45.8988L54.1704 45.6943L55.6947 44.1719H55.7402V38.2414L71.9162 32.5155V53.8515H73.0537V42.7631L78.0589 41.9906L80.789 39.6502L82.3588 39.3094V38.5141L82.7228 38.0596L88.1148 37.1508V38.8322L82.5181 39.7865L82.8366 40.3546L83.6329 40.241V53.8515H84.0652V40.1955L88.1148 39.6048V53.8515H101.947L101.925 51.8065L101.743 51.3521V41.7406L102.129 41.5589V40.8999L101.811 40.6045V38.9685L100.628 38.6731L100.491 38.4005V38.2414L98.603 37.8097L94.8036 38.4005V38.3778L92.301 37.9233V36.7418L90.9132 36.4009L90.7084 35.9465L88.2741 35.4466L88.2968 35.5829L88.1376 36.5827L83.1551 37.5143V36.7872L84.5202 36.5145C84.5202 36.4918 84.5202 36.4691 84.5202 36.4009C84.5202 36.2192 84.7249 36.1737 84.9524 36.1055L88.1376 35.3784V34.6513L87.2503 34.3787V32.2655L86.7043 31.9701V31.1067L86.454 30.5386L85.5212 30.3569L81.1985 25.7443V24.9263H79.3557L78.5594 25.4262V26.2669L74.487 28.9481L74.4643 27.0621L72.9627 26.0624L70.2781 27.1076V29.7434L59.2211 34.0606L57.6058 33.4243L55.854 34.1287V34.3559V37.6961L55.4217 37.8552V43.5357L53.0556 43.1948L51.8953 43.3766L51.5541 43.7175V45.1944L51.3721 45.5125V53.9197H51.5768V53.8515ZM92.301 38.3778L94.8036 38.8322L98.8533 38.196V38.2187V39.6729L94.8036 40.2182L92.6195 39.8547L92.301 38.7186V38.3778ZM56.1953 34.3105L57.3556 33.8561V34.7422V35.2648L70.6649 30.0615L70.6421 27.403L72.7807 26.5623V31.5384L56.1725 37.537V34.3105H56.1953ZM51.7133 45.1035V43.672L53.0329 43.4675V44.9217L51.7133 45.1035Z" fill="black"/>
<path d="M86.2264 47.6936V53.2605L85.0889 53.2151V47.7391L86.2264 47.6936Z" fill="black"/>
<path d="M55.8311 51.4655V48.9888H56.2406V51.4655H55.8311Z" fill="black"/>
<path d="M55.0342 51.4655V48.9888H55.4437V51.4655H55.0342Z" fill="black"/>
<path d="M54.2842 51.4655V48.9888L54.6937 48.9661V51.4655H54.2842Z" fill="black"/>
<path d="M53.5781 51.4655V48.9661H53.9876V51.4655H53.5781Z" fill="black"/>
<path d="M52.0537 52.5109V49.0571L52.4632 49.0344V52.5336L52.0537 52.5109Z" fill="black"/>
<path d="M82.108 51.8292V47.8074L81.2207 47.8301V51.8065L82.108 51.8292Z" fill="black"/>
<path d="M80.2883 51.7837V47.8528L79.3555 47.8982V51.761L80.2883 51.7837Z" fill="black"/>
<path d="M78.468 51.7382V47.9209L77.6035 47.9436V51.7155L78.468 51.7382Z" fill="black"/>
<path d="M76.7848 51.6927V47.9663L75.9658 47.989V51.67L76.7848 51.6927Z" fill="black"/>
<path d="M75.2825 51.67V48.0117L74.418 48.0344V51.6473L75.2825 51.67Z" fill="black"/>
<path d="M86.2944 43.3083V46.035L85.1113 46.1032V43.422L86.2944 43.3083Z" fill="black"/>
<path d="M55.8311 48.3525V46.8074L56.2406 46.7393V48.3525H55.8311Z" fill="black"/>
<path d="M55.0342 48.3527V46.8758L55.4437 46.8303V48.3527H55.0342Z" fill="black"/>
<path d="M54.2842 48.3527V46.9439L54.6937 46.8984V48.3527H54.2842Z" fill="black"/>
<path d="M53.5781 48.3526V47.012L53.9876 46.9438V48.3526H53.5781Z" fill="black"/>
<path d="M52.0537 48.3526V47.0801L52.4632 47.012V48.3753L52.0537 48.3526Z" fill="black"/>
<path d="M82.2677 46.3305V43.8311L81.2666 43.9447V46.3986L82.2677 46.3305Z" fill="black"/>
<path d="M80.3338 46.4439V44.0354L79.3555 44.1263V46.4894L80.3338 46.4439Z" fill="black"/>
<path d="M78.513 46.535V44.1946L77.6484 44.2855V46.5804L78.513 46.535Z" fill="black"/>
<path d="M76.8304 46.6257V44.3762L75.9658 44.4444V46.6711L76.8304 46.6257Z" fill="black"/>
<path d="M75.3512 46.694V44.5127L74.4639 44.6036V46.7395L75.3512 46.694Z" fill="black"/>
<path d="M69.2543 54.1014V51.6474C69.2543 50.9203 69.7093 50.5568 70.0278 50.3523V41.4679C69.914 37.946 67.5707 39.4684 67.5707 42.604V50.5568L67.1384 50.6249V42.1042C67.0474 40.2637 68.185 37.4461 69.3225 38.4459C68.4807 36.9917 66.7744 39.1957 66.7744 41.9905C66.7744 42.9903 66.7744 51.1248 66.7744 53.9651L69.2543 54.1014Z" fill="black"/>
<path d="M65.3408 51.5111V53.9423L66.2736 53.9878V37.537L70.0048 36.3554V35.7419L65.4546 37.0825V37.4688L65.8186 37.5824V50.6704C65.5683 50.784 65.3408 51.0566 65.3408 51.5111Z" fill="black"/>
<path d="M60.8135 51.6929V53.8515H61.6098V38.9003L64.5674 37.9914V37.3779L60.9045 38.4913V38.9458L61.2685 39.0139V50.6249C60.9272 50.7158 60.8135 51.193 60.8135 51.6929Z" fill="black"/>
<path d="M57.6734 53.8514V40.0364L59.9485 39.332V38.7639L57.0592 39.6501V40.0364L57.3777 40.0591V50.6021C57.1957 50.6703 57.0137 50.8294 57.0137 51.2611C57.0137 51.3065 57.0137 51.352 57.0137 51.3747C57.0137 51.4656 57.0137 51.4883 57.0137 51.4883V53.8514H57.6734Z" fill="black"/>
<path d="M56.0812 84.14L56.1267 84.2082C56.1039 84.2309 56.0584 84.2764 56.0357 84.3445C55.9447 84.5263 56.468 85.208 57.1505 85.5942C57.8103 85.9578 58.197 85.9351 58.3563 85.6397C58.6293 85.1398 55.6489 84.2309 56.3542 82.913C56.7182 82.2314 57.6055 82.095 58.561 82.6177C59.4483 83.0948 59.9489 83.7538 60.1309 83.8446C60.2219 83.8901 60.2901 83.8674 60.3584 83.8446L60.4039 83.9128L59.4256 84.6172L59.3801 84.5263L59.4256 84.4581C59.5166 84.2764 58.8796 83.6856 58.2653 83.3675C57.6965 83.0494 57.4235 83.1175 57.3325 83.2766C56.9912 83.8901 60.1081 84.6172 59.2436 86.185C58.9251 86.7758 58.1515 87.1848 56.7182 86.435C55.6262 85.8442 55.3077 85.2534 55.1712 85.1852C55.1257 85.1625 55.0574 85.1852 54.9892 85.208L54.9209 85.1398L56.0812 84.14Z" fill="white"/>
<path d="M59.9258 87.9118L59.9713 87.8209C60.1533 87.8663 60.1988 87.8436 60.2215 87.7754L61.6093 84.4126C61.6321 84.3444 61.6321 84.299 61.4728 84.2081L61.5183 84.1172L62.9289 84.708L62.8834 84.7989C62.7014 84.7534 62.6559 84.7761 62.6331 84.8443L61.2453 88.2072C61.2226 88.2753 61.2226 88.3208 61.3818 88.4117L61.3363 88.5025L59.9258 87.9118Z" fill="white"/>
<path d="M64.1347 85.4577C64.1574 85.3896 64.1574 85.3214 63.9754 85.2759L63.9982 85.1851L65.7273 85.6849L65.7045 85.7758C65.5452 85.7304 65.4997 85.7758 65.477 85.8213C65.4542 85.9122 66.296 87.639 66.6145 88.3662L67.1833 86.3666C67.2061 86.2757 67.1606 86.2303 67.0696 86.1848L67.0923 86.0939L68.3891 86.4575L68.3664 86.5484C68.1844 86.5029 68.1389 86.5484 68.1389 86.6166L67.1378 90.1158C67.1151 90.1839 67.1151 90.2521 67.2971 90.2975L67.2743 90.3884L65.9093 90.0021L65.932 89.9113C66.0685 89.9567 66.114 89.934 66.114 89.8658C66.1368 89.7749 66.0003 89.6159 64.749 86.8665L64.0664 89.2296C64.0437 89.2978 64.0437 89.3659 64.2257 89.4114L64.2029 89.5023L62.8379 89.116L62.8606 89.0251C63.0426 89.0705 63.0881 89.0251 63.0881 88.9569L64.1347 85.4577Z" fill="white"/>
<path d="M72.9397 88.6162L72.8715 88.5481C72.8942 88.5253 72.8942 88.4799 72.8942 88.4344C72.917 88.2754 72.371 88.0027 71.7567 87.9118C71.1652 87.8437 70.3461 88.0027 70.2551 88.798C70.1414 89.5933 70.8921 89.9568 71.4837 90.0477C71.7339 90.0704 72.7577 90.0023 72.7805 89.775C72.7805 89.7296 72.7577 89.6842 72.7577 89.6614L72.8487 89.616L73.4402 90.9339L73.3492 90.9793C73.3265 90.9339 73.3037 90.9111 73.2582 90.9111C73.1217 90.8884 72.371 91.2292 71.2789 91.0702C70.0959 90.9111 68.9356 90.0477 69.1176 88.6617C69.2996 87.2756 70.6419 86.753 71.8249 86.8893C72.4165 86.9575 72.826 87.0938 73.099 87.2302C73.372 87.3438 73.5085 87.4347 73.5767 87.4347C73.6222 87.4347 73.6678 87.412 73.6905 87.3892L73.7588 87.412L72.9397 88.6162Z" fill="white"/>
<path d="M77.7625 89.8432H77.6715C77.6487 89.7523 77.6032 89.6614 77.444 89.6614H76.0562V90.3885H78.445C78.536 90.3885 78.5588 90.343 78.5815 90.1613H78.6725V91.5246H78.5815C78.5588 91.3883 78.536 91.3428 78.445 91.3428L74.7366 91.3655V91.2747C74.9186 91.2519 74.9414 91.2065 74.9414 91.1383L74.9186 87.5028C74.9186 87.4346 74.8959 87.3664 74.7139 87.3664V87.2756H78.4223C78.5133 87.2756 78.536 87.2301 78.5588 87.0483H78.6498V88.4117H78.5588C78.536 88.2299 78.5133 88.1844 78.4223 88.1844H76.0334V88.8434H77.4212C77.5805 88.8434 77.626 88.7752 77.6487 88.6616H77.7397L77.7625 89.8432Z" fill="white"/>
<path d="M82.9046 88.4798L82.6543 87.2528L82.7453 87.2301C82.7453 87.2756 82.7908 87.4119 82.8591 87.3892C82.9046 87.3892 83.2231 87.1392 83.2913 87.1165L83.2458 86.8666C83.2231 86.753 83.1321 86.753 83.0638 86.753L83.0411 86.6621L84.4744 86.3894L84.4971 86.4803C84.4061 86.503 84.3151 86.5485 84.3379 86.6621L85.0431 90.2294C85.0659 90.343 85.1569 90.343 85.2479 90.343L85.2706 90.4339L83.8146 90.7066L83.7918 90.6157C83.8828 90.593 83.9738 90.5475 83.9511 90.4339L83.4733 88.0027C82.9956 88.2299 82.9501 88.2526 82.9956 88.4571L82.9046 88.4798Z" fill="white"/>
<path d="M86.9537 88.7752L87.0447 88.7979L87.0675 88.8661C87.1585 89.116 87.6363 89.0933 88.0913 88.9569C88.6828 88.7752 89.1606 88.2525 89.0013 87.5482C88.5918 87.9572 88.2505 88.2071 87.7955 88.3434C87.0675 88.5707 86.2485 88.2753 85.9982 87.4573C85.7024 86.5029 86.5442 85.8667 87.295 85.6168C88.4781 85.2532 89.4563 85.6395 89.8659 86.9574C90.2754 88.2753 89.5019 89.3432 88.3188 89.7068C87.9548 89.8204 87.6135 89.8658 87.3633 89.8658C87.113 89.8658 86.9537 89.8431 86.931 89.8658C86.8627 89.8885 86.84 89.9113 86.7945 90.0022L86.7035 89.9794L86.9537 88.7752ZM86.9082 87.1619C87.0447 87.5936 87.5908 87.5482 87.8638 87.48C88.1368 87.3891 88.6146 87.1392 88.4781 86.6847C88.3416 86.253 87.7955 86.2984 87.5225 86.3666C87.2495 86.4575 86.7717 86.7074 86.9082 87.1619Z" fill="white"/>
<path d="M90.6626 86.3441L90.1621 85.1852L90.2531 85.1398C90.2759 85.1852 90.3441 85.2989 90.4124 85.2761C90.4351 85.2534 90.7309 84.958 90.7764 84.9126L90.6854 84.6854C90.6399 84.5945 90.5489 84.5945 90.5034 84.6172L90.4579 84.5263L91.8002 83.9583L91.8457 84.0491C91.7547 84.0946 91.6864 84.1627 91.7319 84.2536L93.1425 87.5938C93.188 87.6847 93.279 87.6847 93.37 87.662L93.4155 87.7528L92.0504 88.3209L92.0049 88.23C92.0959 88.1846 92.1642 88.1391 92.1187 88.0255L91.1404 85.7306C90.7309 86.0487 90.6854 86.0714 90.7536 86.2759L90.6626 86.3441Z" fill="white"/>
<path d="M93.9609 85.8667C94.0974 84.867 94.416 82.8902 94.3932 82.8447C94.3705 82.7993 94.325 82.822 94.2567 82.8447L94.2112 82.7538L95.7583 81.8904L95.8038 81.9813C95.7128 82.0267 95.6673 82.0722 95.69 82.1176L96.8731 84.2535L97.2826 84.0263C97.3281 84.0035 97.3736 83.9354 97.3053 83.8218L97.3736 83.7763L97.9196 84.7761L97.8514 84.8215C97.7831 84.6852 97.6921 84.7079 97.6466 84.7306L97.2371 84.9579L97.4646 85.3896C97.5101 85.4805 97.6011 85.4578 97.6921 85.435L97.7376 85.5259L96.5773 86.1621L96.5318 86.0712C96.5773 86.0258 96.6456 85.9576 96.6001 85.8667L96.3725 85.435L94.5297 86.4575C94.4842 86.4802 94.4387 86.5484 94.507 86.6847L94.4387 86.7302L93.9609 85.8667ZM96.0085 84.7534L95.1212 83.1628H95.0985L94.7345 85.435L96.0085 84.7534Z" fill="white"/>
<path d="M41.5884 40.8543L41.4747 40.8316C41.4974 40.6726 41.5202 40.5817 41.3836 40.5589C41.2699 40.5362 39.0858 41.7178 38.79 41.8541L39.4271 43.3083L40.6556 43.581C40.7466 43.6037 40.8376 43.581 40.9286 43.2629L41.0424 43.2856L40.4736 45.9441L40.3599 45.9214C40.4054 45.6033 40.3371 45.5351 40.2461 45.5124L35.4229 44.4671C35.3319 44.4444 35.2409 44.4671 35.1499 44.7853L35.0361 44.7625L35.6049 42.104L35.7187 42.1268C35.6732 42.4449 35.7414 42.513 35.8324 42.5358L37.698 42.9448L37.7207 42.8539C37.1292 41.6496 36.4694 39.9454 36.3557 39.9227C36.2419 39.9 36.2192 39.9909 36.1737 40.1272L36.0599 40.1045L36.7652 36.8325L36.879 36.8552C36.8335 37.1961 36.9017 37.287 37.061 37.6505L38.1075 40.2181L41.8387 38.264C42.0434 38.1504 42.0662 38.0595 42.0889 37.8777L42.2027 37.9005L41.5884 40.8543Z" fill="white"/>
<path d="M43.2951 33.038C43.7956 33.7197 43.8639 33.856 43.9321 33.8787C43.9776 33.9014 44.0459 33.8787 44.1369 33.7197L44.2506 33.7878L43.0903 35.8101L42.9766 35.7419C43.0448 35.5601 43.0448 35.4693 42.9311 35.3329C42.7718 35.1057 39.8597 30.8794 39.7915 30.8339C39.7232 30.7885 39.6322 30.9021 39.5639 31.0157L39.4502 30.9476L41.1565 27.9482L41.2703 28.0164C41.202 28.1527 41.1793 28.2436 41.2703 28.2891C41.3385 28.3345 44.8877 28.4936 46.685 28.5845C46.9808 28.5845 47.0718 28.5617 47.14 28.4254L47.2538 28.4936L45.957 30.7431L45.8432 30.6749C45.9342 30.5158 45.9115 30.425 45.866 30.4022C45.8205 30.3795 44.9559 30.3341 44.8194 30.3113L43.2951 33.038ZM42.7263 32.3336L43.9549 30.1977L41.1338 30.0614L42.7263 32.3336Z" fill="white"/>
<path d="M45.98 21.9951C45.9118 21.9269 45.8435 21.9042 45.5705 22.1087L45.4795 22.0178L47.8456 19.8819L47.9366 19.9728C47.7091 20.1773 47.7091 20.2682 47.7546 20.3136C47.8228 20.4045 50.826 20.2909 52.0545 20.2909L50.1662 18.2005C50.0752 18.1096 49.9614 18.1323 49.8249 18.2459L49.7339 18.155L51.5312 16.519L51.6222 16.6099C51.3947 16.8372 51.4175 16.928 51.4857 16.9962L54.8074 20.6317C54.8756 20.6999 54.9439 20.7226 55.2169 20.5181L55.3079 20.609L53.4423 22.2905L53.3513 22.1996C53.5333 22.0405 53.5561 21.9724 53.4878 21.9042C53.3968 21.8133 53.0556 21.9269 48.3916 21.9723L50.6212 24.4263C50.6895 24.4945 50.7577 24.5172 51.0307 24.3127L51.1217 24.4036L49.2561 26.0851L49.1651 25.9942C49.3927 25.7669 49.3699 25.6761 49.3017 25.6079L45.98 21.9951Z" fill="white"/>
<path d="M57.8101 16.5645H57.9466C57.9466 16.6326 57.9693 16.7008 58.0148 16.769C58.1286 17.0189 59.6074 16.8599 60.8587 16.2918C62.0645 15.7465 62.4967 15.2466 62.292 14.8376C61.9735 14.1332 57.4005 17.2007 56.536 15.3602C56.081 14.4059 56.9455 13.2016 58.6973 12.3836C60.3354 11.6338 61.7232 11.4747 62.0417 11.3157C62.201 11.2475 62.2465 11.1339 62.292 11.0203L62.4512 10.9976L62.2465 12.7017H62.0872L62.0417 12.5881C61.928 12.3382 60.4492 12.7017 59.3116 13.2243C58.2651 13.7015 58.0148 14.1105 58.1286 14.315C58.5153 15.1557 62.9973 11.8156 64.0211 14.0196C64.4078 14.8376 64.0438 16.11 61.4502 17.3143C59.4481 18.2459 58.3561 18.2232 58.0831 18.3368C57.9921 18.3822 57.9466 18.4731 57.9011 18.564L57.7418 18.6095L57.8101 16.5645Z" fill="white"/>
<path d="M70.1642 13.3151C69.914 14.1104 69.8685 14.2694 69.8685 14.3376C69.8685 14.4057 69.9367 14.4285 70.1187 14.4057L70.1415 14.5421L67.7981 14.8147L67.7754 14.6784C67.9574 14.633 68.0256 14.5648 68.0939 14.4057C68.1849 14.1558 69.823 9.27055 69.823 9.20238C69.823 9.13421 69.6637 9.13421 69.55 9.13421L69.5272 8.99788L72.9399 8.56616L72.9626 8.70249C72.8261 8.72522 72.7351 8.77066 72.7351 8.86155C72.7351 8.95244 74.7599 11.8836 75.761 13.3605C75.9202 13.5877 76.0112 13.6559 76.1705 13.6332L76.1932 13.7695L73.5996 14.0876L73.5769 13.9513C73.7589 13.9286 73.8271 13.8604 73.8044 13.7922C73.8044 13.7468 73.3039 13.0424 73.2356 12.9061L70.1642 13.3151ZM70.369 12.4289L72.8034 12.1335L71.2108 9.79316L70.369 12.4289Z" fill="white"/>
<path d="M80.4699 11.9065L80.5837 11.9746C80.5382 12.0201 80.5382 12.0883 80.5154 12.1791C80.4699 12.4518 81.7667 13.1789 83.1318 13.4289C84.4286 13.6561 85.0656 13.5197 85.1339 13.0653C85.2704 12.2928 79.7647 12.1791 80.1287 10.1796C80.3107 9.13438 81.6985 8.65721 83.6096 8.99805C85.3841 9.31615 86.59 9.9751 86.954 10.0433C87.1132 10.066 87.227 10.0205 87.3407 9.95237L87.4772 10.0205L86.3169 11.293L86.1804 11.2021L86.2032 11.0885C86.2487 10.8385 84.8154 10.2705 83.5868 10.0433C82.4493 9.83876 82.017 10.0205 81.9715 10.2478C81.8122 11.1794 87.3862 10.9976 86.954 13.4061C86.7947 14.2923 85.7709 15.133 82.9498 14.6331C80.7885 14.2469 79.9012 13.5879 79.6054 13.5425C79.4917 13.5197 79.4007 13.5879 79.3096 13.6334L79.1504 13.5652L80.4699 11.9065Z" fill="white"/>
<path d="M102.197 19.8819L102.129 19.7455C102.174 19.7228 102.197 19.7001 102.242 19.6319C102.379 19.4729 101.719 18.6322 100.809 17.9732C99.9444 17.337 98.6249 16.8144 97.9651 17.6778C97.3281 18.5413 98.2153 19.6547 99.0799 20.2909C99.4439 20.5635 101.036 21.3815 101.218 21.1316C101.264 21.0861 101.241 21.018 101.241 20.9498L101.4 20.9725L101.514 23.1084L101.332 23.063C101.355 22.9721 101.309 22.9494 101.241 22.8812C101.036 22.7221 99.6942 22.4495 98.1243 21.2906C96.418 20.0409 95.1895 17.9278 96.3043 16.4281C97.4191 14.9057 99.8079 15.4738 101.491 16.7462C102.333 17.3824 102.879 17.9051 103.243 18.3141C103.585 18.7231 103.744 18.9503 103.858 19.0184C103.926 19.0639 103.994 19.0866 104.062 19.0639L104.153 19.1775L102.197 19.8819Z" fill="white"/>
<path d="M103.472 26.1076L103.563 26.0167C103.79 26.2667 103.881 26.244 103.949 26.1758L107.749 23.0629C107.817 22.9947 107.863 22.9265 107.658 22.6539L107.749 22.563L109.478 24.6534L109.387 24.7443C109.159 24.4944 109.068 24.5171 109 24.5853L105.224 27.7209C105.155 27.7891 105.11 27.8572 105.315 28.1299L105.224 28.2208L103.472 26.1076Z" fill="white"/>
<path d="M108.203 32.8336L108.317 32.7881C108.476 33.0835 108.567 33.0835 108.658 33.038L112.207 31.2884L111.206 29.2662C111.138 29.1298 111.07 29.1071 110.842 29.1753L110.774 29.039L112.458 28.1982L112.526 28.3346C112.321 28.4709 112.298 28.5391 112.367 28.6754L115.256 34.515C115.324 34.6513 115.392 34.674 115.62 34.6059L115.688 34.7422L114.005 35.5829L113.936 35.4466C114.141 35.3103 114.164 35.2421 114.096 35.1058L113.095 33.0835L109.545 34.8331C109.454 34.8785 109.409 34.9467 109.545 35.2421L109.432 35.2875L108.203 32.8336Z" fill="white"/>
<path d="M117.645 43.831L118.1 46.3077L117.986 46.3305C117.964 46.1941 117.85 46.126 117.736 46.0578L114.46 44.081L112.435 44.4445C112.344 44.4672 112.276 44.5127 112.321 44.8535L112.208 44.8762L111.707 42.195L111.821 42.1723C111.912 42.4904 111.98 42.5131 112.071 42.5131L113.891 42.1723L116.28 39.173C116.553 38.8322 116.576 38.7867 116.553 38.6731L116.667 38.6504L117.19 41.5134L117.076 41.5361C117.054 41.377 117.008 41.218 116.894 41.2407C116.78 41.2634 115.848 42.4904 115.393 43.013C115.62 43.1266 117.327 44.2173 117.418 44.1946C117.531 44.1719 117.509 44.0128 117.486 43.8765L117.645 43.831Z" fill="white"/>
</g>
<defs>
<clipPath id="clip0">
<rect width="153" height="100" fill="white"/>
</clipPath>
</defs>
</svg>
