<?xml version="1.0" encoding="utf-8"?>
<!-- Generator: Adobe Illustrator 26.4.1, SVG Export Plug-In . SVG Version: 6.00 Build 0)  -->
<svg version="1.1" id="Layer_1" xmlns="http://www.w3.org/2000/svg" xmlns:xlink="http://www.w3.org/1999/xlink" x="0px" y="0px"
	 viewBox="0 0 2400 1595.9" style="enable-background:new 0 0 2400 1595.9;" xml:space="preserve">
<style type="text/css">
	.st0{fill:none;stroke:#DF1E38;stroke-width:11.0163;stroke-miterlimit:10;}
	.st1{fill:#1769B1;}
	.st2{fill:#DF1E38;}
	.st3{fill:#FFFFFF;}
</style>
<g>
	<line class="st0" x1="0" y1="1408.3" x2="2394.8" y2="1408.3"/>
	<g>
		<path class="st1" d="M52.2,946.9c0-47.1,0-55.8-0.6-65.7c-0.6-10.5-3.1-15.5-13.3-17.7c-2.5-0.6-7.7-0.9-12.1-0.9
			c-3.4,0-5.3-0.6-5.3-2.8c0-2.2,2.2-2.8,6.8-2.8c16.4,0,35.9,0.9,42.5,0.9c10.5,0,34.1-0.9,43.7-0.9c19.5,0,40.3,1.9,57,13.3
			c8.7,5.9,21.1,21.7,21.1,42.4c0,22.9-9.6,44-40.9,69.4c27.6,34.7,49,62.3,67.2,81.5c17.4,18,30.1,20.1,34.7,21.1
			c3.4,0.6,6.2,0.9,8.7,0.9c2.5,0,3.7,0.9,3.7,2.5c0,2.5-2.2,3.1-5.9,3.1H230c-17.3,0-25.1-1.6-33.1-5.9
			c-13.3-7.1-25.1-21.7-42.5-45.6c-12.4-17-26.6-38.1-30.7-42.8c-1.6-1.8-3.4-2.2-5.6-2.2l-26.9-0.6c-1.6,0-2.5,0.6-2.5,2.5v4.3
			c0,28.8,0,53.3,1.5,66.3c0.9,9,2.8,15.8,12.1,17c4.7,0.6,11.5,1.2,15.2,1.2c2.5,0,3.7,0.9,3.7,2.5c0,2.2-2.2,3.1-6.2,3.1
			c-18,0-40.9-0.9-45.5-0.9c-5.9,0-25.4,0.9-37.8,0.9c-4,0-6.2-0.9-6.2-3.1c0-1.6,1.2-2.5,5-2.5c4.7,0,8.4-0.6,11.2-1.2
			c6.2-1.2,7.7-8.1,9-17c1.5-13,1.5-37.5,1.5-66V946.9z M88.7,971.4c0,3.4,0.6,4.6,2.8,5.6c6.5,2.2,15.8,3.1,23.5,3.1
			c12.4,0,16.4-1.2,22-5.3c9.3-6.8,18.3-21.1,18.3-46.5c0-44-29.1-56.7-47.4-56.7c-7.7,0-13.3,0.3-16.4,1.2
			c-2.2,0.6-2.8,1.9-2.8,4.3V971.4z"/>
		<path class="st1" d="M227.6,974.2c0-53,35-121.5,128-121.5c77.2,0,125.2,44.9,125.2,115.9c0,71-49.6,127-128.3,127
			C263.5,1095.7,227.6,1029,227.6,974.2z M437.3,980.1c0-69.4-40-112.5-90.8-112.5c-35.6,0-76.2,19.8-76.2,97
			c0,64.5,35.7,115.6,95.1,115.6C387.1,1080.2,437.3,1069.6,437.3,980.1z"/>
		<path class="st1" d="M522.2,946.9c0-47.1,0-55.8-0.6-65.7c-0.6-10.5-3.1-15.5-13.3-17.7c-2.5-0.6-7.7-0.9-12.1-0.9
			c-3.4,0-5.3-0.6-5.3-2.8c0-2.2,2.2-2.8,6.8-2.8c16.4,0,36,0.9,42.2,0.9c15.2,0,27.3-0.9,37.8-0.9c56.1,0,66,30.1,66,46.5
			c0,25.4-14.5,40.6-31.6,54.2c25.4,8.7,56.4,30.7,56.4,66.9c0,33.1-25.7,67.6-82.7,67.6c-3.7,0-12.7-0.6-21.7-0.9
			c-9.3-0.6-18.6-0.9-23.2-0.9c-3.4,0-10.2,0-17.7,0.3c-7.1,0-15.2,0.6-21.4,0.6c-4,0-6.2-0.9-6.2-3.1c0-1.6,1.2-2.5,5-2.5
			c4.6,0,8.4-0.6,11.1-1.2c6.2-1.2,7.8-8.1,9-17c1.5-13,1.5-37.5,1.5-66V946.9z M559.4,952.2c0,2.5,0.9,3.1,2.2,3.4
			c2.8,0.6,7.4,0.9,14.6,0.9c10.2,0,17-1.2,22.3-5.9c8.1-6.5,12.7-17.7,12.7-32.9c0-20.8-12.1-48-38.7-48c-4.3,0-7.1,0-10.2,0.6
			c-2.2,0.6-2.8,1.9-2.8,5.3V952.2z M600.3,977c-6.5-4.7-13.6-6.8-25.7-7.4c-5.6-0.3-8.7-0.3-13.3-0.3c-1.2,0-1.9,0.6-1.9,2.2v73.4
			c0,20.5,0.9,25.7,10.8,29.8c8.4,3.4,15.5,3.7,22.6,3.7c13.9,0,37.5-7.4,37.5-39.7C630.4,1019.4,623.9,993.4,600.3,977z"/>
		<path class="st1" d="M711.9,946.9c0-47.1,0-55.8-0.6-65.7c-0.6-10.5-3.1-15.5-13.3-17.7c-2.5-0.6-7.7-0.9-12.1-0.9
			c-3.4,0-5.3-0.6-5.3-2.8c0-2.2,2.2-2.8,6.8-2.8c8.4,0,17.4,0.3,25.1,0.3c8,0.3,15.2,0.6,19.5,0.6c9.9,0,71.6,0,77.5-0.3
			c5.9-0.6,10.8-1.2,13.3-1.9c1.6-0.3,3.4-1.2,5-1.2c1.5,0,1.9,1.2,1.9,2.8c0,2.2-1.5,5.9-2.5,20.1c-0.3,3.1-0.9,16.7-1.5,20.4
			c-0.3,1.6-0.9,3.4-3.1,3.4c-2.2,0-2.8-1.6-2.8-4.3c0-2.2-0.3-7.4-1.9-11.2c-2.2-5.6-5.3-9.3-20.8-11.2c-5.3-0.6-37.8-1.2-44-1.2
			c-1.5,0-2.2,0.9-2.2,3.1V955c0,2.2,0.3,3.4,2.2,3.4c6.8,0,42.5,0,49.6-0.6c7.4-0.6,12.1-1.5,14.9-4.6c2.2-2.5,3.4-4,4.9-4
			c1.2,0,2.2,0.6,2.2,2.5c0,1.9-1.2,6.8-2.5,22.6c-0.3,6.2-1.2,18.6-1.2,20.8c0,2.5,0,5.9-2.8,5.9c-2.2,0-2.8-1.2-2.8-2.8
			c-0.3-3.1-0.3-7.1-1.2-11.2c-1.5-6.2-5.9-10.8-17.4-12.1c-5.9-0.6-36.6-0.9-44-0.9c-1.5,0-1.9,1.2-1.9,3.1v24.5
			c0,10.5-0.3,39,0,48c0.6,21.4,5.6,26,37.2,26c8.1,0,21.1,0,29.1-3.7c8.1-3.7,11.8-10.2,13.9-22.9c0.6-3.4,1.2-4.6,3.4-4.6
			c2.5,0,2.5,2.5,2.5,5.6c0,7.1-2.5,28.2-4,34.4c-2.2,8.1-5,8.1-16.7,8.1c-23.2,0-40.3-0.6-53.6-0.9c-13.3-0.6-22.9-0.9-32.2-0.9
			c-3.4,0-10.2,0-17.7,0.3c-7.1,0-15.2,0.6-21.4,0.6c-4,0-6.2-0.9-6.2-3.1c0-1.6,1.2-2.5,5-2.5c4.6,0,8.4-0.6,11.1-1.2
			c6.2-1.2,7.8-8.1,9-17c1.5-13,1.5-37.5,1.5-66V946.9z"/>
		<path class="st1" d="M884.5,946.9c0-47.1,0-55.8-0.6-65.7c-0.6-10.5-3.1-15.5-13.3-17.7c-2.5-0.6-7.7-0.9-12.1-0.9
			c-3.4,0-5.3-0.6-5.3-2.8c0-2.2,2.2-2.8,6.8-2.8c16.4,0,35.9,0.9,42.5,0.9c10.5,0,34.1-0.9,43.7-0.9c19.5,0,40.3,1.9,57,13.3
			c8.7,5.9,21.1,21.7,21.1,42.4c0,22.9-9.6,44-40.9,69.4c27.6,34.7,48.9,62.3,67.2,81.5c17.3,18,30.1,20.1,34.7,21.1
			c3.4,0.6,6.2,0.9,8.7,0.9c2.5,0,3.7,0.9,3.7,2.5c0,2.5-2.2,3.1-5.9,3.1h-29.5c-17.3,0-25.1-1.6-33.2-5.9
			c-13.3-7.1-25.1-21.7-42.5-45.6c-12.4-17-26.6-38.1-30.7-42.8c-1.5-1.8-3.4-2.2-5.6-2.2l-27-0.6c-1.5,0-2.5,0.6-2.5,2.5v4.3
			c0,28.8,0,53.3,1.5,66.3c0.9,9,2.8,15.8,12.1,17c4.6,0.6,11.4,1.2,15.2,1.2c2.5,0,3.7,0.9,3.7,2.5c0,2.2-2.2,3.1-6.2,3.1
			c-18,0-40.9-0.9-45.6-0.9c-5.9,0-25.4,0.9-37.8,0.9c-4,0-6.2-0.9-6.2-3.1c0-1.6,1.2-2.5,5-2.5c4.6,0,8.4-0.6,11.1-1.2
			c6.2-1.2,7.8-8.1,9-17c1.6-13,1.6-37.5,1.6-66V946.9z M921,971.4c0,3.4,0.6,4.6,2.8,5.6c6.5,2.2,15.8,3.1,23.5,3.1
			c12.4,0,16.4-1.2,22-5.3c9.3-6.8,18.3-21.1,18.3-46.5c0-44-29.1-56.7-47.4-56.7c-7.8,0-13.3,0.3-16.4,1.2
			c-2.2,0.6-2.8,1.9-2.8,4.3V971.4z"/>
		<path class="st1" d="M1124.6,874.4l-46.2,1.2c-18,0.6-25.4,2.2-30.1,9c-3.1,4.6-4.6,8.4-5.2,10.8c-0.6,2.5-1.6,3.7-3.4,3.7
			c-2.2,0-2.8-1.5-2.8-4.9c0-5,5.9-33.2,6.5-35.6c0.9-4,1.8-5.9,3.7-5.9c2.5,0,5.6,3.1,13.3,3.7c9,0.9,20.8,1.5,31,1.5h122.7
			c9.9,0,16.7-0.9,21.4-1.5c4.7-0.9,7.1-1.6,8.4-1.6c2.2,0,2.5,1.9,2.5,6.5c0,6.5-0.9,27.9-0.9,36c-0.3,3.1-0.9,4.9-2.8,4.9
			c-2.5,0-3.1-1.5-3.4-6.2l-0.3-3.4c-0.6-8.1-9-16.7-36.6-17.3l-39.1-0.9v127c0,28.5,0,53,1.6,66.3c0.9,8.7,2.8,15.5,12.1,16.7
			c4.3,0.6,11.1,1.2,15.8,1.2c3.4,0,5,0.9,5,2.5c0,2.2-2.5,3.1-5.9,3.1c-20.4,0-40-0.9-48.6-0.9c-7.1,0-26.6,0.9-39,0.9
			c-4,0-6.2-0.9-6.2-3.1c0-1.6,1.2-2.5,4.9-2.5c4.7,0,8.4-0.6,11.2-1.2c6.2-1.2,8.1-8.1,9-17c1.5-13,1.5-37.5,1.5-66V874.4z"/>
		<path class="st1" d="M1349.9,946.9c0-47.1,0-55.8-0.6-65.7c-0.6-10.5-3.1-15.5-13.3-17.7c-2.5-0.6-7.7-0.9-12.1-0.9
			c-3.4,0-5.3-0.6-5.3-2.8c0-2.2,2.2-2.8,6.8-2.8c16.4,0,35.9,0.9,44,0.9c7.4,0,26.9-0.9,39-0.9c4.3,0,6.5,0.6,6.5,2.8
			c0,2.2-1.9,2.8-5.6,2.8c-3.4,0-5.3,0.3-9,0.9c-8.4,1.6-10.9,6.8-11.5,17.7c-0.6,9.9-0.6,18.6-0.6,65.7v57.3
			c0,13.3-0.1,10.4-0.1,25.9c0,17.7-0.2,32.3-6.5,49.7c-6.5,18.9-22.9,40.3-52.7,58.6c-4,2.5-9,4.9-15.5,8c-2.2,1.2-4.7,1.9-6.2,1.9
			c-1.2,0-2.5-0.9-2.5-2.5c0-1.6,1.5-2.8,6.8-5.6c4-2.2,8.7-5.6,14.9-11.8c23.6-23.8,23.2-54.8,23.2-115.6V946.9z"/>
		<path class="st1" d="M1424.6,1071.5c0-7.8,5.6-18.9,18.9-18.9c10.6,0,18.9,7.1,18.9,18c0,10.8-7.4,19.8-19.2,19.8
			C1430.1,1090.4,1424.6,1080.2,1424.6,1071.5z"/>
		<path class="st1" d="M1579.5,946.9c0-47.1,0-55.8-0.6-65.7c-0.6-10.5-3.1-15.5-13.3-17.7c-2.5-0.6-7.7-0.9-12.1-0.9
			c-3.4,0-5.3-0.6-5.3-2.8c0-2.2,2.2-2.8,6.8-2.8c16.4,0,35.9,0.9,44.6,0.9c9.6,0,29.1-0.9,47.7-0.9c38.7,0,90.5,0,124.3,35.3
			c15.5,16.1,30.1,41.8,30.1,78.7c0,39-16.4,68.8-33.8,86.5c-14.3,14.6-46.5,36.6-103.8,36.6c-11.2,0-23.9-0.9-35.7-1.9
			c-11.8-0.9-22.6-1.9-30.4-1.9c-3.4,0-10.2,0-17.7,0.3c-7.1,0-15.2,0.6-21.3,0.6c-4,0-6.2-0.9-6.2-3.1c0-1.6,1.2-2.5,4.9-2.5
			c4.7,0,8.4-0.6,11.1-1.2c6.2-1.2,7.8-8.1,9-17c1.6-13,1.6-37.5,1.6-66V946.9z M1618.2,981c0,32.9,0.3,56.7,0.6,62.6
			c0.3,7.8,0.9,20.1,3.4,23.6c4,5.9,16.1,12.4,40.6,12.4c31.6,0,52.7-6.2,71.3-22.3c19.8-17,26-45.2,26-77.2
			c0-39.4-16.4-64.8-29.8-77.5c-28.5-27.3-63.8-31-88-31c-6.2,0-17.6,0.9-20.1,2.2c-2.8,1.2-3.7,2.8-3.7,6.2
			c-0.3,10.5-0.3,37.5-0.3,62V981z"/>
		<path class="st1" d="M1812.5,974.2c0-53,35-121.5,128-121.5c77.2,0,125.2,44.9,125.2,115.9c0,71-49.6,127-128.3,127
			C1848.5,1095.7,1812.5,1029,1812.5,974.2z M2022.3,980.1c0-69.4-40-112.5-90.8-112.5c-35.6,0-76.2,19.8-76.2,97
			c0,64.5,35.6,115.6,95.1,115.6C1972.1,1080.2,2022.3,1069.6,2022.3,980.1z"/>
		<path class="st1" d="M2145.9,1001.5c0,39.7,0,61,6.5,66.6c5.3,4.7,13.3,6.8,37.5,6.8c16.4,0,28.5-0.3,36.2-8.7
			c3.7-4,7.5-12.7,8.1-18.6c0.3-2.8,0.9-4.7,3.4-4.7c2.2,0,2.5,1.5,2.5,5.3c0,3.4-2.2,26.6-4.6,35.6c-1.9,6.8-3.4,8.4-19.5,8.4
			c-22.3,0-38.4-0.6-52.4-0.9c-14-0.6-25.1-0.9-37.8-0.9c-3.4,0-10.2,0-17.7,0.3c-7.1,0-15.2,0.6-21.4,0.6c-4,0-6.2-0.9-6.2-3.1
			c0-1.6,1.2-2.5,4.9-2.5c4.7,0,8.4-0.6,11.2-1.2c6.2-1.2,7.7-8.1,9-17c1.6-13,1.6-37.5,1.6-66v-54.5c0-47.1,0-55.8-0.6-65.7
			c-0.6-10.5-3.1-15.5-13.3-17.7c-2.5-0.6-6.2-0.9-10.2-0.9c-3.4,0-5.3-0.6-5.3-2.8c0-2.2,2.2-2.8,6.8-2.8c14.6,0,34.1,0.9,42.5,0.9
			c7.4,0,30.1-0.9,42.2-0.9c4.3,0,6.5,0.6,6.5,2.8c0,2.2-1.9,2.8-5.6,2.8c-3.4,0-8.4,0.3-12,0.9c-8.4,1.6-10.9,6.8-11.5,17.7
			c-0.6,9.9-0.6,18.6-0.6,65.7V1001.5z"/>
		<path class="st1" d="M2271.4,946.9c0-47.1,0-55.8-0.6-65.7c-0.6-10.5-3.1-15.5-13.3-17.7c-2.5-0.6-7.7-0.9-12.1-0.9
			c-3.4,0-5.3-0.6-5.3-2.8c0-2.2,2.2-2.8,6.8-2.8c8.4,0,17.3,0.3,25.1,0.3c8,0.3,15.2,0.6,19.5,0.6c9.9,0,71.6,0,77.5-0.3
			c5.9-0.6,10.8-1.2,13.3-1.9c1.5-0.3,3.4-1.2,4.9-1.2c1.5,0,1.8,1.2,1.8,2.8c0,2.2-1.5,5.9-2.5,20.1c-0.3,3.1-0.9,16.7-1.5,20.4
			c-0.3,1.6-0.9,3.4-3.1,3.4c-2.2,0-2.8-1.6-2.8-4.3c0-2.2-0.3-7.4-1.8-11.2c-2.2-5.6-5.3-9.3-20.8-11.2c-5.3-0.6-37.8-1.2-44-1.2
			c-1.5,0-2.2,0.9-2.2,3.1V955c0,2.2,0.3,3.4,2.2,3.4c6.8,0,42.5,0,49.6-0.6c7.5-0.6,12.1-1.5,14.9-4.6c2.2-2.5,3.4-4,5-4
			c1.2,0,2.2,0.6,2.2,2.5c0,1.9-1.2,6.8-2.5,22.6c-0.3,6.2-1.2,18.6-1.2,20.8c0,2.5,0,5.9-2.8,5.9c-2.2,0-2.8-1.2-2.8-2.8
			c-0.3-3.1-0.3-7.1-1.2-11.2c-1.5-6.2-5.9-10.8-17.3-12.1c-5.9-0.6-36.6-0.9-44-0.9c-1.6,0-1.9,1.2-1.9,3.1v24.5
			c0,10.5-0.3,39,0,48c0.6,21.4,5.6,26,37.2,26c8,0,21.1,0,29.1-3.7c8.1-3.7,11.8-10.2,13.9-22.9c0.6-3.4,1.2-4.6,3.4-4.6
			c2.5,0,2.5,2.5,2.5,5.6c0,7.1-2.5,28.2-4,34.4c-2.2,8.1-4.9,8.1-16.7,8.1c-23.2,0-40.3-0.6-53.6-0.9c-13.3-0.6-22.9-0.9-32.3-0.9
			c-3.4,0-10.2,0-17.6,0.3c-7.1,0-15.2,0.6-21.4,0.6c-4,0-6.2-0.9-6.2-3.1c0-1.6,1.2-2.5,4.9-2.5c4.6,0,8.3-0.6,11.2-1.2
			c6.2-1.2,7.7-8.1,9-17c1.5-13,1.5-37.5,1.5-66V946.9z"/>
		<path class="st1" d="M34.8,1237.1c0-30.9,0-36.6-0.4-43.2c-0.4-6.9-2.5-10.4-6.9-11.4c-2.3-0.6-4.9-0.8-7.3-0.8
			c-2,0-3.2-0.4-3.2-2c0-1.2,1.6-1.6,4.9-1.6c7.7,0,20.6,0.6,26.5,0.6c5.1,0,17.1-0.6,24.9-0.6c2.6,0,4.3,0.4,4.3,1.6
			c0,1.6-1.2,2-3.3,2c-2,0-3.7,0.2-6.1,0.6c-5.5,1-7.1,4.5-7.6,11.6c-0.4,6.5-0.4,12.2-0.4,43.2v35.9c0,19.8,0,35.8,0.8,44.6
			c0.6,5.5,2,9.2,8.1,10c2.9,0.4,7.3,0.9,10.4,0.9c2.2,0,3.3,0.6,3.3,1.6c0,1.4-1.6,2-3.9,2c-13.4,0-26.3-0.6-31.8-0.6
			c-4.7,0-17.5,0.6-25.7,0.6c-2.6,0-4.1-0.6-4.1-2c0-1,0.8-1.6,3.3-1.6c3.1,0,5.5-0.4,7.3-0.9c4.1-0.8,5.3-4.3,5.9-10.2
			c1-8.6,1-24.7,1-44.4V1237.1z"/>
		<path class="st1" d="M123,1304.3c0.4,15.9,3.1,21.2,7.1,22.6c3.5,1.2,7.3,1.4,10.6,1.4c2.2,0,3.5,0.4,3.5,1.6c0,1.6-1.8,2-4.7,2
			c-13.3,0-21.4-0.6-25.3-0.6c-1.8,0-11.4,0.6-22,0.6c-2.7,0-4.5-0.2-4.5-2c0-1.2,1.2-1.6,3.2-1.6c2.7,0,6.3-0.2,9.2-1
			c5.3-1.6,6.1-7.6,6.3-25.3l1.8-120.6c0-4.1,0.6-6.9,2.7-6.9c2.2,0,4.1,2.7,7.5,6.3c2.5,2.7,33.4,35.9,63.1,65.4
			c13.8,13.9,41.4,43.2,44.8,46.5h1l-2-91.5c-0.2-12.4-2-16.3-6.9-18.3c-3.1-1.2-7.9-1.2-10.8-1.2c-2.5,0-3.3-0.6-3.3-1.8
			c0-1.6,2.2-1.8,5.3-1.8c10.6,0,20.4,0.6,24.6,0.6c2.2,0,10-0.6,20-0.6c2.7,0,4.7,0.2,4.7,1.8c0,1.2-1.2,1.8-3.7,1.8
			c-2,0-3.7,0-6.1,0.6c-5.7,1.6-7.3,5.9-7.5,17.3l-2.2,128.5c0,4.5-0.8,6.3-2.6,6.3c-2.2,0-4.7-2.3-6.9-4.5
			c-12.8-12.2-38.9-38.9-60.1-59.9c-22.2-22-44.8-47.5-48.5-51.3h-0.6L123,1304.3z"/>
		<path class="st1" d="M278,1329.6c-3.3-1.4-3.9-2.5-3.9-6.9c0-11.2,0.8-23.4,1-26.7c0.2-3.1,0.8-5.3,2.5-5.3c1.8,0,2,1.8,2,3.5
			c0,2.6,0.8,6.9,1.8,10.4c4.5,15.1,16.5,20.6,29.1,20.6c18.3,0,27.3-12.4,27.3-23.2c0-10-3.1-19.3-20-32.6l-9.4-7.3
			c-22.4-17.5-30.1-31.8-30.1-48.3c0-22.4,18.7-38.5,47.1-38.5c13.2,0,21.8,2,27.1,3.5c1.8,0.4,2.9,1,2.9,2.5
			c0,2.7-0.8,8.5-0.8,24.4c0,4.5-0.6,6.1-2.2,6.1c-1.4,0-2-1.2-2-3.7c0-1.8-1-8.1-5.3-13.5c-3.1-3.9-9-10-22.2-10
			c-15.1,0-24.2,8.8-24.2,21c0,9.4,4.7,16.5,21.6,29.3l5.7,4.3c24.6,18.5,33.4,32.6,33.4,51.9c0,11.8-4.5,25.9-19.1,35.5
			c-10.2,6.5-21.6,8.3-32.4,8.3C295.9,1334.9,286.8,1333.5,278,1329.6z"/>
		<path class="st1" d="M419.6,1189.4l-30.4,0.8c-11.8,0.4-16.7,1.4-19.8,5.9c-2,3.1-3.1,5.5-3.5,7.1c-0.4,1.6-1,2.5-2.2,2.5
			c-1.4,0-1.8-1-1.8-3.3c0-3.2,3.9-21.8,4.3-23.4c0.6-2.6,1.2-3.9,2.5-3.9c1.6,0,3.7,2,8.8,2.5c5.9,0.6,13.7,1,20.4,1h80.7
			c6.5,0,11-0.6,14.1-1c3.1-0.6,4.7-1,5.5-1c1.4,0,1.6,1.2,1.6,4.3c0,4.3-0.6,18.3-0.6,23.6c-0.2,2-0.6,3.3-1.8,3.3
			c-1.6,0-2-1-2.2-4.1l-0.2-2.2c-0.4-5.3-5.9-11-24-11.4l-25.7-0.6v83.5c0,18.7,0,34.8,1,43.6c0.6,5.7,1.8,10.2,7.9,11
			c2.9,0.4,7.3,0.9,10.4,0.9c2.2,0,3.3,0.6,3.3,1.6c0,1.4-1.6,2-3.9,2c-13.4,0-26.3-0.6-32-0.6c-4.7,0-17.5,0.6-25.7,0.6
			c-2.6,0-4.1-0.6-4.1-2c0-1,0.8-1.6,3.2-1.6c3.1,0,5.5-0.4,7.3-0.9c4.1-0.8,5.3-5.3,5.9-11.2c1-8.6,1-24.7,1-43.4V1189.4z"/>
		<path class="st1" d="M521.8,1237.1c0-30.9,0-36.6-0.4-43.2c-0.4-6.9-2.5-10.4-6.9-11.4c-2.2-0.6-4.9-0.8-7.3-0.8
			c-2,0-3.3-0.4-3.3-2c0-1.2,1.6-1.6,4.9-1.6c7.7,0,20.6,0.6,26.5,0.6c5.1,0,17.1-0.6,24.8-0.6c2.6,0,4.3,0.4,4.3,1.6
			c0,1.6-1.2,2-3.2,2c-2,0-3.7,0.2-6.1,0.6c-5.5,1-7.1,4.5-7.5,11.6c-0.4,6.5-0.4,12.2-0.4,43.2v35.9c0,19.8,0,35.8,0.8,44.6
			c0.6,5.5,2.1,9.2,8.2,10c2.9,0.4,7.3,0.9,10.4,0.9c2.2,0,3.3,0.6,3.3,1.6c0,1.4-1.6,2-3.9,2c-13.4,0-26.3-0.6-31.8-0.6
			c-4.7,0-17.5,0.6-25.7,0.6c-2.6,0-4.1-0.6-4.1-2c0-1,0.8-1.6,3.3-1.6c3.1,0,5.5-0.4,7.3-0.9c4.1-0.8,5.3-4.3,5.9-10.2
			c1-8.6,1-24.7,1-44.4V1237.1z"/>
		<path class="st1" d="M625.7,1189.4l-30.4,0.8c-11.8,0.4-16.7,1.4-19.8,5.9c-2,3.1-3.1,5.5-3.5,7.1c-0.4,1.6-1,2.5-2.2,2.5
			c-1.4,0-1.8-1-1.8-3.3c0-3.2,3.9-21.8,4.3-23.4c0.6-2.6,1.2-3.9,2.4-3.9c1.6,0,3.7,2,8.8,2.5c5.9,0.6,13.6,1,20.4,1h80.7
			c6.5,0,11-0.6,14.1-1c3.1-0.6,4.7-1,5.5-1c1.4,0,1.6,1.2,1.6,4.3c0,4.3-0.6,18.3-0.6,23.6c-0.2,2-0.6,3.3-1.8,3.3
			c-1.6,0-2-1-2.2-4.1l-0.2-2.2c-0.4-5.3-5.9-11-24-11.4l-25.7-0.6v83.5c0,18.7,0,34.8,1,43.6c0.6,5.7,1.8,10.2,7.9,11
			c2.9,0.4,7.3,0.9,10.4,0.9c2.2,0,3.3,0.6,3.3,1.6c0,1.4-1.6,2-3.9,2c-13.4,0-26.3-0.6-32-0.6c-4.7,0-17.5,0.6-25.7,0.6
			c-2.6,0-4.1-0.6-4.1-2c0-1,0.8-1.6,3.3-1.6c3.1,0,5.5-0.4,7.3-0.9c4.1-0.8,5.3-5.3,5.9-11.2c1-8.6,1-24.7,1-43.4V1189.4z"/>
		<path class="st1" d="M719.2,1237.1c0-30.9,0-36.6-0.4-43.2c-0.4-6.9-2-10.2-8.8-11.6c-1.6-0.4-5.1-0.6-7.9-0.6
			c-2.3,0-3.5-0.4-3.5-1.8c0-1.4,1.4-1.8,4.5-1.8c10.8,0,23.6,0.6,29.7,0.6c4.9,0,17.7-0.6,25.1-0.6c3.1,0,4.5,0.4,4.5,1.8
			c0,1.4-1.2,1.8-3.2,1.8c-2.2,0-3.5,0.2-5.9,0.6c-5.5,1-7.1,4.5-7.5,11.6c-0.4,6.5-0.4,12.2-0.4,43.2v28.5c0,29.5,5.9,42,15.9,50.1
			c9.2,7.5,18.5,8.3,25.5,8.3c9,0,19.9-2.9,28.1-11c11.2-11.2,11.8-29.5,11.8-50.5v-25.5c0-30.9,0-36.6-0.4-43.2
			c-0.4-6.9-2-10.2-8.8-11.6c-1.6-0.4-5.1-0.6-7.3-0.6c-2.2,0-3.5-0.4-3.5-1.8c0-1.4,1.4-1.8,4.3-1.8c10.4,0,23.2,0.6,23.4,0.6
			c2.4,0,15.3-0.6,23.2-0.6c2.9,0,4.3,0.4,4.3,1.8c0,1.4-1.2,1.8-3.7,1.8c-2.2,0-3.5,0.2-5.9,0.6c-5.5,1-7.1,4.5-7.5,11.6
			c-0.4,6.5-0.4,12.2-0.4,43.2v21.8c0,22.6-2.2,46.6-19.4,61.3c-14.5,12.5-29.1,14.7-42.4,14.7c-10.8,0-30.4-0.6-45.2-14.1
			c-10.4-9.4-18.1-24.4-18.1-54V1237.1z"/>
		<path class="st1" d="M913.3,1189.4l-30.3,0.8c-11.8,0.4-16.7,1.4-19.8,5.9c-2,3.1-3.1,5.5-3.5,7.1c-0.4,1.6-1,2.5-2.2,2.5
			c-1.4,0-1.8-1-1.8-3.3c0-3.2,3.9-21.8,4.3-23.4c0.6-2.6,1.2-3.9,2.5-3.9c1.6,0,3.7,2,8.8,2.5c5.9,0.6,13.6,1,20.4,1h80.7
			c6.5,0,11-0.6,14.1-1c3.1-0.6,4.7-1,5.5-1c1.4,0,1.6,1.2,1.6,4.3c0,4.3-0.6,18.3-0.6,23.6c-0.2,2-0.6,3.3-1.8,3.3
			c-1.6,0-2-1-2.2-4.1l-0.2-2.2c-0.4-5.3-5.9-11-24-11.4l-25.7-0.6v83.5c0,18.7,0,34.8,1,43.6c0.6,5.7,1.8,10.2,8,11
			c2.8,0.4,7.3,0.9,10.4,0.9c2.2,0,3.2,0.6,3.2,1.6c0,1.4-1.6,2-3.9,2c-13.4,0-26.3-0.6-32-0.6c-4.7,0-17.5,0.6-25.7,0.6
			c-2.6,0-4.1-0.6-4.1-2c0-1,0.8-1.6,3.3-1.6c3.1,0,5.5-0.4,7.3-0.9c4.1-0.8,5.3-5.3,5.9-11.2c1-8.6,1-24.7,1-43.4V1189.4z"/>
		<path class="st1" d="M1015.6,1237.1c0-30.9,0-36.6-0.4-43.2c-0.4-6.9-2-10.2-8.8-11.6c-1.6-0.4-5.1-0.6-7.9-0.6
			c-2.2,0-3.5-0.4-3.5-1.8c0-1.4,1.4-1.8,4.5-1.8c5.5,0,11.4,0.2,16.5,0.2c5.3,0.2,10,0.4,12.8,0.4c6.5,0,47.1,0,50.9-0.2
			c3.9-0.4,7.1-0.8,8.8-1.2c1-0.2,2.2-0.8,3.3-0.8c1,0,1.2,0.8,1.2,1.8c0,1.4-1,3.9-1.6,13.2c-0.2,2-0.6,11-1,13.5
			c-0.2,1-0.6,2.2-2,2.2c-1.4,0-1.8-1-1.8-2.9c0-1.4-0.2-4.9-1.2-7.3c-1.4-3.7-3.4-6.1-13.6-7.3c-3.5-0.4-24.8-0.8-28.9-0.8
			c-1.1,0-1.4,0.6-1.4,2v51.5c0,1.4,0.2,2.3,1.4,2.3c4.5,0,27.9,0,32.6-0.4c4.9-0.4,8-1,9.8-3.1c1.4-1.6,2.2-2.6,3.2-2.6
			c0.8,0,1.4,0.4,1.4,1.6c0,1.2-0.8,4.5-1.7,14.9c-0.2,4.1-0.8,12.2-0.8,13.6c0,1.6,0,3.9-1.9,3.9c-1.4,0-1.8-0.8-1.8-1.8
			c-0.2-2-0.2-4.7-0.8-7.3c-1-4.1-3.9-7.1-11.4-8c-3.9-0.4-24-0.6-28.9-0.6c-1,0-1.2,0.8-1.2,2v16.1c0,6.9-0.2,25.7,0,31.6
			c0.4,14.1,3.7,17.1,24.4,17.1c5.3,0,13.9,0,19.1-2.5c5.3-2.5,7.7-6.7,9.2-15.1c0.4-2.2,0.8-3,2.2-3c1.6,0,1.6,1.6,1.6,3.7
			c0,4.7-1.6,18.5-2.6,22.6c-1.4,5.3-3.2,5.3-11,5.3c-15.3,0-26.5-0.4-35.3-0.6c-8.7-0.4-15-0.6-21.2-0.6c-2.2,0-6.7,0-11.6,0.2
			c-4.7,0-10,0.4-14.1,0.4c-2.6,0-4.1-0.6-4.1-2c0-1,0.8-1.6,3.3-1.6c3,0,5.5-0.4,7.3-0.9c4.1-0.8,5.1-5.3,5.9-11.2
			c1-8.6,1-24.7,1-43.4V1237.1z"/>
		<path class="st1" d="M1152.7,1255c0-34.9,23-79.9,84.1-79.9c50.7,0,82.3,29.5,82.3,76.2c0,46.6-32.6,83.5-84.3,83.5
			C1176.3,1334.9,1152.7,1291.1,1152.7,1255z M1290.6,1258.9c0-45.7-26.3-74-59.7-74c-23.4,0-50.1,13-50.1,63.8
			c0,42.4,23.4,76,62.5,76C1257.6,1324.7,1290.6,1317.8,1290.6,1258.9z"/>
		<path class="st1" d="M1372.1,1272.9c0,19.6,0,34.8,1,43.4c0.6,5.9,1.8,10.4,7.9,11.2c2.9,0.4,7.3,0.9,10.2,0.9
			c2.7,0,3.5,0.6,3.5,1.6c0,1.4-1.4,2-4.5,2c-12.8,0-25.7-0.6-31-0.6c-5.3,0-18.1,0.6-25.9,0.6c-2.9,0-4.3-0.4-4.3-2
			c0-1,0.8-1.6,3.1-1.6c3.1,0,5.5-0.4,7.3-0.9c4-0.8,5.1-5.3,5.9-11.2c1-8.6,1-23.8,1-43.4v-35.9c0-30.9,0-36.6-0.4-43.2
			c-0.4-6.9-2-10.2-8.8-11.6c-1.6-0.4-5.1-0.6-7.9-0.6c-2,0-3.5-0.4-3.5-1.6c0-1.6,1.6-2,4.7-2c5.3,0,11.2,0.2,16.5,0.2
			c5.3,0.2,10,0.4,12.8,0.4c7.7,0,49.1,0,53.8-0.2c3.9-0.2,6.3-0.2,8.4-0.8c1.2-0.4,2.3-1.2,3.2-1.2c0.8,0,1.4,0.8,1.4,1.8
			c0,1.4-1,3.9-1.6,9.2c-0.2,2.1-0.6,14.1-1,16.5c-0.2,1.6-0.6,2.8-2.1,2.8c-1.4,0-1.8-1-2-3.3c0-1.6,0-4.9-1.2-7.7
			c-1.4-2.9-5.7-5.9-13.4-6.1l-31.4-0.6c-1.2,0-1.8,0.6-1.8,2.8v50.9c0,1.2,0.2,1.8,1.4,1.8l26.1-0.2c3.5,0,6.3,0,9.1-0.2
			c3.9-0.2,6.7-1,8.8-3.7c1-1.2,1.4-2,2.7-2c0.8,0,1.2,0.6,1.2,1.8c0,1.2-1,6.3-1.6,12.6c-0.4,4.1-0.8,13.4-0.8,14.9
			c0,1.8,0,3.9-2,3.9c-1.2,0-1.6-1.4-1.6-2.8c0-1.4-0.4-3.9-1.2-6.3c-1-2.8-4.1-6.5-10.4-7.3c-5.1-0.6-26.7-0.6-30.2-0.6
			c-1,0-1.4,0.4-1.4,1.8V1272.9z"/>
		<path class="st1" d="M1503.7,1237.1c0-30.9,0-36.6-0.4-43.2c-0.4-6.9-2-10.2-8.7-11.6c-1.7-0.4-5.1-0.6-8-0.6
			c-2.2,0-3.4-0.4-3.4-1.8c0-1.4,1.4-1.8,4.5-1.8c10.8,0,23.6,0.6,29.3,0.6c8.3,0,20.2-0.6,29.5-0.6c25.5,0,34.7,8.6,37.9,11.6
			c4.5,4.3,10.2,13.4,10.2,24.2c0,28.9-21.2,49.3-50.1,49.3c-1,0-3.2,0-4.3-0.2c-1-0.2-2.5-0.4-2.5-1.8c0-1.6,1.4-2.2,5.7-2.2
			c11.4,0,27.3-12.8,27.3-33.6c0-6.7-0.6-20.4-12-30.5c-7.3-6.7-15.7-7.9-20.4-7.9c-3.1,0-6.2,0.2-7.9,0.8c-1.1,0.4-1.7,1.6-1.7,3.9
			v81.5c0,18.7,0,34.8,1,43.6c0.6,5.7,1.9,10.2,7.9,11c2.8,0.4,7.3,0.9,10.4,0.9c2.2,0,3.3,0.6,3.3,1.6c0,1.4-1.6,2-3.9,2
			c-13.5,0-26.3-0.6-31.6-0.6c-4.7,0-17.5,0.6-25.7,0.6c-2.6,0-4.1-0.6-4.1-2c0-1,0.8-1.6,3.3-1.6c3,0,5.5-0.4,7.3-0.9
			c4.1-0.8,5.1-5.3,5.9-11.2c1-8.6,1-24.7,1-43.4V1237.1z"/>
		<path class="st1" d="M1599.6,1255c0-34.9,23-79.9,84.1-79.9c50.7,0,82.3,29.5,82.3,76.2c0,46.6-32.6,83.5-84.3,83.5
			C1623.3,1334.9,1599.6,1291.1,1599.6,1255z M1737.6,1258.9c0-45.7-26.3-74-59.7-74c-23.4,0-50.1,13-50.1,63.8
			c0,42.4,23.4,76,62.5,76C1704.6,1324.7,1737.6,1317.8,1737.6,1258.9z"/>
		<path class="st1" d="M1818.8,1272.9c0,26.1,0,40.1,4.3,43.8c3.5,3.1,8.8,4.5,24.7,4.5c10.8,0,18.8-0.2,23.8-5.7
			c2.5-2.6,4.9-8.3,5.3-12.2c0.2-1.8,0.6-3.1,2.3-3.1c1.4,0,1.6,1,1.6,3.5c0,2.3-1.4,17.5-3,23.4c-1.2,4.5-2.3,5.5-12.8,5.5
			c-14.7,0-25.3-0.4-34.4-0.6c-9.2-0.4-16.5-0.6-24.9-0.6c-2.2,0-6.7,0-11.6,0.2c-4.7,0-9.9,0.4-14,0.4c-2.6,0-4.1-0.6-4.1-2
			c0-1,0.8-1.6,3.3-1.6c3.1,0,5.5-0.4,7.3-0.9c4-0.8,5.1-5.3,5.9-11.2c1-8.6,1-24.7,1-43.4v-35.9c0-30.9,0-36.6-0.4-43.2
			c-0.4-6.9-2-10.2-8.8-11.6c-1.6-0.4-4-0.6-6.7-0.6c-2.2,0-3.5-0.4-3.5-1.8c0-1.4,1.4-1.8,4.5-1.8c9.6,0,22.4,0.6,27.9,0.6
			c4.9,0,19.7-0.6,27.7-0.6c2.8,0,4.3,0.4,4.3,1.8c0,1.4-1.2,1.8-3.7,1.8c-2.2,0-5.5,0.2-7.9,0.6c-5.5,1-7.1,4.5-7.5,11.6
			c-0.4,6.5-0.4,12.2-0.4,43.2V1272.9z"/>
		<path class="st1" d="M1901.3,1237.1c0-30.9,0-36.6-0.4-43.2c-0.4-6.9-2.4-10.4-6.9-11.4c-2.2-0.6-4.9-0.8-7.3-0.8
			c-2,0-3.3-0.4-3.3-2c0-1.2,1.6-1.6,4.9-1.6c7.7,0,20.6,0.6,26.5,0.6c5.1,0,17.1-0.6,24.9-0.6c2.6,0,4.3,0.4,4.3,1.6
			c0,1.6-1.2,2-3.3,2c-2,0-3.7,0.2-6.1,0.6c-5.5,1-7.1,4.5-7.5,11.6c-0.4,6.5-0.4,12.2-0.4,43.2v35.9c0,19.8,0,35.8,0.8,44.6
			c0.6,5.5,2,9.2,8.2,10c2.9,0.4,7.3,0.9,10.4,0.9c2.2,0,3.2,0.6,3.2,1.6c0,1.4-1.6,2-3.9,2c-13.4,0-26.3-0.6-31.8-0.6
			c-4.7,0-17.5,0.6-25.7,0.6c-2.6,0-4-0.6-4-2c0-1,0.8-1.6,3.2-1.6c3.1,0,5.5-0.4,7.3-0.9c4.1-0.8,5.3-4.3,5.9-10.2
			c1-8.6,1-24.7,1-44.4V1237.1z"/>
		<path class="st1" d="M2005.2,1189.4l-30.3,0.8c-11.8,0.4-16.7,1.4-19.8,5.9c-2,3.1-3,5.5-3.5,7.1c-0.4,1.6-1,2.5-2.2,2.5
			c-1.4,0-1.8-1-1.8-3.3c0-3.2,3.9-21.8,4.3-23.4c0.6-2.6,1.2-3.9,2.4-3.9c1.6,0,3.7,2,8.7,2.5c5.9,0.6,13.7,1,20.4,1h80.7
			c6.5,0,11-0.6,14.1-1c3.1-0.6,4.7-1,5.5-1c1.4,0,1.6,1.2,1.6,4.3c0,4.3-0.6,18.3-0.6,23.6c-0.2,2-0.6,3.3-1.8,3.3
			c-1.6,0-2.1-1-2.3-4.1l-0.2-2.2c-0.4-5.3-5.9-11-24-11.4l-25.7-0.6v83.5c0,18.7,0,34.8,1,43.6c0.6,5.7,1.8,10.2,7.9,11
			c2.8,0.4,7.3,0.9,10.4,0.9c2.2,0,3.3,0.6,3.3,1.6c0,1.4-1.6,2-3.9,2c-13.4,0-26.3-0.6-32-0.6c-4.7,0-17.5,0.6-25.6,0.6
			c-2.7,0-4.1-0.6-4.1-2c0-1,0.8-1.6,3.2-1.6c3.1,0,5.5-0.4,7.3-0.9c4.1-0.8,5.3-5.3,5.9-11.2c1-8.6,1-24.7,1-43.4V1189.4z"/>
		<path class="st1" d="M2107.5,1237.1c0-30.9,0-36.6-0.4-43.2c-0.4-6.9-2.5-10.4-6.9-11.4c-2.2-0.6-4.9-0.8-7.3-0.8
			c-2,0-3.3-0.4-3.3-2c0-1.2,1.6-1.6,4.9-1.6c7.7,0,20.6,0.6,26.4,0.6c5.1,0,17.1-0.6,24.9-0.6c2.6,0,4.3,0.4,4.3,1.6
			c0,1.6-1.2,2-3.2,2c-2.1,0-3.7,0.2-6.1,0.6c-5.5,1-7.1,4.5-7.5,11.6c-0.4,6.5-0.4,12.2-0.4,43.2v35.9c0,19.8,0,35.8,0.8,44.6
			c0.6,5.5,2,9.2,8.2,10c2.9,0.4,7.4,0.9,10.4,0.9c2.2,0,3.3,0.6,3.3,1.6c0,1.4-1.6,2-3.9,2c-13.4,0-26.3-0.6-31.8-0.6
			c-4.7,0-17.5,0.6-25.7,0.6c-2.6,0-4.1-0.6-4.1-2c0-1,0.8-1.6,3.3-1.6c3.1,0,5.5-0.4,7.3-0.9c4.1-0.8,5.3-4.3,5.9-10.2
			c1-8.6,1-24.7,1-44.4V1237.1z"/>
		<path class="st1" d="M2185.3,1312.7c-20-17.5-25.3-40.3-25.3-60.1c0-13.9,4.3-37.9,23.8-55.8c14.7-13.5,34-21.6,64.4-21.6
			c12.7,0,20.2,0.8,29.5,2c7.8,1,14.3,2.8,20.4,3.5c2.2,0.2,3.1,1.2,3.1,2.5c0,1.6-0.6,4.1-1,11.2c-0.4,6.7-0.2,17.9-0.6,22
			c-0.2,3.1-0.6,4.7-2.4,4.7c-1.6,0-2.1-1.6-2.1-4.5c-0.2-6.3-2.8-13.5-7.9-18.8c-6.7-7.1-22.6-12.6-41.4-12.6
			c-17.7,0-29.3,4.5-38.3,12.6c-14.8,13.6-18.7,33-18.7,52.8c0,48.5,36.9,72.5,64.2,72.5c18.2,0,29.2-2,37.3-11.4
			c3.5-3.9,6.1-9.8,6.9-13.4c0.6-3.3,1-4.1,2.6-4.1c1.4,0,1.8,1.4,1.8,3.1c0,2.4-2.4,20.2-4.5,27.1c-1,3.5-1.8,4.5-5.3,5.9
			c-8.2,3.3-23.6,4.7-36.6,4.7C2227.3,1334.9,2203.8,1328.8,2185.3,1312.7z"/>
		<path class="st1" d="M2318.7,1329.6c-3.2-1.4-3.9-2.5-3.9-6.9c0-11.2,0.8-23.4,1-26.7c0.2-3.1,0.8-5.3,2.5-5.3c1.8,0,2,1.8,2,3.5
			c0,2.6,0.8,6.9,1.8,10.4c4.5,15.1,16.5,20.6,29.2,20.6c18.3,0,27.3-12.4,27.3-23.2c0-10-3-19.3-19.9-32.6l-9.4-7.3
			c-22.4-17.5-30.1-31.8-30.1-48.3c0-22.4,18.7-38.5,47.1-38.5c13.3,0,21.8,2,27.1,3.5c1.8,0.4,2.9,1,2.9,2.5
			c0,2.7-0.8,8.5-0.8,24.4c0,4.5-0.6,6.1-2.2,6.1c-1.4,0-2-1.2-2-3.7c0-1.8-1-8.1-5.3-13.5c-3.1-3.9-9-10-22.2-10
			c-15.1,0-24.2,8.8-24.2,21c0,9.4,4.7,16.5,21.6,29.3l5.7,4.3c24.7,18.5,33.4,32.6,33.4,51.9c0,11.8-4.5,25.9-19.1,35.5
			c-10.2,6.5-21.6,8.3-32.4,8.3C2336.7,1334.9,2327.5,1333.5,2318.7,1329.6z"/>
	</g>
	<g>
		<path class="st1" d="M454.4,1494.2h-34.2v70.6h-28.1v-70.6H358v-22.7h96.4V1494.2z"/>
		<path class="st1" d="M537,1564.8h-24.2v-35.5c0-0.3,0-0.5,0-0.8c0-0.3,0-0.8,0-1.6c0-3.2-0.7-6.3-2.1-9c-1.4-2.7-4-4.1-8-4.1
			c-3.1,0-5.8,1-8.1,3c-2.3,2-4.6,4.6-6.7,7.7v40.2h-24.2v-93.3H488v34.6c4-4.3,8-7.2,11.9-8.7c3.9-1.6,8-2.3,12.5-2.3
			c16.4,0,24.6,9.2,24.6,27.6V1564.8z"/>
		<path class="st1" d="M618.6,1536.4h-48.2c0.9,4.2,3.2,7.6,6.9,10.2c3.7,2.6,7.9,4,12.5,4c8.2,0,17.2-2.3,27-6.8v15
			c-3.5,1.8-7.8,3.5-12.9,5c-5,1.5-11.5,2.3-19.2,2.3c-8.4,0-15.6-1.6-21.5-4.7c-5.9-3.1-10.3-7.4-13.3-12.8
			c-2.9-5.4-4.4-11.5-4.4-18.3c0-6.7,1.5-12.7,4.4-18.1c2.9-5.3,7.4-9.5,13.3-12.5c5.9-3,13.1-4.6,21.5-4.6c5.6,0,10.9,1.2,16.1,3.6
			c5.2,2.4,9.4,6.3,12.8,11.8c3.3,5.4,5,12.5,5,21.1V1536.4z M595.8,1524.4c0-4.4-1.1-7.9-3.2-10.5c-2.2-2.6-5.3-3.9-9.4-3.9
			c-4,0-7.3,1.3-9.8,4c-2.5,2.7-3.7,6.2-3.7,10.4H595.8z"/>
		<path class="st1" d="M766.4,1523c0,8-1.5,14.8-4.5,20.4c-3,5.6-6.9,10.1-11.8,13.4c-4.9,3.3-10.2,5.6-15.9,7.1
			c-5.7,1.4-11.3,2.2-17,2.2c-7.9,0-15.6-1.4-23-4c-7.5-2.7-13.7-7.3-18.7-13.7c-5-6.5-7.5-14.9-7.5-25.2v-51.5H696v44.3
			c0,6.2,0.9,11.2,2.7,15.2c1.8,4,4.2,7,7.4,8.8c3.2,1.9,6.9,2.8,11.2,2.8c4.1,0,7.8-0.9,11-2.7c3.2-1.9,5.6-4.8,7.4-8.8
			c1.8-4,2.7-9.1,2.7-15.2v-44.4h28.1V1523z"/>
		<path class="st1" d="M854.6,1564.8h-24.2v-35.5v-1.4c0-3.7-0.6-7-1.9-9.9c-1.2-2.8-3.9-4.2-8.1-4.2c-2,0-3.7,0.4-5.2,1.1
			c-1.5,0.7-2.8,1.7-4,2.9c-1.2,1.2-2.2,2.3-3,3.4c-0.8,1.1-1.6,2.2-2.5,3.4v40.2h-24.2v-68.5h24.2v9.9c3.8-4.1,7.6-7,11.5-8.6
			c3.8-1.6,8.1-2.5,12.8-2.5c16.4,0,24.6,9.8,24.6,29.5V1564.8z"/>
		<path class="st1" d="M891.5,1564.8h-24.2v-68.5h24.2V1564.8z M889.6,1480.5c0,2.8-1,5.2-3,7.2c-2,2-4.4,3-7.2,3
			c-1.9,0-3.6-0.5-5.1-1.4c-1.5-0.9-2.8-2.1-3.7-3.7c-0.9-1.5-1.3-3.3-1.3-5.1c0-2.8,1-5.2,2.9-7.2c2-2,4.4-3,7.2-3
			c2.8,0,5.2,1,7.2,3C888.6,1475.3,889.6,1477.7,889.6,1480.5z"/>
		<path class="st1" d="M977.4,1496.3l-31.1,68.5h-17.9l-30.5-68.5h26l14.2,35.9l15.7-35.9H977.4z"/>
		<path class="st1" d="M1050.7,1536.4h-48.2c0.9,4.2,3.3,7.6,6.9,10.2c3.7,2.6,7.8,4,12.5,4c8.2,0,17.1-2.3,27-6.8v15
			c-3.5,1.8-7.8,3.5-12.9,5c-5.1,1.5-11.5,2.3-19.3,2.3c-8.4,0-15.6-1.6-21.5-4.7c-5.9-3.1-10.3-7.4-13.3-12.8
			c-2.9-5.4-4.4-11.5-4.4-18.3c0-6.7,1.5-12.7,4.4-18.1c2.9-5.3,7.4-9.5,13.3-12.5c5.9-3,13.1-4.6,21.5-4.6c5.6,0,10.9,1.2,16.1,3.6
			c5.2,2.4,9.4,6.3,12.8,11.8c3.3,5.4,5,12.5,5,21.1V1536.4z M1027.9,1524.4c0-4.4-1.1-7.9-3.2-10.5c-2.2-2.6-5.3-3.9-9.3-3.9
			c-4,0-7.3,1.3-9.8,4c-2.5,2.7-3.7,6.2-3.7,10.4H1027.9z"/>
		<path class="st1" d="M1119.8,1500l-9,24.3c-3.7-3.5-7.4-5.2-11.2-5.2c-3.4,0-6.4,1.1-8.9,3.4c-2.5,2.3-4.9,6.6-7.1,12.8v29.4
			h-24.2v-68.5h24.2v16.6c1.5-4.1,4.2-8.1,8.1-11.9c3.9-3.9,8.4-5.8,13.6-5.8c2.7,0,5.1,0.4,7.2,1.2
			C1114.6,1497.1,1117,1498.4,1119.8,1500z"/>
		<path class="st1" d="M1174,1544.8c0,6.3-2.3,11.4-6.9,15.3c-4.6,3.9-11.4,5.9-20.5,5.9c-5.1,0-9.6-0.5-13.5-1.4
			c-3.9-0.9-8.2-2.2-12.9-3.9v-17.2c4.1,2.3,7.6,4.1,10.6,5.3c3,1.2,6.3,1.8,9.9,1.8c6,0,9-1.7,9-5c0-1.1-0.4-2.1-1.3-3
			c-0.9-0.9-2.4-1.9-4.6-3c-2.2-1.1-5.1-2.4-8.7-3.9c-4.5-2-8.3-4.6-11.4-7.9c-3.1-3.3-4.7-7.4-4.7-12.2c0-3.4,1.1-6.7,3.1-9.8
			c2.1-3.1,5.2-5.7,9.4-7.7c4.2-2,9.3-3,15.2-3c1.4,0,3.3,0.1,5.5,0.3c2.2,0.2,5,0.8,8.4,1.6c3.4,0.9,6.6,2.1,9.6,3.6v16.8
			c-1.4-0.9-2.6-1.6-3.6-2.2c-1-0.6-2.2-1.2-3.9-1.9c-1.6-0.7-3.5-1.4-5.7-1.9c-2.2-0.6-4.4-0.8-6.7-0.8c-2.8,0-4.7,0.5-5.7,1.6
			c-1,1.1-1.5,2.2-1.5,3.2c0,1.1,0.5,2.2,1.6,3.1c1.1,0.9,3.5,2.2,7.2,3.6c5.4,2.1,9.7,4.2,12.9,6.3c3.2,2.2,5.5,4.6,6.9,7.2
			C1173.4,1538.2,1174,1541.3,1174,1544.8z"/>
		<path class="st1" d="M1209.6,1564.8h-24.2v-68.5h24.2V1564.8z M1207.6,1480.5c0,2.8-1,5.2-3,7.2c-2,2-4.4,3-7.2,3
			c-1.9,0-3.6-0.5-5.1-1.4c-1.5-0.9-2.8-2.1-3.6-3.7c-0.9-1.5-1.3-3.3-1.3-5.1c0-2.8,1-5.2,2.9-7.2c2-2,4.4-3,7.2-3
			c2.8,0,5.2,1,7.2,3C1206.6,1475.3,1207.6,1477.7,1207.6,1480.5z"/>
		<path class="st1" d="M1277.3,1560.8c-2.5,1.2-6,2.4-10.4,3.5c-4.4,1.1-8.6,1.7-12.7,1.7c-17.4,0-26.1-8.5-26.1-25.6v-27.3h-11
			v-4.2l32.4-33h2.7v20.4h23.1v16.8h-23.1v21.9c0,2.6,0.1,4.6,0.5,6.2c0.3,1.6,1.2,2.9,2.7,3.9c1.5,1.1,3.7,1.6,6.6,1.6
			c3.9,0,8.9-1.6,15.2-4.8V1560.8z"/>
		<path class="st1" d="M1358.2,1496.3l-46.5,99.6h-24.5l18.8-40.1l-27.1-59.5h26l13.9,34.1l15.8-34.1H1358.2z"/>
		<path class="st1" d="M1475.5,1530.5c0,6.8-1.5,12.9-4.4,18.2c-3,5.3-7.4,9.6-13.3,12.7c-5.9,3.1-13.1,4.6-21.5,4.6
			c-8.5,0-15.7-1.5-21.5-4.6c-5.9-3.1-10.3-7.3-13.3-12.7c-2.9-5.3-4.4-11.4-4.4-18.2c0-5.1,0.8-9.8,2.5-14.1
			c1.6-4.2,4.1-7.9,7.5-11.2c3.3-3.2,7.4-5.7,12.3-7.5c4.9-1.8,10.5-2.6,16.9-2.6c6.5,0,12.2,0.9,17.1,2.7c4.9,1.8,9,4.3,12.3,7.4
			c3.2,3.2,5.7,6.9,7.4,11.2C1474.7,1520.6,1475.5,1525.3,1475.5,1530.5z M1450.1,1530.5c0-5.4-1.2-9.7-3.5-12.7
			c-2.3-3.1-5.8-4.6-10.3-4.6c-4.5,0-7.8,1.5-10.2,4.6c-2.3,3.1-3.5,7.3-3.5,12.7c0,5.4,1.2,9.7,3.6,12.8c2.4,3.1,5.8,4.7,10.2,4.7
			c4.5,0,7.9-1.5,10.3-4.7C1448.9,1540.2,1450.1,1535.9,1450.1,1530.5z"/>
		<path class="st1" d="M1530.9,1488.9c-3.7-0.8-6.6-1.3-9-1.3c-2.6,0-4.6,0.8-6,2.5c-1.5,1.7-2.2,4.1-2.2,7.2v2.4h12.2v16.4h-12.2
			v48.5h-24.2v-48.5h-11.2v-16.4h11.2v-1.2c0-4.8,0.9-9.3,2.8-13.6c1.8-4.3,5-7.8,9.3-10.6c4.3-2.8,10-4.2,17.2-4.2
			c4,0,8.1,0.4,12.2,1.2V1488.9z"/>
		<path class="st1" d="M1676.8,1564.8h-34.3l-35.7-43.7v43.7h-28v-93.3h28v41.7l33.8-41.7h30.5l-34.7,43.7L1676.8,1564.8z"/>
		<path class="st1" d="M1753.1,1561.4c-3.5,1.4-6.8,2.5-9.8,3.4c-3,0.9-6.6,1.3-10.8,1.3c-4,0-6.8-0.7-8.3-2.1
			c-1.6-1.4-2.7-3.1-3.4-5.1c-2.6,2.1-5.5,3.8-8.7,5.2c-3.2,1.4-7.4,2.1-12.5,2.1c-5,0-9-0.9-12.1-2.6c-3.1-1.7-5.3-3.9-6.5-6.5
			c-1.2-2.6-1.8-5.3-1.8-8.1c0-4.2,1.1-7.7,3.2-10.5c2.2-2.8,5-5,8.6-6.8c3.6-1.7,8.4-3.6,14.3-5.5c3.4-1.1,5.9-1.9,7.6-2.5
			c1.7-0.6,3-1,3.9-1.3c0.9-0.3,1.8-0.7,2.7-1.2c0-3.3-0.7-5.9-2-7.8c-1.3-1.9-4.3-2.8-8.8-2.8c-5.3,0-10.2,1.2-14.8,3.5
			c-4.5,2.3-8.7,5.3-12.4,9v-18.6c3-2.2,6.3-3.9,9.7-5.3c3.5-1.4,7.1-2.4,11-3.1c3.8-0.6,7.7-1,11.6-1c9.9,0,17.4,1.9,22.4,5.8
			c5,3.8,7.5,9.1,7.5,15.8v26.4c0,2.5,0.2,4.4,0.7,5.6c0.5,1.2,1.3,1.9,2.6,1.9c1.5,0,3.6-0.6,6.2-1.9V1561.4z M1719.4,1548.2V1532
			c-5.8,2.3-10,4.4-12.6,6.3c-2.6,1.9-4,4.4-4,7.6c0,2.3,0.6,4,2,5.2c1.3,1.2,2.8,1.8,4.6,1.8c1.6,0,3.3-0.5,4.9-1.4
			C1716,1550.6,1717.7,1549.5,1719.4,1548.2z"/>
		<path class="st1" d="M1832.7,1564.8h-24.2v-35.5v-1.4c0-3.7-0.6-7-1.9-9.9c-1.2-2.8-3.9-4.2-8.1-4.2c-2,0-3.7,0.4-5.3,1.1
			c-1.5,0.7-2.8,1.7-4,2.9c-1.2,1.2-2.2,2.3-3,3.4c-0.8,1.1-1.6,2.2-2.5,3.4v40.2h-24.2v-68.5h24.2v9.9c3.8-4.1,7.7-7,11.5-8.6
			c3.8-1.6,8.1-2.5,12.8-2.5c16.4,0,24.7,9.8,24.7,29.5V1564.8z"/>
		<path class="st1" d="M1897.6,1544.8c0,6.3-2.3,11.4-6.9,15.3c-4.6,3.9-11.4,5.9-20.4,5.9c-5.1,0-9.6-0.5-13.5-1.4
			c-3.9-0.9-8.2-2.2-12.9-3.9v-17.2c4.1,2.3,7.6,4.1,10.6,5.3c3,1.2,6.3,1.8,9.9,1.8c6,0,9.1-1.7,9.1-5c0-1.1-0.4-2.1-1.3-3
			c-0.9-0.9-2.4-1.9-4.6-3c-2.2-1.1-5.1-2.4-8.7-3.9c-4.5-2-8.3-4.6-11.4-7.9c-3.1-3.3-4.7-7.4-4.7-12.2c0-3.4,1.1-6.7,3.1-9.8
			c2.1-3.1,5.3-5.7,9.5-7.7c4.2-2,9.3-3,15.2-3c1.4,0,3.3,0.1,5.5,0.3c2.2,0.2,5,0.8,8.4,1.6c3.4,0.9,6.6,2.1,9.6,3.6v16.8
			c-1.4-0.9-2.6-1.6-3.6-2.2c-1-0.6-2.3-1.2-3.9-1.9c-1.6-0.7-3.5-1.4-5.7-1.9c-2.2-0.6-4.4-0.8-6.7-0.8c-2.8,0-4.7,0.5-5.7,1.6
			c-1,1.1-1.5,2.2-1.5,3.2c0,1.1,0.5,2.2,1.6,3.1c1.1,0.9,3.5,2.2,7.2,3.6c5.4,2.1,9.7,4.2,12.9,6.3c3.2,2.2,5.6,4.6,6.9,7.2
			C1896.9,1538.2,1897.6,1541.3,1897.6,1544.8z"/>
		<path class="st1" d="M1978.8,1561.4c-3.5,1.4-6.8,2.5-9.8,3.4c-3,0.9-6.6,1.3-10.8,1.3c-4,0-6.8-0.7-8.3-2.1
			c-1.6-1.4-2.7-3.1-3.4-5.1c-2.6,2.1-5.5,3.8-8.7,5.2c-3.2,1.4-7.3,2.1-12.5,2.1c-5,0-9-0.9-12.1-2.6c-3.1-1.7-5.2-3.9-6.5-6.5
			c-1.2-2.6-1.9-5.3-1.9-8.1c0-4.2,1.1-7.7,3.2-10.5c2.1-2.8,5-5,8.6-6.8c3.6-1.7,8.3-3.6,14.3-5.5c3.3-1.1,5.9-1.9,7.6-2.5
			c1.7-0.6,3-1,3.9-1.3c0.9-0.3,1.7-0.7,2.7-1.2c0-3.3-0.7-5.9-2-7.8c-1.3-1.9-4.3-2.8-8.7-2.8c-5.3,0-10.2,1.2-14.8,3.5
			c-4.5,2.3-8.7,5.3-12.4,9v-18.6c3-2.2,6.2-3.9,9.7-5.3c3.5-1.4,7.1-2.4,11-3.1c3.8-0.6,7.7-1,11.6-1c9.9,0,17.4,1.9,22.4,5.8
			c5,3.8,7.5,9.1,7.5,15.8v26.4c0,2.5,0.2,4.4,0.7,5.6c0.5,1.2,1.3,1.9,2.6,1.9c1.5,0,3.6-0.6,6.2-1.9V1561.4z M1945.1,1548.2V1532
			c-5.7,2.3-10,4.4-12.6,6.3c-2.7,1.9-4,4.4-4,7.6c0,2.3,0.7,4,2,5.2c1.3,1.2,2.9,1.8,4.6,1.8c1.7,0,3.3-0.5,5-1.4
			C1941.7,1550.6,1943.4,1549.5,1945.1,1548.2z"/>
		<path class="st1" d="M2036.8,1544.8c0,6.3-2.3,11.4-6.9,15.3c-4.6,3.9-11.4,5.9-20.4,5.9c-5.1,0-9.6-0.5-13.5-1.4
			c-3.9-0.9-8.2-2.2-12.9-3.9v-17.2c4.1,2.3,7.6,4.1,10.6,5.3c3,1.2,6.3,1.8,9.9,1.8c6,0,9.1-1.7,9.1-5c0-1.1-0.4-2.1-1.3-3
			c-0.9-0.9-2.4-1.9-4.6-3c-2.2-1.1-5-2.4-8.7-3.9c-4.5-2-8.3-4.6-11.4-7.9c-3.2-3.3-4.7-7.4-4.7-12.2c0-3.4,1-6.7,3.1-9.8
			c2.1-3.1,5.2-5.7,9.5-7.7c4.2-2,9.3-3,15.2-3c1.4,0,3.2,0.1,5.5,0.3c2.2,0.2,5,0.8,8.4,1.6c3.4,0.9,6.6,2.1,9.6,3.6v16.8
			c-1.4-0.9-2.6-1.6-3.6-2.2c-0.9-0.6-2.3-1.2-3.9-1.9c-1.6-0.7-3.5-1.4-5.6-1.9c-2.2-0.6-4.4-0.8-6.7-0.8c-2.8,0-4.7,0.5-5.7,1.6
			c-1,1.1-1.5,2.2-1.5,3.2c0,1.1,0.5,2.2,1.6,3.1c1.1,0.9,3.5,2.2,7.2,3.6c5.4,2.1,9.7,4.2,12.9,6.3c3.2,2.2,5.5,4.6,6.9,7.2
			C2036.1,1538.2,2036.8,1541.3,2036.8,1544.8z"/>
	</g>
	<g>
		<rect x="1130.1" y="202.4" class="st2" width="156.7" height="511.8"/>
		<path class="st1" d="M1130.1,416c0,0,19.1-9.2,45.3-8.7c26.2,0.5,26.9,2,53.5-1.3c26.6-3.3,49.5-18.4,49.5-18.4
			c-1.7-5.5-4.2-12.5-7.8-20.3c-5.2-11.5-9.6-17.8-26.9-47.5c-3.7-6.4-6.9-12-9.2-20.3c-2.2-8-2.5-14.9-2.4-19.5
			c0.7-11.2,2.6-25.7,7.6-41.9c4.5-14.6,10.3-26.6,15.5-35.7l-125.1,0V416z"/>
		<g>
			<path class="st3" d="M1130.1,416v44.9c35.1-18.3,43.1-28.6,45.2-54.2C1158.1,406.3,1140.6,411.9,1130.1,416z"/>
			<path class="st3" d="M1217.6,714.6c0-0.2-0.7-131.9-18.3-158.8c-27.7-42.5,23.3-70.2,38.6-107.9c8.6-21.3,8.4-36,6.6-45.1
				c-8.7,2.6-19.4,4.2-32.6,4.8c-0.4,6.3-1.8,17.1-6.9,30c-15.4,38.8-74.8,69.1-58.2,118.4c11.7,34.8,6.9,155.8,6.8,158.7H1217.6z"
				/>
			<path class="st3" d="M1286.8,272.2v-39c-2,7.2-3.5,15-3.5,22.6C1283.2,261.5,1284.7,267,1286.8,272.2z"/>
			<path class="st3" d="M1277.5,202.4l-22.3,0c0,0-31.4,54.8-21,96c3.7,14.8,23.3,44.4,29.1,54.5c5.4,9.5,8.9,18,11,23.5
				c4.4,10.2,15.6,41.9,2.7,78.3c-13.5,38.6-45.2,50-8.9,92.6c7.3,8.6,13.4,20.4,18.5,34V328c-12.6-22-27.8-30.5-29.2-56.8
				C1256,241.2,1277.5,202.4,1277.5,202.4z"/>
		</g>
		<polygon class="st3" points="1166.5,234.4 1182.2,250.3 1206.3,250.5 1193.7,265.5 1203.5,283.8 1180,277.3 1162,288.4 
			1160.1,269.2 1139.1,257.9 1161.4,252.6 1166.5,234.4 		"/>
		<polygon class="st3" points="1212.7,208 1219.1,214.4 1228.9,214.5 1223.8,220.6 1227.8,228.1 1218.2,225.4 1210.9,229.9 
			1210.1,222.2 1201.6,217.5 1210.7,215.4 1212.7,208 		"/>
		<polygon class="st3" points="1175.5,310.3 1200.5,335.5 1238.7,335.8 1218.7,359.7 1234.4,388.7 1196.9,378.3 1168.4,396 
			1165.3,365.6 1132.1,347.5 1167.5,339.1 1175.5,310.3 		"/>
		<rect x="1106.5" y="714.6" class="st1" width="191.8" height="35.9"/>
		<path class="st1" d="M666.3,0h-39.3v750.9l503.1-0.4V173.9C851.2,162.9,666.3,0,666.3,0z M774.6,715.5h-76.2V270.3
			c30.7,22,76.2,41,76.2,41V715.5z M919.6,714.2h-89.3V331.8c35.1,17.6,89.3,30.7,89.3,30.7V714.2z M1078.6,714.2H973.7v-340
			c33.7,13.2,104.9,19,104.9,19V714.2z"/>
		<path class="st1" d="M1750.5,0c0,0-184.9,162.9-463.8,173.9v576.6l503.1,0.4V0H1750.5z M1443.2,714.2h-104.9V393.3
			c0,0,71.2-5.9,104.9-19V714.2z M1586.6,714.2h-89.3V362.5c0,0,54.2-13.2,89.3-30.7V714.2z M1718.4,715.5h-76.2V311.3
			c0,0,45.4-19,76.2-41V715.5z"/>
	</g>
</g>
<g>
</g>
<g>
</g>
<g>
</g>
<g>
</g>
<g>
</g>
<g>
</g>
</svg>
