<?xml version="1.0" encoding="utf-8"?>
<!-- Generator: Adobe Illustrator 26.4.1, SVG Export Plug-In . SVG Version: 6.00 Build 0)  -->
<svg version="1.1" id="Layer_1" xmlns="http://www.w3.org/2000/svg" xmlns:xlink="http://www.w3.org/1999/xlink" x="0px" y="0px"
	 viewBox="0 0 2400 2125" style="enable-background:new 0 0 2400 2125;" xml:space="preserve">
<style type="text/css">
	.st0{fill:#64676C;}
	.st1{fill:#C2203D;}
</style>
<g>
	<g>
		<path class="st0" d="M2324.2,1784.7v-182.2c0-11,0.6-21.1,0.9-29.4c-11.8,2.4-47.6,8.9-59.9,11.1l0.6,8.3l11.4,0.9
			c6.6,0.6,10.3,6,10.3,16.4v175c0,5.9-2.7,7.1-7.3,7.7l-12.6,1.8v9.8h76.2v-9.8l-12.3-1.8
			C2326.9,1791.9,2324.2,1790.7,2324.2,1784.7 M2155.9,1763.6c0-10.4,3-19.3,17.8-24.1l28-8.9l0.3,45.2c-10.5,6-18.3,9.8-25,9.8
			C2164,1785.6,2155.9,1776.4,2155.9,1763.6 M2209.8,1808.5l49.4-8l-0.6-8.6l-7.2-0.9c-9.6-1.2-13.5-6.2-13.5-16.3l-0.3-83.5
			c0-23.8-15-43.6-47.3-43.6c-28.3,0-63.8,22.6-63.8,45.4c0,5.7,1.5,11.6,4.8,15.7l29.8-11.9c-3.6-6.2-5.1-11.3-5.4-16.3
			c-0.3-8.9,6-16,19.9-16c14.7,0,25.9,12.2,25.9,26.2l0.3,26.4l-44.8,16.3c-22.3,8-35.3,20.8-35.3,40.7c0,19.3,12.6,35,38.8,35
			c13,0,28.9-12.1,42.7-22.2C2203.7,1794.2,2205.8,1802.6,2209.8,1808.5 M2111.3,1790.7l-3.3-8.9c-7.3,2.6-13.8,4.2-20.5,4.2
			c-9.6,0-17.2-3.9-16.8-23.8v-90.3h37.6v-17h-37.6v-39.8l-37,16.6v23.2h-21.4v17h21.4v95.1c0,19.9,9.4,39.5,37.6,39.5
			C2080.6,1806.4,2091.1,1802.2,2111.3,1790.7 M2009.3,1804v-9.8l-12.6-1.8c-4.5-0.6-7.2-1.8-7.2-7.7v-107.3
			c0-10.7,0.3-20.8,0.9-29.1c-11.7,2.7-47.5,9.5-59.6,11.9l0.6,8.6l11.1,0.9c7.5,0.6,10.3,6.5,10.3,16v98.9c0,5.9-2.7,7.1-7.2,7.7
			l-12.7,1.8v9.8H2009.3z M1993,1600.8c0-11.6-9.6-22.3-22.6-22.3c-13,0-22.6,10.7-22.6,22.3c0,11.6,9.6,22.2,22.6,22.2
			C1983.4,1623.1,1993,1612.4,1993,1600.8 M1843.4,1672.7c25,0,41.5,22.3,41.5,57c0,41.9-21,60.9-42.1,60.9
			c-9.9,0-18.4-3.3-25.9-9.2v-98.7C1823.8,1677.2,1833.5,1672.7,1843.4,1672.7 M1839.5,1867.6l-15.3-1.8c-4.5-0.6-7.2-1.8-7.2-7.7
			v-55.6c7.5,3.3,15.3,5.1,24.1,5.1c40.3,0,80.1-34.8,80.1-84.7c0-45.8-27.1-74.3-61.4-74.3c-16.5,0-32.2,8.9-43.9,20.5
			c-0.3-7.4-1.2-15.4-2.1-20.2l-55.4,11.3l0.6,8.6l8.4,0.9c9.1,0.9,13,6.2,13,16.3v172c0,6-2.7,7.1-7.3,7.7l-12.6,1.8v9.8h79.2
			V1867.6z M1748,1758c0-20.5-11.1-34.7-38.5-43.7l-19-6.2c-20.5-6.8-25.9-15.2-25.9-25.5c0-11.9,9-19.9,25-19.9
			c21.3,0,30.1,13.1,37.3,32.1h11.1l-0.3-36.8c-15.3-6.6-25.5-9.5-40.9-9.5c-33.4,0-58.1,20.8-58.1,48.4c0,22,12.6,35.1,41.3,44.3
			l16.5,5.4c18.7,5.9,22.9,15.1,22.9,26.1c0,12.5-9.6,23.2-28.6,23.2c-21.4,0-30.4-12.8-38.2-38.1h-12.9l2.1,41
			c7.5,4.2,25.3,10.1,44,10.1C1718.8,1808.8,1748,1790.7,1748,1758 M1584.5,1730.3c0,39.2-15,61.8-36.7,61.8
			c-23.2,0-40.1-25.6-40.1-66.3c0-38.9,14.5-61.8,36.7-61.8C1567.1,1664.1,1584.5,1689.9,1584.5,1730.3 M1470.7,1730.9
			c0,44.3,29.2,77,72.5,77c45.2,0,78.3-38.6,78.3-82.6c0-44-29.8-76.9-73.1-76.9C1503.3,1648.4,1470.7,1687.3,1470.7,1730.9
			 M1324.5,1793.6l-17.2-1.8c-4.8-0.6-7.8-2.4-7.8-9.5v-79.9h97.5v79.9c0,7.2-3,8.9-7.8,9.5l-17.2,1.8v10.4h90.6v-10.4l-17.1-1.8
			c-4.8-0.6-7.9-2.4-7.9-9.5v-176.5c0-7.1,3-8.9,7.9-9.5l17.1-1.8v-10.4H1372v10.4l17.2,1.8c4.8,0.6,7.8,2.4,7.8,9.5v79.6h-97.5
			v-79.6c0-7.1,3-8.9,7.8-9.5l17.2-1.8v-10.4h-90.6v10.4l17.2,1.8c4.8,0.6,7.8,2.4,7.8,9.5v176.5c0,7.2-3,8.9-7.8,9.5l-17.2,1.8
			v10.4h90.6V1793.6z M1079.5,1794.2l-13.9-1.8c-4.5-0.6-7.2-1.8-7.2-7.7v-98.9c7.2-6.3,18-11.6,28.6-11.6
			c17.8,0,26.8,10.4,26.8,25.3v85.3c0,5.9-3,7.1-7.2,7.7l-12.3,1.8v9.8h74.7v-9.8l-11.1-1.8c-4.5-0.6-7.2-1.8-7.2-7.7v-92.4
			c0-22.9-15-43.4-44.8-43.4c-16.9,0-34.3,9.2-47.3,23.5v-69.8c0-11,0.6-21.1,0.9-29.4c-11.8,2.4-47.6,8.9-59.9,11.1l0.6,8.3
			l11.4,0.9c6.6,0.6,10.2,6,10.2,16.4v175c0,5.9-2.7,7.1-7.2,7.7l-11.1,1.8v9.8h76.2V1794.2z M906.4,1716.1
			c0-35.4,17.5-50.8,37.3-50.8c15.9,0,26.5,6.2,37.6,28.8h10.5v-34.2c-11.4-6.6-22.9-11.6-43-11.6c-37,0-76.2,30-76.2,82
			c0,52.6,37.7,76.6,69.9,76.6c21.1,0,42.4-19.3,54.2-29.7l-6-7.4c-10.5,7.1-22.9,12.4-35.5,12.4
			C923.8,1782.3,906.4,1750.9,906.4,1716.1 M829.3,1794.2l-13.8-1.8c-4.2-0.6-7.2-1.8-7.2-7.7V1703c6.3-12.5,16.3-25,29.8-26.5
			c9.3-1.2,18,2.7,25.6,7.4l8.7-30.3c-6.6-5.3-16.2-8.3-27.1-7.2c-16.6,1.8-27.4,17.8-37.9,38.6c0-11.9-0.6-27.9-2.4-36.2
			l-55.4,11.3l0.6,8.6l9.9,0.9c8.1,0.6,11.5,6.2,11.5,16.3v98.7c0,5.9-2.7,7.1-7.2,7.7l-12.7,1.8v9.8h77.7V1794.2z M640,1763.6
			c0-10.4,3-19.3,17.7-24.1l28-8.9l0.3,45.2c-10.5,6-18.4,9.8-25,9.8C648.1,1785.6,640,1776.4,640,1763.6 M693.8,1808.5l49.4-8
			l-0.6-8.6l-7.2-0.9c-9.6-1.2-13.6-6.2-13.6-16.3l-0.3-83.5c0-23.8-15-43.6-47.2-43.6c-28.3,0-63.8,22.6-63.8,45.4
			c0,5.7,1.5,11.6,4.8,15.7l29.8-11.9c-3.6-6.2-5.1-11.3-5.4-16.3c-0.3-8.9,6-16,19.9-16c14.7,0,25.9,12.2,25.9,26.2l0.3,26.4
			l-44.9,16.3c-22.3,8-35.2,20.8-35.2,40.7c0,19.3,12.6,35,38.8,35c12.9,0,28.9-12.1,42.8-22.2
			C687.8,1794.2,689.9,1802.6,693.8,1808.5 M528,1663.8c11.7,0,28,8.3,31.6,40.1l-61.4,2.1C500.6,1678.9,513.2,1663.8,528,1663.8
			 M593.3,1777.9l-6.9-8.3c-12.3,7.1-24.4,12.8-37.9,12.8c-31,0-48.8-28.8-50.6-62.1h92.7v-9.2c0-35.9-22-62.7-57.8-62.7
			c-32.5,0-67.7,31.5-67.7,80.5c0,53.5,36.7,78.5,70.2,78.5C556.6,1807.3,581,1788.9,593.3,1777.9 M450,1758
			c0-20.5-11.1-34.7-38.5-43.7l-18.9-6.2c-20.5-6.8-25.9-15.2-25.9-25.5c0-11.9,9-19.9,25-19.9c21.4,0,30.1,13.1,37.3,32.1h11.1
			l-0.3-36.8c-15.3-6.6-25.6-9.5-40.9-9.5c-33.4,0-58.1,20.8-58.1,48.4c0,22,12.6,35.1,41.2,44.3l16.6,5.4
			c18.7,5.9,22.9,15.1,22.9,26.1c0,12.5-9.6,23.2-28.6,23.2c-21.4,0-30.4-12.8-38.2-38.1h-13l2.1,41c7.5,4.2,25.3,10.1,44,10.1
			C420.8,1808.8,450,1790.7,450,1758 M260.7,1663.8c11.7,0,28,8.3,31.6,40.1l-61.4,2.1C233.3,1678.9,245.9,1663.8,260.7,1663.8
			 M326,1777.9l-6.9-8.3c-12.3,7.1-24.4,12.8-37.9,12.8c-31,0-48.8-28.8-50.6-62.1h92.7v-9.2c0-35.9-22-62.7-57.8-62.7
			c-32.5,0-67.8,31.5-67.8,80.5c0,53.5,36.7,78.5,70.2,78.5C289.3,1807.3,313.7,1788.9,326,1777.9 M82.8,1689.9
			c-6.3,0-11.7-0.6-17.2-0.9v-89.1c7.5-0.9,15.3-0.9,22-0.9c25,0,40.9,16,40.9,45.4C128.5,1676,110.8,1690.2,82.8,1689.9
			 M205.9,1803.4l-0.3-7.7c-14.4-1.8-25-7.4-39.1-25c-16.9-20.2-31.6-47.8-43.1-69.5c27.1-7.7,45.2-31.8,45.2-58.5
			c0-33.3-26.8-60-72.3-60c-18,0-33.7,1.8-62,1.8c-10.5,0.3-22.8,0-34.3-0.3v10.4l17.1,1.8c4.8,0.6,7.8,3,7.8,8v178
			c0,7.2-3,8.9-7.8,9.5L0,1793.6v10.4h87.6v-10.4l-16-2.1c-3.9-0.6-6-2.4-6-6.5v-80.3c6.6,0,13.6,0.3,18,0.6
			c14.2,25.3,28.6,54.1,46.1,76.9c14.7,19.6,31.9,23.8,51.8,23.8C189,1806.1,198.3,1804.6,205.9,1803.4"/>
		<path class="st0" d="M2337.1,1442.8c0-20.5-11.1-34.8-38.5-43.7l-19-6.2c-20.5-6.8-25.9-15.2-25.9-25.6c0-11.9,9-19.9,25-19.9
			c21.3,0,30.1,13.1,37.3,32.1h11.1l-0.4-36.8c-15.3-6.6-25.6-9.5-40.9-9.5c-33.4,0-58.1,20.8-58.1,48.4c0,22,12.6,35.1,41.2,44.3
			l16.6,5.4c18.7,5.9,22.9,15.2,22.9,26.2c0,12.5-9.6,23.2-28.6,23.2c-21.4,0-30.4-12.8-38.3-38.1h-12.9l2.1,41
			c7.5,4.2,25.3,10.1,44,10.1C2307.9,1493.6,2337.1,1475.5,2337.1,1442.8 M2206.5,1318.6c0,9.2-6.9,17.5-17.8,26.7l6,5.3
			c20.8-15.1,37-33.3,37-56.7c0-15.8-10.8-24.4-22.3-24.4c-20.4,0-24.7,22.3-22,30.3C2198.9,1303.8,2206.5,1308.5,2206.5,1318.6
			 M2095.7,1479.1l-12.3-1.8c-4.2-0.6-7.2-1.8-7.2-7.7v-98.9c7.2-6.3,18-11.6,28.6-11.6c17.7,0,26.8,10.4,26.8,25.3v85.3
			c0,5.9-3,7.1-7.2,7.7l-12.3,1.8v9.8h76.2v-9.8l-12.7-1.8c-4.5-0.6-7.2-1.8-7.2-7.7v-92.4c0-22.9-15-43.4-46.1-43.4
			c-16.3,0-34,9.8-46.9,24.7c-0.3-8.6-1.2-19-2.4-24.7l-55.4,11.3l0.6,8.6l9.9,0.9c8.1,0.6,11.5,6.2,11.5,16.3v98.7
			c0,5.9-2.7,7.1-7.3,7.7l-12.6,1.8v9.8h76.2V1479.1z M1943,1348.6c11.8,0,28,8.3,31.6,40.1l-61.4,2.1
			C1915.7,1363.8,1928.3,1348.6,1943,1348.6 M2008.4,1462.7l-6.9-8.3c-12.3,7.1-24.4,12.7-37.9,12.7c-31,0-48.8-28.8-50.6-62.1h92.7
			v-9.2c0-36-22-62.7-57.8-62.7c-32.5,0-67.8,31.5-67.8,80.5c0,53.5,36.7,78.5,70.1,78.5C1971.7,1492.2,1996,1473.7,2008.4,1462.7
			 M1836.8,1479.1l-13.8-1.8c-4.2-0.6-7.2-1.8-7.2-7.7v-81.7c6.3-12.5,16.3-25,29.8-26.4c9.3-1.2,18,2.7,25.6,7.4l8.7-30.3
			c-6.6-5.3-16.3-8.3-27.1-7.1c-16.6,1.8-27.4,17.8-37.9,38.6c0-11.9-0.6-28-2.4-36.3l-55.4,11.3l0.6,8.6l9.9,0.9
			c8.1,0.6,11.4,6.2,11.4,16.3v98.7c0,5.9-2.7,7.1-7.2,7.7l-12.6,1.8v9.8h77.7V1479.1z M1624.9,1411.3c0-41.9,21.1-60.9,42.2-60.9
			c9.9,0,18.3,3.3,25.9,9.2v98.7c-6.9,5.6-16.6,10.1-26.5,10.1C1641.4,1468.4,1624.9,1446.1,1624.9,1411.3 M1752.5,1485.3l-0.6-8.6
			l-8.7-0.9c-9.6-0.9-13.5-6.2-13.5-16.3v-172.1c0-11,0.6-21.1,0.9-29.4l-61.4,11l0.6,8.3l12.9,0.9c6.6,0.6,10.2,6,10.2,16.4v44
			c-7.5-3.2-15.4-5-24.1-5c-40.4,0-80.1,34.8-80.1,84.7c0,45.7,27.1,74.3,61.4,74.3c16.6,0,32.5-9.2,44.2-20.8
			c0.6,7.4,2.4,16.1,5.1,21.7L1752.5,1485.3z M1556.8,1469.6v-182.2c0-11,0.6-21.1,0.9-29.4c-11.7,2.4-47.6,8.9-59.9,11l0.6,8.3
			l11.5,0.9c6.6,0.6,10.2,6,10.2,16.4v175c0,5.9-2.7,7.1-7.2,7.7l-12.7,1.8v9.8h76.1v-9.8l-12.3-1.8
			C1559.6,1476.7,1556.8,1475.5,1556.8,1469.6 M1490.7,1488.9v-9.8l-12.6-1.8c-4.6-0.6-7.3-1.8-7.3-7.7v-107.3
			c0-10.7,0.3-20.8,0.9-29.1c-11.8,2.7-47.6,9.5-59.6,11.9l0.6,8.6l11.1,0.9c7.5,0.6,10.2,6.5,10.2,16v98.9c0,5.9-2.7,7.1-7.2,7.7
			l-12.7,1.8v9.8H1490.7z M1474.4,1285.6c0-11.6-9.6-22.3-22.6-22.3c-12.9,0-22.6,10.7-22.6,22.3c0,11.6,9.6,22.3,22.6,22.3
			C1464.8,1307.9,1474.4,1297.2,1474.4,1285.6 M1313.3,1479.1l-13.8-1.8c-4.5-0.6-7.2-1.8-7.2-7.7v-98.9c7.2-6.3,18-11.6,28.6-11.6
			c17.8,0,26.8,10.4,26.8,25.3v85.3c0,5.9-3,7.1-7.2,7.7l-12.3,1.8v9.8h74.6v-9.8l-11.1-1.8c-4.5-0.6-7.2-1.8-7.2-7.7v-92.4
			c0-22.9-15-43.4-44.8-43.4c-16.9,0-34.3,9.2-47.3,23.5v-69.8c0-11,0.6-21.1,0.9-29.4c-11.7,2.4-47.6,8.9-59.9,11l0.6,8.3l11.4,0.9
			c6.6,0.6,10.2,6,10.2,16.4v175c0,5.9-2.7,7.1-7.2,7.7l-11.1,1.8v9.8h76.1V1479.1z M1216.4,1475.2l0.6-47.9h-13.8
			c-8.7,35.7-19.9,48.4-58.7,48.4c-45.1,0-77.4-37.7-78.6-97.2c-1.2-58.8,30.4-97.2,76.8-97.2c33.1,0,48.8,13.7,58.4,45.8h13.8
			l-0.9-47.2c-19-7.7-38.2-14.9-66.8-14.9c-75.3,0-126.8,50.5-126.8,116.5c0,64.5,47.6,111.4,122.2,111.4
			C1171.2,1493.1,1189,1487.7,1216.4,1475.2 M887.7,1348.6c11.8,0,28,8.3,31.6,40.1l-61.4,2.1
			C860.3,1363.8,872.9,1348.6,887.7,1348.6 M953,1462.7l-6.9-8.3c-12.3,7.1-24.4,12.7-37.9,12.7c-31,0-48.8-28.8-50.6-62.1h92.7
			v-9.2c0-36-22-62.7-57.8-62.7c-32.5,0-67.8,31.5-67.8,80.5c0,53.5,36.7,78.5,70.2,78.5C916.3,1492.2,940.7,1473.7,953,1462.7
			 M687.8,1411.3c0-41.9,21.1-60.9,42.1-60.9c9.9,0,18.3,3.3,25.9,9.2v98.7c-6.9,5.6-16.6,10.1-26.5,10.1
			C704.4,1468.4,687.8,1446.1,687.8,1411.3 M815.5,1485.3l-0.6-8.6l-8.7-0.9c-9.6-0.9-13.6-6.2-13.6-16.3v-172.1
			c0-11,0.6-21.1,0.9-29.4l-61.4,11l0.6,8.3l12.9,0.9c6.6,0.6,10.2,6,10.2,16.4v44c-7.5-3.2-15.3-5-24.1-5
			c-40.3,0-80.1,34.8-80.1,84.7c0,45.7,27.1,74.3,61.4,74.3c16.6,0,32.5-9.2,44.2-20.8c0.6,7.4,2.4,16.1,5.1,21.7L815.5,1485.3z
			 M590.9,1493.4l51.8-8l-0.6-8.6l-7.5-0.9c-9.6-1.2-13.6-6.2-13.6-16.3v-97.2c0-10.7,0.3-20.8,0.9-29.1l-59.6,11.9l0.6,8.6
			l11.1,0.9c7.5,0.6,10.2,6.5,10.2,16v88.8c-7.5,6-17.1,10.4-26.2,10.4c-17.8,0-26.8-11-26.8-26.7v-80.8c0-10.7,0.3-20.8,0.9-29.1
			l-59.6,11.9l0.6,8.6l11.1,0.9c7.5,0.6,10.2,6.5,10.2,16v83.2c0,20.5,15.4,40.4,43.7,40.4c15.7,0,34.3-10.1,47.5-22.9
			C586.4,1479.1,588.2,1487.4,590.9,1493.4 M447,1290.7c0-7.1,3-8.9,8.1-9.5l16.9-1.7V1269h-91.8v10.4l19,1.5
			c3.9,0.3,5.7,2.4,5.7,6.8v197.9c0,35.9-15,52.9-44.5,64.2l4.2,9.2c51.2-7.4,82.5-33.3,82.5-85.9V1290.7z M325.1,1469.9
			c0-11.3-9-21.4-21.7-21.4c-12.6,0-21.7,10.1-21.7,21.4c0,11.3,9,21.4,21.7,21.4C316.1,1491.3,325.1,1481.2,325.1,1469.9
			 M265.2,1475.5l-3.3-8.9c-7.2,2.7-13.9,4.1-20.4,4.1c-9.6,0-17.2-3.9-16.9-23.8v-90.3h37.6v-17h-37.6v-39.8l-37,16.6v23.2h-21.3
			v17h21.3v95.1c0,19.9,9.4,39.5,37.6,39.5C234.5,1491.3,245,1487.1,265.2,1475.5 M157.7,1424.4c0-28.5-11.1-48.1-54.2-62.1
			l-27.7-8.9c-25.6-8.3-34-20.5-34-37.8c0-20.8,15.3-33.3,39.1-33.3c23.8,0,39.7,10.1,49.4,42.5h12v-46
			c-18.1-8.3-35.2-13.4-56.6-13.4c-41.5,0-73.5,26.4-73.5,66.3c0,28.8,13.3,48.7,54.5,61.8l24.4,7.8c26.8,8.6,35.2,21.1,35.2,39.8
			c0,19.3-15.6,35.3-44.5,35.3c-30.7,0-44.8-11.3-54.5-46.3H13.6l0.3,49.3c25.3,9.8,42.4,13.4,64.4,13.4
			C122.2,1492.8,157.7,1465.4,157.7,1424.4"/>
		<g>
			<path class="st0" d="M2353.4,1248.5c-21.3,0-37.3-16.4-37.3-38.2c0-21.8,16-38.2,37.3-38.2c21.5,0,37.7,16.4,37.7,38.2
				C2391.1,1232.1,2374.9,1248.5,2353.4,1248.5 M2353.4,1164c-26,0-46.4,20.3-46.4,46.3c0,26,20.4,46.2,46.4,46.2
				c26.1,0,46.6-20.3,46.6-46.2C2400,1184.3,2379.5,1164,2353.4,1164"/>
			<path class="st0" d="M2354.3,1207.8h-8.7v-13.1h9.1c4.1,0,6.8,2.6,6.8,6.7C2361.6,1204.5,2359.3,1207.8,2354.3,1207.8
				 M2362.4,1212.1c4.8-2.6,7.6-6.7,7.6-11.3c0-7.5-5.3-12.4-13.5-12.4H2337v43.1h8.7v-17.7h8l10.3,17.7h9.4l-11.4-19.2
				L2362.4,1212.1z"/>
		</g>
	</g>
	<path class="st1" d="M1206.9,748.2c-1.3,3.8-5.2,4.1-5.2,4.1c-66.3,2.1-123,28.8-168.6,79.4c0,0-5.1,4.9-18-5.2
		c-9.9-7.7-6.2-15.8-6.2-15.8c17.6-44.2,62.8-73.3,134.4-86.6l2.1-0.3c14.7-2,48.7-6.7,60.3,16.2
		C1205.7,739.9,1208.2,744.3,1206.9,748.2 M1411.6,967.2l-0.4-0.5c25.3-36.5,60.2-83.4,72.7-92.1c0.9-0.4,1.5-0.7,2.5-1.1
		c37.7-2.2,58.9-15.3,64.4-19.3c7.1-5.1,28-25.3,31.4-29c3.6-3.8,14.4-28.3,18.8-38.6v0l-0.5,0.9l1.8-4.1l0.3-1.1l2.9-8.9
		c-0.1-2.7-1.6-5.1-3.9-6.4c-1.7-0.9-3.8-0.9-6-0.7c0.1-0.2,0.2-0.5,0.2-0.5c1.3-2.8,2.8-6.5,2.8-9.1v-0.6c-0.4-2.8-1.9-5.1-4.4-6.5
		c-2.5-1.4-5.8-1.3-9.3-0.5c-1.8-2.2-3.6-3.6-4.1-3.8c-0.7-0.5-4.9-2-12.5,2.6c-3,1.7-6,4.9-8.4,8c0.3-2.3,0.6-4.7,0.6-4.7
		c-0.7-2.5-2.6-4.6-5.1-5.6c-3.6-1.4-8.2-0.5-12.6,2.4c-4.8,3.3-11.3,13.4-13.2,16.5c-1.6,1.3-8,6.8-11.8,13.5
		c-12.3,4-20,3.7-23.2,2.5c7.5-4.3,13.4-8.4,16.6-12.2c7.3-8.8,11.4-18,11.4-25.5c0-1.3-0.1-2.5-0.3-3.7c-0.8-3.5-2.6-6.1-5.3-7.5
		c-7.4-3.7-16.2,3.8-17.9,5.3c-0.1,0.2-2.6,2.8-3.9,4.2c-2.8,0.7-8.6,2.4-12.5,5.8c-2.7,2.4-6,3.5-9.7,4.7
		c-4.6,1.5-9.7,3.3-14.7,7.6l-0.4,0.3c0.1-0.1,0.2-0.2,0.4-0.2c-0.9,0.6-9,6-11.5,7.7c-11.7,6.1-17.8,12.2-24.5,18.7
		c-13.1,13-29.5,29.1-102.9,53.4c-0.6-26.9-17.2-99.1-20.6-126.8c-6.8-48.8-63.4-116-104.1-158.5c38.4,22.3,59.9,25.4,81-3.4
		c5.6-8.7,14.4,0.7,22.4-0.9c11.6-6,10.1-9.3,10.1-17.7c3.4-9,12.5-4.6,19.3-5.7c17.1-2.8,6.9-20.8,13.6-29.8
		c75.2-4.5-9.6-73.6,41-102.2c32.9-15.4,45.4-35.8,60.1-55.6c12.1-16.3,14.6-3.6,23.7-17c16.4-58.9-11.9-131.6-48.3-181.6
		C1230.8-100,1017.7,10.7,955.6,159.3c-25.7,37.8-17.8,92.7-19.2,137.8c-4.8,15.7-14.3,15.3-27.8,6c-3.1,31.1,21.3,37.3,32.1,39.4
		c1.1,4,8.2,10,11.2,14.2c-9.7,2.8-30.1-2.8-36.7-6.4c-0.3,7,0.6,12.8,6.3,19.3c4.5,22.2,15.7,30,31.8,36.6
		c29.9,12.1,15.9,53.2,12.4,70c-1.1,3.7-2.2,7.4-3.2,11c-27.7,7.1-46.1,32.1-53.5,58.1c-3.4,63-35.9,115.3-35.3,180.5
		c0,0-0.6,9.5,0,13.4c16.1,70.5-4.5,163-1.1,235.7c-235.3,35.1-451.7,110.7-636.3,217.1c273.7-110.1,593.1-173.5,934.4-173.5
		c341.3,0,660.7,63.4,934.4,173.5C1905.6,1077,1669,997.9,1411.6,967.2"/>
	<path class="st1" d="M102.8,2089.8v-49.5h44.9v-11.4h-44.9v-35.4h58.6v-11.1H89.6v107.4H102.8z M187.1,1995.9
		c4.8,0,8.7-3.7,8.7-8.4c0-4.7-3.9-8.6-8.7-8.6c-4.6,0-8.5,3.9-8.5,8.6C178.6,1992.2,182.5,1995.9,187.1,1995.9 M193.4,2010.5h-12.3
		v79.3h12.3V2010.5z M256,2019.8c11.2,0,19,6.9,19,20.3v49.7h12.4v-52.2c0-17-11.2-28.8-28.8-28.8c-10.1,0-19.2,3.8-26,10.7
		l-0.1-9.1h-12.1v79.3h12.3v-59.5C239.9,2022.8,248.4,2019.8,256,2019.8 M371.7,2089.8h12.3v-111.7h-12.4v39.1
		c-6.4-5.5-14.8-8.4-24.3-8.4c-22.1,0.1-38.6,17.9-38.6,41.3c0,23.3,16.4,41.4,38.6,41.4c9.5,0,18-3.5,24.3-9.7L371.7,2089.8z
		 M321.5,2050.1c0-17.5,11-30.2,27.2-30.2c8.8,0,16.8,3.7,22.8,10.9v38.9c-5.9,7.1-13.8,10.6-22.8,10.6
		C332.5,2080.3,321.5,2067.2,321.5,2050.1 M417.2,1995.9c4.8,0,8.7-3.7,8.7-8.4c0-4.7-3.9-8.6-8.7-8.6c-4.6,0-8.5,3.9-8.5,8.6
		C408.6,1992.2,412.6,1995.9,417.2,1995.9 M423.4,2010.5h-12.3v79.3h12.3V2010.5z M486.1,2019.8c11.2,0,18.9,6.9,18.9,20.3v49.7
		h12.4v-52.2c0-17-11.2-28.8-28.8-28.8c-10.1,0-19.2,3.8-25.9,10.7l-0.1-9.1h-12.1v79.3h12.3v-59.5
		C469.9,2022.8,478.5,2019.8,486.1,2019.8 M613.2,2085.5v-75h-12.1v6.9c-6.4-5.5-14.8-8.5-24.3-8.5c-21.9,0.1-38.1,17.9-38.1,40.8
		c0,23.2,16,41.3,37.9,41.3c9.5,0,17.9-3.5,24.1-9.6v4.3c0,16.6-10,27.8-26.3,27.8c-10.9,0-19.1-4.5-25-13.2l-9.8,7.2
		c7.3,9.8,17.9,17,35.1,17C599.8,2124.3,613.2,2108.5,613.2,2085.5 M551.5,2049.6c0-17,10.7-29.8,26.7-29.8
		c8.7,0,16.5,3.7,22.5,10.9v38.4c-5.9,7-13.7,10.6-22.5,10.6C562.3,2079.7,551.5,2066.6,551.5,2049.6 M712.8,2008.8
		c-22.5,0-39,17.5-39,41.3c0,23.9,16.6,41.5,39.2,41.5c15.6,0,27.1-8.6,33.3-21l-10.9-4.7c-4.8,8.9-10.6,14.5-23.1,14.5
		c-14.6,0-25.5-12.3-25.5-30.4c0-17.5,10.9-30.1,25.6-30.1c12.2,0,18.4,6.1,22.7,14.7l11.2-4.9
		C739.9,2016.6,728.4,2008.8,712.8,2008.8 M819,2089.8h12.3v-79.3h-12.4v59.8c-7,7.2-15.4,10.1-23,10.1c-11.2,0-19.1-6.9-19.1-20.2
		v-49.7h-12.3v52.2c0,17,11,29,28.7,29c9.8,0,19-3.6,25.6-10.3L819,2089.8z M901.9,2020.6l-0.5-11.8c-12.6-0.2-23.9,5-30.8,15.9
		l-0.1-14.3h-12.1v79.3h12.3v-52.2C876.4,2026.1,890.1,2020.3,901.9,2020.6 M983.9,2073.4l-9.8-5.5c-5.8,8.6-13.8,12.9-24,12.9
		c-14.1,0-25.2-11.5-26.5-27.2h61.5c0.2-1.7,0.2-3.1,0.2-4.7c0-20.6-11.8-40-36.8-40c-20.5,0-37.6,16.4-37.6,41.3
		c0,24.1,17.8,41.5,39.6,41.5C964.2,2091.6,976.6,2085.2,983.9,2073.4 M948.2,2019.4c14,0,23,10.4,23.9,24.1h-48.2
		C926.3,2028.9,936.1,2019.4,948.2,2019.4 M997.5,2078.6c9.5,8.6,19.4,13,32,13c16.8,0,29.2-8.9,29.2-23.8c0-10.7-5.2-17-20.5-21.8
		l-14.1-4.4c-7.6-2.3-11.7-5.5-11.7-11.7c0-6.6,5.3-11.2,14.3-11.2c8.5,0,15.8,4,21.9,10.9l8.7-7.5c-8.7-8.6-17.4-13.3-29.9-13.3
		c-14.9,0-27.1,8-27.1,22.2c0,10.3,6.2,17.8,19.9,21.8l14.7,4.1c8.1,2.5,11.8,6,11.8,12.2c0,7.2-6.2,12.4-17.1,12.4
		c-7.5,0-15.1-2.6-23.8-10.5L997.5,2078.6z M1084,2074.3c-4.5,0-8.2,3.7-8.2,8.1c0,4.5,3.7,8.1,8.2,8.1c4.5,0,8.2-3.7,8.2-8.1
		C1092.2,2078,1088.5,2074.3,1084,2074.3 M1182.9,2091.3c22.8,0,38.1-13.5,38.1-31.4c0-12.9-6.1-21.3-25.5-27.5l-18.6-6.1
		c-12.4-4-18.4-9-18.4-17.9c0-9.8,8.4-16.7,21.9-16.7c11,0,21.6,5.1,28.4,13.9l9.8-7.5c-7.6-9.5-20.4-17.2-38.1-17.2
		c-20.5,0-34.8,11.3-34.8,29.3c0,13,8.2,21.9,24.7,27.1l19.3,6c14.8,4.6,18.4,10.4,18.4,17.9c0,11.2-10,19.5-25.3,19.5
		c-13.2,0-23.7-5.5-32-14l-8.9,8.1C1151.7,2085.2,1166.1,2091.3,1182.9,2091.3 M1290.7,2089.8h12.3v-51.5
		c0-18.1-10.9-29.3-30.8-29.3c-20.7,0-31.2,12.3-32.2,25.5l12,1.7c0.9-10.1,7.6-16.6,19.6-16.6c11.8,0,18.9,7.1,18.9,18.7v3.5
		l-23.8,4.2c-20.6,3.7-28.3,11-28.3,24.5c0,12.1,10,21,25.2,21c10.3,0,20.2-4.8,27.1-11.8V2089.8z M1251.1,2069.2
		c0-7.8,5.1-11.7,22.7-15l16.8-2.9v18.1c-6.4,6.9-14.8,11.8-24.9,11.8C1256.7,2081.2,1251.1,2076.6,1251.1,2069.2 M1392.1,2010.5
		h-12.8l-21.3,55.9l-3.6,10.1l-3.7-10.1l-21.3-55.9h-13.4l31.1,79.3h14L1392.1,2010.5z M1414.9,1995.9c4.8,0,8.7-3.7,8.7-8.4
		c0-4.7-3.9-8.6-8.7-8.6c-4.7,0-8.5,3.9-8.5,8.6C1406.3,1992.2,1410.2,1995.9,1414.9,1995.9 M1421.1,2010.5h-12.3v79.3h12.3V2010.5z
		 M1483.8,2019.8c11.2,0,19,6.9,19,20.3v49.7h12.4v-52.2c0-17-11.2-28.8-28.8-28.8c-10.1,0-19.3,3.8-25.9,10.7l-0.2-9.1h-12.1v79.3
		h12.3v-59.5C1467.6,2022.8,1476.1,2019.8,1483.8,2019.8 M1610.9,2085.5v-75h-12.2v6.9c-6.4-5.5-14.7-8.5-24.2-8.5
		c-21.9,0.1-38.1,17.9-38.1,40.8c0,23.2,16,41.3,37.9,41.3c9.5,0,17.9-3.5,24.1-9.6v4.3c0,16.6-10,27.8-26.3,27.8
		c-10.9,0-19.1-4.5-25-13.2l-9.8,7.2c7.3,9.8,17.9,17,35.1,17C1597.6,2124.3,1610.9,2108.5,1610.9,2085.5 M1549.2,2049.6
		c0-17,10.7-29.8,26.7-29.8c8.7,0,16.5,3.7,22.6,10.9v38.4c-5.9,7-13.7,10.6-22.6,10.6C1560,2079.7,1549.2,2066.6,1549.2,2049.6
		 M1710.5,2008.8c-22.6,0-39,17.5-39,41.3c0,23.9,16.6,41.5,39.1,41.5c15.5,0,27-8.6,33.3-21l-10.9-4.7
		c-4.8,8.9-10.5,14.5-23.1,14.5c-14.6,0-25.5-12.3-25.5-30.4c0-17.5,10.9-30.1,25.7-30.1c12.1,0,18.3,6.1,22.7,14.7l11.2-4.9
		C1737.6,2016.6,1726.1,2008.8,1710.5,2008.8 M1798.4,2019.8c11.2,0,19,6.9,19,20.3v49.7h12.4v-52.2c0-17-11.2-28.8-28.8-28.8
		c-10.1,0-19.3,3.8-25.9,10.6v-41.3h-12.3v111.7h12.3v-59.5C1782.2,2022.8,1790.8,2019.8,1798.4,2019.8 M1862.7,1995.9
		c4.8,0,8.7-3.7,8.7-8.4c0-4.7-3.9-8.6-8.7-8.6c-4.7,0-8.5,3.9-8.5,8.6C1854.2,1992.2,1858,1995.9,1862.7,1995.9 M1868.9,2010.5
		h-12.3v79.3h12.3V2010.5z M1895.9,2089.8h12.4v-111.7h-12.4V2089.8z M1992.8,2089.8h12.3v-111.7h-12.4v39.1
		c-6.4-5.5-14.8-8.4-24.2-8.4c-22.1,0.1-38.6,17.9-38.6,41.3c0,23.3,16.3,41.4,38.6,41.4c9.5,0,18-3.5,24.2-9.7L1992.8,2089.8z
		 M1942.6,2050.1c0-17.5,11.1-30.2,27.2-30.2c8.8,0,16.8,3.7,22.8,10.9v38.9c-5.9,7.1-13.9,10.6-22.8,10.6
		C1953.7,2080.3,1942.6,2067.2,1942.6,2050.1 M2075.7,2020.6l-0.5-11.8c-12.6-0.2-24,5-30.8,15.9l-0.1-14.3h-12.1v79.3h12.2v-52.2
		C2050.2,2026.1,2063.8,2020.3,2075.7,2020.6 M2157.7,2073.4l-9.8-5.5c-5.8,8.6-13.8,12.9-23.9,12.9c-14.1,0-25.2-11.5-26.5-27.2
		h61.5c0.1-1.7,0.1-3.1,0.1-4.7c0-20.6-11.8-40-36.8-40c-20.5,0-37.6,16.4-37.6,41.3c0,24.1,17.8,41.5,39.6,41.5
		C2138,2091.6,2150.4,2085.2,2157.7,2073.4 M2122,2019.4c14,0,23,10.4,23.9,24.1h-48.2C2100,2028.9,2109.8,2019.4,2122,2019.4
		 M2216.5,2019.8c11.2,0,19,6.9,19,20.3v49.7h12.4v-52.2c0-17-11.2-28.8-28.8-28.8c-10.1,0-19.3,3.8-25.9,10.7l-0.2-9.1H2181v79.3
		h12.3v-59.5C2200.4,2022.8,2208.9,2019.8,2216.5,2019.8 M2279.2,2074.3c-4.5,0-8.2,3.7-8.2,8.1c0,4.5,3.8,8.1,8.2,8.1
		c4.5,0,8.2-3.7,8.2-8.1C2287.4,2078,2283.7,2074.3,2279.2,2074.3"/>
</g>
</svg>
