<?xml version="1.0" encoding="UTF-8"?><svg id="uuid-3ba0f380-ddff-4f3d-a91a-b478fe275e37" xmlns="http://www.w3.org/2000/svg" viewBox="0 0 1280 268.051"><defs><style>.uuid-76efe190-77c6-4f91-8921-6cbe59f5273d{fill:#005480;}.uuid-76efe190-77c6-4f91-8921-6cbe59f5273d,.uuid-b60259ef-be93-4b17-ae2c-5a7147f92c1d{stroke-width:0px;}.uuid-b60259ef-be93-4b17-ae2c-5a7147f92c1d{fill:#00a9a5;}</style></defs><path class="uuid-b60259ef-be93-4b17-ae2c-5a7147f92c1d" d="M1.194,174.8l25.782-30.798c16.472,13.134,34.861,20.054,54.197,20.054,12.41,0,19.099-4.293,19.099-11.456v-.481c0-6.92-5.491-10.745-28.172-15.992-35.572-8.118-63.026-18.144-63.026-52.525v-.481c0-31.035,24.59-53.473,64.698-53.473,28.409,0,50.609,7.637,68.753,22.2l-23.155,32.708c-15.281-10.745-31.99-16.472-46.797-16.472-11.219,0-16.709,4.773-16.709,10.745v.474c0,7.643,5.728,10.981,28.889,16.235,38.436,8.355,62.308,20.771,62.308,52.044v.481c0,34.136-26.98,54.427-67.562,54.427-29.607,0-57.772-9.309-78.306-27.691"/><path class="uuid-b60259ef-be93-4b17-ae2c-5a7147f92c1d" d="M151.139,135.645v-.474c0-37.724,26.973-67.561,65.172-67.561,44.644,0,65.178,32.707,65.178,70.662,0,2.864,0,6.208-.244,9.309h-86.417c3.575,14.089,13.845,21.252,27.928,21.252,10.744,0,19.336-4.062,28.652-13.135l25.064,20.772c-12.417,15.755-30.318,26.262-56.1,26.262-40.588,0-69.234-26.98-69.234-67.088M238.992,124.426c-1.672-14.326-10.027-23.398-22.444-23.398-11.936,0-20.054,9.316-22.437,23.398h44.881Z"/><polygon class="uuid-b60259ef-be93-4b17-ae2c-5a7147f92c1d" points="268.396 70.472 316.14 70.472 340.974 145.914 365.801 70.472 412.828 70.472 361.265 200.585 319.959 200.585 268.396 70.472"/><path class="uuid-b60259ef-be93-4b17-ae2c-5a7147f92c1d" d="M400.2,135.645v-.474c0-37.724,26.973-67.561,65.172-67.561,44.644,0,65.172,32.707,65.172,70.662,0,2.864,0,6.208-.237,9.309h-86.417c3.582,14.089,13.845,21.252,27.928,21.252,10.744,0,19.336-4.062,28.652-13.135l25.064,20.772c-12.41,15.755-30.318,26.262-56.1,26.262-40.588,0-69.234-26.98-69.234-67.088M488.052,124.426c-1.672-14.326-10.027-23.398-22.444-23.398-11.936,0-20.054,9.316-22.437,23.398h44.881Z"/><path class="uuid-b60259ef-be93-4b17-ae2c-5a7147f92c1d" d="M537.248,70.472h45.361s0,18.145,0,18.145c8.348-10.745,20.291-21.009,38.672-21.009,27.461,0,43.933,18.145,43.933,47.508v84.515s-45.361,0-45.361,0v-69.952c0-14.083-7.407-21.726-18.145-21.726-10.988,0-19.099,7.643-19.099,21.726v69.952s-45.361,0-45.361,0V70.472Z"/><path class="uuid-b60259ef-be93-4b17-ae2c-5a7147f92c1d" d="M673.474,33.451h64.461c59.681,0,94.298,34.38,94.298,82.599v.481c0,48.226-35.098,84.034-95.259,84.034h-63.5s0-167.114,0-167.114ZM738.646,159.502c27.697,0,46.079-15.281,46.079-42.254v-.481c0-26.736-18.382-42.254-46.079-42.254h-18.856s0,84.989,0,84.989h18.856Z"/><path class="uuid-b60259ef-be93-4b17-ae2c-5a7147f92c1d" d="M830.848,163.563v-.481c0-26.736,20.291-40.582,50.615-40.582,11.936,0,23.629,2.384,31.035,5.01v-2.146c0-13.371-8.361-21.009-25.788-21.009-13.602,0-24.109,2.627-35.572,7.163l-9.309-31.99c14.563-5.971,30.08-10.027,52.287-10.027,23.155,0,38.909,5.491,49.173,15.755,9.79,9.546,13.852,22.918,13.852,41.062v74.244s-44.887,0-44.887,0v-13.365c-8.836,9.784-21.009,16.229-37.955,16.229-24.59,0-43.452-14.083-43.452-39.864M912.973,153.772v-5.964c-4.536-1.916-10.982-3.344-17.664-3.344-13.134,0-20.771,6.445-20.771,15.991v.481c0,8.836,6.682,14.083,15.998,14.083,13.128,0,22.437-8.355,22.437-21.246"/><path class="uuid-b60259ef-be93-4b17-ae2c-5a7147f92c1d" d="M1100.693,184.33l16.946-27.454c14.807,9.79,31.035,14.8,44.407,14.8,7.881,0,11.462-2.383,11.462-6.926v-.474c0-5.01-7.163-7.163-20.772-10.982-25.545-6.682-45.835-15.281-45.835-41.299v-.481c0-27.454,21.963-42.734,51.8-42.734,18.862,0,38.436,5.491,53.242,15.044l-15.518,28.646c-13.371-7.4-27.934-11.936-38.205-11.936-6.92,0-10.501,2.627-10.501,6.208v.474c0,5.017,7.4,7.407,21.009,11.462,25.551,7.163,45.842,15.998,45.842,41.062v.481c0,28.409-21.246,43.209-52.762,43.209-21.726,0-43.215-6.208-61.116-19.099"/><path class="uuid-b60259ef-be93-4b17-ae2c-5a7147f92c1d" d="M1061.941,71.408l-30.002,94.673-32.188-94.673h-49.733s56.409,141.306,56.409,141.306c-3.193,4.523-6.65,5.853-11.706,5.853-5.59,0-14.102-2.93-22.088-7.716l-15.696,35.387c13.299,7.452,28.468,12.509,46.296,12.509,28.745,0,42.313-13.306,54.822-46.836l52.689-140.502h-48.805Z"/><path class="uuid-76efe190-77c6-4f91-8921-6cbe59f5273d" d="M1221.761,88.278c-16.565,0-30.042-13.477-30.042-30.041,0-16.564,13.477-30.041,30.042-30.041,16.564,0,30.041,13.477,30.041,30.041,0,16.564-13.477,30.041-30.041,30.041M1221.761,32.738c-14.056,0-25.499,11.436-25.499,25.499,0,14.063,11.443,25.498,25.499,25.498,14.056,0,25.498-11.436,25.498-25.499,0-14.063-11.443-25.499-25.499-25.499"/><path class="uuid-76efe190-77c6-4f91-8921-6cbe59f5273d" d="M1221.761,97.662c-21.739,0-39.423-17.684-39.423-39.423,0-21.739,17.684-39.429,39.423-39.429,21.739,0,39.429,17.69,39.429,39.429,0,21.739-17.69,39.423-39.429,39.423M1221.761,23.352c-19.231,0-34.881,15.65-34.881,34.887,0,19.231,15.65,34.881,34.881,34.881,19.237,0,34.88-15.65,34.88-34.881,0-19.237-15.643-34.887-34.88-34.887"/><path class="uuid-76efe190-77c6-4f91-8921-6cbe59f5273d" d="M1221.761,107.065c-26.927,0-48.825-21.904-48.825-48.831,0-26.921,21.897-48.824,48.825-48.824,26.927,0,48.831,21.904,48.831,48.824,0,26.927-21.904,48.831-48.831,48.831M1221.761,13.952c-24.419,0-44.282,19.863-44.282,44.282,0,24.426,19.863,44.288,44.282,44.288,24.419,0,44.282-19.863,44.282-44.288,0-24.419-19.863-44.282-44.282-44.282"/><path class="uuid-76efe190-77c6-4f91-8921-6cbe59f5273d" d="M1221.761,116.472c-32.109,0-58.239-26.124-58.239-58.233,0-32.115,26.131-58.239,58.239-58.239,32.115,0,58.239,26.124,58.239,58.239,0,32.109-26.124,58.233-58.239,58.233M1221.761,4.542c-29.607,0-53.69,24.083-53.69,53.697,0,29.607,24.083,53.69,53.69,53.69,29.606,0,53.696-24.083,53.696-53.69,0-29.613-24.09-53.697-53.696-53.697"/><path class="uuid-76efe190-77c6-4f91-8921-6cbe59f5273d" d="M3.969,259.757v-33.097h7.848l8.678,13.987,8.724-13.987h7.847v33.097h-7.247v-21.603l-9.324,14.125h-.185l-9.186-13.986v21.464H3.969Z"/><path class="uuid-76efe190-77c6-4f91-8921-6cbe59f5273d" d="M42.144,259.757l14.171-33.328h6.693l14.172,33.328h-7.57l-3.047-7.432h-13.987l-3.046,7.432h-7.386ZM55.161,245.909h8.817l-4.432-10.709-4.385,10.709Z"/><path class="uuid-76efe190-77c6-4f91-8921-6cbe59f5273d" d="M82.256,259.757v-33.097h7.294v14.495l13.433-14.495h8.771l-13.479,14.033,14.079,19.064h-8.725l-10.248-14.079-3.831,3.969v10.11h-7.294Z"/><path class="uuid-76efe190-77c6-4f91-8921-6cbe59f5273d" d="M116.74,259.757v-33.097h24.973v6.463h-17.727v6.739h15.603v6.462h-15.603v6.97h17.957v6.463h-25.203Z"/><path class="uuid-76efe190-77c6-4f91-8921-6cbe59f5273d" d="M159.761,259.757l14.17-33.328h6.693l14.172,33.328h-7.57l-3.047-7.432h-13.986l-3.047,7.432h-7.385ZM172.778,245.909h8.816l-4.432-10.709-4.385,10.709Z"/><path class="uuid-76efe190-77c6-4f91-8921-6cbe59f5273d" d="M214.044,259.757v-33.097h15.141c4.186.031,7.401,1.154,9.648,3.37,1.876,1.908,2.815,4.432,2.815,7.57v.092c0,4.616-2.001,7.879-6.001,9.785-.369.185-.738.34-1.107.462l8.124,11.818h-8.54l-7.062-10.572h-5.724v10.572h-7.294ZM221.338,242.724h7.339c2.678,0,4.416-.924,5.217-2.77.246-.585.369-1.216.369-1.894v-.092c0-2.646-1.4-4.185-4.2-4.616-.493-.062-1.001-.092-1.523-.092h-7.201v9.463Z"/><path class="uuid-76efe190-77c6-4f91-8921-6cbe59f5273d" d="M248.527,259.757v-33.097h7.293v33.097h-7.293Z"/><path class="uuid-76efe190-77c6-4f91-8921-6cbe59f5273d" d="M264.083,259.757v-33.097h13.525c4.738,0,8.231,1.508,10.479,4.523,1.446,1.939,2.17,4.247,2.17,6.925v.092c0,4.401-1.785,7.633-5.354,9.693-2.247,1.292-4.909,1.938-7.986,1.938h-5.539v9.925h-7.294ZM271.376,243.37h5.77c2.523,0,4.263-.892,5.217-2.677.369-.738.554-1.523.554-2.354v-.092c0-2.616-1.293-4.201-3.878-4.755-.646-.153-1.323-.23-2.03-.23h-5.632v10.108Z"/><path class="uuid-76efe190-77c6-4f91-8921-6cbe59f5273d" d="M295.656,259.757v-33.097h13.525c4.738,0,8.231,1.508,10.479,4.523,1.446,1.939,2.17,4.247,2.17,6.925v.092c0,4.401-1.785,7.633-5.354,9.693-2.247,1.292-4.909,1.938-7.986,1.938h-5.539v9.925h-7.294ZM302.95,243.37h5.77c2.523,0,4.263-.892,5.217-2.677.369-.738.554-1.523.554-2.354v-.092c0-2.616-1.293-4.201-3.878-4.755-.646-.153-1.323-.23-2.03-.23h-5.632v10.108Z"/><path class="uuid-76efe190-77c6-4f91-8921-6cbe59f5273d" d="M327.23,259.757v-33.097h7.294v26.497h16.479v6.601h-23.772Z"/><path class="uuid-76efe190-77c6-4f91-8921-6cbe59f5273d" d="M356.449,259.757v-33.097h24.974v6.463h-17.727v6.739h15.603v6.462h-15.603v6.97h17.956v6.463h-25.203Z"/><path class="uuid-76efe190-77c6-4f91-8921-6cbe59f5273d" d="M385.992,267.42l-.601-3.001c3.077-.308,4.616-1.678,4.616-4.108v-.554h-2.954v-7.57h7.663v6.37c0,5.047-2.14,7.939-6.417,8.679-.738.092-1.508.153-2.308.185Z"/><path class="uuid-76efe190-77c6-4f91-8921-6cbe59f5273d" d="M431.275,260.311c-4.801,0-8.832-1.631-12.094-4.893-3.201-3.354-4.832-7.386-4.893-12.094v-.092c0-4.709,1.553-8.693,4.662-11.956,3.385-3.416,7.584-5.139,12.601-5.17,4.894,0,8.955,1.431,12.187,4.293.308.276.601.554.877.831l-4.662,5.309c-2.739-2.493-5.555-3.739-8.447-3.739-3.108,0-5.602,1.246-7.478,3.739-1.416,1.908-2.123,4.108-2.123,6.601v.093c0,3.292,1.107,5.953,3.322,7.985,1.755,1.601,3.847,2.4,6.278,2.4,2.646,0,5.093-.907,7.34-2.724.431-.338.877-.723,1.339-1.153l4.662,4.663c-2.862,3.047-6.048,4.893-9.556,5.539-1.263.246-2.601.369-4.016.369Z"/><path class="uuid-76efe190-77c6-4f91-8921-6cbe59f5273d" d="M450.616,259.757v-33.097h7.294v13.109h13.432v-13.109h7.247v33.097h-7.247v-13.295h-13.432v13.295h-7.294Z"/><path class="uuid-76efe190-77c6-4f91-8921-6cbe59f5273d" d="M483.713,259.757l14.171-33.328h6.693l14.171,33.328h-7.569l-3.047-7.432h-13.986l-3.047,7.432h-7.386ZM496.731,245.909h8.816l-4.432-10.709-4.385,10.709Z"/><path class="uuid-76efe190-77c6-4f91-8921-6cbe59f5273d" d="M523.826,259.757v-33.097h6.693l15.511,20.402v-20.402h7.201v33.097h-6.186l-16.019-21.049v21.049h-7.201Z"/><path class="uuid-76efe190-77c6-4f91-8921-6cbe59f5273d" d="M577.048,260.311c-5.293,0-9.586-1.708-12.879-5.124-3.017-3.2-4.523-7.155-4.523-11.863v-.092c0-4.616,1.553-8.57,4.662-11.864,3.231-3.354,7.262-5.107,12.094-5.262h.601c4.492,0,8.293,1.093,11.401,3.277.554.4,1.092.815,1.616,1.246l-4.616,5.539c-2.216-1.846-4.417-2.923-6.602-3.23-.646-.093-1.323-.139-2.031-.139-2.861,0-5.247,1.17-7.154,3.508-1.569,2.001-2.354,4.278-2.354,6.832v.093c0,3.507,1.215,6.262,3.646,8.262,1.784,1.477,3.908,2.216,6.37,2.216,2.771-.03,5.062-.692,6.878-1.985v-4.708h-7.339v-6.323h14.355v14.402c-4.186,3.478-8.894,5.216-14.125,5.216Z"/><path class="uuid-76efe190-77c6-4f91-8921-6cbe59f5273d" d="M598.144,259.757v-33.097h24.973v6.463h-17.727v6.739h15.603v6.462h-15.603v6.97h17.957v6.463h-25.203Z"/><path class="uuid-76efe190-77c6-4f91-8921-6cbe59f5273d" d="M651.69,259.757v-26.358h-10.062v-6.739h27.419v6.739h-10.062v26.358h-7.294Z"/><path class="uuid-76efe190-77c6-4f91-8921-6cbe59f5273d" d="M674.586,259.757v-33.097h7.294v13.109h13.432v-13.109h7.247v33.097h-7.247v-13.295h-13.432v13.295h-7.294Z"/><path class="uuid-76efe190-77c6-4f91-8921-6cbe59f5273d" d="M710.498,259.757v-33.097h24.973v6.463h-17.726v6.739h15.602v6.462h-15.602v6.97h17.956v6.463h-25.203Z"/><path class="uuid-76efe190-77c6-4f91-8921-6cbe59f5273d" d="M765.061,259.987l-11.264-33.328h7.802l6.832,22.434,7.431-22.526h6.231l7.433,22.526,6.832-22.434h7.616l-11.31,33.328h-6.324l-7.479-21.649-7.431,21.649h-6.37Z"/><path class="uuid-76efe190-77c6-4f91-8921-6cbe59f5273d" d="M823.499,260.311c-5.048,0-9.247-1.646-12.602-4.939-3.2-3.415-4.847-7.432-4.938-12.047v-.092c0-4.616,1.569-8.556,4.708-11.817,3.231-3.354,7.308-5.124,12.231-5.309h.692c5.047,0,9.248,1.661,12.603,4.985,3.2,3.386,4.847,7.401,4.939,12.048v.093c0,4.615-1.586,8.555-4.755,11.817-3.263,3.354-7.371,5.107-12.325,5.262h-.554ZM823.591,253.617c3.293,0,5.894-1.262,7.802-3.786,1.415-1.877,2.123-4.045,2.123-6.508v-.092c0-3.2-1.123-5.832-3.369-7.894-1.847-1.692-4.062-2.539-6.647-2.539-3.263,0-5.862,1.262-7.802,3.785-1.415,1.877-2.122,4.062-2.122,6.555v.093c0,3.199,1.123,5.831,3.369,7.893,1.876,1.661,4.092,2.492,6.646,2.492Z"/><path class="uuid-76efe190-77c6-4f91-8921-6cbe59f5273d" d="M847.595,259.757v-33.097h15.14c4.186.031,7.401,1.154,9.648,3.37,1.876,1.908,2.815,4.432,2.815,7.57v.092c0,4.616-2.001,7.879-6.001,9.785-.369.185-.738.34-1.107.462l8.124,11.818h-8.54l-7.062-10.572h-5.723v10.572h-7.294ZM854.889,242.724h7.338c2.678,0,4.416-.924,5.217-2.77.246-.585.369-1.216.369-1.894v-.092c0-2.646-1.4-4.185-4.2-4.616-.493-.062-1.001-.092-1.523-.092h-7.2v9.463Z"/><path class="uuid-76efe190-77c6-4f91-8921-6cbe59f5273d" d="M881.753,259.757v-33.097h7.294v26.497h16.479v6.601h-23.772Z"/><path class="uuid-76efe190-77c6-4f91-8921-6cbe59f5273d" d="M910.972,259.757v-33.097h12.926c5.323,0,9.647,1.678,12.971,5.031,3.047,3.109,4.57,6.925,4.57,11.448v.093c0,4.707-1.632,8.631-4.894,11.77-3.323,3.17-7.54,4.755-12.647,4.755h-12.926ZM918.266,253.202h5.632c3.601,0,6.323-1.277,8.17-3.833,1.2-1.723,1.801-3.737,1.801-6.046v-.092c0-3.539-1.263-6.232-3.785-8.078-1.755-1.262-3.816-1.893-6.186-1.893h-5.632v19.941Z"/></svg>