<?xml version="1.0" encoding="utf-8"?>
<!-- Generator: Adobe Illustrator 26.4.1, SVG Export Plug-In . SVG Version: 6.00 Build 0)  -->
<svg version="1.1" id="Layer_1" xmlns="http://www.w3.org/2000/svg" xmlns:xlink="http://www.w3.org/1999/xlink" x="0px" y="0px"
	 viewBox="0 0 2400 1100" style="enable-background:new 0 0 2400 1100;" xml:space="preserve">
<style type="text/css">
	.st0{fill:#ED1C24;}
	.st1{fill-rule:evenodd;clip-rule:evenodd;fill:#ED1C24;}
</style>
<g>
	<path class="st0" d="M623.7,240.7c0,0-50.9-225.5-302.6-226.8c0,0-288.6,2.6-304.2,307.9c0,0-15.8,284.4,313.1,313.1
		c0,0,213.8,7.9,289.7-213.6H493.8l-155.9,94.3l-158.5-90.3V240.7l155.9-88l159.9,93L623.7,240.7L623.7,240.7z"/>
	<path class="st0" d="M256.8,341.4c0-43.4,34.6-78.6,77.3-78.6s77.3,35.2,77.3,78.6s-34.6,78.6-77.3,78.6S256.8,384.9,256.8,341.4
		L256.8,341.4z"/>
	<path class="st1" d="M750.6,463.3l-1.3,11.8c6.6,81.1,98.3,86.4,98.3,86.4c89,2.6,97.1-98.2,97.1-98.2
		c-6.3-91.9-99.5-86.4-99.5-86.4C749.5,374.3,750.6,463.3,750.6,463.3L750.6,463.3z M668.2,459.3c0,0,15.5-157.2,180.7-148
		c0,0,166.4-7.9,170.4,154.6c0,0-2.4,162.5-176.7,161.2c0,0-173-7.9-175.7-157.2L668.2,459.3L668.2,459.3z"/>
	<polygon class="st0" points="1244.7,10 1553.9,240.7 1435.9,240.7 1399.2,211.7 1399.2,617.9 1321.9,617.9 1321.9,156.7 
		1244.7,100.3 1172.5,156.7 1172.5,615.2 1096.6,615.2 1096.6,211.7 1046.9,247 930.2,247 1244.7,10 	"/>
	<polygon class="st0" points="1483,316.6 1556.5,316.6 1556.5,616.5 1481.7,616.5 1483,316.6 	"/>
	<polygon class="st0" points="1635,617.9 1635,315.2 1711.1,315.2 1868.3,493.5 1868.3,319.2 1944.4,319.2 1944.4,616.5 
		1880.2,616.5 1717.7,428 1717.7,616.5 1635,617.9 	"/>
	<polygon class="st0" points="2007.1,300.8 2022.9,412.2 2062.2,412.2 2074,302.1 2007.1,300.8 	"/>
	<path class="st0" d="M2328.2,390l1.3-57.7c0,0-157.5-73.5-217.5,48.5c0,0-21.9,80,94.5,116.7c0,0,84.8,26.3,57.4,55
		c0,0-37.7,36.9-109.8-3.9l-30.2-17.1v68.2c0,0,107.2,56.4,192.5,1.3c0,0,87.9-88.2-14.2-149.6c0,0-110.1-32.4-110.1-64
		c0,0,6.6-34.2,94.3-11.8L2328.2,390L2328.2,390z"/>
	<polygon class="st0" points="99.1,709.5 99.1,862.3 59.4,862.3 59.4,798.1 47.5,798.1 47.5,862.3 7.8,862.3 7.8,709.5 47.5,709.5 
		47.5,764.1 59.4,764.1 59.4,709.5 99.1,709.5 	"/>
	<path class="st1" d="M233.9,709.5l22.7,152.8H216l-2-27.5h-14.2l-2.4,27.5h-41.1l20.2-152.8H233.9L233.9,709.5z M212.9,807.7
		c-2-17.3-4-38.7-6-64.1c-4,29.2-6.5,50.6-7.5,64.1H212.9L212.9,807.7z"/>
	<path class="st1" d="M313.7,709.5h28.1c18.8,0,31.4,0.7,38,2.1c6.7,1.4,12.1,5.2,16.2,11.1c4.2,5.9,6.3,15.4,6.3,28.4
		c0,11.9-1.5,19.9-4.4,23.9c-2.9,4.1-8.8,6.6-17.5,7.4c7.9,1.9,13.2,4.5,15.9,7.8c2.7,3.3,4.4,6.3,5,9.1c0.7,2.7,1,10.2,1,22.5v40.3
		h-36.9v-50.8c0-8.2-0.7-13.2-2-15.2c-1.3-2-4.6-2.9-10.1-2.9v68.9h-39.7V709.5L313.7,709.5z M353.4,735.6v34c4.5,0,7.6-0.6,9.4-1.8
		c1.8-1.3,2.7-5.3,2.7-12v-8.4c0-4.8-0.9-8-2.6-9.5C361.2,736.4,358,735.6,353.4,735.6L353.4,735.6z"/>
	<path class="st1" d="M468,709.5h29.7c19.2,0,32.1,0.9,38.9,2.6c6.8,1.8,12,4.7,15.5,8.7c3.5,4,5.7,8.5,6.6,13.5
		c0.9,4.9,1.3,14.6,1.3,29.1v53.5c0,13.7-0.7,22.9-2,27.6c-1.3,4.6-3.5,8.2-6.7,10.8c-3.2,2.6-7.2,4.4-11.9,5.5
		c-4.7,1-11.8,1.5-21.3,1.5H468V709.5L468,709.5z M507.8,735.6v100.5c5.7,0,9.2-1.1,10.6-3.4c1.3-2.3,2-8.6,2-18.8v-59.4
		c0-6.9-0.2-11.3-0.6-13.3c-0.4-2-1.4-3.4-3-4.3C515.1,736.1,512.1,735.6,507.8,735.6L507.8,735.6z"/>
	<path class="st0" d="M774.6,709.5l-17.7,152.8h-49.6c-4.5-23.5-8.5-50.1-12-80c-1.6,12.8-5.3,39.4-11,80h-49.4l-17.7-152.8h38.6
		l4.1,53.3l4.2,51.4c1.4-26.6,5.1-61.5,11-104.7h41.3c0.5,4.5,2,21.2,4.3,50.4l4.3,58c2.2-36.9,5.9-73.1,11-108.4H774.6L774.6,709.5
		z"/>
	<path class="st1" d="M901.4,709.5l22.7,152.8h-40.6l-2-27.5h-14.2l-2.4,27.5h-41.1l20.2-152.8H901.4L901.4,709.5z M880.3,807.7
		c-2-17.3-4-38.7-6-64.1c-4,29.2-6.5,50.6-7.5,64.1H880.3L880.3,807.7z"/>
	<path class="st1" d="M981.1,709.5h28.1c18.7,0,31.4,0.7,38,2.1c6.7,1.4,12.1,5.2,16.2,11.1c4.2,5.9,6.3,15.4,6.3,28.4
		c0,11.9-1.5,19.9-4.4,23.9c-3,4.1-8.8,6.6-17.5,7.4c7.8,1.9,13.1,4.5,15.9,7.8c2.7,3.3,4.3,6.3,5,9.1c0.7,2.7,1.1,10.2,1.1,22.5
		v40.3h-36.9v-50.8c0-8.2-0.7-13.2-2-15.2c-1.3-2-4.6-2.9-10.1-2.9v68.9h-39.7V709.5L981.1,709.5z M1020.9,735.6v34
		c4.5,0,7.6-0.6,9.3-1.8c1.8-1.3,2.7-5.3,2.7-12v-8.4c0-4.8-0.9-8-2.6-9.5C1028.6,736.4,1025.4,735.6,1020.9,735.6L1020.9,735.6z"/>
	<polygon class="st0" points="1135.4,709.5 1201.7,709.5 1201.7,740.1 1175.2,740.1 1175.2,769 1200,769 1200,798.1 1175.2,798.1 
		1175.2,831.7 1204.3,831.7 1204.3,862.3 1135.4,862.3 1135.4,709.5 	"/>
	<path class="st1" d="M1451.2,804.2V830l-10.7,6.8l13.4,25.5h-35.2l-4.7-8.5c-11.8,7.8-23,11.7-33.6,11.7
		c-11.1,0-19.6-3.7-25.6-11.1c-6-7.4-9-16.2-9-26.6c0-8.3,1.8-14.8,5.3-19.5c3.5-4.7,8.8-8.6,15.8-11.5c-10-7.2-15.1-17-15.1-29.4
		c0-10.6,3.6-19.2,10.8-25.7c7.2-6.5,17-9.7,29.6-9.7c11.3,0,20.2,3.1,26.7,9.5c6.5,6.3,9.8,14.4,9.8,24.2
		c0,10.3-3.9,19.5-11.9,27.5l13.5,24.3L1451.2,804.2L1451.2,804.2z M1392.4,777.4c4.3-5.6,6.4-10.9,6.4-16c0-2.2-0.6-4.2-1.9-6
		c-1.3-1.8-3-2.8-5.3-2.8c-2.1,0-3.6,0.7-4.7,2.1c-1,1.4-1.6,3.5-1.6,6.3C1385.3,766.9,1387.7,772.4,1392.4,777.4L1392.4,777.4z
		 M1401,836.5l-12.4-20.6c-4.7,4.3-7.1,8.9-7.1,13.9c0,3.6,0.7,6.3,2.2,8.1c1.5,1.8,3.7,2.6,6.6,2.6
		C1393.4,840.5,1397,839.2,1401,836.5L1401,836.5z"/>
	<path class="st1" d="M1596.4,709.5h28.1c18.8,0,31.4,0.7,38.1,2.1c6.7,1.4,12,5.2,16.2,11.1c4.2,5.9,6.3,15.4,6.3,28.4
		c0,11.9-1.5,19.9-4.5,23.9c-3,4.1-8.8,6.6-17.4,7.4c7.8,1.9,13.1,4.5,15.9,7.8c2.7,3.3,4.4,6.3,5,9.1c0.7,2.7,1.1,10.2,1.1,22.5
		v40.3h-36.9v-50.8c0-8.2-0.6-13.2-2-15.2c-1.3-2-4.6-2.9-10.1-2.9v68.9h-39.7V709.5L1596.4,709.5z M1636.1,735.6v34
		c4.5,0,7.6-0.6,9.4-1.8c1.8-1.3,2.7-5.3,2.7-12v-8.4c0-4.8-0.9-8-2.6-9.5C1643.8,736.4,1640.7,735.6,1636.1,735.6L1636.1,735.6z"/>
	<polygon class="st0" points="1750.7,709.5 1817,709.5 1817,740.1 1790.4,740.1 1790.4,769 1815.3,769 1815.3,798.1 1790.4,798.1 
		1790.4,831.7 1819.6,831.7 1819.6,862.3 1750.7,862.3 1750.7,709.5 	"/>
	<polygon class="st0" points="1970,709.5 1970,862.3 1935.2,862.3 1914.5,792.8 1914.5,862.3 1881.3,862.3 1881.3,709.5 
		1914.5,709.5 1936.8,778.3 1936.8,709.5 1970,709.5 	"/>
	<polygon class="st0" points="2116.2,709.5 2116.2,740.1 2092.6,740.1 2092.6,862.3 2052.9,862.3 2052.9,740.1 2029.4,740.1 
		2029.4,709.5 2116.2,709.5 	"/>
	<path class="st1" d="M2244.1,709.5l22.8,152.8h-40.7l-2-27.5h-14.2l-2.4,27.5h-41.1l20.2-152.8H2244.1L2244.1,709.5z M2223,807.7
		c-2-17.3-4-38.7-6-64.1c-4,29.2-6.6,50.6-7.6,64.1H2223L2223,807.7z"/>
	<polygon class="st0" points="2363.6,709.5 2363.6,831.7 2387.8,831.7 2387.8,862.3 2323.9,862.3 2323.9,709.5 2363.6,709.5 	"/>
</g>
<g>
	<path class="st0" d="M496.9,1064.2V939.6h16.5v109.9h61.4v14.7H496.9z"/>
	<path class="st0" d="M651.3,1053.1c-5.7,4.8-11.1,8.2-16.4,10.2c-5.2,2-10.9,3-16.9,3c-9.9,0-17.5-2.4-22.9-7.3
		c-5.3-4.8-8-11-8-18.6c0-4.4,1-8.5,3-12.1c2-3.7,4.6-6.6,7.9-8.8c3.3-2.2,6.9-3.9,11-5c3-0.8,7.5-1.6,13.6-2.3
		c12.4-1.5,21.4-3.2,27.3-5.3c0.1-2.1,0.1-3.4,0.1-4c0-6.2-1.4-10.6-4.3-13.2c-3.9-3.5-9.7-5.2-17.4-5.2c-7.2,0-12.5,1.3-15.9,3.8
		c-3.4,2.5-6,7-7.6,13.4l-15-2c1.4-6.4,3.6-11.6,6.7-15.5c3.1-3.9,7.6-7,13.5-9.1c5.9-2.1,12.7-3.2,20.5-3.2c7.7,0,14,0.9,18.8,2.7
		c4.8,1.8,8.4,4.1,10.6,6.8c2.3,2.7,3.9,6.2,4.8,10.4c0.5,2.6,0.8,7.3,0.8,14.1v20.4c0,14.2,0.3,23.2,1,27c0.7,3.8,1.9,7.4,3.9,10.8
		h-16C652.7,1061,651.7,1057.3,651.3,1053.1z M650,1018.9c-5.6,2.3-13.9,4.2-25,5.8c-6.3,0.9-10.7,1.9-13.3,3.1
		c-2.6,1.1-4.6,2.8-6,5c-1.4,2.2-2.1,4.6-2.1,7.3c0,4.1,1.5,7.5,4.6,10.2s7.6,4.1,13.6,4.1c5.9,0,11.1-1.3,15.7-3.9
		c4.6-2.6,8-6.1,10.1-10.6c1.6-3.5,2.5-8.6,2.5-15.3V1018.9z"/>
	<path class="st0" d="M705.8,1064.2L678.2,974H694l14.4,52.1l5.4,19.4c0.2-1,1.8-7.2,4.7-18.6l14.4-52.9h15.7l13.5,52.3l4.5,17.3
		l5.2-17.4l15.5-52.2H802l-28.2,90.2h-15.9l-14.4-54l-3.5-15.4l-18.3,69.4H705.8z"/>
	<path class="st0" d="M814.7,1064.2V974h13.8v13.7c3.5-6.4,6.8-10.6,9.7-12.7c3-2,6.2-3.1,9.8-3.1c5.2,0,10.4,1.6,15.7,4.9
		l-5.3,14.2c-3.7-2.2-7.5-3.3-11.2-3.3c-3.3,0-6.3,1-9,3c-2.7,2-4.6,4.8-5.7,8.4c-1.7,5.4-2.5,11.4-2.5,17.8v47.2H814.7z"/>
	<path class="st0" d="M934.6,1035.1l15.8,2c-2.5,9.2-7.1,16.4-13.9,21.5c-6.7,5.1-15.4,7.6-25.8,7.6c-13.2,0-23.7-4.1-31.4-12.2
		c-7.7-8.1-11.6-19.5-11.6-34.2c0-15.2,3.9-27,11.7-35.4c7.8-8.4,18-12.6,30.4-12.6c12.1,0,21.9,4.1,29.6,12.3
		c7.6,8.2,11.5,19.8,11.5,34.7c0,0.9,0,2.3-0.1,4.1h-67.3c0.6,9.9,3.4,17.5,8.4,22.8c5,5.3,11.3,7.9,18.9,7.9
		c5.6,0,10.4-1.5,14.4-4.4C929.1,1046.3,932.3,1041.6,934.6,1035.1z M884.4,1010.4h50.4c-0.7-7.6-2.6-13.3-5.8-17.1
		c-4.9-5.9-11.2-8.8-19-8.8c-7,0-12.9,2.4-17.7,7.1C887.5,996.3,884.9,1002.5,884.4,1010.4z"/>
	<path class="st0" d="M969.6,1064.2V974h13.8v12.8c6.6-9.9,16.2-14.9,28.7-14.9c5.4,0,10.4,1,15,2.9c4.6,2,8,4.5,10.2,7.7
		c2.3,3.2,3.9,6.9,4.8,11.3c0.6,2.8,0.9,7.8,0.9,14.9v55.5h-15.3v-54.9c0-6.2-0.6-10.9-1.8-14c-1.2-3.1-3.3-5.6-6.3-7.4
		c-3-1.8-6.6-2.8-10.7-2.8c-6.5,0-12.1,2.1-16.9,6.2c-4.7,4.1-7.1,12-7.1,23.5v49.3H969.6z"/>
	<path class="st0" d="M1125.3,1031.1l15,2c-1.6,10.4-5.9,18.5-12.6,24.3c-6.8,5.9-15.1,8.8-24.9,8.8c-12.4,0-22.3-4-29.8-12.1
		c-7.5-8.1-11.3-19.6-11.3-34.7c0-9.7,1.6-18.3,4.8-25.6c3.2-7.3,8.1-12.8,14.7-16.4c6.6-3.7,13.8-5.5,21.5-5.5
		c9.8,0,17.8,2.5,24,7.4c6.2,5,10.2,12,12,21.1l-14.9,2.3c-1.4-6.1-3.9-10.6-7.5-13.7c-3.6-3.1-7.9-4.6-13-4.6
		c-7.7,0-14,2.8-18.8,8.3c-4.8,5.5-7.2,14.3-7.2,26.2c0,12.1,2.3,20.9,7,26.4c4.6,5.5,10.7,8.2,18.2,8.2c6,0,11-1.8,15-5.5
		C1121.7,1044.5,1124.2,1038.8,1125.3,1031.1z"/>
	<path class="st0" d="M1215.2,1035.1l15.8,2c-2.5,9.2-7.1,16.4-13.9,21.5c-6.7,5.1-15.4,7.6-25.8,7.6c-13.2,0-23.7-4.1-31.4-12.2
		c-7.7-8.1-11.6-19.5-11.6-34.2c0-15.2,3.9-27,11.7-35.4c7.8-8.4,18-12.6,30.4-12.6c12.1,0,21.9,4.1,29.6,12.3
		c7.6,8.2,11.5,19.8,11.5,34.7c0,0.9,0,2.3-0.1,4.1h-67.3c0.6,9.9,3.4,17.5,8.4,22.8c5,5.3,11.3,7.9,18.9,7.9
		c5.6,0,10.4-1.5,14.4-4.4C1209.7,1046.3,1212.9,1041.6,1215.2,1035.1z M1165,1010.4h50.4c-0.7-7.6-2.6-13.3-5.8-17.1
		c-4.9-5.9-11.2-8.8-19-8.8c-7,0-12.9,2.4-17.7,7.1C1168.1,996.3,1165.5,1002.5,1165,1010.4z"/>
	<path class="st0" d="M1254.2,1064.2v-17.4h17.4v17.4c0,6.4-1.1,11.6-3.4,15.5c-2.3,3.9-5.9,7-10.8,9.1l-4.2-6.5
		c3.2-1.4,5.6-3.5,7.1-6.2c1.5-2.7,2.4-6.7,2.5-11.9H1254.2z"/>
	<path class="st0" d="M1348.2,1064.2V939.6h16.5v61.8l61.9-61.8h22.3l-52.3,50.5l54.6,74.1h-21.8l-44.4-63.1l-20.4,19.9v43.2H1348.2
		z"/>
	<path class="st0" d="M1521.9,1053.1c-5.7,4.8-11.1,8.2-16.4,10.2c-5.2,2-10.9,3-16.9,3c-9.9,0-17.5-2.4-22.9-7.3
		c-5.3-4.8-8-11-8-18.6c0-4.4,1-8.5,3-12.1c2-3.7,4.6-6.6,7.9-8.8c3.3-2.2,6.9-3.9,11-5c3-0.8,7.5-1.6,13.6-2.3
		c12.4-1.5,21.4-3.2,27.3-5.3c0.1-2.1,0.1-3.4,0.1-4c0-6.2-1.4-10.6-4.3-13.2c-3.9-3.5-9.7-5.2-17.4-5.2c-7.2,0-12.5,1.3-15.9,3.8
		c-3.4,2.5-6,7-7.6,13.4l-15-2c1.4-6.4,3.6-11.6,6.7-15.5c3.1-3.9,7.6-7,13.5-9.1c5.9-2.1,12.7-3.2,20.5-3.2c7.7,0,14,0.9,18.8,2.7
		c4.8,1.8,8.4,4.1,10.6,6.8c2.3,2.7,3.9,6.2,4.8,10.4c0.5,2.6,0.8,7.3,0.8,14.1v20.4c0,14.2,0.3,23.2,1,27c0.7,3.8,1.9,7.4,3.9,10.8
		h-16C1523.4,1061,1522.3,1057.3,1521.9,1053.1z M1520.6,1018.9c-5.6,2.3-13.9,4.2-25,5.8c-6.3,0.9-10.7,1.9-13.3,3.1
		c-2.6,1.1-4.6,2.8-6,5c-1.4,2.2-2.1,4.6-2.1,7.3c0,4.1,1.5,7.5,4.6,10.2s7.6,4.1,13.6,4.1c5.9,0,11.1-1.3,15.7-3.9
		c4.6-2.6,8-6.1,10.1-10.6c1.6-3.5,2.5-8.6,2.5-15.3V1018.9z"/>
	<path class="st0" d="M1559.8,1064.2V974h13.8v12.8c6.6-9.9,16.2-14.9,28.7-14.9c5.4,0,10.4,1,15,2.9c4.6,2,8,4.5,10.2,7.7
		c2.3,3.2,3.9,6.9,4.8,11.3c0.6,2.8,0.9,7.8,0.9,14.9v55.5h-15.3v-54.9c0-6.2-0.6-10.9-1.8-14c-1.2-3.1-3.3-5.6-6.3-7.4
		c-3-1.8-6.6-2.8-10.7-2.8c-6.5,0-12.1,2.1-16.9,6.2c-4.7,4.1-7.1,12-7.1,23.5v49.3H1559.8z"/>
	<path class="st0" d="M1650.5,1037.3l15.1-2.4c0.9,6.1,3.2,10.7,7.1,13.9c3.9,3.2,9.3,4.8,16.3,4.8c7,0,12.2-1.4,15.6-4.3
		c3.4-2.9,5.1-6.2,5.1-10.1c0-3.5-1.5-6.2-4.5-8.2c-2.1-1.4-7.3-3.1-15.6-5.2c-11.2-2.8-19-5.3-23.3-7.4c-4.3-2.1-7.6-4.9-9.9-8.6
		c-2.2-3.7-3.4-7.7-3.4-12.1c0-4,0.9-7.7,2.8-11.2c1.8-3.4,4.3-6.3,7.5-8.5c2.4-1.8,5.6-3.2,9.7-4.5c4.1-1.2,8.5-1.8,13.2-1.8
		c7.1,0,13.3,1,18.7,3.1c5.4,2,9.3,4.8,11.9,8.3c2.5,3.5,4.3,8.1,5.3,14l-15,2c-0.7-4.6-2.6-8.3-5.9-10.9c-3.3-2.6-7.9-3.9-13.8-3.9
		c-7,0-12,1.2-15,3.5c-3,2.3-4.5,5-4.5,8.2c0,2,0.6,3.8,1.9,5.4c1.2,1.6,3.2,3,5.9,4.1c1.5,0.6,6,1.9,13.5,3.9
		c10.8,2.9,18.4,5.3,22.6,7.1c4.3,1.8,7.6,4.5,10.1,8c2.4,3.5,3.7,7.9,3.7,13.1c0,5.1-1.5,9.9-4.5,14.4c-3,4.5-7.3,8-12.9,10.5
		s-12,3.7-19,3.7c-11.7,0-20.7-2.4-26.8-7.3C1656.1,1054.1,1652.2,1046.8,1650.5,1037.3z"/>
	<path class="st0" d="M1802.5,1053.1c-5.7,4.8-11.1,8.2-16.4,10.2c-5.2,2-10.9,3-16.9,3c-9.9,0-17.5-2.4-22.9-7.3
		c-5.3-4.8-8-11-8-18.6c0-4.4,1-8.5,3-12.1c2-3.7,4.6-6.6,7.9-8.8c3.3-2.2,6.9-3.9,11-5c3-0.8,7.5-1.6,13.6-2.3
		c12.3-1.5,21.4-3.2,27.3-5.3c0.1-2.1,0.1-3.4,0.1-4c0-6.2-1.4-10.6-4.3-13.2c-3.9-3.5-9.7-5.2-17.4-5.2c-7.2,0-12.5,1.3-15.9,3.8
		c-3.4,2.5-6,7-7.6,13.4l-15-2c1.4-6.4,3.6-11.6,6.7-15.5c3.1-3.9,7.6-7,13.5-9.1c5.9-2.1,12.7-3.2,20.5-3.2c7.7,0,14,0.9,18.8,2.7
		c4.8,1.8,8.4,4.1,10.6,6.8c2.3,2.7,3.9,6.2,4.8,10.4c0.5,2.6,0.8,7.3,0.8,14.1v20.4c0,14.2,0.3,23.2,1,27c0.7,3.8,1.9,7.4,3.9,10.8
		h-16C1804,1061,1802.9,1057.3,1802.5,1053.1z M1801.2,1018.9c-5.6,2.3-13.9,4.2-25,5.8c-6.3,0.9-10.7,1.9-13.3,3.1
		c-2.6,1.1-4.6,2.8-6,5c-1.4,2.2-2.1,4.6-2.1,7.3c0,4.1,1.5,7.5,4.6,10.2s7.6,4.1,13.6,4.1c5.9,0,11.1-1.3,15.7-3.9
		c4.6-2.6,8-6.1,10.1-10.6c1.6-3.5,2.5-8.6,2.5-15.3V1018.9z"/>
	<path class="st0" d="M1834.3,1037.3l15.1-2.4c0.9,6.1,3.2,10.7,7.1,13.9c3.9,3.2,9.3,4.8,16.3,4.8c7,0,12.2-1.4,15.6-4.3
		c3.4-2.9,5.1-6.2,5.1-10.1c0-3.5-1.5-6.2-4.5-8.2c-2.1-1.4-7.3-3.1-15.6-5.2c-11.2-2.8-19-5.3-23.3-7.4c-4.3-2.1-7.6-4.9-9.9-8.6
		c-2.2-3.7-3.4-7.7-3.4-12.1c0-4,0.9-7.7,2.8-11.2c1.8-3.4,4.3-6.3,7.5-8.5c2.4-1.8,5.6-3.2,9.7-4.5c4.1-1.2,8.5-1.8,13.2-1.8
		c7.1,0,13.3,1,18.7,3.1c5.4,2,9.3,4.8,11.9,8.3c2.5,3.5,4.3,8.1,5.3,14l-15,2c-0.7-4.6-2.6-8.3-5.9-10.9c-3.3-2.6-7.9-3.9-13.8-3.9
		c-7,0-12,1.2-15,3.5c-3,2.3-4.5,5-4.5,8.2c0,2,0.6,3.8,1.9,5.4c1.2,1.6,3.2,3,5.9,4.1c1.5,0.6,6,1.9,13.5,3.9
		c10.8,2.9,18.4,5.3,22.6,7.1c4.3,1.8,7.6,4.5,10.1,8c2.4,3.5,3.7,7.9,3.7,13.1c0,5.1-1.5,9.9-4.5,14.4c-3,4.5-7.3,8-12.9,10.5
		s-12,3.7-19,3.7c-11.7,0-20.7-2.4-26.8-7.3C1839.9,1054.1,1836,1046.8,1834.3,1037.3z"/>
</g>
</svg>
