<?xml version="1.0" encoding="utf-8"?>
<!-- Generator: Adobe Illustrator 28.5.0, SVG Export Plug-In . SVG Version: 9.03 Build 54727)  -->
<svg version="1.1" id="Layer_1" xmlns="http://www.w3.org/2000/svg" xmlns:xlink="http://www.w3.org/1999/xlink" x="0px" y="0px"
	 viewBox="0 0 654.9 369.4" style="enable-background:new 0 0 654.9 369.4;" xml:space="preserve">
<style type="text/css">
	.st0{fill:#263979;}
	.st1{fill:#576033;}
	.st2{fill:#263A7A;}
	.st3{fill:#382010;}
	.st4{fill:#FECD06;}
	.st5{fill:#FCB315;}
	.st6{fill:#FAA51A;}
	.st7{fill:#1C130E;}
	.st8{fill:#44322A;}
	.st9{fill:#8A9353;}
	.st10{fill:#576032;}
</style>
<g>
	<path class="st0" d="M0.2,201.9h18.3v101.7h54.6v7H0.2V201.9z"/>
	<path class="st0" d="M86,220.9H101v89.6H86V220.9z"/>
	<path class="st0" d="M128.4,220.9l33.8,71.3l31.5-71.3h7.1l-40.7,91.7h-3.9l-43.7-91.7H128.4z"/>
	<path class="st0" d="M274.6,220.9v5.8h-47.2v32.1h31.6v5.8h-31.6v40.3h47.2v5.8h-62.3v-89.6H274.6z"/>
	<path class="st1" d="M298.5,201.9l32.3,82.6l28.5-74.5l29.6,74.9l31.6-83h9l-41.9,109.6h-5.5l-26.8-67.7l-25.8,67.7h-6.2
		l-43.1-109.6H298.5z"/>
	<path class="st1" d="M503.1,220.9v5.8h-47.2v32.1h31.6v5.8h-31.6v40.3h47.2v5.8h-62.3v-89.6H503.1z"/>
	<path class="st1" d="M519.8,220.9h15.1v83.9h45v5.8h-60.1V220.9z"/>
	<path class="st1" d="M592.5,220.9h15.1v83.9h45v5.8h-60.1V220.9z"/>
</g>
<g>
	<path class="st2" d="M0,325.6h4l28,31.3h0.3v-31.3h3.1v43.8h-1.7L3.5,334.6H3.2v33.8H0V325.6z"/>
	<path class="st2" d="M68,369.4c-2.2,0-4.3-0.3-6.4-0.8s-3.9-1.3-5.7-2.3c-1.7-1-3.3-2.2-4.8-3.5c-1.4-1.4-2.6-2.9-3.6-4.6
		c-1-1.7-1.8-3.5-2.3-5.4c-0.6-1.9-0.8-3.9-0.8-6c0-2,0.3-4,0.8-5.9c0.6-1.9,1.3-3.6,2.3-5.3c1-1.6,2.2-3.1,3.6-4.5
		c1.4-1.3,3-2.5,4.8-3.5c1.7-1,3.6-1.7,5.7-2.2s4.1-0.8,6.4-0.8c3.3,0,6.4,0.6,9.3,1.7c2.9,1.2,5.4,2.7,7.5,4.7c2.1,2,3.8,4.3,5,7
		c1.2,2.7,1.8,5.6,1.8,8.6c0,2.1-0.3,4.1-0.8,6c-0.6,1.9-1.3,3.7-2.3,5.4c-1,1.7-2.2,3.2-3.6,4.6c-1.4,1.4-3,2.6-4.8,3.5
		c-1.7,1-3.6,1.8-5.7,2.3S70.2,369.4,68,369.4z M68,367.3c2.4,0,4.6-0.5,6.5-1.5c1.9-1,3.5-2.5,4.8-4.3c1.3-1.8,2.3-4,2.9-6.5
		c0.7-2.5,1-5.2,1-8.2c0-2.9-0.3-5.6-1-8.1c-0.7-2.4-1.6-4.6-2.9-6.3c-1.3-1.8-2.9-3.1-4.8-4.1s-4-1.5-6.5-1.5
		c-2.5,0-4.7,0.5-6.6,1.5c-1.9,1-3.5,2.4-4.8,4.1c-1.3,1.8-2.2,3.9-2.9,6.3c-0.6,2.4-1,5.1-1,8.1c0,3,0.3,5.7,1,8.2
		c0.6,2.5,1.6,4.7,2.9,6.5c1.3,1.8,2.9,3.3,4.8,4.3C63.3,366.7,65.5,367.3,68,367.3z"/>
	<path class="st2" d="M100.5,325.6h14.8c2.6,0,4.8,0.3,6.8,0.8c1.9,0.6,3.6,1.3,4.9,2.3s2.3,2.2,2.9,3.5s1,2.9,1,4.5
		c0,1.3-0.3,2.6-0.8,3.7s-1.2,2.2-2.1,3.1c-0.9,0.9-2,1.7-3.3,2.4c-1.3,0.7-2.7,1.2-4.2,1.6l15.6,20.8h-8.3l-14.9-20.1h-5v20.1h-7.2
		V325.6z M107.7,346.1h4.1c1.6,0,3.1-0.2,4.5-0.6c1.4-0.4,2.6-1,3.6-1.8c1-0.8,1.8-1.8,2.3-2.9c0.6-1.1,0.8-2.4,0.8-3.8
		c0-1.3-0.2-2.4-0.7-3.5c-0.4-1.1-1.1-2-1.9-2.7s-1.7-1.4-2.9-1.8c-1.1-0.4-2.3-0.7-3.6-0.7h-6.3V346.1z"/>
	<path class="st2" d="M172.6,325.6v2.7h-15.5v40h-7.2v-40h-15.5v-2.7H172.6z"/>
	<path class="st2" d="M186.4,347.8v20.5h-7.2v-42.8h7.2v19.5h21.5v-19.5h7.2v42.8h-7.2v-20.5H186.4z"/>
	<path class="st2" d="M227.7,325.6l12.7,32.5l11.2-29.3l11.6,29.5l12.4-32.7h3.5l-16.5,43.1h-2.2l-10.6-26.7l-10.2,26.7h-2.5
		l-17-43.1H227.7z"/>
	<path class="st2" d="M314.4,325.6v2.7h-22.5v15.3h15.1v2.7h-15.1v19.2h22.5v2.7h-29.7v-42.8H314.4z"/>
	<path class="st2" d="M334.1,366.6c1.1,0,2.1-0.1,3.1-0.4c1-0.3,2-0.7,2.8-1.3c0.8-0.6,1.5-1.3,2-2.1s0.7-1.8,0.7-2.9
		c0-1.3-0.3-2.5-1-3.5c-0.7-1-1.6-2-2.7-2.8c-1.1-0.9-2.3-1.7-3.8-2.4c-1.4-0.7-2.9-1.5-4.3-2.3c-1.5-0.8-2.9-1.6-4.3-2.4
		c-1.4-0.8-2.7-1.8-3.8-2.8c-1.1-1-2-2.1-2.7-3.4c-0.7-1.3-1-2.7-1-4.3s0.3-3.2,0.9-4.6c0.6-1.4,1.5-2.6,2.7-3.6
		c1.2-1,2.7-1.8,4.4-2.4s3.7-0.9,6-0.9c4,0,7.2,0.8,9.6,2.5c2.3,1.7,4,4.1,5.1,7.4l-3.7,1.7c-0.4-1.3-1-2.5-1.6-3.6
		c-0.7-1.1-1.5-2-2.4-2.8c-0.9-0.8-2-1.4-3.2-1.8c-1.2-0.4-2.6-0.6-4.1-0.6c-1.3,0-2.5,0.2-3.5,0.6c-1,0.4-1.9,0.9-2.5,1.5
		c-0.7,0.6-1.2,1.3-1.5,2.1c-0.3,0.8-0.5,1.6-0.5,2.3c0,1.1,0.3,2.2,1,3.1c0.7,0.9,1.6,1.8,2.7,2.6s2.4,1.6,3.9,2.4s2.9,1.6,4.4,2.3
		s3,1.6,4.4,2.5s2.7,1.8,3.9,2.8c1.1,1,2.1,2.1,2.7,3.4c0.7,1.2,1,2.6,1,4.1c0,1.7-0.3,3.3-1,4.8s-1.6,2.8-2.9,3.9
		c-1.3,1.1-2.9,2-4.8,2.6s-4.2,1-6.7,1c-2,0-3.9-0.2-5.5-0.7c-1.6-0.5-3.1-1.1-4.3-2c-1.2-0.9-2.3-1.9-3.2-3.1
		c-0.9-1.2-1.6-2.7-2.2-4.2l3.9-1.6c0.9,2.8,2.4,5,4.5,6.6C328.9,365.9,331.3,366.6,334.1,366.6z"/>
	<path class="st2" d="M391.1,325.6v2.7h-15.5v40h-7.2v-40h-15.5v-2.7H391.1z"/>
	<path class="st2" d="M416.1,325.6h7.2v18.9l22.5-18.9h4.7l-21.4,18l27.1,24.8h-9.1l-23.8-21.7v21.7h-7.2V325.6z"/>
	<path class="st2" d="M478.9,324.6l20.1,43.8h-7.3l-6.5-14.3h-18.3l-6.8,14.3h-3.6l20.6-43.8H478.9z M468.2,351.3h15.8l-7.8-16.9
		L468.2,351.3z"/>
	<path class="st2" d="M504.6,325.6h4l28,31.3h0.3v-31.3h3.1v43.8h-1.7l-30.4-34.8h-0.3v33.8h-3.2V325.6z"/>
	<path class="st2" d="M562.6,366.6c1.1,0,2.1-0.1,3.1-0.4s2-0.7,2.8-1.3c0.8-0.6,1.5-1.3,2-2.1c0.5-0.8,0.7-1.8,0.7-2.9
		c0-1.3-0.3-2.5-1-3.5c-0.7-1-1.6-2-2.7-2.8c-1.1-0.9-2.3-1.7-3.8-2.4c-1.4-0.7-2.9-1.5-4.3-2.3c-1.5-0.8-2.9-1.6-4.3-2.4
		c-1.4-0.8-2.7-1.8-3.8-2.8s-2-2.1-2.7-3.4s-1-2.7-1-4.3s0.3-3.2,0.9-4.6c0.6-1.4,1.5-2.6,2.7-3.6c1.2-1,2.7-1.8,4.4-2.4
		s3.7-0.9,6-0.9c4,0,7.2,0.8,9.6,2.5c2.3,1.7,4,4.1,5.1,7.4l-3.7,1.7c-0.4-1.3-1-2.5-1.6-3.6s-1.5-2-2.4-2.8s-2-1.4-3.2-1.8
		c-1.2-0.4-2.6-0.6-4.1-0.6c-1.3,0-2.5,0.2-3.5,0.6c-1,0.4-1.9,0.9-2.5,1.5s-1.2,1.3-1.5,2.1s-0.5,1.6-0.5,2.3c0,1.1,0.3,2.2,1,3.1
		c0.7,0.9,1.6,1.8,2.7,2.6c1.1,0.8,2.4,1.6,3.9,2.4s2.9,1.6,4.4,2.3c1.5,0.8,3,1.6,4.4,2.5s2.7,1.8,3.9,2.8c1.1,1,2.1,2.1,2.7,3.4
		c0.7,1.2,1,2.6,1,4.1c0,1.7-0.3,3.3-1,4.8s-1.6,2.8-2.9,3.9s-2.9,2-4.8,2.6c-1.9,0.7-4.2,1-6.7,1c-2,0-3.9-0.2-5.5-0.7
		c-1.6-0.5-3.1-1.1-4.3-2c-1.2-0.9-2.3-1.9-3.2-3.1c-0.9-1.2-1.6-2.7-2.2-4.2l3.9-1.6c0.9,2.8,2.4,5,4.5,6.6
		S559.8,366.6,562.6,366.6z"/>
	<path class="st2" d="M602.7,324.6l20.1,43.8h-7.3l-6.5-14.3h-18.3l-6.8,14.3h-3.6l20.6-43.8H602.7z M591.9,351.3h15.8l-7.8-16.9
		L591.9,351.3z"/>
	<path class="st2" d="M640.1,366.6c1.1,0,2.1-0.1,3.1-0.4c1-0.3,2-0.7,2.8-1.3c0.8-0.6,1.5-1.3,2-2.1s0.7-1.8,0.7-2.9
		c0-1.3-0.3-2.5-1-3.5c-0.7-1-1.6-2-2.7-2.8c-1.1-0.9-2.3-1.7-3.8-2.4c-1.4-0.7-2.9-1.5-4.3-2.3c-1.5-0.8-2.9-1.6-4.3-2.4
		c-1.4-0.8-2.7-1.8-3.8-2.8c-1.1-1-2-2.1-2.7-3.4c-0.7-1.3-1-2.7-1-4.3s0.3-3.2,0.9-4.6c0.6-1.4,1.5-2.6,2.7-3.6
		c1.2-1,2.7-1.8,4.4-2.4s3.7-0.9,6-0.9c4,0,7.2,0.8,9.6,2.5c2.3,1.7,4,4.1,5.1,7.4l-3.7,1.7c-0.4-1.3-1-2.5-1.6-3.6
		c-0.7-1.1-1.5-2-2.4-2.8c-0.9-0.8-2-1.4-3.2-1.8c-1.2-0.4-2.6-0.6-4.1-0.6c-1.3,0-2.5,0.2-3.5,0.6c-1,0.4-1.9,0.9-2.5,1.5
		c-0.7,0.6-1.2,1.3-1.5,2.1c-0.3,0.8-0.5,1.6-0.5,2.3c0,1.1,0.3,2.2,1,3.1c0.7,0.9,1.6,1.8,2.7,2.6s2.4,1.6,3.9,2.4s2.9,1.6,4.4,2.3
		s3,1.6,4.4,2.5s2.7,1.8,3.9,2.8c1.1,1,2.1,2.1,2.7,3.4c0.7,1.2,1,2.6,1,4.1c0,1.7-0.3,3.3-1,4.8s-1.6,2.8-2.9,3.9
		c-1.3,1.1-2.9,2-4.8,2.6s-4.2,1-6.7,1c-2,0-3.9-0.2-5.5-0.7c-1.6-0.5-3.1-1.1-4.3-2c-1.2-0.9-2.3-1.9-3.2-3.1
		c-0.9-1.2-1.6-2.7-2.2-4.2l3.9-1.6c0.9,2.8,2.4,5,4.5,6.6C634.8,365.9,637.3,366.6,640.1,366.6z"/>
</g>
<g>
	<path class="st1" d="M520,115.8h15.1V310H520V115.8z"/>
	<g>
		<path class="st3" d="M568.4,84.8c0,22.7-18.4,41.1-41.1,41.1c-22.7,0-41.1-18.4-41.1-41.1c0-22.7,18.4-41.1,41.1-41.1
			C550,43.7,568.4,62.1,568.4,84.8z"/>
		<g>
			<path class="st4" d="M559.7,6.5L537.9,59C558.5,50.6,568.3,27,559.7,6.5z"/>
			<path class="st5" d="M537.9,59l21.8-52.6C539.1,14.9,529.4,38.5,537.9,59z"/>
		</g>
		<g>
			<path class="st4" d="M605.6,52.3L553,74.1C573.6,82.7,597.1,73,605.6,52.3z"/>
			<path class="st5" d="M553,74.1l52.6-21.8C585,43.8,561.5,53.5,553,74.1z"/>
		</g>
		<g>
			<path class="st4" d="M605.6,117.2L553,95.5C561.5,116.1,585,125.8,605.6,117.2z"/>
			<path class="st5" d="M553,95.5l52.6,21.8C597.1,96.6,573.6,86.9,553,95.5z"/>
		</g>
		<g>
			<path class="st4" d="M559.7,163.1l-21.8-52.6C529.4,131.1,539.1,154.6,559.7,163.1z"/>
			<path class="st5" d="M537.9,110.6l21.8,52.6C568.3,142.6,558.5,119,537.9,110.6z"/>
		</g>
		<g>
			<path class="st4" d="M494.8,163.1l21.8-52.6C496,119,486.2,142.6,494.8,163.1z"/>
			<path class="st5" d="M516.6,110.6l-21.8,52.6C515.4,154.6,525.2,131.1,516.6,110.6z"/>
		</g>
		<g>
			<path class="st4" d="M448.9,117.2l52.6-21.8C480.9,86.9,457.4,96.6,448.9,117.2z"/>
			<path class="st5" d="M501.5,95.5l-52.6,21.8C469.5,125.8,493,116.1,501.5,95.5z"/>
		</g>
		<g>
			<path class="st4" d="M448.9,52.3l52.6,21.8C493,53.5,469.5,43.8,448.9,52.3z"/>
			<path class="st5" d="M501.5,74.1l-52.6-21.8C457.4,73,480.9,82.7,501.5,74.1z"/>
		</g>
		<g>
			<path class="st4" d="M494.8,6.5L516.6,59C525.2,38.5,515.4,14.9,494.8,6.5z"/>
			<path class="st5" d="M516.6,59L494.8,6.5C486.2,27,496,50.6,516.6,59z"/>
		</g>
		<g>
			<path class="st4" d="M527.3,0v56.9C543.1,41.2,543.1,15.7,527.3,0z"/>
			<path class="st5" d="M527.3,56.9V0C511.5,15.7,511.5,41.2,527.3,56.9z"/>
		</g>
		<g>
			<path class="st4" d="M587.2,24.8L547,65.1C569.3,65.1,587.3,47.1,587.2,24.8z"/>
			<path class="st5" d="M547,65.1l40.2-40.2C564.9,24.8,546.9,42.8,547,65.1z"/>
		</g>
		<g>
			<path class="st4" d="M612.1,84.8h-56.9C570.9,100.6,596.3,100.6,612.1,84.8z"/>
			<path class="st5" d="M555.1,84.8h56.9C596.3,69,570.9,69,555.1,84.8z"/>
		</g>
		<g>
			<path class="st4" d="M587.2,144.8L547,104.5C546.9,126.8,564.9,144.8,587.2,144.8z"/>
			<path class="st5" d="M547,104.5l40.2,40.2C587.3,122.5,569.3,104.5,547,104.5z"/>
		</g>
		<g>
			<path class="st4" d="M527.3,169.6v-56.9C511.5,128.4,511.5,153.9,527.3,169.6z"/>
			<path class="st5" d="M527.3,112.7v56.9C543.1,153.9,543.1,128.4,527.3,112.7z"/>
		</g>
		<g>
			<path class="st4" d="M467.3,144.8l40.2-40.2C485.3,104.5,467.3,122.5,467.3,144.8z"/>
			<path class="st5" d="M507.5,104.5l-40.2,40.2C489.6,144.8,507.6,126.8,507.5,104.5z"/>
		</g>
		<g>
			<path class="st4" d="M442.5,84.8h56.9C483.7,69,458.2,69,442.5,84.8z"/>
			<path class="st5" d="M499.4,84.8h-56.9C458.2,100.6,483.7,100.6,499.4,84.8z"/>
		</g>
		<g>
			<path class="st4" d="M467.3,24.8l40.2,40.2C507.6,42.8,489.6,24.8,467.3,24.8z"/>
			<path class="st5" d="M507.5,65.1l-40.2-40.2C467.3,47.1,485.3,65.1,507.5,65.1z"/>
		</g>
		<g>
			<g>
				<g>
					<g>
						<path class="st6" d="M533.2,39.5c0.4-10.7-0.4-20.1-2.1-25.3c1.4,5.2,1.8,14.8,0.8,25.5c-0.4,3.9-0.9,7.5-1.5,10.9h1.9
							C532.7,47.2,533,43.5,533.2,39.5z"/>
						<path class="st6" d="M522.7,39.8c-1-10.8-0.7-20.3,0.8-25.5c-1.7,5.2-2.6,14.6-2.1,25.3c0.2,4,0.5,7.7,1,11.1h1.9
							C523.6,47.3,523,43.6,522.7,39.8z"/>
					</g>
					<path class="st6" d="M527.3,9.2c-0.6,8.5-1.1,23.7-1.2,41.5h2.3C528.3,32.9,527.9,17.7,527.3,9.2z"/>
				</g>
				<g>
					<g>
						<path class="st6" d="M550.1,45.2c4.5-9.7,7.3-18.8,7.7-24.2c-0.7,5.4-4,14.3-9.1,23.9c-1.8,3.4-3.7,6.6-5.6,9.5l1.8,0.7
							C546.6,52.2,548.4,48.8,550.1,45.2z"/>
						<path class="st6" d="M540.3,41.4c3.2-10.4,7.2-19,10.5-23.3c-3.5,4.1-7.9,12.5-11.6,22.6c-1.4,3.7-2.5,7.3-3.4,10.7l1.8,0.7
							C538.2,48.8,539.1,45.2,540.3,41.4z"/>
					</g>
					<path class="st6" d="M556.2,14.9c-3.8,7.6-10.1,21.5-16.9,37.9l2.2,0.9C548.1,37.2,553.5,23,556.2,14.9z"/>
				</g>
				<g>
					<g>
						<path class="st6" d="M563.5,57c7.9-7.3,13.9-14.5,16.4-19.4c-2.7,4.7-9.2,11.7-17.5,18.6c-3,2.5-6,4.7-8.8,6.6l1.4,1.4
							C557.7,62.1,560.5,59.7,563.5,57z"/>
						<path class="st6" d="M555.8,49.7c6.9-8.4,13.9-14.8,18.6-17.5c-4.8,2.5-12.1,8.5-19.4,16.4c-2.7,2.9-5.1,5.8-7.2,8.5l1.4,1.4
							C551.2,55.7,553.4,52.7,555.8,49.7z"/>
					</g>
					<path class="st6" d="M580.7,31.3c-6.4,5.6-17.5,16-30.1,28.5l1.7,1.7C564.7,48.8,575.2,37.8,580.7,31.3z"/>
				</g>
				<g>
					<g>
						<path class="st6" d="M571.3,72.9c10.1-3.7,18.4-8.1,22.6-11.6c-4.3,3.3-13,7.3-23.3,10.5c-3.7,1.1-7.3,2.1-10.6,2.8l0.7,1.8
							C564,75.4,567.6,74.3,571.3,72.9z"/>
						<path class="st6" d="M567.1,63.3c9.6-5.1,18.5-8.4,23.9-9.1c-5.4,0.4-14.5,3.2-24.2,7.7c-3.6,1.7-6.9,3.4-9.9,5.1l0.7,1.8
							C560.5,67,563.7,65.2,567.1,63.3z"/>
					</g>
					<path class="st6" d="M597.1,55.9c-8.1,2.7-22.3,8.1-38.8,14.8l0.9,2.2C575.6,65.9,589.5,59.7,597.1,55.9z"/>
				</g>
				<g>
					<g>
						<path class="st6" d="M572.5,90.7c10.7,0.4,20.1-0.4,25.3-2.1c-5.2,1.4-14.8,1.8-25.5,0.8c-3.9-0.4-7.5-0.9-10.9-1.5v1.9
							C564.8,90.2,568.6,90.6,572.5,90.7z"/>
						<path class="st6" d="M572.3,80.2c10.8-1,20.3-0.7,25.5,0.8c-5.2-1.7-14.6-2.6-25.3-2.1c-4,0.2-7.7,0.5-11.1,1v1.9
							C564.7,81.1,568.4,80.6,572.3,80.2z"/>
					</g>
					<path class="st6" d="M602.9,84.8c-8.5-0.6-23.7-1.1-41.5-1.2V86C579.2,85.9,594.4,85.4,602.9,84.8z"/>
				</g>
				<g>
					<g>
						<path class="st6" d="M566.8,107.6c9.7,4.5,18.8,7.3,24.2,7.7c-5.4-0.7-14.3-4-23.9-9.1c-3.4-1.8-6.6-3.7-9.5-5.6l-0.7,1.8
							C559.9,104.2,563.2,105.9,566.8,107.6z"/>
						<path class="st6" d="M570.6,97.8c10.4,3.2,19,7.2,23.3,10.5c-4.1-3.5-12.5-7.9-22.6-11.6c-3.7-1.4-7.3-2.5-10.7-3.4L560,95
							C563.3,95.7,566.9,96.6,570.6,97.8z"/>
					</g>
					<path class="st6" d="M597.1,113.7c-7.6-3.8-21.5-10.1-37.9-16.9l-0.9,2.2C574.8,105.7,589,111.1,597.1,113.7z"/>
				</g>
				<g>
					<g>
						<path class="st6" d="M555.1,121c7.3,7.9,14.5,13.9,19.4,16.4c-4.7-2.7-11.7-9.2-18.6-17.5c-2.5-3-4.7-6-6.6-8.8l-1.4,1.4
							C550,115.2,552.4,118.1,555.1,121z"/>
						<path class="st6" d="M562.3,113.4c8.4,6.9,14.8,13.9,17.5,18.6c-2.5-4.8-8.5-12.1-16.4-19.4c-2.9-2.7-5.8-5.1-8.5-7.2
							l-1.4,1.4C556.4,108.7,559.3,110.9,562.3,113.4z"/>
					</g>
					<path class="st6" d="M580.7,138.2c-5.6-6.4-16-17.5-28.5-30.1l-1.7,1.7C563.2,122.3,574.3,132.7,580.7,138.2z"/>
				</g>
				<g>
					<g>
						<path class="st6" d="M539.1,128.9c3.7,10.1,8.1,18.4,11.6,22.6c-3.3-4.3-7.3-13-10.5-23.3c-1.1-3.7-2.1-7.3-2.8-10.6l-1.8,0.7
							C536.6,121.6,537.8,125.2,539.1,128.9z"/>
						<path class="st6" d="M548.7,124.6c5.1,9.6,8.4,18.5,9.1,23.9c-0.4-5.4-3.2-14.5-7.7-24.2c-1.7-3.6-3.4-6.9-5.1-9.9l-1.8,0.7
							C545,118,546.9,121.2,548.7,124.6z"/>
					</g>
					<path class="st6" d="M556.2,154.6c-2.7-8.1-8.1-22.3-14.8-38.8l-2.2,0.9C546.1,133.2,552.4,147,556.2,154.6z"/>
				</g>
				<g>
					<g>
						<path class="st6" d="M521.3,130.1c-0.4,10.7,0.4,20.1,2.1,25.3c-1.4-5.2-1.8-14.8-0.8-25.5c0.4-3.9,0.9-7.5,1.5-10.9h-1.9
							C521.8,122.3,521.5,126.1,521.3,130.1z"/>
						<path class="st6" d="M531.8,129.8c1,10.8,0.7,20.3-0.8,25.5c1.7-5.2,2.6-14.6,2.1-25.3c-0.2-4-0.5-7.7-1-11.1h-1.9
							C530.9,122.3,531.5,125.9,531.8,129.8z"/>
					</g>
					<path class="st6" d="M527.3,160.4c0.6-8.5,1.1-23.7,1.2-41.5h-2.3C526.2,136.7,526.6,151.9,527.3,160.4z"/>
				</g>
				<g>
					<g>
						<path class="st6" d="M504.5,124.3c-4.5,9.7-7.3,18.8-7.7,24.2c0.7-5.4,4-14.3,9.1-23.9c1.8-3.4,3.7-6.6,5.6-9.5l-1.8-0.7
							C507.9,117.4,506.1,120.8,504.5,124.3z"/>
						<path class="st6" d="M514.3,128.1c-3.2,10.4-7.2,19-10.5,23.3c3.5-4.1,7.9-12.5,11.6-22.6c1.4-3.7,2.5-7.3,3.4-10.7l-1.8-0.7
							C516.3,120.8,515.4,124.4,514.3,128.1z"/>
					</g>
					<path class="st6" d="M498.3,154.6c3.8-7.6,10.1-21.5,16.9-37.9l-2.2-0.9C506.4,132.4,501,146.6,498.3,154.6z"/>
				</g>
				<g>
					<g>
						<path class="st6" d="M491.1,112.6c-7.9,7.3-13.9,14.5-16.4,19.4c2.7-4.7,9.2-11.7,17.5-18.6c3-2.5,6-4.7,8.8-6.6l-1.4-1.4
							C496.9,107.5,494,109.9,491.1,112.6z"/>
						<path class="st6" d="M498.7,119.9c-6.9,8.4-13.9,14.8-18.6,17.5c4.8-2.5,12.1-8.5,19.4-16.4c2.7-2.9,5.1-5.8,7.2-8.5l-1.4-1.4
							C503.4,113.9,501.1,116.9,498.7,119.9z"/>
					</g>
					<path class="st6" d="M473.8,138.3c6.4-5.6,17.5-16,30.1-28.5l-1.7-1.7C489.8,120.8,479.4,131.8,473.8,138.3z"/>
				</g>
				<g>
					<g>
						<path class="st6" d="M483.2,96.6c-10.1,3.7-18.4,8.1-22.6,11.6c4.3-3.3,13-7.3,23.3-10.5c3.7-1.1,7.3-2.1,10.6-2.8l-0.7-1.8
							C490.5,94.2,486.9,95.3,483.2,96.6z"/>
						<path class="st6" d="M487.4,106.3c-9.6,5.1-18.5,8.4-23.9,9.1c5.4-0.4,14.5-3.2,24.2-7.7c3.6-1.7,6.9-3.4,9.9-5.1l-0.7-1.8
							C494.1,102.5,490.9,104.4,487.4,106.3z"/>
					</g>
					<path class="st6" d="M457.4,113.7c8.1-2.7,22.3-8.1,38.8-14.8l-0.9-2.2C478.9,103.7,465,109.9,457.4,113.7z"/>
				</g>
				<g>
					<g>
						<path class="st6" d="M482,78.9c-10.7-0.4-20.1,0.4-25.3,2.1c5.2-1.4,14.8-1.8,25.5-0.8c3.9,0.4,7.5,0.9,10.9,1.5v-1.9
							C489.7,79.4,486,79,482,78.9z"/>
						<path class="st6" d="M482.2,89.4c-10.8,1-20.3,0.7-25.5-0.8c5.2,1.7,14.6,2.6,25.3,2.1c4-0.2,7.7-0.5,11.1-1v-1.9
							C489.8,88.5,486.1,89,482.2,89.4z"/>
					</g>
					<path class="st6" d="M451.7,84.8c8.5,0.6,23.7,1.1,41.5,1.2v-2.3C475.3,83.7,460.1,84.2,451.7,84.8z"/>
				</g>
				<g>
					<g>
						<path class="st6" d="M487.7,62c-9.7-4.5-18.8-7.3-24.2-7.7c5.4,0.7,14.3,4,23.9,9.1c3.4,1.8,6.6,3.7,9.5,5.6l0.7-1.8
							C494.6,65.4,491.3,63.7,487.7,62z"/>
						<path class="st6" d="M483.9,71.8c-10.4-3.2-19-7.2-23.3-10.5c4.1,3.5,12.5,7.9,22.6,11.6c3.7,1.4,7.3,2.5,10.7,3.4l0.7-1.8
							C491.2,73.9,487.6,72.9,483.9,71.8z"/>
					</g>
					<path class="st6" d="M457.4,55.9c7.6,3.8,21.5,10.1,37.9,16.9l0.9-2.2C479.7,63.9,465.5,58.5,457.4,55.9z"/>
				</g>
				<g>
					<g>
						<path class="st6" d="M499.4,48.6c-7.3-7.9-14.5-13.9-19.4-16.4c4.7,2.7,11.7,9.2,18.6,17.5c2.5,3,4.7,6,6.6,8.8l1.4-1.4
							C504.5,54.4,502.1,51.5,499.4,48.6z"/>
						<path class="st6" d="M492.2,56.2c-8.4-6.9-14.8-13.9-17.5-18.6c2.5,4.8,8.5,12.1,16.4,19.4c2.9,2.7,5.8,5.1,8.5,7.2l1.4-1.4
							C498.2,60.9,495.2,58.7,492.2,56.2z"/>
					</g>
					<path class="st6" d="M473.8,31.3c5.6,6.4,16,17.5,28.5,30.1l1.7-1.7C491.3,47.3,480.2,36.9,473.8,31.3z"/>
				</g>
				<g>
					<g>
						<path class="st6" d="M515.4,40.7c-3.7-10.1-8.1-18.4-11.6-22.6c3.3,4.3,7.3,13,10.5,23.3c1.1,3.7,2.1,7.3,2.8,10.6l1.8-0.7
							C517.9,48,516.8,44.4,515.4,40.7z"/>
						<path class="st6" d="M505.8,45c-5.1-9.6-8.4-18.5-9.1-23.9c0.4,5.4,3.2,14.5,7.7,24.2c1.7,3.6,3.4,6.9,5.1,9.9l1.8-0.7
							C509.5,51.6,507.6,48.4,505.8,45z"/>
					</g>
					<path class="st6" d="M498.3,15c2.7,8.1,8.1,22.3,14.8,38.8l2.2-0.9C508.4,36.4,502.2,22.6,498.3,15z"/>
				</g>
			</g>
		</g>
		<g>
			<path class="st7" d="M559.2,71.6c7.3,17.6-1.1,37.8-18.7,45.2c-17.6,7.3-37.8-1.1-45.1-18.7c-7.3-17.6,1.1-37.8,18.7-45.2
				C531.7,45.6,551.9,53.9,559.2,71.6z"/>
			<path class="st8" d="M552.5,61.7c-0.6,0.3-1.4,0-1.6-0.7c-0.2-0.4-0.1-0.9,0.2-1.3c-1.7-1.7-3.7-3.1-5.7-4.4c0,0-0.1,0-0.1,0.1
				c-0.6,0.3-1.4,0-1.6-0.7c-0.1-0.1-0.1-0.3-0.1-0.4c-1.1-0.6-2.2-1.1-3.4-1.6c-0.1,0.2-0.3,0.3-0.5,0.4c-0.6,0.3-1.4,0-1.6-0.7
				c-0.1-0.2-0.1-0.3-0.1-0.5c-1.3-0.4-2.7-0.8-4.1-1.1c-0.3,0.1-0.7,0-0.9-0.2c-0.8-0.1-1.6-0.2-2.4-0.3c0.1,0.1,0.2,0.3,0.3,0.4
				c0.3,0.6,0,1.4-0.7,1.6c-0.6,0.3-1.4,0-1.6-0.7c-0.2-0.6,0-1.2,0.4-1.5c-2.5-0.1-5.1,0-7.6,0.5c0,0.4-0.3,0.8-0.8,1
				c-0.6,0.2-1.3,0-1.6-0.5c-0.6,0.1-1.2,0.3-1.8,0.5c0,0,0,0,0,0.1c0.3,0.6,0,1.4-0.7,1.6c-0.6,0.3-1.4,0-1.6-0.7
				c0-0.1,0-0.1-0.1-0.2c-0.3,0.1-0.6,0.2-0.8,0.3c-0.3,0.1-0.6,0.2-0.8,0.4c0,0.1,0.1,0.1,0.1,0.2c0.3,0.6,0,1.4-0.7,1.6
				c-0.6,0.3-1.4,0-1.6-0.7c0,0,0,0,0-0.1c-0.5,0.3-1.1,0.6-1.6,0.9c0.2,0.6-0.1,1.2-0.7,1.5c-0.4,0.2-0.9,0.1-1.3-0.2
				c-2.1,1.5-4,3.2-5.7,5c0.6-0.1,1.1,0.2,1.4,0.8c0.3,0.6,0,1.4-0.7,1.6c-0.6,0.3-1.4,0-1.6-0.7c-0.1-0.2-0.1-0.3-0.1-0.5
				c-0.5,0.6-1,1.3-1.5,1.9c-0.1,0.3-0.3,0.6-0.5,0.8c-0.8,1.2-1.5,2.4-2.1,3.6c0.1,0.1,0.2,0.3,0.3,0.4c0.3,0.6,0,1.4-0.7,1.6
				c-0.2,0.1-0.4,0.1-0.6,0.1c-0.5,1.1-0.9,2.3-1.3,3.5c0.1,0.1,0.2,0.2,0.2,0.4c0.3,0.6,0,1.4-0.7,1.6c0,0-0.1,0-0.1,0
				c-0.6,2.3-0.9,4.7-0.9,7.1c0.5,0,0.9,0.3,1,0.8c0.3,0.6,0,1.4-0.7,1.6c-0.1,0-0.2,0.1-0.3,0.1c0.2,3.9,1,7.8,2.6,11.6
				c1.6,3.8,3.7,7.1,6.3,10c0.1-0.1,0.2-0.1,0.3-0.2c0.6-0.3,1.4,0,1.6,0.7c0.2,0.4,0.1,0.9-0.2,1.3c1.7,1.7,3.7,3.1,5.7,4.4
				c0,0,0.1,0,0.1-0.1c0.6-0.3,1.4,0,1.6,0.7c0.1,0.1,0.1,0.3,0.1,0.4c1.1,0.6,2.2,1.1,3.4,1.6c0.1-0.2,0.3-0.3,0.5-0.4
				c0.6-0.3,1.4,0,1.6,0.7c0.1,0.2,0.1,0.3,0.1,0.5c1.3,0.4,2.7,0.8,4.1,1.1c0.3-0.1,0.7,0,0.9,0.2c0.8,0.1,1.6,0.2,2.4,0.3
				c-0.1-0.1-0.2-0.3-0.3-0.4c-0.3-0.6,0-1.4,0.7-1.6c0.6-0.3,1.4,0,1.6,0.7c0.2,0.6,0,1.2-0.4,1.5c2.5,0.1,5.1,0,7.6-0.5
				c0-0.4,0.3-0.8,0.8-1c0.6-0.2,1.3,0,1.6,0.5c0.6-0.1,1.2-0.3,1.8-0.5c0,0,0,0,0-0.1c-0.3-0.6,0-1.4,0.7-1.6
				c0.6-0.3,1.4,0,1.6,0.7c0,0.1,0,0.1,0.1,0.2c0.3-0.1,0.6-0.2,0.8-0.3c0.3-0.1,0.6-0.2,0.8-0.4c0-0.1-0.1-0.1-0.1-0.2
				c-0.3-0.6,0-1.4,0.7-1.6c0.6-0.3,1.4,0,1.6,0.7c0,0,0,0,0,0.1c0.5-0.3,1.1-0.6,1.6-0.9c-0.2-0.6,0.1-1.2,0.7-1.5
				c0.4-0.2,0.9-0.1,1.3,0.2c2.1-1.5,4-3.2,5.7-5c-0.6,0.1-1.1-0.2-1.4-0.8c-0.3-0.6,0-1.4,0.7-1.6c0.6-0.3,1.4,0,1.6,0.7
				c0.1,0.2,0.1,0.3,0.1,0.5c0.5-0.6,1-1.3,1.5-1.9c0.1-0.3,0.3-0.6,0.5-0.8c0.8-1.2,1.5-2.4,2.1-3.6c-0.1-0.1-0.2-0.3-0.3-0.4
				c-0.3-0.6,0-1.4,0.7-1.6c0.2-0.1,0.4-0.1,0.6-0.1c0.5-1.1,0.9-2.3,1.3-3.5c-0.1-0.1-0.2-0.2-0.2-0.4c-0.3-0.6,0-1.4,0.7-1.6
				c0,0,0.1,0,0.1,0c0.6-2.3,0.9-4.7,0.9-7.1c-0.4,0-0.9-0.3-1-0.8c-0.3-0.6,0-1.4,0.7-1.6c0.1,0,0.2-0.1,0.3-0.1
				c-0.2-3.9-1-7.8-2.6-11.6c-1.6-3.8-3.7-7.1-6.3-10C552.8,61.6,552.7,61.7,552.5,61.7z M501.3,106.2c-0.6,0.3-1.4,0-1.6-0.7
				c-0.3-0.6,0-1.4,0.7-1.6c0.6-0.3,1.4,0,1.6,0.7C502.2,105.2,501.9,105.9,501.3,106.2z M499.6,102.2c-0.6,0.3-1.4,0-1.6-0.7
				c-0.3-0.6,0-1.4,0.7-1.6c0.6-0.3,1.4,0,1.6,0.7C500.6,101.2,500.3,102,499.6,102.2z M498,98.3c-0.6,0.3-1.4,0-1.6-0.7
				c-0.3-0.6,0-1.4,0.7-1.6c0.6-0.3,1.4,0,1.6,0.7C498.9,97.3,498.6,98,498,98.3z M496.4,94.3c-0.6,0.3-1.4,0-1.6-0.7
				c-0.3-0.6,0-1.4,0.7-1.6c0.6-0.3,1.4,0,1.6,0.7C497.3,93.3,497,94,496.4,94.3z M494.7,90.3c-0.6,0.3-1.4,0-1.6-0.7
				c-0.3-0.6,0-1.4,0.7-1.6c0.6-0.3,1.4,0,1.6,0.7C495.7,89.3,495.4,90.1,494.7,90.3z M508.5,112.5c-0.6,0.3-1.4,0-1.6-0.7
				c-0.3-0.6,0-1.4,0.7-1.6c0.6-0.3,1.4,0,1.6,0.7C509.5,111.5,509.2,112.2,508.5,112.5z M506.9,108.5c-0.6,0.3-1.4,0-1.6-0.7
				c-0.3-0.6,0-1.4,0.7-1.6c0.6-0.3,1.4,0,1.6,0.7C507.8,107.5,507.5,108.3,506.9,108.5z M505.3,104.6c-0.6,0.3-1.4,0-1.6-0.7
				c-0.3-0.6,0-1.4,0.7-1.6c0.6-0.3,1.4,0,1.6,0.7C506.2,103.6,505.9,104.3,505.3,104.6z M503.6,100.6c-0.6,0.3-1.4,0-1.6-0.7
				c-0.3-0.6,0-1.4,0.7-1.6c0.6-0.3,1.4,0,1.6,0.7C504.6,99.6,504.2,100.3,503.6,100.6z M502,96.6c-0.6,0.3-1.4,0-1.6-0.7
				c-0.3-0.6,0-1.4,0.7-1.6c0.6-0.3,1.4,0,1.6,0.7C502.9,95.6,502.6,96.4,502,96.6z M500.3,92.7c-0.6,0.3-1.4,0-1.6-0.7
				c-0.3-0.6,0-1.4,0.7-1.6c0.6-0.3,1.4,0,1.6,0.7C501.3,91.7,501,92.4,500.3,92.7z M498.7,88.7c-0.6,0.3-1.4,0-1.6-0.7
				c-0.3-0.6,0-1.4,0.7-1.6c0.6-0.3,1.4,0,1.6,0.7C499.6,87.7,499.3,88.4,498.7,88.7z M497,84.7c-0.6,0.3-1.4,0-1.6-0.7
				c-0.3-0.6,0-1.4,0.7-1.6c0.6-0.3,1.4,0,1.6,0.7C498,83.7,497.7,84.5,497,84.7z M495.4,80.8c-0.6,0.3-1.4,0-1.6-0.7
				c-0.3-0.6,0-1.4,0.7-1.6c0.6-0.3,1.4,0,1.6,0.7C496.3,79.8,496,80.5,495.4,80.8z M514.1,114.8c-0.6,0.3-1.4,0-1.6-0.7
				c-0.3-0.6,0-1.4,0.7-1.6c0.6-0.3,1.4,0,1.6,0.7C515.1,113.8,514.8,114.5,514.1,114.8z M512.5,110.8c-0.6,0.3-1.4,0-1.6-0.7
				c-0.3-0.6,0-1.4,0.7-1.6c0.6-0.3,1.4,0,1.6,0.7C513.4,109.8,513.1,110.6,512.5,110.8z M510.9,106.9c-0.6,0.3-1.4,0-1.6-0.7
				c-0.3-0.6,0-1.4,0.7-1.6c0.6-0.3,1.4,0,1.6,0.7C511.8,105.9,511.5,106.6,510.9,106.9z M509.2,102.9c-0.6,0.3-1.4,0-1.6-0.7
				c-0.3-0.6,0-1.4,0.7-1.6c0.6-0.3,1.4,0,1.6,0.7C510.2,101.9,509.9,102.6,509.2,102.9z M507.6,98.9c-0.6,0.3-1.4,0-1.6-0.7
				c-0.3-0.6,0-1.4,0.7-1.6c0.6-0.3,1.4,0,1.6,0.7C508.5,98,508.2,98.7,507.6,98.9z M505.9,95c-0.6,0.3-1.4,0-1.6-0.7
				c-0.3-0.6,0-1.4,0.7-1.6c0.6-0.3,1.4,0,1.6,0.7C506.9,94,506.6,94.7,505.9,95z M504.3,91c-0.6,0.3-1.4,0-1.6-0.7
				c-0.3-0.6,0-1.4,0.7-1.6c0.6-0.3,1.4,0,1.6,0.7C505.2,90,504.9,90.8,504.3,91z M502.6,87.1c-0.6,0.3-1.4,0-1.6-0.7
				c-0.3-0.6,0-1.4,0.7-1.6c0.6-0.3,1.4,0,1.6,0.7C503.6,86.1,503.3,86.8,502.6,87.1z M501,83.1c-0.6,0.3-1.4,0-1.6-0.7
				c-0.3-0.6,0-1.4,0.7-1.6c0.6-0.3,1.4,0,1.6,0.7C501.9,82.1,501.6,82.8,501,83.1z M499.4,79.1c-0.6,0.3-1.4,0-1.6-0.7
				c-0.3-0.6,0-1.4,0.7-1.6c0.6-0.3,1.4,0,1.6,0.7C500.3,78.1,500,78.9,499.4,79.1z M497.7,75.2c-0.6,0.3-1.4,0-1.6-0.7
				c-0.3-0.6,0-1.4,0.7-1.6c0.6-0.3,1.4,0,1.6,0.7C498.7,74.2,498.4,74.9,497.7,75.2z M519.8,117.1c-0.6,0.3-1.4,0-1.6-0.7
				c-0.3-0.6,0-1.4,0.7-1.6c0.6-0.3,1.4,0,1.6,0.7C520.7,116.1,520.4,116.9,519.8,117.1z M518.1,113.2c-0.6,0.3-1.4,0-1.6-0.7
				c-0.3-0.6,0-1.4,0.7-1.6c0.6-0.3,1.4,0,1.6,0.7C519.1,112.2,518.7,112.9,518.1,113.2z M516.5,109.2c-0.6,0.3-1.4,0-1.6-0.7
				c-0.3-0.6,0-1.4,0.7-1.6c0.6-0.3,1.4,0,1.6,0.7C517.4,108.2,517.1,108.9,516.5,109.2z M514.8,105.2c-0.6,0.3-1.4,0-1.6-0.7
				c-0.3-0.6,0-1.4,0.7-1.6c0.6-0.3,1.4,0,1.6,0.7C515.8,104.2,515.5,105,514.8,105.2z M513.2,101.3c-0.6,0.3-1.4,0-1.6-0.7
				c-0.3-0.6,0-1.4,0.7-1.6c0.6-0.3,1.4,0,1.6,0.7C514.1,100.3,513.8,101,513.2,101.3z M511.5,97.3c-0.6,0.3-1.4,0-1.6-0.7
				c-0.3-0.6,0-1.4,0.7-1.6c0.6-0.3,1.4,0,1.6,0.7C512.5,96.3,512.2,97,511.5,97.3z M509.9,93.3c-0.6,0.3-1.4,0-1.6-0.7
				c-0.3-0.6,0-1.4,0.7-1.6c0.6-0.3,1.4,0,1.6,0.7C510.8,92.3,510.5,93.1,509.9,93.3z M508.3,89.4c-0.6,0.3-1.4,0-1.6-0.7
				c-0.3-0.6,0-1.4,0.7-1.6c0.6-0.3,1.4,0,1.6,0.7C509.2,88.4,508.9,89.1,508.3,89.4z M506.6,85.4c-0.6,0.3-1.4,0-1.6-0.7
				c-0.3-0.6,0-1.4,0.7-1.6c0.6-0.3,1.4,0,1.6,0.7C507.6,84.4,507.3,85.1,506.6,85.4z M505,81.4c-0.6,0.3-1.4,0-1.6-0.7
				c-0.3-0.6,0-1.4,0.7-1.6c0.6-0.3,1.4,0,1.6,0.7C505.9,80.5,505.6,81.2,505,81.4z M503.3,77.5c-0.6,0.3-1.4,0-1.6-0.7
				c-0.3-0.6,0-1.4,0.7-1.6c0.6-0.3,1.4,0,1.6,0.7C504.3,76.5,504,77.2,503.3,77.5z M501.7,73.5c-0.6,0.3-1.4,0-1.6-0.7
				c-0.3-0.6,0-1.4,0.7-1.6c0.6-0.3,1.4,0,1.6,0.7C502.6,72.5,502.3,73.3,501.7,73.5z M500,69.6c-0.6,0.3-1.4,0-1.6-0.7
				c-0.3-0.6,0-1.4,0.7-1.6c0.6-0.3,1.4,0,1.6,0.7C501,68.6,500.7,69.3,500,69.6z M523.7,115.5c-0.6,0.3-1.4,0-1.6-0.7
				c-0.3-0.6,0-1.4,0.7-1.6c0.6-0.3,1.4,0,1.6,0.7C524.7,114.5,524.4,115.2,523.7,115.5z M522.1,111.5c-0.6,0.3-1.4,0-1.6-0.7
				c-0.3-0.6,0-1.4,0.7-1.6c0.6-0.3,1.4,0,1.6,0.7C523,110.5,522.7,111.3,522.1,111.5z M520.4,107.6c-0.6,0.3-1.4,0-1.6-0.7
				c-0.3-0.6,0-1.4,0.7-1.6c0.6-0.3,1.4,0,1.6,0.7C521.4,106.6,521.1,107.3,520.4,107.6z M518.8,103.6c-0.6,0.3-1.4,0-1.6-0.7
				c-0.3-0.6,0-1.4,0.7-1.6c0.6-0.3,1.4,0,1.6,0.7C519.7,102.6,519.4,103.3,518.8,103.6z M517.1,99.6c-0.6,0.3-1.4,0-1.6-0.7
				c-0.3-0.6,0-1.4,0.7-1.6c0.6-0.3,1.4,0,1.6,0.7C518.1,98.6,517.8,99.4,517.1,99.6z M515.5,95.7c-0.6,0.3-1.4,0-1.6-0.7
				c-0.3-0.6,0-1.4,0.7-1.6c0.6-0.3,1.4,0,1.6,0.7S516.1,95.4,515.5,95.7z M513.9,91.7c-0.6,0.3-1.4,0-1.6-0.7
				c-0.3-0.6,0-1.4,0.7-1.6c0.6-0.3,1.4,0,1.6,0.7C514.8,90.7,514.5,91.4,513.9,91.7z M512.2,87.7c-0.6,0.3-1.4,0-1.6-0.7
				c-0.3-0.6,0-1.4,0.7-1.6c0.6-0.3,1.4,0,1.6,0.7C513.2,86.7,512.9,87.5,512.2,87.7z M510.6,83.8c-0.6,0.3-1.4,0-1.6-0.7
				c-0.3-0.6,0-1.4,0.7-1.6c0.6-0.3,1.4,0,1.6,0.7C511.5,82.8,511.2,83.5,510.6,83.8z M508.9,79.8c-0.6,0.3-1.4,0-1.6-0.7
				c-0.3-0.6,0-1.4,0.7-1.6c0.6-0.3,1.4,0,1.6,0.7C509.9,78.8,509.6,79.5,508.9,79.8z M507.3,75.8c-0.6,0.3-1.4,0-1.6-0.7
				c-0.3-0.6,0-1.4,0.7-1.6c0.6-0.3,1.4,0,1.6,0.7C508.2,74.8,507.9,75.6,507.3,75.8z M505.7,71.9c-0.6,0.3-1.4,0-1.6-0.7
				c-0.3-0.6,0-1.4,0.7-1.6c0.6-0.3,1.4,0,1.6,0.7C506.6,70.9,506.3,71.6,505.7,71.9z M504,67.9c-0.6,0.3-1.4,0-1.6-0.7
				c-0.3-0.6,0-1.4,0.7-1.6c0.6-0.3,1.4,0,1.6,0.7C505,66.9,504.6,67.6,504,67.9z M529.3,117.8c-0.6,0.3-1.4,0-1.6-0.7
				c-0.3-0.6,0-1.4,0.7-1.6c0.6-0.3,1.4,0,1.6,0.7C530.3,116.8,530,117.5,529.3,117.8z M527.7,113.8c-0.6,0.3-1.4,0-1.6-0.7
				c-0.3-0.6,0-1.4,0.7-1.6c0.6-0.3,1.4,0,1.6,0.7C528.6,112.8,528.3,113.6,527.7,113.8z M526,109.9c-0.6,0.3-1.4,0-1.6-0.7
				c-0.3-0.6,0-1.4,0.7-1.6c0.6-0.3,1.4,0,1.6,0.7C527,108.9,526.7,109.6,526,109.9z M524.4,105.9c-0.6,0.3-1.4,0-1.6-0.7
				c-0.3-0.6,0-1.4,0.7-1.6c0.6-0.3,1.4,0,1.6,0.7C525.3,104.9,525,105.7,524.4,105.9z M522.8,102c-0.6,0.3-1.4,0-1.6-0.7
				c-0.3-0.6,0-1.4,0.7-1.6c0.6-0.3,1.4,0,1.6,0.7C523.7,101,523.4,101.7,522.8,102z M521.1,98c-0.6,0.3-1.4,0-1.6-0.7
				c-0.3-0.6,0-1.4,0.7-1.6c0.6-0.3,1.4,0,1.6,0.7C522.1,97,521.8,97.7,521.1,98z M519.5,94c-0.6,0.3-1.4,0-1.6-0.7
				c-0.3-0.6,0-1.4,0.7-1.6c0.6-0.3,1.4,0,1.6,0.7C520.4,93,520.1,93.8,519.5,94z M517.8,90.1c-0.6,0.3-1.4,0-1.6-0.7
				c-0.3-0.6,0-1.4,0.7-1.6c0.6-0.3,1.4,0,1.6,0.7C518.8,89.1,518.5,89.8,517.8,90.1z M516.2,86.1c-0.6,0.3-1.4,0-1.6-0.7
				c-0.3-0.6,0-1.4,0.7-1.6c0.6-0.3,1.4,0,1.6,0.7C517.1,85.1,516.8,85.8,516.2,86.1z M514.5,82.1c-0.6,0.3-1.4,0-1.6-0.7
				c-0.3-0.6,0-1.4,0.7-1.6c0.6-0.3,1.4,0,1.6,0.7C515.5,81.1,515.2,81.9,514.5,82.1z M512.9,78.2c-0.6,0.3-1.4,0-1.6-0.7
				c-0.3-0.6,0-1.4,0.7-1.6c0.6-0.3,1.4,0,1.6,0.7C513.8,77.2,513.5,77.9,512.9,78.2z M511.3,74.2c-0.6,0.3-1.4,0-1.6-0.7
				c-0.3-0.6,0-1.4,0.7-1.6c0.6-0.3,1.4,0,1.6,0.7C512.2,73.2,511.9,73.9,511.3,74.2z M509.6,70.2c-0.6,0.3-1.4,0-1.6-0.7
				c-0.3-0.6,0-1.4,0.7-1.6c0.6-0.3,1.4,0,1.6,0.7C510.6,69.2,510.3,70,509.6,70.2z M508,66.3c-0.6,0.3-1.4,0-1.6-0.7
				c-0.3-0.6,0-1.4,0.7-1.6c0.6-0.3,1.4,0,1.6,0.7C508.9,65.3,508.6,66,508,66.3z M506.3,62.3c-0.6,0.3-1.4,0-1.6-0.7
				c-0.3-0.6,0-1.4,0.7-1.6c0.6-0.3,1.4,0,1.6,0.7C507.3,61.3,507,62,506.3,62.3z M533.3,116.2c-0.6,0.3-1.4,0-1.6-0.7
				c-0.3-0.6,0-1.4,0.7-1.6c0.6-0.3,1.4,0,1.6,0.7C534.2,115.2,533.9,115.9,533.3,116.2z M531.6,112.2c-0.6,0.3-1.4,0-1.6-0.7
				c-0.3-0.6,0-1.4,0.7-1.6c0.6-0.3,1.4,0,1.6,0.7C532.6,111.2,532.3,111.9,531.6,112.2z M530,108.2c-0.6,0.3-1.4,0-1.6-0.7
				c-0.3-0.6,0-1.4,0.7-1.6c0.6-0.3,1.4,0,1.6,0.7C530.9,107.2,530.6,108,530,108.2z M528.4,104.3c-0.6,0.3-1.4,0-1.6-0.7
				c-0.3-0.6,0-1.4,0.7-1.6c0.6-0.3,1.4,0,1.6,0.7C529.3,103.3,529,104,528.4,104.3z M526.7,100.3c-0.6,0.3-1.4,0-1.6-0.7
				c-0.3-0.6,0-1.4,0.7-1.6c0.6-0.3,1.4,0,1.6,0.7C527.7,99.3,527.4,100,526.7,100.3z M525.1,96.3c-0.6,0.3-1.4,0-1.6-0.7
				c-0.3-0.6,0-1.4,0.7-1.6c0.6-0.3,1.4,0,1.6,0.7C526,95.3,525.7,96.1,525.1,96.3z M523.4,92.4c-0.6,0.3-1.4,0-1.6-0.7
				c-0.3-0.6,0-1.4,0.7-1.6c0.6-0.3,1.4,0,1.6,0.7C524.4,91.4,524.1,92.1,523.4,92.4z M521.8,88.4c-0.6,0.3-1.4,0-1.6-0.7
				c-0.3-0.6,0-1.4,0.7-1.6c0.6-0.3,1.4,0,1.6,0.7C522.7,87.4,522.4,88.2,521.8,88.4z M520.2,84.4c-0.6,0.3-1.4,0-1.6-0.7
				c-0.3-0.6,0-1.4,0.7-1.6c0.6-0.3,1.4,0,1.6,0.7C521.1,83.5,520.8,84.2,520.2,84.4z M518.5,80.5c-0.6,0.3-1.4,0-1.6-0.7
				c-0.3-0.6,0-1.4,0.7-1.6c0.6-0.3,1.4,0,1.6,0.7C519.4,79.5,519.1,80.2,518.5,80.5z M516.9,76.5c-0.6,0.3-1.4,0-1.6-0.7
				c-0.3-0.6,0-1.4,0.7-1.6c0.6-0.3,1.4,0,1.6,0.7C517.8,75.5,517.5,76.3,516.9,76.5z M515.2,72.6c-0.6,0.3-1.4,0-1.6-0.7
				c-0.3-0.6,0-1.4,0.7-1.6c0.6-0.3,1.4,0,1.6,0.7C516.2,71.6,515.9,72.3,515.2,72.6z M513.6,68.6c-0.6,0.3-1.4,0-1.6-0.7
				c-0.3-0.6,0-1.4,0.7-1.6c0.6-0.3,1.4,0,1.6,0.7C514.5,67.6,514.2,68.3,513.6,68.6z M511.9,64.6c-0.6,0.3-1.4,0-1.6-0.7
				c-0.3-0.6,0-1.4,0.7-1.6c0.6-0.3,1.4,0,1.6,0.7C512.9,63.6,512.6,64.4,511.9,64.6z M510.3,60.7c-0.6,0.3-1.4,0-1.6-0.7
				c-0.3-0.6,0-1.4,0.7-1.6c0.6-0.3,1.4,0,1.6,0.7C511.2,59.7,510.9,60.4,510.3,60.7z M537.3,114.5c-0.6,0.3-1.4,0-1.6-0.7
				c-0.3-0.6,0-1.4,0.7-1.6c0.6-0.3,1.4,0,1.6,0.7C538.2,113.5,537.9,114.3,537.3,114.5z M535.6,110.6c-0.6,0.3-1.4,0-1.6-0.7
				c-0.3-0.6,0-1.4,0.7-1.6c0.6-0.3,1.4,0,1.6,0.7C536.6,109.6,536.2,110.3,535.6,110.6z M534,106.6c-0.6,0.3-1.4,0-1.6-0.7
				c-0.3-0.6,0-1.4,0.7-1.6c0.6-0.3,1.4,0,1.6,0.7C534.9,105.6,534.6,106.3,534,106.6z M532.3,102.6c-0.6,0.3-1.4,0-1.6-0.7
				c-0.3-0.6,0-1.4,0.7-1.6c0.6-0.3,1.4,0,1.6,0.7C533.3,101.6,533,102.4,532.3,102.6z M530.7,98.7c-0.6,0.3-1.4,0-1.6-0.7
				c-0.3-0.6,0-1.4,0.7-1.6c0.6-0.3,1.4,0,1.6,0.7C531.6,97.7,531.3,98.4,530.7,98.7z M529,94.7c-0.6,0.3-1.4,0-1.6-0.7
				c-0.3-0.6,0-1.4,0.7-1.6c0.6-0.3,1.4,0,1.6,0.7C530,93.7,529.7,94.4,529,94.7z M527.4,90.7c-0.6,0.3-1.4,0-1.6-0.7
				c-0.3-0.6,0-1.4,0.7-1.6c0.6-0.3,1.4,0,1.6,0.7C528.3,89.7,528,90.5,527.4,90.7z M525.8,86.8c-0.6,0.3-1.4,0-1.6-0.7
				c-0.3-0.6,0-1.4,0.7-1.6c0.6-0.3,1.4,0,1.6,0.7C526.7,85.8,526.4,86.5,525.8,86.8z M524.1,82.8c-0.6,0.3-1.4,0-1.6-0.7
				c-0.3-0.6,0-1.4,0.7-1.6c0.6-0.3,1.4,0,1.6,0.7C525.1,81.8,524.8,82.5,524.1,82.8z M522.5,78.8c-0.6,0.3-1.4,0-1.6-0.7
				c-0.3-0.6,0-1.4,0.7-1.6c0.6-0.3,1.4,0,1.6,0.7C523.4,77.8,523.1,78.6,522.5,78.8z M520.8,74.9c-0.6,0.3-1.4,0-1.6-0.7
				c-0.3-0.6,0-1.4,0.7-1.6c0.6-0.3,1.4,0,1.6,0.7C521.8,73.9,521.5,74.6,520.8,74.9z M519.2,70.9c-0.6,0.3-1.4,0-1.6-0.7
				c-0.3-0.6,0-1.4,0.7-1.6c0.6-0.3,1.4,0,1.6,0.7C520.1,69.9,519.8,70.6,519.2,70.9z M517.5,66.9c-0.6,0.3-1.4,0-1.6-0.7
				c-0.3-0.6,0-1.4,0.7-1.6c0.6-0.3,1.4,0,1.6,0.7C518.5,66,518.2,66.7,517.5,66.9z M515.9,63c-0.6,0.3-1.4,0-1.6-0.7
				c-0.3-0.6,0-1.4,0.7-1.6c0.6-0.3,1.4,0,1.6,0.7C516.8,62,516.5,62.7,515.9,63z M514.3,59c-0.6,0.3-1.4,0-1.6-0.7
				c-0.3-0.6,0-1.4,0.7-1.6c0.6-0.3,1.4,0,1.6,0.7C515.2,58,514.9,58.8,514.3,59z M541.2,112.9c-0.6,0.3-1.4,0-1.6-0.7
				c-0.3-0.6,0-1.4,0.7-1.6c0.6-0.3,1.4,0,1.6,0.7C542.2,111.9,541.9,112.6,541.2,112.9z M539.6,108.9c-0.6,0.3-1.4,0-1.6-0.7
				c-0.3-0.6,0-1.4,0.7-1.6c0.6-0.3,1.4,0,1.6,0.7C540.5,107.9,540.2,108.7,539.6,108.9z M537.9,105c-0.6,0.3-1.4,0-1.6-0.7
				c-0.3-0.6,0-1.4,0.7-1.6c0.6-0.3,1.4,0,1.6,0.7C538.9,104,538.6,104.7,537.9,105z M536.3,101c-0.6,0.3-1.4,0-1.6-0.7
				c-0.3-0.6,0-1.4,0.7-1.6c0.6-0.3,1.4,0,1.6,0.7C537.2,100,536.9,100.7,536.3,101z M534.7,97c-0.6,0.3-1.4,0-1.6-0.7
				c-0.3-0.6,0-1.4,0.7-1.6c0.6-0.3,1.4,0,1.6,0.7C535.6,96,535.3,96.8,534.7,97z M533,93.1c-0.6,0.3-1.4,0-1.6-0.7
				c-0.3-0.6,0-1.4,0.7-1.6c0.6-0.3,1.4,0,1.6,0.7C533.9,92.1,533.6,92.8,533,93.1z M531.4,89.1c-0.6,0.3-1.4,0-1.6-0.7
				c-0.3-0.6,0-1.4,0.7-1.6c0.6-0.3,1.4,0,1.6,0.7C532.3,88.1,532,88.8,531.4,89.1z M529.7,85.1c-0.6,0.3-1.4,0-1.6-0.7
				s0-1.4,0.7-1.6c0.6-0.3,1.4,0,1.6,0.7C530.7,84.1,530.4,84.9,529.7,85.1z M528.1,81.2c-0.6,0.3-1.4,0-1.6-0.7
				c-0.3-0.6,0-1.4,0.7-1.6c0.6-0.3,1.4,0,1.6,0.7C529,80.2,528.7,80.9,528.1,81.2z M526.4,77.2c-0.6,0.3-1.4,0-1.6-0.7
				c-0.3-0.6,0-1.4,0.7-1.6c0.6-0.3,1.4,0,1.6,0.7C527.4,76.2,527.1,76.9,526.4,77.2z M524.8,73.2c-0.6,0.3-1.4,0-1.6-0.7
				c-0.3-0.6,0-1.4,0.7-1.6c0.6-0.3,1.4,0,1.6,0.7C525.7,72.2,525.4,73,524.8,73.2z M523.2,69.3c-0.6,0.3-1.4,0-1.6-0.7
				c-0.3-0.6,0-1.4,0.7-1.6c0.6-0.3,1.4,0,1.6,0.7C524.1,68.3,523.8,69,523.2,69.3z M521.5,65.3c-0.6,0.3-1.4,0-1.6-0.7
				c-0.3-0.6,0-1.4,0.7-1.6c0.6-0.3,1.4,0,1.6,0.7C522.5,64.3,522.1,65,521.5,65.3z M519.9,61.3c-0.6,0.3-1.4,0-1.6-0.7
				c-0.3-0.6,0-1.4,0.7-1.6c0.6-0.3,1.4,0,1.6,0.7C520.8,60.3,520.5,61.1,519.9,61.3z M518.2,57.4c-0.6,0.3-1.4,0-1.6-0.7
				c-0.3-0.6,0-1.4,0.7-1.6c0.6-0.3,1.4,0,1.6,0.7C519.2,56.4,518.9,57.1,518.2,57.4z M545.2,111.2c-0.6,0.3-1.4,0-1.6-0.7
				c-0.3-0.6,0-1.4,0.7-1.6c0.6-0.3,1.4,0,1.6,0.7C546.1,110.2,545.8,111,545.2,111.2z M543.5,107.3c-0.6,0.3-1.4,0-1.6-0.7
				c-0.3-0.6,0-1.4,0.7-1.6c0.6-0.3,1.4,0,1.6,0.7C544.5,106.3,544.2,107,543.5,107.3z M541.9,103.3c-0.6,0.3-1.4,0-1.6-0.7
				c-0.3-0.6,0-1.4,0.7-1.6c0.6-0.3,1.4,0,1.6,0.7C542.8,102.3,542.5,103,541.9,103.3z M540.3,99.3c-0.6,0.3-1.4,0-1.6-0.7
				c-0.3-0.6,0-1.4,0.7-1.6c0.6-0.3,1.4,0,1.6,0.7C541.2,98.3,540.9,99.1,540.3,99.3z M538.6,95.4c-0.6,0.3-1.4,0-1.6-0.7
				c-0.3-0.6,0-1.4,0.7-1.6c0.6-0.3,1.4,0,1.6,0.7C539.6,94.4,539.3,95.1,538.6,95.4z M537,91.4c-0.6,0.3-1.4,0-1.6-0.7
				c-0.3-0.6,0-1.4,0.7-1.6c0.6-0.3,1.4,0,1.6,0.7C537.9,90.4,537.6,91.2,537,91.4z M535.3,87.5c-0.6,0.3-1.4,0-1.6-0.7
				c-0.3-0.6,0-1.4,0.7-1.6c0.6-0.3,1.4,0,1.6,0.7S536,87.2,535.3,87.5z M533.7,83.5c-0.6,0.3-1.4,0-1.6-0.7c-0.3-0.6,0-1.4,0.7-1.6
				c0.6-0.3,1.4,0,1.6,0.7C534.6,82.5,534.3,83.2,533.7,83.5z M532,79.5c-0.6,0.3-1.4,0-1.6-0.7c-0.3-0.6,0-1.4,0.7-1.6
				c0.6-0.3,1.4,0,1.6,0.7C533,78.5,532.7,79.3,532,79.5z M530.4,75.6c-0.6,0.3-1.4,0-1.6-0.7c-0.3-0.6,0-1.4,0.7-1.6
				c0.6-0.3,1.4,0,1.6,0.7C531.3,74.6,531,75.3,530.4,75.6z M528.8,71.6c-0.6,0.3-1.4,0-1.6-0.7c-0.3-0.6,0-1.4,0.7-1.6
				c0.6-0.3,1.4,0,1.6,0.7C529.7,70.6,529.4,71.3,528.8,71.6z M527.1,67.6c-0.6,0.3-1.4,0-1.6-0.7c-0.3-0.6,0-1.4,0.7-1.6
				c0.6-0.3,1.4,0,1.6,0.7C528.1,66.6,527.8,67.4,527.1,67.6z M525.5,63.7c-0.6,0.3-1.4,0-1.6-0.7c-0.3-0.6,0-1.4,0.7-1.6
				c0.6-0.3,1.4,0,1.6,0.7C526.4,62.7,526.1,63.4,525.5,63.7z M523.8,59.7c-0.6,0.3-1.4,0-1.6-0.7c-0.3-0.6,0-1.4,0.7-1.6
				c0.6-0.3,1.4,0,1.6,0.7C524.8,58.7,524.5,59.4,523.8,59.7z M522.2,55.7c-0.6,0.3-1.4,0-1.6-0.7c-0.3-0.6,0-1.4,0.7-1.6
				c0.6-0.3,1.4,0,1.6,0.7C523.1,54.7,522.8,55.5,522.2,55.7z M549.1,109.6c-0.6,0.3-1.4,0-1.6-0.7c-0.3-0.6,0-1.4,0.7-1.6
				c0.6-0.3,1.4,0,1.6,0.7C550.1,108.6,549.8,109.3,549.1,109.6z M547.5,105.6c-0.6,0.3-1.4,0-1.6-0.7c-0.3-0.6,0-1.4,0.7-1.6
				c0.6-0.3,1.4,0,1.6,0.7C548.4,104.6,548.1,105.4,547.5,105.6z M545.9,101.7c-0.6,0.3-1.4,0-1.6-0.7c-0.3-0.6,0-1.4,0.7-1.6
				c0.6-0.3,1.4,0,1.6,0.7C546.8,100.7,546.5,101.4,545.9,101.7z M544.2,97.7c-0.6,0.3-1.4,0-1.6-0.7c-0.3-0.6,0-1.4,0.7-1.6
				c0.6-0.3,1.4,0,1.6,0.7C545.2,96.7,544.9,97.4,544.2,97.7z M542.6,93.7c-0.6,0.3-1.4,0-1.6-0.7c-0.3-0.6,0-1.4,0.7-1.6
				c0.6-0.3,1.4,0,1.6,0.7C543.5,92.7,543.2,93.5,542.6,93.7z M540.9,89.8c-0.6,0.3-1.4,0-1.6-0.7c-0.3-0.6,0-1.4,0.7-1.6
				c0.6-0.3,1.4,0,1.6,0.7C541.9,88.8,541.6,89.5,540.9,89.8z M539.3,85.8c-0.6,0.3-1.4,0-1.6-0.7c-0.3-0.6,0-1.4,0.7-1.6
				c0.6-0.3,1.4,0,1.6,0.7C540.2,84.8,539.9,85.5,539.3,85.8z M537.7,81.8c-0.6,0.3-1.4,0-1.6-0.7c-0.3-0.6,0-1.4,0.7-1.6
				c0.6-0.3,1.4,0,1.6,0.7C538.6,80.8,538.3,81.6,537.7,81.8z M536,77.9c-0.6,0.3-1.4,0-1.6-0.7c-0.3-0.6,0-1.4,0.7-1.6
				c0.6-0.3,1.4,0,1.6,0.7C537,76.9,536.6,77.6,536,77.9z M534.4,73.9c-0.6,0.3-1.4,0-1.6-0.7c-0.3-0.6,0-1.4,0.7-1.6
				c0.6-0.3,1.4,0,1.6,0.7C535.3,72.9,535,73.7,534.4,73.9z M532.7,70c-0.6,0.3-1.4,0-1.6-0.7c-0.3-0.6,0-1.4,0.7-1.6
				c0.6-0.3,1.4,0,1.6,0.7C533.7,69,533.4,69.7,532.7,70z M531.1,66c-0.6,0.3-1.4,0-1.6-0.7c-0.3-0.6,0-1.4,0.7-1.6
				c0.6-0.3,1.4,0,1.6,0.7C532,65,531.7,65.7,531.1,66z M529.4,62c-0.6,0.3-1.4,0-1.6-0.7c-0.3-0.6,0-1.4,0.7-1.6
				c0.6-0.3,1.4,0,1.6,0.7C530.4,61,530.1,61.8,529.4,62z M527.8,58.1c-0.6,0.3-1.4,0-1.6-0.7c-0.3-0.6,0-1.4,0.7-1.6
				c0.6-0.3,1.4,0,1.6,0.7C528.7,57.1,528.4,57.8,527.8,58.1z M526.2,54.1c-0.6,0.3-1.4,0-1.6-0.7c-0.3-0.6,0-1.4,0.7-1.6
				c0.6-0.3,1.4,0,1.6,0.7C527.1,53.1,526.8,53.8,526.2,54.1z M551.5,104c-0.6,0.3-1.4,0-1.6-0.7c-0.3-0.6,0-1.4,0.7-1.6
				c0.6-0.3,1.4,0,1.6,0.7C552.4,103,552.1,103.7,551.5,104z M549.8,100c-0.6,0.3-1.4,0-1.6-0.7c-0.3-0.6,0-1.4,0.7-1.6
				c0.6-0.3,1.4,0,1.6,0.7C550.8,99,550.5,99.8,549.8,100z M548.2,96.1c-0.6,0.3-1.4,0-1.6-0.7c-0.3-0.6,0-1.4,0.7-1.6
				c0.6-0.3,1.4,0,1.6,0.7C549.1,95.1,548.8,95.8,548.2,96.1z M546.5,92.1c-0.6,0.3-1.4,0-1.6-0.7c-0.3-0.6,0-1.4,0.7-1.6
				c0.6-0.3,1.4,0,1.6,0.7C547.5,91.1,547.2,91.8,546.5,92.1z M544.9,88.1c-0.6,0.3-1.4,0-1.6-0.7c-0.3-0.6,0-1.4,0.7-1.6
				c0.6-0.3,1.4,0,1.6,0.7C545.8,87.1,545.5,87.9,544.9,88.1z M543.3,84.2c-0.6,0.3-1.4,0-1.6-0.7c-0.3-0.6,0-1.4,0.7-1.6
				c0.6-0.3,1.4,0,1.6,0.7C544.2,83.2,543.9,83.9,543.3,84.2z M541.6,80.2c-0.6,0.3-1.4,0-1.6-0.7c-0.3-0.6,0-1.4,0.7-1.6
				c0.6-0.3,1.4,0,1.6,0.7C542.6,79.2,542.3,79.9,541.6,80.2z M540,76.2c-0.6,0.3-1.4,0-1.6-0.7c-0.3-0.6,0-1.4,0.7-1.6
				c0.6-0.3,1.4,0,1.6,0.7C540.9,75.2,540.6,76,540,76.2z M538.3,72.3c-0.6,0.3-1.4,0-1.6-0.7c-0.3-0.6,0-1.4,0.7-1.6
				c0.6-0.3,1.4,0,1.6,0.7C539.3,71.3,539,72,538.3,72.3z M536.7,68.3c-0.6,0.3-1.4,0-1.6-0.7c-0.3-0.6,0-1.4,0.7-1.6
				c0.6-0.3,1.4,0,1.6,0.7C537.6,67.3,537.3,68,536.7,68.3z M535,64.3c-0.6,0.3-1.4,0-1.6-0.7c-0.3-0.6,0-1.4,0.7-1.6
				c0.6-0.3,1.4,0,1.6,0.7C536,63.3,535.7,64.1,535,64.3z M533.4,60.4c-0.6,0.3-1.4,0-1.6-0.7c-0.3-0.6,0-1.4,0.7-1.6
				c0.6-0.3,1.4,0,1.6,0.7C534.3,59.4,534,60.1,533.4,60.4z M531.8,56.4c-0.6,0.3-1.4,0-1.6-0.7c-0.3-0.6,0-1.4,0.7-1.6
				c0.6-0.3,1.4,0,1.6,0.7C532.7,55.4,532.4,56.2,531.8,56.4z M555.4,102.3c-0.6,0.3-1.4,0-1.6-0.7c-0.3-0.6,0-1.4,0.7-1.6
				c0.6-0.3,1.4,0,1.6,0.7C556.4,101.4,556.1,102.1,555.4,102.3z M553.8,98.4c-0.6,0.3-1.4,0-1.6-0.7c-0.3-0.6,0-1.4,0.7-1.6
				c0.6-0.3,1.4,0,1.6,0.7C554.7,97.4,554.4,98.1,553.8,98.4z M552.2,94.4c-0.6,0.3-1.4,0-1.6-0.7c-0.3-0.6,0-1.4,0.7-1.6
				c0.6-0.3,1.4,0,1.6,0.7C553.1,93.4,552.8,94.2,552.2,94.4z M550.5,90.5c-0.6,0.3-1.4,0-1.6-0.7c-0.3-0.6,0-1.4,0.7-1.6
				c0.6-0.3,1.4,0,1.6,0.7C551.4,89.5,551.1,90.2,550.5,90.5z M548.9,86.5c-0.6,0.3-1.4,0-1.6-0.7c-0.3-0.6,0-1.4,0.7-1.6
				c0.6-0.3,1.4,0,1.6,0.7C549.8,85.5,549.5,86.2,548.9,86.5z M547.2,82.5c-0.6,0.3-1.4,0-1.6-0.7c-0.3-0.6,0-1.4,0.7-1.6
				c0.6-0.3,1.4,0,1.6,0.7C548.2,81.5,547.9,82.3,547.2,82.5z M545.6,78.6c-0.6,0.3-1.4,0-1.6-0.7c-0.3-0.6,0-1.4,0.7-1.6
				c0.6-0.3,1.4,0,1.6,0.7C546.5,77.6,546.2,78.3,545.6,78.6z M543.9,74.6c-0.6,0.3-1.4,0-1.6-0.7c-0.3-0.6,0-1.4,0.7-1.6
				c0.6-0.3,1.4,0,1.6,0.7C544.9,73.6,544.6,74.3,543.9,74.6z M542.3,70.6c-0.6,0.3-1.4,0-1.6-0.7c-0.3-0.6,0-1.4,0.7-1.6
				c0.6-0.3,1.4,0,1.6,0.7C543.2,69.6,542.9,70.4,542.3,70.6z M540.7,66.7c-0.6,0.3-1.4,0-1.6-0.7c-0.3-0.6,0-1.4,0.7-1.6
				c0.6-0.3,1.4,0,1.6,0.7C541.6,65.7,541.3,66.4,540.7,66.7z M539,62.7c-0.6,0.3-1.4,0-1.6-0.7c-0.3-0.6,0-1.4,0.7-1.6
				c0.6-0.3,1.4,0,1.6,0.7C540,61.7,539.7,62.4,539,62.7z M537.4,58.7c-0.6,0.3-1.4,0-1.6-0.7c-0.3-0.6,0-1.4,0.7-1.6
				c0.6-0.3,1.4,0,1.6,0.7C538.3,57.7,538,58.5,537.4,58.7z M535.7,54.8c-0.6,0.3-1.4,0-1.6-0.7c-0.3-0.6,0-1.4,0.7-1.6
				c0.6-0.3,1.4,0,1.6,0.7C536.7,53.8,536.4,54.5,535.7,54.8z M557.8,96.7c-0.6,0.3-1.4,0-1.6-0.7c-0.3-0.6,0-1.4,0.7-1.6
				c0.6-0.3,1.4,0,1.6,0.7C558.7,95.7,558.4,96.5,557.8,96.7z M556.1,92.8c-0.6,0.3-1.4,0-1.6-0.7c-0.3-0.6,0-1.4,0.7-1.6
				c0.6-0.3,1.4,0,1.6,0.7C557.1,91.8,556.8,92.5,556.1,92.8z M554.5,88.8c-0.6,0.3-1.4,0-1.6-0.7c-0.3-0.6,0-1.4,0.7-1.6
				c0.6-0.3,1.4,0,1.6,0.7C555.4,87.8,555.1,88.5,554.5,88.8z M552.8,84.8c-0.6,0.3-1.4,0-1.6-0.7c-0.3-0.6,0-1.4,0.7-1.6
				c0.6-0.3,1.4,0,1.6,0.7C553.8,83.9,553.5,84.6,552.8,84.8z M551.2,80.9c-0.6,0.3-1.4,0-1.6-0.7c-0.3-0.6,0-1.4,0.7-1.6
				c0.6-0.3,1.4,0,1.6,0.7C552.1,79.9,551.8,80.6,551.2,80.9z M549.5,76.9c-0.6,0.3-1.4,0-1.6-0.7c-0.3-0.6,0-1.4,0.7-1.6
				c0.6-0.3,1.4,0,1.6,0.7C550.5,75.9,550.2,76.7,549.5,76.9z M547.9,73c-0.6,0.3-1.4,0-1.6-0.7c-0.3-0.6,0-1.4,0.7-1.6
				c0.6-0.3,1.4,0,1.6,0.7C548.8,72,548.5,72.7,547.9,73z M546.3,69c-0.6,0.3-1.4,0-1.6-0.7c-0.3-0.6,0-1.4,0.7-1.6
				c0.6-0.3,1.4,0,1.6,0.7C547.2,68,546.9,68.7,546.3,69z M544.6,65c-0.6,0.3-1.4,0-1.6-0.7c-0.3-0.6,0-1.4,0.7-1.6
				c0.6-0.3,1.4,0,1.6,0.7C545.6,64,545.3,64.8,544.6,65z M543,61.1c-0.6,0.3-1.4,0-1.6-0.7c-0.3-0.6,0-1.4,0.7-1.6
				c0.6-0.3,1.4,0,1.6,0.7C543.9,60.1,543.6,60.8,543,61.1z M541.3,57.1c-0.6,0.3-1.4,0-1.6-0.7c-0.3-0.6,0-1.4,0.7-1.6
				c0.6-0.3,1.4,0,1.6,0.7C542.3,56.1,542,56.8,541.3,57.1z M560.1,91.1c-0.6,0.3-1.4,0-1.6-0.7c-0.3-0.6,0-1.4,0.7-1.6
				c0.6-0.3,1.4,0,1.6,0.7C561,90.1,560.7,90.9,560.1,91.1z M558.4,87.2c-0.6,0.3-1.4,0-1.6-0.7c-0.3-0.6,0-1.4,0.7-1.6
				c0.6-0.3,1.4,0,1.6,0.7C559.4,86.2,559.1,86.9,558.4,87.2z M556.8,83.2c-0.6,0.3-1.4,0-1.6-0.7c-0.3-0.6,0-1.4,0.7-1.6
				c0.6-0.3,1.4,0,1.6,0.7C557.7,82.2,557.4,82.9,556.8,83.2z M555.2,79.2c-0.6,0.3-1.4,0-1.6-0.7c-0.3-0.6,0-1.4,0.7-1.6
				c0.6-0.3,1.4,0,1.6,0.7C556.1,78.2,555.8,79,555.2,79.2z M553.5,75.3c-0.6,0.3-1.4,0-1.6-0.7c-0.3-0.6,0-1.4,0.7-1.6
				c0.6-0.3,1.4,0,1.6,0.7S554.1,75,553.5,75.3z M551.9,71.3c-0.6,0.3-1.4,0-1.6-0.7c-0.3-0.6,0-1.4,0.7-1.6c0.6-0.3,1.4,0,1.6,0.7
				C552.8,70.3,552.5,71,551.9,71.3z M550.2,67.3c-0.6,0.3-1.4,0-1.6-0.7c-0.3-0.6,0-1.4,0.7-1.6c0.6-0.3,1.4,0,1.6,0.7
				C551.2,66.3,550.9,67.1,550.2,67.3z M548.6,63.4c-0.6,0.3-1.4,0-1.6-0.7c-0.3-0.6,0-1.4,0.7-1.6c0.6-0.3,1.4,0,1.6,0.7
				C549.5,62.4,549.2,63.1,548.6,63.4z M546.9,59.4c-0.6,0.3-1.4,0-1.6-0.7c-0.3-0.6,0-1.4,0.7-1.6c0.6-0.3,1.4,0,1.6,0.7
				C547.9,58.4,547.6,59.2,546.9,59.4z M560.8,81.6c-0.6,0.3-1.4,0-1.6-0.7c-0.3-0.6,0-1.4,0.7-1.6c0.6-0.3,1.4,0,1.6,0.7
				C561.7,80.6,561.4,81.3,560.8,81.6z M559.1,77.6c-0.6,0.3-1.4,0-1.6-0.7c-0.3-0.6,0-1.4,0.7-1.6c0.6-0.3,1.4,0,1.6,0.7
				C560.1,76.6,559.8,77.3,559.1,77.6z M557.5,73.6c-0.6,0.3-1.4,0-1.6-0.7c-0.3-0.6,0-1.4,0.7-1.6c0.6-0.3,1.4,0,1.6,0.7
				C558.4,72.6,558.1,73.4,557.5,73.6z M555.8,69.7c-0.6,0.3-1.4,0-1.6-0.7c-0.3-0.6,0-1.4,0.7-1.6c0.6-0.3,1.4,0,1.6,0.7
				C556.8,68.7,556.5,69.4,555.8,69.7z M554.2,65.7c-0.6,0.3-1.4,0-1.6-0.7c-0.3-0.6,0-1.4,0.7-1.6c0.6-0.3,1.4,0,1.6,0.7
				C555.1,64.7,554.8,65.4,554.2,65.7z"/>
		</g>
	</g>
	<g>
		<path class="st9" d="M521.9,211l-44.1-44.1C477.8,191.3,497.5,211,521.9,211z"/>
		<path class="st10" d="M477.8,166.9l44.1,44.1C522,186.6,502.2,166.9,477.8,166.9z"/>
	</g>
	<g>
		<path class="st9" d="M532.5,241.6l44.1-44.1C576.6,221.9,556.9,241.7,532.5,241.6z"/>
		<path class="st10" d="M576.6,197.5l-44.1,44.1C532.5,217.2,552.2,197.5,576.6,197.5z"/>
	</g>
</g>
</svg>
