<?xml version="1.0" encoding="utf-8"?>
<!-- Generator: Adobe Illustrator 26.4.1, SVG Export Plug-In . SVG Version: 6.00 Build 0)  -->
<svg version="1.1" id="Layer_1" xmlns="http://www.w3.org/2000/svg" xmlns:xlink="http://www.w3.org/1999/xlink" x="0px" y="0px"
	 viewBox="0 0 2400 618.6" style="enable-background:new 0 0 2400 618.6;" xml:space="preserve">
<style type="text/css">
	.st0{fill:#990000;}
</style>
<g>
	<path d="M47.3,561.7c-11.7-11.1-17.5-30-17.5-45.7c0-15.2,4.9-30.8,16.6-43.2c8.3-8.8,23-16.5,40.8-16.5c14.8,0,27.1,5.6,33,9
		c2.1,1.3,2.9,1.1,3.3,0l1.3-4.7c0.3-1,0.7-1,2.1-1c1.5,0,1.8,0.3,1.8,2.6c0,3.1,3.3,27.1,4.1,31.6c0.2,0.8,0,1.5-0.7,1.6l-2.4,0.7
		c-0.8,0.2-1.1,0-1.6-1.3c-2.3-5.4-5.9-13.2-12.7-20.2c-6.9-7-15.5-12.6-28.4-12.6c-29.2,0-40.9,25.9-40.8,49.8
		c0,9.5,2.9,27.9,15.7,41.9c11.1,12.4,20.4,13.7,31.3,13.7c18.4,0,32.8-10.1,40.3-20.7c0.5-0.8,0.8-1,1.3-0.5l2.1,1.6
		c0.5,0.3,0.8,0.7,0.3,1.5c-9.8,14.2-25.6,27.4-48.6,27.4C69.3,576.7,57.1,570.7,47.3,561.7"/>
	<path d="M156.7,565c-7.5-9-9-15-9-26.6c0-8.3,4.4-18.8,14-26.3c8.5-6.5,16.5-7.8,21.8-7.8c9,0,18,4.6,22.8,9.5
		c7.3,7.5,11.1,16,11.1,26.6c0,17.8-16,35.9-36,35.9C173.7,576.2,163.6,573.1,156.7,565 M203.9,538.7c0-18.1-13.2-29.5-21.5-29.5
		c-4.4,0-8.6,1-12.6,5.2c-6.4,6.5-8.6,13.2-8.6,25.6c0,9.1,1,15.3,6.2,22.8c3.7,5.4,8.5,8.5,16.1,8.5
		C195.9,571.4,203.9,556.2,203.9,538.7"/>
	<path d="M249.1,525.7c0,8.5,0,33.1,0.2,38.2c0.2,2.8,0.8,5.1,4.2,5.1h7.3c1.5,0,1.8,0.5,1.8,1.5v2.8c0,1-0.3,1.6-1,1.6
		c-1.1,0-8.3-0.5-18.4-0.5c-10.4,0-17,0.5-18.4,0.5c-0.8,0-1.1-0.7-1.1-1.6v-2.8c0-1.1,0.3-1.5,2.1-1.5h7.8c1.8,0,3.4-1.1,3.6-4.1
		c0.2-5.1,0.2-33.1,0.2-42.6V512c0-11.6-0.2-26.4-0.5-30.7c-0.3-5.6-2.9-8.2-8.2-9.8l-3.3-1.1c-0.8-0.3-1-0.5-1-0.8v-1.3
		c0-0.5,0.5-0.8,1.5-1.1c5.7-2.6,13-5.6,19.1-9.5c1.5-1,2.4-1.3,3.4-1.3c1.1,0,1.5,0.8,1.3,2.9c-0.2,9-0.7,42.9-0.6,51.9
		L249.1,525.7L249.1,525.7z"/>
	<path d="M290,525.7c0,8.5,0,33.1,0.2,38.2c0.2,2.8,0.8,5.1,4.2,5.1h7.3c1.5,0,1.8,0.5,1.8,1.5v2.8c0,1-0.3,1.6-1,1.6
		c-1.1,0-8.3-0.5-18.4-0.5c-10.4,0-17,0.5-18.4,0.5c-0.8,0-1.1-0.7-1.1-1.6v-2.8c0-1.1,0.3-1.5,2.1-1.5h7.8c1.8,0,3.4-1.1,3.6-4.1
		c0.2-5.1,0.2-33.1,0.2-42.6V512c0-11.6-0.2-26.4-0.5-30.7c-0.3-5.5-2.9-8.2-8.2-9.8l-3.3-1.1c-0.8-0.3-1-0.5-1-0.8v-1.3
		c0-0.5,0.5-0.8,1.5-1.1c5.7-2.6,13-5.5,19.1-9.5c1.5-1,2.4-1.3,3.4-1.3c1.1,0,1.5,0.8,1.3,2.9c-0.2,9-0.7,42.9-0.7,51.9L290,525.7
		L290,525.7z"/>
	<path d="M321.5,530.9c-0.3,1.5-0.5,4.1-0.5,7.8c0,16,10.1,28.1,23.2,28.1c10,0,17-5.7,19.7-11.1c0.3-0.7,1-1,1.5-0.8l2.1,1.1
		c0.5,0.2,0.8,0.7,0,2.5c-2.9,6.5-11.4,17.8-25.9,17.8c-9.3,0-19.6-2.8-25.6-11.6c-5.7-8.3-7.2-14.3-7.2-25.8
		c0-6.4,1.6-17.3,10.3-25.9c7-7.2,15.2-8.7,23.3-8.7c18.8,0,24,17.6,24,24c0,2.3-2,2.6-4.6,2.6L321.5,530.9L321.5,530.9z M347.4,526
		c3.1,0,4.4-0.8,4.4-2.3c0-3.8-2-14.5-12.6-14.5c-7.2,0-14,4.7-17.1,16.8H347.4z"/>
	<path d="M381.2,613.4c-5.9-3.6-8.3-7.8-8.3-13.2c0-9.1,9.3-16.1,17.1-19.6V580c-6.8-1.5-10.9-6.5-10.9-11.4c0-7.8,9-13.4,14.7-15.5
		v-0.3c-6.4-2.8-15.2-10.3-15.2-24.8c0-10.6,9.5-23.7,27.9-23.7c12.4,0,18.9,7.5,20.6,9.5c4.4-3.1,10-6.4,15.3-6.4
		c5.4,0,8,3.6,7.7,6.9c0,3.1-2.6,6-6.4,6c-2.8,0-4.4-1.3-5.7-2.5c-1-0.7-2.1-1.5-3.4-1.5c-1.1,0-3.1,0-5.2,1
		c1.3,3.3,2.4,6.8,2.4,12.4c0,6.4-1.8,12.6-6,17.6c-4.2,4.7-13.5,8.2-18.9,8.2c-3.6,0-5.9-0.2-8.3-0.8c-3.3,1.3-8.6,4.6-8.6,9.1
		c0,6.7,8.2,6.2,19.1,5.6c13.4-0.7,21.5,0.8,28.1,5.9c7,5.2,7.8,11.7,8,15.7c0,7.7-2.8,14-10.9,20.1c-4.2,3.1-14,7.7-27.9,7.7
		C398.3,618.6,389,617.8,381.2,613.4 M435,596.6c0-9.6-7.3-17-23.7-15.8l-15.7,1.1c-5.1,1.3-13,6.9-13,15.7c0,4.1,3.1,9,6.4,11.3
		c5.4,3.8,11.3,4.6,22.8,4.6C417.9,613.4,435.8,609.2,435,596.6 M419.8,527.1c0-7.2-1.5-11.4-4.4-14.7c-2.1-2.1-5.4-3.6-7.8-3.6
		c-3.8,0-7.7,0.6-11.6,4.6c-5.2,5.6-5.9,13.1-5.9,19.2c0,5.5,1.8,10.6,5.2,14.2c2.9,2.8,5.9,4.1,9.8,4.1
		C416.2,551,419.8,537.4,419.8,527.1"/>
	<path d="M466,530.9c-0.3,1.5-0.5,4.1-0.5,7.8c0,16,10.1,28.1,23.2,28.1c10,0,17-5.7,19.7-11.1c0.3-0.7,1-1,1.5-0.8l2.1,1.1
		c0.5,0.2,0.8,0.7,0,2.5c-2.9,6.5-11.4,17.8-25.9,17.8c-9.3,0-19.6-2.8-25.6-11.6c-5.7-8.3-7.2-14.3-7.2-25.8
		c0-6.4,1.6-17.3,10.3-25.9c7-7.2,15.2-8.7,23.3-8.7c18.8,0,24,17.6,24,24c0,2.3-2,2.6-4.6,2.6H466z M491.9,526
		c3.1,0,4.4-0.8,4.4-2.3c0-3.8-2-14.5-12.6-14.5c-7.2,0-14,4.7-17.1,16.8H491.9z"/>
	<path d="M569.6,565c-7.5-9-9-15-9-26.6c0-8.3,4.4-18.8,14-26.3c8.5-6.5,16.5-7.8,21.9-7.8c9,0,17.9,4.6,22.8,9.5
		c7.3,7.5,11.1,16,11.1,26.6c0,17.8-16,35.9-36.1,35.9C586.5,576.2,576.4,573.1,569.6,565 M616.7,538.7c0-18.1-13.2-29.5-21.5-29.5
		c-4.4,0-8.6,1-12.6,5.2c-6.4,6.5-8.6,13.2-8.6,25.6c0,9.1,1,15.3,6.2,22.8c3.8,5.4,8.5,8.5,16.2,8.5
		C608.7,571.3,616.7,556.2,616.7,538.7"/>
	<path d="M651.9,514.1h-11.3c-0.8,0-1.1-0.3-0.8-1.8l0.7-4.9c0.2-1,0.6-1.1,2-1.1h9.5v-3.1c0-16.1,4.6-26.8,10.9-33.9
		c8.6-9.5,17.6-12.9,26.8-12.9c7.7,0,14.9,2.9,14.9,9.1c0,3.9-4.2,7-6.8,7c-1.6,0-3.3-0.3-4.6-1c-1.5-0.8-3.3-2.9-3.9-3.7
		c-2.1-2.6-4.4-3.8-7.5-3.8c-4.2,0-8.6,1.1-12.2,5.7c-6,7.7-5.7,21.9-5.7,33.3v3.3l19.7,0c1.1,0,1.3,1,1.2,1.6l-0.8,5.4
		c-0.2,0.7-0.8,0.8-2.1,0.8l-17.9,0v14.5c0,19.2,0,34.3,0.2,36c0.3,2.8,0.8,4.2,4.2,4.2l9.3,0c1.5,0,1.8,0.3,1.8,1.3v2.6
		c0,1.3-0.3,2-1.1,2c-1,0-7-0.5-19.6-0.5c-9,0-17.3,0.5-18.6,0.5c-1,0-1.3-0.3-1.3-1.1V570c0-0.8,0.3-1.1,1.6-1.1h7.8
		c3.1,0,3.8-2,3.9-5.7l0-30.7L651.9,514.1L651.9,514.1z"/>
	<path d="M746,501.2c0-10.4-0.3-27.7-0.5-30.7c-0.3-4.2-1.1-5.9-6-5.9h-7.7c-1,0-1.1-0.8-1.1-1.6v-3.6c0-0.8,0.2-1.2,1.1-1.2
		c1.8,0,7.7,0.5,21.2,0.5c15.8,0,22.7-0.5,24.2-0.5c1.3,0,1.5,0.5,1.5,1.3v3.7c0,0.8-0.3,1.3-1.6,1.3h-9.8c-5,0-5.7,1.6-5.7,6.4
		c0,2.1-0.5,26.8-0.5,38.2v14c0,2.8,0,38,0.5,44.7c3.6,0.3,35.9,0.6,40.9,0c9.6-1.5,19.4-21,21.7-27.4c0.3-0.7,0.7-1,1.3-0.7l2.6,1
		c0.5,0.3,0.5,0.5,0.3,1.5c-0.5,1.1-7,28-8,32.5c-2.1-0.2-14.8-0.3-29.4-0.3c-14.5-0.2-30.5-0.2-39.3-0.2c-6.4,0-11.1,0.2-14.5,0.2
		c-3.3,0.2-5.2,0.3-6.4,0.3c-1.1,0-1.3-0.3-1.3-1.1v-4.1c0-0.8,0.2-1.1,1.2-1.1h7.8c6,0,7-2.3,7-4.4c0-3.1,0.5-43.7,0.5-53.7
		L746,501.2L746,501.2z"/>
	<path d="M852.4,530.9c-0.3,1.5-0.5,4.1-0.5,7.8c0,16,10.1,28.1,23.2,28.1c10,0,17-5.7,19.7-11.1c0.3-0.6,1-1,1.5-0.8l2.1,1.1
		c0.5,0.2,0.8,0.7,0,2.4c-2.9,6.5-11.4,17.8-25.9,17.8c-9.3,0-19.6-2.8-25.6-11.6c-5.7-8.3-7.2-14.3-7.2-25.8
		c0-6.4,1.6-17.3,10.3-25.9c7-7.2,15.2-8.6,23.3-8.6c18.8,0,24,17.6,24,24c0,2.3-2,2.6-4.6,2.6L852.4,530.9z M878.3,526
		c3.1,0,4.4-0.8,4.4-2.3c0-3.8-2-14.5-12.6-14.5c-7.2,0-14,4.7-17.1,16.8H878.3z"/>
	<path d="M929.1,553.9c0,12.2,5.6,14.4,8.5,14.4c3.7,0,8.5-0.7,10.8-2.1c0.8-0.5,1.5-0.3,2,0.3l0.8,1.5c0.5,0.7,0.2,1.3-0.3,1.8
		c-1.6,1.6-8.3,6.5-18.1,6.5c-8,0-15.8-7.7-15.8-13.9c0-6.7,0.5-21,0.5-23.3v-3.6c0-2.9,0.2-13.9,0.3-20.7h-10c-1.5,0-2.4-0.7-2.4-2
		s1-1.8,2.9-2.9c3.9-2.3,16.5-15,18.6-20.6c0.5-1.3,1.3-1.6,2.3-1.6c1.3,0,1.6,1.1,1.6,2.4l-0.8,16.2h22.7c1,0,1.5,0.8,1.1,1.5
		l-1.6,5.7c-0.2,0.8-0.5,1.3-1.5,1.3h-21c-0.3,7.5-0.5,15.3-0.5,22.8L929.1,553.9z"/>
	<path d="M979.5,553.8c0,12.2,5.5,14.4,8.5,14.4c3.8,0,8.5-0.7,10.8-2.1c0.8-0.5,1.5-0.3,2,0.3l0.8,1.5c0.5,0.7,0.2,1.3-0.3,1.8
		c-1.6,1.6-8.3,6.5-18.1,6.5c-8,0-15.8-7.7-15.8-13.9c0-6.7,0.5-21,0.5-23.3v-3.6c0-2.9,0.2-13.9,0.3-20.7h-10c-1.5,0-2.5-0.7-2.5-2
		s1-1.8,2.9-2.9c3.9-2.3,16.5-15,18.6-20.6c0.5-1.3,1.3-1.6,2.3-1.6c1.3,0,1.6,1.1,1.6,2.4l-0.8,16.2h22.7c1,0,1.5,0.8,1.2,1.5
		l-1.6,5.7c-0.2,0.8-0.5,1.3-1.5,1.3l-21,0c-0.3,7.5-0.5,15.3-0.5,22.8L979.5,553.8z"/>
	<path d="M1021,530.9c-0.3,1.5-0.5,4.1-0.5,7.8c0,16,10.1,28,23.2,28c10,0,17-5.7,19.7-11.1c0.3-0.7,1-1,1.5-0.8l2.1,1.1
		c0.5,0.2,0.8,0.7,0,2.5c-2.9,6.5-11.4,17.8-25.9,17.8c-9.3,0-19.6-2.8-25.6-11.6c-5.7-8.3-7.2-14.4-7.2-25.8
		c0-6.3,1.6-17.3,10.3-25.9c7-7.2,15.2-8.6,23.3-8.6c18.8,0,24,17.6,24,24c0,2.3-2,2.6-4.6,2.6L1021,530.9z M1047,526
		c3.1,0,4.4-0.8,4.4-2.3c0-3.8-2-14.5-12.6-14.5c-7.2,0-14,4.7-17.1,16.8H1047z"/>
	<path d="M1086,530.8c0-8.3-1.3-10-5.9-12.4l-3.1-1.6c-1-0.3-1.3-0.5-1.3-1.2v-1c0-0.7,0.3-1,1.3-1.5l16.1-8.3
		c1-0.5,1.6-0.7,2.3-0.7c1,0,1.2,1,1.2,2l0.8,11.3h0.7c4.9-7.5,12.6-14.2,19.6-14.2c5.6,0,8.3,3.4,8.3,7.2c0,4.7-3.9,8-6.8,8
		c-1.8,0-3.4-0.7-4.7-1.3c-1.3-0.8-3.3-1.3-5.4-1.3c-2.6,0-6.9,1.6-9.6,6.9c-1,1.8-1.6,4.7-1.6,5.2v34.3c0,5.1,1.1,6.7,4.6,6.7h7.7
		c1,0,1.2,0.5,1.2,1.5v2.9c0,1-0.2,1.5-0.8,1.5c-1,0-8.5-0.5-17.3-0.5c-10.1,0-17,0.5-17.9,0.5c-0.7,0-1-0.3-1-1.6v-2.8
		c0-1.2,0.3-1.5,1.8-1.5h6.4c2.5,0,3.6-1,3.6-3.1c0.2-5.4,0.2-11.1,0.2-19.6L1086,530.8L1086,530.8z"/>
	<path d="M1134.7,571.5c-0.8-0.5-0.8-1.5-1-2.3l-2.8-15.5c-0.2-0.8,0.3-1.1,1-1.3l2.1-0.5c0.7-0.2,1.1,0.2,1.5,1l4.1,8
		c3.3,6,5.6,10.1,14.2,10.1c5.7,0,12.9-3.4,12.9-11.1c0-7.3-3.6-11.6-15.8-15c-9.6-2.8-19.2-7.8-19.2-20.7
		c0-11.3,10.6-19.9,22.8-19.9c7.8,0,12.1,2,15,3.4c2.4,1.1,2.8,2,2.9,2.9l2.4,11.4c0,0.7-0.3,1.1-1.1,1.5l-2,0.7
		c-0.7,0.2-1,0-1.5-0.8l-5.5-7.5c-2-3.1-5.1-6.3-11.4-6.3c-6.2,0-12.6,3.8-12.6,10.8c0,9.5,7.7,11.3,15.7,13.5
		c11.9,3.4,19.4,8.3,19.6,20.9c-0.2,13.2-10.9,21.5-24.8,21.5C1143.2,576.2,1136.7,572.9,1134.7,571.5"/>
	<path d="M1213.5,571.1c0,17.1-15.8,28.7-19.1,30.7c-1,0.5-2.1,1.5-3.3,1.5c-1.3,0-2-0.5-2-1.5c0-1,0.2-1.3,1.5-2.4
		c3.9-3.6,11.6-11.6,11.6-20.6c0-2.1-1.5-4.4-2.8-4.9c-1.6-0.7-9.3-2.6-9.3-10.8c0-4.1,3.3-7.7,9.1-7.7
		C1205,555.5,1213.5,560.9,1213.5,571.1"/>
	<path d="M1284.5,528.9c-1.6,4.1-10.6,28.9-11.4,32.3c-0.2,1.1-0.5,2.8-0.5,3.6c0,2.3,1.9,3.6,5.5,3.6l7.7,0c1.1,0,1.6,0.3,1.6,1.1
		v3.7c0,1.2-0.5,1.5-1.3,1.5c-2.3,0-9-0.5-18.6-0.5c-11.9,0-15.5,0.5-17.8,0.5c-0.8,0-1.2-0.3-1.2-1.3v-3.9c0-0.8,0.7-1.1,1.3-1.1
		h5.7c4.9,0,7.2-2.3,9.5-7.5c1.1-2.6,13-32.8,17.8-46.2c1.1-3.3,14.3-38.3,15.8-42.7c0.5-1.6,1.3-3.7,0.2-5.5
		c-0.5-0.7-1.1-1.5-1.1-2.1c0-0.5,0.3-1.1,1.5-1.5c4.6-1,11.7-5.9,13.5-8.2c0.8-0.8,1.3-1.5,2.1-1.5c1,0,1.3,1,1.8,2.8
		c3.1,10.3,15.8,46.8,18.9,57.3c3.7,12.7,14.4,43.1,16.6,47.8c2.8,5.4,7,7.3,11.1,7.3h5.4c1,0,1.3,0.5,1.3,1.1v4.1
		c0,0.8-0.5,1.1-1.6,1.1c-2.9,0-6.4-0.5-19.6-0.5c-13.5,0-19.2,0.5-23,0.5c-0.8,0-1.3-0.5-1.3-1.5v-3.8c0-1,0.5-1.1,1.5-1.1h4.1
		c4.6,0,6-1.6,4.9-6.2c-1.3-5.9-8-26.8-10.3-33.3L1284.5,528.9L1284.5,528.9z M1322.6,523c-1.5-4.9-14.7-45.7-15.5-48.1
		c-0.5-1.1-0.8-2.3-1.3-2.3c-0.7,0-1.3,1.1-1.8,2.4c-0.8,2.1-16.3,43.9-17.5,48H1322.6z"/>
	<path d="M1384.1,530.8c0-8.3-1.3-10-5.9-12.4l-3.1-1.6c-1-0.3-1.3-0.5-1.3-1.1v-1c0-0.7,0.3-1,1.3-1.5l16.2-8.3
		c1-0.5,1.6-0.7,2.3-0.7c1,0,1.1,1,1.1,2l0.8,11.3h0.7c4.9-7.5,12.6-14.2,19.6-14.2c5.6,0,8.3,3.4,8.3,7.2c0,4.7-3.9,8-6.9,8
		c-1.8,0-3.4-0.7-4.7-1.3c-1.3-0.8-3.3-1.3-5.4-1.3c-2.6,0-6.9,1.6-9.6,6.9c-1,1.8-1.6,4.7-1.6,5.2v34.3c0,5.1,1.1,6.7,4.6,6.7h7.7
		c1,0,1.1,0.5,1.1,1.5v2.9c0,1-0.2,1.5-0.8,1.5c-1,0-8.5-0.5-17.3-0.5c-10.1,0-17,0.5-17.9,0.5c-0.7,0-1-0.3-1-1.6v-2.8
		c0-1.1,0.3-1.5,1.8-1.5h6.4c2.4,0,3.6-1,3.6-3.1c0.2-5.4,0.2-11.1,0.2-19.6L1384.1,530.8L1384.1,530.8z"/>
	<path d="M1452,553.8c0,12.2,5.5,14.4,8.5,14.4c3.8,0,8.5-0.7,10.8-2.1c0.8-0.5,1.5-0.3,2,0.3l0.8,1.5c0.5,0.7,0.2,1.3-0.3,1.8
		c-1.6,1.6-8.3,6.5-18.1,6.5c-8,0-15.8-7.7-15.8-13.9c0-6.7,0.5-21,0.5-23.3v-3.6c0-2.9,0.2-13.9,0.3-20.7h-10c-1.5,0-2.5-0.7-2.5-2
		c0-1.3,1-1.8,2.9-2.9c3.9-2.3,16.5-15,18.6-20.6c0.5-1.3,1.3-1.6,2.3-1.6c1.3,0,1.6,1.1,1.6,2.4l-0.8,16.1h22.7
		c1,0,1.5,0.8,1.1,1.5l-1.6,5.7c-0.2,0.8-0.5,1.3-1.5,1.3h-21c-0.3,7.5-0.5,15.3-0.5,22.8L1452,553.8z"/>
	<path d="M1485.4,571.4c-0.8-0.5-0.8-1.5-1-2.3l-2.8-15.5c-0.2-0.8,0.3-1.1,1-1.3l2.1-0.5c0.7-0.2,1.1,0.2,1.5,1l4.1,8
		c3.3,6,5.6,10.1,14.2,10.1c5.7,0,12.9-3.4,12.9-11.1c0-7.3-3.6-11.6-15.8-15c-9.6-2.8-19.2-7.8-19.2-20.7
		c0-11.3,10.6-19.9,22.8-19.9c7.8,0,12.1,1.9,15,3.4c2.4,1.1,2.8,2,2.9,2.9l2.4,11.4c0,0.7-0.3,1.1-1.2,1.5l-2,0.7
		c-0.6,0.2-1,0-1.5-0.8l-5.5-7.5c-2-3.1-5.1-6.4-11.4-6.4c-6.2,0-12.6,3.8-12.6,10.8c0,9.5,7.7,11.3,15.7,13.5
		c11.9,3.4,19.4,8.3,19.6,20.9c-0.2,13.2-10.9,21.5-24.8,21.5C1493.9,576.2,1487.4,572.9,1485.4,571.4"/>
	<path d="M1629.7,554.8c0,9.3,2,12.2,4.9,12.2c2.6,0,4.9-1.3,5.7-2.4c0.6-0.8,1-1.1,1.6-0.7l1.6,1.3c0.5,0.5,0.8,1.3-0.2,2.9
		c-1.3,2.4-4.4,8-12.7,8c-5.9,0-10.1-4.2-11.6-10.9h-0.3c-3.4,4.1-8.8,7.5-16.2,10c-3.1,1-6,1-9.6,1c-3.9,0-9.8-3.3-9.8-13.5
		c0-7.5,3.4-14,16.3-19.7c7.3-3.3,15.8-7.2,18.4-9.5V523c-0.3-2.8-0.5-7-2.3-9.1c-1.8-2.1-5.1-3.6-9.8-3.6c-3.3,0-8.3,1.3-10.6,3.4
		c-2.3,2.1-0.8,4.6-0.8,7.5c0,5.7-2,9.3-8.6,9.3c-2.6,0-3.9-1.5-3.9-5.2c0-5.2,4.6-11.4,11.3-15.3c6.9-4.1,12.6-5.7,19.9-5.7
		c7.7,0,10.8,2.3,13,4.4c3.4,3.4,3.6,7.2,3.6,11.6v25L1629.7,554.8L1629.7,554.8z M1617.8,538.3c-5.9,4.4-21.9,7.7-21.9,21.2
		c0,6,3.6,9,8.5,9c4.7,0,13.4-5.7,13.4-10.1V538.3z"/>
	<path d="M1716,565.4c0,2.6,1.5,3.4,3.6,3.4h5.2c1.5,0,1.8,0.5,1.8,1.5v2.6c0,1.1-0.3,1.8-1.3,1.8c-1.1,0-6.2-0.5-15.5-0.5
		c-8.3,0-13.5,0.5-14.7,0.5c-1,0-1.3-0.5-1.3-1.8v-2.6c0-1.1,0.5-1.5,2.1-1.5h4.7c1.8,0,3.1-0.8,3.3-3.7c0.2-4.2,0.3-9.5,0.3-13.7
		v-21.5c0-6.5,0-11.3-4.7-14.7c-3.9-2.9-7.8-2.9-11.9-2.9c-2.6,0-8.3,1.1-13.2,6.4c-3.3,3.6-3.7,8-3.7,11.1v33.8
		c0,4.4,0.5,5.4,3.9,5.4h4.1c1.3,0,1.6,0.5,1.6,1.6v2.8c0,1-0.3,1.5-1.1,1.5c-1.1,0-5.5-0.5-14.2-0.5c-8.3,0-13.5,0.5-14.5,0.5
		c-0.8,0-1.1-0.5-1.1-1.5v-2.9c0-1,0.3-1.5,1.6-1.5h4.7c2.1,0,3.3-0.5,3.3-3.3v-38.2c0-4.9-2.6-7.7-6.7-9.6l-1.3-0.7
		c-1.1-0.5-1.3-1-1.3-1.5v-0.8c0-0.8,0.6-1.3,1.5-1.6l14-7.8c1.3-0.7,2.3-1.2,2.9-1.2c0.8,0,1.2,0.7,1.3,2l1.2,10h0.3
		c4.7-5.9,14.2-11.9,22.4-11.9c4.9,0,10,1,13.9,3.6c4.9,3.3,9,11.4,9,15.5L1716,565.4z"/>
	<path d="M1787.2,474.8c0-6.2-1.2-8.1-10.3-9.6c-1-0.2-1.2-0.5-1.2-1.1v-2.8c0-0.7,0.3-1,1.3-1.1c6.4-1.3,14.9-2.8,17.9-3.4
		c1.5-0.2,2.6-0.5,3.7-0.5c0.8,0,1,1.1,0.8,2.9c-0.5,8.1-0.6,31.8-0.6,52.5v36c0,6,0.3,13.2,1.6,14.9c1.5,1.6,4.9,2.6,7.2,2.8
		c2.3,0.2,2.9,0.3,3.3,1.1l0.3,1.3c0.2,1-0.2,1.5-1.1,1.8l-18.4,6.2c-1,0.3-1.8-0.2-2.1-1.3l-2.1-7.2c-5.2,5.2-15.7,8.8-24,8.8
		c-5.4,0-11.6,0.3-19.2-7.5c-8.3-8.2-10.3-15.5-10.3-26.4c0-10.1,3.8-20.1,11.4-27.7c6.4-6.8,15.2-10.3,24.3-10.3
		c6.7,0,12.6,1,17.5,2.5L1787.2,474.8L1787.2,474.8z M1787.2,526.6c0-2.3,0-5.4-1.5-8c-2.3-4.4-7.5-8.8-17.1-8.8
		c-5.1,0-10.6,1.5-14.8,5.9c-6.4,6.9-7.5,15.5-7.5,21.7c0,18.4,12.7,31.8,22.2,31.8c9.1,0,16.2-4.7,17.8-9c0.8-2.5,1-3.8,1-5.5
		L1787.2,526.6z"/>
	<path d="M1872.9,568.1c-2-1.5-2.9-2-3.7-2c-1,0-1.6,1.2-2.6,2.8c-1,1.8-1.8,2-2.9,2c-1,0-1.8-0.8-1.5-2.6
		c0.7-4.1,2.3-24.8,2.8-29.5c0.2-1,0.5-1,1.1-1l2.4,0.2c0.7,0,1,0.3,1,1.3c0.2,5.2,0.5,10.6,5.9,18.9c4.9,7.7,13.9,12.1,22.8,12.1
		c9.8,0,22.2-6,22.2-20.7c0-16.8-12.1-23-25.1-27.6c-5.1-1.8-16.8-5.9-23.8-13.2c-5.4-5.4-8.2-13-8.2-23.8c0-8.2,5.1-16.2,10.1-20.9
		c5.9-5.5,14-7.8,22.8-7.8c9.3,0,16.5,2.8,19.2,4.1c1.5,0.8,2.3,0.7,3.1-0.2l2.1-2c0.8-0.6,1.3-1,2.1-1c0.8,0,1.3,1.3,1.3,2.8
		c0,5.7,2.1,22.3,2.3,25.9c0,0.8-0.2,1.2-0.8,1.3l-2,0.5c-0.5,0.2-0.8,0-1-0.5c-1.3-4.7-3.4-11.1-10.1-18.1c-4.4-4.7-10.1-7-17.8-7
		c-14.5,0-19.7,10.8-19.7,19.1c0,4.6,1,10,5.1,14.2c4.7,4.7,13.9,8.3,18.6,9.8c11.3,3.6,20.4,6.4,26.3,13.5
		c4.2,5.1,7.2,11.4,7.2,22.2c0,19.3-11.8,35.7-33.3,35.7C1887.4,576.6,1879.4,573.2,1872.9,568.1"/>
	<path d="M1959.3,534.7c0,8.8,3.9,18.8,8.3,24.8c5.4,7,12.2,8.3,17.8,8.3c8.2,0,12.4-1.8,17.9-7c0.3-0.3,0.8-0.5,1.3,0l1.6,1.6
		c0.6,0.7,0.8,1.1,0,2.1c-4.7,5.4-15.2,11.6-26.3,11.6c-8.6,0-17.8-1.9-25.3-11.4c-6-8-7.3-14.8-7.3-22.2
		c0-19.1,13.4-38.3,34.9-38.3c17,0,22.2,9.8,22.2,13.2c-0.2,3.7-2.6,5.7-6,5.7c-3.7,0-6.5-2.1-9-6.5c-3.6-6.7-7-7.2-10.9-7.2
		C1969.3,509.4,1959.3,517.9,1959.3,534.7"/>
	<path d="M2023.4,526.7c0-5.5-1-8.5-9.1-9.8c-1.2-0.2-1.5-0.5-1.5-1.2v-1.5c0-0.5,0.3-0.8,1.1-1.2c5.2-2,11.4-4.6,17.6-8
		c1.3-0.7,2.1-1,3.1-1c0.8,0,1,0.8,0.8,2c-0.3,2.8-0.3,13-0.3,26.6v17.8c0,6.4,0,12.2,0.2,14c0.3,3.1,0.8,4.2,2.6,4.2h7.5
		c1.3,0,1.6,0.5,1.6,1.5v2.8c0,1.1-0.3,1.6-1.5,1.6c-1.3,0-8.8-0.5-15.7-0.5c-9.5,0-15.8,0.5-17.6,0.5c-0.8,0-1.3-0.3-1.3-1.3v-3.3
		c0-1,0.5-1.3,1.6-1.3h8c1.8,0,2.4-0.7,2.6-3.3c0.2-4.9,0.2-10,0.2-14.9L2023.4,526.7L2023.4,526.7z M2016.1,477
		c0-4.1,3.4-8.5,10-8.5c5.7,0,8.5,4.4,8.5,8c0,4.2-2.9,9-9.5,9C2021.4,485.4,2016.1,482.2,2016.1,477"/>
	<path d="M2067.4,530.8c-0.3,1.5-0.5,4.1-0.5,7.8c0,16,10.1,28.1,23.2,28.1c10,0,17-5.7,19.7-11.1c0.3-0.7,1-1,1.5-0.8l2.1,1.1
		c0.5,0.2,0.8,0.7,0,2.5c-2.9,6.5-11.4,17.8-25.9,17.8c-9.3,0-19.6-2.8-25.6-11.6c-5.7-8.3-7.2-14.3-7.2-25.8
		c0-6.4,1.6-17.3,10.3-25.9c7-7.2,15.2-8.7,23.3-8.7c18.8,0,24,17.6,24,24c0,2.3-2,2.6-4.6,2.6L2067.4,530.8L2067.4,530.8z
		 M2093.4,525.9c3.1,0,4.4-0.8,4.4-2.3c0-3.8-2-14.5-12.6-14.5c-7.2,0-14,4.7-17.1,16.8H2093.4z"/>
	<path d="M2189.6,565.4c0,2.6,1.5,3.4,3.6,3.4h5.2c1.5,0,1.8,0.5,1.8,1.5v2.6c0,1.1-0.3,1.8-1.3,1.8c-1.1,0-6.2-0.5-15.5-0.5
		c-8.3,0-13.5,0.5-14.7,0.5c-1,0-1.3-0.5-1.3-1.8v-2.6c0-1.1,0.5-1.5,2.1-1.5h4.7c1.8,0,3.1-0.8,3.3-3.7c0.2-4.2,0.3-9.5,0.3-13.7
		v-21.5c0-6.5,0-11.3-4.7-14.7c-3.9-2.9-7.8-2.9-11.9-2.9c-2.6,0-8.3,1.2-13.2,6.4c-3.3,3.6-3.7,8-3.7,11.1l0,33.8
		c0,4.4,0.5,5.4,3.9,5.4h4.1c1.3,0,1.6,0.5,1.6,1.6v2.8c0,1-0.3,1.5-1.1,1.5c-1.1,0-5.5-0.5-14.2-0.5c-8.3,0-13.5,0.5-14.5,0.5
		c-0.8,0-1.1-0.5-1.1-1.5v-2.9c0-1,0.3-1.5,1.6-1.5h4.7c2.1,0,3.3-0.5,3.3-3.3l0-38.2c0-4.9-2.6-7.7-6.7-9.6l-1.3-0.7
		c-1.1-0.5-1.3-1-1.3-1.5v-0.8c0-0.8,0.6-1.3,1.5-1.6l14-7.8c1.3-0.7,2.3-1.1,2.9-1.1c0.8,0,1.1,0.7,1.3,2l1.1,10h0.3
		c4.7-5.9,14.2-11.9,22.3-11.9c4.9,0,10,1,13.9,3.6c4.9,3.3,9,11.4,9,15.5L2189.6,565.4L2189.6,565.4z"/>
	<path d="M2219.6,534.7c0,8.8,3.9,18.8,8.3,24.8c5.4,7,12.2,8.3,17.8,8.3c8.2,0,12.4-1.8,18-7c0.3-0.3,0.8-0.5,1.3,0l1.6,1.6
		c0.7,0.7,0.8,1.2,0,2.1c-4.7,5.4-15.2,11.6-26.3,11.6c-8.6,0-17.8-2-25.3-11.4c-6.1-8-7.3-14.9-7.4-22.2
		c0-19.1,13.4-38.3,34.9-38.3c17,0,22.2,9.8,22.2,13.2c-0.2,3.8-2.6,5.7-6,5.7c-3.7,0-6.5-2.1-9-6.5c-3.6-6.7-7-7.2-10.9-7.2
		C2229.6,509.4,2219.6,517.9,2219.6,534.7"/>
	<path d="M2285.9,530.8c-0.3,1.5-0.5,4.1-0.5,7.8c0,16,10.1,28,23.2,28c9.9,0,17-5.7,19.7-11.1c0.3-0.7,1-1,1.5-0.8l2.1,1.1
		c0.5,0.2,0.8,0.7,0,2.4c-2.9,6.5-11.4,17.8-25.9,17.8c-9.3,0-19.6-2.8-25.6-11.6c-5.7-8.3-7.2-14.4-7.2-25.8
		c0-6.4,1.6-17.3,10.3-25.9c7-7.2,15.2-8.6,23.3-8.6c18.8,0,24,17.6,24,24c0,2.3-2,2.6-4.6,2.6L2285.9,530.8z M2311.8,525.9
		c3.1,0,4.4-0.8,4.4-2.3c0-3.8-2-14.5-12.6-14.5c-7.2,0-14,4.7-17.1,16.8H2311.8z"/>
	<path d="M2345.6,571.4c-0.8-0.5-0.8-1.5-1-2.3l-2.8-15.5c-0.2-0.8,0.3-1.1,1-1.3l2.1-0.5c0.7-0.2,1.2,0.2,1.5,1l4.1,8
		c3.3,6,5.6,10.1,14.2,10.1c5.7,0,12.9-3.4,12.9-11.1c0-7.3-3.6-11.6-15.8-15c-9.6-2.8-19.2-7.8-19.2-20.7
		c0-11.3,10.6-19.9,22.8-19.9c7.8,0,12.1,2,15,3.4c2.4,1.1,2.8,2,2.9,2.9l2.4,11.4c0,0.7-0.3,1.1-1.1,1.5l-2,0.7
		c-0.7,0.2-1,0-1.5-0.8l-5.6-7.5c-2-3.1-5.1-6.4-11.4-6.4c-6.2,0-12.6,3.8-12.6,10.8c0,9.5,7.7,11.3,15.7,13.5
		c11.9,3.4,19.4,8.3,19.6,20.9c-0.2,13.2-10.9,21.5-24.8,21.5C2354,576.1,2347.5,572.8,2345.6,571.4"/>
	<path d="M947.1,124.9c0-12.2-1.4-79.1-2.4-87.1c-1.4-11.3-7.5-13.2-20.2-13.2l-25.9,0c-2.3,0-3.8-0.5-3.8-3.3V8.6
		c0-1.9,1.4-2.4,3.3-2.4c6.1,0,26.8,1.4,69.2,1.4c12.2,0,59.3-1.4,70.1-1.4c60.7,0,111.5,7.1,152.9,42.4
		c30.6,26.3,52.2,65.4,52.2,120c0,54.1-15.5,89.9-46.6,123.8c-45.2,49.9-110.1,49.9-146.4,49.9c-29.6,0-65.4-1.4-86.6-1.4
		c-40.9,0-59.8,1.4-66.4,1.4c-2.3,0-3.3-0.9-3.3-3.3v-12.2c0-1.9,1.4-2.8,3.8-2.8l31.5,0c8.9,0,14.1-3.8,15.1-11.3
		c1.4-9.9,3.3-115.8,3.3-152.5V124.9z M990.4,170.5c0,6.1,0.5,86.1,1,115.3c0,9.4,1.9,16.9,8,26.4c7.5,9.9,26.3,15.1,49.9,15.1
		c48,0,87-20.7,110.6-50.8c19.8-24.5,34.3-63.1,34.3-105.9c0-36.7-16-79.1-38.6-104c-24.5-26.8-65.9-45.2-118.1-45.2
		c-10.4,0-29.6,0-37.6,4.7c-6.6,4.2-8.5,11.8-8.9,22.1c-0.5,19.8-0.5,81.4-0.5,88.9L990.4,170.5L990.4,170.5z"/>
	<path d="M1282.3,314c-21.7-25.9-25.9-43.3-25.9-76.7c0-24,12.7-54.1,40.5-75.8c24.5-18.8,47.5-22.6,63.1-22.6
		c25.9,0,51.8,13.2,65.9,27.3c21.2,21.6,32,46.1,32,76.7c0,51.3-46.1,103.5-104,103.5C1331.2,346.5,1302,337.5,1282.3,314
		 M1418.3,238.3c0-52.2-38.1-85.2-62.1-85.2c-12.7,0-24.9,2.8-36.2,15.1c-18.3,18.8-24.9,38.1-24.9,73.9c0,26.4,2.8,44.2,17.9,65.9
		c10.8,15.5,24.5,24.5,46.6,24.5C1395.2,332.4,1418.3,288.6,1418.3,238.3"/>
	<path d="M1495.3,215.7c0-24-3.8-28.7-16.9-35.8l-8.9-4.7c-2.8-1-3.8-1.4-3.8-3.3v-2.8c0-1.9,0.9-2.8,3.8-4.2l46.6-24
		c2.8-1.4,4.7-1.9,6.6-1.9c2.8,0,3.3,2.8,3.3,5.6l2.4,32.5h1.9c14.1-21.6,36.2-40.9,56.5-40.9c16,0,24,9.9,24,20.7
		c0,13.7-11.3,23.1-19.8,23.1c-5.2,0-9.9-1.9-13.7-3.8c-3.8-2.4-9.4-3.8-15.5-3.8c-7.5,0-19.8,4.7-27.8,19.8
		c-2.8,5.2-4.7,13.6-4.7,15.1V306c0,14.6,3.3,19.3,13.2,19.3h22.1c2.8,0,3.3,1.4,3.3,4.2v8.5c0,2.8-0.5,4.2-2.3,4.2
		c-2.8,0-24.5-1.4-49.9-1.4c-29.2,0-48.9,1.4-51.8,1.4c-1.9,0-2.8-0.9-2.8-4.7v-8c0-3.3,0.9-4.2,5.2-4.2l18.4,0
		c7.1,0,10.4-2.8,10.4-8.9c0.5-15.5,0.5-32,0.5-56.5L1495.3,215.7L1495.3,215.7z"/>
	<path d="M1811.5,315.4c0,7.5,4.2,9.9,10.4,9.9h15.1c4.2,0,5.2,1.4,5.2,4.2v7.5c0,3.3-0.9,5.2-3.8,5.2c-3.3,0-17.9-1.4-44.7-1.4
		c-24,0-39.1,1.4-42.4,1.4c-2.8,0-3.8-1.4-3.8-5.2v-7.5c0-3.3,1.4-4.2,6.1-4.2h13.7c5.2,0,8.9-2.4,9.4-10.8
		c0.5-12.2,0.9-27.3,0.9-39.5l0-62.1c0-18.8,0-32.5-13.7-42.4c-11.3-8.5-22.6-8.5-34.3-8.5c-7.5,0-24,3.3-38.1,18.4
		c-9.4,10.4-10.8,23.1-10.8,32v97.4c0,12.7,1.4,15.5,11.3,15.5h11.8c3.8,0,4.7,1.4,4.7,4.7v8c0,2.8-1,4.2-3.3,4.2
		c-3.3,0-16-1.4-40.9-1.4c-24,0-39.1,1.4-41.9,1.4c-2.3,0-3.3-1.4-3.3-4.2v-8.5c0-2.8,0.9-4.2,4.7-4.2h13.6c6.1,0,9.4-1.4,9.4-9.4
		V205.8c0-14.1-7.5-22.1-19.3-27.8l-3.8-1.9c-3.3-1.4-3.8-2.8-3.8-4.2v-2.4c0-2.3,1.9-3.8,4.2-4.7l40.5-22.6
		c3.8-1.9,6.6-3.3,8.5-3.3c2.4,0,3.3,1.9,3.8,5.7l3.3,28.7h0.9c13.7-16.9,40.9-34.4,64.5-34.4c14.1,0,28.7,2.8,40,10.4
		c14.1,9.4,25.9,32.9,25.9,44.7L1811.5,315.4z"/>
	<path d="M1859.6,332.8c-2.3-1.4-2.3-4.2-2.8-6.6l-8-44.7c-0.5-2.3,0.9-3.3,2.8-3.8l6.1-1.4c1.9-0.5,3.3,0.5,4.2,2.8l11.8,23.1
		c9.4,17.4,16,29.2,40.9,29.2c16.5,0,37.2-9.9,37.2-32c0-21.2-10.4-33.4-45.6-43.3c-27.8-8-55.5-22.6-55.5-59.8
		c0-32.5,30.6-57.4,65.9-57.4c22.6,0,34.8,5.6,43.3,9.9c7.1,3.3,8,5.6,8.5,8.5l7.1,32.9c0,1.9-0.9,3.3-3.3,4.2l-5.7,1.9
		c-1.9,0.5-2.8,0-4.2-2.4l-16-21.7c-5.6-8.9-14.6-18.4-32.9-18.4c-17.9,0-36.2,10.8-36.2,31.1c0,27.3,22.1,32.5,45.2,39.1
		c34.4,9.9,56,24,56.5,60.2c-0.5,38.1-31.5,62.1-71.5,62.1C1884,346.5,1865.2,337.1,1859.6,332.8"/>
	<path d="M2023.4,203.9c0-16-2.8-24.5-26.4-28.2c-3.3-0.5-4.2-1.4-4.2-3.3v-4.2c0-1.4,0.9-2.4,3.3-3.3c15.1-5.7,32.9-13.2,50.8-23.1
		c3.8-1.9,6.1-2.8,8.9-2.8c2.4,0,2.8,2.4,2.4,5.6c-1,8-0.9,37.7-0.9,76.7v51.3c0,18.4,0,35.3,0.5,40.5c0.9,8.9,2.4,12.2,7.5,12.2
		l21.6,0c3.8,0,4.7,1.4,4.7,4.2v8c0,3.3-0.9,4.7-4.2,4.7c-3.8,0-25.4-1.4-45.2-1.4c-27.3,0-45.6,1.4-50.8,1.4
		c-2.4,0-3.8-0.9-3.8-3.8V329c0-2.8,1.4-3.8,4.7-3.8h23.1c5.2,0,7.1-1.9,7.5-9.4c0.5-14.1,0.5-28.7,0.5-42.8L2023.4,203.9z
		 M2002.2,60.3c0-11.8,9.9-24.5,28.7-24.5c16.5,0,24.5,12.7,24.5,23.1c0,12.2-8.5,25.9-27.3,25.9
		C2017.7,84.8,2002.2,75.4,2002.2,60.3"/>
	<path d="M2141.9,167.2h-32.5c-2.4,0-3.3-0.9-2.4-5.2l1.9-14.1c0.5-2.8,1.9-3.3,5.6-3.3h27.3v-8.9c0-46.6,13.2-77.2,31.5-97.9
		c24.9-27.3,50.8-37.2,77.2-37.2c22.1,0,42.8,8.5,42.8,26.3c0,11.3-12.2,20.2-19.8,20.2c-4.7,0-9.4-0.9-13.2-2.8
		c-4.2-2.4-9.4-8.5-11.3-10.8c-6.1-7.5-12.7-10.8-21.7-10.8c-12.2,0-24.9,3.3-35.3,16.5c-17.4,22.1-16.5,63.1-16.5,96v9.4l56.9,0
		c3.3,0,3.8,2.8,3.3,4.7l-2.3,15.5c-0.5,1.9-2.4,2.4-6.1,2.4l-51.8,0V209c0,55.5,0,98.8,0.5,104c0.9,8,2.4,12.2,12.2,12.2l26.8,0
		c4.2,0,5.2,0.9,5.2,3.8v7.5c0,3.8-0.9,5.6-3.3,5.6c-2.8,0-20.2-1.4-56.5-1.4c-25.9,0-49.9,1.4-53.6,1.4c-2.8,0-3.8-0.9-3.8-3.3
		v-10.4c0-2.4,0.9-3.3,4.7-3.3h22.6c8.9,0,10.8-5.7,11.3-16.5v-88.5L2141.9,167.2z"/>
	<path d="M2265.9,215.6c-0.9,4.2-1.4,11.8-1.4,22.6c0,46.1,29.2,80.9,66.8,80.9c28.7,0,48.9-16.5,56.9-32c0.9-1.9,2.8-2.8,4.2-2.4
		l6.1,3.3c1.4,0.5,2.4,1.9,0,7.1c-8.5,18.8-32.9,51.3-74.8,51.3c-26.8,0-56.5-8-73.9-33.4c-16.5-24-20.7-41.4-20.7-74.4
		c0-18.4,4.7-49.9,29.6-74.8c20.2-20.7,43.8-24.9,67.3-24.9c54.1,0,69.2,50.8,69.2,69.2c0,6.6-5.6,7.5-13.2,7.5L2265.9,215.6z
		 M2340.7,201.5c9,0,12.7-2.4,12.7-6.6c0-10.8-5.7-41.9-36.2-41.9c-20.7,0-40.5,13.7-49.4,48.5L2340.7,201.5z"/>
	<path class="st0" d="M41.4,48c0-16-3.8-23.5-16-23.5H3.8c-2.8,0-3.8-0.9-3.8-4.2V9.4c0-2.8,0.9-3.8,4.7-3.8
		c4.7,0,27.3,1.4,72.5,1.4c39.5,0,62.1-1.4,67.8-1.4c2.8,0,3.8,0.9,3.8,3.3v11.8c0,2.8-0.9,3.8-3.8,3.8h-19.8
		c-14.1,0-22.6,8.5-23.1,18.4c-0.5,5.6-1.4,33.9-1.4,61.2v58.3c0,23.5,0.5,56.9,1.4,72c1.4,21.7,5.2,43.3,16.5,58.3
		c16,21.6,41.4,29.2,64,29.2c21.6,0,48-8.5,63.1-22.6c17.9-17.9,27.3-45.2,27.3-79.5v-84.7c0-37.6-3.8-79-5.2-89.9
		c-1.4-12.2-8.9-20.7-19.3-20.7h-16.9c-2.8,0-3.8-1.4-3.8-3.3V9.4c0-2.8,1-3.8,3.8-3.8c4.7,0,26.3,1.4,57.4,1.4
		c29.2,0,44.2-1.4,48-1.4c4.2,0,4.7,1.4,4.7,3.8v10.8c0,2.8-0.5,4.2-2.8,4.2h-16.9c-16.9,0-18.8,13.2-19.8,18.4
		c-0.9,5.6-0.9,71.5-0.9,77.6c0,6.6-0.9,88.5-2.8,107.3c-2.8,38.6-14.1,67.8-39.5,90.3c-19.8,17.9-49.9,29.2-85.6,29.2
		c-22.6,0-49.9-3.8-67.8-11.3c-27.3-11.3-46.1-32.9-55.5-63.1c-6.6-20.7-8.5-51.8-8.5-113.4C41.4,159.5,41.4,48,41.4,48z"/>
	<path class="st0" d="M354.8,235.3c1.9,0,2.8,0.9,2.8,3.8c0.9,15.1,4.7,32.9,17.9,53.6c14.1,22.6,38.6,33.9,62.1,33.9
		c25.4,0,61.2-16,61.2-55.1c0-43.3-19.8-57.4-69.6-76.2c-15-5.6-46.1-18.8-68.7-39.5c-16-15.1-23.5-38.6-23.5-67.3
		c0-26.4,10.4-48,32.9-65.9C388.7,6.6,409.4,0,436.7,0c31.1,0,49.9,7.5,59.3,11.3c4.7,1.9,7.5,0.9,9.9-1.4l6.1-6.1
		c1.9-1.9,3.8-2.8,6.6-2.8c2.8,0,3.8,2.8,3.8,7.5c0,7.5,7.5,73.4,7.5,78.1c0,1.9-0.9,2.8-2.8,3.3l-7.5,2.4c-1.9,0.5-3.8,0-4.7-2.8
		c-4.7-13.2-12.2-32-29.2-49.9c-12.3-13.2-27.3-19.8-49-19.8C399,19.8,384,49.9,384,67.3c0,16,1.9,30.1,13.2,42.4
		c12.2,12.2,38.6,23.5,57.4,29.2c27.3,8.5,49.9,17.9,67.8,36.7c15.1,16,23.5,35.8,23.5,67.3c0,57.4-37.6,104.5-99.8,104.5
		c-38.6,0-61.2-8.5-80-22.6c-5.7-3.8-8.5-5.7-11.3-5.7s-4.7,3.8-7.5,8.5c-2.8,4.7-4.7,5.6-8.5,5.6c-3.8,0-5.6-2.8-5.6-7.5
		c0.9-5.7,7.5-81.9,8.5-87.5c0.5-2.8,1-3.8,2.8-3.8L354.8,235.3z"/>
	<path class="st0" d="M867.7,263.5c1.4,1.4,1.9,2.8,0.9,4.7c-28.2,40.5-73.4,79-140.2,79c-60.2,0-94.1-17.9-123.3-44.2
		c-34.8-31.1-50.8-85.6-50.8-127c0-46.1,15.1-90.3,48-126.1C627.7,22.6,668.2,0,724.6,0c43.3,0,78.1,13.2,95,22.6
		c6.6,3.8,8.5,3.8,9.4,0l3.8-12.2c1-2.8,1.9-2.8,7.5-2.8c5.7,0,6.6,0.9,6.6,7.5c0,8.5,9.4,83.8,11.3,97.9c0.5,2.8,0,4.2-1.9,4.7
		l-8.9,2.8c-2.4,0.9-3.8-0.9-5.2-4.7c-5.6-16.9-16.9-40.5-36.7-61.2c-20.7-19.8-45.2-34.8-81.9-34.8c-75.3,0-106.3,67.8-106.3,135.5
		c0,29.2,8.5,84.7,43.3,122.3c31.1,32.9,58.3,36.7,80.9,36.7c51.8,0,92.7-25.9,112.5-54.6c2.3-3.3,4.2-4.7,5.6-3.3L867.7,263.5z"/>
</g>
</svg>
