<?xml version="1.0" encoding="utf-8"?>
<!-- Generator: Adobe Illustrator 28.5.0, SVG Export Plug-In . SVG Version: 9.03 Build 54727)  -->
<svg version="1.1" id="Layer_1" xmlns="http://www.w3.org/2000/svg" xmlns:xlink="http://www.w3.org/1999/xlink" x="0px" y="0px"
	 viewBox="0 0 513.1 142.7" style="enable-background:new 0 0 513.1 142.7;" xml:space="preserve">
<style type="text/css">
	.st0{display:none;fill:#010101;}
</style>
<rect x="12.9" y="187.3" class="st0" width="549.7" height="176"/>
<g>
	<g>
		<path d="M17.7,97.7h2.5v12.8h7.2v2.3h-9.8V97.7z"/>
		<path d="M39.7,112.7h-2.5v-15h2.5V112.7z"/>
		<path d="M57.1,107.1v-2.2h5.7v1.2c0,4.2-2.7,6.8-6.4,6.8c-4,0-7.1-3.1-7.1-7.8c0-4.6,3.1-7.8,7-7.8c3.5,0,5.6,2,6.2,4.9h-2.5
			c-0.6-1.6-1.6-2.6-3.6-2.6c-2.7,0-4.4,2.3-4.4,5.5c0,3.2,1.7,5.5,4.5,5.5c2.3,0,3.6-1.5,4-3.6H57.1z"/>
		<path d="M85.1,97.7v15h-2.5v-6.6h-7.6v6.6h-2.5v-15h2.5v6.2h7.6v-6.2H85.1z"/>
		<path d="M94.5,97.7h12.5v2.3h-5v12.8h-2.5V99.9h-5V97.7z"/>
		<path d="M119.1,112.7h-2.5v-15h2.5V112.7z"/>
		<path d="M141.6,112.7h-2l-7.7-10.9v10.9h-2.4v-15h2.4l7.2,10.4V97.7h2.4V112.7z"/>
		<path d="M159,107.1v-2.2h5.7v1.2c0,4.2-2.7,6.8-6.4,6.8c-4,0-7.1-3.1-7.1-7.8c0-4.6,3.1-7.8,7-7.8c3.5,0,5.6,2,6.2,4.9h-2.5
			c-0.6-1.6-1.6-2.6-3.6-2.6c-2.7,0-4.4,2.3-4.4,5.5c0,3.2,1.7,5.5,4.5,5.5c2.3,0,3.6-1.5,4-3.6H159z"/>
	</g>
	<g>
		<path d="M350,97.4c3.4,0,5.6,2,6.1,5h-2.5c-0.6-1.6-1.6-2.7-3.6-2.7c-2.6,0-4.3,2.3-4.3,5.5c0,3.1,1.6,5.5,4.3,5.5
			c2,0,3-1.1,3.6-2.7h2.5c-0.6,3-2.7,5-6.1,5c-3.9,0-6.8-3.1-6.8-7.8C343.2,100.5,346.1,97.4,350,97.4z"/>
		<path d="M373.3,112.9c-4.1,0-6.9-3.3-6.9-7.8c0-4.5,2.9-7.8,6.9-7.8s7,3.3,7,7.8C380.2,109.7,377.3,112.9,373.3,112.9z
			 M373.3,99.7c-2.6,0-4.4,2.3-4.4,5.5c0,3.2,1.7,5.5,4.4,5.5c2.6,0,4.4-2.3,4.4-5.5C377.6,102,375.9,99.7,373.3,99.7z"/>
		<path d="M397.9,112.7l-4.1-10.5v10.5h-2.4v-15h2.9l4.6,11.6l4.5-11.6h2.8v15h-2.4v-10.5l-4,10.5H397.9z"/>
		<path d="M420.6,107.1v5.6H418v-15h5.8c3.1,0,5.1,1.6,5.1,4.7c0,3.1-2,4.7-5.1,4.7H420.6z M423.8,99.9h-3.2v5h3.2
			c1.8,0,2.7-1.1,2.7-2.5C426.5,100.9,425.5,99.9,423.8,99.9z"/>
		<path d="M445.9,97.7l5.8,15h-2.6l-1.5-4.2h-5.8l-1.5,4.2h-2.6l5.8-15H445.9z M442.6,106.3h4.1l-2.1-5.6L442.6,106.3z"/>
		<path d="M474.4,112.7h-2l-7.7-10.9v10.9h-2.4v-15h2.4l7.2,10.4V97.7h2.4V112.7z"/>
		<path d="M495.8,97.7h2.7l-5.5,9v6h-2.5v-6l-5.4-9h2.8l4,6.7L495.8,97.7z"/>
	</g>
	<g>
		<polygon points="135,29.9 104.9,3 408.2,3 369.2,37.9 369.2,42 416.2,0 96.9,0 135,34 		"/>
		<polygon points="316.5,85 256.5,138.6 196.6,85 192,85 256.5,142.7 321.1,85 		"/>
	</g>
	<g>
		<path d="M36.8,64.5c0,9.5-6.6,14.6-17.3,14.6H0V28.1h17.8c10.6,0,17.3,4.7,17.3,13.9c0,5.5-2.9,9.5-6.6,10.8
			C33.3,54.4,36.8,59.1,36.8,64.5z M17.8,49.5c5.9,0,9-2.2,9-7.1c0-4.8-3.2-6.9-9-6.9H8.4v13.9H17.8z M8.4,71.6h11
			c5.8,0,9-2.9,9-7.5c0-4.6-3.2-7.5-9-7.5h-11V71.6z"/>
		<path d="M92.4,28.1L112,79.1h-8.8L98,65H78.5l-5.2,14.1h-8.7l19.6-50.9H92.4z M81.2,57.5h13.9l-7-18.8L81.2,57.5z"/>
		<path d="M152,58.4v20.7h-8.6V28.1H163c10.5,0,17.3,5.3,17.3,15.3c0,8.5-5,13.4-13,14.7l14.8,21h-9.8l-14.2-20.7H152z M152,51.2
			h10.9c5.7,0,9-3.1,9-7.8c0-4.7-3.2-7.8-9-7.8H152V51.2z"/>
		<path d="M250.2,64.5c0,9.5-6.6,14.6-17.3,14.6h-19.5V28.1h17.8c10.6,0,17.3,4.7,17.3,13.9c0,5.5-2.9,9.5-6.6,10.8
			C246.7,54.4,250.2,59.1,250.2,64.5z M231.2,49.5c5.9,0,9-2.2,9-7.1c0-4.8-3.2-6.9-9-6.9h-9.4v13.9H231.2z M221.9,71.6h11
			c5.8,0,9-2.9,9-7.5c0-4.6-3.2-7.5-9-7.5h-11V71.6z"/>
		<path d="M291.9,79.1h-8.6V28.1h8.6V79.1z"/>
		<path d="M363.4,79.1h-38.1V73l26.9-37.3h-26.5v-7.6H363v6l-26.8,37.3h27.2V79.1z"/>
		<path d="M415.9,79.9c-13.8,0-23.5-11.1-23.5-26.3c0-15.3,9.7-26.3,23.5-26.3s23.6,11,23.6,26.3C439.5,68.8,429.7,79.9,415.9,79.9z
			 M415.9,35c-9,0-14.8,7.8-14.8,18.6s5.8,18.6,14.8,18.6c9,0,14.9-7.8,14.9-18.6S424.9,35,415.9,35z"/>
		<path d="M513.1,79.1h-6.6L480.4,42v37.1h-8.3V28.1h8.1l24.6,35.3V28.1h8.3V79.1z"/>
	</g>
</g>
</svg>
