<?xml version="1.0" encoding="UTF-8"?><svg id="uuid-4c12d14d-385a-4233-a99d-4207bda716d8" xmlns="http://www.w3.org/2000/svg" xmlns:xlink="http://www.w3.org/1999/xlink" viewBox="0 0 1280 1065"><defs><style>.uuid-c9913ab9-fa61-43a9-94e9-1332fb89bd62{fill:#8f8e89;}.uuid-c9913ab9-fa61-43a9-94e9-1332fb89bd62,.uuid-388b24ae-850c-47f4-8e90-5e5ef476184d,.uuid-6742ab42-e6c4-4e2b-920e-0749e188e221{stroke-width:0px;}.uuid-388b24ae-850c-47f4-8e90-5e5ef476184d{fill:url(#uuid-2d14dec4-9893-43b7-96cb-b1521ebf2def);}.uuid-6742ab42-e6c4-4e2b-920e-0749e188e221{fill:#171e4c;}</style><linearGradient id="uuid-2d14dec4-9893-43b7-96cb-b1521ebf2def" x1="557.486" y1="459.354" x2="713.323" y2="31.194" gradientUnits="userSpaceOnUse"><stop offset="0" stop-color="#6b93b2"/><stop offset="1" stop-color="#6b93b2" stop-opacity="0"/></linearGradient></defs><path class="uuid-388b24ae-850c-47f4-8e90-5e5ef476184d" d="m597.488,261.895c0,19.206-15.543,34.776-34.716,34.776s-34.716-15.569-34.716-34.776,15.543-34.775,34.716-34.775,34.716,15.569,34.716,34.775Zm64.005-21.002c-1.174,0-2.327.087-3.465.22-12.021,1.408-21.816,10.032-24.992,21.437-.706,2.537-1.113,5.201-1.113,7.964s.406,5.425,1.113,7.964c3.175,11.405,12.971,20.028,24.992,21.436,1.139.133,2.291.221,3.465.221,16.331,0,29.569-13.261,29.569-29.62s-13.239-29.62-29.569-29.62Zm106.058,5.789c7.152,0,13.812-2.04,19.5-5.519,10.791-6.601,18.018-18.471,18.018-32.063,0-14.535-8.252-27.118-20.305-33.37-5.159-2.676-11.003-4.213-17.213-4.213-20.721,0-37.518,16.827-37.518,37.583s16.797,37.582,37.518,37.582Zm-323.006-48.971c3.931-18.633,12.736-47.713,34.609-76.594,6.186-8.168,11.632-14.058,14.841-17.25,24.221-24.094,54.858-41.836,88.209-49.475,3.157-.98,7.864-1.789,11.153-2.238,14.778-2.684,30.456-3.245,45.362-2.131,3.3.058,7.966,1.053,11.266,1.473,3.742.595,7.529.975,11.167,2.081,0,0,11.02,2.812,11.02,2.813,5.242,1.592,10.829,4.015,16.063,5.744,2.425,1.039,4.791,2.176,7.151,3.32l31.091-24.315c-13.45-8.689-27.982-15.769-43.344-20.846-17.598-5.59-36.566-9.433-55.004-10.119-13.418-.586-28.104.34-41.45,2.355-3.992.685-9.866,1.104-13.668,2.448-50.063,10.495-96.165,39.549-127.514,80.052-11.981,15.273-21.555,31.537-28.891,48.4-7.648,17.58-12.85,35.813-15.726,54.283-15.338,98.484,35.151,203.549,130.242,250.38,63.52,32.205,141.223,31.84,205.738,3.096,52.374-22.784,95.263-64.87,120.12-115.432.704-1.39,1.378-2.791,2.055-4.193,18.412-38.156,26.602-81.031,20.841-124.063,0,0-1.499-8.753-3.522-8.114s-2.087,10.728-2.087,10.728c-.013,34.291-8.177,68.31-23.097,99.026-.122.244-.256.483-.38.727-4.716,9.323-10.028,18.342-15.965,26.937v-27.971c0-8.947-2.144-17.398-5.855-24.952-4.821-9.814-12.361-18.037-21.645-23.697-6.789-4.139-14.473-6.913-22.708-7.888-2.19-.259-4.405-.429-6.661-.429h-15.635c-31.278,0-56.869,25.635-56.869,56.966v20.861c-8.405-14.358-23.941-24.08-41.67-24.08h-4.578c-.397,0-.782.05-1.177.06-9.184.225-17.746,3.034-24.992,7.749-6.538,4.254-11.989,10.034-15.849,16.841-9.992-17.165-28.534-28.797-49.697-28.797h-4.648c-15.279,0-29.181,6.085-39.51,15.908-11.062,10.519-18.021,25.331-18.021,41.722v20.204c-7.995-7.76-15.96-16.689-23.472-26.953,0,0-1.624-2.22-3.154-4.43-5.899-8.52-19.412-31.229-27.539-59.542-11.249-39.192-8.333-75.726-6.601-90.664Z"/><path class="uuid-6742ab42-e6c4-4e2b-920e-0749e188e221" d="m828.446,96.741v-41.119h-28.761v18.626l-57.771-45.182-15.436,12.072-31.091,24.315-88.377,69.118h26.027v52.803l-64.68-50.585-88.824,69.467-22.283,17.427h21.436v124.234c1.04,1.484,2.071,2.973,3.154,4.43,7.188,9.88,15.052,18.858,23.472,26.953v-20.204c0-16.391,6.959-31.204,18.021-41.722,10.329-9.823,24.231-15.908,39.51-15.908h4.648c21.163,0,39.705,11.632,49.697,28.797,3.86-6.807,9.311-12.587,15.849-16.841,7.246-4.715,15.807-7.525,24.992-7.749.395-.01.78-.06,1.177-.06h4.578c17.728,0,33.265,9.722,41.67,24.08v-20.861c0-31.331,25.591-56.966,56.869-56.966h15.635c2.256,0,4.472.171,6.661.429,8.234.976,15.919,3.75,22.708,7.888,9.284,5.66,16.824,13.883,21.645,23.697,3.711,7.554,5.855,16.005,5.855,24.952v27.971c5.937-8.595,11.25-17.614,15.965-26.937v-175.295h26.027l-48.372-37.83Zm-265.674,199.929c-19.173,0-34.716-15.569-34.716-34.776s15.543-34.775,34.716-34.775,34.716,15.569,34.716,34.775-15.543,34.776-34.716,34.776Zm98.721,3.463c-1.174,0-2.327-.087-3.465-.221-12.021-1.408-21.816-10.031-24.992-21.436-.706-2.538-1.113-5.201-1.113-7.964s.406-5.426,1.113-7.964c3.175-11.405,12.971-20.029,24.992-21.437,1.139-.133,2.291-.22,3.465-.22,16.331,0,29.569,13.261,29.569,29.62s-13.239,29.62-29.569,29.62Zm125.557-58.97c-5.688,3.479-12.348,5.519-19.5,5.519-20.721,0-37.518-16.826-37.518-37.582s16.797-37.583,37.518-37.583c6.211,0,12.054,1.537,17.213,4.213,12.053,6.252,20.305,18.835,20.305,33.37,0,13.592-7.228,25.462-18.018,32.063Z"/><path class="uuid-c9913ab9-fa61-43a9-94e9-1332fb89bd62" d="m12.072,1015.032c0-23.235,17.947-40.023,42.063-40.023,12.787,0,23.779,4.558,31.071,13.007l-9.422,8.783c-5.721-6.115-12.787-9.117-20.976-9.117-16.264,0-28.042,11.341-28.042,27.35s11.778,27.35,28.042,27.35c8.188,0,15.255-3.002,20.976-9.227l9.422,8.894c-7.291,8.449-18.283,13.007-31.183,13.007-24.004,0-41.95-16.787-41.95-40.023Z"/><path class="uuid-c9913ab9-fa61-43a9-94e9-1332fb89bd62" d="m169,976.12v77.824h-14.582v-33.352h-40.605v33.352h-14.582v-77.824h14.582v32.13h40.605v-32.13h14.582Z"/><path class="uuid-c9913ab9-fa61-43a9-94e9-1332fb89bd62" d="m190.094,976.12h14.582v77.824h-14.582v-77.824Z"/><path class="uuid-c9913ab9-fa61-43a9-94e9-1332fb89bd62" d="m225.877,976.12h14.582v65.595h41.053v12.229h-55.635v-77.824Z"/><path class="uuid-c9913ab9-fa61-43a9-94e9-1332fb89bd62" d="m293.07,976.12h34.323c25.463,0,42.849,15.565,42.849,38.912s-17.386,38.912-42.849,38.912h-34.323v-77.824Zm33.65,65.595c17.498,0,28.828-10.561,28.828-26.683s-11.33-26.683-28.828-26.683h-19.067v53.365h19.067Z"/><path class="uuid-c9913ab9-fa61-43a9-94e9-1332fb89bd62" d="m437.099,1053.944l-16.04-22.791c-1.01.111-2.019.111-3.029.111h-17.723v22.68h-14.581v-77.824h32.304c20.64,0,33.426,10.451,33.426,27.683,0,11.785-6.057,20.456-16.713,24.571l18.059,25.57h-15.704Zm-19.742-65.595h-17.05v31.019h17.05c12.788,0,19.405-5.781,19.405-15.565s-6.617-15.454-19.405-15.454Z"/><path class="uuid-c9913ab9-fa61-43a9-94e9-1332fb89bd62" d="m526.613,1041.826v12.119h-58.888v-77.824h57.318v12.119h-42.737v20.235h37.913v11.896h-37.913v21.457h44.307Z"/><path class="uuid-c9913ab9-fa61-43a9-94e9-1332fb89bd62" d="m612.651,976.12v77.824h-12.002l-43.297-52.698v52.698h-14.469v-77.824h12.002l43.297,52.698v-52.698h14.469Z"/><path class="uuid-c9913ab9-fa61-43a9-94e9-1332fb89bd62" d="m646.084,979.789c0,2.558-.448,4.447-2.467,9.561l-5.833,15.788h-9.086l4.487-17.122c-3.14-1.222-5.271-4.113-5.271-8.227,0-5.448,3.925-9.117,9.085-9.117,5.273,0,9.086,3.78,9.086,9.117Z"/><path class="uuid-c9913ab9-fa61-43a9-94e9-1332fb89bd62" d="m655.618,1045.717l5.048-11.229c6.282,5.002,16.265,8.56,25.911,8.56,12.227,0,17.386-4.336,17.386-10.117,0-16.788-46.663-5.781-46.663-34.686,0-12.563,10.096-23.236,31.632-23.236,9.421,0,19.292,2.446,26.134,6.892l-4.598,11.23c-7.067-4.115-14.806-6.116-21.648-6.116-12.115,0-17.05,4.67-17.05,10.563,0,16.565,46.549,5.781,46.549,34.353,0,12.452-10.207,23.124-31.744,23.124-12.227,0-24.452-3.78-30.959-9.338Z"/><path class="uuid-c9913ab9-fa61-43a9-94e9-1332fb89bd62" d="m757.136,1045.717l5.048-11.229c6.282,5.002,16.265,8.56,25.911,8.56,12.227,0,17.386-4.336,17.386-10.117,0-16.788-46.663-5.781-46.663-34.686,0-12.563,10.096-23.236,31.632-23.236,9.421,0,19.292,2.446,26.134,6.892l-4.598,11.23c-7.067-4.115-14.806-6.116-21.648-6.116-12.115,0-17.05,4.67-17.05,10.563,0,16.565,46.549,5.781,46.549,34.353,0,12.452-10.207,23.124-31.744,23.124-12.227,0-24.452-3.78-30.959-9.338Z"/><path class="uuid-c9913ab9-fa61-43a9-94e9-1332fb89bd62" d="m904.08,976.12v77.824h-14.582v-33.352h-40.604v33.352h-14.582v-77.824h14.582v32.13h40.604v-32.13h14.582Z"/><path class="uuid-c9913ab9-fa61-43a9-94e9-1332fb89bd62" d="m984.064,1041.826v12.119h-58.888v-77.824h57.318v12.119h-42.737v20.235h37.913v11.896h-37.913v21.457h44.307Z"/><path class="uuid-c9913ab9-fa61-43a9-94e9-1332fb89bd62" d="m1000.333,976.12h14.582v65.595h41.053v12.229h-55.636v-77.824Z"/><path class="uuid-c9913ab9-fa61-43a9-94e9-1332fb89bd62" d="m1076.164,988.349h-26.023v-12.229h66.628v12.229h-26.023v65.595h-14.582v-65.595Z"/><path class="uuid-c9913ab9-fa61-43a9-94e9-1332fb89bd62" d="m1186.653,1041.826v12.119h-58.888v-77.824h57.318v12.119h-42.737v20.235h37.913v11.896h-37.913v21.457h44.307Z"/><path class="uuid-c9913ab9-fa61-43a9-94e9-1332fb89bd62" d="m1254.296,1053.944l-16.04-22.791c-1.01.111-2.019.111-3.029.111h-17.723v22.68h-14.581v-77.824h32.304c20.64,0,33.426,10.451,33.426,27.683,0,11.785-6.057,20.456-16.713,24.571l18.059,25.57h-15.704Zm-19.742-65.595h-17.05v31.019h17.05c12.788,0,19.405-5.781,19.405-15.565s-6.617-15.454-19.405-15.454Z"/><path class="uuid-6742ab42-e6c4-4e2b-920e-0749e188e221" d="m91.802,907.222c-50.207,0-81.802-32.898-81.802-78.782v-143.711c0-45.451,31.596-78.349,81.802-78.349,50.639,0,81.802,32.898,81.802,78.349v143.711c0,45.884-31.163,78.782-81.802,78.782Zm27.7-225.957c0-16.881-9.955-28.136-27.7-28.136-17.313,0-27.268,11.254-27.268,28.136v150.638c0,16.881,9.955,28.136,27.268,28.136,17.746,0,27.7-11.254,27.7-28.136v-150.638Z"/><path class="uuid-6742ab42-e6c4-4e2b-920e-0749e188e221" d="m199.574,708.536v-12.553c13.85,0,22.939-9.524,22.939-28.57h-19.477v-54.974h42.416v49.347c0,26.837-16.014,46.75-45.878,46.75Z"/><path class="uuid-6742ab42-e6c4-4e2b-920e-0749e188e221" d="m354.956,907.222c-51.505,0-83.101-34.63-83.101-79.214v-142.846c0-44.585,31.596-79.214,83.101-79.214,51.073,0,77.907,32.032,77.907,75.319v35.062h-48.044v-34.629c0-16.882-9.522-28.569-28.999-28.569s-29.431,11.687-29.431,27.703v151.503c0,16.017,9.955,27.703,29.431,27.703s28.999-11.687,28.999-28.569v-34.63h48.044v35.063c0,43.286-26.834,75.319-77.907,75.319Z"/><path class="uuid-6742ab42-e6c4-4e2b-920e-0749e188e221" d="m528.454,904.417c-40.57,0-68.231-26.742-68.231-71.005v-86.22c0-43.802,27.661-71.466,68.231-71.466,40.109,0,67.77,27.664,67.77,71.466v86.22c0,44.263-27.661,71.005-67.77,71.005Zm20.746-166.446c0-13.371-8.299-23.054-20.746-23.054-13.37,0-20.746,9.683-20.746,23.054v104.663c0,13.371,7.376,22.593,20.746,22.593,12.447,0,20.746-9.221,20.746-22.593v-104.663Z"/><path class="uuid-6742ab42-e6c4-4e2b-920e-0749e188e221" d="m721.152,900.729v-163.219c0-13.371-7.837-22.131-18.901-22.131-14.753,0-23.513,18.903-23.513,30.431v154.92h-48.406v-221.314h41.953l2.766,35.964c9.22-26.281,27.2-39.652,47.485-39.652,30.427,0,47.023,22.131,47.023,55.328v169.675h-48.406Z"/><path class="uuid-6742ab42-e6c4-4e2b-920e-0749e188e221" d="m896.329,900.729v-163.219c0-13.371-7.837-22.131-18.901-22.131-14.753,0-23.513,18.903-23.513,30.431v154.92h-48.406v-221.314h41.953l2.766,35.964c9.22-26.281,27.2-39.652,47.485-39.652,30.427,0,47.023,22.131,47.023,55.328v169.675h-48.406Z"/><path class="uuid-6742ab42-e6c4-4e2b-920e-0749e188e221" d="m1045.692,904.417c-40.109,0-67.77-28.126-67.77-70.082v-88.526c0-41.497,27.661-70.083,67.77-70.083,40.57,0,65.926,28.586,65.926,70.083v48.874h-86.671v47.49c0,13.833,7.376,23.054,21.206,23.054,15.214,0,21.669-9.221,21.669-23.054v-21.67h43.796v14.294c0,41.958-25.356,69.622-65.926,69.622Zm21.206-165.986c0-14.294-7.376-23.515-20.746-23.515s-21.206,9.221-21.206,23.515v33.197h41.952v-33.197Z"/><path class="uuid-6742ab42-e6c4-4e2b-920e-0749e188e221" d="m1142.751,900.729v-288.289h45.447v288.289h-45.447Z"/><path class="uuid-6742ab42-e6c4-4e2b-920e-0749e188e221" d="m1222.821,900.729v-288.289h45.447v288.289h-45.447Z"/></svg>