<?xml version="1.0" encoding="utf-8"?>
<!-- Generator: Adobe Illustrator 26.4.1, SVG Export Plug-In . SVG Version: 6.00 Build 0)  -->
<svg version="1.1" id="Layer_1" xmlns="http://www.w3.org/2000/svg" xmlns:xlink="http://www.w3.org/1999/xlink" x="0px" y="0px"
	 viewBox="0 0 1033.1 633.7" style="enable-background:new 0 0 1033.1 633.7;" xml:space="preserve">
<style type="text/css">
	.st0{fill:#8A2432;}
	.st1{fill:#007934;}
	.st2{fill:#D2451E;}
	.st3{fill:#0067B1;}
</style>
<g>
	<path d="M12.1,314.8c-0.6-11.2-0.6-13.4-8.6-15.5c-2-0.4-3-1.2-3-1.8c0-1,1.2-1.2,3.3-1.2c3.1,0,10.6,1,16.5,1
		c6.7,0,14.6-0.8,17.7-0.8c2.2,0,3.1,0.4,3.1,1.2c0,0.6-1,1.6-2.8,1.8c-6.7,1.6-7.7,4.1-8.2,11.2c-0.4,4.7-0.8,37.4-0.6,40.9
		c0,2,0.4,3.5,1.8,3.7c5.1,0.2,30.3,0,48.2,0c15.7,0,18.1-0.4,19.1-0.4c1.8-0.2,2-0.6,2-3.7c0.4-5.7-0.4-28.1-0.6-35.2
		c-0.6-12.8-1.4-15.5-9-16.7c-1.6-0.2-3.1-0.8-3.1-1.8c0-0.6,1-1.2,2.9-1.2c5.3,0,10.2,1,18.9,1c6.3,0,12.4-1,16.5-1
		c2,0,3.3,0.2,3.3,1.2c0,0.8-0.8,1.4-2.9,2c-7.9,1.6-8.3,4.5-8.6,14.2c-0.2,6.7,0,35.2,0.2,48.8c0.2,13.2,0.6,27.1,1,41.5
		c0.4,9.8,1.4,12,9.4,13.8c2.2,0.6,2.9,1.2,2.9,2s-1.4,1.4-3.3,1.4c-5.5,0-13.6-0.8-18.5-0.8c-6.3,0-12.2,0.6-16.9,0.6
		c-2.2,0-3.7-0.4-3.7-1.6c0-0.6,1-1.2,3.3-1.6c6.9-1.4,8.1-3.3,8.5-11.4c0.2-7.5,0.6-30.1,0.2-40.1c0-2.5-0.2-4.5-1.6-4.5
		c-6.9-0.4-28.3-0.6-47.4-0.8c-9.4,0-18.9-0.2-21.2-0.2c-0.6,0-1.4,1.4-1.4,4.3c0,16.7,1,41.9,2,45.8c0.6,3.9,2.9,5.9,7.3,7.1
		c2.8,0.6,3.5,1.2,3.5,2c0,1-1.8,1.4-3.5,1.4c-5.1,0-12.8-1-18.7-1c-4.9,0-12.8,0.8-16.7,0.8c-2,0-3.3-0.6-3.3-1.2
		c0-1,1.4-1.6,3.3-2.2c6.9-1.4,8.3-3.5,8.7-9.2c0.4-5.9,0.8-19.7,0.8-50.3C12.7,347.8,12.5,321.7,12.1,314.8z"/>
	<path d="M196.6,326.8c1.2,4.3,2.6,8.6,4.3,12.8c9.4,24.8,18.1,46.4,27.5,68.4c3.1,7.1,6.1,9,11.2,10c1.8,0.6,3.1,1.2,3.1,1.8
		c0,1-1.8,1.4-3.5,1.4c-4.7,0-10-0.8-16.7-1c-5.7,0-11.2,0.8-15.1,0.8c-1.6,0-3.3-0.6-3.3-1.4s1.6-1.6,3.1-1.8
		c4.9-1,7.1-2.4,5.7-6.3c-1.8-4.3-6.1-15.9-10-25.2c-0.4-1.1-1.4-1.8-2.6-2c-3.3-0.2-24.4-0.2-26.9,0c-0.9,0.2-1.7,0.9-2,1.8
		c-2,4.3-5.7,13.6-7.9,19.1c-1.8,5.3-1.8,8.3-0.2,9.8c1,1.6,3.1,2.2,6.1,3c1.4,0.4,2.6,1,2.6,1.6c0,1-1.2,1.4-3.4,1.4
		c-2.4,0-8.6-0.8-12.6-0.8s-7.9,0.6-11.6,0.6c-1.8,0-3.1-0.4-3.1-1.2s1.6-1.4,3.3-1.8c7.3-1.6,9-4.7,13.8-14.3
		c4.5-8.5,18.3-41.7,26.7-62.9c0.7-1.4,1-3,1-4.5c-0.1-0.6,0.2-1.3,0.8-1.6c1.4-1.2,5.1-4.3,6.7-7.3c0.4-1.2,1.2-1.8,1.8-1.8
		C196.2,325.5,196.5,326.1,196.6,326.8z M200.2,378.2c-4.7-12.2-10.8-27.3-12.2-30.7c-0.4-1.2-1-1.4-1.4-0.2
		c-3.4,7.3-10.4,25.6-12.2,31.1c-0.2,0.8-0.2,1.4,0.8,1.4h11.6c3.9,0,11.4,0,12.8-0.2C200.4,379.6,200.4,378.8,200.2,378.2
		L200.2,378.2z"/>
	<path d="M286.6,328.4c2.2,0,3.5,0.4,3.5,1.2c0,0.6-1.8,1.4-3.5,1.8c-5.7,1.4-6.5,1.8-6.7,13.6c-0.2,5.5-0.2,37.8-0.2,57.4
		c0,5.9,0.4,9.8,1.6,11.6c1.6,2.6,3.5,3.2,15,3.2c5.7,0,12.2,0,14.4-0.6c3.9-0.4,7.3-3.7,12.2-12c1-1.8,1.6-2.4,2.2-2.4
		c0.8,0,1.2,2-0.2,5.1c-0.8,2.6-4.1,10.8-4.9,12.4c-0.7,0.9-1.7,1.5-2.8,1.6c-4.9,0-14.5-0.2-22.4-0.4c-7.1-0.4-19.7-0.6-25.4-0.6
		c-4.5,0-12,0.6-14,0.6c-2,0.2-3.4-0.2-3.4-1c0-1,1.2-1.2,2.6-1.6c6.5-1.4,8.1-3.2,8.5-8.1c0.6-5.3,0.8-14.3,0.8-34.4
		c0-19.9,0.2-30.1-0.2-34.6c-0.2-6.9-1.8-8.8-8.1-10c-2.2-0.4-2.8-1-2.8-1.6c0-0.8,1.6-1.2,3.1-1.2c4.7,0,10.2,0.6,14.9,0.6
		C275.9,329,283.2,328.4,286.6,328.4z"/>
	<path d="M367.5,328.4c2.2,0,3.5,0.4,3.5,1.2c0,0.6-1.8,1.4-3.5,1.8c-5.7,1.4-6.5,1.8-6.7,13.6c-0.2,5.5-0.2,37.8-0.2,57.4
		c0,5.9,0.4,9.8,1.6,11.6c1.6,2.6,3.5,3.2,14.9,3.2c5.7,0,12.2,0,14.4-0.6c3.9-0.4,7.3-3.7,12.2-12c1-1.8,1.6-2.4,2.2-2.4
		c0.8,0,1.2,2-0.2,5.1c-0.8,2.6-4.1,10.8-4.9,12.4c-0.7,0.9-1.7,1.5-2.8,1.6c-4.9,0-14.5-0.2-22.4-0.4c-7.1-0.4-19.7-0.6-25.4-0.6
		c-4.5,0-12,0.6-14,0.6c-2,0.2-3.3-0.2-3.3-1c0-1,1.2-1.2,2.6-1.6c6.5-1.4,8.1-3.2,8.5-8.1c0.6-5.3,0.8-14.3,0.8-34.4
		c0-19.9,0.2-30.1-0.2-34.6c-0.2-6.9-1.8-8.8-8.1-10c-2.2-0.4-2.8-1-2.8-1.6c0-0.8,1.6-1.2,3.1-1.2c4.7,0,10.2,0.6,15,0.6
		C356.9,329,364.2,328.4,367.5,328.4z"/>
	<path d="M553.5,303.1c1.3,0.7,2.1,2.1,2,3.5c-0.4,4.5,0.6,13.4,0.6,15.3c0,2-0.8,3.1-1.2,3.1c-0.8,0-1.4-1-1.8-2.5
		c-1.6-6.7-5.9-13-9.4-15.7c-7.3-6.5-18.1-9.8-29.9-9.8c-12.8,0-24.6,6.5-32.6,14.8c-9,9.8-15.2,27.5-15.2,46.2
		c0,16.9,7.1,35.8,17.7,47.4c8.6,9.1,20.5,14.2,33,14.3c11.2,0,17.9-2.4,23-5.5c7.5-4.5,11.8-11,15-19.1c0.8-2.4,1.2-3.2,2-3.2
		s1.2,1.8,1.2,3c0,3.1-2.4,12.8-2.8,15.1c-0.2,1.4-1,2.6-2.2,3.3c-11.6,6.5-22,10.4-38.2,10.4c-24,0-39.7-8.7-51.5-20.7
		c-8.5-8.7-16.5-26.3-16.5-43.5c0-23.4,9.4-38.1,22-49.5c10.2-9.3,27.9-16.3,46.4-16.3C530.9,293.8,546.8,299.5,553.5,303.1z"/>
	<path d="M585.8,329c9.6,0,25.6-0.4,32-0.4c5.7,0,12.6-0.4,14.2-0.4c0.6,0,1.2,1.4,1.4,2.4c0.2,1.6,0.6,8.5,1,11.6
		c0.2,1.8-0.4,3.5-1.2,3.5c-0.6,0-1.4-1.4-2-3.1c-2.5-6.7-5.7-9-8.1-9.4c-2.5-0.4-3.3-0.8-26.3-0.8c-1,0-1.6,1.2-1.6,2.5
		c-0.2,6.5-0.2,27.5-0.2,34.6c-0.1,0.8,0.5,1.5,1.2,1.6c0.1,0,0.1,0,0.2,0h14c5.9,0,10.8-0.6,12.6-1.2s2.8-2,4.3-5.9
		c0.6-1.6,1.2-3,2.2-3c0.4,0,0.8,0.8,0.8,3c0,1.2-1,7.5-1,9.8c-0.2,2.9-0.2,5.8,0,8.7c0.2,1.6-0.2,3.1-1,3.1s-1.4-1.4-2.2-3.3
		c-1.2-3.3-2.8-6.1-4.9-6.5c-3.2-0.4-6.1-0.6-25.2-0.6c-0.4,0-1.2,0.4-1.2,2.2c-0.2,5.5,0.4,27.7,0.6,30.5c0.4,5.5,0.6,7.9,4.1,8.5
		c2.3,0.2,7.5,0.6,15.7,0.6c12.4,0,13.4-1,15.5-2.6c1.8-1.4,5.3-5.7,7.7-10c0.8-1.4,1.8-2.4,2.6-2.4s0.8,1.8,0,3.9
		c-0.8,2-3.3,10.8-4.1,12.8c-0.6,1.3-1.9,2.1-3.3,2.2c-16.5,0-31.5-0.6-47-0.6c-5.3,0-14.2,0.6-16.1,0.6c-1.8,0-3.5-0.2-3.5-1.2
		s1.6-1.4,3.2-1.6c4.9-1,7.9-2.4,8.3-8.7c0.6-8.1,0.8-25.8,0.8-39.9c0-7.9,0-17.5-0.2-27.1c-0.2-8.5-2.4-9.8-7.9-11
		c-1.8-0.4-2.8-1-2.8-1.8s1.2-1.2,2.6-1.2C574.8,328.4,582.1,329,585.8,329z"/>
	<path d="M747.8,328.4c1.8,0,3.2,0.4,3.2,1.2s-1.8,1.6-3.3,2c-5.7,1.6-7.5,4.3-7.9,8.8c-0.6,5.9-1,36.4-1,49.8
		c0,13.6-0.4,21.4,0,28.5c0.2,3-0.4,4.5-1.6,4.5c-0.8,0-3.3-1.8-5.7-4.9c-8.1-9.8-44-53.7-63.1-75.1c-0.4-0.4-1.4-0.6-1.4,0.4
		c0,5.1-0.2,51.1-0.2,57c0,13,1.4,15.5,10.4,17.5c1.6,0.4,3.2,1.2,3.2,1.8c0,0.8-0.8,1.2-3.3,1.2s-8.5-0.8-13-0.8
		c-3.7,0-9.6,0.8-11.4,0.8c-1.6,0-3.5-0.2-3.5-1.4c0-0.8,1.8-1.4,3.2-1.6c6.5-1.2,8.5-3.7,9.4-13.2c0.4-6.1,1.8-51.5,1.8-60.6
		c0-6.7-0.8-9-3-10.6c-2.2-1.5-4.8-2.3-7.5-2.5c-2-0.4-3.1-1-3.1-1.8c0-0.8,1.4-1.2,3.3-1.2c3,0,11.8,0.8,22.6,0.8
		c0.6,0,2,1.2,3.3,3.1c9.8,12.4,42.1,49.2,54.5,62.9c0.8,0.8,1.2,0.2,1.2-0.2c0-3.7,0-40.1-0.4-52.3c-0.2-8.5-3-9.8-10.2-11.2
		c-1.8-0.2-3.2-1-3.2-1.8c0-1,1.8-1.2,3.3-1.2c2.8,0,8.8,0.6,12,0.6C740.5,329,745.5,328.4,747.8,328.4z"/>
	<path d="M827.9,329c11.2,0,13.8-0.4,16.3-1.4c1-0.6,1.8-1,2.2-0.8c0.4,0.4,0.4,1,0.2,1.8c-0.6,1.6-1,7.1-0.8,14.2
		c0,2.2-0.2,4.3-1.2,4.3c-0.8,0-1.4-1.4-1.6-2.8c-0.7-2.8-1.6-5.6-2.8-8.2c-1.2-1.4-2.4-3-7.5-3c-3.1,0-18.1,0-20.8,0.2
		c-0.8,0-1.2,1.6-1.2,2.4l-0.4,51.7c0,8.5,0,19.1,0.6,23.4c0.6,4.5,2.5,6.1,7.9,7.1c2.2,0.4,3.3,1.2,3.3,2s-2.2,1.2-3.9,1.2
		c-5.3,0-9.8-0.8-16.5-0.8c-9.4,0-13.8,0.8-16.1,0.8s-3.7-0.6-3.7-1.2c0-0.8,1.6-1.6,3.3-1.8c7.1-1,8.5-2.6,8.7-10
		c0.8-14.5,1.2-71,1.2-72.4c0-1-0.2-2.4-1-2.5c-1.2,0-5.3-0.2-11-0.2s-10.4,0.2-12.2,0.4c-3.5,0.6-6.1,3-7.9,10.8
		c-0.4,1.8-1,3-1.8,3s-1.4-1.2-1.2-3.3c0.4-4.5,1.6-11.4,1.6-15.3c0-0.7,0.2-1.5,0.8-2c0.6-0.4,1,0,1.6,0.6c1.6,0.8,3.3,1.3,5.1,1.4
		c2.2,0.2,18.3,0.6,34.4,0.6L827.9,329z"/>
	<path d="M875.1,329c9.6,0,25.6-0.4,32.1-0.4c5.7,0,12.6-0.4,14.2-0.4c0.6,0,1.2,1.4,1.4,2.4c0.2,1.6,0.6,8.5,1,11.6
		c0.2,1.8-0.4,3.5-1.2,3.5c-0.6,0-1.4-1.4-2-3.1c-2.6-6.7-5.7-9-8.1-9.4c-2.6-0.4-3.3-0.8-26.3-0.8c-1,0-1.6,1.2-1.6,2.5
		c-0.2,6.5-0.2,27.5-0.2,34.6c-0.1,0.8,0.5,1.5,1.2,1.6c0.1,0,0.1,0,0.2,0h14c5.9,0,10.8-0.6,12.6-1.2s2.8-2,4.3-5.9
		c0.6-1.6,1.2-3,2.2-3c0.4,0,0.8,0.8,0.8,3c0,1.2-1,7.5-1,9.8c-0.2,2.9-0.2,5.8,0,8.7c0.2,1.6-0.2,3.1-1,3.1s-1.4-1.4-2.2-3.3
		c-1.2-3.3-2.8-6.1-4.9-6.5c-3.2-0.4-6.1-0.6-25.2-0.6c-0.4,0-1.2,0.4-1.2,2.2c-0.2,5.5,0.4,27.7,0.6,30.5c0.4,5.5,0.6,7.9,4.1,8.5
		c2.4,0.2,7.5,0.6,15.7,0.6c12.4,0,13.4-1,15.5-2.6c1.8-1.4,5.3-5.7,7.7-10c0.8-1.4,1.8-2.4,2.6-2.4s0.8,1.8,0,3.9
		c-0.8,2-3.3,10.8-4.1,12.8c-0.6,1.3-1.9,2.1-3.3,2.2c-16.5,0-31.5-0.6-47-0.6c-5.3,0-14.2,0.6-16.1,0.6c-1.8,0-3.5-0.2-3.5-1.2
		s1.6-1.4,3.2-1.6c4.9-1,7.9-2.4,8.3-8.7c0.6-8.1,0.8-25.8,0.8-39.9c0-7.9,0-17.5-0.2-27.1c-0.2-8.5-2.4-9.8-7.9-11
		c-1.8-0.4-2.8-1-2.8-1.8s1.2-1.2,2.6-1.2C864.1,328.4,871.4,329,875.1,329z"/>
	<path d="M966,394.9c0,10.4,0.6,14,0.6,15.9c0.4,4.5,2.6,6.1,7.1,7.1c1.6,0.2,3.1,0.8,3.1,1.6s-1.4,1.4-3.7,1.4
		c-4.5,0-7.9-0.6-17.1-0.6c-5.7,0-10.2,0.6-13,0.6c-1.8,0-3.7-0.4-3.7-1c0-1.2,1.6-1.6,3.5-2c5.1-1,7.1-3,7.5-8.3
		c0.4-8.3,0.6-18.1,0.6-39.1c0-20.1-0.2-27.7-0.4-32.1c-0.2-3.9-1.8-6.1-7.5-7.3c-1.8-0.2-3.2-1-3.2-1.6c0-1,2.2-1.2,3.3-1.2
		c2.6,0,8.4,0.6,13.6,0.6c6.9,0,14.2-0.8,20.8-0.8c11.8,0,18.9,2,24,5.9c5.7,3.7,9,10,8.9,16.8c0,11.8-8.1,18.5-17.1,21.6
		c-1,0.4-1,1-0.4,2c3,5.9,9.6,16.5,15.5,25c3.4,4.9,7.2,9.5,11.4,13.8c3.2,3.1,7.4,5,11.8,5.3c2,0,1.6,1.4,0,2.2
		c-1.8,0.8-4.9,1.2-10.2,1.2c-11.2,0-16.3-3.3-23-11.8c-6.1-7.1-14.6-20.5-19.3-28.1c-1.6-2.6-4.9-4.9-7.1-5.1
		c-1.6-0.2-3.3-0.2-4.9-0.2c-0.8,0-1.2,1.4-1.2,2.5L966,394.9z M967.8,332.6c-0.4,0.2-1,1.2-1.2,3.9c-0.2,2.4-0.6,32-0.4,34.4
		c0,1,0.4,2.6,1.4,2.6c2.6,0.2,5.5,0,8.3,0c4.1-0.2,8-1.5,11.4-3.7c3.9-2.5,7.7-8.1,7.7-15.7c0-5.3-1.6-11-4.9-15.1
		c-3.5-4.5-9-7.5-16.1-7.5C972.5,331.4,969,331.8,967.8,332.6L967.8,332.6z"/>
	<path d="M56.4,525.3c-0.6-11.2-0.6-13.4-8.6-15.5c-2-0.4-2.9-1.2-2.9-1.8c0-1,1.2-1.2,3.4-1.2c3.1,0,10.6,1,16.5,1
		c6.7,0,14.6-0.8,17.7-0.8c2.2,0,3.1,0.4,3.1,1.2c0,0.6-1,1.6-2.8,1.8c-6.7,1.6-7.7,4.1-8.3,11.2c-0.4,4.7-0.8,37.4-0.6,40.9
		c0,2,0.4,3.5,1.8,3.7c5.1,0.2,30.3,0,48.2,0c15.7,0,18.1-0.4,19.1-0.4c1.8-0.2,2-0.6,2-3.7c0.4-5.7-0.4-28.1-0.6-35.2
		c-0.6-12.8-1.4-15.5-9-16.7c-1.6-0.2-3.1-0.8-3.1-1.8c0-0.6,1-1.2,2.9-1.2c5.3,0,10.2,1,18.9,1c6.3,0,12.4-1,16.5-1
		c2,0,3.4,0.2,3.4,1.2c0,0.8-0.8,1.4-3,2c-7.9,1.6-8.3,4.5-8.7,14.2c-0.2,6.7,0,35.2,0.2,48.8c0.2,13.2,0.6,27.1,1,41.5
		c0.4,9.8,1.4,12,9.4,13.8c2.2,0.6,3,1.2,3,2s-1.4,1.4-3.3,1.4c-5.5,0-13.6-0.8-18.5-0.8c-6.3,0-12.2,0.6-16.9,0.6
		c-2.2,0-3.7-0.4-3.7-1.6c0-0.6,1-1.2,3.3-1.6c6.8-1.4,8-3.4,8.4-11.5c0.2-7.5,0.6-30.1,0.2-40.1c0-2.5-0.2-4.5-1.6-4.5
		c-6.9-0.4-28.3-0.6-47.4-0.8c-9.4,0-18.9-0.2-21.2-0.2c-0.6,0-1.4,1.4-1.4,4.3c0,16.7,1,41.9,2,45.8c0.6,3.9,2.9,5.9,7.3,7.1
		c2.8,0.6,3.5,1.2,3.5,2c0,1-1.8,1.4-3.5,1.4c-5.1,0-12.8-1-18.7-1c-4.9,0-12.8,0.8-16.7,0.8c-2,0-3.3-0.6-3.3-1.2
		c0-1,1.4-1.6,3.3-2.2c6.9-1.4,8.3-3.5,8.7-9.2c0.4-5.9,0.8-19.7,0.8-50.3C57,558.4,56.8,532.2,56.4,525.3z"/>
	<path d="M186,538.9c4.7,0,10.4,0.6,16.3,0.6s10.8-0.6,14.9-0.6c1.8,0,3.1,0.4,3.1,1.2c0,1.2-2,1.4-3.3,1.8
		c-6.7,1.2-7.3,4.5-7.5,12.4c-0.2,10-0.2,19.7-0.2,28.7v9.6c0,13.2,2.8,20.8,7.5,26c5.9,6.3,14.8,8.3,21,8.3
		c18.7,0,27.5-10.8,27.9-39.5v-13.6c0-27.3-1.6-29.3-5.7-30.9c-1.2-0.4-2.5-0.6-4.3-1c-1.2-0.2-2.8-1-2.8-1.8s1.2-1.2,3-1.2
		c3.4,0,6.1,0.6,11.4,0.6c3.7,0,7.7-0.4,11.4-0.4c2.2,0,3.5,0.2,3.5,1c0,1-1.2,1.6-3.7,2c-6.1,1.4-7.3,3.9-7.7,10.2
		c-0.6,9-0.8,19.5-0.8,28.3c-0.2,21.4-2.4,34.4-11.4,42.9c-8.1,8.1-18.3,10.2-26.5,10.2c-10,0-18.5-2-24.6-6.3
		c-10.2-7.3-13.8-16.7-14-37.8c-0.4-12.8-0.2-27.5-0.4-38.2c-0.2-6.3-1.6-8.3-7.5-9.6c-1.4-0.4-3.5-1.2-3.5-1.8
		C182.3,538.9,184.2,538.9,186,538.9z"/>
	<path d="M373.5,631.3c-2.4,0-4.1-0.4-4.1-1.4c0-0.8,1.8-1.4,3.5-1.8c7.1-1.2,6.5-3.9,7.1-15.5c0.4-8.3,0.4-44,0.4-53.7
		c0-2.4-1-1.8-1.6-0.6c-10,19.1-25.4,53.1-32.5,69.4c-1.2,3-2.6,4.3-3.3,4.3s-2-2.6-3.4-6.1c-7.1-17.5-23-52.7-29.3-66.7
		c-0.6-1.6-1.4-1-1.6,0.4c-0.6,6.5-2.2,46.2-2.2,52.3c0,3.9-0.2,7.9,0.6,10.2c0.8,4.3,5.3,5.3,8.9,6.1c1.8,0.6,2.8,1,2.8,1.6
		c0,1-1.4,1.6-3.1,1.4c-3.7,0-8.1-0.6-12.6-0.6c-4.7,0-8.3,0.8-11.6,0.8c-2.2,0-3.3-0.6-3.3-1.4c-0.2-0.8,0.8-1.2,2.8-1.6
		c4.3-1,6.3-2,7.9-4.7c1.6-2.4,2.4-7.7,3-15.7c0.8-8.7,3.3-40.1,3.3-50.7c0-7.5,0-10.2-2.2-12.4c-2-2-4.1-2.4-8.3-3
		c-1.4-0.4-3-1.2-3-2.2c0-0.8,2.2-1,3.3-1c4.9,0,13.4,0.6,21.8,0.6c0.8,0,1.8,1.4,2,2.3c6.7,15.7,23.2,50.7,31.1,65.1
		c0.4,0.8,0.8,0.8,1.2,0.2c7.7-13.2,22.6-46.4,26.4-53.9c3.1-6.5,4.3-9.8,4.9-11c0.4-1,1.6-2.8,2.4-2.8c4.9,0,13.8-0.8,20.4-0.8
		c1.8,0,3.5,0.4,3.5,1.2c0,1.2-2,1.6-3.7,1.8c-7.3,1.2-9.2,3-9.6,9.8c-0.2,4.3-0.2,11-0.2,20.8c0,15.7,0.8,39.5,1.2,44.6
		c0.8,8.8,1.6,10,8.3,11.4c1.6,0.4,2.8,1,2.8,1.8c0,0.6-1.2,1.4-3.1,1.4c-4.1,0-13.2-0.8-16.5-0.8
		C382.4,630.8,375.5,631.3,373.5,631.3z"/>
	<path d="M471.9,537.3c1.2,4.3,2.6,8.6,4.3,12.8c9.4,24.8,18.1,46.4,27.5,68.4c3.1,7.1,6.1,9,11.2,10c1.8,0.6,3.1,1.2,3.1,1.8
		c0,1-1.8,1.4-3.5,1.4c-4.7,0-10-0.8-16.7-1c-5.7,0-11.2,0.8-15.1,0.8c-1.6,0-3.3-0.6-3.3-1.4s1.6-1.6,3.2-1.8
		c4.9-1,7.1-2.4,5.7-6.3c-1.8-4.3-6.1-15.9-10-25.2c-0.4-1.1-1.4-1.8-2.5-2c-3.3-0.2-24.4-0.2-27,0c-0.9,0.2-1.7,0.9-2,1.8
		c-2,4.3-5.7,13.6-7.9,19.1c-1.8,5.3-1.8,8.3-0.2,9.8c1,1.6,3.1,2.2,6.1,3c1.4,0.4,2.6,1,2.6,1.6c0,1-1.2,1.4-3.3,1.4
		c-2.3,0-8.7-0.8-12.6-0.8s-7.9,0.6-11.6,0.6c-1.8,0-3.2-0.4-3.2-1.2s1.6-1.4,3.3-1.8c7.3-1.6,9-4.7,13.8-14.3
		c4.5-8.5,18.3-41.7,26.7-62.9c0.7-1.4,1-3,1-4.5c-0.1-0.6,0.2-1.3,0.8-1.6c1.4-1.2,5.1-4.3,6.7-7.3c0.4-1.2,1.2-1.8,1.8-1.8
		C471.5,536,471.7,536.6,471.9,537.3z M475.5,588.7c-4.7-12.2-10.8-27.3-12.2-30.7c-0.4-1.2-1-1.4-1.4-0.2
		c-3.3,7.3-10.4,25.6-12.2,31.1c-0.2,0.8-0.2,1.4,0.8,1.4h11.6c3.9,0,11.4,0,12.8-0.2C475.7,590,475.7,589.3,475.5,588.7z"/>
	<path d="M625.1,538.9c1.8,0,3.2,0.4,3.2,1.2s-1.8,1.6-3.3,2c-5.7,1.6-7.5,4.3-7.9,8.8c-0.6,5.9-1,36.4-1,49.8
		c0,13.6-0.4,21.4,0,28.5c0.2,3-0.4,4.5-1.6,4.5c-0.8,0-3.3-1.8-5.7-4.9c-8.1-9.8-44-53.7-63.1-75.1c-0.4-0.4-1.4-0.6-1.4,0.4
		c0,5.1-0.2,51.1-0.2,57c0,13,1.4,15.5,10.4,17.5c1.6,0.4,3.2,1.2,3.2,1.8c0,0.8-0.8,1.2-3.3,1.2s-8.5-0.8-13-0.8
		c-3.7,0-9.6,0.8-11.4,0.8c-1.6,0-3.5-0.2-3.5-1.4c0-0.8,1.8-1.4,3.2-1.6c6.5-1.2,8.5-3.7,9.4-13.2c0.4-6.1,1.8-51.5,1.8-60.6
		c0-6.7-0.8-9-3-10.6c-2.2-1.5-4.8-2.3-7.5-2.6c-2-0.4-3.1-1-3.1-1.8s1.4-1.2,3.3-1.2c3,0,11.8,0.8,22.6,0.8c0.6,0,2,1.2,3.3,3.1
		c9.8,12.4,42.1,49.2,54.5,62.9c0.8,0.8,1.2,0.2,1.2-0.2c0-3.7,0-40.1-0.4-52.3c-0.2-8.5-3-9.8-10.2-11.2c-1.8-0.2-3.2-1-3.2-1.8
		c0-1,1.8-1.2,3.3-1.2c2.8,0,8.8,0.6,12,0.6C617.8,539.5,622.7,538.9,625.1,538.9z"/>
	<path d="M673.2,538.9c1.6,0,3,0.4,3,1.2c0,0.6-1.2,1.4-3.2,1.8c-5.7,1.2-6.9,3.2-7.1,8.7c-0.2,6.7-0.4,24-0.4,32
		c0,21.4,0,34.6,0.4,38.3c0.4,4.5,2.2,6.3,8.3,7.5c1.8,0.6,2.5,1,2.5,1.8c0,1-1.6,1.2-3.3,1.2c-3.3,0-11.2-0.6-16.5-0.6
		c-4.9,0-10.8,0.8-15.3,0.8c-1.8,0-3.1-0.6-3.1-1.2c0-1,1.2-1.4,3.1-1.8c6.1-1.2,7.7-3.7,7.9-11.8c0.4-8.5,0.4-21.6,0.4-33.8
		c0-14.8-0.2-32.8-0.6-35c-0.6-4.1-3.5-5.3-7.9-6.1c-1.2-0.4-2.8-1.2-2.8-1.8c0-0.8,1.6-1.2,3.2-1.2c4.1,0,10,0.6,15,0.6
		C660.4,539.5,669.5,538.9,673.2,538.9z"/>
	<path d="M754.4,539.5c11.2,0,13.8-0.4,16.3-1.4c1-0.6,1.8-1,2.2-0.8c0.4,0.4,0.4,1,0.2,1.8c-0.6,1.6-1,7.1-0.8,14.2
		c0,2.2-0.2,4.3-1.2,4.3c-0.8,0-1.4-1.4-1.6-2.8c-0.7-2.8-1.6-5.6-2.8-8.2c-1.2-1.4-2.4-3-7.5-3c-3.2,0-18.1,0-20.8,0.2
		c-0.8,0-1.2,1.6-1.2,2.4l-0.4,51.7c0,8.5,0,19.1,0.6,23.4c0.6,4.5,2.6,6.1,7.9,7.1c2.2,0.4,3.3,1.2,3.3,2s-2.2,1.2-3.9,1.2
		c-5.3,0-9.8-0.8-16.5-0.8c-9.4,0-13.8,0.8-16.1,0.8s-3.7-0.6-3.7-1.2c0-0.8,1.6-1.6,3.3-1.8c7.1-1,8.5-2.6,8.7-10
		c0.8-14.5,1.2-71,1.2-72.4c0-1-0.2-2.4-1-2.5c-1.2,0-5.3-0.2-11-0.2s-10.4,0.2-12.2,0.4c-3.5,0.6-6.1,3-7.9,10.8
		c-0.4,1.8-1,3-1.8,3s-1.4-1.2-1.2-3.3c0.4-4.5,1.6-11.4,1.6-15.3c0-0.7,0.2-1.5,0.8-2c0.6-0.4,1,0,1.6,0.6c1.6,0.8,3.3,1.3,5.1,1.4
		c2.2,0.2,18.3,0.6,34.4,0.6L754.4,539.5z"/>
	<path d="M818.6,538.9c1.6,0,3,0.4,3,1.2c0,0.6-1.2,1.4-3.2,1.8c-5.7,1.2-6.9,3.2-7.1,8.7c-0.2,6.7-0.4,24-0.4,32
		c0,21.4,0,34.6,0.4,38.3c0.4,4.5,2.2,6.3,8.3,7.5c1.8,0.6,2.6,1,2.6,1.8c0,1-1.6,1.2-3.3,1.2c-3.3,0-11.2-0.6-16.5-0.6
		c-4.9,0-10.8,0.8-15.3,0.8c-1.8,0-3.1-0.6-3.1-1.2c0-1,1.2-1.4,3.1-1.8c6.1-1.2,7.7-3.7,7.9-11.8c0.4-8.5,0.4-21.6,0.4-33.8
		c0-14.8-0.2-32.8-0.6-35c-0.6-4.1-3.5-5.3-7.9-6.1c-1.2-0.4-2.8-1.2-2.8-1.8c0-0.8,1.6-1.2,3.2-1.2c4.1,0,10,0.6,15,0.6
		C805.8,539.5,814.8,538.9,818.6,538.9z"/>
	<path d="M852,539.5c9.6,0,25.6-0.4,32.1-0.4c5.7,0,12.6-0.4,14.2-0.4c0.6,0,1.2,1.4,1.4,2.4c0.2,1.6,0.6,8.5,1,11.6
		c0.2,1.8-0.4,3.5-1.2,3.5c-0.6,0-1.4-1.4-2-3.2c-2.5-6.7-5.7-9-8.1-9.4c-2.6-0.4-3.3-0.8-26.3-0.8c-1,0-1.6,1.2-1.6,2.5
		c-0.2,6.5-0.2,27.5-0.2,34.6c-0.1,0.8,0.4,1.5,1.2,1.6c0.1,0,0.1,0,0.2,0h14c5.9,0,10.8-0.6,12.6-1.2s2.8-2,4.3-5.9
		c0.6-1.6,1.2-3,2.2-3c0.4,0,0.8,0.8,0.8,3c0,1.2-1,7.5-1,9.8c-0.2,2.9-0.2,5.8,0,8.7c0.2,1.6-0.2,3.1-1,3.1s-1.4-1.4-2.2-3.3
		c-1.2-3.3-2.8-6.1-4.9-6.5c-3.1-0.4-6.1-0.6-25.2-0.6c-0.4,0-1.2,0.4-1.2,2.2c-0.2,5.5,0.4,27.7,0.6,30.5c0.4,5.5,0.6,7.9,4.1,8.5
		c2.4,0.2,7.5,0.6,15.7,0.6c12.4,0,13.4-1,15.5-2.6c1.8-1.4,5.3-5.7,7.7-10c0.8-1.4,1.8-2.4,2.6-2.4s0.8,1.8,0,3.9
		c-0.8,2-3.3,10.8-4.1,12.8c-0.6,1.3-1.9,2.1-3.3,2.2c-16.5,0-31.5-0.6-47-0.6c-5.3,0-14.2,0.6-16.1,0.6c-1.8,0-3.5-0.2-3.5-1.2
		s1.6-1.4,3.1-1.6c4.9-1,7.9-2.4,8.3-8.7c0.6-8.1,0.8-25.8,0.8-39.9c0-7.9,0-17.5-0.2-27.1c-0.2-8.5-2.4-9.8-7.9-11
		c-1.8-0.4-2.8-1-2.8-1.8s1.2-1.2,2.6-1.2C841,538.9,848.3,539.5,852,539.5z"/>
	<path d="M935.9,555.6c0,6.9,3.9,11.8,9.6,16.1c5.9,3.9,11.4,7.3,16.3,10.4c6.5,4.3,15.7,11.2,15.7,24.2c0,16.9-15.9,27.3-33.2,27.3
		c-6.5,0-16.3-2-21.6-4.3c-1.6-0.6-2-2.8-2.4-4.3c-0.4-2.6-0.8-6.9-1.4-12c-0.6-2.2,0-3.7,0.8-3.7s1.6,1.4,2.4,3.7
		c1.4,4.9,4.2,9.2,8.1,12.4c4.2,3.4,9.4,5.2,14.8,5.3c11.4,0,18.3-7.1,18.3-17.1c0-9.4-6.1-15.1-18.3-22.4
		c-13.2-8.1-22.2-16.5-22.2-29.3c-0.1-7.9,3.8-15.4,10.4-19.9c5.1-3.5,13-5.5,20.1-5.5c6,0.1,11.9,1.1,17.5,3c1,0.4,1.8,1.2,1.8,2
		c0.1,4,0.6,7.9,1.4,11.8c0.4,2.2,0,3.3-0.8,3.3s-1.4-1-2-2.8c-1.8-4.5-3.7-7.7-6.7-10c-3.5-2.9-8-4.5-12.6-4.5
		C944.6,539.3,935.9,543.6,935.9,555.6z"/>
	<path d="M364,467.8c1,0,1.3,0.3,1.3,0.7l0.3,3.7c0,0.5,0,1-0.2,1s-0.4-0.3-0.7-1c-0.8-2-1.9-2.9-3.8-3.1c-1.6-0.2-3.7-0.2-8.2-0.2
		c-0.4,0-0.7,0.6-0.7,0.9c0,1.4-0.1,8,0,13.1c0,0.3,0.2,0.6,0.5,0.7c2.7,0.1,5.5,0,8.2-0.2c0.8-0.2,1.4-0.4,2.2-2
		c0.2-0.5,0.4-0.7,0.6-0.7s0.2,0.3,0.2,0.7c0,0.6-0.2,2.1-0.2,3.3s0.1,1.9,0.1,2.5s-0.1,0.9-0.3,0.9s-0.5-0.4-0.7-1.1
		c-0.5-1.2-1-1.7-1.6-1.9c-0.8-0.2-1.9-0.2-8.5-0.2c-0.2,0-0.5,0.4-0.5,0.7c0,1,0,8.8,0.1,11.1c0,1.9,0.4,2.2,2.7,2.8
		c0.4,0.1,0.7,0.3,0.7,0.5s-0.6,0.4-1.1,0.4c-0.9,0-3.1-0.3-5.2-0.3s-3.4,0.2-4.2,0.2c-0.6,0-0.9-0.2-0.9-0.3s0.3-0.4,1-0.5
		c1.9-0.4,2.1-0.8,2.2-2.7c0.1-1.6,0.1-7.8,0.1-13.4c0-5.4,0-8.7-0.1-11.8c-0.1-1.8-0.4-2.3-2.1-2.8c-0.5-0.1-0.8-0.2-0.8-0.5
		s0.3-0.3,0.8-0.3c0.7,0,3.3,0.2,5.6,0.2C356.6,468,362,467.8,364,467.8z"/>
	<path d="M423.5,484.3c0,6.4-3.7,12.3-9.5,15c-8.4,3.9-18.3,0.2-22.2-8.2c-1.1-2.3-1.6-4.9-1.5-7.4c-0.2-5.3,2.3-10.3,6.6-13.4
		c2.9-2.1,6.4-3.2,10-3.2C415.9,467.1,423.5,474.8,423.5,484.3z M398.6,471.7c-2.4,2.9-3.5,7.4-3.5,11.7c0,4.2,1.4,8.3,4,11.6
		c2.8,3.6,5.9,4.8,8.8,4.8c2,0,4-0.8,5.4-2.1c2.1-1.8,5.2-6.1,5.2-13.4c0.1-4.4-1.4-8.7-4.1-12.2c-2-2.7-5.1-4.2-8.5-4.2
		C403.1,467.9,400,470,398.6,471.7z"/>
	<path d="M466.8,469.5c2,1.4,3.2,3.7,3.2,6.2c0.1,2.3-1,4.4-2.9,5.7c-0.9,0.6-1.8,1.1-2.8,1.5c-0.2,0.1-0.2,0.4,0,0.9
		c1,1.9,3.6,6.4,5.4,9c1.1,1.7,2.4,3.3,3.7,4.7c0.9,1.1,2.3,1.8,3.8,1.9c0.3,0,0.6,0.2,0.6,0.3s-0.2,0.3-0.6,0.5
		c-0.8,0.2-1.7,0.2-2.5,0.2c-3.1,0.1-6-1.4-7.7-4c-2.1-2.8-5.5-8.5-6.7-10.5c-0.8-1-1.3-1.5-2-1.6c-0.6-0.1-1.3-0.2-1.9-0.1
		c-0.2,0-0.4,0.3-0.4,0.5c-0.1,0.7-0.1,6.3,0,8.1c-0.1,1.7,0.1,3.4,0.4,5c0.2,0.5,0.6,1.1,2.3,1.4c0.5,0.2,0.8,0.3,0.8,0.5
		s-0.4,0.3-1,0.3c-0.8,0-2.7-0.2-4.6-0.2s-3.9,0.2-4.8,0.2c-0.6,0-0.9-0.1-0.9-0.3s0.3-0.4,1-0.5c1.7-0.3,2.2-0.8,2.3-2.9
		c0.2-2.9,0.3-7.1,0.3-12.9c0-7.1-0.2-10.6-0.3-12.3c-0.1-1.5-0.1-2.2-2.2-2.6c-0.5-0.1-0.9-0.2-0.9-0.5s0.4-0.3,0.9-0.3
		s2.3,0.2,4.1,0.2c2.4,0,3.4-0.3,6.7-0.3C462.4,467.6,464.8,468.2,466.8,469.5z M456.4,468.9c-0.2,0.1-0.3,0.2-0.4,1.1
		s-0.1,11.5-0.1,12.3c0,0.6,0.2,0.9,0.4,0.9c0.4,0.1,0.7,0.1,1.1,0.1c1.2,0,4.1-0.4,5.3-1.2c1.8-1.3,2.8-3.5,2.8-5.7
		c0.2-2.1-0.6-4.2-2-5.8c-1.5-1.5-3.5-2.2-5.6-2.1C457.4,468.6,456.8,468.7,456.4,468.9L456.4,468.9z"/>
	<path d="M546.9,468c3,0,3.9-0.1,4.7-0.6c0.2-0.2,0.4-0.2,0.5-0.1c0.1,0.2,0.1,0.4,0,0.7c-0.1,1.3-0.2,2.7-0.2,4
		c0,0.8-0.2,1.1-0.3,1.1s-0.4-0.5-0.4-0.8c-0.1-0.9-0.5-1.7-1-2.5c-0.5-0.4-1.2-0.7-4.5-0.7c-1.7,0-4.1,0-5,0.1
		c-0.3,0.1-0.3,0.5-0.3,0.9c0,1.9-0.1,14-0.1,16.2c0,2.9,0.2,8.9,0.3,10.4s0.7,2,2.5,2.5c0.6,0.2,0.9,0.2,0.9,0.5s-0.3,0.4-1,0.4
		c-1.2,0-3-0.3-5.1-0.3c-2.8,0-4.4,0.3-5.2,0.3c-0.7,0-0.9-0.3-0.9-0.5s0.5-0.4,1-0.5c2.5-0.3,2.8-1.1,3-3.5
		c0.3-5,0.3-25.2,0.2-25.9c0-0.5-0.2-0.6-0.3-0.6c-1.3-0.1-2.5-0.2-3.8-0.2c-1.4,0-2.8,0.1-4.2,0.2c-1,0.2-1.6,0.8-2.3,2.8
		c-0.3,0.6-0.5,0.9-0.7,0.9s-0.2-0.4-0.2-0.8c0.3-1.4,0.6-2.9,0.7-4.4c0-0.4,0-0.7,0.3-0.8s0.3,0,0.5,0.2c0.5,0.3,1,0.5,1.6,0.5
		c0.8,0.1,6,0.2,11.2,0.2L546.9,468z"/>
	<path d="M579.1,472.6c-0.2-2.9-0.2-3.5-2.2-4c-0.5-0.1-0.8-0.3-0.8-0.5s0.3-0.3,0.9-0.3c0.8,0,2.8,0.3,4.3,0.3
		c1.7,0,3.8-0.2,4.6-0.2c0.6,0,0.8,0.1,0.8,0.3s-0.2,0.4-0.7,0.5c-1.7,0.4-2,1.1-2.2,2.9c-0.1,1.2-0.2,9.7-0.2,10.6
		c0,0.5,0.1,0.9,0.5,1c1.3,0,7.9,0,12.5,0c4.1,0,4.7-0.1,5-0.1c0.5,0,0.5-0.2,0.5-1c0.1-1.5-0.1-7.3-0.2-9.1c-0.2-3.3-0.4-4-2.3-4.3
		c-0.4,0-0.8-0.2-0.8-0.5s0.2-0.3,0.8-0.3c1.4,0,2.7,0.3,4.9,0.3c1.6,0,3.2-0.3,4.3-0.3c0.5,0,0.9,0,0.9,0.3s-0.2,0.4-0.8,0.5
		c-2,0.4-2.2,1.2-2.2,3.7c0,1.7,0,9.1,0,12.7s0.2,7,0.3,10.8c0.1,2.6,0.4,3.1,2.5,3.6c0.6,0.2,0.8,0.3,0.8,0.5s-0.3,0.3-0.9,0.3
		c-1.4,0-3.5-0.2-4.8-0.2c-1.6,0-3.2,0.2-4.4,0.2c-0.6,0-1-0.1-1-0.4c0-0.2,0.3-0.3,0.9-0.4c1.8-0.4,2.1-0.9,2.2-3s0.2-7.8,0-10.4
		c0-0.7,0-1.2-0.4-1.2c-1.8-0.1-7.3-0.2-12.3-0.2c-2.5,0-4.9,0-5.5,0c-0.2,0-0.4,0.4-0.4,1.1c0,4,0.1,7.9,0.5,11.9
		c0.2,1,0.8,1.5,1.9,1.8c0.7,0.2,0.9,0.3,0.9,0.5s-0.5,0.3-0.9,0.3c-1.3,0-3.3-0.2-4.8-0.2c-1.3,0-3.3,0.2-4.3,0.2
		c-0.5,0-0.9-0.2-0.9-0.3s0.3-0.4,0.9-0.6c1.8-0.4,2.2-0.9,2.2-2.4s0.2-5.1,0.2-13.1C579.2,481.1,579.2,474.3,579.1,472.6z"/>
	<path d="M635.5,467.8c1.2,0,3.1,0.2,4.5,0.2c2.9,0,9.6-0.1,11.6-0.1c1.9,0,2.7-0.1,3.1-0.1c0.3,0,0.5,0.3,0.6,0.8s0.2,2.7,0.4,3.6
		c0,0.3,0,0.8-0.2,0.8s-0.4-0.2-0.6-0.7c-0.9-2.1-1.9-3.1-2.8-3.2s-7.2-0.2-9.2-0.2c-0.4,0-0.6,0.2-0.6,2v11.5
		c0,0.6,0.2,0.8,0.3,0.8h6.2c2.2,0,2.9-0.1,3.4-0.4s0.8-0.8,1.3-2c0.2-0.3,0.3-0.6,0.5-0.6s0.2,0.3,0.2,0.6s-0.2,2-0.2,2.8
		c-0.1,1,0,1.9,0.1,2.9c0.1,0.8-0.2,1-0.3,1s-0.3-0.2-0.6-1c-0.2-0.6-0.6-1.5-1.4-1.7c-1.2-0.3-2.5-0.3-9.1-0.3
		c-0.3,0-0.4,0.2-0.4,0.9c0,2.6,0.2,9.9,0.2,10.9c0,0.9,0.5,1.8,1.3,2.2c0.8,0.4,1.6,0.5,5,0.5c3.9,0,5,0,6-1
		c0.6-0.6,1.4-1.8,1.9-2.5s0.7-0.9,0.9-0.9s0.2,0.4,0,1c-0.3,1-0.9,3.3-1.2,3.9c-0.1,0.4-0.5,0.7-0.9,0.7c-5.4,0-11.1-0.2-15.3-0.2
		c-1.7,0-4.7,0.2-5.3,0.2s-0.9-0.2-0.9-0.3s0.3-0.4,0.9-0.5c1.6-0.3,2.7-0.9,2.7-3.2c0.2-8.1,0.2-14,0.2-23.7c0-2.9-0.6-3.5-2.4-3.9
		c-0.5-0.1-0.8-0.3-0.8-0.5S635,467.8,635.5,467.8z"/>
	<path class="st0" d="M788.6,102.9c0-25.2-20.6-47.2-45.8-47.7c-25.9-0.5-47.3,20.1-47.7,46c0,0.3,0,0.6,0,0.9v114h93.6V102.9z"/>
	<path class="st1" d="M589.3,55.2c-25.9,0-46.8,21.1-46.8,46.9v114h93.6v-114C636.1,76.2,615.2,55.2,589.3,55.2z"/>
	<path class="st2" d="M436.7,55.2c-25.9,0-46.8,21.1-46.8,46.9v114h93.6v-114C483.6,76.2,462.6,55.2,436.7,55.2
		C436.7,55.2,436.7,55.2,436.7,55.2z"/>
	<path class="st3" d="M281.9,55.2c-25.9,0-46.8,21.1-46.8,46.9v114h93.6v-114C328.7,76.2,307.8,55.2,281.9,55.2z"/>
	<path d="M826.2,4.6H195.2c-5.8,0-6.8-4.6-6.8-4.6h647.1C835.6,0,834.8,4.6,826.2,4.6z"/>
</g>
</svg>
