<svg xmlns="http://www.w3.org/2000/svg" xml:space="preserve" id="Layer_1" x="0" y="0" style="enable-background:new 0 0 2400 2125" version="1.1" viewBox="0 0 2400 2125"><style>.st0{fill:#64676c}.st1{fill:#c2203d}</style><path d="M2324.2 1784.7v-182.2c0-11 .6-21.1.9-29.4-11.8 2.4-47.6 8.9-59.9 11.1l.6 8.3 11.4.9c6.6.6 10.3 6 10.3 16.4v175c0 5.9-2.7 7.1-7.3 7.7l-12.6 1.8v9.8h76.2v-9.8l-12.3-1.8c-4.6-.6-7.3-1.8-7.3-7.8m-168.3-21.1c0-10.4 3-19.3 17.8-24.1l28-8.9.3 45.2c-10.5 6-18.3 9.8-25 9.8-13 0-21.1-9.2-21.1-22m53.9 44.9 49.4-8-.6-8.6-7.2-.9c-9.6-1.2-13.5-6.2-13.5-16.3l-.3-83.5c0-23.8-15-43.6-47.3-43.6-28.3 0-63.8 22.6-63.8 45.4 0 5.7 1.5 11.6 4.8 15.7l29.8-11.9c-3.6-6.2-5.1-11.3-5.4-16.3-.3-8.9 6-16 19.9-16 14.7 0 25.9 12.2 25.9 26.2l.3 26.4-44.8 16.3c-22.3 8-35.3 20.8-35.3 40.7 0 19.3 12.6 35 38.8 35 13 0 28.9-12.1 42.7-22.2.5 7.3 2.6 15.7 6.6 21.6m-98.5-17.8-3.3-8.9c-7.3 2.6-13.8 4.2-20.5 4.2-9.6 0-17.2-3.9-16.8-23.8v-90.3h37.6v-17h-37.6v-39.8l-37 16.6v23.2h-21.4v17h21.4v95.1c0 19.9 9.4 39.5 37.6 39.5 9.3-.1 19.8-4.3 40-15.8m-102 13.3v-9.8l-12.6-1.8c-4.5-.6-7.2-1.8-7.2-7.7v-107.3c0-10.7.3-20.8.9-29.1-11.7 2.7-47.5 9.5-59.6 11.9l.6 8.6 11.1.9c7.5.6 10.3 6.5 10.3 16v98.9c0 5.9-2.7 7.1-7.2 7.7l-12.7 1.8v9.8h76.4zm-16.3-203.2c0-11.6-9.6-22.3-22.6-22.3-13 0-22.6 10.7-22.6 22.3 0 11.6 9.6 22.2 22.6 22.2 13 .1 22.6-10.6 22.6-22.2m-149.6 71.9c25 0 41.5 22.3 41.5 57 0 41.9-21 60.9-42.1 60.9-9.9 0-18.4-3.3-25.9-9.2v-98.7c6.9-5.5 16.6-10 26.5-10m-3.9 194.9-15.3-1.8c-4.5-.6-7.2-1.8-7.2-7.7v-55.6c7.5 3.3 15.3 5.1 24.1 5.1 40.3 0 80.1-34.8 80.1-84.7 0-45.8-27.1-74.3-61.4-74.3-16.5 0-32.2 8.9-43.9 20.5-.3-7.4-1.2-15.4-2.1-20.2l-55.4 11.3.6 8.6 8.4.9c9.1.9 13 6.2 13 16.3v172c0 6-2.7 7.1-7.3 7.7l-12.6 1.8v9.8h79.2v-9.7zM1748 1758c0-20.5-11.1-34.7-38.5-43.7l-19-6.2c-20.5-6.8-25.9-15.2-25.9-25.5 0-11.9 9-19.9 25-19.9 21.3 0 30.1 13.1 37.3 32.1h11.1l-.3-36.8c-15.3-6.6-25.5-9.5-40.9-9.5-33.4 0-58.1 20.8-58.1 48.4 0 22 12.6 35.1 41.3 44.3l16.5 5.4c18.7 5.9 22.9 15.1 22.9 26.1 0 12.5-9.6 23.2-28.6 23.2-21.4 0-30.4-12.8-38.2-38.1h-12.9l2.1 41c7.5 4.2 25.3 10.1 44 10.1 33-.1 62.2-18.2 62.2-50.9m-163.5-27.7c0 39.2-15 61.8-36.7 61.8-23.2 0-40.1-25.6-40.1-66.3 0-38.9 14.5-61.8 36.7-61.8 22.7.1 40.1 25.9 40.1 66.3m-113.8.6c0 44.3 29.2 77 72.5 77 45.2 0 78.3-38.6 78.3-82.6 0-44-29.8-76.9-73.1-76.9-45.1 0-77.7 38.9-77.7 82.5m-146.2 62.7-17.2-1.8c-4.8-.6-7.8-2.4-7.8-9.5v-79.9h97.5v79.9c0 7.2-3 8.9-7.8 9.5l-17.2 1.8v10.4h90.6v-10.4l-17.1-1.8c-4.8-.6-7.9-2.4-7.9-9.5v-176.5c0-7.1 3-8.9 7.9-9.5l17.1-1.8v-10.4H1372v10.4l17.2 1.8c4.8.6 7.8 2.4 7.8 9.5v79.6h-97.5v-79.6c0-7.1 3-8.9 7.8-9.5l17.2-1.8v-10.4h-90.6v10.4l17.2 1.8c4.8.6 7.8 2.4 7.8 9.5v176.5c0 7.2-3 8.9-7.8 9.5l-17.2 1.8v10.4h90.6v-10.4zm-245 .6-13.9-1.8c-4.5-.6-7.2-1.8-7.2-7.7v-98.9c7.2-6.3 18-11.6 28.6-11.6 17.8 0 26.8 10.4 26.8 25.3v85.3c0 5.9-3 7.1-7.2 7.7l-12.3 1.8v9.8h74.7v-9.8l-11.1-1.8c-4.5-.6-7.2-1.8-7.2-7.7v-92.4c0-22.9-15-43.4-44.8-43.4-16.9 0-34.3 9.2-47.3 23.5v-69.8c0-11 .6-21.1.9-29.4-11.8 2.4-47.6 8.9-59.9 11.1l.6 8.3 11.4.9c6.6.6 10.2 6 10.2 16.4v175c0 5.9-2.7 7.1-7.2 7.7l-11.1 1.8v9.8h76.2v-10.1zm-173.1-78.1c0-35.4 17.5-50.8 37.3-50.8 15.9 0 26.5 6.2 37.6 28.8h10.5v-34.2c-11.4-6.6-22.9-11.6-43-11.6-37 0-76.2 30-76.2 82 0 52.6 37.7 76.6 69.9 76.6 21.1 0 42.4-19.3 54.2-29.7l-6-7.4c-10.5 7.1-22.9 12.4-35.5 12.4-31.4.1-48.8-31.3-48.8-66.1m-77.1 78.1-13.8-1.8c-4.2-.6-7.2-1.8-7.2-7.7V1703c6.3-12.5 16.3-25 29.8-26.5 9.3-1.2 18 2.7 25.6 7.4l8.7-30.3c-6.6-5.3-16.2-8.3-27.1-7.2-16.6 1.8-27.4 17.8-37.9 38.6 0-11.9-.6-27.9-2.4-36.2l-55.4 11.3.6 8.6 9.9.9c8.1.6 11.5 6.2 11.5 16.3v98.7c0 5.9-2.7 7.1-7.2 7.7l-12.7 1.8v9.8h77.7v-9.7zM640 1763.6c0-10.4 3-19.3 17.7-24.1l28-8.9.3 45.2c-10.5 6-18.4 9.8-25 9.8-12.9 0-21-9.2-21-22m53.8 44.9 49.4-8-.6-8.6-7.2-.9c-9.6-1.2-13.6-6.2-13.6-16.3l-.3-83.5c0-23.8-15-43.6-47.2-43.6-28.3 0-63.8 22.6-63.8 45.4 0 5.7 1.5 11.6 4.8 15.7l29.8-11.9c-3.6-6.2-5.1-11.3-5.4-16.3-.3-8.9 6-16 19.9-16 14.7 0 25.9 12.2 25.9 26.2l.3 26.4-44.9 16.3c-22.3 8-35.2 20.8-35.2 40.7 0 19.3 12.6 35 38.8 35 12.9 0 28.9-12.1 42.8-22.2.5 7.3 2.6 15.7 6.5 21.6M528 1663.8c11.7 0 28 8.3 31.6 40.1l-61.4 2.1c2.4-27.1 15-42.2 29.8-42.2m65.3 114.1-6.9-8.3c-12.3 7.1-24.4 12.8-37.9 12.8-31 0-48.8-28.8-50.6-62.1h92.7v-9.2c0-35.9-22-62.7-57.8-62.7-32.5 0-67.7 31.5-67.7 80.5 0 53.5 36.7 78.5 70.2 78.5 21.3-.1 45.7-18.5 58-29.5M450 1758c0-20.5-11.1-34.7-38.5-43.7l-18.9-6.2c-20.5-6.8-25.9-15.2-25.9-25.5 0-11.9 9-19.9 25-19.9 21.4 0 30.1 13.1 37.3 32.1h11.1l-.3-36.8c-15.3-6.6-25.6-9.5-40.9-9.5-33.4 0-58.1 20.8-58.1 48.4 0 22 12.6 35.1 41.2 44.3l16.6 5.4c18.7 5.9 22.9 15.1 22.9 26.1 0 12.5-9.6 23.2-28.6 23.2-21.4 0-30.4-12.8-38.2-38.1h-13l2.1 41c7.5 4.2 25.3 10.1 44 10.1 33-.1 62.2-18.2 62.2-50.9m-189.3-94.2c11.7 0 28 8.3 31.6 40.1l-61.4 2.1c2.4-27.1 15-42.2 29.8-42.2m65.3 114.1-6.9-8.3c-12.3 7.1-24.4 12.8-37.9 12.8-31 0-48.8-28.8-50.6-62.1h92.7v-9.2c0-35.9-22-62.7-57.8-62.7-32.5 0-67.8 31.5-67.8 80.5 0 53.5 36.7 78.5 70.2 78.5 21.4-.1 45.8-18.5 58.1-29.5m-243.2-88c-6.3 0-11.7-.6-17.2-.9v-89.1c7.5-.9 15.3-.9 22-.9 25 0 40.9 16 40.9 45.4 0 31.6-17.7 45.8-45.7 45.5m123.1 113.5-.3-7.7c-14.4-1.8-25-7.4-39.1-25-16.9-20.2-31.6-47.8-43.1-69.5 27.1-7.7 45.2-31.8 45.2-58.5 0-33.3-26.8-60-72.3-60-18 0-33.7 1.8-62 1.8-10.5.3-22.8 0-34.3-.3v10.4l17.1 1.8c4.8.6 7.8 3 7.8 8v178c0 7.2-3 8.9-7.8 9.5L0 1793.6v10.4h87.6v-10.4l-16-2.1c-3.9-.6-6-2.4-6-6.5v-80.3c6.6 0 13.6.3 18 .6 14.2 25.3 28.6 54.1 46.1 76.9 14.7 19.6 31.9 23.8 51.8 23.8 7.5.1 16.8-1.4 24.4-2.6M2337.1 1442.8c0-20.5-11.1-34.8-38.5-43.7l-19-6.2c-20.5-6.8-25.9-15.2-25.9-25.6 0-11.9 9-19.9 25-19.9 21.3 0 30.1 13.1 37.3 32.1h11.1l-.4-36.8c-15.3-6.6-25.6-9.5-40.9-9.5-33.4 0-58.1 20.8-58.1 48.4 0 22 12.6 35.1 41.2 44.3l16.6 5.4c18.7 5.9 22.9 15.2 22.9 26.2 0 12.5-9.6 23.2-28.6 23.2-21.4 0-30.4-12.8-38.3-38.1h-12.9l2.1 41c7.5 4.2 25.3 10.1 44 10.1 33.2-.1 62.4-18.2 62.4-50.9m-130.6-124.2c0 9.2-6.9 17.5-17.8 26.7l6 5.3c20.8-15.1 37-33.3 37-56.7 0-15.8-10.8-24.4-22.3-24.4-20.4 0-24.7 22.3-22 30.3 11.5 4 19.1 8.7 19.1 18.8m-110.8 160.5-12.3-1.8c-4.2-.6-7.2-1.8-7.2-7.7v-98.9c7.2-6.3 18-11.6 28.6-11.6 17.7 0 26.8 10.4 26.8 25.3v85.3c0 5.9-3 7.1-7.2 7.7l-12.3 1.8v9.8h76.2v-9.8l-12.7-1.8c-4.5-.6-7.2-1.8-7.2-7.7v-92.4c0-22.9-15-43.4-46.1-43.4-16.3 0-34 9.8-46.9 24.7-.3-8.6-1.2-19-2.4-24.7l-55.4 11.3.6 8.6 9.9.9c8.1.6 11.5 6.2 11.5 16.3v98.7c0 5.9-2.7 7.1-7.3 7.7l-12.6 1.8v9.8h76.2v-9.9zM1943 1348.6c11.8 0 28 8.3 31.6 40.1l-61.4 2.1c2.5-27 15.1-42.2 29.8-42.2m65.4 114.1-6.9-8.3c-12.3 7.1-24.4 12.7-37.9 12.7-31 0-48.8-28.8-50.6-62.1h92.7v-9.2c0-36-22-62.7-57.8-62.7-32.5 0-67.8 31.5-67.8 80.5 0 53.5 36.7 78.5 70.1 78.5 21.5.1 45.8-18.4 58.2-29.4m-171.6 16.4-13.8-1.8c-4.2-.6-7.2-1.8-7.2-7.7v-81.7c6.3-12.5 16.3-25 29.8-26.4 9.3-1.2 18 2.7 25.6 7.4l8.7-30.3c-6.6-5.3-16.3-8.3-27.1-7.1-16.6 1.8-27.4 17.8-37.9 38.6 0-11.9-.6-28-2.4-36.3l-55.4 11.3.6 8.6 9.9.9c8.1.6 11.4 6.2 11.4 16.3v98.7c0 5.9-2.7 7.1-7.2 7.7l-12.6 1.8v9.8h77.7v-9.8zm-211.9-67.8c0-41.9 21.1-60.9 42.2-60.9 9.9 0 18.3 3.3 25.9 9.2v98.7c-6.9 5.6-16.6 10.1-26.5 10.1-25.1 0-41.6-22.3-41.6-57.1m127.6 74-.6-8.6-8.7-.9c-9.6-.9-13.5-6.2-13.5-16.3v-172.1c0-11 .6-21.1.9-29.4l-61.4 11 .6 8.3 12.9.9c6.6.6 10.2 6 10.2 16.4v44c-7.5-3.2-15.4-5-24.1-5-40.4 0-80.1 34.8-80.1 84.7 0 45.7 27.1 74.3 61.4 74.3 16.6 0 32.5-9.2 44.2-20.8.6 7.4 2.4 16.1 5.1 21.7l53.1-8.2zm-195.7-15.7v-182.2c0-11 .6-21.1.9-29.4-11.7 2.4-47.6 8.9-59.9 11l.6 8.3 11.5.9c6.6.6 10.2 6 10.2 16.4v175c0 5.9-2.7 7.1-7.2 7.7l-12.7 1.8v9.8h76.1v-9.8l-12.3-1.8c-4.4-.6-7.2-1.8-7.2-7.7m-66.1 19.3v-9.8l-12.6-1.8c-4.6-.6-7.3-1.8-7.3-7.7v-107.3c0-10.7.3-20.8.9-29.1-11.8 2.7-47.6 9.5-59.6 11.9l.6 8.6 11.1.9c7.5.6 10.2 6.5 10.2 16v98.9c0 5.9-2.7 7.1-7.2 7.7l-12.7 1.8v9.8h76.6zm-16.3-203.3c0-11.6-9.6-22.3-22.6-22.3-12.9 0-22.6 10.7-22.6 22.3 0 11.6 9.6 22.3 22.6 22.3 13 0 22.6-10.7 22.6-22.3m-161.1 193.5-13.8-1.8c-4.5-.6-7.2-1.8-7.2-7.7v-98.9c7.2-6.3 18-11.6 28.6-11.6 17.8 0 26.8 10.4 26.8 25.3v85.3c0 5.9-3 7.1-7.2 7.7l-12.3 1.8v9.8h74.6v-9.8l-11.1-1.8c-4.5-.6-7.2-1.8-7.2-7.7v-92.4c0-22.9-15-43.4-44.8-43.4-16.9 0-34.3 9.2-47.3 23.5v-69.8c0-11 .6-21.1.9-29.4-11.7 2.4-47.6 8.9-59.9 11l.6 8.3 11.4.9c6.6.6 10.2 6 10.2 16.4v175c0 5.9-2.7 7.1-7.2 7.7l-11.1 1.8v9.8h76.1v-10zm-96.9-3.9.6-47.9h-13.8c-8.7 35.7-19.9 48.4-58.7 48.4-45.1 0-77.4-37.7-78.6-97.2-1.2-58.8 30.4-97.2 76.8-97.2 33.1 0 48.8 13.7 58.4 45.8h13.8l-.9-47.2c-19-7.7-38.2-14.9-66.8-14.9-75.3 0-126.8 50.5-126.8 116.5 0 64.5 47.6 111.4 122.2 111.4 28.6.2 46.4-5.2 73.8-17.7m-328.7-126.6c11.8 0 28 8.3 31.6 40.1l-61.4 2.1c2.4-27 15-42.2 29.8-42.2m65.3 114.1-6.9-8.3c-12.3 7.1-24.4 12.7-37.9 12.7-31 0-48.8-28.8-50.6-62.1h92.7v-9.2c0-36-22-62.7-57.8-62.7-32.5 0-67.8 31.5-67.8 80.5 0 53.5 36.7 78.5 70.2 78.5 21.4.1 45.8-18.4 58.1-29.4m-265.2-51.4c0-41.9 21.1-60.9 42.1-60.9 9.9 0 18.3 3.3 25.9 9.2v98.7c-6.9 5.6-16.6 10.1-26.5 10.1-24.9 0-41.5-22.3-41.5-57.1m127.7 74-.6-8.6-8.7-.9c-9.6-.9-13.6-6.2-13.6-16.3v-172.1c0-11 .6-21.1.9-29.4l-61.4 11 .6 8.3 12.9.9c6.6.6 10.2 6 10.2 16.4v44c-7.5-3.2-15.3-5-24.1-5-40.3 0-80.1 34.8-80.1 84.7 0 45.7 27.1 74.3 61.4 74.3 16.6 0 32.5-9.2 44.2-20.8.6 7.4 2.4 16.1 5.1 21.7l53.2-8.2zm-224.6 8.1 51.8-8-.6-8.6-7.5-.9c-9.6-1.2-13.6-6.2-13.6-16.3v-97.2c0-10.7.3-20.8.9-29.1l-59.6 11.9.6 8.6 11.1.9c7.5.6 10.2 6.5 10.2 16v88.8c-7.5 6-17.1 10.4-26.2 10.4-17.8 0-26.8-11-26.8-26.7v-80.8c0-10.7.3-20.8.9-29.1l-59.6 11.9.6 8.6 11.1.9c7.5.6 10.2 6.5 10.2 16v83.2c0 20.5 15.4 40.4 43.7 40.4 15.7 0 34.3-10.1 47.5-22.9.8 7.7 2.6 16 5.3 22M447 1290.7c0-7.1 3-8.9 8.1-9.5l16.9-1.7V1269h-91.8v10.4l19 1.5c3.9.3 5.7 2.4 5.7 6.8v197.9c0 35.9-15 52.9-44.5 64.2l4.2 9.2c51.2-7.4 82.5-33.3 82.5-85.9v-182.4zm-121.9 179.2c0-11.3-9-21.4-21.7-21.4-12.6 0-21.7 10.1-21.7 21.4 0 11.3 9 21.4 21.7 21.4s21.7-10.1 21.7-21.4m-59.9 5.6-3.3-8.9c-7.2 2.7-13.9 4.1-20.4 4.1-9.6 0-17.2-3.9-16.9-23.8v-90.3h37.6v-17h-37.6v-39.8l-37 16.6v23.2h-21.3v17h21.3v95.1c0 19.9 9.4 39.5 37.6 39.5 9.3.1 19.8-4.1 40-15.7m-107.5-51.1c0-28.5-11.1-48.1-54.2-62.1l-27.7-8.9c-25.6-8.3-34-20.5-34-37.8 0-20.8 15.3-33.3 39.1-33.3s39.7 10.1 49.4 42.5h12v-46c-18.1-8.3-35.2-13.4-56.6-13.4-41.5 0-73.5 26.4-73.5 66.3 0 28.8 13.3 48.7 54.5 61.8l24.4 7.8c26.8 8.6 35.2 21.1 35.2 39.8 0 19.3-15.6 35.3-44.5 35.3-30.7 0-44.8-11.3-54.5-46.3H13.6l.3 49.3c25.3 9.8 42.4 13.4 64.4 13.4 43.9 0 79.4-27.4 79.4-68.4M2353.4 1248.5c-21.3 0-37.3-16.4-37.3-38.2 0-21.8 16-38.2 37.3-38.2 21.5 0 37.7 16.4 37.7 38.2 0 21.8-16.2 38.2-37.7 38.2m0-84.5c-26 0-46.4 20.3-46.4 46.3 0 26 20.4 46.2 46.4 46.2 26.1 0 46.6-20.3 46.6-46.2 0-26-20.5-46.3-46.6-46.3" class="st0"/><path d="M2354.3 1207.8h-8.7v-13.1h9.1c4.1 0 6.8 2.6 6.8 6.7.1 3.1-2.2 6.4-7.2 6.4m8.1 4.3c4.8-2.6 7.6-6.7 7.6-11.3 0-7.5-5.3-12.4-13.5-12.4H2337v43.1h8.7v-17.7h8l10.3 17.7h9.4l-11.4-19.2.4-.2z" class="st0"/><path d="M1206.9 748.2c-1.3 3.8-5.2 4.1-5.2 4.1-66.3 2.1-123 28.8-168.6 79.4 0 0-5.1 4.9-18-5.2-9.9-7.7-6.2-15.8-6.2-15.8 17.6-44.2 62.8-73.3 134.4-86.6l2.1-.3c14.7-2 48.7-6.7 60.3 16.2 0-.1 2.5 4.3 1.2 8.2m204.7 219-.4-.5c25.3-36.5 60.2-83.4 72.7-92.1.9-.4 1.5-.7 2.5-1.1 37.7-2.2 58.9-15.3 64.4-19.3 7.1-5.1 28-25.3 31.4-29 3.6-3.8 14.4-28.3 18.8-38.6l-.5.9 1.8-4.1.3-1.1 2.9-8.9c-.1-2.7-1.6-5.1-3.9-6.4-1.7-.9-3.8-.9-6-.7.1-.2.2-.5.2-.5 1.3-2.8 2.8-6.5 2.8-9.1v-.6c-.4-2.8-1.9-5.1-4.4-6.5-2.5-1.4-5.8-1.3-9.3-.5-1.8-2.2-3.6-3.6-4.1-3.8-.7-.5-4.9-2-12.5 2.6-3 1.7-6 4.9-8.4 8 .3-2.3.6-4.7.6-4.7-.7-2.5-2.6-4.6-5.1-5.6-3.6-1.4-8.2-.5-12.6 2.4-4.8 3.3-11.3 13.4-13.2 16.5-1.6 1.3-8 6.8-11.8 13.5-12.3 4-20 3.7-23.2 2.5 7.5-4.3 13.4-8.4 16.6-12.2 7.3-8.8 11.4-18 11.4-25.5 0-1.3-.1-2.5-.3-3.7-.8-3.5-2.6-6.1-5.3-7.5-7.4-3.7-16.2 3.8-17.9 5.3-.1.2-2.6 2.8-3.9 4.2-2.8.7-8.6 2.4-12.5 5.8-2.7 2.4-6 3.5-9.7 4.7-4.6 1.5-9.7 3.3-14.7 7.6l-.4.3c.1-.1.2-.2.4-.2-.9.6-9 6-11.5 7.7-11.7 6.1-17.8 12.2-24.5 18.7-13.1 13-29.5 29.1-102.9 53.4-.6-26.9-17.2-99.1-20.6-126.8-6.8-48.8-63.4-116-104.1-158.5 38.4 22.3 59.9 25.4 81-3.4 5.6-8.7 14.4.7 22.4-.9 11.6-6 10.1-9.3 10.1-17.7 3.4-9 12.5-4.6 19.3-5.7 17.1-2.8 6.9-20.8 13.6-29.8 75.2-4.5-9.6-73.6 41-102.2 32.9-15.4 45.4-35.8 60.1-55.6 12.1-16.3 14.6-3.6 23.7-17 16.4-58.9-11.9-131.6-48.3-181.6-186.8-239.9-399.9-129.2-462 19.4-25.7 37.8-17.8 92.7-19.2 137.8-4.8 15.7-14.3 15.3-27.8 6-3.1 31.1 21.3 37.3 32.1 39.4 1.1 4 8.2 10 11.2 14.2-9.7 2.8-30.1-2.8-36.7-6.4-.3 7 .6 12.8 6.3 19.3 4.5 22.2 15.7 30 31.8 36.6 29.9 12.1 15.9 53.2 12.4 70-1.1 3.7-2.2 7.4-3.2 11-27.7 7.1-46.1 32.1-53.5 58.1-3.4 63-35.9 115.3-35.3 180.5 0 0-.6 9.5 0 13.4 16.1 70.5-4.5 163-1.1 235.7-235.3 35.1-451.7 110.7-636.3 217.1 273.7-110.1 593.1-173.5 934.4-173.5 341.3 0 660.7 63.4 934.4 173.5-199.5-115-436.1-194.1-693.5-224.8M102.8 2089.8v-49.5h44.9v-11.4h-44.9v-35.4h58.6v-11.1H89.6v107.4h13.2zm84.3-93.9c4.8 0 8.7-3.7 8.7-8.4s-3.9-8.6-8.7-8.6c-4.6 0-8.5 3.9-8.5 8.6 0 4.7 3.9 8.4 8.5 8.4m6.3 14.6h-12.3v79.3h12.3v-79.3zm62.6 9.3c11.2 0 19 6.9 19 20.3v49.7h12.4v-52.2c0-17-11.2-28.8-28.8-28.8-10.1 0-19.2 3.8-26 10.7l-.1-9.1h-12.1v79.3h12.3v-59.5c7.2-7.4 15.7-10.4 23.3-10.4m115.7 70H384v-111.7h-12.4v39.1c-6.4-5.5-14.8-8.4-24.3-8.4-22.1.1-38.6 17.9-38.6 41.3 0 23.3 16.4 41.4 38.6 41.4 9.5 0 18-3.5 24.3-9.7l.1 8zm-50.2-39.7c0-17.5 11-30.2 27.2-30.2 8.8 0 16.8 3.7 22.8 10.9v38.9c-5.9 7.1-13.8 10.6-22.8 10.6-16.2 0-27.2-13.1-27.2-30.2m95.7-54.2c4.8 0 8.7-3.7 8.7-8.4s-3.9-8.6-8.7-8.6c-4.6 0-8.5 3.9-8.5 8.6-.1 4.7 3.9 8.4 8.5 8.4m6.2 14.6h-12.3v79.3h12.3v-79.3zm62.7 9.3c11.2 0 18.9 6.9 18.9 20.3v49.7h12.4v-52.2c0-17-11.2-28.8-28.8-28.8-10.1 0-19.2 3.8-25.9 10.7l-.1-9.1h-12.1v79.3h12.3v-59.5c7.1-7.4 15.7-10.4 23.3-10.4m127.1 65.7v-75h-12.1v6.9c-6.4-5.5-14.8-8.5-24.3-8.5-21.9.1-38.1 17.9-38.1 40.8 0 23.2 16 41.3 37.9 41.3 9.5 0 17.9-3.5 24.1-9.6v4.3c0 16.6-10 27.8-26.3 27.8-10.9 0-19.1-4.5-25-13.2l-9.8 7.2c7.3 9.8 17.9 17 35.1 17 25.1-.2 38.5-16 38.5-39m-61.7-35.9c0-17 10.7-29.8 26.7-29.8 8.7 0 16.5 3.7 22.5 10.9v38.4c-5.9 7-13.7 10.6-22.5 10.6-15.9 0-26.7-13.1-26.7-30.1m161.3-40.8c-22.5 0-39 17.5-39 41.3 0 23.9 16.6 41.5 39.2 41.5 15.6 0 27.1-8.6 33.3-21l-10.9-4.7c-4.8 8.9-10.6 14.5-23.1 14.5-14.6 0-25.5-12.3-25.5-30.4 0-17.5 10.9-30.1 25.6-30.1 12.2 0 18.4 6.1 22.7 14.7l11.2-4.9c-6.4-13.1-17.9-20.9-33.5-20.9m106.2 81h12.3v-79.3h-12.4v59.8c-7 7.2-15.4 10.1-23 10.1-11.2 0-19.1-6.9-19.1-20.2v-49.7h-12.3v52.2c0 17 11 29 28.7 29 9.8 0 19-3.6 25.6-10.3l.2 8.4zm82.9-69.2-.5-11.8c-12.6-.2-23.9 5-30.8 15.9l-.1-14.3h-12.1v79.3h12.3v-52.2c5.7-11.4 19.4-17.2 31.2-16.9m82 52.8-9.8-5.5c-5.8 8.6-13.8 12.9-24 12.9-14.1 0-25.2-11.5-26.5-27.2h61.5c.2-1.7.2-3.1.2-4.7 0-20.6-11.8-40-36.8-40-20.5 0-37.6 16.4-37.6 41.3 0 24.1 17.8 41.5 39.6 41.5 13.7-.1 26.1-6.5 33.4-18.3m-35.7-54c14 0 23 10.4 23.9 24.1h-48.2c2.4-14.6 12.2-24.1 24.3-24.1m49.3 59.2c9.5 8.6 19.4 13 32 13 16.8 0 29.2-8.9 29.2-23.8 0-10.7-5.2-17-20.5-21.8l-14.1-4.4c-7.6-2.3-11.7-5.5-11.7-11.7 0-6.6 5.3-11.2 14.3-11.2 8.5 0 15.8 4 21.9 10.9l8.7-7.5c-8.7-8.6-17.4-13.3-29.9-13.3-14.9 0-27.1 8-27.1 22.2 0 10.3 6.2 17.8 19.9 21.8l14.7 4.1c8.1 2.5 11.8 6 11.8 12.2 0 7.2-6.2 12.4-17.1 12.4-7.5 0-15.1-2.6-23.8-10.5l-8.3 7.6zm86.5-4.3c-4.5 0-8.2 3.7-8.2 8.1 0 4.5 3.7 8.1 8.2 8.1 4.5 0 8.2-3.7 8.2-8.1 0-4.4-3.7-8.1-8.2-8.1m98.9 17c22.8 0 38.1-13.5 38.1-31.4 0-12.9-6.1-21.3-25.5-27.5l-18.6-6.1c-12.4-4-18.4-9-18.4-17.9 0-9.8 8.4-16.7 21.9-16.7 11 0 21.6 5.1 28.4 13.9l9.8-7.5c-7.6-9.5-20.4-17.2-38.1-17.2-20.5 0-34.8 11.3-34.8 29.3 0 13 8.2 21.9 24.7 27.1l19.3 6c14.8 4.6 18.4 10.4 18.4 17.9 0 11.2-10 19.5-25.3 19.5-13.2 0-23.7-5.5-32-14l-8.9 8.1c9.8 10.4 24.2 16.5 41 16.5m107.8-1.5h12.3v-51.5c0-18.1-10.9-29.3-30.8-29.3-20.7 0-31.2 12.3-32.2 25.5l12 1.7c.9-10.1 7.6-16.6 19.6-16.6 11.8 0 18.9 7.1 18.9 18.7v3.5l-23.8 4.2c-20.6 3.7-28.3 11-28.3 24.5 0 12.1 10 21 25.2 21 10.3 0 20.2-4.8 27.1-11.8v10.1zm-39.6-20.6c0-7.8 5.1-11.7 22.7-15l16.8-2.9v18.1c-6.4 6.9-14.8 11.8-24.9 11.8-9 0-14.6-4.6-14.6-12m141-58.7h-12.8l-21.3 55.9-3.6 10.1-3.7-10.1-21.3-55.9H1316l31.1 79.3h14l31-79.3zm22.8-14.6c4.8 0 8.7-3.7 8.7-8.4s-3.9-8.6-8.7-8.6c-4.7 0-8.5 3.9-8.5 8.6-.1 4.7 3.8 8.4 8.5 8.4m6.2 14.6h-12.3v79.3h12.3v-79.3zm62.7 9.3c11.2 0 19 6.9 19 20.3v49.7h12.4v-52.2c0-17-11.2-28.8-28.8-28.8-10.1 0-19.3 3.8-25.9 10.7l-.2-9.1h-12.1v79.3h12.3v-59.5c7.1-7.4 15.6-10.4 23.3-10.4m127.1 65.7v-75h-12.2v6.9c-6.4-5.5-14.7-8.5-24.2-8.5-21.9.1-38.1 17.9-38.1 40.8 0 23.2 16 41.3 37.9 41.3 9.5 0 17.9-3.5 24.1-9.6v4.3c0 16.6-10 27.8-26.3 27.8-10.9 0-19.1-4.5-25-13.2l-9.8 7.2c7.3 9.8 17.9 17 35.1 17 25.2-.2 38.5-16 38.5-39m-61.7-35.9c0-17 10.7-29.8 26.7-29.8 8.7 0 16.5 3.7 22.6 10.9v38.4c-5.9 7-13.7 10.6-22.6 10.6-15.9 0-26.7-13.1-26.7-30.1m161.3-40.8c-22.6 0-39 17.5-39 41.3 0 23.9 16.6 41.5 39.1 41.5 15.5 0 27-8.6 33.3-21l-10.9-4.7c-4.8 8.9-10.5 14.5-23.1 14.5-14.6 0-25.5-12.3-25.5-30.4 0-17.5 10.9-30.1 25.7-30.1 12.1 0 18.3 6.1 22.7 14.7l11.2-4.9c-6.4-13.1-17.9-20.9-33.5-20.9m87.9 11c11.2 0 19 6.9 19 20.3v49.7h12.4v-52.2c0-17-11.2-28.8-28.8-28.8-10.1 0-19.3 3.8-25.9 10.6v-41.3h-12.3v111.7h12.3v-59.5c7.1-7.5 15.7-10.5 23.3-10.5m64.3-23.9c4.8 0 8.7-3.7 8.7-8.4s-3.9-8.6-8.7-8.6c-4.7 0-8.5 3.9-8.5 8.6 0 4.7 3.8 8.4 8.5 8.4m6.2 14.6h-12.3v79.3h12.3v-79.3zm27 79.3h12.4v-111.7h-12.4v111.7zm96.9 0h12.3v-111.7h-12.4v39.1c-6.4-5.5-14.8-8.4-24.2-8.4-22.1.1-38.6 17.9-38.6 41.3 0 23.3 16.3 41.4 38.6 41.4 9.5 0 18-3.5 24.2-9.7l.1 8zm-50.2-39.7c0-17.5 11.1-30.2 27.2-30.2 8.8 0 16.8 3.7 22.8 10.9v38.9c-5.9 7.1-13.9 10.6-22.8 10.6-16.1 0-27.2-13.1-27.2-30.2m133.1-29.5-.5-11.8c-12.6-.2-24 5-30.8 15.9l-.1-14.3h-12.1v79.3h12.2v-52.2c5.8-11.4 19.4-17.2 31.3-16.9m82 52.8-9.8-5.5c-5.8 8.6-13.8 12.9-23.9 12.9-14.1 0-25.2-11.5-26.5-27.2h61.5c.1-1.7.1-3.1.1-4.7 0-20.6-11.8-40-36.8-40-20.5 0-37.6 16.4-37.6 41.3 0 24.1 17.8 41.5 39.6 41.5 13.7-.1 26.1-6.5 33.4-18.3m-35.7-54c14 0 23 10.4 23.9 24.1h-48.2c2.3-14.6 12.1-24.1 24.3-24.1m94.5.4c11.2 0 19 6.9 19 20.3v49.7h12.4v-52.2c0-17-11.2-28.8-28.8-28.8-10.1 0-19.3 3.8-25.9 10.7l-.2-9.1h-12v79.3h12.3v-59.5c7.1-7.4 15.6-10.4 23.2-10.4m62.7 54.5c-4.5 0-8.2 3.7-8.2 8.1 0 4.5 3.8 8.1 8.2 8.1 4.5 0 8.2-3.7 8.2-8.1 0-4.4-3.7-8.1-8.2-8.1" class="st1"/></svg>