<?xml version="1.0" encoding="UTF-8"?><svg id="uuid-b8734aec-4eb6-4c38-8964-98f0cf697287" xmlns="http://www.w3.org/2000/svg" viewBox="0 0 1197.261 488.329"><defs><style>.uuid-ab37d944-191c-44e5-a00c-1b8ddab5afba{fill:#001641;}.uuid-ab37d944-191c-44e5-a00c-1b8ddab5afba,.uuid-ae757663-e8ad-4ed5-8470-b39ae49f4553{stroke-width:0px;}.uuid-ae757663-e8ad-4ed5-8470-b39ae49f4553{fill:#f15a22;}</style></defs><path class="uuid-ae757663-e8ad-4ed5-8470-b39ae49f4553" d="M784.126,6.094l-63.102,164.115c.321-3.777.499-7.589.499-11.366,0-37.305-24.728-53.447-56.831-62.924l-15.25-4.596c-10.405-3.35-26.58-8.552-26.58-21.985,0-12.827,14.643-19.205,25.653-19.205,14.613.309,28.662,5.702,39.728,15.25l23.802-46.32c-22.154-12.035-46.874-18.572-72.081-19.063-28.719,0-52.449,11.866-66.273,32.068V6.094h-205.27v121.144c0,29.966-2.138,62.604-40.619,62.604s-40.619-32.531-40.619-62.497V6.201h-59.86v129.411c0,29.609,1.211,58.933,24.122,81.238,19.241,18.956,49.491,25.654,76.357,25.654s57.009-6.698,76.357-25.654c22.911-22.305,24.122-51.629,24.122-81.238V57.01h36.059v179.579h59.859V57.01h38.767c-1.611,6.698-2.424,13.563-2.423,20.452,0,44.574,24.941,54.373,62.319,65.026,12.826,3.563,36.342,9.514,36.342,26.296,0,16.176-14.965,23.195-29.003,23.195-20.488,0-38.196-10.688-53.161-23.836l-25.476,48.101c23.669,16.817,51.92,25.981,80.953,26.26,23.196,0,47.353-6.413,65.347-21.663,2.214-1.888,4.287-3.937,6.2-6.129l-8.338,21.699h63.53l15.892-40.013h82.485l14.608,40.013h64.136L849.473,6.094h-65.347ZM791.466,150.541l24.728-73.257h.641l24.407,73.257h-49.776Z"/><path class="uuid-ae757663-e8ad-4ed5-8470-b39ae49f4553" d="M953.658,206.66h0c-8.569-.411-15.85,6.203-16.261,14.773s6.203,15.851,14.774,16.261c.495.024.992.024,1.487,0,8.57.411,15.851-6.203,16.262-14.773.41-8.57-6.204-15.85-14.774-16.261-.496-.024-.992-.024-1.488,0M953.658,234.452c-6.809-.005-12.324-5.529-12.318-12.338.005-6.801,5.517-12.313,12.318-12.319,6.593.016,11.924,5.374,11.907,11.966,0,.121-.002.242-.006.363.256,6.508-4.812,11.992-11.321,12.248-.193.008-.387.011-.58.009v.071Z"/><path class="uuid-ae757663-e8ad-4ed5-8470-b39ae49f4553" d="M957.15,222.551v-.214c1.749-.33,3.062-1.789,3.207-3.563.024-1.262-.527-2.468-1.497-3.278-1.609-.992-3.498-1.43-5.38-1.247-1.998-.009-3.991.182-5.95.57v15.357h3.563v-6.235h1.711c1.959,0,2.885.748,3.17,2.458.214,1.249.635,2.454,1.248,3.563h3.847c-.609-1.175-.984-2.458-1.104-3.777-.463-1.959-1.319-3.17-2.815-3.634M952.91,221.411h-1.71v-4.454c.662-.079,1.332-.079,1.995,0,2.28,0,3.278.927,3.278,2.352s-1.568,2.102-3.563,2.102"/><path class="uuid-ab37d944-191c-44e5-a00c-1b8ddab5afba" d="M84.465,287.227v32.024h.247c.728-1.795,1.837-3.411,3.252-4.734,1.418-1.297,3.029-2.366,4.775-3.169,1.756-.83,3.609-1.438,5.516-1.811,1.824-.405,3.688-.612,5.557-.618,3.395-.091,6.776.468,9.961,1.647,2.489.983,4.705,2.551,6.463,4.569,1.68,2.031,2.864,4.428,3.457,6.997.703,2.94,1.048,5.952,1.029,8.974v39.887h-10.003v-41.163c.194-3.306-.999-6.543-3.293-8.932-2.438-2.269-5.688-3.456-9.014-3.293-2.702-.07-5.39.405-7.903,1.399-2.169.904-4.089,2.315-5.598,4.117-1.507,1.772-2.64,3.83-3.335,6.05-.761,2.452-1.136,5.007-1.111,7.574v34.247h-9.961v-83.765h9.961Z"/><path class="uuid-ab37d944-191c-44e5-a00c-1b8ddab5afba" d="M181.773,367.122c-4.972,3.582-11.001,5.393-17.123,5.146-4.329.1-8.632-.699-12.637-2.346-3.425-1.439-6.489-3.618-8.974-6.381-2.478-2.957-4.327-6.388-5.433-10.084-1.261-4.21-1.939-8.573-2.017-12.966-.05-4.317.66-8.609,2.099-12.678,1.321-3.669,3.333-7.051,5.927-9.962,2.518-2.813,5.604-5.058,9.056-6.586,3.603-1.592,7.505-2.393,11.444-2.346,4.703-.176,9.358.994,13.418,3.375,3.462,2.139,6.39,5.039,8.562,8.48,2.146,3.463,3.651,7.283,4.446,11.278.801,3.815,1.133,7.713.988,11.609h-45.279c-.102,2.556.203,5.113.906,7.573,1.366,4.803,4.808,8.745,9.385,10.744,2.712,1.122,5.627,1.668,8.561,1.604,3.696.171,7.347-.853,10.414-2.921,2.839-2.186,4.749-5.361,5.351-8.892h9.88c-.958,6.063-4.161,11.544-8.974,15.353M179.386,328.183c-.854-2.046-2.098-3.905-3.664-5.475-1.555-1.533-3.384-2.761-5.392-3.622-2.172-.927-4.513-1.39-6.874-1.358-2.388-.035-4.757.428-6.957,1.358-2.019.855-3.84,2.116-5.351,3.705-1.5,1.573-2.688,3.416-3.498,5.433-.873,2.066-1.389,4.266-1.523,6.504h34.74c-.145-2.246-.645-4.455-1.481-6.545"/><path class="uuid-ab37d944-191c-44e5-a00c-1b8ddab5afba" d="M294.394,364.818c-6.75,5.824-15.51,8.778-24.409,8.232-9.073.534-18.038-2.197-25.274-7.697-6.051-5.104-9.097-13.296-9.097-24.45v-53.512h11.114v53.512c-.455,6.262,1.707,12.432,5.969,17.041,4.797,4.076,11.012,6.088,17.288,5.598,5.992.414,11.884-1.69,16.259-5.804,4.075-4.692,6.144-10.797,5.763-17v-53.511h11.155v53.511c-.138,10.702-3.06,18.728-8.768,24.08"/><path class="uuid-ab37d944-191c-44e5-a00c-1b8ddab5afba" d="M327.529,310.36v9.591h.206c3.879-7.187,11.562-11.486,19.717-11.031,3.395-.092,6.776.467,9.961,1.646,2.489.983,4.705,2.551,6.463,4.569,1.68,2.032,2.864,4.428,3.457,6.997.688,2.941,1.02,5.955.988,8.974v39.887h-9.961v-41.163c.193-3.306-1-6.543-3.293-8.932-2.438-2.268-5.689-3.456-9.015-3.293-2.701-.07-5.39.405-7.903,1.4-2.169.903-4.089,2.314-5.598,4.116-1.565,1.758-2.755,3.817-3.499,6.051-.762,2.451-1.137,5.006-1.111,7.573v34.248h-9.797v-60.633h9.385Z"/><path class="uuid-ab37d944-191c-44e5-a00c-1b8ddab5afba" d="M382.563,287.061h10.002v12.349h-10.002v-12.349ZM392.566,370.992h-10.002v-60.633h10.002v60.633Z"/><polygon class="uuid-ab37d944-191c-44e5-a00c-1b8ddab5afba" points="423.726 370.993 401.128 310.36 412.283 310.36 429.283 360.908 429.53 360.908 445.995 310.36 456.656 310.36 434.511 370.993 423.726 370.993"/><path class="uuid-ab37d944-191c-44e5-a00c-1b8ddab5afba" d="M505.434,367.122c-4.989,3.582-11.03,5.393-17.165,5.146-4.316.096-8.604-.703-12.596-2.346-3.44-1.487-6.506-3.722-8.973-6.545-2.492-2.954-4.355-6.385-5.475-10.085-1.245-4.157-1.924-8.463-2.017-12.801-.05-4.317.661-8.608,2.099-12.678,1.305-3.677,3.319-7.061,5.928-9.961,2.51-2.804,5.581-5.047,9.015-6.587,3.603-1.589,7.505-2.389,11.442-2.346,4.718-.184,9.389.988,13.46,3.375,3.454,2.151,6.379,5.048,8.562,8.48,2.189,3.454,3.737,7.275,4.569,11.278.802,3.815,1.134,7.713.988,11.609h-45.278c-.09,2.558.23,5.115.947,7.573,1.365,4.803,4.808,8.745,9.384,10.744,2.711,1.126,5.628,1.673,8.562,1.604,3.683.177,7.324-.848,10.373-2.921,2.848-2.177,4.761-5.356,5.351-8.892h9.673c-.906,6.052-4.068,11.536-8.849,15.353M503.005,328.183c-.839-2.043-2.07-3.903-3.622-5.475-1.556-1.533-3.385-2.761-5.393-3.622-2.173-.923-4.513-1.385-6.874-1.358-2.401-.034-4.783.428-6.997,1.358-2.001.866-3.807,2.125-5.31,3.705-1.5,1.581-2.7,3.422-3.54,5.433-.872,2.109-1.387,4.35-1.523,6.628h34.864c-.152-2.298-.695-4.553-1.605-6.669"/><path class="uuid-ab37d944-191c-44e5-a00c-1b8ddab5afba" d="M534.865,310.36v12.761c1.965-4.36,5.046-8.122,8.932-10.908,4.011-2.457,8.685-3.607,13.378-3.293v10.579c-3.476-.096-6.939.463-10.208,1.646-2.661.956-5.009,2.621-6.792,4.816-1.808,2.244-3.101,4.857-3.787,7.656-.82,3.395-1.208,6.881-1.153,10.373v27.003h-9.961v-60.633h9.591Z"/><path class="uuid-ab37d944-191c-44e5-a00c-1b8ddab5afba" d="M573.228,357.45c.921,1.491,2.193,2.735,3.705,3.622,1.59.937,3.331,1.591,5.145,1.935,1.95.399,3.937.592,5.927.576,1.653.009,3.303-.102,4.94-.329,1.627-.214,3.219-.643,4.733-1.276,1.398-.618,2.627-1.564,3.581-2.757.979-1.349,1.473-2.988,1.4-4.652.135-2.342-.976-4.58-2.922-5.887-2.257-1.453-4.73-2.537-7.327-3.211-2.923-.823-6.134-1.563-9.55-2.222-3.281-.617-6.493-1.555-9.591-2.799-2.787-1.145-5.288-2.887-7.327-5.104-2.07-2.596-3.11-5.865-2.922-9.179-.065-2.762.648-5.487,2.058-7.863,1.325-2.15,3.128-3.967,5.268-5.309,2.236-1.427,4.701-2.457,7.286-3.046,2.687-.704,5.455-1.05,8.233-1.029,3.192-.033,6.379.27,9.508.905,2.733.527,5.343,1.561,7.698,3.046,2.244,1.458,4.073,3.472,5.309,5.846,1.46,2.859,2.262,6.009,2.347,9.219h-10.003c-.086-1.721-.609-3.393-1.523-4.856-.842-1.283-1.969-2.354-3.293-3.129-1.372-.786-2.858-1.355-4.404-1.688-1.593-.363-3.223-.542-4.857-.535-1.517.002-3.031.126-4.528.37-1.429.191-2.818.608-4.116,1.236-1.187.53-2.231,1.335-3.046,2.345-.831,1.083-1.254,2.424-1.194,3.788.002,1.573.676,3.071,1.852,4.116,1.34,1.234,2.905,2.199,4.611,2.841,2.058.791,4.178,1.41,6.338,1.851l7.039,1.606c2.476.527,4.922,1.187,7.327,1.975,2.263.707,4.402,1.763,6.339,3.129,1.838,1.253,3.359,2.916,4.445,4.858,1.226,2.226,1.824,4.745,1.73,7.285.112,3.203-.688,6.372-2.306,9.138-1.492,2.399-3.539,4.404-5.969,5.845-2.527,1.541-5.318,2.602-8.232,3.128-3.04.569-6.126.859-9.22.865-3.239.021-6.47-.324-9.632-1.029-2.94-.618-5.733-1.792-8.232-3.458-2.339-1.643-4.258-3.814-5.599-6.339-1.528-2.967-2.333-6.253-2.346-9.591h10.003c-.085,2.004.37,3.994,1.317,5.763"/><path class="uuid-ab37d944-191c-44e5-a00c-1b8ddab5afba" d="M624.228,287.061h9.961v12.349h-9.961v-12.349ZM634.189,370.992h-9.961v-60.633h9.961v60.633Z"/><path class="uuid-ab37d944-191c-44e5-a00c-1b8ddab5afba" d="M674.817,310.36v8.768h-12.349v37.664c-.01.94.086,1.88.288,2.798.161.666.555,1.249,1.112,1.647.69.45,1.483.72,2.304.782,1.276.074,2.554.074,3.829,0h4.816v8.809h-7.656c-2.208.037-4.414-.142-6.586-.535-1.639-.245-3.185-.912-4.487-1.935-1.229-1.091-2.104-2.524-2.511-4.116-.605-2.212-.882-4.5-.823-6.792v-38.322h-10.332v-8.768h10.332v-18.193h9.714v18.193h12.349Z"/><path class="uuid-ab37d944-191c-44e5-a00c-1b8ddab5afba" d="M711.04,379.101c-.97,2.578-2.125,5.081-3.458,7.491-.997,1.836-2.259,3.514-3.745,4.982-1.31,1.254-2.865,2.22-4.569,2.84-1.874.604-3.835.896-5.804.864-1.185,0-2.367-.083-3.54-.247-1.165-.152-2.311-.428-3.417-.824v-9.137c.97.421,1.975.752,3.005.988.94.253,1.908.392,2.882.411,1.809.059,3.591-.445,5.104-1.44,1.405-1.045,2.478-2.475,3.087-4.116l4.116-10.209-24.039-60.262h11.237l17.742,49.395h.247l17-49.395h10.537l-26.385,68.659Z"/><path class="uuid-ab37d944-191c-44e5-a00c-1b8ddab5afba" d="M777.105,328.224c1.171-3.665,3.076-7.054,5.599-9.96,2.574-2.899,5.748-5.203,9.302-6.751,3.989-1.713,8.297-2.555,12.637-2.47,4.381-.093,8.731.749,12.761,2.47,3.505,1.572,6.634,3.873,9.179,6.751,2.564,2.929,4.485,6.365,5.639,10.084,1.26,3.996,1.899,8.16,1.893,12.349.014,4.19-.624,8.356-1.893,12.349-1.174,3.698-3.093,7.117-5.639,10.044-2.538,2.864-5.67,5.14-9.18,6.668-4.041,1.672-8.387,2.485-12.76,2.387-4.333.092-8.637-.721-12.637-2.387-3.557-1.505-6.735-3.783-9.302-6.668-2.523-2.939-4.426-6.354-5.599-10.044-1.288-3.989-1.927-8.157-1.894-12.349-.038-4.232.601-8.442,1.894-12.473M787.231,350.535c.897,2.631,2.295,5.062,4.116,7.162,1.681,1.872,3.744,3.36,6.051,4.363,4.675,2.03,9.98,2.03,14.654,0,2.308-1.003,4.371-2.491,6.051-4.363,1.835-2.09,3.234-4.525,4.116-7.162.998-3.168,1.485-6.476,1.441-9.797.05-3.321-.437-6.63-1.441-9.797-.882-2.662-2.281-5.124-4.116-7.244-6.539-7.389-17.829-8.077-25.217-1.538-.544.48-1.057.994-1.539,1.538-1.822,2.13-3.219,4.589-4.116,7.244-1.038,3.16-1.539,6.472-1.481,9.797-.052,3.325.449,6.636,1.481,9.797"/><path class="uuid-ab37d944-191c-44e5-a00c-1b8ddab5afba" d="M837.655,319.127v-8.768h10.044v-9.055c-.35-4.157,1.157-8.256,4.116-11.197,3.505-2.751,7.902-4.114,12.349-3.828,1.089.011,2.175.094,3.252.247,1.091.128,2.166.363,3.211.701v8.684c-.904-.33-1.844-.551-2.799-.658-.946-.057-1.895-.057-2.841,0-1.978-.122-3.947.366-5.639,1.399-1.494,1.371-2.23,3.381-1.976,5.393v8.479h11.731v8.768h-11.731v51.864h-9.673v-52.029h-10.044Z"/><polygon class="uuid-ab37d944-191c-44e5-a00c-1b8ddab5afba" points="903.803 296.612 903.803 287.227 970.774 287.227 970.774 296.612 942.866 296.612 942.866 370.993 931.711 370.993 931.711 296.612 903.803 296.612"/><path class="uuid-ab37d944-191c-44e5-a00c-1b8ddab5afba" d="M1010.414,367.122c-4.973,3.582-11.001,5.393-17.123,5.146-4.317.103-8.607-.695-12.596-2.346-3.449-1.472-6.519-3.711-8.974-6.545-2.492-2.954-4.354-6.385-5.474-10.085-1.241-4.159-1.932-8.463-2.059-12.801-.058-4.321.668-8.617,2.141-12.678,1.306-3.667,3.305-7.048,5.886-9.961,2.517-2.814,5.604-5.059,9.056-6.587,3.603-1.592,7.505-2.393,11.443-2.346,4.704-.176,9.359.994,13.419,3.375,3.471,2.127,6.402,5.03,8.562,8.48,2.145,3.463,3.651,7.283,4.445,11.278.794,3.817,1.14,7.712,1.03,11.609h-45.279c-.11,2.559.21,5.119.946,7.573.665,2.328,1.815,4.488,3.375,6.34,1.655,1.875,3.69,3.376,5.969,4.404,2.726,1.126,5.655,1.673,8.603,1.604,3.682.165,7.319-.859,10.373-2.921,2.836-2.182,4.734-5.361,5.31-8.892h9.879c-.931,6.062-4.123,11.548-8.932,15.353M1008.232,328.183c-3.89-8.746-14.053-12.786-22.886-9.097-2.012.867-3.832,2.126-5.351,3.705-1.487,1.583-2.673,3.424-3.499,5.433-.887,2.105-1.402,4.347-1.523,6.628h34.823c-.158-2.293-.686-4.545-1.564-6.669"/><polygon class="uuid-ab37d944-191c-44e5-a00c-1b8ddab5afba" points="1022.845 310.36 1035.646 310.36 1050.176 331.559 1065.324 310.36 1077.302 310.36 1056.392 338.268 1079.855 371.198 1067.094 371.198 1050.177 346.089 1033.3 371.198 1021.199 371.198 1043.961 339.297 1022.845 310.36"/><path class="uuid-ab37d944-191c-44e5-a00c-1b8ddab5afba" d="M1140.487,370.745c-2.194,1.138-4.654,1.664-7.121,1.523-2.26.127-4.478-.643-6.174-2.141-1.714-1.956-2.548-4.531-2.306-7.121-2.548,3.159-5.864,5.611-9.632,7.121-3.752,1.456-7.748,2.183-11.772,2.141-2.634.02-5.261-.284-7.82-.906-2.302-.556-4.471-1.563-6.381-2.964-1.779-1.363-3.193-3.144-4.117-5.186-1.128-2.449-1.678-5.125-1.605-7.82-.071-2.846.536-5.668,1.771-8.234,1.101-2.129,2.696-3.964,4.651-5.35,1.985-1.403,4.2-2.448,6.545-3.087,2.487-.741,5.015-1.331,7.573-1.771,2.759-.535,5.352-.987,7.821-1.234,2.196-.231,4.37-.629,6.504-1.195,1.635-.382,3.157-1.144,4.446-2.222,1.123-1.067,1.723-2.57,1.646-4.116.087-1.837-.341-3.662-1.235-5.269-.777-1.271-1.868-2.321-3.169-3.046-1.342-.73-2.808-1.204-4.323-1.399-1.58-.245-3.175-.368-4.774-.371-3.665-.124-7.298.713-10.538,2.428-3.054,1.966-4.803,5.432-4.568,9.056h-10.003c.048-3.294.85-6.532,2.346-9.467,1.343-2.524,3.279-4.685,5.639-6.298,2.437-1.644,5.158-2.817,8.027-3.458,3.173-.723,6.418-1.083,9.673-1.07,2.756-.007,5.508.2,8.233.617,2.58.344,5.076,1.154,7.368,2.388,2.18,1.199,4.001,2.962,5.268,5.104,1.415,2.611,2.098,5.554,1.976,8.521v31.16c-.04,1.725.098,3.448.412,5.145.288,1.07,1.193,1.646,2.758,1.646,1.033-.024,2.058-.191,3.046-.493l-.165,7.368ZM1124.31,339.667c-1.476,1.039-3.162,1.741-4.939,2.059-2.017.411-4.117.782-6.38,1.028-2.264.247-4.487.577-6.751.947-2.096.291-4.145.859-6.092,1.688-1.724.726-3.238,1.872-4.404,3.334-1.203,1.719-1.796,3.791-1.688,5.886-.132,2.769,1.236,5.395,3.581,6.874,1.109.745,2.354,1.262,3.663,1.523,1.473.334,2.978.499,4.487.494,2.873.069,5.733-.391,8.438-1.358,2.109-.767,4.063-1.911,5.763-3.375,1.386-1.236,2.494-2.751,3.252-4.446.662-1.406,1.026-2.933,1.07-4.487v-10.167Z"/><path class="uuid-ab37d944-191c-44e5-a00c-1b8ddab5afba" d="M1157.117,357.45c.921,1.491,2.192,2.735,3.705,3.622,1.588.942,3.329,1.597,5.145,1.935,1.95.399,3.937.592,5.927.576,1.653.009,3.303-.102,4.94-.329,1.626-.22,3.218-.649,4.733-1.276,1.406-.548,2.662-1.423,3.664-2.552.979-1.348,1.472-2.988,1.4-4.652.11-2.336-.995-4.562-2.923-5.886-2.26-1.446-4.732-2.53-7.327-3.21-2.922-.824-6.133-1.565-9.55-2.223-3.28-.618-6.492-1.555-9.591-2.799-2.786-1.144-5.287-2.888-7.326-5.104-2.07-2.596-3.11-5.865-2.923-9.179-.064-2.762.648-5.486,2.059-7.862,1.325-2.152,3.128-3.968,5.268-5.311,2.236-1.426,4.7-2.456,7.285-3.046,2.621-.685,5.319-1.031,8.028-1.028,3.192-.031,6.379.272,9.507.905,2.723.52,5.322,1.554,7.657,3.046,2.267,1.443,4.113,3.46,5.351,5.845,1.422,2.875,2.221,6.016,2.346,9.22h-9.961c-.086-1.722-.61-3.394-1.523-4.857-.842-1.282-1.969-2.353-3.293-3.128-1.372-.787-2.858-1.356-4.405-1.687-1.592-.364-3.222-.543-4.856-.536-1.518.002-3.031.126-4.528.37-1.431.185-2.821.602-4.117,1.236-1.186.53-2.23,1.334-3.046,2.346-.831,1.083-1.253,2.423-1.193,3.787.002,1.573.676,3.071,1.852,4.116,1.333,1.244,2.9,2.21,4.61,2.84,2.059.792,4.179,1.411,6.339,1.852l7.039,1.606c2.476.527,4.922,1.186,7.327,1.975,2.259.716,4.397,1.771,6.339,3.129,1.838,1.253,3.359,2.915,4.445,4.857,1.226,2.227,1.824,4.746,1.73,7.286.112,3.203-.688,6.372-2.306,9.137-1.492,2.4-3.539,4.404-5.969,5.846-2.53,1.536-5.32,2.597-8.232,3.128-3.026.571-6.1.86-9.179.864-3.239.022-6.47-.323-9.632-1.028-2.939-.618-5.734-1.792-8.233-3.458-2.352-1.641-4.283-3.812-5.639-6.339-1.495-2.977-2.283-6.26-2.305-9.591h9.962c-.024,1.943.459,3.858,1.399,5.557"/><path class="uuid-ab37d944-191c-44e5-a00c-1b8ddab5afba" d="M252.416,486.435c-2.211,1.132-4.682,1.657-7.162,1.523-2.246.12-4.45-.649-6.134-2.141-1.714-1.956-2.547-4.531-2.305-7.121-2.525,3.148-5.812,5.599-9.55,7.121-6.264,2.345-13.084,2.774-19.593,1.235-2.302-.556-4.47-1.563-6.38-2.964-1.779-1.362-3.193-3.144-4.116-5.186-2.291-5.249-2.291-11.216,0-16.465,1.1-2.118,2.678-3.95,4.61-5.351,2.005-1.394,4.232-2.438,6.586-3.087,2.487-.74,5.016-1.331,7.574-1.77,2.717-.535,5.351-.988,7.78-1.235,2.196-.223,4.371-.622,6.503-1.194,1.651-.374,3.189-1.136,4.487-2.222,1.105-1.079,1.703-2.574,1.647-4.117.086-1.836-.341-3.662-1.235-5.269-.777-1.272-1.868-2.32-3.17-3.046-1.357-.728-2.836-1.202-4.363-1.399-1.566-.244-3.148-.369-4.734-.37-3.677-.124-7.323.712-10.579,2.428-3.027,1.99-4.768,5.439-4.568,9.056h-9.962c.048-3.294.85-6.533,2.346-9.468,1.344-2.523,3.279-4.684,5.64-6.298,2.436-1.643,5.158-2.816,8.026-3.457,3.174-.724,6.419-1.083,9.674-1.07,2.756-.007,5.508.199,8.232.617,2.569.338,5.052,1.148,7.327,2.388,2.193,1.198,4.026,2.96,5.31,5.103,1.414,2.611,2.098,5.555,1.976,8.521v31.16c-.062,1.726.076,3.452.412,5.146.288,1.07,1.193,1.646,2.757,1.646,1.034-.025,2.058-.191,3.046-.494l-.082,7.78ZM236.239,455.357c-1.481,1.03-3.166,1.731-4.939,2.059-2.018.411-4.117.782-6.381,1.028-2.263.247-4.487.577-6.75.947-2.098.285-4.147.854-6.093,1.688-1.73.715-3.246,1.863-4.404,3.334-1.22,1.711-1.815,3.789-1.687,5.886-.036,1.435.305,2.854.987,4.117.639,1.083,1.511,2.011,2.552,2.716,1.128.738,2.385,1.254,3.705,1.523,1.471.336,2.977.502,4.487.494,2.872.065,5.731-.395,8.438-1.358,2.102-.757,4.043-1.902,5.721-3.375,1.398-1.235,2.52-2.749,3.293-4.446.662-1.406,1.027-2.933,1.071-4.487v-10.126Z"/><path class="uuid-ab37d944-191c-44e5-a00c-1b8ddab5afba" d="M286.416,426.049v8.768h-12.061v37.664c-.033.941.064,1.883.289,2.798.16.666.554,1.249,1.111,1.647.687.457,1.482.727,2.305.782,1.261.076,2.526.076,3.787,0h4.569v8.809h-7.409c-2.221.037-4.441-.142-6.627-.535-1.628-.237-3.163-.905-4.446-1.935-1.244-1.085-2.133-2.519-2.552-4.116-.605-2.212-.882-4.5-.823-6.792v-38.322h-10.29v-8.768h10.29v-18.193h10.003v18.193h11.854Z"/><path class="uuid-ab37d944-191c-44e5-a00c-1b8ddab5afba" d="M373.68,414.359c-4.176-2.878-9.174-4.322-14.242-4.116-2.323-.016-4.642.219-6.915.7-2.143.406-4.195,1.201-6.051,2.347-1.722,1.096-3.138,2.612-4.116,4.404-1.103,2.103-1.642,4.458-1.565,6.833-.115,2.324.717,4.597,2.306,6.298,1.715,1.739,3.796,3.074,6.092,3.91,2.788,1.097,5.667,1.95,8.602,2.552,3.211.659,6.463,1.358,9.797,2.14,3.334.783,6.586,1.729,9.797,2.758,3.062.956,5.972,2.342,8.644,4.116,2.518,1.791,4.6,4.127,6.092,6.833,1.621,3.181,2.4,6.724,2.264,10.291.119,4.019-.909,7.988-2.964,11.443-1.956,3.122-4.586,5.765-7.697,7.739-3.219,2.052-6.771,3.528-10.497,4.363-3.79.896-7.671,1.351-11.566,1.359-4.491.013-8.964-.582-13.295-1.771-3.978-1.083-7.719-2.897-11.032-5.35-3.191-2.406-5.759-5.538-7.491-9.139-1.938-4.129-2.883-8.653-2.759-13.213h10.538c-.08,3.156.628,6.282,2.058,9.097,1.302,2.477,3.145,4.63,5.393,6.298,2.337,1.693,4.979,2.922,7.779,3.622,2.998.775,6.083,1.163,9.18,1.153,2.541.01,5.077-.225,7.573-.7,2.397-.402,4.708-1.209,6.833-2.388,2.018-1.101,3.719-2.703,4.94-4.651,1.334-2.265,1.991-4.865,1.893-7.491.105-2.548-.714-5.047-2.305-7.04-1.671-1.91-3.754-3.416-6.092-4.404-2.777-1.218-5.674-2.142-8.644-2.758l-9.797-2.181c-3.293-.741-6.586-1.606-9.755-2.552-3.04-.904-5.946-2.205-8.644-3.869-2.492-1.564-4.579-3.694-6.092-6.216-1.623-2.929-2.42-6.244-2.305-9.591-.226-7.399,3.345-14.401,9.467-18.564,2.948-2.057,6.237-3.576,9.714-4.487,3.652-.974,7.417-1.459,11.196-1.441,4.044-.043,8.074.47,11.979,1.523,3.525.913,6.82,2.553,9.673,4.817,2.801,2.199,5.055,5.016,6.586,8.232,1.692,3.754,2.589,7.819,2.634,11.937h-10.579c-.25-5.037-2.666-9.72-6.627-12.843"/><path class="uuid-ab37d944-191c-44e5-a00c-1b8ddab5afba" d="M459.257,486.435c-2.211,1.132-4.682,1.657-7.162,1.523-2.26.127-4.478-.643-6.175-2.141-1.699-1.963-2.517-4.537-2.263-7.121-2.535,3.139-5.819,5.588-9.55,7.121-6.265,2.345-13.084,2.774-19.593,1.235-2.312-.564-4.493-1.571-6.422-2.964-1.757-1.384-3.167-3.16-4.116-5.186-2.252-5.257-2.252-11.207,0-16.465,1.127-2.111,2.717-3.94,4.651-5.351,2.005-1.394,4.232-2.438,6.586-3.087,2.488-.74,5.016-1.331,7.574-1.77,2.717-.535,5.31-.988,7.78-1.235,2.196-.223,4.371-.622,6.504-1.194,1.651-.374,3.188-1.136,4.486-2.222,1.094-1.083,1.678-2.579,1.606-4.117.086-1.836-.341-3.662-1.235-5.269-.75-1.278-1.83-2.33-3.129-3.046-1.357-.728-2.835-1.202-4.363-1.399-1.566-.244-3.148-.369-4.733-.37-3.678-.124-7.324.712-10.579,2.428-3.028,1.99-4.768,5.439-4.569,9.056h-9.961c.047-3.294.85-6.533,2.346-9.468,1.343-2.523,3.278-4.684,5.639-6.298,2.442-1.615,5.164-2.759,8.026-3.375,3.173-.726,6.419-1.085,9.674-1.07,2.756-.003,5.508.203,8.232.617,2.569.338,5.052,1.148,7.327,2.388,2.181,1.199,4.001,2.962,5.269,5.104,1.455,2.596,2.154,5.548,2.016,8.521v31.16c-.061,1.725.077,3.451.413,5.145.246,1.07,1.193,1.646,2.757,1.646,1.033-.028,2.058-.194,3.046-.493l-.082,7.697ZM443.08,455.357c-1.485,1.022-3.167,1.724-4.939,2.059-2.059.411-4.117.782-6.38,1.028-2.264.247-4.487.577-6.751.947-2.097.285-4.147.854-6.092,1.688-1.73.715-3.247,1.863-4.405,3.334-1.234,1.706-1.844,3.784-1.728,5.886-.036,1.435.305,2.854.987,4.117.666,1.076,1.55,2.001,2.594,2.716,1.127.738,2.384,1.254,3.704,1.523,1.458.336,2.949.502,4.446.494,2.803.045,5.592-.415,8.232-1.358,2.119-.747,4.075-1.893,5.763-3.375,1.397-1.235,2.519-2.749,3.293-4.446.662-1.406,1.026-2.933,1.07-4.487l.206-10.126Z"/><path class="uuid-ab37d944-191c-44e5-a00c-1b8ddab5afba" d="M477.615,426.049v9.591h.247c3.872-7.195,11.56-11.495,19.717-11.031,3.395-.087,6.775.471,9.961,1.646,5.047,1.935,8.778,6.284,9.921,11.566.687,2.941,1.019,5.955.987,8.974v39.887h-9.961v-41.163c.173-3.303-1.017-6.532-3.293-8.932-2.448-2.279-5.716-3.468-9.056-3.293-2.702-.07-5.389.405-7.903,1.4-2.151.914-4.055,2.325-5.557,4.116-1.519,1.77-2.667,3.828-3.375,6.051-.762,2.451-1.137,5.006-1.111,7.573v34.248h-9.838v-60.633h9.261Z"/><path class="uuid-ab37d944-191c-44e5-a00c-1b8ddab5afba" d="M602.791,402.917l32.723,83.765h-12.348l-9.138-25.233h-35.441l-9.385,25.233h-11.402l32.642-83.765h12.349ZM610.529,452.064l-13.954-39.063h-.247l-14.201,39.063h28.402Z"/><path class="uuid-ab37d944-191c-44e5-a00c-1b8ddab5afba" d="M651.897,426.049v9.591h.247c3.872-7.195,11.56-11.495,19.717-11.031,3.394-.087,6.775.471,9.961,1.646,2.489.983,4.706,2.551,6.463,4.569,1.68,2.032,2.865,4.428,3.458,6.997.687,2.941,1.019,5.955.987,8.974v39.887h-9.961v-41.163c.174-3.303-1.017-6.532-3.293-8.932-2.438-2.268-5.688-3.456-9.015-3.293-2.714-.07-5.417.405-7.944,1.4-2.151.914-4.056,2.325-5.557,4.116-1.506,1.772-2.64,3.83-3.334,6.051-.762,2.451-1.137,5.006-1.112,7.573v34.248h-10.002v-60.633h9.385Z"/><path class="uuid-ab37d944-191c-44e5-a00c-1b8ddab5afba" d="M732.246,426.049v8.768h-12.061v37.664c-.033.941.064,1.883.29,2.798.16.666.554,1.249,1.111,1.647.675.45,1.454.72,2.264.782,1.274.075,2.552.075,3.828,0h4.568v8.809h-7.615c-2.221.037-4.441-.142-6.627-.535-1.628-.237-3.162-.905-4.445-1.935-1.245-1.085-2.133-2.519-2.552-4.116-.605-2.212-.883-4.5-.823-6.792v-38.322h-10.292v-8.768h10.292v-18.193h10.001v18.193h12.061Z"/><path class="uuid-ab37d944-191c-44e5-a00c-1b8ddab5afba" d="M738.956,443.913c1.169-3.674,3.09-7.067,5.64-9.96,2.567-2.888,5.725-5.191,9.26-6.751,8.146-3.293,17.252-3.293,25.398,0,3.517,1.571,6.66,3.872,9.221,6.751,2.537,2.942,4.442,6.375,5.597,10.084,1.281,3.991,1.919,8.159,1.894,12.349.034,4.192-.606,8.36-1.894,12.349-1.172,3.69-3.076,7.105-5.597,10.044-2.553,2.865-5.7,5.141-9.221,6.668-8.166,3.185-17.232,3.185-25.398,0-3.539-1.516-6.701-3.792-9.26-6.668-2.548-2.927-4.467-6.346-5.64-10.044-1.269-3.993-1.907-8.159-1.894-12.349-.017-4.23.622-8.437,1.894-12.473M749.082,466.224c.882,2.638,2.281,5.072,4.116,7.162,1.68,1.872,3.743,3.36,6.051,4.363,4.674,2.03,9.979,2.03,14.654,0,2.307-1.003,4.371-2.491,6.051-4.363,1.821-2.1,3.219-4.531,4.116-7.162,1.033-3.161,1.533-6.472,1.482-9.797.057-3.325-.444-6.637-1.482-9.797-.897-2.655-2.294-5.114-4.116-7.244-6.539-7.389-17.829-8.077-25.218-1.538-.543.48-1.057.994-1.538,1.538-1.835,2.12-3.234,4.582-4.116,7.244-1.004,3.167-1.491,6.476-1.44,9.797-.044,3.321.442,6.629,1.44,9.797"/><path class="uuid-ab37d944-191c-44e5-a00c-1b8ddab5afba" d="M816.464,426.049v9.591h.247c3.858-7.188,11.531-11.489,19.676-11.031,3.408-.087,6.802.471,10.002,1.646,2.478.981,4.682,2.549,6.422,4.569,1.68,2.032,2.864,4.428,3.457,6.997.722,2.936,1.068,5.952,1.029,8.974v39.887h-9.961v-41.163c.173-3.303-1.018-6.532-3.293-8.932-2.448-2.279-5.716-3.468-9.056-3.293-2.702-.07-5.39.405-7.903,1.4-2.157.924-4.072,2.333-5.599,4.116-1.505,1.772-2.639,3.83-3.334,6.051-.761,2.451-1.136,5.006-1.111,7.573v34.248h-9.961v-60.633h9.385Z"/><path class="uuid-ab37d944-191c-44e5-a00c-1b8ddab5afba" d="M871.745,402.751h9.961v12.349h-9.961v-12.349ZM881.706,486.682h-9.961v-60.633h9.961v60.633Z"/><path class="uuid-ab37d944-191c-44e5-a00c-1b8ddab5afba" d="M895.002,443.913c1.145-3.668,3.036-7.059,5.557-9.96,2.55-2.907,5.714-5.212,9.261-6.751,8.146-3.293,17.252-3.293,25.398,0,3.547,1.561,6.719,3.863,9.303,6.751,2.462,2.92,4.311,6.308,5.432,9.96,1.28,3.991,1.919,8.159,1.894,12.349.034,4.191-.605,8.361-1.894,12.35-1.172,3.689-3.075,7.105-5.597,10.043-2.553,2.866-5.7,5.141-9.221,6.669-8.166,3.184-17.231,3.184-25.397,0-3.551-1.496-6.717-3.776-9.261-6.669-2.547-2.927-4.467-6.345-5.64-10.043-1.288-3.989-1.927-8.159-1.894-12.35.029-4.199.723-8.367,2.059-12.349M905.128,466.224c.882,2.638,2.281,5.072,4.116,7.162,1.672,1.882,3.738,3.371,6.051,4.363,2.305,1.028,4.804,1.547,7.327,1.523,2.523.015,5.02-.503,7.326-1.523,2.308-1.003,4.371-2.491,6.051-4.363,1.822-2.1,3.22-4.531,4.116-7.162,1.019-3.164,1.505-6.474,1.442-9.797.07-3.323-.417-6.635-1.442-9.797-.896-2.655-2.294-5.114-4.116-7.244-5.205-5.727-13.475-7.514-20.581-4.445-2.316,1.022-4.382,2.54-6.051,4.445-1.835,2.12-3.233,4.582-4.116,7.244-1.004,3.167-1.49,6.476-1.44,9.797-.084,3.315.361,6.622,1.317,9.797"/><path class="uuid-ab37d944-191c-44e5-a00c-1b8ddab5afba" d="M967.486,421.503v-19.119h-6.111v-2.595h15.09v2.595h-6.328v19.119h-2.651ZM980.332,399.815h5.003l5.841,17.849,5.949-17.849h4.679v21.716h-2.759v-19.471l-6.734,19.471h-2.704l-6.49-19.471v19.471h-2.759v-21.716h-.026Z"/><polygon class="uuid-ab37d944-191c-44e5-a00c-1b8ddab5afba" points="0 296.612 0 287.227 66.972 287.227 66.972 296.612 39.063 296.612 39.063 370.993 27.908 370.993 27.908 296.612 0 296.612"/></svg>