<?xml version="1.0" encoding="utf-8"?>
<!-- Generator: Adobe Illustrator 26.4.1, SVG Export Plug-In . SVG Version: 6.00 Build 0)  -->
<svg version="1.1" id="Layer_1" xmlns="http://www.w3.org/2000/svg" xmlns:xlink="http://www.w3.org/1999/xlink" x="0px" y="0px"
	 viewBox="0 0 648 648" style="enable-background:new 0 0 648 648;" xml:space="preserve">
<style type="text/css">
	.st0{fill:#314B2A;}
	.st1{fill:#9FC2B8;}
	.st2{fill:#FFFFFF;}
	.st3{fill:#E4F4F8;}
	.st4{fill:#C7962C;}
</style>
<path class="st0" d="M36.9,554.6c0-1.6,0.2-1.8,0.7-1.9l3.9-0.6c0.9-0.2,1.1-0.4,1.1-1.2v-53.2c0-0.9-0.2-1.1-1.1-1.2l-3.9-0.6
	c-0.5-0.1-0.7-0.4-0.7-1.9c0-1.6,0.2-1.8,0.7-1.8c2.5,0,12,0.6,18.4,0.6h6.5c5.8,0,7.7-0.4,13.7-0.4c17,0,26.7,8.1,26.7,20
	c0,12.1-9.3,21-23.5,21c-4.9,0-10.7-1.6-14.1-3.9v21.4c0,0.9,0.2,1.1,1.1,1.2l5.6,0.6c0.5,0.1,0.7,0.4,0.7,1.9
	c0,1.6-0.2,1.8-0.7,1.8c-2,0-10.7-0.6-18-0.6c-7.3,0-14.3,0.6-16.3,0.6C37.1,556.5,36.9,556.2,36.9,554.6z M66.9,496.2h-0.5
	c-0.9,0-1.1,0.2-1.1,1.1v28.2c0.7,0.2,1.6,0.4,3.2,0.4c5.1,0,10.1-4.8,10.1-15.6C78.5,501.1,73.2,496.2,66.9,496.2z"/>
<path class="st0" d="M127.7,546.1c-2.8,7-8.2,11.1-14.6,11.1c-6.8,0-11.4-5.4-11.4-12.3c0-5.4,1.7-8.4,6.2-10.9
	c4.1-2.2,10.7-4.1,19-6v-2.8c0-6.3-1.9-10.2-5.3-10.2c-0.9,0-1.2,0.3-1.4,1.4l-0.6,4.2c-0.9,6.3-4.6,9.3-9.5,9.3
	c-2.7,0-5.2-1.7-5.2-4.9c0-5.6,10.9-14.2,24.3-14.2c11.9,0,17.5,4.7,17.5,13.2v16.1c0,7,1.4,7.2,3.8,5.6c0.3-0.2,0.4-0.3,0.5-0.3
	c0.8,0,2.1,1.9,2.1,2.5c0,0.4-0.4,0.8-0.9,1.3l-0.4,0.4c-5.3,5.3-9,7.5-13.3,7.5C133.6,557.3,129.9,553.8,127.7,546.1z M127,544.8
	v-6.2c0-1.9-0.8-3.3-1.8-4.4c-1.1-1.1-2.5-1.7-3.4-1.7c-1.8,0-2.5,1.1-2.5,3.7c0,4.9,3.3,9.2,6.2,9.2
	C126.3,545.4,126.8,545.1,127,544.8z"/>
<path class="st0" d="M182.6,575.6c-2,0-7.7-0.6-14.1-0.6c-6.4,0-12.2,0.6-14.2,0.6c-0.5,0-0.7-0.3-0.7-1.8c0-1.6,0.2-1.8,0.7-1.9
	l3-0.6c0.9-0.2,1.1-0.4,1.1-1.2v-42.2c0-0.9-0.2-1-1.1-1.1l-3-0.5c-0.5-0.1-0.7-0.3-0.7-1.7c0-1.3,0.2-1.5,0.7-1.7
	c7.2-2.8,14-7.1,21.1-12.1c0.3-0.2,0.4-0.3,0.7-0.3c0.6,0,2.3,0.7,2.3,1.3c0,1.5-0.4,3.7-0.4,9.1c3-6.9,8.3-9.9,14.4-9.9
	c9.1,0,18.2,7.4,18.2,21.9c0,15.3-8.9,24-23.4,24c-3.2,0-6.1-0.4-8.6-1.1V570c0,0.9,0.2,1.1,1.1,1.2l3,0.6c0.5,0.1,0.7,0.3,0.7,1.9
	C183.3,575.4,183.1,575.6,182.6,575.6z M188.1,554.1c1.8,0,3.1-1.7,3.1-4.8c0-8.6-4.7-21.8-9.5-26.6c-0.9-0.9-1.5-1.1-2.1-1.1
	c-0.4,0-0.7,0.1-1.1,0.4v11.3c0,8.3,3.5,16.4,6.5,19.4C186.1,553.8,187,554.1,188.1,554.1z"/>
<path class="st0" d="M238.1,557.3c-13.1,0-23.2-8.9-23.2-22.8c0-14.1,10.6-23.5,26.2-23.5c13.1,0,20.2,6.3,20.2,14.7
	c0,0.8,0,1.7-0.2,2.3c-0.1,0.4-0.4,0.6-1,0.6c-6.9,0.4-16.9,0.5-25.3,0.3c1.3,4.4,3.7,8.6,6.1,11.1c3.3,3.3,5.7,4.2,8.9,4.2
	c3.6,0,6.1-1.5,8.5-3.6c0.8-0.7,3,1,2.6,1.8C257.5,551.3,247.6,557.3,238.1,557.3z M234.4,526.9l2.8-0.4c4-0.4,5.9-3.3,5.9-7.8
	c0-3.3-1.4-5.1-3.9-5.1c-2.7,0-5.4,2.5-5.4,7.7C233.8,523.1,234.1,525.1,234.4,526.9z"/>
<path class="st0" d="M296.4,556.5c-2,0-7.7-0.6-16.8-0.6c-6.4,0-12.2,0.6-14.2,0.6c-0.5,0-0.7-0.2-0.7-1.8c0-1.7,0.2-1.8,0.7-1.9
	l3-0.6c0.9-0.2,1.1-0.3,1.1-1.1v-23.2c0-0.9-0.2-1-1.1-1.1l-3-0.5c-0.5-0.1-0.7-0.3-0.7-1.7c0-1.3,0.2-1.5,0.7-1.7
	c7.2-2.8,14-7.1,21.1-12.1c0.3-0.2,0.4-0.3,0.7-0.3c0.6,0,2.3,0.7,2.3,1.3c0,1.4-0.4,8.5-0.4,14.2c2.6-8.5,7.5-15,12.9-15
	c5.3,0,7.6,3.9,7.6,8.8c0,8.3-4.8,12.5-8.9,12.5c-1.6,0-2.9-0.5-4.8-1.8c-2.1-1.5-3.9-2.3-5-2.3c-0.4,0-1,0.1-1.1,0.3v22.6
	c0,0.9,0.2,1.1,1.1,1.1l5.6,0.6c0.5,0.1,0.7,0.4,0.7,1.9C297.1,556.2,296.9,556.5,296.4,556.5z"/>
<path class="st0" d="M331,554.6c0-1.6,0.2-1.8,0.7-1.9l3.9-0.6c0.9-0.2,1.1-0.4,1.1-1.2v-53.2c0-0.9-0.2-1.1-1.1-1.2l-3.9-0.6
	c-0.5-0.1-0.7-0.4-0.7-1.9c0-1.6,0.2-1.8,0.7-1.8c2.5,0,12,0.6,18.4,0.6h6.5c5.8,0,7.7-0.4,13.7-0.4c17,0,26.7,8.1,26.7,20
	c0,12.1-9.3,21-23.5,21c-4.9,0-10.7-1.6-14.1-3.9v21.4c0,0.9,0.2,1.1,1.1,1.2l5.6,0.6c0.5,0.1,0.7,0.4,0.7,1.9
	c0,1.6-0.2,1.8-0.7,1.8c-2,0-10.7-0.6-18-0.6c-7.3,0-14.3,0.6-16.3,0.6C331.2,556.5,331,556.2,331,554.6z M360.9,496.2h-0.5
	c-0.9,0-1.1,0.2-1.1,1.1v28.2c0.7,0.2,1.6,0.4,3.2,0.4c5.1,0,10.1-4.8,10.1-15.6C372.6,501.1,367.2,496.2,360.9,496.2z"/>
<path class="st0" d="M398.1,554.6c0-1.6,0.2-1.8,0.7-1.9l3-0.6c0.9-0.2,1.1-0.4,1.1-1.2v-45.2c0-0.9-0.2-1-1.1-1.1l-3-0.5
	c-0.5-0.1-0.7-0.3-0.7-1.7c0-1.3,0.2-1.5,0.7-1.7c7.2-2.8,15-7.3,22-12.1c0.3-0.2,0.4-0.3,0.7-0.3c0.6,0,2.3,0.7,2.3,1.3
	c0,1.5-0.7,7.5-0.7,18.2v43c0,0.9,0.2,1.1,1.1,1.2l3,0.6c0.5,0.1,0.7,0.4,0.7,1.9c0,1.6-0.2,1.8-0.7,1.8c-2,0-7.7-0.6-14.1-0.6
	c-6.4,0-12.2,0.6-14.2,0.6C398.3,556.5,398.1,556.2,398.1,554.6z"/>
<path class="st0" d="M455.8,546.1c-2.8,7-8.2,11.1-14.6,11.1c-6.8,0-11.4-5.4-11.4-12.3c0-5.4,1.7-8.4,6.2-10.9
	c4.1-2.2,10.7-4.1,19-6v-2.8c0-6.3-1.9-10.2-5.3-10.2c-0.9,0-1.2,0.3-1.4,1.4l-0.6,4.2c-0.9,6.3-4.6,9.3-9.5,9.3
	c-2.7,0-5.2-1.7-5.2-4.9c0-5.6,10.9-14.2,24.3-14.2c11.9,0,17.5,4.7,17.5,13.2v16.1c0,7,1.4,7.2,3.8,5.6c0.3-0.2,0.4-0.3,0.5-0.3
	c0.8,0,2.1,1.9,2.1,2.5c0,0.4-0.4,0.8-0.9,1.3l-0.4,0.4c-5.3,5.3-9,7.5-13.3,7.5C461.6,557.3,458,553.8,455.8,546.1z M455.1,544.8
	v-6.2c0-1.9-0.8-3.3-1.8-4.4c-1.1-1.1-2.5-1.7-3.4-1.7c-1.8,0-2.5,1.1-2.5,3.7c0,4.9,3.3,9.2,6.2,9.2
	C454.4,545.4,454.8,545.1,455.1,544.8z"/>
<path class="st0" d="M481.9,554.6c0-1.6,0.2-1.8,0.7-1.9l3-0.6c0.9-0.2,1.1-0.4,1.1-1.2v-23.1c0-0.9-0.2-1-1.1-1.1l-3-0.5
	c-0.5-0.1-0.7-0.3-0.7-1.7c0-1.3,0.2-1.5,0.7-1.7c7.2-2.8,15-7.3,22-12.1c0.3-0.2,0.4-0.3,0.7-0.3c0.6,0,2.3,0.7,2.3,1.3
	c0,1.5-0.7,7.5-0.7,18.2v20.9c0,0.9,0.2,1.1,1.1,1.2l3,0.6c0.5,0.1,0.7,0.4,0.7,1.9c0,1.6-0.2,1.8-0.7,1.8c-2,0-7.7-0.6-14.1-0.6
	c-6.4,0-12.3,0.6-14.2,0.6C482.1,556.5,481.9,556.2,481.9,554.6z M487.9,496.4c0-5.7,4.2-10.1,10.1-10.1s10.1,4.4,10.1,10.1
	c0,5.7-4.2,10.1-10.1,10.1S487.9,502.1,487.9,496.4z"/>
<path class="st0" d="M573.3,556.5c-2,0-7.7-0.6-14.1-0.6c-6.4,0-11.6,0.6-13.6,0.6c-0.5,0-0.7-0.3-0.7-1.8c0-1.6,0.2-1.8,0.7-1.9
	l2.4-0.6c0.9-0.3,1.1-0.4,1.1-1.2v-17.3c0-8.2-1.9-11.1-7.8-11.1c-0.6,0-1.5,0.1-1.9,0.3v28.1c0,0.9,0.2,1,1.1,1.2l2.4,0.6
	c0.5,0.2,0.7,0.4,0.7,1.9c0,1.6-0.2,1.8-0.7,1.8c-2,0-7.1-0.6-13.5-0.6c-6.4,0-12.2,0.6-14.2,0.6c-0.5,0-0.7-0.3-0.7-1.8
	c0-1.6,0.2-1.8,0.7-1.9l3-0.6c0.9-0.2,1.1-0.4,1.1-1.2v-23.1c0-0.9-0.2-1-1.1-1.1l-3-0.5c-0.5-0.1-0.7-0.3-0.7-1.7
	c0-1.3,0.2-1.5,0.7-1.7c7.2-2.8,14-7.1,21.1-12.1c0.3-0.2,0.4-0.3,0.7-0.3c0.6,0,2.3,0.7,2.3,1.3c0,1.5-0.4,4.6-0.4,9.6
	c2.4-5.2,8-10.4,15.7-10.4c9.2,0,14.9,5.5,14.9,15v24.9c0,0.9,0.2,1.1,1.1,1.2l3,0.6c0.5,0.1,0.7,0.4,0.7,1.9
	C574,556.2,573.8,556.5,573.3,556.5z"/>
<path class="st0" d="M579.3,539.6c1.7,0,1.9,0.2,2.2,0.9c1.8,4.4,3.2,7.7,4.7,10.3c1.5,2.5,3.4,3.3,6.1,3.3c3.9,0,6.1-1.9,6.1-5.2
	c0-3.2-1.7-5.3-7.9-7.1c-10.7-3.2-13.3-8.1-13.3-15.6c0-8.7,7.8-15.7,22.1-15.7c3.2,0,6.4,0.4,9.7,0.8c1.8,0.3,1.9,0.4,1.9,2.2v10.4
	c0,0.7-0.2,0.9-1.8,0.9c-1.7,0-1.9-0.2-2.2-0.9c-1.2-3.2-1.8-4.7-2.7-6.9c-0.9-2.1-2.4-3.3-5.3-3.3c-3,0-5.3,1.2-5.3,4.5
	c0,2.9,1.4,4.4,7.3,6.5c9.9,3.5,13.1,8.7,13.1,15.4c0,10.3-8.1,17.3-22.1,17.3c-5.2,0-8.9-0.6-13.4-2c-1.8-0.5-1.9-0.7-1.9-2.5
	c0-3.2,0.4-8.2,0.9-12.3C577.4,539.8,577.7,539.6,579.3,539.6z"/>
<g>
	<rect x="33.8" y="613.1" class="st1" width="96.8" height="10.9"/>
</g>
<g>
	<rect x="515.1" y="613.1" class="st1" width="99.3" height="10.9"/>
</g>
<path class="st1" d="M174.3,632c-2.6,0-5.8-0.3-10.2-0.3h-4.3c-5.4,0-10.2,0.3-11.2,0.3c-0.2,0-0.3-0.1-0.3-0.9
	c0-0.7,0.1-0.9,0.3-0.9l1.8-0.3c0.4-0.1,0.5-0.2,0.5-0.6v-24.7c0-0.4-0.1-0.5-0.5-0.6l-1.8-0.3c-0.2,0-0.3-0.2-0.3-0.9
	c0-0.7,0.1-0.9,0.3-0.9c0.9,0,4.2,0.3,7.6,0.3s7.4-0.3,8.4-0.3c0.2,0,0.3,0.1,0.3,0.9c0,0.7-0.1,0.9-0.3,0.9L162,604
	c-0.4,0-0.5,0.2-0.5,0.6v23.1c0,0.7,0.2,1.2,0.7,1.6c0.4,0.4,1,0.7,1.7,0.7c1.6,0,3.2-0.2,5.2-0.7c0.8-0.2,1.1-0.3,1.6-1.1
	c1.3-2.5,2.7-5.2,4.1-7.8c0.2-0.3,0.2-0.3,0.5-0.3c0.7,0,1.9,0.3,1.8,0.7c-0.4,3.2-1.1,7.4-1.8,10.3
	C175.2,631.9,175.1,632,174.3,632z"/>
<path class="st1" d="M178,631.1c0-0.7,0.1-0.9,0.3-0.9l1.4-0.3c0.4-0.1,0.5-0.2,0.5-0.6v-10.7c0-0.4-0.1-0.4-0.5-0.5l-1.4-0.2
	c-0.2,0-0.3-0.1-0.3-0.8c0-0.6,0.1-0.7,0.3-0.8c3.3-1.3,7-3.4,10.2-5.6c0.1-0.1,0.2-0.1,0.3-0.1c0.3,0,1.1,0.3,1.1,0.6
	c0,0.7-0.3,3.5-0.3,8.5v9.7c0,0.4,0.1,0.5,0.5,0.6l1.4,0.3c0.2,0,0.3,0.2,0.3,0.9c0,0.7-0.1,0.9-0.3,0.9c-0.9,0-3.6-0.3-6.6-0.3
	c-3,0-5.7,0.3-6.6,0.3C178,632,178,631.8,178,631.1z M180.7,604c0-2.7,2-4.7,4.7-4.7c2.7,0,4.7,2,4.7,4.7c0,2.7-2,4.7-4.7,4.7
	C182.7,608.7,180.7,606.7,180.7,604z"/>
<path class="st1" d="M201,632.3c-4.3,0-6.5-2.7-6.5-7.1V614c0-0.4,0-0.4-0.5-0.5l-1.5-0.2c-0.3,0-0.3-0.1-0.3-0.8s0.1-0.9,0.3-0.9
	c4.3-1,6.6-2.4,9.3-5.2c0.2-0.2,0.3-0.3,0.9-0.3c0.7,0,0.8,0,0.8,0.3c0.2,1.2,0.3,3,0.3,4.8c1.2,0,3.3,0,4.6,0
	c0.4,0,0.6,0.2,0.6,1.3s-0.2,1.2-0.6,1.2c-1.4,0-3.2,0-4.6,0v8.1c0,3.8,1,4.7,2.8,4.7c0.5,0,0.8-0.2,1-0.2c0.4,0,1.1,0.7,1,1.1
	C207.7,629.8,204.8,632.3,201,632.3z"/>
<path class="st1" d="M220.7,632.3c-6.1,0-10.8-4.2-10.8-10.6c0-6.6,4.9-10.9,12.2-10.9c6.1,0,9.4,2.9,9.4,6.9c0,0.4,0,0.8-0.1,1.1
	c0,0.2-0.2,0.3-0.4,0.3c-3.2,0.2-7.9,0.2-11.8,0.1c0.6,2,1.7,4,2.9,5.1c1.6,1.6,2.7,2,4.1,2c1.7,0,2.9-0.7,4-1.7
	c0.4-0.3,1.4,0.4,1.2,0.9C229.7,629.6,225.1,632.3,220.7,632.3z M219,618.2l1.3-0.2c1.9-0.2,2.7-1.6,2.7-3.6c0-1.6-0.7-2.4-1.8-2.4
	c-1.3,0-2.5,1.1-2.5,3.6C218.7,616.5,218.8,617.4,219,618.2z"/>
<path class="st1" d="M247.8,632c-0.9,0-3.6-0.3-7.8-0.3c-3,0-5.7,0.3-6.6,0.3c-0.2,0-0.3-0.1-0.3-0.9s0.1-0.9,0.3-0.9l1.4-0.3
	c0.4-0.1,0.5-0.1,0.5-0.5v-10.8c0-0.4-0.1-0.4-0.5-0.5l-1.4-0.2c-0.2,0-0.3-0.1-0.3-0.8c0-0.6,0.1-0.7,0.3-0.8
	c3.3-1.3,6.5-3.3,9.8-5.6c0.1-0.1,0.2-0.1,0.3-0.1c0.3,0,1.1,0.3,1.1,0.6c0,0.7-0.2,4-0.2,6.6c1.2-4,3.5-7,6-7
	c2.5,0,3.6,1.8,3.6,4.1c0,3.9-2.2,5.8-4.2,5.8c-0.7,0-1.3-0.2-2.2-0.9c-1-0.7-1.8-1.1-2.3-1.1c-0.2,0-0.4,0-0.5,0.1v10.5
	c0,0.4,0.1,0.5,0.5,0.5l2.6,0.3c0.2,0,0.3,0.2,0.3,0.9C248.2,631.8,248.1,632,247.8,632z"/>
<path class="st1" d="M266.3,627.2c-1.3,3.3-3.8,5.2-6.8,5.2c-3.1,0-5.3-2.5-5.3-5.7c0-2.5,0.8-3.9,2.9-5.1c1.9-1,5-1.9,8.9-2.8v-1.3
	c0-2.9-0.9-4.7-2.5-4.7c-0.4,0-0.6,0.1-0.7,0.7l-0.3,2c-0.4,2.9-2.1,4.3-4.4,4.3c-1.3,0-2.4-0.8-2.4-2.3c0-2.6,5.1-6.6,11.3-6.6
	c5.6,0,8.2,2.2,8.2,6.2v7.5c0,3.3,0.7,3.3,1.8,2.6c0.1-0.1,0.2-0.1,0.2-0.1c0.4,0,1,0.9,1,1.1c0,0.2-0.2,0.4-0.4,0.6l-0.2,0.2
	c-2.5,2.4-4.2,3.5-6.2,3.5C269,632.3,267.3,630.7,266.3,627.2z M265.9,626.5v-2.9c0-0.9-0.4-1.6-0.9-2c-0.5-0.5-1.2-0.8-1.6-0.8
	c-0.8,0-1.2,0.5-1.2,1.7c0,2.3,1.6,4.3,2.9,4.3C265.6,626.8,265.8,626.7,265.9,626.5z"/>
<path class="st1" d="M293.1,632c-0.9,0-3.6-0.3-7.8-0.3c-3,0-5.7,0.3-6.6,0.3c-0.2,0-0.3-0.1-0.3-0.9s0.1-0.9,0.3-0.9l1.4-0.3
	c0.4-0.1,0.5-0.1,0.5-0.5v-10.8c0-0.4-0.1-0.4-0.5-0.5l-1.4-0.2c-0.2,0-0.3-0.1-0.3-0.8c0-0.6,0.1-0.7,0.3-0.8
	c3.3-1.3,6.5-3.3,9.8-5.6c0.1-0.1,0.2-0.1,0.3-0.1c0.3,0,1.1,0.3,1.1,0.6c0,0.7-0.2,4-0.2,6.6c1.2-4,3.5-7,6-7
	c2.5,0,3.6,1.8,3.6,4.1c0,3.9-2.2,5.8-4.2,5.8c-0.7,0-1.3-0.2-2.2-0.9c-1-0.7-1.8-1.1-2.3-1.1c-0.2,0-0.4,0-0.5,0.1v10.5
	c0,0.4,0.1,0.5,0.5,0.5l2.6,0.3c0.2,0,0.3,0.2,0.3,0.9C293.4,631.8,293.3,632,293.1,632z"/>
<path class="st1" d="M305.9,641.1c-2.5,0-4.4-1.6-4.4-4.2s2-4.4,4.6-4.4c1.5,0,2.9,0.6,4.1,1.6l1.5-2.2l-9.3-18.4
	c-0.2-0.4-0.2-0.5-0.6-0.6l-1.3-0.2c-0.2,0-0.3-0.2-0.3-0.9c0-0.7,0.1-0.9,0.3-0.9c0.9,0,3.6,0.3,6.6,0.3c2.2,0,7.2-0.3,8.1-0.3
	c0.2,0,0.3,0.1,0.3,0.9c0,0.7-0.1,0.9-0.3,0.9l-2.4,0.2c-0.4,0-0.4,0.2-0.3,0.6l4.5,9.2l1.4-4.1c1.5-4.3,1.3-4.7,0.2-5.1l-2.4-0.8
	c-0.2-0.1-0.3-0.1-0.3-0.9c0-0.7,0.1-0.9,0.3-0.9c0.9,0,3.6,0.3,5.7,0.3s4.2-0.3,5.1-0.3c0.2,0,0.3,0.1,0.3,0.9
	c0,0.7-0.1,0.8-0.3,0.9l-1.9,0.9c-0.8,0.4-1.1,0.8-3.4,5l-6.1,11.4l-2.4,4.7C311.1,639,309.3,641.1,305.9,641.1z"/>
<path class="st1" d="M352.8,632c-0.9,0-4.2-0.3-8.4-0.3c-3.4,0-6.7,0.3-7.6,0.3c-0.2,0-0.3-0.1-0.3-0.9c0-0.7,0.1-0.9,0.3-0.9
	l1.8-0.3c0.4-0.1,0.5-0.2,0.5-0.6v-24.7c0-0.4-0.1-0.5-0.5-0.6l-1.8-0.3c-0.2,0-0.3-0.2-0.3-0.9c0-0.7,0.1-0.9,0.3-0.9
	c0.9,0,5.2,0.3,12.7,0.3h0.9c4.5,0,10.5-0.2,13.6-0.2c0.8,0,0.9,0.1,0.9,0.9c0,2.8-0.2,6.2-0.6,9.4c0,0.3-0.2,0.4-1.1,0.4
	c-0.9,0-1.1-0.1-1.2-0.4c-1.1-3.2-1.5-4.3-2.4-6.7c-0.3-0.8-0.6-0.9-1.4-1.1c-2-0.3-6.2-0.6-7.8-0.6h-0.2c-0.4,0-0.5,0.1-0.5,0.5
	v11.8h3c0.8,0,1-0.1,1.3-0.9c0.9-1.9,1.2-2.7,1.9-4.3c0.1-0.2,0.2-0.3,1.1-0.3c0.9,0,1,0.1,1,0.4c0,2.4,0,3.8,0,6.1
	c0,2.3,0,3.8,0,6.1c0,0.3-0.1,0.4-1,0.4c-0.9,0-1,0-1.1-0.3c-0.7-1.6-1.1-2.4-1.9-4.3c-0.4-0.8-0.5-0.9-1.3-0.9h-3v11
	c0,0.4,0.1,0.5,0.5,0.6l2.6,0.3c0.2,0,0.3,0.2,0.3,0.9C353.1,631.8,353,632,352.8,632z"/>
<path class="st1" d="M373.7,632.3c-6.1,0-10.8-4.2-10.8-10.6c0-6.6,4.9-10.9,12.2-10.9c6.1,0,9.4,2.9,9.4,6.9c0,0.4,0,0.8-0.1,1.1
	c0,0.2-0.2,0.3-0.4,0.3c-3.2,0.2-7.9,0.2-11.8,0.1c0.6,2,1.7,4,2.9,5.1c1.6,1.6,2.7,2,4.1,2c1.7,0,2.9-0.7,4-1.7
	c0.4-0.3,1.4,0.4,1.2,0.9C382.8,629.6,378.2,632.3,373.7,632.3z M372,618.2l1.3-0.2c1.9-0.2,2.7-1.6,2.7-3.6c0-1.6-0.7-2.4-1.8-2.4
	c-1.3,0-2.5,1.1-2.5,3.6C371.7,616.5,371.9,617.4,372,618.2z"/>
<path class="st1" d="M387.7,624.1c0.8,0,0.9,0.1,1,0.4c0.8,2,1.5,3.6,2.2,4.8c0.7,1.2,1.6,1.6,2.8,1.6c1.8,0,2.9-0.9,2.9-2.4
	c0-1.5-0.8-2.4-3.7-3.3c-5-1.5-6.2-3.8-6.2-7.3c0-4,3.6-7.3,10.3-7.3c1.5,0,3,0.2,4.5,0.4c0.8,0.1,0.9,0.2,0.9,1v4.9
	c0,0.3-0.1,0.4-0.9,0.4c-0.8,0-0.9-0.1-1-0.4c-0.6-1.5-0.9-2.2-1.3-3.2c-0.4-1-1.1-1.6-2.5-1.6c-1.4,0-2.4,0.6-2.4,2.1
	c0,1.3,0.7,2,3.4,3c4.6,1.6,6.1,4,6.1,7.1c0,4.8-3.8,8-10.3,8c-2.4,0-4.1-0.3-6.2-0.9c-0.8-0.2-0.9-0.3-0.9-1.1
	c0-1.5,0.2-3.8,0.4-5.7C386.8,624.2,386.9,624.1,387.7,624.1z"/>
<path class="st1" d="M413.2,632.3c-4.3,0-6.5-2.7-6.5-7.1V614c0-0.4,0-0.4-0.5-0.5l-1.5-0.2c-0.3,0-0.3-0.1-0.3-0.8s0.1-0.9,0.3-0.9
	c4.3-1,6.6-2.4,9.3-5.2c0.2-0.2,0.3-0.3,0.9-0.3c0.7,0,0.8,0,0.8,0.3c0.2,1.2,0.3,3,0.3,4.8c1.2,0,3.3,0,4.6,0
	c0.4,0,0.6,0.2,0.6,1.3s-0.2,1.2-0.6,1.2c-1.4,0-3.2,0-4.6,0v8.1c0,3.8,1,4.7,2.8,4.7c0.5,0,0.8-0.2,1-0.2c0.4,0,1.1,0.7,1,1.1
	C419.9,629.8,417,632.3,413.2,632.3z"/>
<path class="st1" d="M421.8,631.1c0-0.7,0.1-0.9,0.3-0.9l1.4-0.3c0.4-0.1,0.5-0.2,0.5-0.6v-10.7c0-0.4-0.1-0.4-0.5-0.5l-1.4-0.2
	c-0.2,0-0.3-0.1-0.3-0.8c0-0.6,0.1-0.7,0.3-0.8c3.3-1.3,7-3.4,10.2-5.6c0.1-0.1,0.2-0.1,0.3-0.1c0.3,0,1.1,0.3,1.1,0.6
	c0,0.7-0.3,3.5-0.3,8.5v9.7c0,0.4,0.1,0.5,0.5,0.6l1.4,0.3c0.2,0,0.3,0.2,0.3,0.9c0,0.7-0.1,0.9-0.3,0.9c-0.9,0-3.6-0.3-6.6-0.3
	s-5.7,0.3-6.6,0.3C421.9,632,421.8,631.8,421.8,631.1z M424.6,604c0-2.7,2-4.7,4.7-4.7c2.7,0,4.7,2,4.7,4.7c0,2.7-2,4.7-4.7,4.7
	C426.5,608.7,424.6,606.7,424.6,604z"/>
<path class="st1" d="M448.1,632.2c-0.9,0-1.1-0.1-1.3-0.6c-0.7-1.7-2.9-6-3.7-7.4l-5.6-10.6c-0.2-0.4-0.2-0.5-0.6-0.6l-1.3-0.2
	c-0.2,0-0.3-0.2-0.3-0.9c0-0.7,0.1-0.9,0.3-0.9c0.9,0,3.6,0.3,6.6,0.3c2.2,0,7.2-0.3,8.1-0.3c0.2,0,0.3,0.1,0.3,0.9
	c0,0.7-0.1,0.9-0.3,0.9l-2.4,0.2c-0.4,0-0.5,0.2-0.3,0.6l4.5,8.6l1.3-3.5c1.6-4.3,1.5-4.7,0.3-5.1l-2.4-0.8
	c-0.2-0.1-0.3-0.1-0.3-0.9c0-0.7,0.1-0.9,0.3-0.9c0.9,0,3.6,0.3,5.7,0.3s4.2-0.3,5.1-0.3c0.2,0,0.3,0.1,0.3,0.9
	c0,0.7-0.1,0.8-0.3,0.9l-1.7,0.9c-0.8,0.4-1.1,0.9-3.6,5l-3.4,5.6c-0.8,1.3-3.3,5.7-4.1,7.4C449.1,632.1,449,632.2,448.1,632.2z"/>
<path class="st1" d="M473.1,627.2c-1.3,3.3-3.8,5.2-6.8,5.2c-3.1,0-5.3-2.5-5.3-5.7c0-2.5,0.8-3.9,2.9-5.1c1.9-1,5-1.9,8.9-2.8v-1.3
	c0-2.9-0.9-4.7-2.5-4.7c-0.4,0-0.6,0.1-0.7,0.7l-0.3,2c-0.4,2.9-2.1,4.3-4.4,4.3c-1.3,0-2.4-0.8-2.4-2.3c0-2.6,5.1-6.6,11.3-6.6
	c5.6,0,8.2,2.2,8.2,6.2v7.5c0,3.3,0.7,3.3,1.8,2.6c0.1-0.1,0.2-0.1,0.2-0.1c0.4,0,1,0.9,1,1.1c0,0.2-0.2,0.4-0.4,0.6l-0.2,0.2
	c-2.5,2.4-4.2,3.5-6.2,3.5C475.8,632.3,474.1,630.7,473.1,627.2z M472.7,626.5v-2.9c0-0.9-0.4-1.6-0.9-2c-0.5-0.5-1.2-0.8-1.6-0.8
	c-0.8,0-1.2,0.5-1.2,1.7c0,2.3,1.6,4.3,2.9,4.3C472.4,626.8,472.6,626.7,472.7,626.5z"/>
<path class="st1" d="M485.2,631.1c0-0.7,0.1-0.9,0.3-0.9l1.4-0.3c0.4-0.1,0.5-0.2,0.5-0.6v-21c0-0.4-0.1-0.4-0.5-0.5l-1.4-0.2
	c-0.2,0-0.3-0.1-0.3-0.8c0-0.6,0.1-0.7,0.3-0.8c3.3-1.3,7-3.4,10.2-5.6c0.1-0.1,0.2-0.1,0.3-0.1c0.3,0,1.1,0.3,1.1,0.6
	c0,0.7-0.3,3.5-0.3,8.5v20c0,0.4,0.1,0.5,0.5,0.6l1.4,0.3c0.2,0,0.3,0.2,0.3,0.9c0,0.7-0.1,0.9-0.3,0.9c-0.9,0-3.6-0.3-6.6-0.3
	c-3,0-5.7,0.3-6.6,0.3C485.2,632,485.2,631.8,485.2,631.1z"/>
<g>
	<path class="st0" d="M610.4,437.9l-280.6-0.4l-0.3-324.2c93.3,13.8,190.4,4.2,280.7-31L610.4,437.9z"/>
</g>
<path class="st2" d="M326.4,96v337.3c98,2.9,193.3,0.3,265.5-29.5l1.6-364.5C500,70.3,410.2,91.4,326.4,96z"/>
<path class="st0" d="M383.7,436.6c-19.1,0-38.3-0.4-57.3-1l-2.2-0.1V93.9l2.1-0.1c1.1-0.1,2.2,0.1,3.2,0
	c76.6-4.6,162.7-23.3,263.2-56.7l3-1l-1.6,369.2l-1.4,0.6C533.1,430.5,459,436.6,383.7,436.6z M328.7,431.1
	c155.5,4.5,219.4-11.9,260.9-28.9l1.5-359.8c-100.1,33-186,51.3-262.5,55.7V431.1z"/>
<g>
	<path class="st1" d="M39.7,94l0,180L330.5,298l225.1-43.9l0.1-246c-47.9,31.3-130.9,59.7-226.1,85.6L39.7,94z"/>
</g>
<g>
	<path class="st2" d="M96.8,163.4c-11.5-16.1-36.2-21.8-57.1-13.2c0,0-0.2,149-0.2,149l229.7,5.2l221.2-40.1
		c-6.7-25.3-40.4-41.5-71-33.1c-11.3-24.3-51-23.6-61.2-9.8c-16.2-39.4-77.7-45.4-99.5-10.6c-2.5-31-45.4-42.9-66.5-23.2
		C200.2,125.7,115.1,120.8,96.8,163.4z"/>
</g>
<g>
	<path class="st3" d="M140.4,220c28.2-7.2,47.1,3.9,56.3,27.1c58.8-10.6,77.8,22.8,83,71.4l-25-8.4c-13.5-23.8-32.1-45.6-66.8-40.8
		C183.4,236.6,166.9,224.3,140.4,220z"/>
</g>
<path class="st4" d="M552.9,245c-169.8,6.2-280.5,56.7-348.5,159l-4.1,6.1l355.3-41.6V244.9L552.9,245z"/>
<g>
	<path class="st0" d="M39.4,263.8l0,173.5l290.3,0c79.3-0.2,153.8-19.8,226.1-60.3l0-82.1C383.8,301.8,233.9,237.3,39.4,263.8z"/>
</g>
<polygon class="st2" points="331.5,437.5 327,437.5 327,93.8 329.7,93.8 331.5,93.2 "/>
<g>
</g>
<g>
</g>
<g>
</g>
<g>
</g>
<g>
</g>
<g>
</g>
</svg>
