<?xml version="1.0" encoding="UTF-8"?><svg id="uuid-ec7c00cf-0038-4563-82a7-54cdee0c49e1" xmlns="http://www.w3.org/2000/svg" viewBox="0 0 256.652 83.4"><defs><style>.uuid-e794a278-e7ca-487b-a42a-5a4ed372b640{fill:none;}.uuid-e794a278-e7ca-487b-a42a-5a4ed372b640,.uuid-065e815e-6d86-40d7-937e-e914ffc3835a,.uuid-ee9bb136-7c79-4022-b7d8-6c2a04473468{stroke-width:0px;}.uuid-065e815e-6d86-40d7-937e-e914ffc3835a{fill:#8e1a1c;}.uuid-ee9bb136-7c79-4022-b7d8-6c2a04473468{fill:#1e1e1e;}</style></defs><path class="uuid-065e815e-6d86-40d7-937e-e914ffc3835a" d="M48.683,35.314c.762-9.923,6.784-15.35,6.784-15.35,0,0-.17-.594-1.187-1.697-1.016-1.102-2.206.592-5.512,6.784C50.463,4.021,24.09-1.406,17.814.29c0,.17,7.887,4.156,10.855,16.112,1.526,4.92,4.325,7.717,11.703,8.311,5.088.931,6.785,4.239,6.785,4.239,0,0-.765,2.883-.679,6.107C25.192,19.54,4.923,16.912,4.923,16.912c0,0,1.697,1.865,2.545,3.732,23.066,4.07,39.688,19.673,39.688,19.673,0,0,16.028-16.367,39.688-20.183.425-1.697,1.697-3.054,1.697-3.054,0,0-20.537,1.094-39.858,18.234ZM24.005,1.816s9.498-.256,15.519,4.749c.085.084,6.107,3.732,6.192,17.639C39.608,5.717,24.005,1.816,24.005,1.816Z"/><path class="uuid-e794a278-e7ca-487b-a42a-5a4ed372b640" d="M37.53,44.875c1.781-2.418,4.389-2.418,4.389-2.418,0,0-16.472-4.578-16.728,14.311.998,24.911,21.612,24.519,21.612,24.519l-.242-35.968s-2.861-3.625-9.032-.445Z"/><path class="uuid-e794a278-e7ca-487b-a42a-5a4ed372b640" d="M20.103,48.119c5.852-12.974,19.336-8.396,19.336-8.396,0,0-19.253-12.042-33.456-12.976,11.661,18.744,7.421,51.052,7.421,51.052,0,0,6.783-4.408,13.908-2.033-7.463-7.803-7.971-17.344-7.971-17.344,0,0-.679-5.131.762-10.303Z"/><path class="uuid-065e815e-6d86-40d7-937e-e914ffc3835a" d="M94.138,22.423s-20.354-.89-47.066,21.499C19.978,21.024.212,22.423,0,22.338c17.851,29.768,12.726,56.141,12.853,56.311.382-.171,6.489-3.946,17.046-.255,9.795,4.578,17.174,4.071,17.174,4.071,0,0,7.631.254,16.536-3.691,10.94-3.179,17.936.13,18.063,0-5.851-27.857,12.467-56.352,12.467-56.352ZM13.404,77.799s4.24-32.308-7.421-51.052c14.204.934,33.456,12.976,33.456,12.976,0,0-13.484-4.578-19.336,8.396-1.441,5.172-.762,10.303-.762,10.303,0,0,.507,9.54,7.971,17.344-7.125-2.375-13.908,2.033-13.908,2.033ZM46.831,82.005c-.019-.459-.027-.717-.027-.717,0,0-20.614.392-21.612-24.519.255-18.889,16.728-14.311,16.728-14.311,0,0-2.608,0-4.389,2.418,6.171-3.181,9.032.445,9.032.445l.242,35.968s21.396-.393,22.309-23.732c-.543-20.631-17.947-15.08-17.947-15.08,0,0,2.814.043,4.641,2.379-4.663-2.841-8.608.38-8.608.38-.297-2.797,19.717-14.755,26.205,4.157,4.613,26.4-18.178,33.207-26.573,32.614Z"/><path class="uuid-ee9bb136-7c79-4022-b7d8-6c2a04473468" d="M123.38,27.132c-.201.749-.349,1.519-.443,2.308-.096.79-.143,1.651-.143,2.586,0,3.724.229,7.13.687,10.219.458,3.09,1.134,5.765,2.028,8.023-.536.3-1.039.521-1.509.666-.469.144-.927.216-1.374.216-.469,0-.838-.104-1.105-.312-.269-.207-.464-.541-.587-1.003-.067-.276-.19-2.383-.368-6.319-.18-3.937-.431-7.778-.755-11.525-2.335,4.542-4.792,9.517-7.373,14.923-.469,1.003-.793,1.684-.972,2.04-.212.438-.422.75-.629.934-.206.185-.443.277-.712.277-.536,0-1.089-.634-1.659-1.902-.134-.288-.24-.513-.318-.675-1.81-3.792-3.337-6.953-4.583-9.484-1.245-2.53-2.271-4.544-3.075-6.043-.189,2.917-.371,6.493-.544,10.729-.174,4.236-.372,6.683-.595,7.34-.112.357-.279.617-.503.778-.224.162-.525.242-.905.242-.29,0-.645-.072-1.063-.216-.419-.145-.908-.366-1.467-.666.871-2.248,1.536-4.922,1.994-8.023.458-3.101.688-6.542.688-10.323,0-.91-.048-1.755-.143-2.533-.096-.777-.232-1.53-.411-2.256.369-.335.707-.576,1.015-.727.307-.149.634-.225.979-.225,1.084,0,2.821,2.554,5.212,7.66.905,1.925,1.637,3.458,2.195,4.6,1.262,2.582,2.125,4.288,2.589,5.118s.768,1.245.913,1.245c.302,0,1.827-2.882,4.575-8.646,1.14-2.374,2.05-4.271,2.731-5.688.737-1.545,1.388-2.646,1.952-3.303.563-.657,1.125-.985,1.684-.985.324,0,.64.075.947.225.307.15.656.392,1.047.727Z"/><path class="uuid-ee9bb136-7c79-4022-b7d8-6c2a04473468" d="M142.333,50.234c-.436.288-.832.507-1.189.656-.358.15-.671.226-.938.226-.48,0-.83-.153-1.048-.459-.218-.305-.343-.798-.377-1.479-.838.738-1.667,1.286-2.488,1.644-.821.356-1.656.535-2.505.535-1.676,0-3.028-.483-4.056-1.452-1.028-.968-1.542-2.242-1.542-3.821,0-1.787.707-3.219,2.121-4.297,1.413-1.078,3.315-1.617,5.706-1.617.391,0,.807.015,1.248.044.441.028.913.072,1.416.129.022-.104.036-.21.042-.319s.009-.239.009-.39c0-1.198-.327-2.111-.98-2.74-.653-.628-1.601-.942-2.841-.942-1.027,0-1.874.176-2.538.527-.665.352-1.204.896-1.617,1.634-.402-.104-.707-.282-.914-.536-.207-.253-.311-.582-.311-.985,0-.841.517-1.536,1.55-2.084,1.033-.547,2.383-.821,4.047-.821,2.045,0,3.578.511,4.601,1.53,1.021,1.021,1.533,2.545,1.533,4.574,0,.38-.017,1.043-.051,1.988-.033.945-.05,1.706-.05,2.282,0,1.591.092,2.871.276,3.839.185.969.483,1.747.896,2.335ZM138.647,42.539c-.514-.08-.975-.141-1.383-.182-.407-.04-.757-.061-1.047-.061-1.732,0-3.039.297-3.922.891-.882.594-1.323,1.479-1.323,2.654,0,.945.307,1.689.922,2.23.614.542,1.463.812,2.547.812.815,0,1.578-.158,2.287-.475.71-.317,1.36-.793,1.952-1.427-.022-.576-.036-1.047-.042-1.409-.006-.363-.008-.712-.008-1.047,0-.207.005-.532.017-.977.011-.443.011-.781,0-1.012Z"/><path class="uuid-ee9bb136-7c79-4022-b7d8-6c2a04473468" d="M149.371,37.87c-.022,1.269-.053,2.632-.092,4.09s-.059,2.279-.059,2.464c0,1.499.067,2.715.201,3.648s.346,1.712.637,2.335c-.47.253-.899.44-1.29.562-.392.121-.777.182-1.156.182-.515,0-.866-.149-1.056-.449-.19-.3-.285-.928-.285-1.885,0-.208.059-1.277.176-3.208s.176-3.755.176-5.473c0-1.625-.062-2.882-.185-3.77s-.324-1.683-.603-2.387c.245-.08.494-.144.745-.189.252-.046.494-.069.729-.069.592,0,1.061.17,1.407.51.347.341.542.821.587,1.444.838-.623,1.726-1.104,2.664-1.444.938-.34,1.865-.51,2.782-.51,1.116,0,2.119.251,3.008.752.888.502,1.566,1.196,2.036,2.084.323.611.556,1.322.695,2.135.14.813.209,2.05.209,3.71,0,.173-.008.582-.025,1.228-.017.646-.024,1.204-.024,1.677,0,1.188.075,2.208.226,3.061.151.854.377,1.521.679,2.006-.525.266-.98.461-1.365.588-.386.127-.735.19-1.048.19-.525,0-.891-.141-1.098-.424-.206-.282-.31-.815-.31-1.6,0-.473.036-1.489.108-3.052.073-1.562.109-2.891.109-3.985,0-2.087-.308-3.6-.922-4.539s-1.603-1.409-2.966-1.409c-.692,0-1.441.146-2.245.44-.805.294-1.62.724-2.447,1.288Z"/><path class="uuid-ee9bb136-7c79-4022-b7d8-6c2a04473468" d="M169.278,50.407c-.436.253-.854.44-1.257.562s-.799.182-1.189.182c-.514,0-.866-.141-1.056-.424-.19-.282-.285-.885-.285-1.807,0-.219.075-1.92.227-5.102.15-3.182.226-6.247.226-9.198,0-2.836-.062-4.756-.184-5.759-.123-1.003-.335-1.798-.637-2.386.491-.266.93-.455,1.315-.57.385-.115.745-.174,1.08-.174.515,0,.872.159,1.073.476.201.317.302.926.302,1.824,0,.127-.048,1.023-.143,2.689-.096,1.666-.159,3.294-.193,4.885.883-.623,1.752-1.092,2.606-1.409s1.689-.476,2.505-.476c1.865,0,3.32.597,4.365,1.789,1.045,1.193,1.567,2.856,1.567,4.989,0,.403-.018,1.092-.051,2.066-.033.974-.05,1.749-.05,2.325,0,1.557.063,2.729.192,3.52.128.789.349,1.443.662,1.962-.515.266-.967.461-1.357.588-.392.127-.737.19-1.039.19-.525,0-.886-.136-1.081-.406s-.293-.81-.293-1.617c0-.529.033-1.521.101-2.974.066-1.453.101-2.646.101-3.579,0-2.341-.279-4.003-.838-4.989-.559-.985-1.491-1.479-2.799-1.479-.704,0-1.41.133-2.12.398-.709.265-1.533.709-2.472,1.331-.044.923-.075,1.879-.092,2.87-.017.992-.025,2.006-.025,3.044,0,1.913.064,3.349.193,4.306.128.956.343,1.74.645,2.352Z"/><path class="uuid-ee9bb136-7c79-4022-b7d8-6c2a04473468" d="M197.615,50.234c-.436.288-.832.507-1.189.656-.358.15-.671.226-.938.226-.48,0-.83-.153-1.048-.459-.218-.305-.343-.798-.377-1.479-.838.738-1.667,1.286-2.488,1.644-.821.356-1.656.535-2.505.535-1.676,0-3.028-.483-4.056-1.452-1.028-.968-1.542-2.242-1.542-3.821,0-1.787.707-3.219,2.12-4.297s3.315-1.617,5.706-1.617c.391,0,.807.015,1.248.044.441.028.913.072,1.416.129.022-.104.036-.21.042-.319s.009-.239.009-.39c0-1.198-.327-2.111-.98-2.74-.653-.628-1.601-.942-2.841-.942-1.027,0-1.874.176-2.538.527-.665.352-1.204.896-1.617,1.634-.402-.104-.707-.282-.913-.536-.207-.253-.311-.582-.311-.985,0-.841.517-1.536,1.55-2.084,1.033-.547,2.383-.821,4.047-.821,2.045,0,3.578.511,4.601,1.53,1.021,1.021,1.533,2.545,1.533,4.574,0,.38-.017,1.043-.051,1.988-.033.945-.05,1.706-.05,2.282,0,1.591.092,2.871.276,3.839.185.969.483,1.747.896,2.335ZM193.929,42.539c-.514-.08-.975-.141-1.383-.182-.407-.04-.757-.061-1.047-.061-1.732,0-3.039.297-3.922.891-.882.594-1.323,1.479-1.323,2.654,0,.945.307,1.689.922,2.23.614.542,1.463.812,2.547.812.815,0,1.578-.158,2.287-.475.71-.317,1.36-.793,1.952-1.427-.022-.576-.036-1.047-.042-1.409-.006-.363-.008-.712-.008-1.047,0-.207.005-.532.017-.977.011-.443.011-.781,0-1.012Z"/><path class="uuid-ee9bb136-7c79-4022-b7d8-6c2a04473468" d="M202.626,37.282c-.19,0-.452.009-.787.026-.336.018-.554.026-.654.026-.458,0-.779-.066-.963-.199-.185-.133-.277-.36-.277-.684,0-.149.025-.325.076-.527.05-.201.131-.429.243-.683.089,0,.239.006.452.018.212.012.38.017.503.017.29,0,.754-.017,1.391-.052.078,0,.14-.005.185-.017,0-.127.005-.317.017-.571.011-.253.017-.438.017-.553,0-.899-.056-1.692-.168-2.378-.111-.686-.284-1.288-.52-1.807.48-.242.911-.427,1.291-.554.379-.127.703-.19.972-.19.458,0,.79.147.997.441.206.294.31.775.31,1.443,0,.289-.05,1.193-.15,2.715-.033.565-.062,1.015-.084,1.349.647-.092,1.231-.161,1.751-.207s.986-.069,1.399-.069c.369,0,.634.069.796.208.162.138.243.362.243.674,0,.173-.05.389-.15.648s-.246.551-.437.873c-.29-.069-.598-.121-.921-.155-.324-.034-.716-.052-1.173-.052-.079,0-.313.009-.704.025-.392.018-.727.032-1.006.044-.101,1.798-.173,3.279-.218,4.443-.045,1.165-.066,2.115-.066,2.854,0,1.603.136,2.724.41,3.363.273.64.734.959,1.383.959.178,0,.365-.034.561-.104s.395-.179.596-.328c.101.23.173.432.218.604.044.174.066.329.066.468,0,.564-.226,1.028-.679,1.392-.452.363-1.041.545-1.768.545-1.206,0-2.104-.412-2.689-1.236-.587-.824-.88-2.09-.88-3.796,0-.484.056-1.767.168-3.848.111-2.08.195-3.789.251-5.127Z"/><path class="uuid-ee9bb136-7c79-4022-b7d8-6c2a04473468" d="M213.987,37.282c-.19,0-.452.009-.787.026-.336.018-.554.026-.654.026-.458,0-.779-.066-.963-.199-.185-.133-.277-.36-.277-.684,0-.149.025-.325.076-.527.05-.201.131-.429.243-.683.089,0,.239.006.452.018.212.012.38.017.503.017.29,0,.754-.017,1.391-.052.078,0,.14-.005.185-.017,0-.127.005-.317.017-.571.011-.253.017-.438.017-.553,0-.899-.056-1.692-.168-2.378-.111-.686-.284-1.288-.52-1.807.48-.242.911-.427,1.291-.554.379-.127.703-.19.972-.19.458,0,.79.147.997.441.206.294.31.775.31,1.443,0,.289-.05,1.193-.15,2.715-.033.565-.062,1.015-.084,1.349.647-.092,1.231-.161,1.751-.207s.986-.069,1.399-.069c.369,0,.634.069.796.208.162.138.243.362.243.674,0,.173-.05.389-.15.648s-.246.551-.437.873c-.29-.069-.598-.121-.921-.155-.324-.034-.716-.052-1.173-.052-.079,0-.313.009-.704.025-.392.018-.727.032-1.006.044-.101,1.798-.173,3.279-.218,4.443-.045,1.165-.066,2.115-.066,2.854,0,1.603.136,2.724.41,3.363.273.64.734.959,1.383.959.178,0,.365-.034.561-.104s.395-.179.596-.328c.101.23.173.432.218.604.044.174.066.329.066.468,0,.564-.226,1.028-.679,1.392-.452.363-1.041.545-1.768.545-1.206,0-2.104-.412-2.689-1.236-.587-.824-.88-2.09-.88-3.796,0-.484.056-1.767.168-3.848.111-2.08.195-3.789.251-5.127Z"/><path class="uuid-ee9bb136-7c79-4022-b7d8-6c2a04473468" d="M237.431,50.234c-.436.288-.832.507-1.189.656-.358.15-.671.226-.938.226-.48,0-.83-.153-1.048-.459-.218-.305-.343-.798-.377-1.479-.838.738-1.667,1.286-2.488,1.644-.821.356-1.656.535-2.505.535-1.676,0-3.028-.483-4.056-1.452-1.028-.968-1.542-2.242-1.542-3.821,0-1.787.707-3.219,2.12-4.297s3.315-1.617,5.706-1.617c.391,0,.807.015,1.248.044.441.028.913.072,1.416.129.022-.104.036-.21.042-.319s.009-.239.009-.39c0-1.198-.327-2.111-.98-2.74-.653-.628-1.601-.942-2.841-.942-1.027,0-1.874.176-2.538.527-.665.352-1.204.896-1.617,1.634-.402-.104-.707-.282-.913-.536-.207-.253-.311-.582-.311-.985,0-.841.517-1.536,1.55-2.084,1.033-.547,2.383-.821,4.047-.821,2.045,0,3.578.511,4.601,1.53,1.021,1.021,1.533,2.545,1.533,4.574,0,.38-.017,1.043-.051,1.988-.033.945-.05,1.706-.05,2.282,0,1.591.092,2.871.276,3.839.185.969.483,1.747.896,2.335ZM233.744,42.539c-.514-.08-.975-.141-1.383-.182-.407-.04-.757-.061-1.047-.061-1.732,0-3.039.297-3.922.891-.882.594-1.323,1.479-1.323,2.654,0,.945.307,1.689.922,2.23.614.542,1.463.812,2.547.812.815,0,1.578-.158,2.287-.475.71-.317,1.36-.793,1.952-1.427-.022-.576-.036-1.047-.042-1.409-.006-.363-.008-.712-.008-1.047,0-.207.005-.532.017-.977.011-.443.011-.781,0-1.012Z"/><path class="uuid-ee9bb136-7c79-4022-b7d8-6c2a04473468" d="M244.469,37.87c-.022,1.269-.053,2.632-.092,4.09s-.059,2.279-.059,2.464c0,1.499.067,2.715.201,3.648s.346,1.712.637,2.335c-.47.253-.899.44-1.29.562-.392.121-.777.182-1.156.182-.515,0-.866-.149-1.056-.449-.19-.3-.285-.928-.285-1.885,0-.208.059-1.277.176-3.208s.176-3.755.176-5.473c0-1.625-.062-2.882-.185-3.77s-.324-1.683-.603-2.387c.245-.08.494-.144.745-.189.252-.046.494-.069.729-.069.592,0,1.061.17,1.407.51.347.341.542.821.587,1.444.838-.623,1.726-1.104,2.664-1.444.938-.34,1.865-.51,2.782-.51,1.116,0,2.119.251,3.008.752.888.502,1.566,1.196,2.036,2.084.323.611.556,1.322.695,2.135.14.813.209,2.05.209,3.71,0,.173-.008.582-.025,1.228-.017.646-.024,1.204-.024,1.677,0,1.188.075,2.208.226,3.061.151.854.377,1.521.679,2.006-.525.266-.98.461-1.365.588-.386.127-.735.19-1.048.19-.525,0-.891-.141-1.098-.424-.206-.282-.31-.815-.31-1.6,0-.473.036-1.489.108-3.052.073-1.562.109-2.891.109-3.985,0-2.087-.308-3.6-.922-4.539s-1.603-1.409-2.966-1.409c-.692,0-1.441.146-2.245.44-.805.294-1.62.724-2.447,1.288Z"/><path class="uuid-ee9bb136-7c79-4022-b7d8-6c2a04473468" d="M100.034,76.86c-.429.239-.826.422-1.192.546-.366.125-.701.187-1.005.187-.482,0-.817-.138-1.005-.414-.188-.277-.281-.807-.281-1.591,0-.479.047-1.721.141-3.726s.141-3.777.141-5.317c0-2.553-.064-4.53-.194-5.932-.13-1.4-.333-2.341-.609-2.82h.576c.554,0,1.404-.046,2.553-.139,1.147-.092,2.017-.138,2.605-.138,2.037,0,3.632.505,4.784,1.514,1.152,1.01,1.729,2.404,1.729,4.183,0,2.056-.684,3.729-2.05,5.02-1.367,1.29-3.145,1.936-5.333,1.936-.34,0-.648-.007-.925-.021-.277-.014-.545-.039-.804-.076.009,1.751.084,3.176.228,4.272.143,1.097.357,1.936.643,2.517ZM99.19,68.024c.25.037.512.065.784.083.272.019.569.028.891.028,1.474,0,2.629-.403,3.464-1.21s1.253-1.924,1.253-3.354c0-1.29-.366-2.271-1.099-2.944s-1.805-1.01-3.216-1.01c-.277,0-.565.017-.864.049-.3.032-.633.09-.999.173-.071,1.271-.125,2.5-.16,3.685-.036,1.185-.054,2.334-.054,3.449v1.051Z"/><path class="uuid-ee9bb136-7c79-4022-b7d8-6c2a04473468" d="M118.927,75.56c-.607.766-1.259,1.327-1.956,1.687-.696.359-1.482.54-2.358.54-1.474,0-2.602-.459-3.383-1.376-.782-.917-1.173-2.242-1.173-3.976,0-.368.022-1.049.067-2.039.044-.991.066-1.8.066-2.427,0-.839-.049-1.542-.147-2.108-.099-.567-.259-1.062-.482-1.486.402-.203.753-.353,1.052-.45.3-.097.552-.145.758-.145.42,0,.708.108.864.324.156.217.234.616.234,1.196,0,.461-.036,1.344-.107,2.648-.071,1.304-.107,2.376-.107,3.215,0,1.761.206,2.979.616,3.656.411.678,1.121,1.017,2.131,1.017.741,0,1.427-.185,2.057-.553.63-.369,1.244-.949,1.843-1.742.035-.59.062-1.21.08-1.86.019-.649.027-1.361.027-2.136,0-1.254-.061-2.302-.181-3.146-.121-.844-.311-1.51-.57-1.998.402-.212.76-.369,1.072-.471.312-.101.599-.151.857-.151.394,0,.666.129.817.387.152.259.229.816.229,1.673,0,.406-.025,1.298-.074,2.676s-.073,2.556-.073,3.533c0,1.364.056,2.417.167,3.159s.297,1.32.557,1.735c-.447.221-.817.38-1.112.477s-.55.146-.764.146c-.385,0-.648-.136-.791-.408-.143-.271-.215-.804-.215-1.597Z"/><path class="uuid-ee9bb136-7c79-4022-b7d8-6c2a04473468" d="M125.01,76.458c.116-1.346.201-2.89.255-4.632s.081-3.793.081-6.153c0-2.783-.054-4.647-.161-5.593-.107-.944-.295-1.675-.562-2.191.438-.221.812-.38,1.125-.477s.59-.146.831-.146c.402,0,.681.124.837.373s.235.729.235,1.438c0,.138-.027.901-.081,2.288-.054,1.388-.089,2.727-.106,4.017.759-.525,1.493-.915,2.204-1.168.71-.254,1.418-.381,2.125-.381,1.67,0,3.053.591,4.146,1.771,1.095,1.18,1.642,2.682,1.642,4.507,0,2.176-.712,3.989-2.137,5.441-1.426,1.452-3.219,2.178-5.381,2.178-.768,0-1.568-.104-2.399-.312-.83-.207-1.715-.527-2.653-.961ZM127.464,74.938c.544.304,1.067.53,1.567.678s.992.221,1.474.221c1.394,0,2.542-.514,3.444-1.542.901-1.027,1.354-2.343,1.354-3.947,0-1.401-.376-2.517-1.126-3.346-.75-.83-1.756-1.245-3.015-1.245-.555,0-1.135.116-1.743.346-.607.23-1.265.586-1.97,1.065v.083c-.036,1.724-.054,3.01-.054,3.857,0,.442.004.929.014,1.459.009.53.026,1.32.054,2.371Z"/><path class="uuid-ee9bb136-7c79-4022-b7d8-6c2a04473468" d="M143.812,76.943c-.375.212-.726.368-1.052.47s-.632.152-.918.152c-.429,0-.724-.127-.885-.38-.16-.254-.241-.73-.241-1.432,0-.875.05-2.542.147-4.998.099-2.457.147-4.482.147-6.077,0-1.973-.058-3.468-.174-4.486s-.312-1.796-.59-2.33c.357-.212.701-.369,1.032-.471.33-.101.643-.151.938-.151.447,0,.751.115.911.346.161.23.241.7.241,1.41,0,.59-.049,2.139-.147,4.646-.098,2.508-.147,4.715-.147,6.623,0,2.047.056,3.54.168,4.48.111.939.302,1.673.569,2.198Z"/><path class="uuid-ee9bb136-7c79-4022-b7d8-6c2a04473468" d="M150.913,76.943c-.375.212-.732.368-1.072.47-.339.102-.665.152-.978.152-.438,0-.735-.122-.892-.366s-.234-.735-.234-1.473c0-.424.04-1.373.121-2.849.08-1.475.12-2.742.12-3.802,0-1.152-.054-2.088-.161-2.808-.106-.719-.281-1.332-.522-1.839.331-.202.67-.356,1.019-.463s.692-.159,1.032-.159c.41,0,.691.104.844.312.152.207.228.592.228,1.154,0,.147-.04.954-.12,2.42-.08,1.465-.121,2.857-.121,4.176,0,1.235.061,2.258.182,3.069.12.812.306,1.479.556,2.005ZM150.806,59.59c0,.525-.179.963-.536,1.313s-.809.525-1.353.525c-.474,0-.85-.139-1.126-.415-.277-.276-.415-.649-.415-1.12,0-.516.178-.956.535-1.32s.791-.546,1.3-.546c.465,0,.847.147,1.146.442.299.295.448.668.448,1.12Z"/><path class="uuid-ee9bb136-7c79-4022-b7d8-6c2a04473468" d="M162.799,66.407c-.349-.222-.688-.38-1.019-.478-.331-.097-.697-.145-1.099-.145-1.358,0-2.488.502-3.391,1.507s-1.354,2.277-1.354,3.816c0,1.392.4,2.496,1.199,3.312.8.815,1.883,1.224,3.25,1.224.59,0,1.125-.083,1.607-.249s.934-.424,1.354-.774c.161.23.284.452.369.664.084.212.127.415.127.608,0,.58-.326,1.042-.979,1.383s-1.536.512-2.653.512c-1.956,0-3.546-.579-4.77-1.735-1.225-1.157-1.836-2.662-1.836-4.515,0-2.249.741-4.139,2.225-5.669,1.482-1.53,3.282-2.296,5.399-2.296.777,0,1.355.116,1.735.346.38.23.569.581.569,1.051,0,.24-.058.473-.174.698-.116.227-.304.473-.562.74Z"/><path class="uuid-ee9bb136-7c79-4022-b7d8-6c2a04473468" d="M177.444,75.27c.375.036.748.064,1.118.083.371.019.739.027,1.105.027,1.287,0,2.301-.06,3.042-.18s1.354-.313,1.836-.581c.179.313.311.615.396.906.085.29.127.583.127.878,0,.442-.156.751-.469.926-.312.176-.897.263-1.756.263-.304,0-.88-.014-1.729-.041s-1.541-.042-2.076-.042c-.76,0-1.523.019-2.292.056s-1.157.056-1.166.056c-.304,0-.518-.074-.643-.222s-.188-.405-.188-.774c0-.185.021-.663.066-1.438.161-2.922.241-5.697.241-8.324,0-2.47-.066-4.364-.2-5.683-.135-1.318-.354-2.268-.657-2.849.411-.23.802-.405,1.173-.525.37-.119.73-.18,1.078-.18.501,0,.842.132,1.025.395.183.263.274.804.274,1.624,0,.24-.022.876-.066,1.908-.161,3.955-.241,7.688-.241,11.2v2.517Z"/><path class="uuid-ee9bb136-7c79-4022-b7d8-6c2a04473468" d="M190.308,76.943c-.375.212-.732.368-1.072.47-.339.102-.665.152-.978.152-.438,0-.735-.122-.892-.366s-.234-.735-.234-1.473c0-.424.04-1.373.121-2.849.08-1.475.12-2.742.12-3.802,0-1.152-.054-2.088-.161-2.808-.106-.719-.281-1.332-.522-1.839.331-.202.67-.356,1.019-.463s.692-.159,1.032-.159c.41,0,.691.104.844.312.152.207.228.592.228,1.154,0,.147-.04.954-.12,2.42-.08,1.465-.121,2.857-.121,4.176,0,1.235.061,2.258.182,3.069.12.812.306,1.479.556,2.005ZM190.2,59.59c0,.525-.179.963-.536,1.313s-.809.525-1.353.525c-.474,0-.85-.139-1.126-.415-.277-.276-.415-.649-.415-1.12,0-.516.178-.956.535-1.32s.791-.546,1.3-.546c.465,0,.847.147,1.146.442.299.295.448.668.448,1.12Z"/><path class="uuid-ee9bb136-7c79-4022-b7d8-6c2a04473468" d="M193.737,76.458c.116-1.346.201-2.89.255-4.632s.081-3.793.081-6.153c0-2.783-.054-4.647-.161-5.593-.107-.944-.295-1.675-.562-2.191.438-.221.812-.38,1.125-.477s.59-.146.831-.146c.402,0,.681.124.837.373s.235.729.235,1.438c0,.138-.027.901-.081,2.288-.054,1.388-.089,2.727-.106,4.017.759-.525,1.493-.915,2.204-1.168.71-.254,1.418-.381,2.124-.381,1.67,0,3.053.591,4.146,1.771,1.095,1.18,1.642,2.682,1.642,4.507,0,2.176-.712,3.989-2.137,5.441-1.426,1.452-3.219,2.178-5.381,2.178-.768,0-1.567-.104-2.398-.312-.83-.207-1.715-.527-2.653-.961ZM196.191,74.938c.544.304,1.067.53,1.567.678s.991.221,1.474.221c1.394,0,2.542-.514,3.444-1.542.901-1.027,1.354-2.343,1.354-3.947,0-1.401-.376-2.517-1.126-3.346-.75-.83-1.756-1.245-3.015-1.245-.555,0-1.135.116-1.742.346-.607.23-1.265.586-1.97,1.065v.083c-.036,1.724-.054,3.01-.054,3.857,0,.442.004.929.014,1.459.009.53.026,1.32.054,2.371Z"/><path class="uuid-ee9bb136-7c79-4022-b7d8-6c2a04473468" d="M211.44,66.683c.67-.968,1.309-1.688,1.916-2.164.607-.475,1.206-.712,1.796-.712.5,0,.927.164,1.279.491s.529.73.529,1.21c0,.313-.101.62-.302.919-.2.3-.502.597-.904.892-.143-.405-.319-.705-.529-.898s-.462-.29-.757-.29c-.438,0-.897.224-1.38.67-.482.447-.956,1.091-1.421,1.93-.045.414-.08.836-.107,1.265-.026.429-.04.846-.04,1.251,0,1.383.074,2.535.222,3.457s.377,1.678.689,2.268c-.357.193-.708.341-1.052.442s-.681.152-1.012.152c-.438,0-.739-.112-.904-.339-.165-.226-.248-.68-.248-1.362,0-.248.047-1.205.141-2.868.094-1.664.141-3.21.141-4.64,0-1.17-.045-2.069-.134-2.696-.089-.626-.236-1.18-.442-1.659.179-.064.355-.112.529-.145.175-.032.355-.049.543-.049.518,0,.902.127,1.152.38.25.254.375.644.375,1.169,0,.12-.007.283-.02.49-.014.208-.034.486-.061.837Z"/><path class="uuid-ee9bb136-7c79-4022-b7d8-6c2a04473468" d="M229.636,76.832c-.348.23-.665.405-.951.525-.286.119-.536.18-.75.18-.385,0-.663-.122-.838-.367-.174-.244-.274-.638-.302-1.182-.67.59-1.333,1.028-1.989,1.313s-1.324.429-2.003.429c-1.341,0-2.422-.388-3.243-1.161-.822-.774-1.232-1.793-1.232-3.057,0-1.429.564-2.573,1.694-3.436,1.13-.861,2.651-1.293,4.562-1.293.313,0,.646.012.999.035.353.022.73.058,1.132.104.018-.083.029-.168.033-.256.005-.088.007-.191.007-.312,0-.958-.261-1.688-.783-2.191-.522-.502-1.28-.754-2.271-.754-.822,0-1.499.141-2.03.422s-.963.717-1.293,1.307c-.321-.083-.565-.226-.73-.429-.165-.202-.248-.465-.248-.788,0-.673.413-1.228,1.24-1.666.826-.438,1.904-.656,3.235-.656,1.635,0,2.861.407,3.679,1.224.817.815,1.226,2.034,1.226,3.657,0,.304-.013.834-.04,1.59-.026.756-.04,1.364-.04,1.825,0,1.272.073,2.295.221,3.069s.387,1.396.717,1.867ZM226.689,70.679c-.411-.064-.779-.113-1.105-.146s-.605-.048-.838-.048c-1.385,0-2.43.237-3.136.712-.705.475-1.059,1.182-1.059,2.122,0,.756.246,1.351.737,1.784s1.17.649,2.037.649c.651,0,1.262-.126,1.829-.38.566-.254,1.087-.634,1.561-1.141-.018-.461-.029-.837-.033-1.127-.005-.291-.007-.569-.007-.837,0-.166.005-.426.014-.781.009-.354.009-.624,0-.809Z"/><path class="uuid-ee9bb136-7c79-4022-b7d8-6c2a04473468" d="M235.01,66.683c.67-.968,1.309-1.688,1.916-2.164.607-.475,1.206-.712,1.796-.712.5,0,.927.164,1.279.491s.529.73.529,1.21c0,.313-.101.62-.302.919-.2.3-.502.597-.904.892-.143-.405-.319-.705-.529-.898s-.462-.29-.757-.29c-.438,0-.897.224-1.38.67-.482.447-.956,1.091-1.421,1.93-.045.414-.08.836-.107,1.265-.026.429-.04.846-.04,1.251,0,1.383.074,2.535.222,3.457s.377,1.678.689,2.268c-.357.193-.708.341-1.052.442s-.681.152-1.012.152c-.438,0-.739-.112-.904-.339-.165-.226-.248-.68-.248-1.362,0-.248.047-1.205.141-2.868.094-1.664.141-3.21.141-4.64,0-1.17-.045-2.069-.134-2.696-.089-.626-.236-1.18-.442-1.659.179-.064.355-.112.529-.145.175-.032.355-.049.543-.049.518,0,.902.127,1.152.38.25.254.375.644.375,1.169,0,.12-.007.283-.02.49-.014.208-.034.486-.061.837Z"/><path class="uuid-ee9bb136-7c79-4022-b7d8-6c2a04473468" d="M244.844,81.782c.456-.378.873-.841,1.253-1.39.38-.548.748-1.228,1.105-2.039l.442-.954c-1.921-4.646-3.263-7.642-4.026-8.987s-1.432-2.069-2.003-2.171c.178-.756.433-1.351.764-1.783.33-.434.688-.65,1.071-.65.277,0,.505.067.684.2.179.134.353.381.522.74.045.092.514,1.256,1.407,3.491s1.831,4.408,2.814,6.52c1.232-2.683,2.154-4.84,2.767-6.472.611-1.631.918-2.756.918-3.373,0-.12-.012-.235-.033-.346-.022-.11-.047-.217-.074-.318.062-.019.161-.051.295-.097.652-.23,1.116-.346,1.394-.346.321,0,.576.093.764.276.188.185.281.429.281.733,0,.396-.632,1.944-1.896,4.646-1.265,2.701-2.343,5.176-3.236,7.425-.268.673-.612,1.571-1.032,2.696-.946,2.544-1.701,3.816-2.264,3.816-.295,0-.608-.141-.938-.422s-.656-.68-.979-1.196Z"/></svg>