<?xml version="1.0" encoding="UTF-8"?><svg id="uuid-a34c1f32-d945-40ee-8018-9a69a6becb43" xmlns="http://www.w3.org/2000/svg" viewBox="0 0 1280 403.518"><defs><style>.uuid-d26f2398-0a0d-4289-92e0-babff4084fd5,.uuid-90e64a49-ab54-42b9-851e-4080faae3333{fill-rule:evenodd;stroke-width:0px;}.uuid-90e64a49-ab54-42b9-851e-4080faae3333{fill:#00529b;}</style></defs><g id="uuid-1ed7c759-bf40-421a-81d7-a66705c62d3e"><path id="uuid-1d7b4586-d06a-404b-9066-00a04848fdaf" class="uuid-90e64a49-ab54-42b9-851e-4080faae3333" d="M174.617,0c3.08,5.361,6.04,10.441,9.121,15.761-6.801,1.2-13.362,2.4-20.282,3.6,3.76-6.561,7.401-12.841,11.161-19.362ZM195.699,36.523c-15.721,2.84-31.283,5.641-47.044,8.481.8-1.4,1.52-2.76,2.32-4.08,2.48-4.24,4.92-8.521,7.481-12.721.44-.72,1.24-1.44,2-1.64,8.201-2.2,16.442-4.28,24.723-6.321.44-.12,1.32.28,1.56.68,2.96,5.121,5.921,10.321,8.961,15.601ZM129.812,77.648c27.123-4.601,54.326-9.201,81.648-13.801-4.44-7.721-9.041-15.682-13.841-23.923-17.321,4.52-34.523,9.041-51.725,13.521-2.04.52-3.32,1.601-4.16,3.521-.6,1.36-1.52,2.64-2.28,3.96-3.28,5.68-6.56,11.361-9.641,16.721ZM212.82,66.166c4.36,7.561,8.721,15.121,13.201,22.882-70.206,9.041-139.053,22.882-205.739,46.964-.68-1.12-1.44-2.28-2.12-3.48-.68-1.16-1.32-2.32-2.12-3.68,3.84-1.8,7.601-3.561,11.361-5.321,17.882-8.201,36.163-15.522,54.685-22.122.96-.36,2.08-.52,3.12-.52h.002c9.601-.04,19.201-.08,28.761,0,1.72,0,2.76-.36,3.6-2,1.72-3.36,3.681-6.64,5.681-9.841.52-.8,1.48-1.56,2.4-1.8,15.442-4.2,30.883-8.521,46.404-12.361,11.841-2.92,23.882-5.281,35.803-7.881,1.6-.28,3.24-.52,4.96-.84ZM121.891,134.933c29.443-7.081,59.206-12.361,89.209-16.042-57.646,14.362-114.331,31.283-168.736,55.685,2.56,4.4,4.961,8.521,7.401,12.681,56.205-21.842,114.411-34.763,173.856-42.284-56.885,14.202-112.891,30.923-166.615,54.846,1.061,2.123,1.041,2.159.09,3.832l-.05.089c-1.88,3.24-3.761,6.48-5.881,10.081,56.925-22.162,115.571-35.163,175.537-42.764-.4.36-.88.56-1.36.68-4.641,1.28-9.361,2.44-14.002,3.84-14.881,4.48-29.803,8.801-44.604,13.601-25.882,8.401-51.365,17.801-76.487,28.283-18.402,7.68-36.524,15.961-54.285,25.042-.76.4-1.72.76-2.12,1.44-1.72,2.76-3.28,5.64-5.08,8.801,30.843-13.561,62.446-23.723,94.689-31.883,32.203-8.161,64.806-14.121,97.769-18.082-.44.36-.92.56-1.4.68-13.601,3.6-27.363,6.841-40.844,10.881-17.321,5.161-34.603,10.481-51.605,16.562-18.762,6.681-37.283,14.081-55.765,21.602-19.441,7.921-38.163,17.322-56.485,27.483-1.2.68-2.68,1.28-3.36,2.36-2.2,3.36-4.08,6.961-6.361,10.881,39.164-17.922,79.128-32.363,119.931-44.125,40.924-11.881,82.488-20.922,124.732-26.682-36.523,9.201-72.447,20.362-107.77,33.523-35.283,13.161-69.727,28.203-102.61,46.605,6.201.16,12.321.16,18.442.12.84,0,1.68-.28,2.48-.56,17.082-6.121,34.043-12.561,51.245-18.282,14.321-4.761,28.803-9.041,43.404-12.802,18.602-4.801,37.323-9.241,56.125-13.121,17.522-3.6,35.203-6.32,52.805-9.401,1.84-.32,3.681-.52,5.521-.8-55.006,14.041-108.691,31.563-160.456,54.805,1.92.2,3.8.08,5.641.24.68.04,1.56.56,1.96,1.12,1.2,1.72,2.2,3.561,3.24,5.321,44.884-13.201,90.248-22.922,136.373-29.202-43.964,10.961-87.129,24.522-129.452,41.244,2.6,4.48,5,8.801,7.521,13.001.24.4,1.24.6,1.8.48,2.8-.68,5.52-1.561,8.281-2.28,13.641-3.52,27.242-7.241,40.964-10.441,13.201-3.081,26.522-5.601,39.804-8.401.68-.12,1.44-.68,1.8-1.24,1.56-2.48,3.08-5,4.4-7.601.84-1.68,1.92-2.12,3.72-2.12,36.444.04,72.887.04,109.331.04h4.44c-.16-.44-.2-.64-.28-.8-7.321-12.721-14.641-25.482-22.002-38.204-11.601-20.122-23.202-40.204-34.843-60.286-.68-1.2-.64-2.12.04-3.28,5.361-9.161,10.681-18.401,16.002-27.602,12.841-22.242,25.642-44.484,38.484-66.727.88-1.52,1.72-3.04,2.64-4.72-.6-.04-.84-.08-1.12-.08h-45.964c-5.581,0-11.161-.002-16.741-.005-16.742-.008-33.484-.015-50.226.045-1.72,0-2.641-.56-3.4-2.041-1.2-2.36-2.56-4.64-4-6.881-.28-.48-1.24-.88-1.8-.76-21.322,3.92-42.444,8.681-63.366,14.321-14.521,3.88-28.963,8.001-43.324,12.401-12.321,3.761-24.562,7.761-36.683,12.161-13.601,4.96-27.003,10.481-40.484,15.842-4.32,1.72-8.481,3.68-12.761,5.56,1.04,1.92,1.96,3.6,2.92,5.281.96,1.72,2,3.4,3.04,5.12,28.363-11.241,57.245-20.002,86.688-27.082ZM0,100.969c2.36,4.161,4.64,8.121,6.921,12.081,11.561-4.04,22.962-8.041,34.443-12.081H0ZM143.134,349.153c25.562-10.201,51.525-18.962,78.207-26.803-1.4,2.48-2.641,4.641-3.92,6.761-2.28,3.96-4.561,7.961-6.921,11.881-.4.64-1.2,1.24-1.88,1.44-16.002,3.88-32.083,7.641-48.085,11.521-3.68.88-7.321,2-10.921,3.08-1.2.36-1.92.16-2.52-1-1.2-2.28-2.56-4.48-3.96-6.881ZM195.298,367.555c2.48-4.281,4.961-8.601,7.441-12.922-.12-.16-.28-.32-.4-.52-15.562,5.48-31.123,10.961-46.805,16.482,2.28,4,4.4,7.521,6.361,11.161.72,1.32,1.48,1.56,2.84,1.24,7.801-1.76,15.602-3.4,23.362-5.16.72-.16,1.56-.72,1.96-1.36,1.84-2.92,3.52-5.92,5.24-8.921ZM183.178,388.557c-5.041,1.64-9.681,3.12-14.562,4.72,2.04,3.561,3.92,6.841,5.921,10.241,2.88-4.96,5.641-9.761,8.641-14.961Z"/><path id="uuid-dd578e6d-55e1-4acb-9c17-4d7cefa66af8" class="uuid-d26f2398-0a0d-4289-92e0-babff4084fd5" d="M707.932,44.277c.472,4.799.945,9.538,1.477,14.336-.295.059-.532.178-.827.237-.591-1.422-1.182-2.903-1.832-4.325-2.009-4.502-5.435-7.109-10.28-7.938-3.013-.533-6.203.889-7.621,3.318-1.536,2.666-1.418,5.806,1.005,8.116,2.363,2.31,5.258,4.088,7.917,6.043,3.072,2.251,6.44,4.206,9.275,6.754,6.972,6.22,4.195,17.772-4.726,20.675-4.372,1.422-8.626,1.185-12.939-.533-.143-.058-.287-.118-.433-.179-2.08-.866-4.382-1.824-5.652,1.719-.236-.059-.532-.118-.768-.178-.65-4.739-1.359-9.538-2.009-14.277l.886-.355c.355.77.768,1.54,1.123,2.31,2.422,4.917,5.494,9.064,11.402,10.071,4.195.711,8.153-.948,9.748-4.325,1.713-3.554.709-8.294-2.777-10.841-4.017-2.962-8.33-5.569-12.407-8.472-6.145-4.325-7.917-9.953-5.081-15.758,2.659-5.509,9.335-7.879,16.011-5.746.65.237,1.3.415,1.95.711,2.363,1.126,4.49,1.54,5.849-1.718l.709.355ZM829.932,60.154c-.709-1.126-1.182-1.659-1.418-2.31-2.717-8.294-9.039-11.434-14.829-11.256-7.09.178-12.643,4.739-15.006,12.5-1.89,6.161-2.186,12.5,0,18.602,4.49,12.5,17.606,16.114,28.24,7.938,1.181-.889,2.422-1.837,3.899-2.31-2.423,4.206-6.085,6.753-10.575,8.116-18.374,5.687-34.148-9.36-29.954-28.614,3.013-13.685,15.656-21.386,29.363-17.832.945.237,1.89.474,2.836.829,2.6.948,4.963,1.066,6.676-1.896.236.178.532.296.768.474v15.758ZM1140.809,68.211c-.061-11.374,5.494-19.905,14.887-22.986,14.356-4.799,28.773,4.976,29.719,20.083.531,8.768-1.239,16.706-8.569,22.452-7.203,5.569-15.181,6.28-23.274,2.607-7.917-3.554-11.817-10.308-12.702-18.898-.127-.757-.106-1.514-.081-2.296.01-.317.02-.637.02-.962ZM1052.427,46.232c-8.979-1.066-18.079-1.126-27.179-1.6,0,.355,0,.711-.056,1.185q5.848,2.192,5.848,8.768v28.732c-.061,5.746-.177,5.865-5.61,7.524-.061,0-.061.296-.121.474h18.848q-6.5-2.429-6.5-9.064c0-.882-.01-1.763-.02-2.643v-.002c-.02-2.197-.046-4.382.081-6.537.056-1.126.708-2.192,1.123-3.258,1.356.533,3.187.652,3.956,1.6,4.553,5.628,8.863,11.552,13.294,17.298.83,1.066,1.831,2.547,2.894,2.666,2.317.253,4.664.206,7.041.157.956-.019,1.917-.039,2.883-.039-8.858-5.687-13.289-14.81-20.265-22.393,1.715-.415,2.661-.592,3.607-.829,5.731-1.481,9.095-5.45,9.156-10.841.061-5.628-3.192-10.486-8.979-11.197ZM450.227,92.203c-5.967-13.27-11.639-25.77-17.251-38.27-.177,0-.414.059-.591.059-.118.711-.295,1.363-.295,2.073v26.066c0,5.687,1.122,7.109,6.262,8.945h-15.302c0-.118-.059-.237-.059-.355.768-.237,1.536-.474,2.304-.652,2.481-.652,3.899-2.251,3.958-4.858.024-2.197.05-4.394.076-6.591h0s0,0,0,0h0v-.002h0s0-.002,0-.002h0c.104-8.759.208-17.51.16-26.224-.059-4.858-.354-4.858-6.262-7.168.58,0,1.166.036,1.75.071,1.261.077,2.514.153,3.685-.13,6.262-1.481,8.921,1.6,11.048,7.05,3.604,9.242,7.917,18.246,11.934,27.31.118.237.354.474.886,1.066.768-1.777,1.477-3.318,2.127-4.858,4.017-9.419,8.094-18.779,12.052-28.258.768-1.777,1.595-2.607,3.663-2.488,3.486.178,6.971.059,10.516.652-.473.178-.945.415-1.477.415-3.131.237-4.254,2.31-4.254,5.036-.039,7.581-.026,15.135-.013,22.698.007,3.785.013,7.572.013,11.366,0,3.91,2.6,5.036,5.731,5.865h-18.374c.178-.296.237-.652.414-.652,5.022-1.066,5.553-1.422,5.672-6.517.142-8.196.133-16.392.123-24.619v-.003c-.003-2.059-.005-4.12-.005-6.184,0-.355-.237-.652-.591-1.837-6.085,14.04-11.875,27.133-17.901,40.995ZM898.05,91.255h-15.124c.059-.355.059-.652.177-.652,5.672-1.718,6.203-2.429,6.203-8.531v-29.028c0-4.325-1.359-5.983-5.553-6.872-.355-.059-.709-.296-1.005-1.126.566,0,1.131.023,1.694.045,1.262.05,2.516.1,3.741-.104,4.549-.711,7.326,1.422,9.982,4.917,6.915,9.301,14.24,18.365,21.387,27.547.298.355.653.711,1.361,1.422.116-1.185.293-1.896.293-2.547,0-2.271.01-4.542.015-6.813v-.09c.015-4.512.025-9.024-.015-13.535-.056-7.168-.531-7.938-7.203-10.663h15.95c0,.237,0,.533-.061.533-5.671,2.073-6.085,2.666-6.085,9.005v36.374c0,.237-.116.533-.41,1.659-10.461-13.211-20.502-26.007-30.606-38.744-.295.059-.532.178-.827.237v11.019c0,5.332.059,10.663.059,15.995-.059,6.576.472,7.346,6.025,9.953ZM515.046,45.093c-.597.007-1.192.013-1.781.013,2.872,1.264,4.319,1.9,5.041,3.009.734,1.127.719,2.741.689,5.995v29.561c0,5.391-.295,5.746-5.495,6.872-.059,0-.118.237-.472,1.244,9.748-.474,19.319-.178,28.594-1.6,10.575-1.659,17.133-10.545,17.31-21.208.236-11.73-5.317-19.372-16.306-22.512-5.733-1.599-11.593-1.496-17.463-1.392-2.175.039-4.352.077-6.524.029-1.184-.04-2.394-.026-3.595-.013ZM1192.325,45.106c1.669,0,3.334-.016,4.993-.032,3.87-.037,7.724-.074,11.609.091,3.961.178,8.038.533,11.877,1.659,5.139,1.481,7.264,5.036,7.264,10.486,0,5.213-2.125,8.294-7.264,10.249-1.538.592-3.131,1.007-5.317,1.659,7.087,7.168,11.164,16.528,20.087,22.156-.991,0-1.963.01-2.929.02-2.378.024-4.704.048-7.057-.079-.653-.059-1.361-1.007-1.892-1.659-4.608-6.043-9.156-12.085-13.764-18.128-.238-.296-.415-.829-.708-.889-.187-.053-.374-.109-.562-.165-1.067-.319-2.165-.647-3.222-.546-.47.059-1.062,1.6-1.062,2.547-.091,2.531-.076,5.028-.066,7.542,0,.84.005,1.683.005,2.529,0,6.339.415,6.813,6.207,8.649h-18.256c5.782-.691,5.706-4.678,5.63-8.658-.01-.453-.02-.906-.02-1.354v-26.896c.061-6.576,0-6.635-5.554-9.182ZM597.276,63.116c3.604,9.656,7.267,19.313,11.048,29.443.472-1.007.768-1.481.945-2.014,4.136-11.907,8.153-23.815,12.289-35.723,1.3-3.732,1.773-8.235,6.853-9.538h-13.234c5.731,2.725,5.849,2.844,3.781,9.005-1.891,5.569-3.84,11.137-5.849,16.706-.827,2.37-1.832,4.68-3.072,7.879l-9.926-26.54c-1.831-4.917-1.536-5.45,3.486-6.517.118-.059.178-.296.295-.474h-17.133c3.722.711,5.199,3.436,6.204,6.576.472,1.422,1.24,2.725,1.536,4.147.295,1.363.472,2.962.059,4.206-1.832,5.45-3.84,10.782-5.79,16.114-.236.592-.591,1.066-1.122,2.073-3.367-9.005-6.558-17.417-9.748-25.888-1.773-4.739-1.536-5.272,3.249-6.813.059,0,.059-.355.059-.474h-16.129c4.076.948,5.022,4.384,6.203,7.464,3.013,7.879,5.849,15.877,8.684,23.815,1.832,5.154,3.604,10.308,5.376,15.462.237.059.532.059.768.059,3.427-9.656,6.912-19.372,10.339-29.028.295,0,.532.059.827.059ZM1016.329,45.284h-35.744c5.433,2.133,5.671,2.37,5.433,8.353v29.917c0,5.45-.354,5.865-5.61,7.168-.116,0-.116.296-.177.474.061.059.116.178.177.178,11.695.059,23.396.059,35.091.059.536,0,1.361-.296,1.477-.592,1.067-3.554,2.008-7.168,2.954-10.782l-.885-.355c-.647.948-1.356,1.896-1.948,2.962-1.538,2.784-3.485,5.332-6.738,5.687-4.841.533-9.748.652-14.65.711-1.892,0-2.954-1.126-2.954-3.258.061-5.154.061-10.249,0-15.403,0-1.481.47-2.133,2.008-2.073,1.467.025,2.949.018,4.426.011,1.978-.01,3.956-.019,5.913.048,3.071.118,5.256,1.363,5.787,4.739.121.652.592,1.244.89,1.837.177-.059.293-.118.47-.178v-15.58c-.885.829-1.3,1.718-1.477,2.666-.415,2.429-2.008,3.791-4.194,3.91-3.081.165-6.197.129-9.414.092-1.406-.016-2.838-.033-4.295-.033,0-1.12,0-2.232-.005-3.338-.01-4.4-.015-8.706.126-13.012.056-.77,1.416-1.955,2.241-2.014,4.431-.178,8.863-.178,13.294,0,3.253.118,5.554,1.718,6.323,5.095.177.77.531,1.481.825,2.192.238-.059.415-.118.653-.178v-9.301ZM506.766,45.877c.059-.059.118-.178.413-.533h-19.851c6.203,2.37,6.794,2.844,6.794,7.227.059,10.545.059,21.09,0,31.635-.059,4.68-1.004,5.628-5.612,6.22-.355.059-.709.296-1.832.77h20.383q-6.558-2.251-6.558-9.656v-26.896c0-6.813.059-6.99,6.262-8.768ZM670.357,91.137c1.005-3.732,1.95-7.405,2.895-11.078-.295-.118-.591-.296-1.063-.474-.532.889-1.182,1.777-1.713,2.725-1.713,3.199-4.077,5.746-7.799,6.102-4.49.474-9.039.474-13.529.592-2.363.059-3.308-1.363-3.308-3.554-.059-5.154-.059-10.249.059-15.403,0-.652,1.005-1.777,1.595-1.777,3.958-.118,7.857-.059,11.816.059,2.304.059,3.84,1.303,4.49,3.614.295,1.007.768,1.955,1.182,2.903.178-.059.414-.178.591-.237v-15.521c-.886.533-1.182,1.185-1.359,1.836-1.063,3.673-2.245,4.799-5.967,4.976-3.545.178-7.09.118-10.635,0-.591-.059-1.595-.77-1.595-1.185,0-5.213,0-10.427.236-15.64.059-.652,1.359-1.718,2.127-1.718,4.549-.118,9.098-.118,13.588.059,3.072.118,5.022,1.836,5.908,4.858.236.829.827,1.6,1.241,2.429.236-.118.532-.178.768-.296-.118-2.962-.295-5.924-.414-9.064h-35.625c5.376,2.133,5.612,2.429,5.612,8.531v27.843q-.059,6.872-6.381,9.419h37.279ZM748.934,91.255h-18.906c.059-.296.118-.592.178-.592,5.435-1.303,6.085-2.073,6.085-7.761.025-4.621.018-9.231.011-13.84-.01-6.145-.019-12.286.048-18.446,0-2.488-.768-3.436-3.19-3.14-1.477.178-2.954.118-4.431.237-4.077.355-6.381,2.725-7.326,6.576-.178.77-.473,1.481-1.359,2.133v-11.078h38.401c.178,3.851.414,7.464.591,11.078-.295.059-.591.178-.886.237-.354-1.007-.886-1.955-1.122-2.962-1.004-4.265-4.017-5.746-7.976-6.043h-.014c-3.192-.265-4.784-.397-5.577.335-.79.729-.79,2.313-.789,5.472v28.612c-.03,3.508-.044,5.24.767,6.388.793,1.12,2.372,1.683,5.495,2.795ZM935.979,45.343c-.177,3.851-.354,7.464-.531,11.078.121,0,.243.007.359.014.228.013.45.026.647-.014.116-.415.293-.829.41-1.244,1.598-5.865,3.485-7.346,9.515-7.642.379-.025.759-.018,1.138-.011.506.01,1.012.019,1.518-.048,2.307-.237,2.838.77,2.838,2.903-.091,8.218-.076,16.403-.066,24.605,0,2.736.005,5.473.005,8.215,0,5.806-.415,6.28-5.964,7.405-.061,0-.121.296-.238.592h19.081c-.41-.592-.885-.77-1.416-.829-3.839-.592-4.608-1.363-4.962-5.272-.116-1.185-.116-2.37-.116-3.554,0-3.219-.01-6.438-.015-9.656v-.028c-.015-6.428-.025-12.856.015-19.284,0-.837-.035-1.539-.061-2.128-.056-1.255-.091-1.995.258-2.421.501-.611,1.791-.576,4.932-.49l.126.003c6.262.237,7.74,1.422,9.687,7.464.177.533.592,1.007,1.184,2.073v-11.73h-38.344ZM1132.832,52.512c.238.829.653,1.54.946,2.31l.708-.355v-9.123h-35.976c5.494,2.133,5.787,2.488,5.787,8.353.061,9.893.061,19.727-.056,29.621-.061,5.628-.298,5.806-5.554,7.287-.121,0-.121.296-.177.533h18.135c-.233-.533-.531-.711-.885-.77-4.431-1.007-4.725-1.363-4.846-5.924-.076-2.444-.051-4.862-.025-7.289v-.006c.015-1.218.025-2.438.025-3.664v-5.213h11.64c3.071,0,4.962,1.54,5.731,4.502.238.711.531,1.422.769,2.133l.708-.178v-15.521c-.946.948-1.239,2.192-1.831,3.199-.653,1.126-1.593,2.784-2.539,2.903-4.73.592-9.515.711-14.417,1.007,0-2.08.005-4.061.015-5.978.01-3.653.025-7.072-.015-10.491-.061-1.777.769-2.488,2.484-2.488,4.31.059,8.68,0,12.995.118,3.248.118,5.494,1.718,6.379,5.036ZM838.026,91.255v-.474q5.731-2.133,5.731-8.649v-27.488q0-6.694-5.789-9.242h35.861v9.242c-.178.059-.414.178-.591.237-.355-.77-.828-1.54-1.005-2.37-.827-3.258-2.954-4.858-6.144-4.976-4.49-.118-9.039-.178-13.588-.059-.709,0-2.009,1.185-2.009,1.837-.142,4.398-.133,8.757-.123,13.233v.006c.002,1.128.005,2.263.005,3.408,1.502,0,2.97.007,4.413.014,2.815.013,5.535.026,8.23-.014,2.894-.059,4.667-1.718,5.376-4.562.177-.829.472-1.6,1.418-2.251v15.64c-.178.059-.414.119-.591.178-.295-.77-.65-1.54-.945-2.37-.827-2.784-2.54-4.325-5.553-4.265-2.653.039-5.307.027-8.062.014-1.416-.007-2.86-.014-4.345-.014,0,1.266-.003,2.519-.005,3.763v.002c-.01,4.929-.019,9.705.123,14.481,0,.77,1.418,2.192,2.127,2.192.807-.009,1.616-.014,2.425-.019,4.58-.028,9.177-.055,13.645-.811,2.068-.355,3.899-3.021,5.612-4.799.945-.948,1.536-2.31,2.245-3.495l.886.355c-.886,3.673-1.831,7.405-2.777,11.256h-36.571ZM1178.561,68.329c-.825-4.147-1.184-8.412-2.539-12.381-1.892-5.509-5.848-9.123-11.877-9.656-6.262-.592-10.926,2.488-13.35,7.82-4.138,9.182-4.138,18.839-.121,28.08,2.367,5.45,7.092,8.59,13.238,8.116,6.025-.474,10.279-4.028,12.11-9.775,1.3-3.851,1.715-7.998,2.539-12.204ZM525.79,67.618h-.118c0-1.375.004-2.755.008-4.136.011-4.151.022-8.318-.067-12.452-.059-2.666,1.182-3.91,3.663-3.91,10.339-.059,21.032,4.325,22.273,18.187.709,7.82-.354,14.988-7.207,20.024-4.904,3.554-10.516,4.206-16.306,3.673-.827-.059-2.068-1.777-2.127-2.784-.177-4.619-.155-9.272-.133-13.935.007-1.555.015-3.111.015-4.667ZM1209.459,47.358c-4.725-.059-5.139.355-5.079,4.917v8.294c0,8.175.238,8.294,8.387,6.28,4.138-1.007,7.208-3.081,8.154-7.524,1.477-7.168-3.015-11.848-11.463-11.967ZM1037.656,59.917c0-.711,0-1.363.061-2.073,0-2.547,0-5.154-.061-7.701,0-1.836.946-2.784,2.716-2.725.233,0,.46,0,.693-.001,1.836-.006,3.667-.012,5.453.357,5.023,1.066,7.502,4.147,7.679,9.064.177,4.917-2.362,8.353-7.264,9.775-8.746,2.488-9.277,2.073-9.277-6.694ZM389.02,108.613v6.339h890.98v-6.339H389.02ZM891.552,173.956c-.472-10.782-.886-21.623-1.359-33.175-1.3.652-2.481.948-2.895,1.718-2.304,3.258-5.14,4.206-8.98,3.081-8.685-2.607-17.429-4.858-26.645-4.266-15.952,1.067-28.713,7.879-37.693,21.09-9.216,13.566-10.871,28.673-7.503,44.431,2.954,13.862,10.457,24.822,22.982,31.339,15.952,8.353,32.435,8.59,48.623.178,6.026-3.081,11.343-7.286,15.419-13.033-1.004-.889-1.772-1.6-2.245-2.014-4.254,3.14-8.034,6.576-12.347,9.005-12.23,6.872-24.932,8.234-37.634,1.362-8.035-4.325-13.234-11.315-16.424-19.786-3.604-9.538-4.077-19.431-2.895-29.443,1.241-10.308,4.431-19.846,11.698-27.785,12.997-14.218,36.806-13.092,47.855,2.666,2.599,3.673,4.254,8.116,6.085,12.323.077.186.149.361.216.524.956,2.331.982,2.395,3.742,1.786ZM614.586,223.956c6.735-9.36,8.98-20.201,8.862-31.575,0-.294.007-.588.013-.884.013-.599.026-1.207-.013-1.841-.354-14.87-5.258-27.785-16.719-37.677-10.457-9.064-22.805-12.204-36.452-10.782-16.779,1.837-29.008,10.486-36.57,25.415-6.794,13.566-7.385,28.021-3.367,42.358,5.258,18.898,17.665,31.042,37.279,34.182,19.201,3.081,35.329-3.08,46.968-19.194ZM786.39,227.688c8.862-10.071,11.875-22.156,11.816-35.248v-3.555c-.768-16.41-6.853-30.035-20.442-39.751-9.867-7.109-21.092-9.005-33.026-7.938-17.547,1.6-32.435,13.803-38.402,29.917-3.604,9.715-4.313,19.727-3.013,29.976,1.418,10.96,5.613,20.616,13.293,28.673,10.162,10.604,22.687,14.633,37.102,13.922,13.234-.652,23.987-6.161,32.671-15.995ZM1131.416,172.357h-2.6c-.177-.296-.354-.533-.47-.77-1.067-2.962-2.008-5.984-3.253-8.827-4.072-9.242-11.458-14.277-21.15-16.054-6.854-1.244-14.118,2.251-16.602,7.583-2.833,6.042-1.356,13.744,4.315,18.187,6.91,5.332,14.417,9.834,21.504,14.988,5.554,4.029,11.346,7.938,15.955,12.974,8.858,9.715,7.502,25.71-2.013,34.774-8.271,7.879-18.251,9.597-29.006,7.938-4.608-.711-9.1-2.429-13.587-3.851-4.553-1.422-5.377-1.185-7.507,2.903-.354.592-1.239,1.362-1.831,1.244-.587-.059-1.416-1.007-1.533-1.659-1.3-9.183-2.484-18.306-3.723-27.488-.061-.592-.061-1.126-.116-1.718,2.008-.83,2.833-.118,3.602,1.718,2.423,5.983,5.377,11.611,10.046,16.173,6.794,6.635,14.887,9.716,24.22,7.524,12.055-2.785,16.956-17.239,9.571-27.251-4.138-5.628-10.279-8.767-15.833-12.559-6.794-4.68-14.063-8.827-20.204-14.218-8.094-7.05-9.571-16.528-5.969-26.481,3.425-9.538,10.517-14.87,20.619-16.232,6.025-.829,11.7.474,17.31,2.547,1.654.652,3.369,1.126,5.023,1.659,4.016,1.185,5.316.592,7.325-3.199.298-.592,1.3-1.303,1.831-1.244.531.118,1.239,1.126,1.361,1.777,1.062,9.479,2.008,19.017,2.954,28.495-.061.237-.177.533-.238,1.066ZM974.206,241.729h15.595c.177-.296.354-.533.592-.889-.708-.592-1.3-1.659-2.069-1.777-4.194-.711-6.794-3.199-8.448-6.991-6.146-14.04-12.348-28.08-18.433-42.18-6.738-15.58-13.294-31.161-20.027-46.682-.354-.829-1.538-1.955-2.069-1.836-.885.178-1.892,1.185-2.246,2.073-8.154,19.49-16.187,39.04-24.397,58.53-4.138,9.775-8.392,19.491-12.702,29.206-1.836,4.028-4.608,7.05-9.219,7.998-.65.118-1.182,1.185-2.245,2.369h29.305c.526-2.463-.905-2.485-2.221-2.505-.298-.005-.592-.01-.855-.042-5.731-.889-7.972-3.792-6.262-9.242,2.008-6.457,4.553-12.737,7.031-19.076.298-.652,1.361-1.481,2.069-1.481,11.695-.059,23.396-.059,35.091.06.83,0,2.008.592,2.307,1.244,2.716,6.516,5.61,13.033,7.856,19.727,2.008,5.983.238,8.116-6.025,8.827-.177.02-.354.02-.526.02-.349,0-.678,0-.951.158-.769.415-1.416,1.007-2.125,1.481.764.296,1.593.948,2.362.948,4.649.089,9.303.077,13.957.066,1.548-.004,3.101-.007,4.654-.007ZM494.536,143.151h39.701c.178.237.355.474.532.652l-1.772,1.6c-.088.088-.24.078-.41.067-.059-.004-.12-.008-.181-.008-8.567,1.244-10.694,3.318-10.753,11.73-.059,23.697-.059,47.334.059,71.03.059,7.702,2.068,9.597,9.63,10.841.253.046.541.061.837.076,1.228.063,2.593.133,2.117,2.471h-40.706c.827-1.066,1.3-1.718,1.832-2.31.177-.178.591-.118.827-.178,9.157-1.304,10.339-2.785,10.634-12.559.174-5.75.143-11.5.113-17.25v-.002c-.022-4.025-.043-8.049.006-12.073,0-1.896-.355-2.784-2.6-2.784-9.972.089-19.944.077-29.891.066-3.313-.004-6.622-.007-9.928-.007-.074,0-.148,0-.221-.001-1.264-.006-2.32-.011-2.32,1.837.177,11.315,0,22.69.472,34.004.237,5.983,2.777,7.761,9.157,8.649.237.033.503.039.779.047,1.236.031,2.654.068,2.412,2.442h-39.702c-.177-.178-.355-.415-.532-.592.65-.592,1.241-1.54,2.009-1.718,9.807-2.192,9.866-2.133,10.93-12.145.197-1.628.189-3.256.181-4.917-.002-.334-.004-.67-.004-1.007v-61.552c0-.889,0-1.777-.059-2.666-.827-8.649-1.95-9.834-10.516-11.493-.886-.178-1.654-.888-2.481-1.362.118-.356.295-.711.414-1.066h7.326c10.162,0,20.264,0,30.426.059.709,0,1.418.592,2.127.888-.65.474-1.241,1.363-2.009,1.422-8.685,1.304-10.635,2.607-10.93,13.211-.145,5.503-.112,11.029-.078,16.563.021,3.462.042,6.927.019,10.392,0,2.073.473,2.962,2.718,2.962,13.352-.059,26.763-.059,40.115,0,1.772,0,2.127-.711,2.127-2.31-.021-3.421.01-6.842.039-10.264.056-6.354.111-12.707-.157-19.061-.414-9.538-2.659-10.071-10.398-11.434-.155-.017-.324-.024-.499-.032-1.023-.043-2.199-.093-1.392-2.219ZM701.493,216.432c-2.363,8.531-4.608,16.884-6.912,25.237h-79.167c1.063-1.185,1.654-1.837,2.245-2.429.118-.118.354-.059.591-.118,9.452-1.6,10.752-3.14,10.752-12.796.059-22.275.059-44.609.118-66.883,0-1.659-.118-3.377-.295-5.036-.65-5.746-2.54-7.583-9.275-8.708q-3.072-.533-3.072-2.547h41.238c-1.005,1.066-1.477,1.777-2.127,2.073-.65.356-1.536.296-2.304.415-7.68,1.244-9.807,3.554-9.807,11.374-.059,24.289-.059,48.518,0,72.807,0,4.503,1.418,6.22,5.967,6.161,9.394-.118,18.787-.474,28.181-1.007,7.798-.474,12.82-5.332,16.66-11.671,1.005-1.659,2.068-3.377,2.836-5.154.945-1.955,2.245-2.369,4.372-1.718ZM1070.622,145.52c.653-.296,1.123-1.066,1.715-1.659-.177-.296-.354-.533-.592-.652h-2.6c-2.995,0-5.984-.007-8.969-.013-5.969-.013-11.928-.026-17.912.013-1.179,0-2.302.652-3.485,1.007,1.123.533,2.125,1.363,3.308,1.6,6.617,1.422,8.569,3.317,9.808,10.012.47,2.488.708,5.094.708,7.642-.116,16.173-.061,32.346-.531,48.519-.238,8.116-2.484,15.877-9.692,20.912-6.141,4.265-13.233,5.273-20.558,4.621-6.025-.533-11.64-2.192-15.894-6.813-4.431-4.799-6.379-10.663-6.44-17.002-.157-12.283-.157-24.592-.157-36.892,0-6.15,0-12.298-.02-18.439,0-9.597,1.361-11.197,10.754-12.796.885-.119,1.654-.83,2.479-1.304-.825-.356-1.654-1.007-2.539-1.007-11.402-.118-22.804-.118-34.206-.059-1.416,0-2.893.711-4.315,1.066,1.361.533,2.661,1.304,4.022,1.54,6.794,1.303,8.149,2.666,9.095,9.538.238,1.896.238,3.732.238,5.628,0,3.759-.005,7.522-.01,11.287v.125c-.01,11.266-.02,22.557.071,33.848.056,4.325.41,8.708,1.239,12.914,2.125,10.486,7.977,18.187,18.135,21.919,10.461,3.851,21.271,3.732,31.904.889,9.217-2.488,16.071-8.175,19.142-17.298,1.776-5.273,2.838-10.96,3.015-16.47.283-10.218.263-20.465.238-30.701v-.013c-.01-4.654-.02-9.307,0-13.953,0-2.607.233-5.273.531-7.938.531-4.917,3.071-8.175,8.094-9.241,1.123-.237,2.362-.356,3.425-.83ZM1221.215,165.426c.475,1.896,1.123,3.081,3.253,2.31,0-8.293,0-16.291.056-24.289h-82.828v24.407h2.362c1.067-3.436,2.008-6.754,3.192-9.953,1.416-3.673,3.9-6.339,7.8-7.524,5.387-1.645,10.886-1.575,16.405-1.505,1.447.018,2.888.036,4.33.024.177.652.298,1.066.298,1.421,0,7.608.015,15.215.03,22.822.035,17.748.076,35.496-.091,53.244-.061,10.071-1.593,11.315-11.7,12.914-.111.022-.238.02-.364.017-.207-.005-.41-.009-.521.102-.531.533-1.002,1.185-1.892,2.252h42.659q-.238-2.192-3.253-2.547c-8.625-1.007-10.689-3.199-10.81-11.908v-78.732c6.5.356,12.469.533,18.433,1.126,4.725.474,8.215,3.199,9.986,7.702,1.062,2.666,1.948,5.391,2.656,8.116ZM544.872,204.229c-.473-3.91-.591-7.82-.768-10.367.295-10.782.828-20.142,4.786-28.91,5.849-13.092,16.837-20.142,29.598-19.076,11.639,1.007,22.569,10.723,25.995,23.459,4.077,15.107,4.254,30.272.177,45.32-3.131,11.552-10.043,20.023-21.977,23.341-10.871,3.021-21.978-1.126-29.244-10.486-5.318-6.872-7.622-14.87-8.567-23.282ZM777.056,163.826c4.372,9.005,4.845,18.779,5.199,28.376-.355,10.486-.945,20.794-5.908,30.036-5.553,10.367-14.061,16.587-26.172,16.647-11.993.059-22.923-8.531-27.472-21.149-3.958-10.959-4.254-22.334-3.427-33.826.532-7.346,1.773-14.514,5.258-21.09,5.672-10.663,14.238-17.299,26.822-16.943,12.289.415,20.501,7.287,25.7,17.95ZM952.521,203.399h-34.089c5.615-13.803,11.109-27.31,16.546-40.758.293,0,.531-.059.764-.059,5.554,13.507,11.109,27.014,16.779,40.817ZM816.108,335.981c.768.83,1.477,1.54,2.304,2.429-4.136,5.687-9.276,10.012-15.361,13.033-17.901,9.005-35.566,8.235-52.404-2.488-10.694-6.813-16.956-17.18-19.437-29.562-2.836-14.04-1.713-27.725,5.554-40.403,10.634-18.483,28.358-26.244,48.445-24.23,6.262.652,12.466,2.607,18.67,4.029,3.663.829,5.908-.059,8.153-3.021.591-.77,1.773-1.126,3.19-1.895.472,11.671.945,22.452,1.359,33.234-2.6,1.126-3.25-.355-3.84-2.192-2.423-7.346-5.908-13.922-12.171-18.838-12.407-9.775-31.844-7.879-42.301,3.969-9.098,10.308-11.639,22.749-11.816,35.96-.118,11.611,2.009,22.63,9.512,31.931,8.567,10.604,19.733,14.573,33.262,12.619,10.694-1.6,18.964-7.168,26.882-14.574ZM1081.731,254.11c23.811-.533,43.306,18.543,45.906,43.187,1.062,10.367.233,20.439-3.308,30.272-5.853,15.996-22.571,28.377-39.527,29.266-12.049.652-23.335-1.422-33.027-9.064-12.049-9.538-18.074-22.215-18.964-37.499-.708-11.849.713-23.341,7.031-33.59,9.217-14.988,22.804-22.571,41.89-22.571ZM914.238,354.761h-35.919l-.532-.711c.591-.533,1.122-1.303,1.772-1.481,1.477-.414,3.073-.592,4.608-.829,3.072-.415,4.313-2.429,3.781-5.213-.591-3.14-1.477-6.339-2.6-9.36-1.595-4.265-3.604-8.293-5.199-12.559-.709-1.778-1.713-2.311-3.545-2.311-11.284.06-22.628,0-33.912.119-.886,0-2.245.888-2.6,1.659-2.422,6.042-4.845,12.026-6.853,18.187-1.95,6.042.059,8.827,6.262,9.893.591.118,1.241.059,1.713.355.532.296.945.889,1.418,1.363-.472.356-1.004.948-1.477.948-8.921.059-17.902.059-26.822.059-.178-.296-.355-.533-.532-.83.591-.533,1.063-1.481,1.713-1.6,4.372-1.066,7.207-3.851,8.98-7.879,4.668-10.545,9.335-21.03,13.766-31.635,7.917-18.839,15.715-37.796,23.573-56.635.354-.77,1.359-1.659,2.186-1.777.591-.059,1.595.948,1.89,1.659,12.23,28.376,24.4,56.753,36.631,85.13.708,1.6,1.533,3.199,2.302,4.799,1.654,3.258,4.077,5.391,7.8,6.102.769.118,1.361,1.185,2.069,1.836-.061.237-.298.474-.475.711ZM1205.503,315.78v12.559c-1.062-1.007-1.538-1.363-1.953-1.837-17.897-22.985-35.799-45.912-53.818-68.838-.653-.83-2.069-1.422-3.131-1.422-6.207-.118-12.409-.118-18.61.059-.384.016-.804-.071-1.229-.159-1.164-.24-2.378-.492-3.025,1.284,1.356.474,2.656,1.185,4.077,1.422,4.371.711,10.041,6.102,10.041,9.893,0,5.713.005,11.43.01,17.148.01,17.171.02,34.358-.071,51.512,0,10.723-1.771,12.678-12.171,14.988-.116,0-.233,0-.293.059-.592.592-1.123,1.185-2.185,2.251h34.327c.632-2.245-.663-2.359-1.831-2.462-.248-.022-.491-.044-.713-.085-6.672-1.185-9.156-3.436-10.102-9.656-.415-2.903-.708-5.865-.708-8.827-.061-16.825-.061-33.709-.061-50.592v-7.82c.298-.059.531-.178.769-.237.885,1.007,1.715,2.014,2.539,3.081,9.1,11.552,18.201,23.164,27.357,34.775,10.871,13.803,21.681,27.547,32.552,41.291.137.178.268.368.4.56.799,1.152,1.654,2.386,3.678,1.573v-68.602c0-.84,0-1.679-.005-2.519-.005-4.196-.015-8.392.182-12.588.415-9.42,2.777-12.026,11.7-13.803.764-.178,1.477-.948,2.185-1.422-.83-.356-1.654-.829-2.544-1.066-.46-.126-.951-.103-1.457-.079-.202.01-.405.02-.607.02h-29.127q.116,2.369,2.539,2.666c6.854.83,8.923,2.784,10.34,9.597.293,1.363.592,2.725.592,4.088l.354,43.187ZM980.525,256.242c.354,8.353.653,16.41,1.007,24.467-2.13,1.007-3.248.474-3.723-1.895-.531-2.37-1.416-4.68-2.185-7.05-1.831-5.568-5.731-8.649-11.463-9.182-5.671-.533-11.341-.652-17.548-.948v6.516c0,23.282,0,46.564.061,69.846,0,2.251.116,4.562.415,6.813.47,3.969,2.362,5.865,6.323,6.694,1.831.356,3.662.652,5.494,1.067.708.178,1.356.711,2.008,1.066-.708.415-1.416,1.126-2.185,1.185-7.684.039-15.373.026-23.037.013-3.829-.007-7.654-.013-11.468-.013-1.77,0-3.485,0-5.731-.711.531-.533.946-1.303,1.593-1.54,1.3-.415,2.722-.474,4.077-.711,6.03-1.185,7.563-2.903,8.154-9.005.116-1.185.177-2.369.177-3.555v-75.473c0-.474-.061-.947-.116-1.836-1.239-.019-2.479-.058-3.718-.097-6.606-.21-13.162-.418-19.384,2.526-4.254,2.014-5.61,6.398-6.971,10.545-.415,1.304-.825,2.666-1.007,4.029-.233,2.192-1.416,2.488-3.425,1.895-.061-.711-.116-1.481-.116-2.251.177-6.576.47-13.211.647-19.786.061-1.481,0-2.666,2.13-2.666,26.406.059,52.932.059,79.991.059ZM1028.793,256.302c-13.527-.059-27.119-.059-40.883-.059-.298,2.564,1.143,2.525,2.418,2.491.228-.006.45-.012.658-.003,8.094.711,10.512,3.199,10.926,11.315v1.481c0,7.324.005,14.655.015,21.987.01,14.672.025,29.353-.015,44.007,0,2.429-.238,4.917-.531,7.346-.47,3.791-2.185,5.687-5.848,6.516-2.246.474-4.492.711-6.677,1.185-.415.119-.769.83-1.123,1.304.415.356.769.829,1.239.948.384.127.825.103,1.26.078.172-.01.349-.019.516-.019,12.404,0,24.751,0,37.16-.059.885,0,1.715-.652,2.6-1.007-.769-.415-1.593-1.126-2.423-1.244-10.102-1.54-11.695-3.317-11.695-13.566v-65.699c0-1.777,0-3.555.177-5.332.531-5.806,2.954-8.234,8.625-8.946,1.239-.178,2.539-.178,3.779-.533.592-.178.946-.948,1.421-1.421-.536-.237-1.067-.77-1.599-.77ZM550.485,305.827v-33.471c0-1.777,0-3.554-.236-5.332-.827-5.45-3.013-7.464-8.507-8.057-.212-.018-.43-.019-.645-.021-.503-.004-.991-.008-1.363-.216-.65-.296-1.182-.948-1.713-1.481.591-.296,1.24-.948,1.831-.948,4.931.083,9.872.11,14.814.138,12.765.07,25.548.141,38.239,1.166,13.765,1.126,25.877,7.227,34.325,18.898,4.785,6.576,6.912,14.1,7.74,22.038,1.3,13.151-.709,25.592-8.685,36.492-7.917,10.901-18.964,16.588-32.021,18.543-10.6,1.596-21.276,1.427-31.945,1.258h-.004c-5.564-.088-11.126-.176-16.674-.014-1.654.059-3.367.118-5.022-.059-.886-.059-1.773-.592-2.659-.948.886-.592,1.713-1.185,2.6-1.659.591-.296,1.359-.237,2.009-.415,5.849-1.363,7.68-3.317,7.798-9.36.089-9.195.078-18.357.067-27.536-.004-3.006-.008-6.013-.008-9.024.016.009.037.009.059.009ZM550.426,305.819c-.027-.015-.037-.056,0-.169v.169ZM671.894,256.361h-40.351q.059,2.251,2.895,2.547c7.621.889,9.866,3.258,10.221,10.96v2.962c0,15.166,0,30.391.059,45.557.059,3.673.237,7.287.768,10.901,2.127,14.158,10.162,23.341,22.746,26.244,8.035,1.896,16.188,2.073,24.281.474,10.753-2.073,19.142-7.642,22.687-18.306,1.95-5.983,2.836-12.5,3.013-18.838.207-7.434.177-14.882.148-22.33v-.007c-.029-7.449-.059-14.897.148-22.33.295-10.723,1.832-13.862,11.816-15.403.709-.118,1.241-1.185,1.891-1.778-.236-.237-.414-.473-.591-.711h-6.145c-8.271,0-16.542,0-24.813.059-.65,0-1.359.711-2.009,1.066.591.533,1.182,1.126,1.831,1.481.355.158.762.158,1.169.158.204,0,.407,0,.604.02,5.612.889,8.271,3.199,9.275,8.768.591,3.436.945,6.99,1.005,10.545.118,12.678.177,25.415,0,38.151-.059,4.799-.472,9.656-1.241,14.396-1.182,7.642-4.903,13.862-12.23,16.943-3.781,1.6-8.094,2.547-12.23,2.784-7.917.533-15.538-.83-21.269-7.168-4.195-4.68-5.967-10.485-6.085-16.587-.355-18.424-.295-36.907-.355-55.331,0-1.718.118-3.377.355-5.036.532-3.613,2.304-6.279,6.144-6.99,1.595-.296,3.308-.355,4.904-.829.768-.237,1.3-1.185,1.95-1.778-.178-.237-.414-.414-.591-.592ZM530.752,277.095c-2.067.592-3.131,0-3.485-2.369-.295-2.014-1.122-3.969-1.832-5.924-1.831-4.799-5.849-6.576-10.457-6.872-6.853-.415-13.766-.474-20.619-.592-2.777-.059-5.494-.059-8.271,0-4.372.059-5.318,1.007-5.377,5.45-.039,2.239-.026,4.452-.013,6.675v.002h0v.003h0v.005h0v.013h0v.006c.007,1.119.013,2.24.013,3.368,0,7.109.059,14.218.059,21.327,0,1.363.118,2.31,1.832,2.251,2.717-.039,5.442-.039,8.166-.039,5.449,0,10.897,0,16.293-.316,8.094-.474,10.043-2.547,11.934-10.486.295-1.126.532-2.31.827-3.614h2.895v33.768c-2.009.947-3.013.296-3.486-1.718-2.836-11.848-5.435-11.73-15.715-12.204-4.237-.185-8.474-.139-12.711-.093h-.003s-.001,0-.001,0h-.024c-2.548.028-5.095.056-7.643.033-1.95,0-2.54.592-2.54,2.547.059,11.375,0,22.69.059,34.064.059,5.51,1.359,6.813,6.853,6.872,7.975,0,15.892-.059,23.868-.355,10.929-.415,18.019-6.458,22.273-16.173.945-2.192,2.127-3.14,4.845-2.192-2.127,7.998-4.195,16.054-6.38,24.23h-78.458c-.178-.178-.355-.415-.532-.592.59-.533,1.063-1.363,1.772-1.6,1.595-.533,3.25-.652,4.904-1.066,4.077-1.185,5.612-3.021,6.026-7.346.236-2.133.355-4.325.355-6.517v-65.106c0-1.066-.059-2.192-.118-3.258-.591-7.642-2.422-9.538-10.044-10.367-1.254-.153-1.859-.227-2.126-.567-.249-.316-.205-.863-.119-1.921h77.04c-.059,6.872-.059,13.685-.059,20.675ZM1111.859,308.197c0-11.256-.769-19.965-3.779-28.317-5.731-15.936-21.802-24.645-36.629-19.372-11.64,4.088-17.664,13.27-20.563,24.763-2.539,9.952-2.833,20.083-1.77,30.272.769,7.346,2.125,14.691,6.025,21.149,5.848,9.656,14.063,15.699,25.758,15.403,11.463-.296,19.617-6.398,24.994-16.173,5.195-9.419,5.787-19.786,5.964-27.725ZM564.841,268.328v74.822c0,4.502,1.654,6.516,6.144,6.457,5.672-.118,11.462-.178,16.956-1.244,14.297-2.844,24.754-10.664,29.244-25.059,3.19-10.189,3.309-20.616.945-30.983-2.895-12.855-10.516-22.038-22.687-27.192-7.563-3.199-15.479-4.206-23.632-3.91-5.612.178-6.971,1.54-6.971,7.109ZM877.255,316.669c-5.672-13.862-11.225-27.429-17.192-41.824-5.849,14.455-11.343,28.021-16.956,41.824h34.148Z"/></g></svg>