<?xml version="1.0" encoding="UTF-8"?><svg xmlns="http://www.w3.org/2000/svg" xmlns:xlink="http://www.w3.org/1999/xlink" viewBox="0 0 1280 713.538"><defs><style>.uuid-ef2b4e7b-c250-4982-ad97-23aaa0256f63{fill:#010101;}.uuid-ef2b4e7b-c250-4982-ad97-23aaa0256f63,.uuid-d579455f-32ea-4102-b07a-687932f9cdfc,.uuid-c4742833-745b-46a8-a183-9cc6d8cc6efb,.uuid-4ef48a4e-b9b4-497a-be5d-c568cf0e303f,.uuid-be051225-2551-46df-86c6-a6a7de994b48,.uuid-5679be7d-b586-4317-8962-26d8c3420bb8,.uuid-cd5698f5-5a83-40f7-9d28-dd85539f0fb0{stroke-width:0px;}.uuid-ad6bf35a-756b-4eae-b25e-d39a2603cdcf{isolation:isolate;}.uuid-d579455f-32ea-4102-b07a-687932f9cdfc{fill:url(#uuid-06c39449-5842-4f65-8028-344385a4de88);}.uuid-d579455f-32ea-4102-b07a-687932f9cdfc,.uuid-c4742833-745b-46a8-a183-9cc6d8cc6efb,.uuid-4ef48a4e-b9b4-497a-be5d-c568cf0e303f,.uuid-be051225-2551-46df-86c6-a6a7de994b48,.uuid-5679be7d-b586-4317-8962-26d8c3420bb8,.uuid-cd5698f5-5a83-40f7-9d28-dd85539f0fb0{mix-blend-mode:multiply;}.uuid-c4742833-745b-46a8-a183-9cc6d8cc6efb{fill:url(#uuid-66f87b54-7d3b-4dfc-aa25-06fec1a17869);}.uuid-4ef48a4e-b9b4-497a-be5d-c568cf0e303f{fill:url(#uuid-49483ba6-4e28-4201-ae17-c1a03f8811e0);}.uuid-be051225-2551-46df-86c6-a6a7de994b48{fill:url(#uuid-c9c6cee2-6cd6-4d38-985a-25ea279b4bea);}.uuid-5679be7d-b586-4317-8962-26d8c3420bb8{fill:url(#uuid-99967a52-2452-4f18-9971-9e0993b16094);}.uuid-cd5698f5-5a83-40f7-9d28-dd85539f0fb0{fill:url(#uuid-15d72786-7ede-4b3d-9830-12da7d2be43d);}</style><radialGradient id="uuid-66f87b54-7d3b-4dfc-aa25-06fec1a17869" cx="904.232" cy="338.716" fx="904.232" fy="338.716" r="213.047" gradientTransform="translate(40.042 -24.511) rotate(5.75)" gradientUnits="userSpaceOnUse"><stop offset="0" stop-color="#2a3c90"/><stop offset="1" stop-color="#29aae1"/></radialGradient><radialGradient id="uuid-99967a52-2452-4f18-9971-9e0993b16094" cx="929.1" cy="487.768" fx="929.1" fy="487.768" r="176.706" gradientTransform="translate(-44.157 43.031) rotate(-7.776)" gradientUnits="userSpaceOnUse"><stop offset="0" stop-color="#9e2064"/><stop offset="1" stop-color="#ea84b6"/></radialGradient><radialGradient id="uuid-c9c6cee2-6cd6-4d38-985a-25ea279b4bea" cx="949.685" cy="516.049" fx="949.685" fy="516.049" r="211.253" gradientTransform="translate(-53.018 53.135) rotate(-9.468)" gradientUnits="userSpaceOnUse"><stop offset=".011" stop-color="#f89521"/><stop offset="1" stop-color="#ffde11"/></radialGradient><radialGradient id="uuid-49483ba6-4e28-4201-ae17-c1a03f8811e0" cx="967.924" cy="478.709" fx="967.924" fy="478.709" r="262.507" gradientTransform="translate(-53.018 53.135) rotate(-9.468)" xlink:href="#uuid-66f87b54-7d3b-4dfc-aa25-06fec1a17869"/><radialGradient id="uuid-06c39449-5842-4f65-8028-344385a4de88" cx="964.446" cy="440.571" fx="964.446" fy="440.571" r="227.387" gradientTransform="translate(-53.018 53.135) rotate(-9.468)" xlink:href="#uuid-99967a52-2452-4f18-9971-9e0993b16094"/><radialGradient id="uuid-15d72786-7ede-4b3d-9830-12da7d2be43d" cx="922.798" cy="409.34" fx="922.798" fy="409.34" r="291.615" xlink:href="#uuid-c9c6cee2-6cd6-4d38-985a-25ea279b4bea"/></defs><g class="uuid-ad6bf35a-756b-4eae-b25e-d39a2603cdcf"><g id="uuid-730948c8-b7bd-4d15-91ed-a84aceeffe54"><path class="uuid-ef2b4e7b-c250-4982-ad97-23aaa0256f63" d="M15.839,513.221v-3.232c1.722,0,3.232-.646,4.525-1.939s2.424-2.798,3.394-4.525c.97-1.723,1.667-3.606,2.101-5.657.429-2.045.646-3.93.646-5.656v-165.504c0-3.661-.541-7.111-1.616-10.344-1.081-3.232-4.313-4.955-9.697-5.172v-3.232l32.648-10.021v194.272c0,1.727.212,3.611.646,5.656.429,2.051,1.131,3.935,2.101,5.657.97,1.728,2.045,3.232,3.232,4.525,1.182,1.293,2.637,1.939,4.364,1.939v3.232H15.839Z"/><path class="uuid-ef2b4e7b-c250-4982-ad97-23aaa0256f63" d="M93.738,513.221v-3.232c1.722,0,3.232-.646,4.525-1.939s2.369-2.798,3.232-4.525c.859-1.723,1.505-3.606,1.939-5.657.429-2.045.646-3.93.646-5.656v-89.54c0-3.662-.541-7.162-1.616-10.506-1.081-3.339-4.202-5.116-9.374-5.334v-2.909l32.325-10.344v118.633c0,1.727.212,3.611.646,5.656.429,2.051,1.076,3.935,1.939,5.657.859,1.728,1.939,3.232,3.232,4.525s2.798,1.939,4.525,1.939v3.232h-42.022ZM95.354,342.546c0-4.309,1.455-7.971,4.364-10.991,2.909-3.015,6.516-4.525,10.829-4.525s7.97,1.511,10.991,4.525c3.015,3.021,4.525,6.683,4.525,10.991s-1.51,7.868-4.525,10.667c-3.021,2.803-6.682,4.202-10.991,4.202s-7.919-1.399-10.829-4.202c-2.909-2.799-4.364-6.354-4.364-10.667Z"/><path class="uuid-ef2b4e7b-c250-4982-ad97-23aaa0256f63" d="M239.521,375.194c11.637,0,21.707,1.939,30.223,5.818,8.512,3.879,15.566,9.051,21.174,15.517,5.6,6.465,9.803,13.849,12.605,22.143,2.799,8.298,4.203,16.758,4.203,25.375,0,8.839-1.404,17.511-4.203,26.021-2.803,8.516-7.061,16.162-12.768,22.95-5.713,6.788-12.77,12.233-21.174,16.324s-18.102,6.142-29.092,6.142c-8.191,0-15.627-1.672-22.305-5.011-6.682-3.338-11.959-7.379-15.838-12.121v14.869h-31.679v-3.232c1.505,0,2.909-.646,4.202-1.939s2.424-2.798,3.394-4.525c.97-1.723,1.667-3.606,2.101-5.657.429-2.045.646-3.93.646-5.656v-164.857c0-3.661-.541-7.111-1.616-10.344-1.081-3.232-4.202-4.955-9.374-5.172v-3.232l32.325-10.021v92.449c4.955-4.955,10.828-8.834,17.617-11.638,6.787-2.798,13.303-4.202,19.557-4.202ZM242.754,504.494c7.758-.43,14.434-2.313,20.041-5.657,5.602-3.338,10.287-7.596,14.061-12.769,3.768-5.172,6.572-11.04,8.404-17.616,1.828-6.571,2.748-13.304,2.748-20.203,0-7.758-1.08-15.299-3.232-22.628-2.156-7.323-5.334-13.899-9.535-19.718-4.203-5.818-9.43-10.506-15.678-14.062-6.254-3.556-13.365-5.334-21.334-5.334-4.525,0-8.945,1.025-13.254,3.071-4.312,2.051-8.137,4.742-11.475,8.081-3.344,3.344-6.037,7.329-8.082,11.96-2.051,4.637-3.07,9.536-3.07,14.708v40.083c0,6.253,1.182,11.854,3.555,16.809,2.369,4.96,5.496,9.162,9.375,12.607,3.879,3.449,8.242,6.091,13.092,7.919,4.848,1.834,9.641,2.748,14.385,2.748Z"/><path class="uuid-ef2b4e7b-c250-4982-ad97-23aaa0256f63" d="M415.365,401.054c-2.586-4.309-5.283-7.001-8.081-8.081-2.804-1.076-6.036-1.616-9.697-1.616-2.374,0-4.904.54-7.597,1.616-2.697,1.08-5.334,2.479-7.92,4.202-2.586,1.727-5.121,3.611-7.596,5.656-2.48,2.051-4.581,3.935-6.304,5.657v84.045c0,1.727.212,3.556.646,5.495.43,1.939,1.131,3.828,2.101,5.656.971,1.834,2.046,3.344,3.233,4.525,1.182,1.188,2.636,1.778,4.363,1.778v3.232h-42.022v-3.232c1.506,0,2.909-.591,4.202-1.778,1.293-1.182,2.425-2.691,3.395-4.525.97-1.828,1.667-3.717,2.101-5.656.43-1.939.647-3.769.647-5.495v-90.187c0-3.016-.971-6.031-2.91-9.051-1.939-3.016-4.742-4.955-8.404-5.819v-2.586l32.648-9.697v19.396c1.939-2.369,3.985-4.688,6.142-6.95,2.151-2.263,4.576-4.309,7.273-6.142,2.691-1.828,5.656-3.339,8.889-4.525,3.232-1.183,7.001-1.778,11.314-1.778,3.015,0,6.894.646,11.637,1.939,4.737,1.293,8.616,2.697,11.637,4.202l-9.697,19.719Z"/><path class="uuid-ef2b4e7b-c250-4982-ad97-23aaa0256f63" d="M530.762,513.221v-16.485l-1.616,1.616c-5.39,5.389-11.587,9.591-18.587,12.606-7.005,3.016-15.465,4.525-25.375,4.525-7.546,0-14.011-.863-19.395-2.586-5.39-1.723-9.809-4.146-13.254-7.273-3.449-3.121-5.979-6.732-7.596-10.828-1.616-4.092-2.425-8.405-2.425-12.931,0-7.323,1.99-13.788,5.98-19.395,3.985-5.602,9.748-10.556,17.294-14.869,7.54-4.309,16.753-8.243,27.638-11.799,10.879-3.556,23.324-7.056,37.335-10.506-.435-8.404-2.156-15.192-5.172-20.364-3.021-5.172-6.576-9.213-10.667-12.122-4.097-2.909-8.404-4.849-12.931-5.818-4.525-.97-8.404-1.455-11.637-1.455-5.606,0-10.506.864-14.708,2.586-4.202,1.728-7.869,3.935-10.99,6.627-3.126,2.697-5.768,5.606-7.919,8.728-2.157,3.127-3.88,6.092-5.173,8.89h-2.909v-23.598c1.723-.212,3.339-.752,4.849-1.616,1.506-.858,3.339-1.722,5.496-2.586,3.232-1.293,7.646-3.177,13.253-5.656,5.602-2.476,13.465-3.718,23.597-3.718,11.85,0,21.44,1.511,28.77,4.525,7.323,3.021,12.98,7.006,16.971,11.961,3.984,4.959,6.626,10.616,7.919,16.97,1.293,6.359,1.939,12.88,1.939,19.557v64.004c0,4.312.97,8.354,2.91,12.121,1.939,3.773,4.525,5.657,7.758,5.657v3.232h-31.355ZM530.762,482.512v-46.225l-3.232.646c-5.172,1.293-11.476,3.021-18.91,5.173-7.435,2.156-14.495,4.959-21.173,8.404-6.682,3.449-12.395,7.546-17.132,12.283-4.743,4.742-7.111,10.238-7.111,16.485,0,6.899,2.798,12.607,8.404,17.133,5.602,4.525,12.93,6.788,21.98,6.788,7.111,0,13.359-1.561,18.749-4.688,5.384-3.121,10.344-7.162,14.869-12.122l3.556-3.879Z"/><path class="uuid-ef2b4e7b-c250-4982-ad97-23aaa0256f63" d="M672.017,401.054c-2.586-4.309-5.283-7.001-8.081-8.081-2.804-1.076-6.036-1.616-9.697-1.616-2.374,0-4.904.54-7.597,1.616-2.697,1.08-5.334,2.479-7.92,4.202-2.586,1.727-5.121,3.611-7.596,5.656-2.48,2.051-4.581,3.935-6.304,5.657v84.045c0,1.727.212,3.556.646,5.495.43,1.939,1.131,3.828,2.101,5.656.971,1.834,2.046,3.344,3.233,4.525,1.182,1.188,2.636,1.778,4.363,1.778v3.232h-42.022v-3.232c1.506,0,2.909-.591,4.202-1.778,1.293-1.182,2.425-2.691,3.395-4.525.97-1.828,1.667-3.717,2.101-5.656.43-1.939.647-3.769.647-5.495v-90.187c0-3.016-.971-6.031-2.91-9.051-1.939-3.016-4.742-4.955-8.404-5.819v-2.586l32.648-9.697v19.396c1.939-2.369,3.985-4.688,6.142-6.95,2.151-2.263,4.576-4.309,7.273-6.142,2.691-1.828,5.656-3.339,8.889-4.525,3.232-1.183,7.001-1.778,11.314-1.778,3.015,0,6.894.646,11.637,1.939,4.737,1.293,8.616,2.697,11.637,4.202l-9.697,19.719Z"/><path class="uuid-ef2b4e7b-c250-4982-ad97-23aaa0256f63" d="M753.795,559.446c-3.02,9.051-6.844,15.192-11.475,18.425-4.637,3.232-9.43,4.849-14.385,4.849-3.232,0-6.092-.434-8.566-1.293-2.479-.863-4.637-1.889-6.465-3.07-1.833-1.188-3.288-2.318-4.364-3.395-1.08-1.081-1.727-1.939-1.939-2.586l10.668-26.183c1.075,3.879,2.151,6.788,3.232,8.728,1.075,2.151,2.586,4.091,4.525,5.818,1.939,1.723,4.308,2.586,7.111,2.586,5.172,0,9.263-3.772,12.283-11.313l15.839-39.76-52.043-117.662c-1.08-2.586-2.858-5.546-5.333-8.89-2.48-3.339-5.874-5.011-10.183-5.011v-3.232h42.669v3.232c-.863,0-1.939.758-3.232,2.263-1.293,1.511-1.939,3.45-1.939,5.818,0,1.94.429,3.667,1.293,5.173l39.76,91.479,38.143-93.418c.646-1.506.97-2.91.97-4.203,0-2.151-.701-3.879-2.101-5.172-1.404-1.293-2.858-1.939-4.364-1.939v-3.232h31.355v3.232c-3.449,0-6.414,1.455-8.89,4.364-2.479,2.909-4.475,6.197-5.979,9.859l-66.59,164.533Z"/><path class="uuid-ef2b4e7b-c250-4982-ad97-23aaa0256f63" d="M246.082,356.822h.62c.662,0,1.241-.227,1.738-.683.496-.454.931-1.013,1.303-1.676.373-.661.662-1.365.869-2.11.206-.745.311-1.446.311-2.11v-66.408c0-.578-.104-1.241-.311-1.985-.207-.745-.496-1.447-.869-2.11-.372-.661-.807-1.22-1.303-1.676-.497-.454-1.076-.683-1.738-.683h-.62v-1.241h17.874v1.241h-.62c-.664,0-1.241.229-1.738.683-.496.456-.911,1.015-1.241,1.676-.332.663-.602,1.365-.807,2.11-.208.744-.311,1.407-.311,1.985v69.636h27.184c1.571,0,2.937-.372,4.097-1.117,1.158-.745,2.13-1.676,2.917-2.793.785-1.117,1.365-2.315,1.737-3.6.373-1.282.559-2.461.559-3.537h1.241v15.64h-50.892v-1.241Z"/><path class="uuid-ef2b4e7b-c250-4982-ad97-23aaa0256f63" d="M340.545,274.898c6.454,0,12.246,1.138,17.378,3.413,5.13,2.277,9.495,5.338,13.095,9.186s6.371,8.316,8.316,13.405c1.943,5.09,2.917,10.408,2.917,15.951,0,6.206-1.138,11.916-3.413,17.129-2.277,5.214-5.399,9.683-9.371,13.406-3.973,3.724-8.587,6.641-13.841,8.751-5.256,2.11-10.861,3.165-16.819,3.165-6.373,0-12.103-1.16-17.191-3.476s-9.393-5.378-12.909-9.186c-3.519-3.805-6.228-8.192-8.131-13.157-1.904-4.965-2.854-10.136-2.854-15.516,0-5.295.95-10.53,2.854-15.702,1.903-5.171,4.696-9.785,8.379-13.841,3.682-4.054,8.171-7.323,13.468-9.806,5.295-2.482,11.337-3.724,18.123-3.724ZM340.482,354.959c5.555-.248,10.425-1.509,14.612-3.785,4.186-2.275,7.688-5.171,10.508-8.689,2.818-3.517,4.911-7.386,6.28-11.605,1.367-4.221,2.052-8.398,2.052-12.537,0-4.55-.83-9.143-2.488-13.778-1.658-4.634-4.021-8.832-7.087-12.599-3.068-3.765-6.735-6.827-11.005-9.186-4.271-2.358-9.057-3.538-14.363-3.538-5.14,0-9.742,1.139-13.804,3.414-4.063,2.276-7.525,5.193-10.384,8.751-2.86,3.559-5.037,7.531-6.528,11.916-1.493,4.387-2.238,8.688-2.238,12.909,0,4.552.869,9.123,2.61,13.716,1.742,4.593,4.145,8.751,7.213,12.476,3.068,3.724,6.695,6.745,10.881,9.061,4.186,2.318,8.767,3.476,13.741,3.476Z"/><path class="uuid-ef2b4e7b-c250-4982-ad97-23aaa0256f63" d="M393.173,276.139h17.626v1.241h-.621c-.663,0-1.241.229-1.737.683-.497.456-.931,1.015-1.304,1.676-.372.663-.642,1.365-.807,2.11-.167.744-.248,1.407-.248,1.985v49.03c0,3.228.329,6.207.993,8.938.661,2.73,1.778,5.089,3.352,7.075,1.57,1.986,3.64,3.538,6.206,4.655,2.563,1.117,5.71,1.676,9.434,1.676,4.137,0,7.447-.662,9.931-1.986,2.482-1.323,4.385-3.041,5.709-5.151,1.323-2.11,2.192-4.488,2.607-7.138.413-2.647.62-5.254.62-7.819v-49.279c0-.578-.083-1.241-.248-1.985-.167-.745-.435-1.447-.807-2.11-.373-.661-.807-1.22-1.304-1.676-.496-.454-1.035-.683-1.613-.683h-.621v-1.241h13.53v1.241h-.621c-.663,0-1.222.229-1.676.683-.455.456-.868,1.015-1.241,1.676-.372.663-.642,1.365-.807,2.11-.167.744-.248,1.407-.248,1.985v48.906c0,5.381-.663,9.787-1.986,13.22-1.324,3.435-3.146,6.145-5.461,8.131-2.318,1.985-5.027,3.351-8.131,4.096s-6.393,1.117-9.868,1.117c-3.724,0-7.18-.394-10.364-1.179-3.187-.786-5.939-2.173-8.255-4.159-2.317-1.985-4.139-4.695-5.462-8.13-1.324-3.433-1.985-7.758-1.985-12.972v-49.03c0-.578-.084-1.241-.248-1.985-.167-.745-.435-1.447-.808-2.11-.372-.661-.807-1.22-1.303-1.676-.497-.454-1.036-.683-1.614-.683h-.62v-1.241Z"/><path class="uuid-ef2b4e7b-c250-4982-ad97-23aaa0256f63" d="M466.159,276.139h17.626v1.241h-.62c-.58,0-1.117.229-1.614.683-.496.456-.911.993-1.241,1.613-.331.621-.601,1.325-.807,2.11-.207.787-.311,1.47-.311,2.048v66.16c0,.663.082,1.387.249,2.172.164.788.434,1.512.807,2.173.372.663.785,1.241,1.241,1.737.454.497,1.013.745,1.676.745h.62v1.241h-17.626v-1.241h.621c.661,0,1.241-.227,1.737-.683.497-.454.932-1.034,1.304-1.738.372-.702.64-1.446.807-2.234.165-.785.248-1.509.248-2.172v-66.16c0-.578-.083-1.241-.248-1.985-.167-.745-.435-1.447-.807-2.11-.372-.661-.807-1.22-1.304-1.676-.496-.454-1.076-.683-1.737-.683h-.621v-1.241Z"/><path class="uuid-ef2b4e7b-c250-4982-ad97-23aaa0256f63" d="M546.097,336.092c0,4.139-.83,7.677-2.49,10.613-1.66,2.938-3.796,5.317-6.41,7.137-2.614,1.821-5.562,3.146-8.84,3.973-3.278.826-6.536,1.241-9.771,1.241-3.32,0-6.186-.332-8.592-.993-2.407-.661-4.606-1.282-6.597-1.862-1.324-.413-2.525-.764-3.6-1.055-1.076-.289-2.152-.435-3.228-.435v-14.15h1.241c0,3.146.808,5.647,2.421,7.51s3.499,3.289,5.657,4.282c2.159.993,4.317,1.635,6.479,1.924,2.158.291,3.737.435,4.734.435,3.57,0,6.643-.516,9.218-1.552,2.574-1.033,4.692-2.398,6.354-4.096,1.66-1.695,2.886-3.578,3.675-5.648.787-2.067,1.184-4.177,1.184-6.33,0-2.73-.58-5.027-1.738-6.889-1.16-1.862-2.669-3.495-4.53-4.903-1.862-1.406-3.994-2.606-6.393-3.6-2.401-.993-4.841-1.986-7.324-2.979-2.813-1.074-5.585-2.191-8.316-3.352-2.73-1.157-5.172-2.585-7.323-4.282-2.152-1.695-3.891-3.724-5.213-6.082-1.325-2.358-1.986-5.275-1.986-8.751,0-3.641.702-6.806,2.11-9.496,1.406-2.688,3.289-4.902,5.647-6.641,2.358-1.737,5.047-3.041,8.068-3.91,3.02-.868,6.102-1.303,9.247-1.303,2.151,0,4.178.146,6.083.435,1.902.29,3.724.642,5.461,1.055,1.406.332,2.771.602,4.097.807,1.322.208,2.606.311,3.848.311v12.785h-1.241c-.167-4.302-1.868-7.219-5.106-8.751-3.239-1.53-7.726-2.297-13.454-2.297-3.322,0-6.042.559-8.16,1.676-2.117,1.117-3.799,2.482-5.044,4.097-1.245,1.613-2.097,3.352-2.555,5.213-.458,1.862-.685,3.497-.685,4.903,0,2.317.518,4.304,1.556,5.958,1.037,1.656,2.428,3.104,4.17,4.345,1.741,1.241,3.755,2.358,6.037,3.352,2.283.993,4.669,1.945,7.159,2.854,2.819,1.076,5.683,2.234,8.588,3.476s5.498,2.773,7.781,4.593c2.283,1.821,4.15,4.056,5.604,6.703,1.45,2.649,2.178,5.877,2.178,9.682Z"/><path class="uuid-ef2b4e7b-c250-4982-ad97-23aaa0256f63" d="M556.646,356.822h.62c.578,0,1.117-.248,1.614-.745s.931-1.074,1.303-1.737c.373-.661.641-1.385.808-2.173.164-.785.248-1.509.248-2.172v-66.036c0-.577-.084-1.241-.248-1.985-.167-.745-.435-1.469-.808-2.173-.372-.702-.828-1.281-1.365-1.737-.539-.454-1.139-.683-1.8-.683h-.62v-1.241h20.356c7.696,0,13.716,1.696,18.061,5.089,4.345,3.395,6.517,7.903,6.517,13.53,0,2.4-.415,4.552-1.241,6.454-.828,1.905-1.883,3.6-3.165,5.09-1.284,1.489-2.669,2.752-4.158,3.785-1.489,1.036-2.897,1.884-4.221,2.545,3.476.663,6.371,1.78,8.689,3.352,2.315,1.573,4.185,3.373,5.604,5.399,1.42,2.028,2.413,4.201,2.979,6.517.566,2.317.85,4.593.85,6.827,0,4.304-.786,7.925-2.353,10.861-1.567,2.938-3.652,5.337-6.251,7.199-2.6,1.862-5.57,3.208-8.912,4.034-3.344.828-6.788,1.241-10.338,1.241h-22.17v-1.241ZM593.264,295.813c-.248-4.817-1.924-8.641-5.027-11.464-3.103-2.824-7.261-4.238-12.475-4.238h-6.206v31.404h6.454c3.476,0,6.31-.456,8.503-1.371,2.191-.913,3.951-2.097,5.275-3.552,1.323-1.452,2.234-3.051,2.731-4.796.496-1.745.744-3.448.744-5.11v-.873ZM598.354,335.536c-.664-6.393-2.814-11.33-6.455-14.817-3.643-3.487-8.772-5.231-15.392-5.231h-6.951v38.604h7.199c6.703,0,11.979-1.516,15.826-4.545s5.772-7.244,5.772-12.64v-1.371Z"/><path class="uuid-ef2b4e7b-c250-4982-ad97-23aaa0256f63" d="M617.345,276.139h17.626v1.241h-.621c-.663,0-1.241.229-1.737.683-.497.456-.931,1.015-1.304,1.676-.372.663-.642,1.365-.807,2.11-.167.744-.248,1.407-.248,1.985v49.03c0,3.228.329,6.207.993,8.938.661,2.73,1.778,5.089,3.352,7.075,1.57,1.986,3.64,3.538,6.206,4.655,2.563,1.117,5.71,1.676,9.434,1.676,4.137,0,7.447-.662,9.931-1.986,2.482-1.323,4.385-3.041,5.709-5.151,1.323-2.11,2.192-4.488,2.607-7.138.413-2.647.62-5.254.62-7.819v-49.279c0-.578-.083-1.241-.248-1.985-.167-.745-.435-1.447-.807-2.11-.373-.661-.807-1.22-1.304-1.676-.496-.454-1.035-.683-1.613-.683h-.621v-1.241h13.53v1.241h-.621c-.663,0-1.222.229-1.676.683-.455.456-.868,1.015-1.241,1.676-.372.663-.642,1.365-.807,2.11-.167.744-.248,1.407-.248,1.985v48.906c0,5.381-.663,9.787-1.986,13.22-1.324,3.435-3.146,6.145-5.461,8.131-2.318,1.985-5.027,3.351-8.131,4.096s-6.393,1.117-9.868,1.117c-3.724,0-7.18-.394-10.364-1.179-3.187-.786-5.939-2.173-8.255-4.159-2.317-1.985-4.139-4.695-5.462-8.13-1.324-3.433-1.985-7.758-1.985-12.972v-49.03c0-.578-.084-1.241-.248-1.985-.167-.745-.435-1.447-.808-2.11-.372-.661-.807-1.22-1.303-1.676-.497-.454-1.036-.683-1.614-.683h-.62v-1.241Z"/><path class="uuid-ef2b4e7b-c250-4982-ad97-23aaa0256f63" d="M706.716,356.822h.621v1.241h-17.502v-1.241h.62c.578,0,1.117-.248,1.614-.745s.931-1.074,1.303-1.737c.373-.661.641-1.385.808-2.173.164-.785.248-1.509.248-2.172v-66.16c0-.578-.084-1.241-.248-1.985-.167-.745-.435-1.447-.808-2.11-.372-.661-.807-1.22-1.303-1.676-.497-.454-1.036-.683-1.614-.683h-.62v-1.241h21.598c8.274,0,14.667,1.613,19.178,4.841,4.51,3.228,6.766,7.986,6.766,14.274,0,3.146-.519,5.896-1.552,8.255-1.036,2.358-2.421,4.387-4.158,6.082-1.738,1.697-3.786,3.062-6.145,4.096-2.358,1.036-4.862,1.8-7.51,2.297l8.938,13.654c2.15,3.311,4.344,6.559,6.578,9.743,2.234,3.188,4.426,6.477,6.579,9.868.578.828,1.22,1.697,1.924,2.607.702.911,1.447,1.737,2.234,2.482.785.744,1.613,1.346,2.482,1.8.869.456,1.757.683,2.669.683v1.241h-5.338c-3.311,0-6.02-.807-8.13-2.421-2.11-1.613-3.869-3.494-5.275-5.647-3.724-5.462-7.429-11.005-11.109-16.633-3.684-5.627-7.345-11.172-10.985-16.633-.912-.082-1.884-.187-2.917-.311-1.036-.124-2.008-.268-2.917-.435v34.011c0,.663.081,1.387.248,2.172.165.788.435,1.512.807,2.173.373.663.786,1.241,1.241,1.737.454.497,1.013.745,1.676.745ZM702.744,280.359v31.528h.62c.662.084,1.717.146,3.166.187,1.446.043,3.246.062,5.399.062,1.737,0,3.578-.268,5.523-.808,1.943-.537,3.765-1.446,5.462-2.73,1.694-1.282,3.103-2.958,4.22-5.027,1.117-2.067,1.676-4.674,1.676-7.819s-.601-5.71-1.8-7.696c-1.2-1.986-2.854-3.557-4.965-4.717-2.11-1.158-4.655-1.943-7.634-2.358-2.979-.413-6.249-.621-9.807-.621h-1.861Z"/><path class="uuid-ef2b4e7b-c250-4982-ad97-23aaa0256f63" d="M810.238,314.867h17.75v1.241h-.621c-.663,0-1.241.229-1.737.683-.497.456-.912,1.015-1.241,1.676-.332.663-.602,1.365-.807,2.11-.208.744-.311,1.408-.311,1.986v33.266c-1.49.58-3.187,1.076-5.09,1.489-1.904.415-3.891.765-5.958,1.056-2.069.289-4.18.516-6.33.683-2.153.165-4.139.248-5.958.248-7.448,0-13.945-1.241-19.488-3.724-5.545-2.482-10.138-5.729-13.778-9.744-3.643-4.013-6.352-8.543-8.13-13.592-1.78-5.047-2.669-10.136-2.669-15.268s.889-10.22,2.669-15.268c1.778-5.047,4.509-9.559,8.192-13.53,3.681-3.972,8.316-7.178,13.902-9.62,5.585-2.439,12.227-3.661,19.922-3.661,2.896,0,5.586.248,8.068.744,2.482.497,4.675.952,6.579,1.365,1.074.249,2.005.478,2.793.684.785.207,1.468.31,2.048.31h1.117v13.158h-1.241c-.497-2.564-1.471-4.634-2.917-6.207-1.449-1.57-3.125-2.771-5.027-3.6-1.904-.826-3.91-1.385-6.021-1.676-2.109-.289-4.076-.435-5.896-.435-6.206,0-11.587,1.098-16.137,3.29-4.552,2.193-8.275,5.027-11.172,8.502-2.897,3.476-5.048,7.386-6.454,11.73-1.408,4.345-2.11,8.67-2.11,12.972,0,4.8.91,9.538,2.73,14.212,1.819,4.677,4.386,8.856,7.696,12.537,3.309,3.684,7.302,6.662,11.979,8.938,4.674,2.276,9.868,3.413,15.578,3.413,1.57,0,3.516-.186,5.834-.559,2.315-.372,4.633-1.22,6.951-2.544v-29.17c0-.578-.084-1.242-.249-1.986-.166-.745-.434-1.447-.807-2.11-.372-.661-.807-1.22-1.303-1.676-.497-.454-1.077-.683-1.738-.683h-.62v-1.241Z"/><path class="uuid-c4742833-745b-46a8-a183-9cc6d8cc6efb" d="M819.626,496.464c-1.139-27.368,17.948-89.317,84.12-92.242,56.531-2.51,90.287,52.967,92.232,84.12,3.892,60.854-93.841,225.196-93.841,225.196,0,0-79.898-159.122-82.512-217.074Z"/><path class="uuid-5679be7d-b586-4317-8962-26d8c3420bb8" d="M929.359,526.218c-17.221-21.35-38.573-82.58,12.94-124.097,44.053-35.563,104.083-10.937,124.082,12.92,39.189,46.714,58.119,236.982,58.119,236.982,0,0-158.692-80.64-195.141-125.804Z"/><path class="uuid-be051225-2551-46df-86c6-a6a7de994b48" d="M1067.03,492.237c-27.221,2.467-89.987-13.779-96.018-79.663-5.154-56.379,48.626-92.649,79.673-96.083,60.607-6.723,229.314,83.226,229.314,83.226,0,0-155.154,87.224-212.97,92.52Z"/><path class="uuid-4ef48a4e-b9b4-497a-be5d-c568cf0e303f" d="M1108.643,378.522c-22.378,15.68-84.934,32.908-122.974-21.259-32.509-46.298-3.96-104.513,21.269-122.963,49.139-36.065,240.254-42.149,240.254-42.149,0,0-91.05,152.995-138.55,186.37Z"/><path class="uuid-d579455f-32ea-4102-b07a-687932f9cdfc" d="M1077.649,270.236c-8.73,25.89-48.992,76.744-111.705,55.573-53.654-18.102-65.016-81.999-55.611-111.71,18.357-58.172,168.903-176.092,168.903-176.092,0,0,16.953,177.183-1.586,232.229Z"/><path class="uuid-cd5698f5-5a83-40f7-9d28-dd85539f0fb0" d="M991.359,197.106c6.389,26.622-.409,91.07-64.728,106.695-55.058,13.321-98.808-34.585-106.733-64.723-15.592-58.998,48.662-239.078,48.662-239.078,0,0,109.059,140.669,122.799,197.106Z"/></g></g></svg>