<svg xmlns="http://www.w3.org/2000/svg" xml:space="preserve" id="Layer_1" x="0" y="0" style="enable-background:new 0 0 2400 1645" version="1.1" viewBox="0 0 2400 1645"><style>.st0{fill:#a82723}</style><path d="M275.1 1401.5c-.2-1.1-.3-2.1-.3-2.9 0 .8.1 1.8.3 2.9.4 2.1 1.1 3.9 1.9 5.4v.1-.1c-.7-1.5-1.5-3.3-1.9-5.4M362.8 1408.4c.9.5 1.9.9 2.9 1.3l1.5.6c-1.3-.8-2.7-1.4-4.2-1.8-.1 0-.2-.1-.2-.1M425 1398.6c-.1 2.8-.2 5.6-.4 8.2v.2-.1c.1-2.7.3-5.5.4-8.3M924.1 474.3c0-34-.7-39.1-21-40.8l-8.1-.6c-2-1.3-1.3-7.1.6-8.1 18.1.6 29.1 1 42.1 1 12.6 0 23.6-.3 39.8-1 1.9 1 2.6 6.8.6 8.1l-7.7.6c-19.1 1.6-19.7 6.8-19.7 40.8v112.5c0 20.4 1 28.8 6.8 34.9 3.6 3.6 9.7 7.4 35.3 7.4 27.5 0 34.3-1.3 39.4-4.2 6.5-3.9 14.9-15.5 21.3-32 1.9-1.6 8.1-.3 8.1 1.9 0 3.6-9.1 36.6-13.6 45.3-16.5-.6-47.2-1-80.5-1h-29.7c-13.6 0-23.9.3-42.1 1-1.9-1-2.6-6.1-.6-8.1l9.7-1c18.8-1.9 19.4-6.5 19.4-40.4V474.3zM1138.1 572.2c4.9-1.6 5.5-4.5 5.5-9.4l.3-14.9c.3-12-3.6-28.1-23.6-28.1-9 0-20 4.5-20.7 14.5-.3 5.2-.7 9.1-3.2 11-4.9 3.9-13.6 6.2-18.4 6.2-2.9 0-4.5-1.6-4.5-4.5 0-16.8 36.6-39.8 60.1-39.8 23.3 0 34.6 13.6 33.6 37.8l-1.9 56.3c-.7 14.9 2.3 28.1 14.9 28.1 3.2 0 6.1-1 8.1-1.9 1.6-1 3.2-2.3 4.2-2.3 1.3 0 2.3 1.9 2.3 4.2 0 1.6-11.3 14.2-27.2 14.2-7.8 0-15.6-2.9-21-10-1.3-2-3.2-4.5-5.2-4.5-2.3 0-6.2 2.9-12.6 6.5-7.1 3.9-14.2 8.1-23.3 8.1-9.4 0-17.2-2.6-22.7-7.4-6.1-5.5-10-13.6-10-22.7 0-12.6 6.2-20 26.9-27.5l38.4-13.9zm-20 57c6.5 0 16.5-4.8 19.8-8.1 3.9-3.9 3.9-8.4 4.2-15.2l.7-19.1c0-3.6-1.3-4.2-3.2-4.2s-7.4 1.3-13.3 3.2c-19.1 6.5-28.5 11.3-28.5 23.9-.1 5.6 3.8 19.5 20.3 19.5M1216.4 543.1c-7.4-18.1-11.3-21.3-19.4-23.3l-5.2-1.3c-1.6-1.6-1.9-6.4 1-7.7 10 .7 19.1 1 28.8 1 10 0 19.4-.3 28.1-1 2.6 1.3 2.9 6.1.6 7.7l-7.4 1.3c-4.5.6-7.1 2.6-7.1 4.5s1.6 8.1 5.2 16.8l20 49.5c2.9 7.4 5.8 13.3 5.8 13.9 1-.6 3.6-6.1 7.4-15.5l15.8-39.1c4.2-10.4 4.5-14.5 2.9-18.8-2.9-7.1-7.7-9.7-14.8-11.3l-5.2-1.3c-2.3-1.9-1.6-6.8 1-7.7 8.1.7 18.4 1 26.9 1 10 0 19.7-.3 30.7-1 2.9 1 2.9 6.1 1 7.7l-6.8 1.3c-12.9 2.6-12.3 3.5-8.4 14.8 3.6 10.7 21 51.7 24.6 60.5 2 4.9 3.2 8.4 4.2 9 .6-.6 2.3-3.9 4.5-9 4.2-9.4 17.1-43.7 22-57.2 2.6-7.4 3.2-11.6 3.2-13.9 0-2-1.9-3.6-5.8-4.2l-8.1-1.3c-2.6-1.6-1.9-6.8.3-7.7 9.4.7 17.5 1 25.5 1 6.2 0 13.9-.3 21-1 2.6 1.3 2.9 6.1 1 7.7l-6.5 1.3c-7.8 1.6-10.6 6.1-17.5 20.4-8.7 18.1-24.2 56.9-30.4 73.4-4.5 11.6-8.4 21-11 29.4-1.3 1-2.6 1.3-4.2 1.3-1.3 0-2.6-.3-3.6-1.3-1.9-5.8-7.8-22.6-13.2-35.6l-15.5-37.2c-2.3-5.8-7.1-16.5-7.4-16.5-.3 0-4.9 10-7.1 15.8l-16.8 40.4c-5.8 13.9-10.3 25.5-12.9 33-1 1-2.3 1.3-3.9 1.3-1.3 0-2.9-.3-3.9-1.3-2-6.8-7.1-20-9.7-26.8l-29.7-73zM1437.2 546.4c0-12.6 0-14.2-8.7-20l-2.9-1.9c-1.3-1.3-1.3-4.9.3-5.8 7.4-2.6 24.6-11 32.6-15.8 1.6.3 2.6 1 2.6 2.3V524c0 1.6.3 2.6 1 2.9 11.3-9.4 23.6-19.4 35.6-19.4 8.1 0 14.6 5.2 14.6 12.9 0 10.7-8.7 14.9-13.9 14.9-3.2 0-4.8-1-7.1-2.3-4.8-3.2-9.7-5.2-14.2-5.2-5.2 0-9.1 2.9-11.6 6.5-3.2 4.5-4.2 13.9-4.2 24.9v44c0 23.3.7 27.2 12.9 28.1l11.6 1c2.2 1.6 1.6 7.1-.6 8.1-15.2-.6-24.6-1-35.9-1-11.6 0-21.3.3-29.7 1-2.3-1-2.9-6.5-.6-8.1l6.2-1c11.9-2 12.3-4.9 12.3-28.1v-56.8zM1552 556.4c-8.4 0-8.7.6-8.7 8.7 0 32.6 19.1 60.5 53.7 60.5 10.7 0 19.7-3.2 29.7-15.8 3.2-1 5.5 1 5.8 3.9-10.7 22-33.9 30.1-50.8 30.1-21 0-37.5-9.1-46.9-21.4-9.7-12.6-13.6-27.8-13.6-42 0-39.8 26.2-73.1 65-73.1 27.8 0 45.9 19.1 45.9 38.5 0 4.5-.7 7.1-1.3 8.4-1 2-5.5 2.3-19.1 2.3H1552zm20.1-9.7c23.9 0 31-1.3 33.6-3.2 1-.6 2-1.9 2-6.1 0-9.1-6.2-20.4-24.9-20.4-19.1 0-35.6 17.5-35.9 28.1 0 .7 0 1.6 2.3 1.6h22.9zM1669.7 546.4c0-12.6 0-14.2-8.7-20l-2.9-1.9c-1.3-1.3-1.3-4.9.3-5.8 7.4-2.6 25.9-11 32.3-15.8 1.3 0 2.9.6 3.6 2.3-.7 7.4-.7 12.3-.7 15.2 0 2 1.3 3.6 3.6 3.6 13.6-8.4 28.8-16.5 45.2-16.5 26.9 0 37.9 18.4 37.9 40.1V603c0 23.3.6 26.5 12.3 28.1l7.1 1c2.3 1.6 1.6 7.1-.6 8.1-9.7-.6-19.1-1-30.4-1-11.6 0-21.3.3-30.1 1-2.2-1-2.9-6.5-.6-8.1l6.1-1c12-2 12.3-4.9 12.3-28.1v-48.2c0-18.4-8.4-32-30.4-32-12.3 0-23 5.2-27.5 11.3-4.2 5.5-4.9 10-4.9 19.4V603c0 23.3.7 26.2 12.3 28.1l5.8 1c2.2 1.6 1.6 7.1-.7 8.1-8.7-.6-18.1-1-29.4-1-11.6 0-21.3.3-30.4 1-2.3-1-2.9-6.5-.7-8.1l6.8-1c11.9-1.6 12.3-4.9 12.3-28.1v-56.6zM1926.5 512.7c2.6 2.3 4.9 7.4 4.9 12.9 0 5.8-3.2 12-7.1 12-1.6 0-3.2-.7-4.5-2.3-7.1-8.7-19.1-17.1-32.3-17.1-22.7 0-44.6 17.8-44.6 52.1 0 25.2 17.5 55.3 52.1 55.3 18.8 0 28.4-8.4 35.9-19.4 2.6-.6 5.5 1.6 5.8 4.5-11 24-35.3 33-54 33-17.1 0-33-5.5-44.3-16.5-11.3-11-18.8-26.8-18.8-47.9 0-34.9 24.6-72.1 78.3-72.1 7.2 0 19.8 1.7 28.6 5.5M1979.2 556.4c-8.4 0-8.7.6-8.7 8.7 0 32.6 19.1 60.5 53.7 60.5 10.7 0 19.7-3.2 29.7-15.8 3.2-1 5.5 1 5.8 3.9-10.7 22-33.9 30.1-50.8 30.1-21 0-37.5-9.1-46.9-21.4-9.7-12.6-13.6-27.8-13.6-42 0-39.8 26.2-73.1 65-73.1 27.8 0 45.9 19.1 45.9 38.5 0 4.5-.7 7.1-1.3 8.4-1 2-5.5 2.3-19.1 2.3h-59.7zm20-9.7c23.9 0 31-1.3 33.6-3.2 1-.6 2-1.9 2-6.1 0-9.1-6.1-20.4-24.9-20.4-19.1 0-35.6 17.5-35.9 28.1 0 .7 0 1.6 2.3 1.6h22.9zM950.6 855.8c0 33.9.6 38.2 21.3 40.4l8.7 1c1.9 1.6 1.3 7.1-.7 8.1-18.4-.6-29.1-1-42-1-13.6 0-25.2.3-39.5 1-1.9-1-2.6-6.2-.6-8.1l6.8-1c18.7-2.6 19.4-6.5 19.4-40.4V736.5c0-27.5-.7-33-15.2-34.6l-11.6-1.3c-2.2-1.9-1.9-6.8.7-8.1 17.1-2.3 37.2-2.6 64-2.6 26.8 0 46.9 3.5 62.1 12.9 14.8 9.4 25.9 26.2 25.9 48.5 0 29.7-18.4 44.6-32.4 51.4-14.2 6.8-31.4 9.7-44.6 9.7-2.3-1-2.3-5.8-.3-6.4 34.9-6.5 47.5-26.2 47.5-54.3 0-31.4-18.4-51.8-52.1-51.8-17.1 0-17.4 1.3-17.4 11.6v144.3zM1082.2 811.5c0-12.6 0-14.2-8.7-20l-2.9-1.9c-1.3-1.3-1.3-4.9.3-5.8 7.4-2.6 24.6-11 32.7-15.8 1.6.3 2.6 1 2.6 2.3v18.8c0 1.6.3 2.6 1 2.9 11.3-9.4 23.6-19.4 35.6-19.4 8.1 0 14.5 5.2 14.5 12.9 0 10.7-8.7 14.9-13.9 14.9-3.2 0-4.9-1-7.1-2.3-4.9-3.2-9.7-5.2-14.2-5.2-5.2 0-9.1 2.9-11.6 6.5-3.2 4.5-4.2 13.9-4.2 24.9v44c0 23.3.6 27.2 12.9 28.2l11.6 1c2.2 1.6 1.6 7.1-.6 8.1-15.2-.6-24.6-1-35.9-1-11.6 0-21.4.3-29.7 1-2.3-1-2.9-6.4-.6-8.1l6.2-1c11.9-2 12.3-4.9 12.3-28.2v-56.8zM1197 821.6c-8.4 0-8.7.7-8.7 8.7 0 32.6 19.1 60.5 53.7 60.5 10.7 0 19.7-3.2 29.7-15.8 3.2-1 5.5 1 5.8 3.9-10.7 22-33.9 30.1-50.8 30.1-21 0-37.5-9.1-46.9-21.3-9.7-12.6-13.6-27.8-13.6-42 0-39.8 26.2-73.1 65-73.1 27.8 0 45.9 19.1 45.9 38.5 0 4.5-.6 7.1-1.3 8.4-1 2-5.5 2.3-19.1 2.3H1197zm20-9.7c23.9 0 31-1.3 33.6-3.2 1-.6 2-1.9 2-6.1 0-9-6.2-20.4-24.9-20.4-19.1 0-35.6 17.5-35.9 28.2 0 .7 0 1.6 2.3 1.6h22.9zM1371.6 778.2c2.9 7.1 5.2 17.5 5.2 26.2-1.3 2.3-6.2 2.9-7.8 1-5.5-14.2-15.2-23.6-28.4-23.6-12.6 0-20.7 8.1-20.7 19.7 0 13.3 13.6 20.4 24.9 26.8 17.1 9.7 33 20.7 33 43.7 0 24.6-22.6 36.8-46.6 36.8-15.2 0-26.5-3.2-34.6-9.7-2.6-6.1-4.5-22-3.9-32.7 1.6-1.9 5.8-2.2 7.5-.3 5.5 17.8 15.8 33.3 34.3 33.3 11.6 0 21.7-6.8 21.7-20.7 0-14.9-13-23-24.9-29.8-18.8-10.7-32-22-32-39.8 0-23.6 19.4-36.9 44-36.9 13.4.2 25.4 3.4 28.3 6M1429.5 821.6c-8.4 0-8.7.7-8.7 8.7 0 32.6 19.1 60.5 53.7 60.5 10.7 0 19.7-3.2 29.7-15.8 3.2-1 5.5 1 5.8 3.9-10.7 22-33.9 30.1-50.8 30.1-21 0-37.5-9.1-46.9-21.3-9.7-12.6-13.6-27.8-13.6-42 0-39.8 26.2-73.1 65-73.1 27.8 0 45.9 19.1 45.9 38.5 0 4.5-.6 7.1-1.3 8.4-1 2-5.5 2.3-19.1 2.3h-59.7zm20-9.7c23.9 0 31.1-1.3 33.6-3.2 1-.6 2-1.9 2-6.1 0-9-6.1-20.4-24.9-20.4-19.1 0-35.6 17.5-35.9 28.2 0 .7 0 1.6 2.3 1.6h22.9zM1547.2 811.5c0-12.6 0-14.2-8.7-20l-2.9-1.9c-1.3-1.3-1.3-4.9.3-5.8 7.4-2.6 24.6-11 32.7-15.8 1.6.3 2.6 1 2.6 2.3v18.8c0 1.6.3 2.6 1 2.9 11.3-9.4 23.6-19.4 35.6-19.4 8.1 0 14.5 5.2 14.5 12.9 0 10.7-8.7 14.9-13.9 14.9-3.2 0-4.9-1-7.1-2.3-4.9-3.2-9.7-5.2-14.2-5.2-5.2 0-9 2.9-11.7 6.5-3.2 4.5-4.2 13.9-4.2 24.9v44c0 23.3.6 27.2 12.9 28.2l11.6 1c2.2 1.6 1.6 7.1-.6 8.1-15.2-.6-24.6-1-35.9-1-11.6 0-21.3.3-29.7 1-2.3-1-2.9-6.4-.6-8.1l6.2-1c11.9-2 12.3-4.9 12.3-28.2v-56.8zM1655.2 808.9c-4.8-12-7.8-22.3-19.4-23.9l-6.5-1c-1.9-2.6-1.6-7.1 1-8.1 8.1.6 19.4 1 30.4 1 8.7 0 15.2-.3 26.2-1 2.3 1.3 2.6 6.5.3 8.1l-3.9.7c-10 1.6-10.3 3.2-7.1 12.9 7.4 22.3 16.8 44.9 24.2 61.8 2.9 6.5 4.2 9.4 5.2 10.4 1.3-1 3.6-5.5 6.2-12.3 4.2-11 15.2-39.1 18.4-47.6 4.5-11.3 5.8-18.1 5.8-20 0-2.9-1.9-4.2-5.8-4.8l-7.4-1c-2-2.2-1.6-6.8.6-8.1 10 .6 18.1 1 24.2 1 8.1 0 13.6-.3 22.6-1 2.3 1.3 2.6 6.1.7 8.1l-4.9.7c-11.3 1.6-14.2 10-23.6 28.1-4.5 8.7-24.6 55.6-29.8 68.9-3.2 8.1-6.5 15.5-10.7 26.5-.6 1-2 1.3-3.2 1.3-1.6 0-3.2-.3-4.2-1.3-2.6-9.1-7.4-21.7-12.3-33.6l-27-65.8zM1843.4 837.4c4.9-1.6 5.5-4.5 5.5-9.4l.3-14.9c.3-12-3.6-28.1-23.6-28.1-9.1 0-20 4.5-20.7 14.5-.3 5.2-.7 9.1-3.2 11-4.9 3.9-13.6 6.2-18.5 6.2-2.9 0-4.5-1.6-4.5-4.5 0-16.8 36.5-39.8 60.1-39.8 23.3 0 34.6 13.6 33.6 37.8l-1.9 56.3c-.7 14.9 2.3 28.2 14.8 28.2 3.2 0 6.2-1 8.1-1.9 1.6-1 3.2-2.3 4.2-2.3 1.3 0 2.3 2 2.3 4.2 0 1.6-11.3 14.2-27.2 14.2-7.8 0-15.6-2.9-21-10-1.3-2-3.2-4.5-5.2-4.5-2.3 0-6.2 2.9-12.6 6.5-7.1 3.9-14.3 8.1-23.3 8.1-9.4 0-17.1-2.6-22.6-7.4-6.2-5.5-10.1-13.6-10.1-22.6 0-12.6 6.2-20 26.9-27.5l38.6-14.1zm-20.1 56.9c6.5 0 16.5-4.9 19.8-8.1 3.9-3.9 3.9-8.4 4.2-15.2l.7-19.1c0-3.6-1.3-4.2-3.2-4.2-1.9 0-7.4 1.3-13.3 3.2-19.1 6.5-28.5 11.3-28.5 23.9-.1 5.6 3.8 19.5 20.3 19.5M1955.6 790.5c-5.5 0-5.8 1-5.8 7.8v60.5c0 18.8 2.3 35.9 23.6 35.9 3.2 0 6.1-.7 8.8-1.6 2.9-1 7.1-4.5 8.1-4.5 2.6 0 3.9 3.6 3.2 5.5-5.8 6.8-17.5 14.9-33.9 14.9-27.8 0-33.6-15.5-33.6-34.9V800c0-8.7-.3-9.4-6.8-9.4h-9.1c-2-1.3-2.3-4.8-1-6.8 9.4-2.9 17.5-7.1 20.7-10 4.2-3.9 10.4-12.6 13.6-19.1 1.6-.6 5.5-.6 6.8 1.6v14.5c0 5.8.3 6.2 5.8 6.2h35.9c3.9 2.9 3.2 11.6.3 13.6h-36.6zM2028.3 811.5c0-12.6 0-14.2-8.7-20l-2.9-1.9c-1.3-1.3-1.3-4.9.3-5.8 7.4-2.6 25.9-11 33.3-15.8 1.6 0 2.9.7 3.2 1.9-.6 11.3-1.3 26.8-1.3 40.1v58.2c0 23.3.7 26.5 12.3 28.1l6.8 1c2.2 1.6 1.6 7.1-.7 8.1-9.7-.6-19.1-1-30.4-1-11.6 0-21.3.3-30.4 1-2.3-1-3-6.5-.7-8.1l6.8-1c12-1.6 12.3-4.9 12.3-28.1v-56.7zm26.9-92.1c0 11.6-8.1 16.8-17.1 16.8-10 0-16.5-7.4-16.5-16.2 0-10.7 7.8-17.5 17.5-17.5 9.6.1 16.1 7.8 16.1 16.9M2225.6 839.4c0 40.4-27.8 69.5-68.2 69.5-37.2 0-66.3-26.2-66.3-66.6 0-40.7 30.7-69.8 68.9-69.8 36.1-.1 65.6 27.1 65.6 66.9m-69.5-57.3c-21.4 0-37.2 20.4-37.2 55.9 0 29.4 13.3 61.1 41.7 61.1 28.5 0 37.2-29.8 37.2-54.6 0-27.5-11-62.4-41.7-62.4M2268.6 811.5c0-12.6 0-14.2-8.7-20l-2.9-1.9c-1.3-1.3-1.3-4.9.3-5.8 7.4-2.6 25.9-11 32.4-15.8 1.3 0 2.9.7 3.6 2.3-.7 7.4-.7 12.3-.7 15.2 0 2 1.3 3.6 3.6 3.6 13.6-8.4 28.8-16.5 45.3-16.5 26.8 0 37.8 18.4 37.8 40.1v55.6c0 23.3.7 26.5 12.3 28.2l7.1 1c2.3 1.6 1.6 7.1-.7 8.1-9.7-.6-19.1-1-30.4-1-11.6 0-21.4.3-30.1 1-2.2-1-2.9-6.4-.6-8.1l6.1-1c11.9-2 12.3-4.9 12.3-28.2v-48.2c0-18.4-8.4-32-30.4-32-12.3 0-23 5.2-27.5 11.3-4.2 5.5-4.8 10-4.8 19.4v49.5c0 23.3.7 26.2 12.3 28.2l5.8 1c2.2 1.6 1.6 7.1-.7 8.1-8.7-.6-18.1-1-29.4-1-11.6 0-21.3.3-30.4 1-2.3-1-2.9-6.4-.7-8.1l6.8-1c11.9-1.6 12.3-4.9 12.3-28.2v-56.8zM1014.3 1102.9c-2.2-7.1-3.6-8.1-13.3-8.1h-48.8c-8.1 0-10 1-12.3 7.8l-11.3 34c-4.9 14.6-7.1 23.3-7.1 26.8 0 3.9 1.6 5.8 9.4 6.5l10.7 1c2.2 1.6 2.2 6.8-.7 8.1-8.4-.7-18.4-.7-33.6-1-10.7 0-22.3.6-31.1 1-1.9-1.3-2.6-6.5-.6-8.1l10.7-1c7.7-.6 14.9-4.2 19.4-15.8 5.8-14.9 14.9-35.9 28.4-72.1l33-87.3c4.5-11.6 6.5-17.8 5.5-23 7.8-2.3 13.3-8.1 16.8-12.3 2 0 4.2.7 4.9 2.9 4.2 14.2 9.4 29.1 14.2 43.3l44.3 130c9.4 27.8 13.6 32.7 27.5 34.3l8.7 1c2.3 1.6 1.6 6.8 0 8.1-13.3-.7-24.6-1-39.1-1-15.5 0-27.8.6-37.2 1-2.6-1.3-2.9-6.5-.6-8.1l9.4-1c6.8-.6 11.3-2.6 11.3-5.8 0-3.6-1.6-9.4-4.2-17.1l-14.3-44.1zm-64.1-28.8c-2.6 7.4-2.3 7.8 6.8 7.8h39.8c9.4 0 10-1.3 7.1-10l-17.5-52.7c-2.6-7.8-5.5-16.5-7.4-20.4h-.7c-1 1.6-4.2 9.4-7.8 19.1l-20.3 56.2z" class="st0"/><path d="M1136.5 1141.7c0 23.3.7 26.5 12.3 28.1l7.8 1c2.2 1.6 1.6 7.1-.6 8.1-10.7-.7-20-1-31.4-1-11.6 0-21.3.3-31.1 1-2.3-1-2.9-6.5-.7-8.1l7.4-1c12-1.6 12.3-4.8 12.3-28.1V995.5c0-19.1-.3-21-10-26.9l-3.2-2c-1.6-1-1.6-5.5 0-6.5 8.1-2.6 23.3-7.4 34.9-13.6 1.3 0 2.6.6 3.2 1.9-.3 9.7-1 25.9-1 40.1v153.2zM1216.4 1141.7c0 23.3.6 26.5 12.3 28.1l7.8 1c2.3 1.6 1.6 7.1-.6 8.1-10.7-.7-20-1-31.4-1-11.7 0-21.4.3-31.1 1-2.2-1-2.9-6.5-.6-8.1l7.5-1c11.9-1.6 12.3-4.8 12.3-28.1V995.5c0-19.1-.3-21-10-26.9l-3.3-2c-1.6-1-1.6-5.5 0-6.5 8.1-2.6 23.3-7.4 34.9-13.6 1.3 0 2.6.6 3.2 1.9-.3 9.7-1 25.9-1 40.1v153.2zM1275.5 1085.1c0-12.6 0-14.2-8.7-20l-2.9-1.9c-1.3-1.3-1.3-4.9.3-5.8 7.4-2.6 25.9-11 33.3-15.8 1.6 0 2.9.7 3.2 1.9-.7 11.3-1.3 26.8-1.3 40.1v58.2c0 23.3.7 26.5 12.3 28.1l6.8 1c2.3 1.6 1.6 7.1-.6 8.1-9.7-.7-19.1-1-30.4-1-11.6 0-21.3.3-30.4 1-2.3-1-2.9-6.5-.6-8.1l6.8-1c12-1.6 12.3-4.9 12.3-28.1v-56.7zm26.9-92.1c0 11.6-8.1 16.8-17.2 16.8-10 0-16.5-7.4-16.5-16.2 0-10.7 7.8-17.5 17.5-17.5s16.2 7.8 16.2 16.9M1403.6 1111c4.9-1.6 5.5-4.5 5.5-9.4l.3-14.9c.3-12-3.6-28.1-23.6-28.1-9.1 0-20 4.5-20.7 14.5-.3 5.2-.6 9.1-3.2 11-4.9 3.9-13.6 6.2-18.4 6.2-2.9 0-4.5-1.6-4.5-4.5 0-16.8 36.5-39.8 60.2-39.8 23.3 0 34.6 13.6 33.6 37.8l-1.9 56.3c-.6 14.9 2.2 28.1 14.9 28.1 3.2 0 6.1-1 8.1-1.9 1.6-1 3.2-2.3 4.2-2.3 1.3 0 2.3 2 2.3 4.2 0 1.6-11.3 14.2-27.2 14.2-7.8 0-15.5-2.9-21-10-1.3-2-3.2-4.5-5.2-4.5-2.2 0-6.1 2.9-12.6 6.5-7.1 3.9-14.2 8.1-23.2 8.1-9.4 0-17.2-2.6-22.7-7.4-6.1-5.5-10-13.6-10-22.7 0-12.6 6.1-20 26.8-27.5l38.3-13.9zm-20 56.9c6.5 0 16.5-4.8 19.7-8.1 3.9-3.9 3.9-8.4 4.2-15.2l.7-19.1c0-3.5-1.3-4.2-3.2-4.2s-7.4 1.3-13.2 3.2c-19.1 6.5-28.5 11.3-28.5 23.9-.1 5.6 3.8 19.5 20.3 19.5M1489.3 1085.1c0-12.6 0-14.2-8.7-20l-2.9-1.9c-1.3-1.3-1.3-4.9.3-5.8 7.4-2.6 25.9-11 32.3-15.8 1.3 0 2.9.7 3.6 2.3-.7 7.4-.7 12.3-.7 15.2 0 1.9 1.3 3.6 3.6 3.6 13.6-8.4 28.8-16.5 45.3-16.5 26.8 0 37.8 18.4 37.8 40.1v55.6c0 23.3.7 26.5 12.3 28.1l7.1 1c2.2 1.6 1.6 7.1-.7 8.1-9.7-.7-19.1-1-30.4-1-11.6 0-21.3.3-30.1 1-2.2-1-2.9-6.5-.6-8.1l6.1-1c12-2 12.3-4.9 12.3-28.1v-48.2c0-18.4-8.4-32-30.4-32-12.3 0-23 5.2-27.5 11.3-4.2 5.5-4.9 10-4.9 19.4v49.5c0 23.3.7 26.2 12.3 28.1l5.8 1c2.2 1.6 1.6 7.1-.6 8.1-8.8-.7-18.1-1-29.5-1-11.6 0-21.3.3-30.4 1-2.3-1-3-6.5-.7-8.1l6.8-1c11.9-1.6 12.3-4.9 12.3-28.1v-56.8zM1746 1051.5c2.6 2.3 4.9 7.4 4.9 12.9 0 5.8-3.2 12-7.1 12-1.6 0-3.2-.7-4.5-2.3-7.1-8.7-19.1-17.1-32.3-17.1-22.6 0-44.6 17.8-44.6 52.1 0 25.2 17.5 55.3 52.1 55.3 18.8 0 28.5-8.4 35.9-19.4 2.6-.6 5.5 1.6 5.8 4.5-11 23.9-35.2 33-54 33-17.1 0-33-5.5-44.3-16.5-11.3-11-18.8-26.8-18.8-47.9 0-34.9 24.6-72.1 78.3-72.1 7.3 0 19.9 1.6 28.6 5.5M1798.7 1095.1c-8.4 0-8.7.6-8.7 8.7 0 32.7 19.1 60.5 53.7 60.5 10.7 0 19.7-3.2 29.7-15.8 3.3-1 5.5 1 5.8 3.9-10.7 22-33.9 30.1-50.7 30.1-21 0-37.5-9.1-46.9-21.3-9.7-12.6-13.6-27.8-13.6-42 0-39.8 26.2-73.1 65-73.1 27.8 0 45.9 19.1 45.9 38.5 0 4.5-.6 7.1-1.3 8.4-1 2-5.5 2.3-19.1 2.3h-59.8zm20.1-9.7c23.9 0 31-1.3 33.6-3.2 1-.6 2-1.9 2-6.1 0-9.1-6.2-20.4-24.9-20.4-19.1 0-35.6 17.5-35.9 28.2 0 .7 0 1.6 2.3 1.6h22.9zM487.1 1114.5c3.2-2.2 6.6.8 9.5-.5 5.6-2.4 4.8-10.3-.2-14.9-1.5-.3-3.1-.7-4.6-1-2-2.9-6-4.1-8-7.2-1.5-2.2-2.4-5.7-3.6-8.6-2.9-7.1-3.3-16.8-9.1-23.3-.7-.9-2.1-1.4-3.1-2.4-.9-.9-2-2.2-2.9-3-4.7-4-8.5-4.9-14-6.4 1-11.4-4.6-24.9-12-29.6-3.7-2.4-5.9-3.3-10-4.2-4.5-1-10.3-1.7-14.7-.8-4.4.9-5.4 3.5-9 3.7-7.2 4.6-10.6 9.3-15.6 15.4-.3 1.3 0 3-1.3 3.8-6.7.3-13.9.5-23.3 4.2-3.5 1.4-5.3 3.6-8.5 5.5-1.5.9-3.3 1.1-4.7 1.9-1.2.7-2.1 2.2-3 2.9-1.4 1-3.1 2.2-4.5 2.8-5.5 2.5-12.6 2.8-18.5 4.2-1.4.3-2.7 1.4-4.3 1.8-2.1.5-4.5-.1-6.6.5-2.6.8-5.1 6.8-3.9 9.4.4.9 2.1 1.6 4.2 2.6 3.9 1.8 9.9 3.5 13.7 4 1.5.2 3.5.3 4.4.1 2.8-.5 4.4-2.8 6.3-1.5.8 2.3-1.4 4-1.9 6.4-.4 1.6.3 3.1 0 4.8-.5 2.4-2.3 5.4-2.8 8.1-.5 2.6-1.4 6.8 2.4 8 6.2-2.6 8-9.4 11.8-13.7 2-2.3 4.7-4.3 7.2-6.5 4.8-4.4 8.6-8.5 15.2-11.9 7.1-3.6 16.4-3.7 24.2-7.9 3.7-2 6.4-6.1 9.9-8.8 1.3 6.7-5.2 9.4-5.5 15.2-3 1.2-2.9 4.1-4.4 6.2-6.8 7.3-12.8 17-24.6 20.5-2.9 3.7-7.6 5.2-11 8.2-2.2 1.9-2.8 5.1-6 5.7 1-5.8 3-11.8 5.4-17.1 1.6-3.5 4.3-7.5 7-10.3 1.8-1.9 4.2-3.1 6.3-4.8 1.7-1.4 4.5-3.3 4.4-6.2-3.3-.4-5.2 1.9-9.9 2.5-2.6 3.6-6 7.1-7.9 10.6-1.3 2.6-3.7 4.6-4.7 6.7-1.4 2.8-2.2 7.9-3.1 10.6-.9 2.8-2.1 4.4-2.8 6.7-.8 2.6-.2 5.6-.8 8.4-.6 3.2-2.9 6.2-1.6 9.2 3-.2 3.6-3.7 5.4-6 2.7-3.4 6.9-5.7 10.4-8.5 1.9-1.5 3.4-3.6 5.5-4.1 0 3.3-.3 6.4-.5 9.4-.1 1.2.3 2.7.2 3.8-.3 1.7-1.6 2.9-1.4 4.8.1 2.6 1.4 5.4 3.1 7.2 3-4.2 5.2-8.8 11-11.5.5 3.5-1.3 7.3 1.3 10.7-.1 2.2-.4 5.2 0 7.7.4 2.8 1.2 6.5 3.2 7.3 2.7-.3 2.6-2.7 3.1-4.3.4-1.5.6-3.7.4-5 1.9-1.7 4.8-4.8 7.1-5.1-1 5.6-2.6 11.1-3.5 17-.4 2.8-.6 5.8-1.2 8.6-.7 2.8-2.1 5.6-2.3 8.4-.1 1.6.7 3.1.5 4.7-.2 1.8-1.1 3.4-1.3 5.2-.2 1.8.1 3.8-.1 5.9-.4 3.6-2.3 7.3-2.5 10.9-.3 6.1 1.8 12.3-.1 18.4.1 1.6 1.2 1.5 1.4 3-2.1 3.1-.5 6.6-.4 9.7.1 2.9-.5 5.5 0 7.8 1.3 6.9 1.2 15.1 3 20.8-.6 2.1-.3 4.5-.3 6.8 0 2.1-.7 4.9-.3 6.9.1.8 1.1 1.7 1.3 2.5.1 1.1-.5 2.5-.4 3.5.2 2.5 1.2 4.8 1.8 7.6.1.7-.5 1.2-.4 2 .1.9 1.2 1.8 1.3 2.5.3 2.3-.3 4.5.1 6.8.4 1.7 1.7 3.4 2.1 5.1.6 2.6.2 5.6.6 8.5.4 2.6 1.7 5 2.3 7.5 2.5 10.1 3.1 19.2 4.6 27.6.6 3.7 1.8 8 3.1 11.6 2.1 6 2.5 12 2.9 16 .5 4.7 1.4 7.4.5 11 .4 1.3.8 2.6 1.2 4-.5 1.1-1.1 2.2-1.4 3.3.4 6.1.5 11.9 0 17.4-.5 5.6-2.6 11.1-1.3 16.3-1.5 0-.6 1.4-1.4 1.9.7 1.8-.4 2.7.5 4.7-1.4 1.7-1.3 4.3-1.9 6.4-.6 2.1-1.4 4.1-1.9 6.4-1 4.4-.6 9.6-3.1 13.5-.3-.4-.5-.8-.8-1.2-.3.8-.6 1.7-1 2.5-.2 2-.5 3.8-1 5.5-.1-2.6-.2-5.2.4-7.6.6-2.2 2.2-3.9 2.7-6.4.4-1.9-.2-4.1-.2-6.4 0-2.5.8-5.1.5-7.1-.2-2-1.6-4.1-2.1-6.6-.4-1.8-.4-3.8-.9-5.7-3.6-12.2-12.9-25.4-28.6-29-7-1.6-15.7-.7-23.5-4.2-9.5-4.3-7.9-13.9-14.5-20.2-5.9 1.1-6.7 11-8.4 17.2.6 3.2 1.8 6.2 1.5 9.8 2.2 1.7 1.8 4.7 3 6.9 3.1 6.1 9 10.3 12.5 16.1 9.6 3 12.9 11.6 22.6 12.3 3.7 2.7 6.1 6 10.8 8.2 1.4 3.9 5.4 5.7 8.1 9.1 1.9 2.4 3 5.6 4.3 8.8 2.3 5.8 3.5 9.9 3.6 16.4v1.8c.1-.1 3.1 7.2 4.5 9.4-1.1 2.5-2 5.4-1.2 7.6-2.4 2-2.4 4.9-2.9 7.7-.9 4.4-2.8 8.7-3.8 12.7-1.4 5.7-4.2 10.8-4 17.1-3.1 5.1-4.4 11.4-6 16.8-.6 2.1-.6 3.8-1 6.1-1.7 8.6-5.9 17.4-4.2 27.4-2.3 2.8-.7 5.6-.4 9.8.1 1.5-.1 3.2 0 4.8.2 1.6.9 3.3 1.1 5 .3 3.6-.5 7.2-.2 10.7.6 4.9 1.4 10.2 3 14.5 2.8 7.6 9.4 14 11.7 21 .5 1.6-.5 3.1 1 3.1.7-2.1-.6-4.2-1.3-5.9-2.1-4.5-5.2-8.6-7.1-13.7-2.9-7.5-2.9-12.8-3-19.4-.1-5.5-.1-11.2-.3-13.4 0-3.9-1.1-8.3 1-11-1-1.2-.5-1.4-.9-3.1 1.4-2 1.2-4.8 1.1-7.6 1.6-2.7 1.9-5.9 2.6-9 1.5-6.7 3-12.9 4.8-18.9 1-3 1.6-6.3 3.6-8.8-.4-2.9 1.2-6.3 2.3-9.9 1.6-5.2 1.8-11.7 5.5-13.7-.6-1.6-1.1-1.5-1-3.1 1.6-1.2.3-4.1 2.3-5.1.5-4.8 1-9.6 1.9-14.1 1-4.5 2.6-9.2 4.8-13 3.6-20 9.5-38.7 11.9-59.2.4-3.4.8-7.1 1.1-10.5.5-5.3.4-11.2.9-16.2.5-5.7-.5-11.2.6-17.1-1.6-.9-.7-3.5-.5-4.7 7.3-4 10.9-9.3 14.6-15.5 8.1-13.8 13.7-28.8 25.5-39.7 6.2-10.2 18.3-17.3 27-25.6 3.7-3.5 6.9-7.3 10.2-10.8 1.5-1.6 4.3-3.3 4-6-2.9-1.4-4.7 1.8-6.3 2.9-4.2 2.6-7.9 3.3-12.3 4.2-1.9.4-3.7 1.4-5.3 1.6-4.8.8-11.6.7-15.5 1.3-7.1 1.2-16 6.7-20.2 11.5-2 2.3-5.4 5.8-6.3 7.7-.7 1.4-.5 2.8-1.1 4.2-.8 1.8-2.2 3.2-2.9 4.7-.7 1.7-1.3 3.7-1.7 5.3-1.9 7.5-2.8 15.7-4.1 23-.5 3.1-.9 7.5-1.7 10.2-.2.6.5 1.1.4 1.3-.1.4-1.1 1.3-1.4 1.9-1.3 3-2.2 6.2-4.8 8.2-3.9-15.9-6.3-32.9-9.3-49.8-1.3-7.3-3-14.7-3.8-22-.4-3.1 0-6.4-.5-9.5-.5-3.2-1.7-6.4-2-9.6-.3-4.5.5-8.6 0-12.6-.2-1.9-.4-3.7-.7-5.6-3-20-1.9-36.3-1-53.8.7-13.5 5.3-26.3 6-39 2.1-7.5 3.5-15.6 6-23.1 1.5-4.6 1.6-9.6 4.9-12.6-.3-3.9-1.5-10.1 2.6-10.5 1.9 7 4.6 10 7.8 14.5 5.4 7.6 10.6 11 16.4 15.8 3.2.4 5.5 2.6 8.4 3.7 3.4-1 5.1 1.2 8.3.4 2.5-3.2-1-5-2.9-7.8-5.6-8.5-5.9-21.1-5.4-28.8 1.4 4.9 3.6 8.8 6.5 13.5 5 8.1 9.4 13.7 19.4 10 1.4-1.7 1.7-4 2.5-6.1-1.1-4.8-4.2-9.6-4.6-13.6 4.5-1 9.3 3.3 14.7 3m-158.6-48.2c4.7-2.8 10-2.7 15-4.6 5.9-2.3 10-7.3 15.1-9 8.5-8.2 27-13.2 36.4-7.2-2.1.1-3.1 1.7-5 2.5-.8.3-2.2 0-3.2.5-.7.3-1.3 1.4-1.9 1.6-.8.2-1.6-.5-2.5-.2-1 .3-2 1-3 1.4-1.6.6-3.5.1-5.1.6-1.6.5-2.9 1.8-4.6 2.4-1.3.4-3 .3-4.2.7-7.7 2.9-13.6 8.1-19.4 12.2-1.6.8-1.6-1.6-2.9-1.5-5.1 2.4-11.4 3.6-14.7.6m54.4-8.4c-19.9 4.5-31.8 19.2-41 30.4-.4-4.5 1.8-7.7 2.2-11.8 4.9-3.6 8.4-7.8 12.8-11.6 6.7-2.9 16.7-5.3 26.3-8.5 3.6-1.2 7.1-3 10.1-3.5 1.9-.3 4.2-.7 5.6.7-5.6 2.2-11.9 4.8-16 4.3m-4.1 375.7c-.6-3.5-4.2-4.6-6.5-6.6-1.3-1.2-2-3-3.5-4.2-3-2.4-6.9-3.3-10.4-5.1-2.6-1.3-4.8-3.2-7.2-4.9-2.2-1.6-4.7-2.9-6.8-4.3-4.8-3.3-7.7-7.9-11.9-11-2.1-6.5-7.7-11.2-4.7-20.2.4.2.9.3 1.3.5 3.3 4.3 1.6 8.6 5.2 11.6 4.2 3.4 10.3 5.9 16.1 7.1.8.1 1.2.5 1.8.6 4.3.6 9.2-.3 13.8.9 7.3 1.9 12 6.7 17.5 10.4 2.8 4.9 5.2 9.8 7.5 14.8-.4 7.4 2.8 14.2 1.2 22-.6 2.8-2.2 5.2-2.4 8.4-3-7-4.4-14.8-11-20m45.5-90.8 1.2-5.7c1.9-10.6 3.2-22.3 8.3-31.5 5.5-7.1 11.4-14.3 25.1-17.3 2.6-.6 5.4-.3 8.2-1.5-.7 4.6-7.4 5.9-8.4 10.3-1.1.1-1.7.6-2.1 1.1-.9 1.1-2 2.2-1.7 3.9-7.6 4.8-9.8 12.3-15.2 18.2-.6 1.8-1.9 3.2-1.8 5.3-.3.5-.9.8-1.6 1-2.2 8.5-8.9 14.7-11.3 23.2-1.9.9-2.7 2.2-2.6 4.2-.5-3.7 1.1-7.4 1.9-11.2m15.7-289.2c.3 1-.4 1.5.3 2.8-1.3.8-1.2-1.4-2.3-1.2.2-.9.9-1.4 2-1.6m-57.7 56.2c-3.1 1.9-3.7 4.5-8.8 6.1-2.4-5.1.7-10.5 1.7-15 5.7-2.1 8.3-5.2 13.4-8.4-.8 6.3-4.9 11.1-6.3 17.3m32.3-30.2c-.1 1.8-.2 3.7-.2 5.4-.2 5.5-1.1 9.5-.6 15.6-1.4 3.7-3.8 6.9-6.1 10.1-2.3.4-4 1.7-5.3 3.1-1.4 1.5-1.5 3.6-2.7 5.2-1.5 1.9-4.3 3-6.3 4.8-1.9 1.7-3.6 4.3-6.8 4.5-2.2-9.8 3.7-18.3 6.8-26.7 1.6-4.2 2.8-8.6 4.3-12.9.7-2.1 1.7-4.4 2.3-6.5.7-2.2.5-4.7 1.3-6.7 1.4-3.3 4.4-5.6 5.7-8.5 1.5-3.4 2.1-9.2 3.1-13.5.7-.4.9.2 1.5 0 2.9 4.8 4.4 10.4 4.4 16-.1 3-1 6.1-1.4 10.1m3.9 14.3c.4-9.3 3.5-18.5 1.2-29.3-.8-3.8-2.2-7.8-4.5-10.2 6.3-.9 14.4 4.3 22.3.4-3.5 3.3 0 6.6 1.8 10.6 1.4 3.1 3.2 8.4 3.9 12.8.5 2.8.4 6 .8 8.9 1 7 1.6 10.5-1.2 15.3 1.2 10.8-1.5 19.4 4.1 32.5-15.5-.5-29.2-22.8-28.4-41m42.2 27.7c-2.8-3.2-5.7-9-7.1-12.3-6.6-15.5-3.5-36.4-12.4-50.3 3 .9 6.4-.2 8.6 1.2 2.8 1.9 3.3 5.8 4.9 8.2 1.8 2.7 4.1 4.1 5.5 7 3 6.1 4.4 13.7 4.8 20.7.2 2.2-.8 5.7.1 8.2.5 1.5 1.9 2.4 2.7 4 1.6 3.4 3.4 9.9 4.5 14.6-4.6 4-9 1.7-11.6-1.3m9.4-19.8c-3.1-6.1-1.9-15.9-5.5-24.4-3.7-8.6-9.4-13.3-12.7-19.3-.1-.4-.2-.9-.4-1.3 4.9-1 7.6.7 11.2 3.4 2.3 1.8 4.7 3.5 6.1 7.3 2.8 7.3 4.3 17.4 8.4 24.5 2 3.4 4.9 5.2 7 7 2.4 2.1 4.6 3.5 7.2 6-2.9 1.8-3.8 2.2-7.6 1.8-1.1-.1-2.6 0-3-.1-1.3-.3-3.3-1.7-5-2.3-2.9-1-4.5-.5-5.7-2.6" class="st0"/><path d="M279.1 950.1c-9.1-2.4-5.7-19-2.2-24.9-1.2-1.9-3.4-2.1-4.2-4.4-2.1-6.3 2.5-15.1 8.6-15 .6-2.8-1.9-4.9-2.4-7.7-1.2-7.7 1.5-14 9.1-14.5-2.1-5.2-3.2-12.2 3.3-13.2-.9-9.4 4.9-13.9 13.5-15.3 13.1-2 17.3 10 13.5 22.8-.8 1.4-2.8 1.7-2.8 3.8.9 4.4 4.8 7.8 4.6 12.8-.1 3.4-2.2 4.6-3 8 1.3 2.8 4.1 3 5.2 5.4 3.1 7.2-2.3 14-4.5 19 7.3 3.9 4.8 17.7 1.7 23.9 2.5 4.6 4.2 12.6 1.4 17.6 2.7 5.2 6.3 11.5 3.4 17.5 4.3 3.9 5.1 6.9 2.7 14.5-2.6 8.3-7.4 16.8-14.2 21-1.6-.2-1.5 1.1-2.5.1-1.9 2.4-5.4 3.3-6.6 6.6-1.1.2-2 1.1-3 .2.7 11-.2 22.9-1.3 33.4-.8 7.6-1 16.8-2.1 26.2-1.1 9-1.7 18.1-2.6 27.2-.7 7.4-2.3 14.7-2.8 22-.9 12.2-1 23.5-1 37.5 0 10.5-1.2 23.1-1.3 33.4-.1 8.2.8 16.9 1.3 25.4.4 7.4.5 15 1.2 22.3 2 22.9 1.7 43.7 4.4 68 2 18.4 6.4 36.7 8.7 55.3 3.6 28.7 6.9 56.3 9.9 88.5 2 21.3 3 47.4 7.8 66.8.3 1.4 1.2 5.1-.3 4.7-.1 1.2 1.5.5 1.6 1.5 1 10.9 3.4 21.5 5.6 33.1.7 3.5 2.1 7 2.5 10.3.8 7.2-.1 15 1.6 21.8-3.1-5.4-6.1-11.9-8.7-17.3.9-3.5-1.5-7.4-1.5-9.8.8-1.9 1.3 1 1.1 2 .7-4.4 0-8.8-1.7-13.5-1.9 3 3.3 10.4-.9 11-.3-2.1 2-2.2-1.1-2-.2-3.8-.9-6.2-2-9.8-.3-1-.9-.8-1-1.5-.5-1.9-.2-3.9-.8-5.7-.3-1-1.3-1.9-1.6-3.1-.3-1.1.5-1.4.4-2.1-.1-.5-1.6-3.3-1.7-5.1-.1-.8.5-1.9.3-2.6-.4-2-1.8-3.6-2.3-5.6-2.2-8.5-2.4-18-4.3-26.8-4.2-19.7-9.2-39.2-11.4-59.8-.9-8.6-2.7-17.4-4.7-24.7-2.1-7.9-2.7-17-4.7-24.8-.4-1.6-1.4-3-1.7-4.6-.3-1.4.1-2.8-.2-4.1-2.4-9.9-6.7-19.5-9.4-29.2-.5-1.9-.8-3.7-1.3-5.7-2.1-7.7-4-17.5-8.2-25.1-1.2-7.5-4-12.2-6.9-18.9-1.4-3.4-2.1-7.3-3.5-10.7-1.5-3.7-3.7-7-5.5-10.6-1.8-3.7-2.9-7.9-4.6-11.7-2.4-5.5-5.9-10.7-8.2-16.3-.4-.9.1-2.2-.2-3.1-.6-1.7-2.4-3.7-3.2-5.5-2.1-4.7-3.2-11.4-6.3-16.4-1-1.5-3.4-3.9-3.8-7.1-2.1 1-2.6 3.6-4.2 5.5-.5.6-1.7.4-2.4 1.2-1.4 1.3-2.9 4.8-5.6 5-3.3.1-7.2-4.4-8.3-7.9-1.5-5-1.8-12.1-1.4-17.1 4.1-6.3 8.2-12.3 11.9-17.8 2 .9 3.3-.5 4.9-.2 2.9.5 3.6 3.9 6.6 3.8-.2 4.2 4.8 6.1 5.9 9.1.5 1.3 0 3.2.3 4.7.6 4.1 2.9 8.7 4.5 12.8 4.9 11.9 9.2 24.4 14.7 36.2 1.3 2.8 2.8 7.3 4.5 11.2 1 2.3 2.8 4.6 3.8 7.1 1.2 3 1.6 6.2 3 9.2 9.3 22 18.3 44.3 24.2 68.5-3.8-36.7-3.1-67.5-6.2-103.8-.3-3.2-1.1-8.9-1.7-13.5-1.3-10.4-1.8-20.9-3.6-31-2.1-12-6.5-23-9.1-34.4-3.6-6.5-3.5-14.7-5.6-22.1-.4-1.2-1.2-1.8-1.6-3-1.2-3.5-1.3-7.8-2.5-11.3-1.2-3.5-3.2-6.4-4-9.7-11.5 6.2-25.5-3.5-19.6-16.2-1.6-.8-3.9-1-5-2.4-3.9-7.6 0-14.2 3-19.4 3.5-1.4 8.3-7.6 12.2-2.7-.8 8.1-12.5 8.4-11.5 16.7 5.2 1.1 8.4-3.9 13.6-4.3 0 2.1 1 2.8.8 5.2 4.1.7 9.4 0 12 2.5-2.2-6.3 1-10.4-1.3-15.5 2.3-4.4 6.8-11.8 2.5-17.8-4.9-2-6.6 1.8-8.1 6.1-.7 2.3-2.2 6.1-2 8.4.4 6.1 7.7 10 4.1 13.8-6.6-2.8-8.8-14.1-7-22-3.4.9-7.1-.3-9.6-3.2-1.7.7-.5 4.2-1.2 5.8-3.3 5.6-9.5 10.9-17.7 10.2-2.9-7.5 3.5-13.9 7.3-20.1.2-.4 0-1.7.4-2.1 2.2-2.8 5.7-5 9.7-4.2.6-1.7.4-4.2.7-6.3-1.8-1.2-2.4 2.1-2.8 3.8-7.7.5-8.3 9.4-16.9 7.6-2.5-4.1-4.3-9.4-1.7-14 1.6-2.7 4.6-4.2 5-8 1.4 2.2 3.1-1.8 4.8-2.4 2.1-.6 1.7 1.7 3.5 1.4.5-1.7 1.1-3.3 2.2-4.3-.9-1.9-1.9-3.6-3.7-4.5-1.5-3.7-.6-10.3-4.5-11.3-.6 1.3-.7 3-1.3 4.3-2.6 2-7.6 7.3-4.4 10.1.8-2 4-6.4 7-8.2 2.4 2.3 1 5.5.5 8.8-4.2 2.9-6.6 9-12.4 8.9-4.4-7.4-3.1-12.9-.1-21.3-2.3-2-4.2-1.4-6.5-2.3-1-2.7-4.1-5.8-2.9-9.2-1.9-2.9-4.8-3.2-6.3-5.9-2.3-4.6.1-12.3 3.6-16.8-1-.8-2.2-1.5-3.5-1.9-.3-1.8 0-2.9.3-4.2-2.8-2.5-6.7-3.6-9.7-5.8-2.4-4.2.3-9.2 2.9-11.6-2.5-6.5-2-15.1 3.1-15.8 1.9-.2 7.5 2.8 9.6 4.7 4.4 4.2 5 11.2 2.3 16.5 1.2.6 4.4-6 5.6-6 1.3 0 3.5 2.1 1.7 4.6 2-1.8 1.8 2.1 1.2 3.1-.9-.1.3-1.6-1.1-2.1-4.1 1.2-4.7 5.8-6.4 9.2-1.6 1.4-4.6 1.5-5.7 3.4 1.1 2 2.6 3.6 5.1 3.9 2-.8 2-3.4 2.2-5.9 2.6-4.4 10.9-9.4 16.5-5 .6 1.3.8 3.1.8 5.2 3.2 1.8 5.6 4.4 7.7 7.4-.2 1.9.9 5.2-.2 6.3 2.8 3.4 2.7 9.4 3.1 12.8 0 1.2 1.3-.3.9-1.1 2.8 2.3 8 6.3 9 12 1.6 9.5-3 16.4-10.9 17.7-4.2 3.4 0 8 4.2 5 2.7-1.8 5.6-6.5 6.6-6.6-.3-2.4.8-3.4-.2-5.2 3.1.5 2.8 5.1 2.4 8.2 5.5 5.7 5.5 14.3 3.1 22.8 1.9-1.5 5.2-5.1 8.6-4.6 5.7.7 6.2 8.6 7.2 15.3.3.5 3.2-.6 4.9-.3 6.6 1.9 6.4 22.5 3 29-1.5 2.9-4.4 3.1-4.7 5.4-3.2.5-4 2.4-6.8.9-.9-1.6.2-2.3.3-4.2 9.3-.8 11.3-8.7 9.8-19.7-.9-1.2-1.9-2.2-3.1-3-5.7 4.8-6 14.8-8.2 22.8-.1 2.6-1.1-1.1-2.5-.4.2 2.4 2.7 3.2 3.7 5 .3.6-.7 2.5 1.1 2 1 9.5 5 17.8 7.3 26.7 3.7 14.9 5 30.6 10.6 44.2 2-2.2.6-4.9.6-7.3.1-5.5.8-11.3.6-16.7-.1-2.7 1.2-5.5 1.1-8.4-.1-2.3-.9-4.8-.9-7.3 0-10.7 2.3-21.7 1.8-32.4 2.1-5 2.5-10.6 3.1-16.8.3-2.8-.2-6.1.1-8.8.7-6.5 2.7-12.9 3.4-20.5.1-1.3-.2-2.9-.2-4.2.1-3.3 1-6.4 1-9.4 0-.9-.7-2.2-.7-3.1.2-2 1.6-3.8 1.7-5.8.1-1.5-.8-3.4-.8-5.2.1-3.1 1.4-6.4 1.5-10 .1-5.6-.7-11.3-.8-16.6-15.3 1.7-28.5-5-29.3-23.5 3.3-1.7 4.8-5.6 10.6-4.2 2.1.5 10.4 6.1 12.3 8.2 2.2 2.5 4 6 2.9 8.2-7.3.1-13.9-13.9-20-6.8.4 10.2 8.7 12.4 16.8 10.6 1.2-.3 2.4-1.5 3.8-1.8 2.3-.5 4.8.8 6.4-.8 1.9.9 3.4 2.2 5.1 3.4-.4-6.7 2.1-10.6 4.2-14.8-.3-2.1-2.9-1.8-3.1-4-.2-5.1 3.6-6.9 4.3-12.2 4.3-2.3 12.8-6.2 8.2-12.4-1.5 1-2.5 2.5-4.2 3.3-4.7-1.3-7.8-4.5-7.5-11.6 4.4-1.6 12.1-2.4 10.4-8.3-.9-1.7-4.2-.6-6.5-.7-1.5 1.9-2.9 3.8-6.2 4-.2 3.9-5.7 5.4-3.5 8.5-3.5 0-2.9-4.2-4.3-6.6-1.3-2.3-4.7-6.1-6.7-6.4-5.3-.9-8.4 4.1-8.9 10.3 7.1 2.7 12.2 7.8 16 14.3 1.1-1.2 6-10.9 3.8-13.7 4.4-1.2 2.5 6.7 2 9.8-1.1 6.6-4.5 9.5-3.1 16.3.2 2.2-.8 0-1.5.1 1.4.9 1.1 3.4 1.6 3.1.8 3.9-3 5.6-6.6 6.1-1.7-1.4-4.7-1.7-7.1-3.3-.3-.2-.2-1.4-.6-1.5-.3-.1-1.2.3-1.5.1-4.8-4-9.7-12.6-10.8-18.2-.9-4.6.7-7.1 1.9-10.5-.1-2-1-3.2-1.7-4.6 1.6-7 2-14.9 9.8-15.7m-42.5 76.6c.8 4.7 1.4-1-1-1 .1.6.2 1.2 1 1m63-157.3c2.6 1.8 6.1 2.4 6.8 6.4-5.8-.4-12.6-.2-14.1 4.9.7 2.6 3.9 2 4.2 5-.8 1.1-2.6 1.1-2.3 3.2 2 2.6 4.2 5.3 5.4 9.1.5 1.6-.3 4.2 1.8 5.1 1.1-.6 1.5-1.9 1.3-3.7-2.7-2.6-5.1-5.1-4.4-9.1.8-4.2 9.3-6.7 7.3-12.9 4-2.1 8-4.2 6.8-11.3-3.7-3.3-11.7-1.4-12.8 3.3m-4.3 50.2c.3-1.6 2.2 2.4 1.1 2.5-5.8-.3-6-9.1-12.2-7.7-2.8.6-4.5 5.2-4.1 7 1.2 5.5 9.8 3.8 12.8.4.5.9 1.3 1.5 1.6 2.5-.2 3.6-4 3.8-5.1 6.5 3.3 6.4 5.5 14.1 9.4 19.9 2.7-1.3 8.8-2.7 11.5-5.8 2.3-2.6 4.9-10.3 0-10.4-2.5-.1-3.3 5.5-6.6 6-3.1.5-4.6-1.1-6.2-5.4 1.8-4.9 3.8-9.6 6.7-13.4 5.1-.9 8.9-3 8.9-8.8-1.3-1.1-3.6-1-6-.7-2.3 2.6.9 7.4-3.6 8-4.8-2-7.9-5-8.4-10.5-.1-1.3.6-2.4.3-3.7-.7-2.5-2.5-3.6-3.7-5.5-1.8-2.8-2.9-5.6-4.8-7.6-3.5 1.1-2.1 6.5-1 9.4 4.5.8 8 2.8 8.8 7.9-1.7 1-3.2-.8-5.5-.8 1.7 3.7 6 6.6 6.1 10.2m.7 34.9c-.8-.6-2.1-.5-2.5-1.4-3.6-5.5-3.6-15.2-9.3-18.3h-1c-1.4 3-2.9 7.9-1.9 11.6 1.6.7 4.8-.5 5.5 1.2.4 2.2-.7 2.9-.8 4.7 4.1 3.3 7.8 7 9.5 13 2.1-.2 2.4-2 3.3-3.3-.9-2.4-3.2-3.4-2.8-7.5m-.7 14c-.1-1-.4-1.7-1.1-2 .2 1-.4 2.7 1.1 2m-98.7 8.2c-4 1-2.1 7.5-3.9 10.6-1.8.4-1.5-1.5-3-1.4.4 1.6-.8 1.6-.3 3.1 7.9 6.3 16.1-9.8 7.2-12.3m79.9.1c-4.4 7.6 2.3 17.6 8.9 19.3-.6-4.4.3-7.3 1.5-10-1.9-5-5.1-8.3-10.4-9.3m16.3 10.6c.1-1.2-.2-2-1.1-2-.1.7-.6.3-1 0-.2 1.1-1.1 1.6-.9 3.2.3.3 2.4 1.1 2.4-.1-.9-.9-1.3-1.8.6-1.1m-83.9 18.3c0 3.5 3.7 3.3 4.3 7.1-2.8 7.5-6-1.4-9.9-1.6-2.7-.1-6.3.8-4.6 6.5.5 1.5 2.3 2.2 5.6 3.9 2.2-.6 2.4-3.3 5.3-3.4 1.8 1.4 3.3 2.5 3.7 4.5.7 4.4-3.6 6.7-4.4 10.1 2.5.2 4.2 1.3 6.1 2.3 2.8-3.1-.5-7.3 1.4-11-1.6-3.7-2.5-7.4-2.1-11.3.5-4.5 4.8-7.9 4.3-12.2-3.9-1.7-9.6 1.4-9.7 5.1m104.1-8.9c.1 2.1 2.6 1.4 2.2 4.1-2.2 6-8.2 8.4-9.6 15.1 4.5-2.1 6.6-3.9 9.5-7.2 2.9-3.5 6.4-8.1 6.7-13.4-3-2.2-6.2.3-8.8 1.4m-89.4 17c.1-1.6 1.4-2 2.4-2.7-1.1-.3-1.2-1.8-2.1-2-5.9-1.3-8 9.9-4.2 14.3-.9 1.7-.9 3.1-.2 5.2 9.5.6 13.4-9.7 8.1-16-3-.5-2.1-.1-4 1.2m16 23.7c0 .3.4.6.5 0-.7-3.8-.5-5.7-3.8-7.1.2.1-.1 1.1-.4 1.1.5 0-1.5-1.8-2.1-1.4-1.5 2.3-2.1 5.6-5.1 6.5-1.6 10.7 10.8 7 10.9.9m-.1 45.3c3 .9 3.4-2.7 4.2-4.9 1.3-4.2 2.1-9.4 1.3-13.6-6.7 1.4-5.5 12.5-5.5 18.5m-14.7 12.2c3.3 0 4.7-1.8 7.3-2.5-.5-8.7-6.8-1.4-7.3 2.5m13 32.7c2 3.2 6.3 3.7 11.5 3.1-.7-2.6 1.3-6.5 1.1-8.4-6-.6-12.2-1.4-12.6 5.3m43.1 71.7h1c0-.4 0-.7-.1-1.1-.3 0-.6 0-1 .1.1.3.1.7.1 1m-62.6 9.9c-4.3 5.4-13.1 10.8-12.8 19.9.1 3 1.6 6.2 2.9 9.2 6.9-1.5 8.3-8.2 11.7-13.1-2.9-5.3-1.7-12.8 2.7-15.2-1.2-.6-2.5-1.1-4.5-.8m7 12.7c1.9.3 2.7-1.4 4-.2-.1-2.2-3.6-.5-4 .2m-.4 2.6c.2 3 2.8-1.2.9-1.6.2 1.4.3 2.7-.9 1.6m5.6 2.3c0-.9-.5-1.3-1.1-1.5-.6.8-.6 2.1 1.1 1.5m-4.4.2h1v-1h-1c-.1.4 0 .7 0 1" class="st0"/><path d="M224.3 1191.8c-2.6-.5-4-5.1-2.9-8.2-3.6-1.8-10.6.3-11.6-4.6-2.7 1.7-5.4 3.4-7.6 5.6 3.6 1 10-1.5 11 3.6-2.9 4.1-8.8 3.5-13.1 5.3-5.3 2.3-8.5 6.6-10.7 11.5 1.9 5 12.9 2.9 14.7-.7.5 0 .4.6.5 1 2.7-3.4 5.7-6.5 7.9-10.3 2.2 1.3 2 4.9.4 7.2-.5.7-2.3 2.8-3.7 4.4-2.9 3.3-4.8 5.9-8.6 5.6.6 2-4.4 1.4-5.8 2.9-2.1-1.2-4.5-2-6.6-3.3-.2-3.4-2.6-5-2.9-7.6-.6-6.4 5.2-9.9 7.7-14.5-3.6-1.8-5.7 2.1-11.3 1.1-2.1-7.9-4-14.6-.6-21.3-2.7-3.6-4.6-9.9-4.2-15.4-5.6-1.8-7.9-10.7-5.9-19.5-2.1.3-3.6-1.3-5-.8-1.6-3.1-1.6-7.3-2.2-6.6-1.9-2.6.6-5.3 0-8.4-2.8-1.7-4.4-2.5-7.1-4.8 0-3.5-1.2-5.5-1.9-8.2.3-1.8.9-3.4 1.7-4.8-.2-1-2.2 0-2-1.5-.8-4.7-2.3-10.8.2-15.1-4.9-4.8-3.1-12.3-6.3-18.4 1.7-5.7 2.5-12.1 8.2-14 1.9-.2.2.4.6 1.5 1.9-.7 3.6-3.2 6.3-3.4 4.2-.4 12.7 5.2 12 12.9 7.4-1.1 8.8 8.8 7.6 14.2 3.3 3.5 7.3 6.2 7.1 13.7 3 3.5 8.7 3.8 8.4 11 7.7 1.2 11.7 6.8 11.7 17.1 2.8 2.3 5.5 2.3 7.2 4.8 2.1 3.1 1.3 8.8 3.1 12.3 1.9 2 4.9 3.2 6.2 5.9 1.2 2.6.5 6.1 2.4 8.2 3.3 3.2 7.3 3.8 9.3 8.4 1.1 2.5.2 5.8 1.4 8.8 1.2 2.8 4.9 4.4 5.8 7.5.7 2.4-.4 5.6.4 8.3.8 2.7 4 3.8 5.8 6.5 2.4 3.9 5.1 14.8 3 21.2-1.5 4.6-4.8 8.3-12.4 8.4-1.5 0-1.6-1.3-2-1.5-1.1-.3-1.7 1.8-3.9.7-7.4-2.6-9.9-15.4-4.6-21.6-.6-2.7-.7-4.5-.4-7.3 2.2-2.9 7.6-3.2 7.5-7.2 0-7.6-8-2.2-10.3 1.6-1.8 3.2-1.6 7.6-4.5 7.8m-59.2-126.6c1.1-.6 3-.5 3.9-1.2.3-4.3-6.6-6.7-8.6-3.2 2.4-1.1 4.5 1.4 4.7 4.4m-8.9 0c-1.9 3.4-5.7 12.1.7 13.5 1.3-3.1 3.3-5.4 6.1-7.1-1.1-1.5 1.8-3.2 1.2-5.8-.9-.4-1-1.7-2.1-2-.3 3.8-4.1-.3-5.9 1.4m10.3 8.8c1.1 2.4 4 6.4 1 8.8-1.4-.6-4.4-1.5-5.5-.8-2.1 4.1-5.5 9.1-4.7 14.3 3.7-1.8 5.1-7.1 9.5-6.7 1.3.2 1.6 1.5 3 1.4 1.2-6.9 5-11.4 7.5-17 0-.6-.7-.7-.5-1.5-3.5-.2-9.3-3.1-10.3 1.5m5.2 24.7c-3.3-1.5-4.2 5.2-8.2 3-.3 1.5-1.8 1.9-3.3 2.2-.6 1.7-1.7 3-1.2 5.8 2 1.7 4.3 3 7.6 3.3.9-4.2 4.3-9.4 7.5-8.2-1.7-.9-.5-2.2.3-3.1-.1 1.3.3 2.2 1.6 2 .9-2.5 1.6-2.2 2.8-3.8.5-.7.3-2 .9-2.7 1.2-1.5 3.2-2.2 3.7-3.8 2.2-6.2-6.3-9.5-8.5-2.7-.6 1.8 1.6 4-.7 5.8-.6.4-1.2-.7-1.9 1.1 1.7-.1 2.4 4.2.8 4.7.1-1.5-.2-5-1.7-4.1.1 0 .4.1.3.5m8.3 7.4c.4 3.7 3 8.5.5 10.9 1-2.7-2.4-5.2-5.2-6.5-3.2.3-3 3.7-4.2 5.4-.6 1-2.3 1.7-2.8 2.7-2.1 3.9-2 9.2.5 9.9 2.6-.4 4.5-1.5 6.8-.9 1.1-1.8 1-2.4 1.3-4.2 2.4.7 4.2-3.1 6.8-2.4.4-8.2 6.2-11.2 8.4-17.6-3.4-5.5-9.4-1.4-12.1 2.7m7.8 16.8c1.2 1.9 3.7 2.3 4.7 4.4 1.9-4.2 5.7-6.7 10.4-8.3 1.1-2.7.5-4.1-.8-6.2-8.3-1.7-13.6 3.1-14.3 10.1m-8.1 7.7c-2.1 5-6.7 7.4-6.1 14.9 1.7 1.1 3.3 2.3 6 2.3 3.2-3.1 5.6-6.9 9.9-8.8.7-3.1 1-5.8.6-8.4-3.7.2-7.5-2-10.4 0m17.9.7c-1.9 1.7-3.4 5.4-3.6 7.5-.3 3.3 1.6 5.3 1 9.3-1.8-1.4-3.3 2.1-5.8 3.4-1.7 1-4 .8-5.3 1.8-3.5 2.8-4.2 8.3-1 9.9 5.5-1.6 12.8-.6 14-5.9.5-2.4-1.4-4.7-1.4-6.7.1-9.4 8.6-14 16.5-15.9 1.1-7.6-9.9-7.5-14.4-3.4m23.1 18.1c0-.9-1.6-3.6-2.2-4.1-3-2.5-5.8.2-8.8 1.5-3.1-2-6.3.1-8.3 2 .3 5.9-.9 10.2-4.2 13.8 2 1.6 5.4 1.4 6.1 4.4-.1.7-.7 1-.4 2.1-1.2-2.2-1 1.2-2.4 1.7-9.2-5.6-19.1 3.3-17.1 12.8 11.5 3.2 19.2-6.5 26-12.2 1 1.5-.5 2.7.7 4.1 6.9-1 12.8 1.9 16.7-2.4 1.8-2 5.2-3.1 6.1-5.5-1.5-4.7-4.4-8.3-8.8-7.4-2.2.5-5.3 5.7-7.6 6.1-.4 2.4-.5 5.2-2.7 5.8-6.4-4.5-1.3-17.8 5.4-19 .4-1.7 1.6-2.4 1.5-3.7m23 46.7c-1 0-2 .1-3 .1-2.7 3.8-8.2 6.6-7.3 12.4 3.5 1 6.5 2.7 9.9 1 4.5-2.1 5.9-14.7.2-15.1.2.5.2 1.1.2 1.6M233.2 990.7c.3.9.7 1.8.8 2.6.3.2.5.4.7.7l-.7-.7c-.1-.8-.5-1.7-.8-2.6M414 1306.7c.2.9.4 1.8.5 2.7.4-1.5 1-3.3 1.8-5.2.1-.2.3-.4.3-.6h-3.2l.6 3.1zM239.9 1296.8c-.6-1.5-1.3-3-1.8-4.5s-1.1-3.1-1.8-4.6c-.4-.9-1-1.8-1.4-2.8v11.9h5zM241.2 1299.9c-.1-.1-.1-.2-.1-.3 0 .1 0 .2.1.3zM229.3 985.4c.2.1.3.2.5.3.5.4.8 1.1 1.2 1.6-.4-.5-.7-1.1-1.2-1.6-.2-.1-.3-.2-.5-.3M418 1136l-.3.9c-.3 1-.6 2-.9 3.1.3-1 .6-2.1.9-3.1.1-.3.3-.6.3-.9M206.8 1092.3l.3.6c.4-1.4.9-2.7 1.5-4-.6-.6-1-1.2-1.5-1.9-.1-.2-.2-.4-.3-.7-.7-1.1-1.2-2.2-1.7-3.2.5 1.1 1 2.2 1.6 3.2v6zM199.1 1060.8c-1.5-4.8-1.6-9.2-.8-13.5-.2-.1-.4-.3-.5-.5.2.2.3.4.5.5-.8 4.3-.7 8.8.8 13.5M202.6 1074c-.1-1.7-.1-3.4.2-5.1-.1-.1-.2-.2-.2-.3.1.1.1.2.2.3-.3 1.6-.3 3.3-.2 5.1M431.6 1103.8c-.3-2.2.2-4.5 1.3-6.5.7-1.3.9-1.5-.1-8.2-.3-2-.4-3.8-.6-5.6 0-1.2-.1-2.4-.3-3.5-.3-1.7-.8-3.7-1.4-5.6-.1 4.3-.7 8.2-1.2 11.9-.4 2.7-.8 5.4-.9 8.1-.2 4.8 1 10.3 3.3 15.4.2-1.9.1-3.9-.1-6M246.4 1150.4c-.1-.2-.1-.4-.2-.5-.3 0-.7-.1-1-.1.6.7 1 1.4 1.5 2.2 0-.5-.1-1-.3-1.6M383.2 1303.5c-.1-1.2-.2-2.4-.3-3.5 0-.8 0-1.6-.1-2.3.2.7.1 1.5.1 2.3 0 1.2.2 2.4.3 3.5" class="st0"/><path d="M664.1 1328.8H455.2c-.5.6-.8 1.3-1.2 2-1.8 2.6-3.5 5.2-5 8.1h220.2c2.8 0 5.1-2.2 5.1-5V301.5c0-2.8-2.3-5-5.1-5H201.8c-2.8 0-5 2.3-5 5v656c2.1.6 4.1 1.6 6 2.6 1.5.8 2.9 1.7 4 2.5V831.1h21.5v153.7c.3.2.7.4 1 .6.2.1.3.2.5.3.5.4.8 1 1.2 1.6.7.8 1.5 1.5 1.9 2.4.2.3.2.7.4 1 .3.9.7 1.8.8 2.6.3.2.5.5.7.7.1.1.1.2.2.2V831.1h181.9v170.6c1 0 2.2.1 3.3.1 1.1 0 2.2 0 3.4.1V831.1h24.3v180.5c1.8 1.7 3.3 3.7 4.8 5.8.6.9 1.3 1.8 1.9 2.8V831.1H636v465.7H487c-2.6 2.3-5.2 4.5-7.8 6.7h-.1 160.3c1.8 0 3.3-1.5 3.3-3.3V831.1h21.4m0-10H206.8v-22.3h457.3v22.3zM235 337.5h181.9v451.2H235V337.5zm188.6 0H448v451.2h-24.4V337.5zm31 0h181.3v451.2H454.6V337.5zm209.5 451.2h-21.4V334.1c0-1.9-1.5-3.3-3.3-3.3H231.6c-1.9 0-3.3 1.5-3.3 3.3v454.5h-21.5V306.5h457.3v482.2z" class="st0"/><path d="M447.9 1271.7c2.2-.8 4.5-1.5 6.7-1.9v-114.3c-2.1 0-4-.3-5.2-.6-.5.1-1 .1-1.5.1v116.7zM382.9 1300c0-.8 0-1.6-.1-2.4-.1-.3-.3-.6-.4-.8h-77.1c.1 2.2.2 4.5.4 6.7h77.6c-.2-1.1-.4-2.3-.4-3.5M388.7 1331.2c0-.3-.1-.6-.1-.9-.1-.5-.2-1-.2-1.5h-80.3c.2 1.7.5 3.3.7 5 .2 1.7.4 3.3.7 5h80.3c-.3-2.5-.7-5-1.1-7.6M418 1136l-.3.9c-.4 1-.6 2-.9 3.1v156.9h-4.6l.6 3.3.7 3.4h3.2c.7-1.5 1.6-2.7 2.1-3.6.1-.1.2-.3.3-.4.2-1.3.6-2.9 1.4-4.7.7-1.5 1.8-3 3.1-4.6v-148.8c-1.9-1.5-3.7-3.4-5.6-5.5M198.3 1079.8c.8 1.7 1.6 3.5 2 5.7 1.9 1.3 4.6 3.5 6.5 6.8v-5.9c-.7-1.1-1.2-2.2-1.7-3.3-1.4-3.1-2.3-6.2-2.5-9.2-.1-1.7-.1-3.5.2-5.1-.1-.1-.2-.2-.2-.3-.2-.2-.3-.4-.5-.7-1.4-2.4-2.3-4.8-3-7-1.5-4.8-1.6-9.2-.8-13.5-.2-.1-.3-.3-.5-.5-.3-.3-.7-.6-1-1v31c.5.9 1 1.9 1.5 3M196.7 1333.8c0 2.8 2.3 5 5 5h54.8c-.2-.6-.4-1-.6-1.6-.5-3.1-1.5-5.7-2.7-8.4h-46.5v-72.7c-3-1.1-5.4-3.1-7.4-5.3-.9-1-2-1.9-2.7-3v86z" class="st0"/><path d="M228.3 1300.2c0 1.8 1.5 3.3 3.3 3.3h11.5c-.7-1.2-1.3-2.4-2-3.7-.1-.1-.1-.2-.1-.3-.4-.9-.7-1.8-1.1-2.7h-5v-11.9c-.7-1.4-1.4-2.9-2.1-4.3-.8-1.5-1.5-3-2.3-4.5-.8-1.5-1.6-3-2.2-4.5v28.6zM454.6 1020.3c-.6-1-1.2-1.9-1.9-2.8.7.9 1.4 1.8 1.9 2.8M234.8 994a.215.215 0 0 1 0 0M228.3 984.8c.3.2.7.4 1 .6-.4-.2-.7-.4-1-.6zM423.6 1002c-1.2-.1-2.2-.1-3.4-.1 1.1 0 2.2 0 3.4.1M448.9 1338.8c1.6-2.9 3.3-5.5 5.1-8.1-1.8 2.7-3.5 5.3-5.1 8.1M231 987.3c.7.8 1.5 1.5 1.9 2.4.2.3.2.7.3 1-.1-.3-.2-.7-.3-1-.5-1-1.3-1.6-1.9-2.4M454.6 1155.6c-2.1 0-4-.3-5.2-.6-.5.1-1 0-1.5 0h1.5c1.2.2 3.1.5 5.2.6M382.8 1297.7c-.1-.3-.3-.6-.4-.9.1.3.3.6.4.9M309.5 1338.8c-.3-1.7-.5-3.4-.7-5 .2 1.7.5 3.3.7 5M389.9 1338.8c-.4-2.5-.7-5-1.1-7.6 0-.3-.1-.6-.1-.9 0 .3 0 .6.1.8.3 2.7.7 5.2 1.1 7.7M412.2 1296.8l.6 3.3-.6-3.3M416.7 1303.5c.7-1.5 1.6-2.7 2.2-3.6.1-.1.2-.3.3-.4-.1.1-.2.3-.3.4-.7.9-1.5 2.2-2.2 3.6M423.6 1290.3c-1.3 1.6-2.3 3-3.1 4.5.7-1.4 1.8-2.9 3.1-4.5M196.7 1045.8c.3.4.7.7 1 1l-1-1M202.6 1074c.2 3 1.1 6.1 2.5 9.2-1.4-3.2-2.2-6.2-2.5-9.2M202.6 1068.5c-.1-.2-.3-.4-.4-.7-1.4-2.4-2.3-4.8-3.1-7 .7 2.2 1.6 4.6 3.1 7 0 .3.2.5.4.7M200.3 1085.4c-.4-2.2-1.2-4-2-5.7.9 1.7 1.6 3.5 2 5.7 1.9 1.3 4.6 3.5 6.5 6.9-1.9-3.3-4.6-5.5-6.5-6.9M206.8 1256.1c-3-1.1-5.4-3.1-7.4-5.3 2.1 2.2 4.4 4.2 7.4 5.3M256.6 1338.8c-.2-.6-.4-1-.6-1.6.2.6.4 1.1.6 1.6M243.1 1303.5" class="st0"/><path d="M241 1299.6c-.4-.9-.7-1.8-1.1-2.7.4.9.7 1.8 1.1 2.7M235 1284.9c-.7-1.4-1.4-2.9-2.1-4.3-.8-1.5-1.5-3-2.3-4.5.8 1.5 1.4 3 2.3 4.5.7 1.4 1.4 2.9 2.1 4.3" class="st0"/><path d="M870 80.4c-1.6-2.7-4.6-4.3-7.8-4.3l-208 .2L436.8.5c-1.9-.7-4.1-.7-6 0L215.6 76.1H9.1c-3.1 0-6 1.6-7.7 4.3-1.7 2.8-1.8 6.1-.3 8.9l24.3 47.8c.1.1.2.3.4.6v16.4c0 4.1 3.3 7.4 7.4 7.4h6.4v14.8c0 3.6 2.9 6.6 6.6 6.6h5l31.1 47.8c.6.9 1.6 1.5 2.7 1.5h1.4v178.5c0 2 .8 3.9 2.2 5.2l27.9 27.9v678.7l-27.9 27.9c-1.4 1.4-2.2 3.3-2.2 5.3v247.1c0 4.1 3.3 7.4 7.4 7.4H277c1.8 0 3.2-1.4 3.2-3.2 0-.5-.1-1.1-.3-1.5-.7-1.5-1.3-2.9-1.6-4.6-.1-.9-.2-1.6-.2-2.3 0-1.8-1.4-3.2-3.2-3.2H101v-236.6l27.9-27.9c1.4-1.4 2.2-3.3 2.2-5.2V440.8c0-2-.8-3.8-2.2-5.3L101 407.6V233.1h669.7v172.6l-28.1 28.1c-1.4 1.4-2.1 3.3-2.1 5.2v684.9c0 2 .8 3.9 2.1 5.2l28.1 28.1v238H424.9c-1.7 0-3.2 1.4-3.2 3.1-.1 2.7-.2 5.5-.5 8.5 0 1.8 1.5 3.2 3.2 3.2H778c4.1 0 7.4-3.3 7.4-7.4v-248.5c0-2-.8-3.8-2.2-5.2l-28.1-28.1V442.2l28.1-28.1c1.4-1.4 2.2-3.3 2.2-5.2V232.2h1c1.1 0 2.1-.6 2.7-1.5l29.8-46.2h6.1c3.6 0 6.6-3 6.6-6.6v-16.4h6.4c4.1 0 7.4-3.3 7.4-7.4v-16.6c.1-.2.3-.4.3-.5l24.4-47.7c1.7-2.8 1.6-6.1-.1-8.9m-435.2 62.5c-.7-.2-1.4-.2-2.1 0l-214.4 75.3H93.6c-1.1 0-2.2.3-3.2.8h-.2l-22.4-34.6 149.9-.2 216.1-75.5 217.3 75.5 152.4.1-22.3 34.7c-1-.5-2-.7-3.1-.7l-126.5.2-216.8-75.6zm412.6-48.6-15.1 29.5-178.1.2-217.5-75.9c-1-.3-2-.5-3-.5s-2 .1-3 .5l-215.2 75.6H38.9l-15-29.5h192.6c1.1 0 2.1-.2 3-.5l214.2-75.1 215.4 75c.9.3 2 .5 3 .5h195.3zM52.6 161.5h163.9c.8 0 1.6-.1 2.4-.4l214.8-75.3 216 75.3c.8.3 1.6.4 2.4.4h166.5v9.8l-164.8.2-219-76.3c-.3-.1-.7-.2-1.1-.2-.3 0-.7.1-1 .2L216 171.4H52.6v-9.9z" class="st0"/></svg>