<svg xmlns="http://www.w3.org/2000/svg" xml:space="preserve" id="Layer_1" x="0" y="0" style="enable-background:new 0 0 648 648" version="1.1" viewBox="0 0 648 648"><style>.st0{fill:#314b2a}.st1{fill:#9fc2b8}.st2{fill:#fff}</style><path d="M36.9 554.6c0-1.6.2-1.8.7-1.9l3.9-.6c.9-.2 1.1-.4 1.1-1.2v-53.2c0-.9-.2-1.1-1.1-1.2l-3.9-.6c-.5-.1-.7-.4-.7-1.9 0-1.6.2-1.8.7-1.8 2.5 0 12 .6 18.4.6h6.5c5.8 0 7.7-.4 13.7-.4 17 0 26.7 8.1 26.7 20 0 12.1-9.3 21-23.5 21-4.9 0-10.7-1.6-14.1-3.9v21.4c0 .9.2 1.1 1.1 1.2l5.6.6c.5.1.7.4.7 1.9 0 1.6-.2 1.8-.7 1.8-2 0-10.7-.6-18-.6-7.3 0-14.3.6-16.3.6-.6.1-.8-.2-.8-1.8zm30-58.4h-.5c-.9 0-1.1.2-1.1 1.1v28.2c.7.2 1.6.4 3.2.4 5.1 0 10.1-4.8 10.1-15.6-.1-9.2-5.4-14.1-11.7-14.1zM127.7 546.1c-2.8 7-8.2 11.1-14.6 11.1-6.8 0-11.4-5.4-11.4-12.3 0-5.4 1.7-8.4 6.2-10.9 4.1-2.2 10.7-4.1 19-6v-2.8c0-6.3-1.9-10.2-5.3-10.2-.9 0-1.2.3-1.4 1.4l-.6 4.2c-.9 6.3-4.6 9.3-9.5 9.3-2.7 0-5.2-1.7-5.2-4.9 0-5.6 10.9-14.2 24.3-14.2 11.9 0 17.5 4.7 17.5 13.2v16.1c0 7 1.4 7.2 3.8 5.6.3-.2.4-.3.5-.3.8 0 2.1 1.9 2.1 2.5 0 .4-.4.8-.9 1.3l-.4.4c-5.3 5.3-9 7.5-13.3 7.5-4.9.2-8.6-3.3-10.8-11zm-.7-1.3v-6.2c0-1.9-.8-3.3-1.8-4.4-1.1-1.1-2.5-1.7-3.4-1.7-1.8 0-2.5 1.1-2.5 3.7 0 4.9 3.3 9.2 6.2 9.2.8 0 1.3-.3 1.5-.6zM182.6 575.6c-2 0-7.7-.6-14.1-.6-6.4 0-12.2.6-14.2.6-.5 0-.7-.3-.7-1.8 0-1.6.2-1.8.7-1.9l3-.6c.9-.2 1.1-.4 1.1-1.2v-42.2c0-.9-.2-1-1.1-1.1l-3-.5c-.5-.1-.7-.3-.7-1.7 0-1.3.2-1.5.7-1.7 7.2-2.8 14-7.1 21.1-12.1.3-.2.4-.3.7-.3.6 0 2.3.7 2.3 1.3 0 1.5-.4 3.7-.4 9.1 3-6.9 8.3-9.9 14.4-9.9 9.1 0 18.2 7.4 18.2 21.9 0 15.3-8.9 24-23.4 24-3.2 0-6.1-.4-8.6-1.1V570c0 .9.2 1.1 1.1 1.2l3 .6c.5.1.7.3.7 1.9-.1 1.7-.3 1.9-.8 1.9zm5.5-21.5c1.8 0 3.1-1.7 3.1-4.8 0-8.6-4.7-21.8-9.5-26.6-.9-.9-1.5-1.1-2.1-1.1-.4 0-.7.1-1.1.4v11.3c0 8.3 3.5 16.4 6.5 19.4 1.1 1.1 2 1.4 3.1 1.4zM238.1 557.3c-13.1 0-23.2-8.9-23.2-22.8 0-14.1 10.6-23.5 26.2-23.5 13.1 0 20.2 6.3 20.2 14.7 0 .8 0 1.7-.2 2.3-.1.4-.4.6-1 .6-6.9.4-16.9.5-25.3.3 1.3 4.4 3.7 8.6 6.1 11.1 3.3 3.3 5.7 4.2 8.9 4.2 3.6 0 6.1-1.5 8.5-3.6.8-.7 3 1 2.6 1.8-3.4 8.9-13.3 14.9-22.8 14.9zm-3.7-30.4 2.8-.4c4-.4 5.9-3.3 5.9-7.8 0-3.3-1.4-5.1-3.9-5.1-2.7 0-5.4 2.5-5.4 7.7 0 1.8.3 3.8.6 5.6zM296.4 556.5c-2 0-7.7-.6-16.8-.6-6.4 0-12.2.6-14.2.6-.5 0-.7-.2-.7-1.8 0-1.7.2-1.8.7-1.9l3-.6c.9-.2 1.1-.3 1.1-1.1v-23.2c0-.9-.2-1-1.1-1.1l-3-.5c-.5-.1-.7-.3-.7-1.7 0-1.3.2-1.5.7-1.7 7.2-2.8 14-7.1 21.1-12.1.3-.2.4-.3.7-.3.6 0 2.3.7 2.3 1.3 0 1.4-.4 8.5-.4 14.2 2.6-8.5 7.5-15 12.9-15 5.3 0 7.6 3.9 7.6 8.8 0 8.3-4.8 12.5-8.9 12.5-1.6 0-2.9-.5-4.8-1.8-2.1-1.5-3.9-2.3-5-2.3-.4 0-1 .1-1.1.3v22.6c0 .9.2 1.1 1.1 1.1l5.6.6c.5.1.7.4.7 1.9-.1 1.5-.3 1.8-.8 1.8zM331 554.6c0-1.6.2-1.8.7-1.9l3.9-.6c.9-.2 1.1-.4 1.1-1.2v-53.2c0-.9-.2-1.1-1.1-1.2l-3.9-.6c-.5-.1-.7-.4-.7-1.9 0-1.6.2-1.8.7-1.8 2.5 0 12 .6 18.4.6h6.5c5.8 0 7.7-.4 13.7-.4 17 0 26.7 8.1 26.7 20 0 12.1-9.3 21-23.5 21-4.9 0-10.7-1.6-14.1-3.9v21.4c0 .9.2 1.1 1.1 1.2l5.6.6c.5.1.7.4.7 1.9 0 1.6-.2 1.8-.7 1.8-2 0-10.7-.6-18-.6-7.3 0-14.3.6-16.3.6-.6.1-.8-.2-.8-1.8zm29.9-58.4h-.5c-.9 0-1.1.2-1.1 1.1v28.2c.7.2 1.6.4 3.2.4 5.1 0 10.1-4.8 10.1-15.6 0-9.2-5.4-14.1-11.7-14.1zM398.1 554.6c0-1.6.2-1.8.7-1.9l3-.6c.9-.2 1.1-.4 1.1-1.2v-45.2c0-.9-.2-1-1.1-1.1l-3-.5c-.5-.1-.7-.3-.7-1.7 0-1.3.2-1.5.7-1.7 7.2-2.8 15-7.3 22-12.1.3-.2.4-.3.7-.3.6 0 2.3.7 2.3 1.3 0 1.5-.7 7.5-.7 18.2v43c0 .9.2 1.1 1.1 1.2l3 .6c.5.1.7.4.7 1.9 0 1.6-.2 1.8-.7 1.8-2 0-7.7-.6-14.1-.6-6.4 0-12.2.6-14.2.6-.6.2-.8-.1-.8-1.7zM455.8 546.1c-2.8 7-8.2 11.1-14.6 11.1-6.8 0-11.4-5.4-11.4-12.3 0-5.4 1.7-8.4 6.2-10.9 4.1-2.2 10.7-4.1 19-6v-2.8c0-6.3-1.9-10.2-5.3-10.2-.9 0-1.2.3-1.4 1.4l-.6 4.2c-.9 6.3-4.6 9.3-9.5 9.3-2.7 0-5.2-1.7-5.2-4.9 0-5.6 10.9-14.2 24.3-14.2 11.9 0 17.5 4.7 17.5 13.2v16.1c0 7 1.4 7.2 3.8 5.6.3-.2.4-.3.5-.3.8 0 2.1 1.9 2.1 2.5 0 .4-.4.8-.9 1.3l-.4.4c-5.3 5.3-9 7.5-13.3 7.5-5 .2-8.6-3.3-10.8-11zm-.7-1.3v-6.2c0-1.9-.8-3.3-1.8-4.4-1.1-1.1-2.5-1.7-3.4-1.7-1.8 0-2.5 1.1-2.5 3.7 0 4.9 3.3 9.2 6.2 9.2.8 0 1.2-.3 1.5-.6zM481.9 554.6c0-1.6.2-1.8.7-1.9l3-.6c.9-.2 1.1-.4 1.1-1.2v-23.1c0-.9-.2-1-1.1-1.1l-3-.5c-.5-.1-.7-.3-.7-1.7 0-1.3.2-1.5.7-1.7 7.2-2.8 15-7.3 22-12.1.3-.2.4-.3.7-.3.6 0 2.3.7 2.3 1.3 0 1.5-.7 7.5-.7 18.2v20.9c0 .9.2 1.1 1.1 1.2l3 .6c.5.1.7.4.7 1.9 0 1.6-.2 1.8-.7 1.8-2 0-7.7-.6-14.1-.6-6.4 0-12.3.6-14.2.6-.6.2-.8-.1-.8-1.7zm6-58.2c0-5.7 4.2-10.1 10.1-10.1s10.1 4.4 10.1 10.1c0 5.7-4.2 10.1-10.1 10.1s-10.1-4.4-10.1-10.1zM573.3 556.5c-2 0-7.7-.6-14.1-.6-6.4 0-11.6.6-13.6.6-.5 0-.7-.3-.7-1.8 0-1.6.2-1.8.7-1.9l2.4-.6c.9-.3 1.1-.4 1.1-1.2v-17.3c0-8.2-1.9-11.1-7.8-11.1-.6 0-1.5.1-1.9.3V551c0 .9.2 1 1.1 1.2l2.4.6c.5.2.7.4.7 1.9 0 1.6-.2 1.8-.7 1.8-2 0-7.1-.6-13.5-.6s-12.2.6-14.2.6c-.5 0-.7-.3-.7-1.8 0-1.6.2-1.8.7-1.9l3-.6c.9-.2 1.1-.4 1.1-1.2v-23.1c0-.9-.2-1-1.1-1.1l-3-.5c-.5-.1-.7-.3-.7-1.7 0-1.3.2-1.5.7-1.7 7.2-2.8 14-7.1 21.1-12.1.3-.2.4-.3.7-.3.6 0 2.3.7 2.3 1.3 0 1.5-.4 4.6-.4 9.6 2.4-5.2 8-10.4 15.7-10.4 9.2 0 14.9 5.5 14.9 15v24.9c0 .9.2 1.1 1.1 1.2l3 .6c.5.1.7.4.7 1.9-.3 1.6-.5 1.9-1 1.9zM579.3 539.6c1.7 0 1.9.2 2.2.9 1.8 4.4 3.2 7.7 4.7 10.3 1.5 2.5 3.4 3.3 6.1 3.3 3.9 0 6.1-1.9 6.1-5.2 0-3.2-1.7-5.3-7.9-7.1-10.7-3.2-13.3-8.1-13.3-15.6 0-8.7 7.8-15.7 22.1-15.7 3.2 0 6.4.4 9.7.8 1.8.3 1.9.4 1.9 2.2v10.4c0 .7-.2.9-1.8.9-1.7 0-1.9-.2-2.2-.9-1.2-3.2-1.8-4.7-2.7-6.9-.9-2.1-2.4-3.3-5.3-3.3-3 0-5.3 1.2-5.3 4.5 0 2.9 1.4 4.4 7.3 6.5 9.9 3.5 13.1 8.7 13.1 15.4 0 10.3-8.1 17.3-22.1 17.3-5.2 0-8.9-.6-13.4-2-1.8-.5-1.9-.7-1.9-2.5 0-3.2.4-8.2.9-12.3-.1-.8.2-1 1.8-1z" class="st0"/><path d="M33.8 613.1h96.8V624H33.8zM515.1 613.1h99.3V624h-99.3zM174.3 632c-2.6 0-5.8-.3-10.2-.3h-4.3c-5.4 0-10.2.3-11.2.3-.2 0-.3-.1-.3-.9 0-.7.1-.9.3-.9l1.8-.3c.4-.1.5-.2.5-.6v-24.7c0-.4-.1-.5-.5-.6l-1.8-.3c-.2 0-.3-.2-.3-.9s.1-.9.3-.9c.9 0 4.2.3 7.6.3s7.4-.3 8.4-.3c.2 0 .3.1.3.9 0 .7-.1.9-.3.9l-2.6.3c-.4 0-.5.2-.5.6v23.1c0 .7.2 1.2.7 1.6.4.4 1 .7 1.7.7 1.6 0 3.2-.2 5.2-.7.8-.2 1.1-.3 1.6-1.1 1.3-2.5 2.7-5.2 4.1-7.8.2-.3.2-.3.5-.3.7 0 1.9.3 1.8.7-.4 3.2-1.1 7.4-1.8 10.3-.1.8-.2.9-1 .9zM178 631.1c0-.7.1-.9.3-.9l1.4-.3c.4-.1.5-.2.5-.6v-10.7c0-.4-.1-.4-.5-.5l-1.4-.2c-.2 0-.3-.1-.3-.8 0-.6.1-.7.3-.8 3.3-1.3 7-3.4 10.2-5.6.1-.1.2-.1.3-.1.3 0 1.1.3 1.1.6 0 .7-.3 3.5-.3 8.5v9.7c0 .4.1.5.5.6l1.4.3c.2 0 .3.2.3.9s-.1.9-.3.9c-.9 0-3.6-.3-6.6-.3-3 0-5.7.3-6.6.3-.3-.1-.3-.3-.3-1zm2.7-27.1c0-2.7 2-4.7 4.7-4.7s4.7 2 4.7 4.7-2 4.7-4.7 4.7-4.7-2-4.7-4.7zM201 632.3c-4.3 0-6.5-2.7-6.5-7.1V614c0-.4 0-.4-.5-.5l-1.5-.2c-.3 0-.3-.1-.3-.8s.1-.9.3-.9c4.3-1 6.6-2.4 9.3-5.2.2-.2.3-.3.9-.3.7 0 .8 0 .8.3.2 1.2.3 3 .3 4.8h4.6c.4 0 .6.2.6 1.3s-.2 1.2-.6 1.2h-4.6v8.1c0 3.8 1 4.7 2.8 4.7.5 0 .8-.2 1-.2.4 0 1.1.7 1 1.1-.9 2.4-3.8 4.9-7.6 4.9zM220.7 632.3c-6.1 0-10.8-4.2-10.8-10.6 0-6.6 4.9-10.9 12.2-10.9 6.1 0 9.4 2.9 9.4 6.9 0 .4 0 .8-.1 1.1 0 .2-.2.3-.4.3-3.2.2-7.9.2-11.8.1.6 2 1.7 4 2.9 5.1 1.6 1.6 2.7 2 4.1 2 1.7 0 2.9-.7 4-1.7.4-.3 1.4.4 1.2.9-1.7 4.1-6.3 6.8-10.7 6.8zm-1.7-14.1 1.3-.2c1.9-.2 2.7-1.6 2.7-3.6 0-1.6-.7-2.4-1.8-2.4-1.3 0-2.5 1.1-2.5 3.6 0 .9.1 1.8.3 2.6zM247.8 632c-.9 0-3.6-.3-7.8-.3-3 0-5.7.3-6.6.3-.2 0-.3-.1-.3-.9s.1-.9.3-.9l1.4-.3c.4-.1.5-.1.5-.5v-10.8c0-.4-.1-.4-.5-.5l-1.4-.2c-.2 0-.3-.1-.3-.8 0-.6.1-.7.3-.8 3.3-1.3 6.5-3.3 9.8-5.6.1-.1.2-.1.3-.1.3 0 1.1.3 1.1.6 0 .7-.2 4-.2 6.6 1.2-4 3.5-7 6-7s3.6 1.8 3.6 4.1c0 3.9-2.2 5.8-4.2 5.8-.7 0-1.3-.2-2.2-.9-1-.7-1.8-1.1-2.3-1.1-.2 0-.4 0-.5.1v10.5c0 .4.1.5.5.5l2.6.3c.2 0 .3.2.3.9 0 .8-.1 1-.4 1zM266.3 627.2c-1.3 3.3-3.8 5.2-6.8 5.2-3.1 0-5.3-2.5-5.3-5.7 0-2.5.8-3.9 2.9-5.1 1.9-1 5-1.9 8.9-2.8v-1.3c0-2.9-.9-4.7-2.5-4.7-.4 0-.6.1-.7.7l-.3 2c-.4 2.9-2.1 4.3-4.4 4.3-1.3 0-2.4-.8-2.4-2.3 0-2.6 5.1-6.6 11.3-6.6 5.6 0 8.2 2.2 8.2 6.2v7.5c0 3.3.7 3.3 1.8 2.6.1-.1.2-.1.2-.1.4 0 1 .9 1 1.1 0 .2-.2.4-.4.6l-.2.2c-2.5 2.4-4.2 3.5-6.2 3.5-2.4-.2-4.1-1.8-5.1-5.3zm-.4-.7v-2.9c0-.9-.4-1.6-.9-2-.5-.5-1.2-.8-1.6-.8-.8 0-1.2.5-1.2 1.7 0 2.3 1.6 4.3 2.9 4.3.5 0 .7-.1.8-.3zM293.1 632c-.9 0-3.6-.3-7.8-.3-3 0-5.7.3-6.6.3-.2 0-.3-.1-.3-.9s.1-.9.3-.9l1.4-.3c.4-.1.5-.1.5-.5v-10.8c0-.4-.1-.4-.5-.5l-1.4-.2c-.2 0-.3-.1-.3-.8 0-.6.1-.7.3-.8 3.3-1.3 6.5-3.3 9.8-5.6.1-.1.2-.1.3-.1.3 0 1.1.3 1.1.6 0 .7-.2 4-.2 6.6 1.2-4 3.5-7 6-7s3.6 1.8 3.6 4.1c0 3.9-2.2 5.8-4.2 5.8-.7 0-1.3-.2-2.2-.9-1-.7-1.8-1.1-2.3-1.1-.2 0-.4 0-.5.1v10.5c0 .4.1.5.5.5l2.6.3c.2 0 .3.2.3.9-.1.8-.2 1-.4 1zM305.9 641.1c-2.5 0-4.4-1.6-4.4-4.2s2-4.4 4.6-4.4c1.5 0 2.9.6 4.1 1.6l1.5-2.2-9.3-18.4c-.2-.4-.2-.5-.6-.6l-1.3-.2c-.2 0-.3-.2-.3-.9s.1-.9.3-.9c.9 0 3.6.3 6.6.3 2.2 0 7.2-.3 8.1-.3.2 0 .3.1.3.9 0 .7-.1.9-.3.9l-2.4.2c-.4 0-.4.2-.3.6l4.5 9.2 1.4-4.1c1.5-4.3 1.3-4.7.2-5.1l-2.4-.8c-.2-.1-.3-.1-.3-.9 0-.7.1-.9.3-.9.9 0 3.6.3 5.7.3s4.2-.3 5.1-.3c.2 0 .3.1.3.9 0 .7-.1.8-.3.9l-1.9.9c-.8.4-1.1.8-3.4 5l-6.1 11.4-2.4 4.7c-2.1 4.3-3.9 6.4-7.3 6.4zM352.8 632c-.9 0-4.2-.3-8.4-.3-3.4 0-6.7.3-7.6.3-.2 0-.3-.1-.3-.9 0-.7.1-.9.3-.9l1.8-.3c.4-.1.5-.2.5-.6v-24.7c0-.4-.1-.5-.5-.6l-1.8-.3c-.2 0-.3-.2-.3-.9s.1-.9.3-.9c.9 0 5.2.3 12.7.3h.9c4.5 0 10.5-.2 13.6-.2.8 0 .9.1.9.9 0 2.8-.2 6.2-.6 9.4 0 .3-.2.4-1.1.4-.9 0-1.1-.1-1.2-.4-1.1-3.2-1.5-4.3-2.4-6.7-.3-.8-.6-.9-1.4-1.1-2-.3-6.2-.6-7.8-.6h-.2c-.4 0-.5.1-.5.5v11.8h3c.8 0 1-.1 1.3-.9.9-1.9 1.2-2.7 1.9-4.3.1-.2.2-.3 1.1-.3.9 0 1 .1 1 .4v12.2c0 .3-.1.4-1 .4s-1 0-1.1-.3c-.7-1.6-1.1-2.4-1.9-4.3-.4-.8-.5-.9-1.3-.9h-3v11c0 .4.1.5.5.6l2.6.3c.2 0 .3.2.3.9 0 .8-.1 1-.3 1zM373.7 632.3c-6.1 0-10.8-4.2-10.8-10.6 0-6.6 4.9-10.9 12.2-10.9 6.1 0 9.4 2.9 9.4 6.9 0 .4 0 .8-.1 1.1 0 .2-.2.3-.4.3-3.2.2-7.9.2-11.8.1.6 2 1.7 4 2.9 5.1 1.6 1.6 2.7 2 4.1 2 1.7 0 2.9-.7 4-1.7.4-.3 1.4.4 1.2.9-1.6 4.1-6.2 6.8-10.7 6.8zm-1.7-14.1 1.3-.2c1.9-.2 2.7-1.6 2.7-3.6 0-1.6-.7-2.4-1.8-2.4-1.3 0-2.5 1.1-2.5 3.6 0 .9.2 1.8.3 2.6zM387.7 624.1c.8 0 .9.1 1 .4.8 2 1.5 3.6 2.2 4.8.7 1.2 1.6 1.6 2.8 1.6 1.8 0 2.9-.9 2.9-2.4s-.8-2.4-3.7-3.3c-5-1.5-6.2-3.8-6.2-7.3 0-4 3.6-7.3 10.3-7.3 1.5 0 3 .2 4.5.4.8.1.9.2.9 1v4.9c0 .3-.1.4-.9.4s-.9-.1-1-.4c-.6-1.5-.9-2.2-1.3-3.2s-1.1-1.6-2.5-1.6-2.4.6-2.4 2.1c0 1.3.7 2 3.4 3 4.6 1.6 6.1 4 6.1 7.1 0 4.8-3.8 8-10.3 8-2.4 0-4.1-.3-6.2-.9-.8-.2-.9-.3-.9-1.1 0-1.5.2-3.8.4-5.7 0-.4.1-.5.9-.5zM413.2 632.3c-4.3 0-6.5-2.7-6.5-7.1V614c0-.4 0-.4-.5-.5l-1.5-.2c-.3 0-.3-.1-.3-.8s.1-.9.3-.9c4.3-1 6.6-2.4 9.3-5.2.2-.2.3-.3.9-.3.7 0 .8 0 .8.3.2 1.2.3 3 .3 4.8h4.6c.4 0 .6.2.6 1.3s-.2 1.2-.6 1.2H416v8.1c0 3.8 1 4.7 2.8 4.7.5 0 .8-.2 1-.2.4 0 1.1.7 1 1.1-.9 2.4-3.8 4.9-7.6 4.9zM421.8 631.1c0-.7.1-.9.3-.9l1.4-.3c.4-.1.5-.2.5-.6v-10.7c0-.4-.1-.4-.5-.5l-1.4-.2c-.2 0-.3-.1-.3-.8 0-.6.1-.7.3-.8 3.3-1.3 7-3.4 10.2-5.6.1-.1.2-.1.3-.1.3 0 1.1.3 1.1.6 0 .7-.3 3.5-.3 8.5v9.7c0 .4.1.5.5.6l1.4.3c.2 0 .3.2.3.9s-.1.9-.3.9c-.9 0-3.6-.3-6.6-.3s-5.7.3-6.6.3c-.2-.1-.3-.3-.3-1zm2.8-27.1c0-2.7 2-4.7 4.7-4.7s4.7 2 4.7 4.7-2 4.7-4.7 4.7c-2.8 0-4.7-2-4.7-4.7zM448.1 632.2c-.9 0-1.1-.1-1.3-.6-.7-1.7-2.9-6-3.7-7.4l-5.6-10.6c-.2-.4-.2-.5-.6-.6l-1.3-.2c-.2 0-.3-.2-.3-.9s.1-.9.3-.9c.9 0 3.6.3 6.6.3 2.2 0 7.2-.3 8.1-.3.2 0 .3.1.3.9 0 .7-.1.9-.3.9l-2.4.2c-.4 0-.5.2-.3.6l4.5 8.6 1.3-3.5c1.6-4.3 1.5-4.7.3-5.1l-2.4-.8c-.2-.1-.3-.1-.3-.9 0-.7.1-.9.3-.9.9 0 3.6.3 5.7.3s4.2-.3 5.1-.3c.2 0 .3.1.3.9 0 .7-.1.8-.3.9l-1.7.9c-.8.4-1.1.9-3.6 5l-3.4 5.6c-.8 1.3-3.3 5.7-4.1 7.4-.2.4-.3.5-1.2.5zM473.1 627.2c-1.3 3.3-3.8 5.2-6.8 5.2-3.1 0-5.3-2.5-5.3-5.7 0-2.5.8-3.9 2.9-5.1 1.9-1 5-1.9 8.9-2.8v-1.3c0-2.9-.9-4.7-2.5-4.7-.4 0-.6.1-.7.7l-.3 2c-.4 2.9-2.1 4.3-4.4 4.3-1.3 0-2.4-.8-2.4-2.3 0-2.6 5.1-6.6 11.3-6.6 5.6 0 8.2 2.2 8.2 6.2v7.5c0 3.3.7 3.3 1.8 2.6.1-.1.2-.1.2-.1.4 0 1 .9 1 1.1 0 .2-.2.4-.4.6l-.2.2c-2.5 2.4-4.2 3.5-6.2 3.5-2.4-.2-4.1-1.8-5.1-5.3zm-.4-.7v-2.9c0-.9-.4-1.6-.9-2-.5-.5-1.2-.8-1.6-.8-.8 0-1.2.5-1.2 1.7 0 2.3 1.6 4.3 2.9 4.3.5 0 .7-.1.8-.3zM485.2 631.1c0-.7.1-.9.3-.9l1.4-.3c.4-.1.5-.2.5-.6v-21c0-.4-.1-.4-.5-.5l-1.4-.2c-.2 0-.3-.1-.3-.8 0-.6.1-.7.3-.8 3.3-1.3 7-3.4 10.2-5.6.1-.1.2-.1.3-.1.3 0 1.1.3 1.1.6 0 .7-.3 3.5-.3 8.5v20c0 .4.1.5.5.6l1.4.3c.2 0 .3.2.3.9s-.1.9-.3.9c-.9 0-3.6-.3-6.6-.3-3 0-5.7.3-6.6.3-.3-.1-.3-.3-.3-1z" class="st1"/><path d="m610.4 437.9-280.6-.4-.3-324.2c93.3 13.8 190.4 4.2 280.7-31l.2 355.6z" class="st0"/><path d="M326.4 96v337.3c98 2.9 193.3.3 265.5-29.5l1.6-364.5C500 70.3 410.2 91.4 326.4 96z" class="st2"/><path d="M383.7 436.6c-19.1 0-38.3-.4-57.3-1l-2.2-.1V93.9l2.1-.1c1.1-.1 2.2.1 3.2 0 76.6-4.6 162.7-23.3 263.2-56.7l3-1-1.6 369.2-1.4.6c-59.6 24.6-133.7 30.7-209 30.7zm-55-5.5c155.5 4.5 219.4-11.9 260.9-28.9l1.5-359.8c-100.1 33-186 51.3-262.5 55.7v333z" class="st0"/><path d="M39.7 94v180l290.8 24 225.1-43.9.1-246c-47.9 31.3-130.9 59.7-226.1 85.6L39.7 94z" class="st1"/><path d="M96.8 163.4c-11.5-16.1-36.2-21.8-57.1-13.2l-.2 149 229.7 5.2 221.2-40.1c-6.7-25.3-40.4-41.5-71-33.1-11.3-24.3-51-23.6-61.2-9.8-16.2-39.4-77.7-45.4-99.5-10.6-2.5-31-45.4-42.9-66.5-23.2 8-61.9-77.1-66.8-95.4-24.2z" class="st2"/><path d="M140.4 220c28.2-7.2 47.1 3.9 56.3 27.1 58.8-10.6 77.8 22.8 83 71.4l-25-8.4c-13.5-23.8-32.1-45.6-66.8-40.8-4.5-32.7-21-45-47.5-49.3z" style="fill:#e4f4f8"/><path d="M552.9 245c-169.8 6.2-280.5 56.7-348.5 159l-4.1 6.1 355.3-41.6V244.9l-2.7.1z" style="fill:#c7962c"/><path d="M39.4 263.8v173.5h290.3c79.3-.2 153.8-19.8 226.1-60.3v-82.1c-172 6.9-321.9-57.6-516.4-31.1z" class="st0"/><path d="M331.5 437.5H327V93.8h2.7l1.8-.6z" class="st2"/></svg>