<svg xmlns="http://www.w3.org/2000/svg" xml:space="preserve" id="Layer_1" x="0" y="0" style="enable-background:new 0 0 2400 1595.9" version="1.1" viewBox="0 0 2400 1595.9"><style>.st1{fill:#1769b1}.st3{fill:#fff}</style><path d="M0 1408.3h2394.8" style="fill:none;stroke:#df1e38;stroke-width:11.0163;stroke-miterlimit:10"/><path d="M52.2 946.9c0-47.1 0-55.8-.6-65.7-.6-10.5-3.1-15.5-13.3-17.7-2.5-.6-7.7-.9-12.1-.9-3.4 0-5.3-.6-5.3-2.8 0-2.2 2.2-2.8 6.8-2.8 16.4 0 35.9.9 42.5.9 10.5 0 34.1-.9 43.7-.9 19.5 0 40.3 1.9 57 13.3 8.7 5.9 21.1 21.7 21.1 42.4 0 22.9-9.6 44-40.9 69.4 27.6 34.7 49 62.3 67.2 81.5 17.4 18 30.1 20.1 34.7 21.1 3.4.6 6.2.9 8.7.9 2.5 0 3.7.9 3.7 2.5 0 2.5-2.2 3.1-5.9 3.1H230c-17.3 0-25.1-1.6-33.1-5.9-13.3-7.1-25.1-21.7-42.5-45.6-12.4-17-26.6-38.1-30.7-42.8-1.6-1.8-3.4-2.2-5.6-2.2l-26.9-.6c-1.6 0-2.5.6-2.5 2.5v4.3c0 28.8 0 53.3 1.5 66.3.9 9 2.8 15.8 12.1 17 4.7.6 11.5 1.2 15.2 1.2 2.5 0 3.7.9 3.7 2.5 0 2.2-2.2 3.1-6.2 3.1-18 0-40.9-.9-45.5-.9-5.9 0-25.4.9-37.8.9-4 0-6.2-.9-6.2-3.1 0-1.6 1.2-2.5 5-2.5 4.7 0 8.4-.6 11.2-1.2 6.2-1.2 7.7-8.1 9-17 1.5-13 1.5-37.5 1.5-66v-54.3zm36.5 24.5c0 3.4.6 4.6 2.8 5.6 6.5 2.2 15.8 3.1 23.5 3.1 12.4 0 16.4-1.2 22-5.3 9.3-6.8 18.3-21.1 18.3-46.5 0-44-29.1-56.7-47.4-56.7-7.7 0-13.3.3-16.4 1.2-2.2.6-2.8 1.9-2.8 4.3v94.3z" class="st1"/><path d="M227.6 974.2c0-53 35-121.5 128-121.5 77.2 0 125.2 44.9 125.2 115.9s-49.6 127-128.3 127c-89 .1-124.9-66.6-124.9-121.4zm209.7 5.9c0-69.4-40-112.5-90.8-112.5-35.6 0-76.2 19.8-76.2 97 0 64.5 35.7 115.6 95.1 115.6 21.7 0 71.9-10.6 71.9-100.1zM522.2 946.9c0-47.1 0-55.8-.6-65.7-.6-10.5-3.1-15.5-13.3-17.7-2.5-.6-7.7-.9-12.1-.9-3.4 0-5.3-.6-5.3-2.8 0-2.2 2.2-2.8 6.8-2.8 16.4 0 36 .9 42.2.9 15.2 0 27.3-.9 37.8-.9 56.1 0 66 30.1 66 46.5 0 25.4-14.5 40.6-31.6 54.2 25.4 8.7 56.4 30.7 56.4 66.9 0 33.1-25.7 67.6-82.7 67.6-3.7 0-12.7-.6-21.7-.9-9.3-.6-18.6-.9-23.2-.9-3.4 0-10.2 0-17.7.3-7.1 0-15.2.6-21.4.6-4 0-6.2-.9-6.2-3.1 0-1.6 1.2-2.5 5-2.5 4.6 0 8.4-.6 11.1-1.2 6.2-1.2 7.8-8.1 9-17 1.5-13 1.5-37.5 1.5-66v-54.6zm37.2 5.3c0 2.5.9 3.1 2.2 3.4 2.8.6 7.4.9 14.6.9 10.2 0 17-1.2 22.3-5.9 8.1-6.5 12.7-17.7 12.7-32.9 0-20.8-12.1-48-38.7-48-4.3 0-7.1 0-10.2.6-2.2.6-2.8 1.9-2.8 5.3v76.6zm40.9 24.8c-6.5-4.7-13.6-6.8-25.7-7.4-5.6-.3-8.7-.3-13.3-.3-1.2 0-1.9.6-1.9 2.2v73.4c0 20.5.9 25.7 10.8 29.8 8.4 3.4 15.5 3.7 22.6 3.7 13.9 0 37.5-7.4 37.5-39.7.1-19.3-6.4-45.3-30-61.7zM711.9 946.9c0-47.1 0-55.8-.6-65.7-.6-10.5-3.1-15.5-13.3-17.7-2.5-.6-7.7-.9-12.1-.9-3.4 0-5.3-.6-5.3-2.8 0-2.2 2.2-2.8 6.8-2.8 8.4 0 17.4.3 25.1.3 8 .3 15.2.6 19.5.6 9.9 0 71.6 0 77.5-.3 5.9-.6 10.8-1.2 13.3-1.9 1.6-.3 3.4-1.2 5-1.2 1.5 0 1.9 1.2 1.9 2.8 0 2.2-1.5 5.9-2.5 20.1-.3 3.1-.9 16.7-1.5 20.4-.3 1.6-.9 3.4-3.1 3.4s-2.8-1.6-2.8-4.3c0-2.2-.3-7.4-1.9-11.2-2.2-5.6-5.3-9.3-20.8-11.2-5.3-.6-37.8-1.2-44-1.2-1.5 0-2.2.9-2.2 3.1V955c0 2.2.3 3.4 2.2 3.4 6.8 0 42.5 0 49.6-.6 7.4-.6 12.1-1.5 14.9-4.6 2.2-2.5 3.4-4 4.9-4 1.2 0 2.2.6 2.2 2.5s-1.2 6.8-2.5 22.6c-.3 6.2-1.2 18.6-1.2 20.8 0 2.5 0 5.9-2.8 5.9-2.2 0-2.8-1.2-2.8-2.8-.3-3.1-.3-7.1-1.2-11.2-1.5-6.2-5.9-10.8-17.4-12.1-5.9-.6-36.6-.9-44-.9-1.5 0-1.9 1.2-1.9 3.1v24.5c0 10.5-.3 39 0 48 .6 21.4 5.6 26 37.2 26 8.1 0 21.1 0 29.1-3.7 8.1-3.7 11.8-10.2 13.9-22.9.6-3.4 1.2-4.6 3.4-4.6 2.5 0 2.5 2.5 2.5 5.6 0 7.1-2.5 28.2-4 34.4-2.2 8.1-5 8.1-16.7 8.1-23.2 0-40.3-.6-53.6-.9-13.3-.6-22.9-.9-32.2-.9-3.4 0-10.2 0-17.7.3-7.1 0-15.2.6-21.4.6-4 0-6.2-.9-6.2-3.1 0-1.6 1.2-2.5 5-2.5 4.6 0 8.4-.6 11.1-1.2 6.2-1.2 7.8-8.1 9-17 1.5-13 1.5-37.5 1.5-66v-54.9zM884.5 946.9c0-47.1 0-55.8-.6-65.7-.6-10.5-3.1-15.5-13.3-17.7-2.5-.6-7.7-.9-12.1-.9-3.4 0-5.3-.6-5.3-2.8 0-2.2 2.2-2.8 6.8-2.8 16.4 0 35.9.9 42.5.9 10.5 0 34.1-.9 43.7-.9 19.5 0 40.3 1.9 57 13.3 8.7 5.9 21.1 21.7 21.1 42.4 0 22.9-9.6 44-40.9 69.4 27.6 34.7 48.9 62.3 67.2 81.5 17.3 18 30.1 20.1 34.7 21.1 3.4.6 6.2.9 8.7.9 2.5 0 3.7.9 3.7 2.5 0 2.5-2.2 3.1-5.9 3.1h-29.5c-17.3 0-25.1-1.6-33.2-5.9-13.3-7.1-25.1-21.7-42.5-45.6-12.4-17-26.6-38.1-30.7-42.8-1.5-1.8-3.4-2.2-5.6-2.2l-27-.6c-1.5 0-2.5.6-2.5 2.5v4.3c0 28.8 0 53.3 1.5 66.3.9 9 2.8 15.8 12.1 17 4.6.6 11.4 1.2 15.2 1.2 2.5 0 3.7.9 3.7 2.5 0 2.2-2.2 3.1-6.2 3.1-18 0-40.9-.9-45.6-.9-5.9 0-25.4.9-37.8.9-4 0-6.2-.9-6.2-3.1 0-1.6 1.2-2.5 5-2.5 4.6 0 8.4-.6 11.1-1.2 6.2-1.2 7.8-8.1 9-17 1.6-13 1.6-37.5 1.6-66v-54.3zm36.5 24.5c0 3.4.6 4.6 2.8 5.6 6.5 2.2 15.8 3.1 23.5 3.1 12.4 0 16.4-1.2 22-5.3 9.3-6.8 18.3-21.1 18.3-46.5 0-44-29.1-56.7-47.4-56.7-7.8 0-13.3.3-16.4 1.2-2.2.6-2.8 1.9-2.8 4.3v94.3z" class="st1"/><path d="m1124.6 874.4-46.2 1.2c-18 .6-25.4 2.2-30.1 9-3.1 4.6-4.6 8.4-5.2 10.8-.6 2.5-1.6 3.7-3.4 3.7-2.2 0-2.8-1.5-2.8-4.9 0-5 5.9-33.2 6.5-35.6.9-4 1.8-5.9 3.7-5.9 2.5 0 5.6 3.1 13.3 3.7 9 .9 20.8 1.5 31 1.5h122.7c9.9 0 16.7-.9 21.4-1.5 4.7-.9 7.1-1.6 8.4-1.6 2.2 0 2.5 1.9 2.5 6.5 0 6.5-.9 27.9-.9 36-.3 3.1-.9 4.9-2.8 4.9-2.5 0-3.1-1.5-3.4-6.2l-.3-3.4c-.6-8.1-9-16.7-36.6-17.3l-39.1-.9v127c0 28.5 0 53 1.6 66.3.9 8.7 2.8 15.5 12.1 16.7 4.3.6 11.1 1.2 15.8 1.2 3.4 0 5 .9 5 2.5 0 2.2-2.5 3.1-5.9 3.1-20.4 0-40-.9-48.6-.9-7.1 0-26.6.9-39 .9-4 0-6.2-.9-6.2-3.1 0-1.6 1.2-2.5 4.9-2.5 4.7 0 8.4-.6 11.2-1.2 6.2-1.2 8.1-8.1 9-17 1.5-13 1.5-37.5 1.5-66v-127zM1349.9 946.9c0-47.1 0-55.8-.6-65.7-.6-10.5-3.1-15.5-13.3-17.7-2.5-.6-7.7-.9-12.1-.9-3.4 0-5.3-.6-5.3-2.8 0-2.2 2.2-2.8 6.8-2.8 16.4 0 35.9.9 44 .9 7.4 0 26.9-.9 39-.9 4.3 0 6.5.6 6.5 2.8 0 2.2-1.9 2.8-5.6 2.8-3.4 0-5.3.3-9 .9-8.4 1.6-10.9 6.8-11.5 17.7-.6 9.9-.6 18.6-.6 65.7v57.3c0 13.3-.1 10.4-.1 25.9 0 17.7-.2 32.3-6.5 49.7-6.5 18.9-22.9 40.3-52.7 58.6-4 2.5-9 4.9-15.5 8-2.2 1.2-4.7 1.9-6.2 1.9-1.2 0-2.5-.9-2.5-2.5s1.5-2.8 6.8-5.6c4-2.2 8.7-5.6 14.9-11.8 23.6-23.8 23.2-54.8 23.2-115.6v-65.9zM1424.6 1071.5c0-7.8 5.6-18.9 18.9-18.9 10.6 0 18.9 7.1 18.9 18 0 10.8-7.4 19.8-19.2 19.8-13.1 0-18.6-10.2-18.6-18.9zM1579.5 946.9c0-47.1 0-55.8-.6-65.7-.6-10.5-3.1-15.5-13.3-17.7-2.5-.6-7.7-.9-12.1-.9-3.4 0-5.3-.6-5.3-2.8 0-2.2 2.2-2.8 6.8-2.8 16.4 0 35.9.9 44.6.9 9.6 0 29.1-.9 47.7-.9 38.7 0 90.5 0 124.3 35.3 15.5 16.1 30.1 41.8 30.1 78.7 0 39-16.4 68.8-33.8 86.5-14.3 14.6-46.5 36.6-103.8 36.6-11.2 0-23.9-.9-35.7-1.9-11.8-.9-22.6-1.9-30.4-1.9-3.4 0-10.2 0-17.7.3-7.1 0-15.2.6-21.3.6-4 0-6.2-.9-6.2-3.1 0-1.6 1.2-2.5 4.9-2.5 4.7 0 8.4-.6 11.1-1.2 6.2-1.2 7.8-8.1 9-17 1.6-13 1.6-37.5 1.6-66v-54.5zm38.7 34.1c0 32.9.3 56.7.6 62.6.3 7.8.9 20.1 3.4 23.6 4 5.9 16.1 12.4 40.6 12.4 31.6 0 52.7-6.2 71.3-22.3 19.8-17 26-45.2 26-77.2 0-39.4-16.4-64.8-29.8-77.5-28.5-27.3-63.8-31-88-31-6.2 0-17.6.9-20.1 2.2-2.8 1.2-3.7 2.8-3.7 6.2-.3 10.5-.3 37.5-.3 62v39zM1812.5 974.2c0-53 35-121.5 128-121.5 77.2 0 125.2 44.9 125.2 115.9s-49.6 127-128.3 127c-88.9.1-124.9-66.6-124.9-121.4zm209.8 5.9c0-69.4-40-112.5-90.8-112.5-35.6 0-76.2 19.8-76.2 97 0 64.5 35.6 115.6 95.1 115.6 21.7 0 71.9-10.6 71.9-100.1zM2145.9 1001.5c0 39.7 0 61 6.5 66.6 5.3 4.7 13.3 6.8 37.5 6.8 16.4 0 28.5-.3 36.2-8.7 3.7-4 7.5-12.7 8.1-18.6.3-2.8.9-4.7 3.4-4.7 2.2 0 2.5 1.5 2.5 5.3 0 3.4-2.2 26.6-4.6 35.6-1.9 6.8-3.4 8.4-19.5 8.4-22.3 0-38.4-.6-52.4-.9-14-.6-25.1-.9-37.8-.9-3.4 0-10.2 0-17.7.3-7.1 0-15.2.6-21.4.6-4 0-6.2-.9-6.2-3.1 0-1.6 1.2-2.5 4.9-2.5 4.7 0 8.4-.6 11.2-1.2 6.2-1.2 7.7-8.1 9-17 1.6-13 1.6-37.5 1.6-66V947c0-47.1 0-55.8-.6-65.7-.6-10.5-3.1-15.5-13.3-17.7-2.5-.6-6.2-.9-10.2-.9-3.4 0-5.3-.6-5.3-2.8 0-2.2 2.2-2.8 6.8-2.8 14.6 0 34.1.9 42.5.9 7.4 0 30.1-.9 42.2-.9 4.3 0 6.5.6 6.5 2.8 0 2.2-1.9 2.8-5.6 2.8-3.4 0-8.4.3-12 .9-8.4 1.6-10.9 6.8-11.5 17.7-.6 9.9-.6 18.6-.6 65.7v54.5zM2271.4 946.9c0-47.1 0-55.8-.6-65.7-.6-10.5-3.1-15.5-13.3-17.7-2.5-.6-7.7-.9-12.1-.9-3.4 0-5.3-.6-5.3-2.8 0-2.2 2.2-2.8 6.8-2.8 8.4 0 17.3.3 25.1.3 8 .3 15.2.6 19.5.6 9.9 0 71.6 0 77.5-.3 5.9-.6 10.8-1.2 13.3-1.9 1.5-.3 3.4-1.2 4.9-1.2 1.5 0 1.8 1.2 1.8 2.8 0 2.2-1.5 5.9-2.5 20.1-.3 3.1-.9 16.7-1.5 20.4-.3 1.6-.9 3.4-3.1 3.4s-2.8-1.6-2.8-4.3c0-2.2-.3-7.4-1.8-11.2-2.2-5.6-5.3-9.3-20.8-11.2-5.3-.6-37.8-1.2-44-1.2-1.5 0-2.2.9-2.2 3.1V955c0 2.2.3 3.4 2.2 3.4 6.8 0 42.5 0 49.6-.6 7.5-.6 12.1-1.5 14.9-4.6 2.2-2.5 3.4-4 5-4 1.2 0 2.2.6 2.2 2.5s-1.2 6.8-2.5 22.6c-.3 6.2-1.2 18.6-1.2 20.8 0 2.5 0 5.9-2.8 5.9-2.2 0-2.8-1.2-2.8-2.8-.3-3.1-.3-7.1-1.2-11.2-1.5-6.2-5.9-10.8-17.3-12.1-5.9-.6-36.6-.9-44-.9-1.6 0-1.9 1.2-1.9 3.1v24.5c0 10.5-.3 39 0 48 .6 21.4 5.6 26 37.2 26 8 0 21.1 0 29.1-3.7 8.1-3.7 11.8-10.2 13.9-22.9.6-3.4 1.2-4.6 3.4-4.6 2.5 0 2.5 2.5 2.5 5.6 0 7.1-2.5 28.2-4 34.4-2.2 8.1-4.9 8.1-16.7 8.1-23.2 0-40.3-.6-53.6-.9-13.3-.6-22.9-.9-32.3-.9-3.4 0-10.2 0-17.6.3-7.1 0-15.2.6-21.4.6-4 0-6.2-.9-6.2-3.1 0-1.6 1.2-2.5 4.9-2.5 4.6 0 8.3-.6 11.2-1.2 6.2-1.2 7.7-8.1 9-17 1.5-13 1.5-37.5 1.5-66v-54.9zM34.8 1237.1c0-30.9 0-36.6-.4-43.2-.4-6.9-2.5-10.4-6.9-11.4-2.3-.6-4.9-.8-7.3-.8-2 0-3.2-.4-3.2-2 0-1.2 1.6-1.6 4.9-1.6 7.7 0 20.6.6 26.5.6 5.1 0 17.1-.6 24.9-.6 2.6 0 4.3.4 4.3 1.6 0 1.6-1.2 2-3.3 2-2 0-3.7.2-6.1.6-5.5 1-7.1 4.5-7.6 11.6-.4 6.5-.4 12.2-.4 43.2v35.9c0 19.8 0 35.8.8 44.6.6 5.5 2 9.2 8.1 10 2.9.4 7.3.9 10.4.9 2.2 0 3.3.6 3.3 1.6 0 1.4-1.6 2-3.9 2-13.4 0-26.3-.6-31.8-.6-4.7 0-17.5.6-25.7.6-2.6 0-4.1-.6-4.1-2 0-1 .8-1.6 3.3-1.6 3.1 0 5.5-.4 7.3-.9 4.1-.8 5.3-4.3 5.9-10.2 1-8.6 1-24.7 1-44.4v-35.9zM123 1304.3c.4 15.9 3.1 21.2 7.1 22.6 3.5 1.2 7.3 1.4 10.6 1.4 2.2 0 3.5.4 3.5 1.6 0 1.6-1.8 2-4.7 2-13.3 0-21.4-.6-25.3-.6-1.8 0-11.4.6-22 .6-2.7 0-4.5-.2-4.5-2 0-1.2 1.2-1.6 3.2-1.6 2.7 0 6.3-.2 9.2-1 5.3-1.6 6.1-7.6 6.3-25.3l1.8-120.6c0-4.1.6-6.9 2.7-6.9 2.2 0 4.1 2.7 7.5 6.3 2.5 2.7 33.4 35.9 63.1 65.4 13.8 13.9 41.4 43.2 44.8 46.5h1l-2-91.5c-.2-12.4-2-16.3-6.9-18.3-3.1-1.2-7.9-1.2-10.8-1.2-2.5 0-3.3-.6-3.3-1.8 0-1.6 2.2-1.8 5.3-1.8 10.6 0 20.4.6 24.6.6 2.2 0 10-.6 20-.6 2.7 0 4.7.2 4.7 1.8 0 1.2-1.2 1.8-3.7 1.8-2 0-3.7 0-6.1.6-5.7 1.6-7.3 5.9-7.5 17.3l-2.2 128.5c0 4.5-.8 6.3-2.6 6.3-2.2 0-4.7-2.3-6.9-4.5-12.8-12.2-38.9-38.9-60.1-59.9-22.2-22-44.8-47.5-48.5-51.3h-.6l2.3 85.6zM278 1329.6c-3.3-1.4-3.9-2.5-3.9-6.9 0-11.2.8-23.4 1-26.7.2-3.1.8-5.3 2.5-5.3 1.8 0 2 1.8 2 3.5 0 2.6.8 6.9 1.8 10.4 4.5 15.1 16.5 20.6 29.1 20.6 18.3 0 27.3-12.4 27.3-23.2 0-10-3.1-19.3-20-32.6l-9.4-7.3c-22.4-17.5-30.1-31.8-30.1-48.3 0-22.4 18.7-38.5 47.1-38.5 13.2 0 21.8 2 27.1 3.5 1.8.4 2.9 1 2.9 2.5 0 2.7-.8 8.5-.8 24.4 0 4.5-.6 6.1-2.2 6.1-1.4 0-2-1.2-2-3.7 0-1.8-1-8.1-5.3-13.5-3.1-3.9-9-10-22.2-10-15.1 0-24.2 8.8-24.2 21 0 9.4 4.7 16.5 21.6 29.3l5.7 4.3c24.6 18.5 33.4 32.6 33.4 51.9 0 11.8-4.5 25.9-19.1 35.5-10.2 6.5-21.6 8.3-32.4 8.3-12 0-21.1-1.4-29.9-5.3zM419.6 1189.4l-30.4.8c-11.8.4-16.7 1.4-19.8 5.9-2 3.1-3.1 5.5-3.5 7.1-.4 1.6-1 2.5-2.2 2.5-1.4 0-1.8-1-1.8-3.3 0-3.2 3.9-21.8 4.3-23.4.6-2.6 1.2-3.9 2.5-3.9 1.6 0 3.7 2 8.8 2.5 5.9.6 13.7 1 20.4 1h80.7c6.5 0 11-.6 14.1-1 3.1-.6 4.7-1 5.5-1 1.4 0 1.6 1.2 1.6 4.3 0 4.3-.6 18.3-.6 23.6-.2 2-.6 3.3-1.8 3.3-1.6 0-2-1-2.2-4.1l-.2-2.2c-.4-5.3-5.9-11-24-11.4l-25.7-.6v83.5c0 18.7 0 34.8 1 43.6.6 5.7 1.8 10.2 7.9 11 2.9.4 7.3.9 10.4.9 2.2 0 3.3.6 3.3 1.6 0 1.4-1.6 2-3.9 2-13.4 0-26.3-.6-32-.6-4.7 0-17.5.6-25.7.6-2.6 0-4.1-.6-4.1-2 0-1 .8-1.6 3.2-1.6 3.1 0 5.5-.4 7.3-.9 4.1-.8 5.3-5.3 5.9-11.2 1-8.6 1-24.7 1-43.4v-83.6zM521.8 1237.1c0-30.9 0-36.6-.4-43.2-.4-6.9-2.5-10.4-6.9-11.4-2.2-.6-4.9-.8-7.3-.8-2 0-3.3-.4-3.3-2 0-1.2 1.6-1.6 4.9-1.6 7.7 0 20.6.6 26.5.6 5.1 0 17.1-.6 24.8-.6 2.6 0 4.3.4 4.3 1.6 0 1.6-1.2 2-3.2 2s-3.7.2-6.1.6c-5.5 1-7.1 4.5-7.5 11.6-.4 6.5-.4 12.2-.4 43.2v35.9c0 19.8 0 35.8.8 44.6.6 5.5 2.1 9.2 8.2 10 2.9.4 7.3.9 10.4.9 2.2 0 3.3.6 3.3 1.6 0 1.4-1.6 2-3.9 2-13.4 0-26.3-.6-31.8-.6-4.7 0-17.5.6-25.7.6-2.6 0-4.1-.6-4.1-2 0-1 .8-1.6 3.3-1.6 3.1 0 5.5-.4 7.3-.9 4.1-.8 5.3-4.3 5.9-10.2 1-8.6 1-24.7 1-44.4v-35.9zM625.7 1189.4l-30.4.8c-11.8.4-16.7 1.4-19.8 5.9-2 3.1-3.1 5.5-3.5 7.1-.4 1.6-1 2.5-2.2 2.5-1.4 0-1.8-1-1.8-3.3 0-3.2 3.9-21.8 4.3-23.4.6-2.6 1.2-3.9 2.4-3.9 1.6 0 3.7 2 8.8 2.5 5.9.6 13.6 1 20.4 1h80.7c6.5 0 11-.6 14.1-1 3.1-.6 4.7-1 5.5-1 1.4 0 1.6 1.2 1.6 4.3 0 4.3-.6 18.3-.6 23.6-.2 2-.6 3.3-1.8 3.3-1.6 0-2-1-2.2-4.1l-.2-2.2c-.4-5.3-5.9-11-24-11.4l-25.7-.6v83.5c0 18.7 0 34.8 1 43.6.6 5.7 1.8 10.2 7.9 11 2.9.4 7.3.9 10.4.9 2.2 0 3.3.6 3.3 1.6 0 1.4-1.6 2-3.9 2-13.4 0-26.3-.6-32-.6-4.7 0-17.5.6-25.7.6-2.6 0-4.1-.6-4.1-2 0-1 .8-1.6 3.3-1.6 3.1 0 5.5-.4 7.3-.9 4.1-.8 5.3-5.3 5.9-11.2 1-8.6 1-24.7 1-43.4v-83.6z" class="st1"/><path d="M719.2 1237.1c0-30.9 0-36.6-.4-43.2-.4-6.9-2-10.2-8.8-11.6-1.6-.4-5.1-.6-7.9-.6-2.3 0-3.5-.4-3.5-1.8s1.4-1.8 4.5-1.8c10.8 0 23.6.6 29.7.6 4.9 0 17.7-.6 25.1-.6 3.1 0 4.5.4 4.5 1.8s-1.2 1.8-3.2 1.8c-2.2 0-3.5.2-5.9.6-5.5 1-7.1 4.5-7.5 11.6-.4 6.5-.4 12.2-.4 43.2v28.5c0 29.5 5.9 42 15.9 50.1 9.2 7.5 18.5 8.3 25.5 8.3 9 0 19.9-2.9 28.1-11 11.2-11.2 11.8-29.5 11.8-50.5V1237c0-30.9 0-36.6-.4-43.2-.4-6.9-2-10.2-8.8-11.6-1.6-.4-5.1-.6-7.3-.6s-3.5-.4-3.5-1.8 1.4-1.8 4.3-1.8c10.4 0 23.2.6 23.4.6 2.4 0 15.3-.6 23.2-.6 2.9 0 4.3.4 4.3 1.8s-1.2 1.8-3.7 1.8c-2.2 0-3.5.2-5.9.6-5.5 1-7.1 4.5-7.5 11.6-.4 6.5-.4 12.2-.4 43.2v21.8c0 22.6-2.2 46.6-19.4 61.3-14.5 12.5-29.1 14.7-42.4 14.7-10.8 0-30.4-.6-45.2-14.1-10.4-9.4-18.1-24.4-18.1-54v-29.6z" class="st1"/><path d="m913.3 1189.4-30.3.8c-11.8.4-16.7 1.4-19.8 5.9-2 3.1-3.1 5.5-3.5 7.1-.4 1.6-1 2.5-2.2 2.5-1.4 0-1.8-1-1.8-3.3 0-3.2 3.9-21.8 4.3-23.4.6-2.6 1.2-3.9 2.5-3.9 1.6 0 3.7 2 8.8 2.5 5.9.6 13.6 1 20.4 1h80.7c6.5 0 11-.6 14.1-1 3.1-.6 4.7-1 5.5-1 1.4 0 1.6 1.2 1.6 4.3 0 4.3-.6 18.3-.6 23.6-.2 2-.6 3.3-1.8 3.3-1.6 0-2-1-2.2-4.1l-.2-2.2c-.4-5.3-5.9-11-24-11.4l-25.7-.6v83.5c0 18.7 0 34.8 1 43.6.6 5.7 1.8 10.2 8 11 2.8.4 7.3.9 10.4.9 2.2 0 3.2.6 3.2 1.6 0 1.4-1.6 2-3.9 2-13.4 0-26.3-.6-32-.6-4.7 0-17.5.6-25.7.6-2.6 0-4.1-.6-4.1-2 0-1 .8-1.6 3.3-1.6 3.1 0 5.5-.4 7.3-.9 4.1-.8 5.3-5.3 5.9-11.2 1-8.6 1-24.7 1-43.4v-83.6zM1015.6 1237.1c0-30.9 0-36.6-.4-43.2-.4-6.9-2-10.2-8.8-11.6-1.6-.4-5.1-.6-7.9-.6-2.2 0-3.5-.4-3.5-1.8s1.4-1.8 4.5-1.8c5.5 0 11.4.2 16.5.2 5.3.2 10 .4 12.8.4 6.5 0 47.1 0 50.9-.2 3.9-.4 7.1-.8 8.8-1.2 1-.2 2.2-.8 3.3-.8 1 0 1.2.8 1.2 1.8 0 1.4-1 3.9-1.6 13.2-.2 2-.6 11-1 13.5-.2 1-.6 2.2-2 2.2s-1.8-1-1.8-2.9c0-1.4-.2-4.9-1.2-7.3-1.4-3.7-3.4-6.1-13.6-7.3-3.5-.4-24.8-.8-28.9-.8-1.1 0-1.4.6-1.4 2v51.5c0 1.4.2 2.3 1.4 2.3 4.5 0 27.9 0 32.6-.4 4.9-.4 8-1 9.8-3.1 1.4-1.6 2.2-2.6 3.2-2.6.8 0 1.4.4 1.4 1.6 0 1.2-.8 4.5-1.7 14.9-.2 4.1-.8 12.2-.8 13.6 0 1.6 0 3.9-1.9 3.9-1.4 0-1.8-.8-1.8-1.8-.2-2-.2-4.7-.8-7.3-1-4.1-3.9-7.1-11.4-8-3.9-.4-24-.6-28.9-.6-1 0-1.2.8-1.2 2v16.1c0 6.9-.2 25.7 0 31.6.4 14.1 3.7 17.1 24.4 17.1 5.3 0 13.9 0 19.1-2.5 5.3-2.5 7.7-6.7 9.2-15.1.4-2.2.8-3 2.2-3 1.6 0 1.6 1.6 1.6 3.7 0 4.7-1.6 18.5-2.6 22.6-1.4 5.3-3.2 5.3-11 5.3-15.3 0-26.5-.4-35.3-.6-8.7-.4-15-.6-21.2-.6-2.2 0-6.7 0-11.6.2-4.7 0-10 .4-14.1.4-2.6 0-4.1-.6-4.1-2 0-1 .8-1.6 3.3-1.6 3 0 5.5-.4 7.3-.9 4.1-.8 5.1-5.3 5.9-11.2 1-8.6 1-24.7 1-43.4v-35.9zM1152.7 1255c0-34.9 23-79.9 84.1-79.9 50.7 0 82.3 29.5 82.3 76.2 0 46.6-32.6 83.5-84.3 83.5-58.5.1-82.1-43.7-82.1-79.8zm137.9 3.9c0-45.7-26.3-74-59.7-74-23.4 0-50.1 13-50.1 63.8 0 42.4 23.4 76 62.5 76 14.3 0 47.3-6.9 47.3-65.8zM1372.1 1272.9c0 19.6 0 34.8 1 43.4.6 5.9 1.8 10.4 7.9 11.2 2.9.4 7.3.9 10.2.9 2.7 0 3.5.6 3.5 1.6 0 1.4-1.4 2-4.5 2-12.8 0-25.7-.6-31-.6-5.3 0-18.1.6-25.9.6-2.9 0-4.3-.4-4.3-2 0-1 .8-1.6 3.1-1.6 3.1 0 5.5-.4 7.3-.9 4-.8 5.1-5.3 5.9-11.2 1-8.6 1-23.8 1-43.4V1237c0-30.9 0-36.6-.4-43.2-.4-6.9-2-10.2-8.8-11.6-1.6-.4-5.1-.6-7.9-.6-2 0-3.5-.4-3.5-1.6 0-1.6 1.6-2 4.7-2 5.3 0 11.2.2 16.5.2 5.3.2 10 .4 12.8.4 7.7 0 49.1 0 53.8-.2 3.9-.2 6.3-.2 8.4-.8 1.2-.4 2.3-1.2 3.2-1.2.8 0 1.4.8 1.4 1.8 0 1.4-1 3.9-1.6 9.2-.2 2.1-.6 14.1-1 16.5-.2 1.6-.6 2.8-2.1 2.8-1.4 0-1.8-1-2-3.3 0-1.6 0-4.9-1.2-7.7-1.4-2.9-5.7-5.9-13.4-6.1l-31.4-.6c-1.2 0-1.8.6-1.8 2.8v50.9c0 1.2.2 1.8 1.4 1.8l26.1-.2c3.5 0 6.3 0 9.1-.2 3.9-.2 6.7-1 8.8-3.7 1-1.2 1.4-2 2.7-2 .8 0 1.2.6 1.2 1.8 0 1.2-1 6.3-1.6 12.6-.4 4.1-.8 13.4-.8 14.9 0 1.8 0 3.9-2 3.9-1.2 0-1.6-1.4-1.6-2.8s-.4-3.9-1.2-6.3c-1-2.8-4.1-6.5-10.4-7.3-5.1-.6-26.7-.6-30.2-.6-1 0-1.4.4-1.4 1.8v16.5zM1503.7 1237.1c0-30.9 0-36.6-.4-43.2-.4-6.9-2-10.2-8.7-11.6-1.7-.4-5.1-.6-8-.6-2.2 0-3.4-.4-3.4-1.8s1.4-1.8 4.5-1.8c10.8 0 23.6.6 29.3.6 8.3 0 20.2-.6 29.5-.6 25.5 0 34.7 8.6 37.9 11.6 4.5 4.3 10.2 13.4 10.2 24.2 0 28.9-21.2 49.3-50.1 49.3-1 0-3.2 0-4.3-.2-1-.2-2.5-.4-2.5-1.8 0-1.6 1.4-2.2 5.7-2.2 11.4 0 27.3-12.8 27.3-33.6 0-6.7-.6-20.4-12-30.5-7.3-6.7-15.7-7.9-20.4-7.9-3.1 0-6.2.2-7.9.8-1.1.4-1.7 1.6-1.7 3.9v81.5c0 18.7 0 34.8 1 43.6.6 5.7 1.9 10.2 7.9 11 2.8.4 7.3.9 10.4.9 2.2 0 3.3.6 3.3 1.6 0 1.4-1.6 2-3.9 2-13.5 0-26.3-.6-31.6-.6-4.7 0-17.5.6-25.7.6-2.6 0-4.1-.6-4.1-2 0-1 .8-1.6 3.3-1.6 3 0 5.5-.4 7.3-.9 4.1-.8 5.1-5.3 5.9-11.2 1-8.6 1-24.7 1-43.4v-36.1zM1599.6 1255c0-34.9 23-79.9 84.1-79.9 50.7 0 82.3 29.5 82.3 76.2 0 46.6-32.6 83.5-84.3 83.5-58.4.1-82.1-43.7-82.1-79.8zm138 3.9c0-45.7-26.3-74-59.7-74-23.4 0-50.1 13-50.1 63.8 0 42.4 23.4 76 62.5 76 14.3 0 47.3-6.9 47.3-65.8zM1818.8 1272.9c0 26.1 0 40.1 4.3 43.8 3.5 3.1 8.8 4.5 24.7 4.5 10.8 0 18.8-.2 23.8-5.7 2.5-2.6 4.9-8.3 5.3-12.2.2-1.8.6-3.1 2.3-3.1 1.4 0 1.6 1 1.6 3.5 0 2.3-1.4 17.5-3 23.4-1.2 4.5-2.3 5.5-12.8 5.5-14.7 0-25.3-.4-34.4-.6-9.2-.4-16.5-.6-24.9-.6-2.2 0-6.7 0-11.6.2-4.7 0-9.9.4-14 .4-2.6 0-4.1-.6-4.1-2 0-1 .8-1.6 3.3-1.6 3.1 0 5.5-.4 7.3-.9 4-.8 5.1-5.3 5.9-11.2 1-8.6 1-24.7 1-43.4V1237c0-30.9 0-36.6-.4-43.2-.4-6.9-2-10.2-8.8-11.6-1.6-.4-4-.6-6.7-.6-2.2 0-3.5-.4-3.5-1.8s1.4-1.8 4.5-1.8c9.6 0 22.4.6 27.9.6 4.9 0 19.7-.6 27.7-.6 2.8 0 4.3.4 4.3 1.8s-1.2 1.8-3.7 1.8c-2.2 0-5.5.2-7.9.6-5.5 1-7.1 4.5-7.5 11.6-.4 6.5-.4 12.2-.4 43.2v35.9zM1901.3 1237.1c0-30.9 0-36.6-.4-43.2-.4-6.9-2.4-10.4-6.9-11.4-2.2-.6-4.9-.8-7.3-.8-2 0-3.3-.4-3.3-2 0-1.2 1.6-1.6 4.9-1.6 7.7 0 20.6.6 26.5.6 5.1 0 17.1-.6 24.9-.6 2.6 0 4.3.4 4.3 1.6 0 1.6-1.2 2-3.3 2-2 0-3.7.2-6.1.6-5.5 1-7.1 4.5-7.5 11.6-.4 6.5-.4 12.2-.4 43.2v35.9c0 19.8 0 35.8.8 44.6.6 5.5 2 9.2 8.2 10 2.9.4 7.3.9 10.4.9 2.2 0 3.2.6 3.2 1.6 0 1.4-1.6 2-3.9 2-13.4 0-26.3-.6-31.8-.6-4.7 0-17.5.6-25.7.6-2.6 0-4-.6-4-2 0-1 .8-1.6 3.2-1.6 3.1 0 5.5-.4 7.3-.9 4.1-.8 5.3-4.3 5.9-10.2 1-8.6 1-24.7 1-44.4v-35.9zM2005.2 1189.4l-30.3.8c-11.8.4-16.7 1.4-19.8 5.9-2 3.1-3 5.5-3.5 7.1-.4 1.6-1 2.5-2.2 2.5-1.4 0-1.8-1-1.8-3.3 0-3.2 3.9-21.8 4.3-23.4.6-2.6 1.2-3.9 2.4-3.9 1.6 0 3.7 2 8.7 2.5 5.9.6 13.7 1 20.4 1h80.7c6.5 0 11-.6 14.1-1 3.1-.6 4.7-1 5.5-1 1.4 0 1.6 1.2 1.6 4.3 0 4.3-.6 18.3-.6 23.6-.2 2-.6 3.3-1.8 3.3-1.6 0-2.1-1-2.3-4.1l-.2-2.2c-.4-5.3-5.9-11-24-11.4l-25.7-.6v83.5c0 18.7 0 34.8 1 43.6.6 5.7 1.8 10.2 7.9 11 2.8.4 7.3.9 10.4.9 2.2 0 3.3.6 3.3 1.6 0 1.4-1.6 2-3.9 2-13.4 0-26.3-.6-32-.6-4.7 0-17.5.6-25.6.6-2.7 0-4.1-.6-4.1-2 0-1 .8-1.6 3.2-1.6 3.1 0 5.5-.4 7.3-.9 4.1-.8 5.3-5.3 5.9-11.2 1-8.6 1-24.7 1-43.4v-83.6zM2107.5 1237.1c0-30.9 0-36.6-.4-43.2-.4-6.9-2.5-10.4-6.9-11.4-2.2-.6-4.9-.8-7.3-.8-2 0-3.3-.4-3.3-2 0-1.2 1.6-1.6 4.9-1.6 7.7 0 20.6.6 26.4.6 5.1 0 17.1-.6 24.9-.6 2.6 0 4.3.4 4.3 1.6 0 1.6-1.2 2-3.2 2-2.1 0-3.7.2-6.1.6-5.5 1-7.1 4.5-7.5 11.6-.4 6.5-.4 12.2-.4 43.2v35.9c0 19.8 0 35.8.8 44.6.6 5.5 2 9.2 8.2 10 2.9.4 7.4.9 10.4.9 2.2 0 3.3.6 3.3 1.6 0 1.4-1.6 2-3.9 2-13.4 0-26.3-.6-31.8-.6-4.7 0-17.5.6-25.7.6-2.6 0-4.1-.6-4.1-2 0-1 .8-1.6 3.3-1.6 3.1 0 5.5-.4 7.3-.9 4.1-.8 5.3-4.3 5.9-10.2 1-8.6 1-24.7 1-44.4v-35.9zM2185.3 1312.7c-20-17.5-25.3-40.3-25.3-60.1 0-13.9 4.3-37.9 23.8-55.8 14.7-13.5 34-21.6 64.4-21.6 12.7 0 20.2.8 29.5 2 7.8 1 14.3 2.8 20.4 3.5 2.2.2 3.1 1.2 3.1 2.5 0 1.6-.6 4.1-1 11.2-.4 6.7-.2 17.9-.6 22-.2 3.1-.6 4.7-2.4 4.7-1.6 0-2.1-1.6-2.1-4.5-.2-6.3-2.8-13.5-7.9-18.8-6.7-7.1-22.6-12.6-41.4-12.6-17.7 0-29.3 4.5-38.3 12.6-14.8 13.6-18.7 33-18.7 52.8 0 48.5 36.9 72.5 64.2 72.5 18.2 0 29.2-2 37.3-11.4 3.5-3.9 6.1-9.8 6.9-13.4.6-3.3 1-4.1 2.6-4.1 1.4 0 1.8 1.4 1.8 3.1 0 2.4-2.4 20.2-4.5 27.1-1 3.5-1.8 4.5-5.3 5.9-8.2 3.3-23.6 4.7-36.6 4.7-27.9-.1-51.4-6.2-69.9-22.3zM2318.7 1329.6c-3.2-1.4-3.9-2.5-3.9-6.9 0-11.2.8-23.4 1-26.7.2-3.1.8-5.3 2.5-5.3 1.8 0 2 1.8 2 3.5 0 2.6.8 6.9 1.8 10.4 4.5 15.1 16.5 20.6 29.2 20.6 18.3 0 27.3-12.4 27.3-23.2 0-10-3-19.3-19.9-32.6l-9.4-7.3c-22.4-17.5-30.1-31.8-30.1-48.3 0-22.4 18.7-38.5 47.1-38.5 13.3 0 21.8 2 27.1 3.5 1.8.4 2.9 1 2.9 2.5 0 2.7-.8 8.5-.8 24.4 0 4.5-.6 6.1-2.2 6.1-1.4 0-2-1.2-2-3.7 0-1.8-1-8.1-5.3-13.5-3.1-3.9-9-10-22.2-10-15.1 0-24.2 8.8-24.2 21 0 9.4 4.7 16.5 21.6 29.3l5.7 4.3c24.7 18.5 33.4 32.6 33.4 51.9 0 11.8-4.5 25.9-19.1 35.5-10.2 6.5-21.6 8.3-32.4 8.3-12.1 0-21.3-1.4-30.1-5.3zM454.4 1494.2h-34.2v70.6h-28.1v-70.6H358v-22.7h96.4v22.7zM537 1564.8h-24.2v-37.9c0-3.2-.7-6.3-2.1-9-1.4-2.7-4-4.1-8-4.1-3.1 0-5.8 1-8.1 3s-4.6 4.6-6.7 7.7v40.2h-24.2v-93.3H488v34.6c4-4.3 8-7.2 11.9-8.7 3.9-1.6 8-2.3 12.5-2.3 16.4 0 24.6 9.2 24.6 27.6v42.2zM618.6 1536.4h-48.2c.9 4.2 3.2 7.6 6.9 10.2 3.7 2.6 7.9 4 12.5 4 8.2 0 17.2-2.3 27-6.8v15c-3.5 1.8-7.8 3.5-12.9 5-5 1.5-11.5 2.3-19.2 2.3-8.4 0-15.6-1.6-21.5-4.7s-10.3-7.4-13.3-12.8c-2.9-5.4-4.4-11.5-4.4-18.3 0-6.7 1.5-12.7 4.4-18.1 2.9-5.3 7.4-9.5 13.3-12.5s13.1-4.6 21.5-4.6c5.6 0 10.9 1.2 16.1 3.6 5.2 2.4 9.4 6.3 12.8 11.8 3.3 5.4 5 12.5 5 21.1v4.8zm-22.8-12c0-4.4-1.1-7.9-3.2-10.5-2.2-2.6-5.3-3.9-9.4-3.9-4 0-7.3 1.3-9.8 4-2.5 2.7-3.7 6.2-3.7 10.4h26.1zM766.4 1523c0 8-1.5 14.8-4.5 20.4-3 5.6-6.9 10.1-11.8 13.4-4.9 3.3-10.2 5.6-15.9 7.1-5.7 1.4-11.3 2.2-17 2.2-7.9 0-15.6-1.4-23-4-7.5-2.7-13.7-7.3-18.7-13.7-5-6.5-7.5-14.9-7.5-25.2v-51.5h28v44.3c0 6.2.9 11.2 2.7 15.2 1.8 4 4.2 7 7.4 8.8 3.2 1.9 6.9 2.8 11.2 2.8 4.1 0 7.8-.9 11-2.7 3.2-1.9 5.6-4.8 7.4-8.8 1.8-4 2.7-9.1 2.7-15.2v-44.4h28.1v51.3zM854.6 1564.8h-24.2v-36.9c0-3.7-.6-7-1.9-9.9-1.2-2.8-3.9-4.2-8.1-4.2-2 0-3.7.4-5.2 1.1-1.5.7-2.8 1.7-4 2.9-1.2 1.2-2.2 2.3-3 3.4-.8 1.1-1.6 2.2-2.5 3.4v40.2h-24.2v-68.5h24.2v9.9c3.8-4.1 7.6-7 11.5-8.6 3.8-1.6 8.1-2.5 12.8-2.5 16.4 0 24.6 9.8 24.6 29.5v40.2zM891.5 1564.8h-24.2v-68.5h24.2v68.5zm-1.9-84.3c0 2.8-1 5.2-3 7.2s-4.4 3-7.2 3c-1.9 0-3.6-.5-5.1-1.4-1.5-.9-2.8-2.1-3.7-3.7-.9-1.5-1.3-3.3-1.3-5.1 0-2.8 1-5.2 2.9-7.2 2-2 4.4-3 7.2-3s5.2 1 7.2 3 3 4.4 3 7.2zM977.4 1496.3l-31.1 68.5h-17.9l-30.5-68.5h26l14.2 35.9 15.7-35.9h23.6zM1050.7 1536.4h-48.2c.9 4.2 3.3 7.6 6.9 10.2 3.7 2.6 7.8 4 12.5 4 8.2 0 17.1-2.3 27-6.8v15c-3.5 1.8-7.8 3.5-12.9 5-5.1 1.5-11.5 2.3-19.3 2.3-8.4 0-15.6-1.6-21.5-4.7s-10.3-7.4-13.3-12.8c-2.9-5.4-4.4-11.5-4.4-18.3 0-6.7 1.5-12.7 4.4-18.1 2.9-5.3 7.4-9.5 13.3-12.5s13.1-4.6 21.5-4.6c5.6 0 10.9 1.2 16.1 3.6 5.2 2.4 9.4 6.3 12.8 11.8 3.3 5.4 5 12.5 5 21.1v4.8zm-22.8-12c0-4.4-1.1-7.9-3.2-10.5-2.2-2.6-5.3-3.9-9.3-3.9-4 0-7.3 1.3-9.8 4-2.5 2.7-3.7 6.2-3.7 10.4h26zM1119.8 1500l-9 24.3c-3.7-3.5-7.4-5.2-11.2-5.2-3.4 0-6.4 1.1-8.9 3.4s-4.9 6.6-7.1 12.8v29.4h-24.2v-68.5h24.2v16.6c1.5-4.1 4.2-8.1 8.1-11.9 3.9-3.9 8.4-5.8 13.6-5.8 2.7 0 5.1.4 7.2 1.2 2.1.8 4.5 2.1 7.3 3.7zM1174 1544.8c0 6.3-2.3 11.4-6.9 15.3-4.6 3.9-11.4 5.9-20.5 5.9-5.1 0-9.6-.5-13.5-1.4-3.9-.9-8.2-2.2-12.9-3.9v-17.2c4.1 2.3 7.6 4.1 10.6 5.3 3 1.2 6.3 1.8 9.9 1.8 6 0 9-1.7 9-5 0-1.1-.4-2.1-1.3-3-.9-.9-2.4-1.9-4.6-3-2.2-1.1-5.1-2.4-8.7-3.9-4.5-2-8.3-4.6-11.4-7.9-3.1-3.3-4.7-7.4-4.7-12.2 0-3.4 1.1-6.7 3.1-9.8 2.1-3.1 5.2-5.7 9.4-7.7s9.3-3 15.2-3c1.4 0 3.3.1 5.5.3 2.2.2 5 .8 8.4 1.6 3.4.9 6.6 2.1 9.6 3.6v16.8c-1.4-.9-2.6-1.6-3.6-2.2-1-.6-2.2-1.2-3.9-1.9-1.6-.7-3.5-1.4-5.7-1.9-2.2-.6-4.4-.8-6.7-.8-2.8 0-4.7.5-5.7 1.6s-1.5 2.2-1.5 3.2c0 1.1.5 2.2 1.6 3.1 1.1.9 3.5 2.2 7.2 3.6 5.4 2.1 9.7 4.2 12.9 6.3 3.2 2.2 5.5 4.6 6.9 7.2 1.7 2.6 2.3 5.7 2.3 9.2zM1209.6 1564.8h-24.2v-68.5h24.2v68.5zm-2-84.3c0 2.8-1 5.2-3 7.2s-4.4 3-7.2 3c-1.9 0-3.6-.5-5.1-1.4-1.5-.9-2.8-2.1-3.6-3.7-.9-1.5-1.3-3.3-1.3-5.1 0-2.8 1-5.2 2.9-7.2 2-2 4.4-3 7.2-3s5.2 1 7.2 3c1.9 2 2.9 4.4 2.9 7.2zM1277.3 1560.8c-2.5 1.2-6 2.4-10.4 3.5s-8.6 1.7-12.7 1.7c-17.4 0-26.1-8.5-26.1-25.6v-27.3h-11v-4.2l32.4-33h2.7v20.4h23.1v16.8h-23.1v21.9c0 2.6.1 4.6.5 6.2.3 1.6 1.2 2.9 2.7 3.9 1.5 1.1 3.7 1.6 6.6 1.6 3.9 0 8.9-1.6 15.2-4.8v18.9zM1358.2 1496.3l-46.5 99.6h-24.5l18.8-40.1-27.1-59.5h26l13.9 34.1 15.8-34.1h23.6zM1475.5 1530.5c0 6.8-1.5 12.9-4.4 18.2-3 5.3-7.4 9.6-13.3 12.7-5.9 3.1-13.1 4.6-21.5 4.6-8.5 0-15.7-1.5-21.5-4.6-5.9-3.1-10.3-7.3-13.3-12.7-2.9-5.3-4.4-11.4-4.4-18.2 0-5.1.8-9.8 2.5-14.1 1.6-4.2 4.1-7.9 7.5-11.2 3.3-3.2 7.4-5.7 12.3-7.5 4.9-1.8 10.5-2.6 16.9-2.6 6.5 0 12.2.9 17.1 2.7 4.9 1.8 9 4.3 12.3 7.4 3.2 3.2 5.7 6.9 7.4 11.2 1.6 4.2 2.4 8.9 2.4 14.1zm-25.4 0c0-5.4-1.2-9.7-3.5-12.7-2.3-3.1-5.8-4.6-10.3-4.6-4.5 0-7.8 1.5-10.2 4.6-2.3 3.1-3.5 7.3-3.5 12.7 0 5.4 1.2 9.7 3.6 12.8 2.4 3.1 5.8 4.7 10.2 4.7 4.5 0 7.9-1.5 10.3-4.7 2.2-3.1 3.4-7.4 3.4-12.8zM1530.9 1488.9c-3.7-.8-6.6-1.3-9-1.3-2.6 0-4.6.8-6 2.5-1.5 1.7-2.2 4.1-2.2 7.2v2.4h12.2v16.4h-12.2v48.5h-24.2v-48.5h-11.2v-16.4h11.2v-1.2c0-4.8.9-9.3 2.8-13.6 1.8-4.3 5-7.8 9.3-10.6 4.3-2.8 10-4.2 17.2-4.2 4 0 8.1.4 12.2 1.2v17.6zM1676.8 1564.8h-34.3l-35.7-43.7v43.7h-28v-93.3h28v41.7l33.8-41.7h30.5l-34.7 43.7 40.4 49.6zM1753.1 1561.4c-3.5 1.4-6.8 2.5-9.8 3.4-3 .9-6.6 1.3-10.8 1.3-4 0-6.8-.7-8.3-2.1-1.6-1.4-2.7-3.1-3.4-5.1-2.6 2.1-5.5 3.8-8.7 5.2-3.2 1.4-7.4 2.1-12.5 2.1-5 0-9-.9-12.1-2.6-3.1-1.7-5.3-3.9-6.5-6.5-1.2-2.6-1.8-5.3-1.8-8.1 0-4.2 1.1-7.7 3.2-10.5 2.2-2.8 5-5 8.6-6.8 3.6-1.7 8.4-3.6 14.3-5.5 3.4-1.1 5.9-1.9 7.6-2.5 1.7-.6 3-1 3.9-1.3.9-.3 1.8-.7 2.7-1.2 0-3.3-.7-5.9-2-7.8-1.3-1.9-4.3-2.8-8.8-2.8-5.3 0-10.2 1.2-14.8 3.5-4.5 2.3-8.7 5.3-12.4 9v-18.6c3-2.2 6.3-3.9 9.7-5.3 3.5-1.4 7.1-2.4 11-3.1 3.8-.6 7.7-1 11.6-1 9.9 0 17.4 1.9 22.4 5.8 5 3.8 7.5 9.1 7.5 15.8v26.4c0 2.5.2 4.4.7 5.6.5 1.2 1.3 1.9 2.6 1.9 1.5 0 3.6-.6 6.2-1.9v12.7zm-33.7-13.2V1532c-5.8 2.3-10 4.4-12.6 6.3-2.6 1.9-4 4.4-4 7.6 0 2.3.6 4 2 5.2 1.3 1.2 2.8 1.8 4.6 1.8 1.6 0 3.3-.5 4.9-1.4 1.7-.9 3.4-2 5.1-3.3zM1832.7 1564.8h-24.2v-36.9c0-3.7-.6-7-1.9-9.9-1.2-2.8-3.9-4.2-8.1-4.2-2 0-3.7.4-5.3 1.1-1.5.7-2.8 1.7-4 2.9-1.2 1.2-2.2 2.3-3 3.4-.8 1.1-1.6 2.2-2.5 3.4v40.2h-24.2v-68.5h24.2v9.9c3.8-4.1 7.7-7 11.5-8.6 3.8-1.6 8.1-2.5 12.8-2.5 16.4 0 24.7 9.8 24.7 29.5v40.2zM1897.6 1544.8c0 6.3-2.3 11.4-6.9 15.3-4.6 3.9-11.4 5.9-20.4 5.9-5.1 0-9.6-.5-13.5-1.4-3.9-.9-8.2-2.2-12.9-3.9v-17.2c4.1 2.3 7.6 4.1 10.6 5.3 3 1.2 6.3 1.8 9.9 1.8 6 0 9.1-1.7 9.1-5 0-1.1-.4-2.1-1.3-3-.9-.9-2.4-1.9-4.6-3-2.2-1.1-5.1-2.4-8.7-3.9-4.5-2-8.3-4.6-11.4-7.9-3.1-3.3-4.7-7.4-4.7-12.2 0-3.4 1.1-6.7 3.1-9.8 2.1-3.1 5.3-5.7 9.5-7.7s9.3-3 15.2-3c1.4 0 3.3.1 5.5.3 2.2.2 5 .8 8.4 1.6 3.4.9 6.6 2.1 9.6 3.6v16.8c-1.4-.9-2.6-1.6-3.6-2.2-1-.6-2.3-1.2-3.9-1.9s-3.5-1.4-5.7-1.9c-2.2-.6-4.4-.8-6.7-.8-2.8 0-4.7.5-5.7 1.6s-1.5 2.2-1.5 3.2c0 1.1.5 2.2 1.6 3.1 1.1.9 3.5 2.2 7.2 3.6 5.4 2.1 9.7 4.2 12.9 6.3 3.2 2.2 5.6 4.6 6.9 7.2 1.3 2.6 2 5.7 2 9.2zM1978.8 1561.4c-3.5 1.4-6.8 2.5-9.8 3.4-3 .9-6.6 1.3-10.8 1.3-4 0-6.8-.7-8.3-2.1-1.6-1.4-2.7-3.1-3.4-5.1-2.6 2.1-5.5 3.8-8.7 5.2-3.2 1.4-7.3 2.1-12.5 2.1-5 0-9-.9-12.1-2.6-3.1-1.7-5.2-3.9-6.5-6.5-1.2-2.6-1.9-5.3-1.9-8.1 0-4.2 1.1-7.7 3.2-10.5s5-5 8.6-6.8c3.6-1.7 8.3-3.6 14.3-5.5 3.3-1.1 5.9-1.9 7.6-2.5 1.7-.6 3-1 3.9-1.3.9-.3 1.7-.7 2.7-1.2 0-3.3-.7-5.9-2-7.8-1.3-1.9-4.3-2.8-8.7-2.8-5.3 0-10.2 1.2-14.8 3.5-4.5 2.3-8.7 5.3-12.4 9v-18.6c3-2.2 6.2-3.9 9.7-5.3 3.5-1.4 7.1-2.4 11-3.1 3.8-.6 7.7-1 11.6-1 9.9 0 17.4 1.9 22.4 5.8 5 3.8 7.5 9.1 7.5 15.8v26.4c0 2.5.2 4.4.7 5.6.5 1.2 1.3 1.9 2.6 1.9 1.5 0 3.6-.6 6.2-1.9v12.7zm-33.7-13.2V1532c-5.7 2.3-10 4.4-12.6 6.3-2.7 1.9-4 4.4-4 7.6 0 2.3.7 4 2 5.2 1.3 1.2 2.9 1.8 4.6 1.8 1.7 0 3.3-.5 5-1.4 1.6-.9 3.3-2 5-3.3zM2036.8 1544.8c0 6.3-2.3 11.4-6.9 15.3-4.6 3.9-11.4 5.9-20.4 5.9-5.1 0-9.6-.5-13.5-1.4-3.9-.9-8.2-2.2-12.9-3.9v-17.2c4.1 2.3 7.6 4.1 10.6 5.3 3 1.2 6.3 1.8 9.9 1.8 6 0 9.1-1.7 9.1-5 0-1.1-.4-2.1-1.3-3-.9-.9-2.4-1.9-4.6-3-2.2-1.1-5-2.4-8.7-3.9-4.5-2-8.3-4.6-11.4-7.9-3.2-3.3-4.7-7.4-4.7-12.2 0-3.4 1-6.7 3.1-9.8 2.1-3.1 5.2-5.7 9.5-7.7 4.2-2 9.3-3 15.2-3 1.4 0 3.2.1 5.5.3 2.2.2 5 .8 8.4 1.6 3.4.9 6.6 2.1 9.6 3.6v16.8c-1.4-.9-2.6-1.6-3.6-2.2-.9-.6-2.3-1.2-3.9-1.9s-3.5-1.4-5.6-1.9c-2.2-.6-4.4-.8-6.7-.8-2.8 0-4.7.5-5.7 1.6s-1.5 2.2-1.5 3.2c0 1.1.5 2.2 1.6 3.1 1.1.9 3.5 2.2 7.2 3.6 5.4 2.1 9.7 4.2 12.9 6.3 3.2 2.2 5.5 4.6 6.9 7.2 1.2 2.6 1.9 5.7 1.9 9.2z" class="st1"/><path d="M1130.1 202.4h156.7v511.8h-156.7z" style="fill:#df1e38"/><path d="M1130.1 416s19.1-9.2 45.3-8.7c26.2.5 26.9 2 53.5-1.3s49.5-18.4 49.5-18.4c-1.7-5.5-4.2-12.5-7.8-20.3-5.2-11.5-9.6-17.8-26.9-47.5-3.7-6.4-6.9-12-9.2-20.3-2.2-8-2.5-14.9-2.4-19.5.7-11.2 2.6-25.7 7.6-41.9 4.5-14.6 10.3-26.6 15.5-35.7h-125.1V416z" class="st1"/><path d="M1130.1 416v44.9c35.1-18.3 43.1-28.6 45.2-54.2-17.2-.4-34.7 5.2-45.2 9.3zM1217.6 714.6c0-.2-.7-131.9-18.3-158.8-27.7-42.5 23.3-70.2 38.6-107.9 8.6-21.3 8.4-36 6.6-45.1-8.7 2.6-19.4 4.2-32.6 4.8-.4 6.3-1.8 17.1-6.9 30-15.4 38.8-74.8 69.1-58.2 118.4 11.7 34.8 6.9 155.8 6.8 158.7h64zM1286.8 272.2v-39c-2 7.2-3.5 15-3.5 22.6-.1 5.7 1.4 11.2 3.5 16.4z" class="st3"/><path d="M1277.5 202.4h-22.3s-31.4 54.8-21 96c3.7 14.8 23.3 44.4 29.1 54.5 5.4 9.5 8.9 18 11 23.5 4.4 10.2 15.6 41.9 2.7 78.3-13.5 38.6-45.2 50-8.9 92.6 7.3 8.6 13.4 20.4 18.5 34V328c-12.6-22-27.8-30.5-29.2-56.8-1.4-30 20.1-68.8 20.1-68.8zM1166.5 234.4l15.7 15.9 24.1.2-12.6 15 9.8 18.3-23.5-6.5-18 11.1-1.9-19.2-21-11.3 22.3-5.3 5.1-18.2zM1212.7 208l6.4 6.4 9.8.1-5.1 6.1 4 7.5-9.6-2.7-7.3 4.5-.8-7.7-8.5-4.7 9.1-2.1 2-7.4z" class="st3"/><path d="m1175.5 310.3 25 25.2 38.2.3-20 23.9 15.7 29-37.5-10.4-28.5 17.7-3.1-30.4-33.2-18.1 35.4-8.4 8-28.8z" class="st3"/><path d="M1106.5 714.6h191.8v35.9h-191.8z" class="st1"/><path d="M666.3 0H627v750.9l503.1-.4V173.9C851.2 162.9 666.3 0 666.3 0zm108.3 715.5h-76.2V270.3c30.7 22 76.2 41 76.2 41v404.2zm145-1.3h-89.3V331.8c35.1 17.6 89.3 30.7 89.3 30.7v351.7zm159 0H973.7v-340c33.7 13.2 104.9 19 104.9 19v321zM1750.5 0s-184.9 162.9-463.8 173.9v576.6l503.1.4V0h-39.3zm-307.3 714.2h-104.9V393.3s71.2-5.9 104.9-19v339.9zm143.4 0h-89.3V362.5s54.2-13.2 89.3-30.7v382.4zm131.8 1.3h-76.2V311.3s45.4-19 76.2-41v445.2z" class="st1"/></svg>